<svg id="Layer_1" data-name="Layer 1" xmlns="http://www.w3.org/2000/svg" viewBox="0 0 686.8 194.34"><defs><style>.cls-1,.cls-2{fill:#677b8c;}.cls-1{fill-rule:evenodd;}</style></defs><title>FACEBOOK_FamilyLockup_logo_2L_BlueGray_RGB</title><path class="cls-1" d="M395.27,192.72c-20.35,0-36.12,14.91-36.12,35a34.28,34.28,0,0,0,11.34,25.92,2.93,2.93,0,0,1,1,2.06l.19,6.42a2.9,2.9,0,0,0,4.06,2.56l7.16-3.16a2.92,2.92,0,0,1,1.93-.15,39.2,39.2,0,0,0,10.46,1.39c20.35,0,36.12-14.9,36.12-35S415.62,192.72,395.27,192.72Zm21.69,27-10.61,16.82a5.41,5.41,0,0,1-7.83,1.45l-8.44-6.33a2.17,2.17,0,0,0-2.61,0l-11.4,8.65a1.72,1.72,0,0,1-2.49-2.28l10.61-16.83a5.42,5.42,0,0,1,7.84-1.45l8.44,6.33a2.15,2.15,0,0,0,2.6,0l11.4-8.64A1.72,1.72,0,0,1,417,219.69Z" transform="translate(-72.12 -70.78)"/><g id="WA_Logo" data-name="WA Logo"><path class="cls-1" d="M632,203.1a36,36,0,0,0-56.6,43.38l-5.1,18.64,19.06-5a36,36,0,0,0,17.19,4.37h0A36,36,0,0,0,632,203.1Zm-25.44,55.32h0a29.82,29.82,0,0,1-15.21-4.16l-1.1-.65-11.31,3,3-11-.71-1.14a29.89,29.89,0,1,1,25.32,14ZM623,236c-.89-.45-5.31-2.63-6.13-2.93s-1.43-.45-2,.45-2.32,2.93-2.84,3.53-1.05.67-2,.22a24.54,24.54,0,0,1-7.22-4.46,27,27,0,0,1-5-6.22c-.53-.9-.06-1.39.39-1.84s.9-1,1.35-1.57a6.23,6.23,0,0,0,.9-1.5,1.63,1.63,0,0,0-.08-1.57c-.22-.45-2-4.88-2.77-6.68s-1.47-1.51-2-1.54-1.12,0-1.72,0a3.35,3.35,0,0,0-2.4,1.12,10.11,10.11,0,0,0-3.14,7.5c0,4.42,3.22,8.7,3.67,9.3s6.33,9.67,15.35,13.56a51.63,51.63,0,0,0,5.12,1.9,12.38,12.38,0,0,0,5.66.35c1.72-.26,5.31-2.17,6.06-4.27a7.56,7.56,0,0,0,.53-4.27C624.47,236.71,623.87,236.49,623,236Z" transform="translate(-72.12 -70.78)"/></g><path class="cls-2" d="M534.49,205.59a17.27,17.27,0,0,0-4.09-6.29,17.47,17.47,0,0,0-6.29-4.1,26,26,0,0,0-8.62-1.65c-3.79-.17-5-.21-14.64-.21s-10.85,0-14.64.21a26,26,0,0,0-8.62,1.65,18.2,18.2,0,0,0-10.39,10.39,26.42,26.42,0,0,0-1.65,8.62c-.17,3.78-.21,5-.21,14.64s0,10.85.21,14.64a26.47,26.47,0,0,0,1.65,8.62,17.48,17.48,0,0,0,4.1,6.28,17.3,17.3,0,0,0,6.29,4.1,26,26,0,0,0,8.62,1.65c3.79.17,5,.21,14.64.21s10.85,0,14.64-.21a26,26,0,0,0,8.62-1.65,18.17,18.17,0,0,0,10.38-10.38,26,26,0,0,0,1.65-8.62c.18-3.79.22-5,.22-14.64s0-10.86-.22-14.64A25.9,25.9,0,0,0,534.49,205.59Zm-4.74,37.6a19.62,19.62,0,0,1-1.22,6.6,10.82,10.82,0,0,1-2.66,4.08,11.06,11.06,0,0,1-4.08,2.66,19.86,19.86,0,0,1-6.59,1.22c-3.75.17-4.87.21-14.35.21s-10.61,0-14.35-.21a19.86,19.86,0,0,1-6.59-1.22,11.18,11.18,0,0,1-4.09-2.66,10.92,10.92,0,0,1-2.65-4.08,19.36,19.36,0,0,1-1.22-6.6c-.18-3.74-.21-4.86-.21-14.34s0-10.61.21-14.35a19.36,19.36,0,0,1,1.22-6.6,11,11,0,0,1,2.65-4.08,11.18,11.18,0,0,1,4.09-2.66,19.86,19.86,0,0,1,6.59-1.22c3.74-.17,4.87-.21,14.35-.21s10.6,0,14.35.21a19.86,19.86,0,0,1,6.59,1.22,11.06,11.06,0,0,1,4.08,2.66,10.9,10.9,0,0,1,2.66,4.08,19.62,19.62,0,0,1,1.22,6.6c.17,3.74.21,4.86.21,14.35S529.92,239.45,529.75,243.19Zm-28.9-32.58a18.24,18.24,0,1,0,18.23,18.24A18.24,18.24,0,0,0,500.85,210.61Zm0,30.07a11.84,11.84,0,1,1,11.84-11.83A11.84,11.84,0,0,1,500.85,240.68Zm18.95-35.05a4.26,4.26,0,1,0,4.26,4.26A4.26,4.26,0,0,0,519.8,205.63Z" transform="translate(-72.12 -70.78)"/><path class="cls-2" d="M289.69,192.94a36.13,36.13,0,0,0-5.62,71.81V239.5h-9.23V229.06h9.23v-7.95c0-9.06,5.37-14.08,13.62-14.08a51,51,0,0,1,8.05.76v8.83h-4.52c-4.49,0-5.92,2.81-5.92,5.67v6.77h10l-1.6,10.44h-8.43v25.25a36.13,36.13,0,0,0-5.62-71.81Z" transform="translate(-72.12 -70.78)"/><path class="cls-2" d="M749.24,208.66a26.19,26.19,0,0,0-10.32-5,32.29,32.29,0,0,0-6.57-.83c-1.64,0-3.29,0-4.93,0H704c-1.64,0-3.29,0-4.94,0a32.28,32.28,0,0,0-6.56.83,26.19,26.19,0,0,0-10.32,5,25.92,25.92,0,0,0,10.32,45.41,32.29,32.29,0,0,0,6.57.83c1.64,0,3.29,0,4.93,0h23.42c1.64,0,3.29,0,4.94,0a32.28,32.28,0,0,0,6.56-.83,25.9,25.9,0,0,0,10.32-45.41Zm-11.43,27.21A9.37,9.37,0,0,1,734,237.4a25.8,25.8,0,0,1-4.12.21H701.54a25.8,25.8,0,0,1-4.12-.21,9.24,9.24,0,0,1-3.81-1.52,8.52,8.52,0,0,1,0-14,9.39,9.39,0,0,1,3.81-1.54,25.86,25.86,0,0,1,4.12-.21h28.34a25.8,25.8,0,0,1,4.12.21,9.24,9.24,0,0,1,3.81,1.52,8.53,8.53,0,0,1,0,14.06Z" transform="translate(-72.12 -70.78)"/><path class="cls-2" d="M126.12,73.15v9.48a1,1,0,0,1-1,1H84.38V103H118a1,1,0,0,1,1,1v9.48a1,1,0,0,1-1,1H84.38v28.65a1,1,0,0,1-1,1H73.15a1,1,0,0,1-1-1V73.15a1,1,0,0,1,1-1h51.94A1,1,0,0,1,126.12,73.15Z" transform="translate(-72.12 -70.78)"/><path class="cls-2" d="M209.68,144.25H198.45a1.13,1.13,0,0,1-1.19-.93c-1.49-5.92-3.29-12.16-5.35-18.44H157.44c-2.06,6.28-3.86,12.52-5.31,18.44a1.11,1.11,0,0,1-1.18.93H140.13c-.72,0-1.13-.41-.93-1.13,6.49-23,16.38-48.33,26.38-69.66a2,2,0,0,1,2-1.34h14.63a1.87,1.87,0,0,1,2,1.19c9.94,21.53,19.88,46.83,26.43,69.81C210.81,143.84,210.4,144.25,209.68,144.25Zm-21.59-30.5c-3.76-10.41-7.93-20.81-12.21-30.29h-2.42c-4.27,9.48-8.5,19.88-12.26,30.29Z" transform="translate(-72.12 -70.78)"/><path class="cls-2" d="M228.12,108.8c0-22.15,14.53-38,35.76-38h1.54c13.19,0,23.39,6.7,28.86,16.39a1,1,0,0,1-.42,1.44l-9.06,4.48a1.29,1.29,0,0,1-1.81-.41c-3.81-6.65-9.53-10.15-18-10.15h-1.54c-13,0-22.36,10.2-22.36,25.76,0,15.15,8.86,25.55,22.36,25.55H265c8.66,0,13.71-2.93,17.57-7.42a1.32,1.32,0,0,1,1.7-.36l9.33,4.54a.84.84,0,0,1,.51.72,1.32,1.32,0,0,1-.31.77c-5.72,8.35-16,13.5-28.59,13.5h-1.55C241.72,145.59,228.12,130.34,228.12,108.8Z" transform="translate(-72.12 -70.78)"/><path class="cls-2" d="M376.29,133.74v9.48a1,1,0,0,1-1,1H321.17a1,1,0,0,1-1-1V73.15a1,1,0,0,1,1-1h53.17a1,1,0,0,1,1,1v9.48a1,1,0,0,1-1,1H332.4v18.76h34.11a1,1,0,0,1,1,1v9.37a1,1,0,0,1-1,1H332.4v18.86h42.86A1,1,0,0,1,376.29,133.74Z" transform="translate(-72.12 -70.78)"/><path class="cls-2" d="M469.44,124.47c0,12.46-9.48,19.78-26.79,19.78H407.21a1,1,0,0,1-1-1V73.15a1,1,0,0,1,1-1h32.3c16.9,0,25.71,6.8,25.71,18.65,0,7.11-3.14,12.83-12.16,15.56C464.5,108.75,469.44,115.61,469.44,124.47ZM439.25,83.35H418.44v19.38h20.81c9.69,0,13.6-3.3,13.6-9.69S448.94,83.35,439.25,83.35Zm17.62,40c0-6.38-4-9.73-14.17-9.73H418.44V133H442.7C453.11,133,456.87,129.77,456.87,123.38Z" transform="translate(-72.12 -70.78)"/><path class="cls-2" d="M491,108.19c0-21.69,14.42-37.41,37.09-37.41h1.55c22.67,0,37.09,15.61,37.09,37.41s-14.42,37.4-37.09,37.4h-1.55C505.45,145.59,491,130,491,108.19Zm38.64,25.65c14.73,0,24.11-10.15,24.11-25.65s-9.27-25.66-24.11-25.66h-1.55c-14.73,0-24.11,10.15-24.11,25.66s9.27,25.65,24.11,25.65Z" transform="translate(-72.12 -70.78)"/><path class="cls-2" d="M587.68,108.19c0-21.69,14.42-37.41,37.09-37.41h1.55c22.67,0,37.09,15.61,37.09,37.41s-14.42,37.4-37.09,37.4h-1.55C602.1,145.59,587.68,130,587.68,108.19Zm38.64,25.65c14.73,0,24.11-10.15,24.11-25.65s-9.27-25.66-24.11-25.66h-1.55c-14.73,0-24.11,10.15-24.11,25.66s9.28,25.65,24.11,25.65Z" transform="translate(-72.12 -70.78)"/><path class="cls-2" d="M752.28,144.25H738.73a1.61,1.61,0,0,1-1.39-.72,283.56,283.56,0,0,0-29.88-30.09h-6v29.78a1,1,0,0,1-1,1h-10.2a1,1,0,0,1-1-1V73.15a1,1,0,0,1,1-1h10.2a1,1,0,0,1,1,1v28.44h6.08a239.37,239.37,0,0,0,27-28.85,1.42,1.42,0,0,1,1.34-.62h12.78c.62,0,.93.31.93.72a1.33,1.33,0,0,1-.36.78A251.43,251.43,0,0,1,717,107.16,314.1,314.1,0,0,1,752.9,143C753.42,143.63,753.11,144.25,752.28,144.25Z" transform="translate(-72.12 -70.78)"/></svg>