<svg xmlns="http://www.w3.org/2000/svg" xmlns:xlink="http://www.w3.org/1999/xlink" width="641.104" height="645" viewBox="0 0 641.104 645">
  <g transform="translate(1.49 -0.006)">
    <g transform="translate(480.697 76.816)">
      <path d="M1665.208,1346.834c-7.877-.673-15.912-1.994-23.025-5.677h.036l-.648-.321h0a13.33,13.33,0,0,1-5.047-4.326,8.337,8.337,0,0,0,.079.866c-5.381-8.907-3.169-19.844-3.636-29.836a.514.514,0,0,1,0,.1c-.176-2.072-.376-4.126-.46-6.2h0a3.668,3.668,0,0,0-.048-.727.091.091,0,0,0,0,.042c0-.236-.036-.473-.048-.709v.036c0-.218-.03-.436-.042-.66h0c-.036-.5-.073-.994-.1-1.491a.092.092,0,0,0,0,.042v-.345h0v-.327h0v-.491h0v-.236h0c-1.006-13.821-.824-27.685-.782-41.524h0a50.859,50.859,0,0,0-1.921-7.12.235.235,0,0,0,0-.042h0a79.61,79.61,0,0,1-6.144-40.367h0a56.232,56.232,0,0,0-.491-7.15s-1.466-5.053-1.7-5.526h0a17.1,17.1,0,0,0-.867-1.478v.03c-1.175-1.715-2.478-3.339-3.636-5.084v.036c-4.114-5.635-8.325-11.222-10.8-17.82v.036c-2.048-3.351-7.489-9.931-1.266-12,4.732-.975,10.44-1.606,14.306,1.915,8.7,8.834,13.227,20.747,17.8,32.029h0a22.3,22.3,0,0,0,1.254,2.181.1.1,0,0,0,0-.042,10.187,10.187,0,0,0,8.113,4.72,17.574,17.574,0,0,0,2.424-.442,55.737,55.737,0,0,0,5.047-3.714h0l.036-.03h0a15.514,15.514,0,0,0,2.29-2.854h0c1.618-2.424,3.193-4.847,4.581-7.4a.273.273,0,0,1,0,.042,91.119,91.119,0,0,0,5.211-12.464h0a41.125,41.125,0,0,0,1.582-5.617h0a.114.114,0,0,1,0-.049c.339-1.715.661-3.436,1.012-5.156h0c.945-5.453,2.424-10.767,3.775-16.118h0c.606-3.86,2.036-7.5,2.945-11.276h0c1.951-9.465,10.464-32.544,19.614-20.7,2.424,3.133-1.1,26.012-4.847,37.755h0c-.5,1.454-1,2.9-1.509,4.357a.352.352,0,0,1,0-.085,73.524,73.524,0,0,0-2.533,9.216h0a90.559,90.559,0,0,0-1.418,9v-.085c.261,1.927-1.079,5.611.721,6.665h0c3.454,0,5.781-3.193,7.919-5.508h0c4.672-5.72,9.143-11.616,13.773-17.378h0c2.745-4.333,5.453-8.707,7.95-13.185v.054c5.95-9.562,16.045-21.813,22.692-19.117,8.483,3.436-3.03,19.693-7.7,26.285h0l-.036.054h0c-5.223,9.458-12.173,17.639-18.784,26.109v-.048a18.717,18.717,0,0,0-1.1,1.818h0a27.537,27.537,0,0,0-1.364,2.945v-.048a14.986,14.986,0,0,0-.448,1.624s0,.036,0,.055h0a12.424,12.424,0,0,0-.079,4.775h0a1.145,1.145,0,0,0,.079.1l-.042-.054a.323.323,0,0,0,.139.079h-.042a1.11,1.11,0,0,0,.673,0h-.067a3.4,3.4,0,0,0,.606-.242h0c.2-.115.394-.23.606-.358l-.048.036a36.176,36.176,0,0,0,2.9-2.29h0a36.073,36.073,0,0,0,2.878-2.818l-.042.048c3.7-4.617,8.307-8.374,12.222-12.8h0c3.339-4.241,6.883-8.38,10.071-12.767l-.036.049c1.212-1.818,2.375-3.684,3.636-5.5l-.036.054c1.818-3.236,8.568-14.651,16.36-10.646,9.761,5.029-19.668,40.155-30.945,50.389h0c-2.424,2.314-4.993,4.448-7.6,6.532h0a20.494,20.494,0,0,0-1.636,1.606h0a17.721,17.721,0,0,0-2.424,3.69h0V1204c0,.049-.048.1-.079.146h0a8.388,8.388,0,0,0-.715,1.891h0c-.061.376-.1.757-.127,1.139v-.049a17.328,17.328,0,0,0,0,2.024v-.054a1.819,1.819,0,0,0,.182.739h0a.6.6,0,0,0,.079.1.091.091,0,0,0,0-.036,3.031,3.031,0,0,0,1.569.236h-.224a9.791,9.791,0,0,0,1.212-.17h0a30.36,30.36,0,0,0,3.357-.957h-.048a148.56,148.56,0,0,0,25.867-12.785l-.055.036c22.2-17.184,15.754,5.611,1.951,13.839h.048q-8.8,5.453-17.833,10.519h0c-2.151,1.521-4.3,3.084-6.3,4.8h0c-4.284,3.835-8.071,8.186-12.646,11.695h0a48.482,48.482,0,0,0-7.338,8.8h0a25.944,25.944,0,0,0-1.685,2.9v-.042c-1.212,2.557-2.363,5.114-3.739,7.574v-.042c-1.818,3.775-5.284,11.385-5.29,11.4a62.652,62.652,0,0,0-2.157,6.714h0c-1.921,9.913-4.532,19.626-5.175,29.745a.164.164,0,0,0,0-.055c-.048,3.339-.891,6.587-1.212,9.9v-.055c-.406,7.665-.715,24.583-.648,23.892-3.569.776-5.1,4.647-8.071,6.417h.042l-.17.115h0a12.6,12.6,0,0,1-1.418.818h0l-.158.079h0A16.241,16.241,0,0,1,1665.208,1346.834Z" transform="translate(-1601.764 -1110.279)" fill="#8e5f4c"/>
    </g>
    <g transform="translate(342.055 169.985)">
      <path d="M1414.318,1420.152c-2.915-13.767-12.119-28.479-15.276-42.069-1.624-7.029.382-17.463-4.635-23.31-3.211-6.841-35.919-49.862-13.864-43.93,5.678,5.453,12.155,16.19,16.36,22.855,10.992,13.6,14.542,9.549,9.792-6.544-2.563-8.744-17.384-40.6-9.986-44.627,18.784-2.981,17.9,58.927,37,51.183,4.423-20.8-4.847-68.009,4.848-69.591,15.148-2.454,10.034,54.739,13.282,67.488,11.47,4.72,14.161-39.573,20.056-47.959,21.353-21.5,6.3,35.719,3.339,42.894-3.387,8.21-6.411,56.012,9.774,35.059,3.975-6.556,5.677-16.512,13.743-19,4.466-1.381,13.936-2.975,12.724,4.8-15.754,13.561-15.906,40.688-32.011,54.867-5.072,5.241-14.106,13.33-16.7,20.3,1.715,22,2.939,32.557,1.03,37.568-3.181,8.338-15.082,1.272-47.953,6.126Z" transform="translate(-1372.953 -1264.043)" fill="#dba27f"/>
    </g>
    <g transform="translate(246.619 0.006)">
      <path d="M1256.81,1139.618c-2.915-13.76-12.119-28.442-15.276-42.07-1.624-7.023.382-17.457-4.635-23.3-3.205-6.847-35.919-49.862-13.858-43.93,5.672,5.453,12.119,16.184,16.36,22.849,10.991,13.609,14.542,9.555,9.792-6.544-2.563-8.744-17.384-40.6-9.986-44.62,18.784-2.987,17.9,58.92,37,51.183,4.417-20.8-4.847-68.015,4.848-69.591,15.148-2.424,10.034,54.74,13.282,67.488,11.47,4.714,14.161-39.579,20.056-47.965,21.353-21.492,6.3,35.75,3.339,42.9-3.387,8.21-6.4,56.012,9.78,35.059,3.969-6.556,5.677-16.511,13.742-19.008,4.46-1.375,13.936-2.975,12.725,4.805-15.754,13.561-15.9,40.682-32.011,54.867-5.072,5.241-14.106,13.33-16.7,20.3,1.715,22,2.181,70.324.273,75.329-3.187,8.344-15.082,1.278-47.953,6.126Z" transform="translate(-1215.449 -983.516)" fill="#723f2f"/>
    </g>
    <g transform="translate(158.755 198.773)">
      <path d="M1163.487,1468.844c3.678-13.579,13.694-27.721,17.572-41.149,2.018-6.926.606-17.457,5.938-23.025,3.587-6.665,38.658-47.771,16.3-43.081-5.968,5.1-13.04,15.481-17.608,21.9-11.737,12.967-15.027,8.726-9.41-7.083,3.03-8.586,19.626-39.543,12.47-43.99-18.566-4.029-21.207,57.824-39.815,49.032-3.248-21.02,8.653-67.64-.969-69.754-14.966-3.3-13.082,54.085-17.039,66.652-11.713,4.066-11.925-40.306-17.342-49.008-20.111-22.662-8.283,35.307-5.732,42.639,2.921,8.392,3.26,56.285-11.725,34.459-3.6-6.768-4.744-16.808-12.658-19.747-4.375-1.63-13.724-3.751-12.985,4.078,14.96,14.421,13.6,41.512,28.885,56.575,4.769,5.52,13.33,14.112,15.536,21.208-2.945,21.874-6.12,70.094-4.49,75.2,2.708,8.483,14.985,2.121,47.535,8.8Z" transform="translate(-1070.442 -1311.554)" fill="#ffd7cb"/>
    </g>
    <g transform="translate(-1.49 137.124)">
      <path d="M848.684,1237.046Zm-1.145,1.085Zm0,.048ZM982.8,1273.135Zm0,0Zm6.3,1.672Zm-78.25,3.387Zm76.765,8.707Zm-104.825.26ZM823.181,1293.076ZM823.344,1293.136Zm154.772,7.726h0l.018.006Zm-106.565,2.272c-.145-.715-.273-1.436-.4-2.151-.048.218-.242.448-.145.667h0c.188.5.4,1,.563,1.491Zm103.759,2.605Zm-102.693,1.388Zm-12.967,2.054ZM949.4,1353.354Zm-29.787,60.435Zm-19.723,1.539c-8.174-.606-15.827-2.278-12.676-12.312,1.969-13.779-1.521-27.564-5.629-40.476-4.241-21.813-10.349-24.922-27-37.858-6.5-4.847-14.36-7.683-21.25-11.87-7.126-4.332-11.1-4.205-16.451-8.168-7.271-5.417-14.6-12.955-4.411-14.675,6.483.606,18.663,6.593,18.663,6.593h0c8.974,4.987,17.536,12.779,28.515,12.609h0c2.515-.327,4.66-1.715,6.786-2.969a6.568,6.568,0,0,0,3.793-5.023c-3.557-8.913-7.077-17.887-11.513-26.412-3.351-6.132-6.059-12.585-8.786-19.02-2.927-6.144-8.786-18.25,1.363-20.474,11.694.963,22.232,42.906,31.508,51.874h0a7.781,7.781,0,0,0,4.314,1.369h0a1.109,1.109,0,0,0,.606-.3h0c-.454-11.367-4.714-23.025-8.75-33.7-3.133-9.574-13.936-25.1-10.1-34.786,7.974-7.635,14.009,3.636,16.518,10.464,4.381,9.834,8.265,20.3,12.034,30.587h0c2.424,5.005,4.763,17.869,11.313,17.342,11.107.57,3.205-37.925,1.818-45.305-.866-5.4-3.763-25.449,6.059-21.7,6.762,7.877,6.5,19.687,8.55,29.418,4.847,29.175,3.03,107.958,40.628,44.627,18.887-27.745,36.265-7.447,13.409,14.445-8.713,11.967-10.907,27.982-20.159,39.616-4.46,6.344-9.349,12.876-10.8,20.6-3.2,14.185-7,27.927-8.81,42.415C937.853,1422.187,913.464,1411.868,899.885,1415.328Z" transform="translate(-806.56 -1210.143)" fill="#a7775f"/>
      <path d="M912.439,1361.306a.247.247,0,0,1-.115-.079.3.3,0,0,1-.248-.2.3.3,0,0,1-.23-.279,2.2,2.2,0,0,1,0-.345l.055-.364a.55.55,0,0,1,.036-.242v-.206l.036-.454v-.2a1.261,1.261,0,0,1,0-.212.309.309,0,0,1,.3-.236h0a.9.9,0,0,1,.042-.194.473.473,0,0,1,.1-.146.309.309,0,0,1,.394-.042.66.66,0,0,1,.206.261c.036.079.079.151.115.224h0c.091.17.194.327.3.491a.3.3,0,0,1-.509.327c0-.042-.061-.085-.085-.127v1.588a.72.72,0,0,1-.036.279.291.291,0,0,1-.285.194A.255.255,0,0,1,912.439,1361.306Z" transform="translate(-847.696 -1268.229)" fill="#a7775f"/>
    </g>
    <g transform="translate(63.647 195.226)">
      <path d="M994.143,1517.05Zm.891,2.212Zm0,0ZM914.8,1708.4ZM993.385,1832.175Zm-74.838,1.054-1.121.9c3.811-42.73-7.271-168.448-3.526-244.552,0-22.819,1.69-45.608,1.091-68.391,5.787-4.1,15.548-.351,22.631-1.533,19.087.86,38.252-4.3,57.066-2.8,2.139,7.453-.212,16.184-.073,24.025.83,90.01,4.617,293.39-5.223,291.518-23.631-4.284-49.28,2.381-71.966,1.733Z" transform="translate(-913.336 -1388.8)" fill="#5b6cca"/>
      <path d="M1191.576,1639.31Zm-65.61,242.844Zm-4.75.521c-9.089.763-5.787-10.3-6.762-16.112-2.1-56.079-2-217.843,5.369-235.367,12.161-2.866,68.579-3.945,70.954,1.594-.164,26.619-.654,59.987,1.933,87.429h0s.358,107.092-3.32,160.4C1168.345,1880.808,1143.581,1878.439,1121.216,1882.675Z" transform="translate(-992.214 -1433.04)" fill="#61d397"/>
      <path d="M1337.323,1307.514Zm0,.03Zm.23.891h0s.03-.1.03,0Zm-74.717,438.692h0c-.121,0,.036.012.03.024ZM1265.587,1751.289Zm26.437,1.9c-9.695-.3-20.6,1.012-29.466-2.363-.824-18.251-.939-37.01-.533-55.455-.242-65.737.606-131.486-2.018-197.169-3.957-63.622,5.005-127.542.788-191.031,18.59-1.642,54.661-3.115,77.092.448v.054c-.43,115.975-3.417,235.451-.485,352.68,1.818,28.83.691,57.836-.23,86.648-.764,8.471-29.442,5.223-45.118,6.211Z" transform="translate(-1049.629 -1305.593)" fill="#7fbff4"/>
      <path d="M1444.1,1571.432Zm12.167.309c-1.061,0-.23.036.272,0,.6-.049.036-.012-.272,0Zm-27.77.563h0C1428.561,1572.3,1428.627,1572.28,1428.494,1572.3ZM1499.279,1573.243Zm3.272,2.424Zm0,0Zm-62.483,277.77c-14.542,2.424-12.955-8.6-12.809-19.263-.212-12.937-1.272-25.988-1.66-38.937-1.364-36.434,0-168.969-1.769-198.823-4.4-31.417-2.351-24.558,28.83-25.1,14.991-1.266,33.26.376,50.2,1.006,2.678-.77,1.333,3.278,1.551,4.732-3.084,77.613,2.109,155.426-1.212,233-4.205,60.617,17.184,33.944-63.125,43.4Z" transform="translate(-1113.909 -1410.188)" fill="#ffa0ce"/>
      <path d="M1632.193,1440.6ZM1631.829,1440.642Zm0,0Zm76.571,5.247v0ZM1630.235,1637.774ZM1629.763,1800.5ZM1708.927,1800.69ZM1640.542,1804.3Zm-9.046,0ZM1631.12,1804.435Zm-1.945-1.921c-.606-58.775,1.781-118.289.794-177.228-1.927-60.871,5.6-122.64,1.381-183.693,9.61-4.448,28.091.236,40.464-2.109,10.731,1.139,30.084-5.575,36.555,2.484v.036c3.314,88.429,4.848,328.285.933,359.315-.291,6.7-80.219,3.242-80.116,1.212Z" transform="translate(-1195.476 -1357.812)" fill="#c3a2cc"/>
    </g>
  </g>
</svg>
