<?xml version="1.0" encoding="utf-8"?>
<!-- Generator: Adobe Illustrator 25.0.1, SVG Export Plug-In . SVG Version: 6.00 Build 0)  -->
<svg version="1.1" id="Layer_1" xmlns="http://www.w3.org/2000/svg" xmlns:xlink="http://www.w3.org/1999/xlink" x="0px" y="0px"
	 viewBox="0 0 490.9 56.7" style="enable-background:new 0 0 490.9 56.7;" xml:space="preserve">
<style type="text/css">
	.st0{fill:#FF3008;}
</style>
<title>Asset 2</title>
<g id="Layer_2_1_">
	<g id="Layer_1-2">
		<path class="st0" d="M138.3,15.9v24.7h6.3c6.7-0.1,12.1-5.6,12.1-12.3c0,0,0,0,0,0c0.2-6.6-5-12.2-11.6-12.4c-0.1,0-0.3,0-0.4,0
			L138.3,15.9z M144.6,8.2c11.8,0,20.7,8.9,20.7,20.1s-8.9,20.1-20.7,20.1h-13.9c-0.6,0-1-0.4-1-1V9.2c0-0.6,0.4-1,1-1L144.6,8.2z"
			/>
		<path class="st0" d="M195.7,41.5c7.3,0,13.2-5.9,13.2-13.2s-5.9-13.2-13.2-13.2c-7.3,0-13.2,5.9-13.2,13.2
			C182.5,35.6,188.4,41.5,195.7,41.5 M195.7,7.3c12.4,0,21.8,9.5,21.8,21s-9.5,21-21.8,21s-21.8-9.5-21.8-21S183.3,7.3,195.7,7.3"/>
		<path class="st0" d="M247.6,41.5c7.3,0,13.2-5.9,13.2-13.2s-5.9-13.2-13.2-13.2c-7.3,0-13.2,5.9-13.2,13.2c0,0,0,0,0,0
			C234.4,35.6,240.3,41.5,247.6,41.5 M247.6,7.3c12.4,0,21.8,9.5,21.8,21s-9.5,21-21.8,21s-21.8-9.5-21.8-21S235.3,7.3,247.6,7.3"/>
		<path class="st0" d="M298.4,15.9h-8.9v10.6h8.9c2.9,0.1,5.3-2.1,5.5-5c0-0.1,0-0.1,0-0.2c0.1-2.9-2.2-5.4-5.1-5.5
			C298.6,15.9,298.5,15.9,298.4,15.9 M280.9,9.2c0-0.6,0.4-1,1-1h16.8c8,0,13.8,5.9,13.8,13.2c0.1,5-2.7,9.6-7.2,11.8l7.8,13.6
			c0.3,0.5,0.2,1.1-0.3,1.4c-0.2,0.1-0.4,0.2-0.6,0.2h-6.8c-0.4,0-0.7-0.2-0.9-0.5L297,34.3h-7.5v13.1c0,0.6-0.4,1-1,1H282
			c-0.6,0-1-0.4-1-1L280.9,9.2z"/>
		<path class="st0" d="M334.9,15.9v24.7h6.3c6.7-0.1,12.1-5.6,12.1-12.3c0,0,0,0,0,0c0.2-6.6-5-12.2-11.6-12.4c-0.1,0-0.3,0-0.4,0
			H334.9z M341.2,8.1c11.8,0,20.7,8.9,20.7,20.1s-8.9,20.1-20.7,20.1h-13.9c-0.6,0-1-0.4-1-1V9.2c0-0.6,0.4-1,1-1L341.2,8.1z"/>
		<path class="st0" d="M388.2,18.2l-4.9,13.2h9.8L388.2,18.2z M380.5,38.9l-3.2,8.8c-0.1,0.4-0.5,0.7-1,0.7h-6.9
			c-0.5,0.1-1-0.3-1.1-0.9c0-0.2,0-0.4,0.1-0.5l15-38.1c0.1-0.4,0.6-0.7,1-0.7h7.8c0.4,0,0.9,0.2,1,0.7l15,38.1
			c0.2,0.5,0,1.1-0.5,1.3c-0.2,0.1-0.4,0.1-0.5,0.1h-6.9c-0.5,0-0.9-0.3-1-0.7l-3.2-8.8H380.5z"/>
		<path class="st0" d="M416.1,19c0-6.3,5.5-11.8,14.1-11.8c4.6-0.1,9.1,1.6,12.5,4.8c0.4,0.4,0.4,1.1,0,1.5l-3.9,3.9
			c-0.4,0.4-1,0.4-1.4,0.1c0,0,0,0,0,0c-1.8-1.7-4.2-2.6-6.7-2.6c-3.5,0-6,2-6,4.3c0,7.5,20.4,3.2,20.4,17.5
			c0,7.2-5.5,12.7-15.2,12.7c-5.4,0.1-10.7-2-14.5-5.8c-0.4-0.4-0.4-1,0-1.4c0,0,0,0,0,0l3.7-3.7c0.4-0.4,1-0.4,1.4,0c0,0,0,0,0,0
			c2.4,2.3,5.5,3.6,8.8,3.6c4.3,0,7.2-2.3,7.2-5.2C436.5,29.2,416.1,33.5,416.1,19"/>
		<path class="st0" d="M482.1,9.3v15h-17.2v-15c0-0.6-0.4-1-0.9-1c0,0,0,0-0.1,0h-6.5c-0.6,0-1,0.4-1,1c0,0,0,0,0,0.1v38.1
			c0,0.6,0.4,1,0.9,1c0,0,0,0,0.1,0h6.5c0.6,0,1-0.4,1-1c0,0,0,0,0-0.1V32h17.2v15.3c0,0.6,0.4,1,0.9,1c0,0,0.1,0,0.1,0h6.5
			c0.6,0,1-0.4,1-0.9c0,0,0-0.1,0-0.1V9.3c0-0.6-0.4-1-0.9-1c0,0-0.1,0-0.1,0h-6.5c-0.6,0-1,0.4-1,0.9
			C482.1,9.2,482.1,9.2,482.1,9.3z"/>
		<path class="st0" d="M95.7,13.4C91.3,5.2,82.7,0,73.3,0H2.5C1.1,0,0,1.1,0,2.5c0,0.6,0.3,1.2,0.7,1.7l15.4,15.5
			c1.4,1.4,3.2,2.2,5.1,2.1h49.9c3.6,0,6.5,2.8,6.5,6.4c0,3.6-2.8,6.5-6.4,6.5H37c-1.3,0-2.4,1.1-2.4,2.5c0,0.6,0.3,1.2,0.7,1.7
			l15.4,15.5c1.4,1.4,3.2,2.1,5.2,2.1h15.6C91.7,56.6,107,34.9,95.7,13.4"/>
	</g>
</g>
</svg>
