<?xml version="1.0" encoding="UTF-8"?>
<svg xmlns="http://www.w3.org/2000/svg" xmlns:xlink="http://www.w3.org/1999/xlink" width="224.87999pt" height="74.999997pt" viewBox="0 0 224.87999 74.999997" version="1.2">
<defs>
<clipPath id="clip1">
  <path d="M 9.046875 0.0195312 L 40 0.0195312 L 40 58 L 9.046875 58 Z M 9.046875 0.0195312 "/>
</clipPath>
<clipPath id="clip2">
  <path d="M 67 17 L 104 17 L 104 74.980469 L 67 74.980469 Z M 67 17 "/>
</clipPath>
<clipPath id="clip3">
  <path d="M 176 17 L 215.9375 17 L 215.9375 60 L 176 60 Z M 176 17 "/>
</clipPath>
</defs>
<g id="surface1">
<g clip-path="url(#clip1)" clip-rule="nonzero">
<path style=" stroke:none;fill-rule:nonzero;fill:rgb(0%,0%,0%);fill-opacity:1;" d="M 9.046875 0.0234375 L 9.046875 57.925781 L 16.503906 57.949219 L 16.503906 30.375 L 34.484375 30.375 L 34.484375 23.085938 L 16.503906 23.085938 L 16.503906 7.308594 L 39.921875 7.308594 L 39.921875 0.0195312 Z M 9.046875 0.0234375 "/>
</g>
<path style=" stroke:none;fill-rule:nonzero;fill:rgb(0%,0%,0%);fill-opacity:1;" d="M 53.347656 11.777344 C 56.03125 11.777344 58.210938 9.601562 58.210938 6.917969 C 58.210938 4.234375 56.03125 2.058594 53.347656 2.058594 C 50.660156 2.058594 48.484375 4.234375 48.484375 6.917969 C 48.484375 9.601562 50.660156 11.777344 53.347656 11.777344 Z M 53.347656 11.777344 "/>
<path style=" stroke:none;fill-rule:nonzero;fill:rgb(0%,0%,0%);fill-opacity:1;" d="M 49.554688 19.066406 L 49.554688 57.9375 L 57.011719 57.9375 L 57.011719 19.066406 Z M 49.554688 19.066406 "/>
<g clip-path="url(#clip2)" clip-rule="nonzero">
<path style=" stroke:none;fill-rule:evenodd;fill:rgb(0%,0%,0%);fill-opacity:1;" d="M 84.671875 17.933594 C 74.769531 17.933594 67.855469 26.300781 67.855469 36.234375 C 67.855469 46.167969 74.769531 54.535156 84.671875 54.535156 C 89.207031 54.535156 92.941406 52.78125 95.660156 49.925781 L 95.660156 55.101562 C 95.660156 61.542969 90.597656 66.925781 83.988281 66.925781 C 81.613281 66.925781 79.253906 66.007812 77.371094 64.710938 L 73.636719 71.175781 C 76.621094 73.097656 80.175781 74.214844 83.988281 74.214844 C 94.554688 74.214844 103.121094 65.65625 103.121094 55.101562 L 103.121094 19.066406 L 95.660156 19.066406 L 95.660156 22.539062 C 92.941406 19.6875 89.207031 17.933594 84.671875 17.933594 Z M 75.316406 36.234375 C 75.316406 30.066406 80.035156 25.21875 85.484375 25.21875 C 90.929688 25.21875 95.652344 30.066406 95.652344 36.234375 C 95.652344 42.402344 90.929688 47.246094 85.484375 47.246094 C 80.035156 47.246094 75.316406 42.402344 75.316406 36.234375 Z M 75.316406 36.234375 "/>
</g>
<path style=" stroke:none;fill-rule:nonzero;fill:rgb(0%,0%,0%);fill-opacity:1;" d="M 129.992188 25.21875 C 125.582031 25.21875 122.007812 28.953125 122.007812 33.359375 L 122.007812 57.9375 L 114.550781 57.9375 L 114.550781 19.066406 L 122.007812 19.066406 L 122.007812 22.625 C 124.191406 19.804688 127.414062 17.933594 131.613281 17.933594 C 136.839844 17.933594 140.851562 20.523438 143.171875 24.492188 C 145.757812 20.660156 149.96875 17.933594 155.042969 17.933594 C 163.53125 17.933594 168.8125 24.773438 168.863281 33.238281 C 168.863281 33.261719 168.863281 33.289062 168.863281 33.316406 L 168.863281 33.320312 C 168.863281 33.332031 168.863281 33.34375 168.863281 33.359375 L 168.863281 57.9375 L 161.40625 57.9375 L 161.40625 33.359375 C 161.40625 28.953125 157.828125 25.21875 153.421875 25.21875 C 149.011719 25.21875 145.433594 28.953125 145.433594 33.359375 L 145.433594 57.9375 L 137.976562 57.9375 L 137.976562 33.359375 C 137.976562 28.953125 134.402344 25.21875 129.992188 25.21875 Z M 129.992188 25.21875 "/>
<g clip-path="url(#clip3)" clip-rule="nonzero">
<path style=" stroke:none;fill-rule:evenodd;fill:rgb(0%,0%,0%);fill-opacity:1;" d="M 208.585938 23.472656 C 205.265625 20.050781 200.722656 17.933594 195.453125 17.933594 C 184.355469 17.933594 176.484375 27.316406 176.484375 38.5 C 176.484375 49.6875 184.355469 59.070312 195.453125 59.070312 C 200.722656 59.070312 205.265625 56.953125 208.585938 53.53125 L 208.585938 57.9375 L 216.042969 57.9375 L 216.042969 19.066406 L 208.585938 19.066406 Z M 183.941406 38.5 C 183.941406 31.082031 189.628906 25.21875 196.261719 25.21875 C 202.894531 25.21875 208.585938 31.082031 208.585938 38.5 C 208.585938 45.921875 202.894531 51.78125 196.261719 51.78125 C 189.628906 51.78125 183.941406 45.921875 183.941406 38.5 Z M 183.941406 38.5 "/>
</g>
</g>
</svg>
