<svg id="Layer_1" data-name="Layer 1" xmlns="http://www.w3.org/2000/svg" viewBox="0 0 512 150">
  <defs>
    <style>
      .cls-1 {
        fill: #333;
      }

      .cls-2 {
        fill: #dc139c;
      }

      .cls-3 {
        fill: #fb8b00;
      }

      .cls-4 {
        fill: #0169c9;
      }
    </style>
  </defs>
  <g>
    <path class="cls-1" d="M74.91,26.92l-36.73,21L38,90.18,74.52,111.5l36.72-21,.19-42.28Zm31.51,26V88.15L88,98.28V72.05L74.68,79.31,61.39,72.22V98.28L43,88.15V53.23l31.36,16.7,0-.08,0,.08Z"/>
    <polygon class="cls-2" points="77.72 24.66 94.21 14.93 131.44 35.96 131.84 78.71 115.43 88.39 115.02 45.73 77.72 24.66"/>
    <polygon class="cls-3" points="71.71 24.66 55.22 14.93 17.98 35.96 17.59 78.71 34 88.39 34.4 45.73 71.71 24.66"/>
    <polygon class="cls-4" points="37.65 94.66 37.72 113.81 74.82 135.07 111.77 113.55 111.71 94.5 74.83 115.96 37.65 94.66"/>
    <path class="cls-1" d="M187.31,65.22V96.58h-7.13V65.22H163.9V96.58h-7.09V58.09h7.09v6.8a6.93,6.93,0,0,1,.64-2.66,6.94,6.94,0,0,1,3.77-3.61,7,7,0,0,1,2.7-.53h9.17a7,7,0,0,1,2.69.53,7.37,7.37,0,0,1,2.23,1.44,7.2,7.2,0,0,1,1.56,2.17,6.44,6.44,0,0,1,.65,2.66,7.5,7.5,0,0,1,.62-2.66,7.23,7.23,0,0,1,1.51-2.17,7.41,7.41,0,0,1,2.24-1.44,7,7,0,0,1,2.7-.53h9.19a6.83,6.83,0,0,1,2.77.57,7.22,7.22,0,0,1,2.26,1.51,6.86,6.86,0,0,1,1.52,2.27,7,7,0,0,1,.56,2.78V96.58h-7.11V65.22Zm38.84-7.13V96.58H219V58.09Zm-7.49-14.81h7.85v7.41h-7.85ZM257.5,89.45V80.53H240.62a7,7,0,0,1-2.78-.55,7.21,7.21,0,0,1-2.27-1.51,7.39,7.39,0,0,1-1.51-2.27,7,7,0,0,1-.55-2.78v-8.2a7,7,0,0,1,.55-2.78,7.15,7.15,0,0,1,1.51-2.27,7.39,7.39,0,0,1,2.27-1.51,6.81,6.81,0,0,1,2.78-.57h22.52v7.13H240.62v8.2H257.5a6.88,6.88,0,0,1,2.76.56,7.21,7.21,0,0,1,2.25,1.52,6.93,6.93,0,0,1,2.11,5v8.92a7.11,7.11,0,0,1-.56,2.8,6.85,6.85,0,0,1-1.55,2.25A7.57,7.57,0,0,1,260.26,96a6.88,6.88,0,0,1-2.76.56h-24V89.45Zm37.49,0V80.53H278.12a7,7,0,0,1-2.78-.55,7.1,7.1,0,0,1-2.27-1.51,7.41,7.41,0,0,1-1.52-2.27,7.21,7.21,0,0,1-.54-2.78v-8.2a7,7,0,0,1,2.06-5,7.27,7.27,0,0,1,2.27-1.51,6.81,6.81,0,0,1,2.78-.57h22.51v7.13H278.12v8.2H295a6.93,6.93,0,0,1,2.77.56A7.21,7.21,0,0,1,300,75.5a7,7,0,0,1,1.54,2.25,6.85,6.85,0,0,1,.57,2.78v8.92a6.94,6.94,0,0,1-.57,2.8A6.83,6.83,0,0,1,300,94.5,7.57,7.57,0,0,1,297.76,96a6.93,6.93,0,0,1-2.77.56H271V89.45Zm21.75-31.36V96.58h-7.13V58.09Zm-7.49-14.81h7.85v7.41h-7.85Zm48.88,46.17a7.07,7.07,0,0,1-2.08,5A7.23,7.23,0,0,1,353.82,96a6.93,6.93,0,0,1-2.77.56H332A6.9,6.9,0,0,1,329.2,96a7.3,7.3,0,0,1-2.27-1.52,7.07,7.07,0,0,1-2.08-5V65.22a7,7,0,0,1,.56-2.78,7.18,7.18,0,0,1,1.52-2.27,7.27,7.27,0,0,1,2.27-1.51,6.74,6.74,0,0,1,2.75-.57h19.1a6.77,6.77,0,0,1,2.77.57,7.2,7.2,0,0,1,2.23,1.51,7,7,0,0,1,1.52,2.27,6.81,6.81,0,0,1,.56,2.78ZM332,65.22V89.45h19.1V65.22ZM400,96.58h-7.13V65.22H373.06V96.58H366V58.09h7.09v6.8a7.12,7.12,0,0,1,.64-2.66,6.94,6.94,0,0,1,3.77-3.61,7,7,0,0,1,2.7-.53h12.72a6.85,6.85,0,0,1,2.78.57,7.06,7.06,0,0,1,2.25,1.51,6.89,6.89,0,0,1,1.53,2.27,6.81,6.81,0,0,1,.57,2.78Z"/>
    <path class="cls-1" d="M407.32,41.84V89.43a8.36,8.36,0,0,0,.65,3.26v0a9.23,9.23,0,0,0,1.78,2.64v0h0a9.06,9.06,0,0,0,2.64,1.79h0a8.47,8.47,0,0,0,3.23.65h19.91a8.31,8.31,0,0,0,3.25-.65h0a8.54,8.54,0,0,0,2.61-1.79,8.31,8.31,0,0,0,1.79-2.66v0a8.05,8.05,0,0,0,.7-3.26V65.1a8.15,8.15,0,0,0-.7-3.28v0a7.73,7.73,0,0,0-1.76-2.59s0,0,0-.05l0,0a7.73,7.73,0,0,0-2.59-1.76s0,0,0,0h0a8,8,0,0,0-3.25-.67H422.82a8.17,8.17,0,0,0-3.18.64h0A8.24,8.24,0,0,0,417,59.05a.61.61,0,0,0-.07.1V41.84Zm43.25,0h-1.24v9.93h10.35V41.84Zm21.53,3V56.72h-9.44v9.63h9.44V89.43a8.52,8.52,0,0,0,.62,3.26l0,0a8.89,8.89,0,0,0,1.81,2.66h0a8.93,8.93,0,0,0,2.64,1.79h0a8.52,8.52,0,0,0,3.24.65h13.92V88.19H481.73V66.34h12.68V56.72H481.73V44.81ZM449.69,56.72v41.1h9.63V56.72Zm-32.76,9.63h17.41V88.19H416.93Z"/>
  </g>
</svg>
