<svg id="Layer_1" data-name="Layer 1" xmlns="http://www.w3.org/2000/svg" viewBox="0 0 360 250">
  <defs>
    <style>
      .cls-1 {
        fill: #333;
      }

      .cls-2 {
        fill: #dc139c;
      }

      .cls-3 {
        fill: #fb8b00;
      }

      .cls-4 {
        fill: #0169c9;
      }
    </style>
  </defs>
  <g>
    <path class="cls-1" d="M180.11,31.6l-45.3,25.87-.23,52.15,45.06,26.3L224.93,110l.23-52.15Zm38.87,32v43.48l-22.67,12.5V87.27l-16.48,9-16.4-8.75v32.15l-22.67-12.5V64.05l38.67,20.59,0-.09.05.09Z"/>
    <polygon class="cls-2" points="183.57 28.81 203.92 16.8 249.85 42.74 250.34 95.48 230.09 107.43 229.59 54.79 183.57 28.81"/>
    <polygon class="cls-3" points="176.17 28.81 155.82 16.8 109.89 42.74 109.4 95.48 129.65 107.43 130.15 54.79 176.17 28.81"/>
    <polygon class="cls-4" points="134.15 115.16 134.24 138.78 180.01 165 225.59 138.46 225.51 114.96 180.01 141.43 134.15 115.16"/>
    <path class="cls-1" d="M46.64,201.48V232H39.72V201.48H23.86V232H17V194.56h6.89v6.61a6.81,6.81,0,0,1,.64-2.58A6.92,6.92,0,0,1,26,196.48a7.08,7.08,0,0,1,2.16-1.41,6.82,6.82,0,0,1,2.64-.51h8.94a6.65,6.65,0,0,1,2.59.51,7.21,7.21,0,0,1,2.19,1.41A7.06,7.06,0,0,1,46,198.59a6.27,6.27,0,0,1,.61,2.58,7.18,7.18,0,0,1,.61-2.58,6.59,6.59,0,0,1,1.48-2.11,7.08,7.08,0,0,1,2.16-1.41,6.82,6.82,0,0,1,2.64-.51h8.94a6.65,6.65,0,0,1,2.7.55,6.73,6.73,0,0,1,2.19,1.46,7.2,7.2,0,0,1,1.48,2.21,6.79,6.79,0,0,1,.55,2.7V232H62.47V201.48ZM84,194.56V232H77.08V194.56Zm-7.28-14.42h7.63v7.2H76.72Zm37.68,44.93v-8.68H98a6.65,6.65,0,0,1-2.7-.55,6.78,6.78,0,0,1-3.67-3.67,6.67,6.67,0,0,1-.55-2.71v-8a6.62,6.62,0,0,1,.55-2.7,7,7,0,0,1,1.47-2.21,6.77,6.77,0,0,1,2.2-1.46,6.65,6.65,0,0,1,2.7-.55h21.91v6.92H98v8H114.4a6.69,6.69,0,0,1,2.68.55,6.91,6.91,0,0,1,2.19,1.47,7.16,7.16,0,0,1,1.5,2.2,6.7,6.7,0,0,1,.55,2.71v8.68a6.7,6.7,0,0,1-.55,2.71,7,7,0,0,1-1.5,2.2,6.91,6.91,0,0,1-2.19,1.47,6.53,6.53,0,0,1-2.68.55H91.05v-6.93Zm36.22,0v-8.68H134.19a6.62,6.62,0,0,1-2.7-.55,6.78,6.78,0,0,1-3.67-3.67,6.67,6.67,0,0,1-.55-2.71v-8a6.62,6.62,0,0,1,.55-2.7,7,7,0,0,1,1.47-2.21,6.77,6.77,0,0,1,2.2-1.46,6.62,6.62,0,0,1,2.7-.55H156.1v6.92H134.19v8h16.43a6.69,6.69,0,0,1,2.68.55,6.91,6.91,0,0,1,2.19,1.47,7.16,7.16,0,0,1,1.5,2.2,6.87,6.87,0,0,1,.55,2.71v8.68a6.87,6.87,0,0,1-.55,2.71,7,7,0,0,1-1.5,2.2,6.91,6.91,0,0,1-2.19,1.47,6.53,6.53,0,0,1-2.68.55H127.27v-6.93Zm20.89-30.51V232h-6.93V194.56Zm-7.29-14.42h7.63v7.2h-7.63Zm47.45,44.93a6.87,6.87,0,0,1-.55,2.71,6.79,6.79,0,0,1-1.47,2.2,7,7,0,0,1-2.19,1.47,6.46,6.46,0,0,1-2.68.55h-18.6a6.55,6.55,0,0,1-2.67-.55,6.78,6.78,0,0,1-3.67-3.67,6.7,6.7,0,0,1-.55-2.71V201.48a6.62,6.62,0,0,1,.55-2.7,7,7,0,0,1,1.47-2.21,6.77,6.77,0,0,1,2.2-1.46,6.55,6.55,0,0,1,2.67-.55h18.6a6.46,6.46,0,0,1,2.68.55,6.93,6.93,0,0,1,4.21,6.37Zm-25.49-23.59v23.59h18.6V201.48ZM252.13,232H245.2V201.48H225.9V232H219V194.56h6.89v6.61a7.09,7.09,0,0,1,2.13-4.69,6.91,6.91,0,0,1,2.15-1.41,6.82,6.82,0,0,1,2.64-.51H245.2a6.71,6.71,0,0,1,2.72.55,6.58,6.58,0,0,1,2.18,1.46,7.06,7.06,0,0,1,1.49,2.21,6.78,6.78,0,0,1,.54,2.7Z"/>
    <path class="cls-1" d="M258.91,179.12v46a8.19,8.19,0,0,0,.62,3.15v0a8.84,8.84,0,0,0,1.73,2.55v0h0a9.3,9.3,0,0,0,2.55,1.72h0a8.14,8.14,0,0,0,3.13.63h19.22a8.2,8.2,0,0,0,3.15-.63h0a8.45,8.45,0,0,0,2.53-1.72,8.16,8.16,0,0,0,1.72-2.58v0a7.72,7.72,0,0,0,.68-3.15V201.6a7.83,7.83,0,0,0-.68-3.18s0,0,0,0a7.78,7.78,0,0,0-1.69-2.5s0,0,0,0l0,0a7.59,7.59,0,0,0-2.5-1.7s0,0,0,0a0,0,0,0,1,0,0,7.85,7.85,0,0,0-3.15-.64H273.88a7.8,7.8,0,0,0-3.07.62h0a7.75,7.75,0,0,0-2.52,1.63.36.36,0,0,0-.07.1V179.12Zm41.78,0h-1.2v9.6h10v-9.6Zm20.8,2.88v11.5h-9.13v9.3h9.13v22.3a8.17,8.17,0,0,0,.59,3.15l0,0a8.47,8.47,0,0,0,1.75,2.58h0a9.06,9.06,0,0,0,2.56,1.72h0a8.13,8.13,0,0,0,3.12.63H343v-9.31H330.78V202.8H343v-9.3H330.78V182Zm-21.66,11.5v39.7h9.3V193.5Zm-31.64,9.3H285v21.09H268.19Z"/>
  </g>
</svg>
