<?xml version="1.0" encoding="UTF-8"?>
<svg xmlns="http://www.w3.org/2000/svg" xmlns:xlink="http://www.w3.org/1999/xlink" width="224.87999pt" height="74.999997pt" viewBox="0 0 224.87999 74.999997" version="1.2">
<defs>
<clipPath id="clip1">
  <path d="M 67 0.0195312 L 158.328125 0.0195312 L 158.328125 74.980469 L 67 74.980469 Z M 67 0.0195312 "/>
</clipPath>
</defs>
<g id="surface1">
<g clip-path="url(#clip1)" clip-rule="nonzero">
<path style=" stroke:none;fill-rule:nonzero;fill:rgb(11.369324%,60.778809%,94.119263%);fill-opacity:1;" d="M 149.015625 18.867188 C 149.070312 19.664062 149.070312 20.460938 149.070312 21.265625 C 149.070312 45.785156 130.269531 74.0625 95.894531 74.0625 L 95.894531 74.046875 C 85.738281 74.0625 75.796875 71.175781 67.246094 65.730469 C 68.722656 65.90625 70.207031 65.996094 71.695312 66 C 80.109375 66.003906 88.285156 63.203125 94.90625 58.039062 C 86.910156 57.890625 79.894531 52.710938 77.445312 45.152344 C 80.246094 45.691406 83.132812 45.578125 85.882812 44.832031 C 77.164062 43.085938 70.890625 35.480469 70.890625 26.644531 C 70.890625 26.566406 70.890625 26.488281 70.890625 26.410156 C 73.488281 27.847656 76.398438 28.644531 79.375 28.734375 C 71.160156 23.285156 68.628906 12.4375 73.589844 3.957031 C 83.078125 15.550781 97.078125 22.597656 112.109375 23.34375 C 110.601562 16.898438 112.660156 10.144531 117.515625 5.613281 C 125.042969 -1.410156 136.878906 -1.050781 143.957031 6.417969 C 148.140625 5.597656 152.152344 4.074219 155.824219 1.914062 C 154.429688 6.210938 151.511719 9.859375 147.609375 12.175781 C 151.3125 11.742188 154.933594 10.757812 158.34375 9.253906 C 155.832031 12.988281 152.671875 16.242188 149.015625 18.867188 Z M 149.015625 18.867188 "/>
</g>
</g>
</svg>
