<svg id="Layer_1" data-name="Layer 1" xmlns="http://www.w3.org/2000/svg" viewBox="0 0 1262 258">
  <g>
    <path d="M275.81,186h66.41c12.91,0,17,3.71,18,16.6a85.11,85.11,0,0,1-.2,13.45c-.56,6.66-4.73,10.89-11.4,12a37.12,37.12,0,0,1-6,.45q-49,0-98,0a38.45,38.45,0,0,1-9.81-1.43c-5.17-1.4-7.95-5.26-8.85-10.4a39.5,39.5,0,0,1-.52-7q0-87.48,0-175c0-12.79,4.7-17.64,17.44-17.67q50.73-.09,101.48,0c10,0,15.25,4.62,15.74,14.67A83.79,83.79,0,0,1,358.94,50c-1,5.71-5.27,8.95-11.06,9-12,.22-24,.13-35.95,0-10.82-.09-21.64-.37-32.47-.54a36.45,36.45,0,0,0-3.65.35Z"/>
    <path d="M452.17,59.09V207.67c0,16.66-4.22,20.85-21.09,20.82a161.17,161.17,0,0,1-16.46-.39c-9.67-1-14.41-6.21-14.42-15.84q-.12-90.21,0-180.42c0-10,6-14.76,17.87-14.82,19.16-.08,38.32,0,57.48,0,13.82,0,27.65,0,41.48,0,11.8,0,17.08,5.34,17.13,17.07,0,3.33.09,6.67-.08,10-.48,9-5.29,14.64-14.22,15-14,.49-28,.07-41.94.05C469.62,59.08,461.31,59.09,452.17,59.09Z"/>
    <path d="M103.72,91.39c8.53-14.47,16.72-28.34,24.9-42.23,5.24-8.89,10.55-17.74,15.66-26.7,4.2-7.35,10.22-11.08,18.82-10.67,5.15.25,10.33,0,15.49.06C190,12,196,20.17,192.54,31a33.44,33.44,0,0,1-3.24,6.71q-30.45,51.89-61,103.7a4.59,4.59,0,0,1-3.26,2c-14.49.3-29,.5-43.47.47a6.3,6.3,0,0,1-4.61-2.59Q46,88.84,15.36,36.2a30,30,0,0,1-2.1-4.53c-4.2-11.12,1.31-19.46,13.2-19.8,6.32-.17,12.67.17,19-.09,8.65-.35,14.46,3.59,18.64,10.92C76.46,44.39,89,66,101.43,87.62,102,88.63,102.64,89.61,103.72,91.39Z"/>
    <path d="M78,155.18h49.49v5.5q0,28,0,56c0,12.88-5.31,18.23-18.26,18.12a157.19,157.19,0,0,1-19.91-.93c-6.87-.93-11.11-5.36-11.21-12.1C77.82,199.8,78,177.82,78,155.18Z"/>
    <path d="M458.32,138V98h24.86c10.48,0,21,0,31.44,0,10.14.06,16,5.46,16.27,15.53a68.17,68.17,0,0,1-1.09,14.83c-1.07,5.61-5,9.39-10.77,9.47C499,138.12,478.87,138,458.32,138Z"/>
    <path d="M1046.05,126.11c-2.58,6.76-5.23,13.5-7.7,20.31-1.49,4.11-3.56,6.74-8.58,6.71-4.84,0-6.69-2.69-8.14-6.56a143.89,143.89,0,0,0-9-20c-.56,8.26-1.18,16.52-1.69,24.79-.44,7.05-6.85,10.59-12.88,6.8a5.75,5.75,0,0,1-2.07-4.5c1.43-16.4,3.07-32.79,4.77-49.17a5.35,5.35,0,0,1,1.7-3.37c4.06-3.21,13.76-.78,15.75,3.94,3.3,7.81,6.41,15.69,9.61,23.54.54,1.32,1.14,2.62,2.17,5,4.1-10.15,7.88-19.27,11.47-28.47,1.3-3.33,3.26-5.06,7-5.13,9.64-.19,10-.08,11,9.46,1.53,14.22,2.83,28.47,4.32,42.71.44,4.22-.77,6.71-5.47,6.91-7.39.32-9-.64-9.46-6.18q-1-13.31-2-26.6Z"/>
    <path d="M668,126.12c-2.64,6.92-5.37,13.82-7.89,20.79-1.46,4-3.71,6.24-8.4,6.2-4.53,0-6.54-2.32-8-6.09A180.91,180.91,0,0,0,635,126.6c-.23,1.59-.57,3.18-.68,4.78-.5,7.14-.88,14.29-1.4,21.43-.41,5.56-2.13,6.53-9.49,6.23-4.74-.2-5.86-2.72-5.43-6.92,1.61-15.56,3.2-31.13,4.62-46.7.36-4,2.4-5.36,6.15-5.46,9.13-.23,9.54-.09,13,8.25,3.3,8.09,6.52,16.21,10.28,25.57l6.9-17.13c1.24-3.08,2.43-6.18,3.72-9.24,3-7.19,7.54-9.5,14.87-7.09a6.07,6.07,0,0,1,3.45,4.13c1.84,16.2,3.38,32.44,5,48.67.41,4.1-1.69,5.71-5.55,5.9-6.91.34-9-.65-9.36-5.21-.76-9.11-1.36-18.25-2-27.37Z"/>
    <path d="M846.43,131.35c-2.76,8.23-5.27,15.44-7.59,22.72-2.2,6.93-7.9,4.57-12.56,4.9-4.17.3-5.21-2.76-6-6q-5.76-23-11.53-46c-1.29-5.16-.08-6.78,5-7,8.75-.34,9.13-.06,10.94,8.46,2.11,9.92,4.2,19.84,7.18,29.89,2-6.88,4.19-13.73,6.05-20.66,1.18-4.39,3.23-6.75,8.27-6.84,5.25-.09,7.46,2.27,8.74,6.9a135.37,135.37,0,0,0,6.93,19.47c2.07-9.61,4.16-19.22,6.19-28.85,1.75-8.32,4.73-10.4,12.92-8,1.51.44,3.62,3.5,3.3,4.85-3.95,16.84-8.29,33.59-12.59,50.35a5,5,0,0,1-1.64,2.42c-4.3,3.43-14.46.56-16.24-4.6C851.42,146.37,849.11,139.33,846.43,131.35Z"/>
    <path d="M1136.44,127c0,8.28,0,16.56,0,24.84,0,6.32-.92,7.16-7.31,7.14s-7.27-.95-7.29-7.22c0-14.67,0-29.34,0-44,0-2.84-1-6.61,3.14-7.39,4-.74,8.25-1.51,11.39,2.66,6.81,9,13.78,18,20.7,26.94,1,1.23,2,2.42,3.85,4.73,0-10.32,0-19.24,0-28.16,0-5.75,1-6.54,7.32-6.56s7.15.74,7.17,6.71q.06,22,0,44c0,3,1.08,7.05-3.17,7.94s-8.6,1.35-11.85-2.91c-6.36-8.34-12.9-16.55-19.37-24.8-1.12-1.43-2.29-2.81-3.43-4.21Z"/>
    <path d="M693.44,194.94c0,8.08,0,16.17,0,24.25,0,7.25-5.51,10.58-12,7.09a5.33,5.33,0,0,1-2.45-3.81c-.17-16.64-.21-33.29,0-49.93,0-1.45,1.89-3.9,3.21-4.13,3.81-.69,8-1.53,11,2.41,6.35,8.33,12.77,16.61,19.16,24.91,1.51,2,3,4,5.19,6.83.18-2.41.37-3.77.38-5.14,0-8,.13-16,0-24-.1-5.14,3.17-5.44,7-5.47s7.61-.21,7.59,5.31c0,16.14.08,32.28-.16,48.42,0,1.71-1.69,4.59-3,4.85-4,.79-8.35,1.57-11.49-2.42L699,200.2c-1.49-1.89-3-3.76-4.49-5.65Z"/>
    <path d="M743.84,197c0-7.82.08-15.65,0-23.47,0-3.82,1.75-5.56,5.4-5.5,8.81.15,17.65-.09,26.41.67,10.89,1,16.84,6.47,18.09,17.26a102.17,102.17,0,0,1,0,23.32c-1.31,11.44-9.51,17.14-24,17.68-6.65.25-13.32,0-20,.07-4.2,0-6.06-1.89-6-6.05.08-8,0-16,0-24Zm15.22,17.84c1.41.07,2.38.15,3.36.17,14.78.22,17-2,17.24-16.77.23-16.64-1.83-18.67-18.53-18.2a17.53,17.53,0,0,0-2.07.35Z"/>
    <path d="M955.82,137.52c0,5.74.06,10.4,0,15-.09,5.35-1.31,6.4-7.09,6.43-6.47,0-7.81-.87-7.84-6.15-.09-15.66,0-31.32-.07-47,0-3.3,1-5.79,4.58-5.78,9.48,0,19,.07,28.43.59,5.7.32,10.09,3.85,11,9.34,1,6.08,1.43,12.66.11,18.57-.82,3.67-5.36,6.51-8.72,10.26,2.91,3.18,7,7.27,10.61,11.75,1.4,1.73,1.74,4.31,2.56,6.5a51.39,51.39,0,0,1-6.3,1.85c-5.46.89-9.52-1.25-12.85-5.71s-7.34-8.62-11.1-12.86A39,39,0,0,0,955.82,137.52Zm.27-9.65c5.28-1,11-.66,14.54-3.3,1.88-1.41,1.51-10-.65-11.65-3.35-2.49-9.09-1.77-13.89-2.42Z"/>
    <path d="M624,60.49c.37-3.13.59-6.29,1.12-9.4,2-11.68,8.86-18.9,20.68-20.34a56.29,56.29,0,0,1,17.69.93c7.75,1.57,12.67,7.11,15.09,14.53a47.9,47.9,0,0,1,1.07,25.63c-2.9,12.9-11.42,19.69-24.86,20.16C634.24,92.71,624,82.17,624,60.49Zm15.6,1a86.88,86.88,0,0,0,.72,9.29c1.2,6.79,4.76,9.26,12.57,9.18,7.31-.07,11.11-2.66,11.74-9.46a103.17,103.17,0,0,0-.19-19.88,10.67,10.67,0,0,0-4.64-7.06c-9.4-5.47-19.06,0-19.84,10.78C639.78,56.54,639.71,58.7,639.57,61.53Z"/>
    <path d="M746.6,129.44c1-5,1.45-10.25,3.14-15,4.09-11.52,15.93-17.22,30.38-15.24,14,1.92,21.27,9.11,23,23.29a64.77,64.77,0,0,1,.28,12.91c-1.71,20.77-15.21,27.42-33,25.28C754.42,158.74,747.09,148.42,746.6,129.44Zm41.78.18c-.17-2.7-.18-5.88-.62-9-1-6.9-4.5-9.59-12.17-9.61s-11.64,2.62-12.28,9.42a102.1,102.1,0,0,0,0,18.91c.63,6.74,4.22,9.41,11.09,9.66,9.33.35,13-3,13.68-12.43C788.2,134.4,788.26,132.24,788.38,129.62Z"/>
    <path d="M841.68,64.18H820.82c0,6.25,0,12.34,0,18.43,0,6.33-1,7.35-7.14,7.39-6.84,0-7.81-.77-7.83-7.19q-.08-22.74,0-45.48c0-5.56,1-6.33,7.55-6.33,6.23,0,7.34.94,7.41,6.55.05,5,0,9.92,0,15.16h20.85c0-5.36.12-10.65,0-15.93-.17-5.72,3.59-5.75,7.68-5.83s7.21.52,7.17,5.8q-.21,23.74,0,47.48c0,5.25-3.07,5.82-7.21,5.82s-7.72-.44-7.61-6C841.77,77.62,841.68,71.15,841.68,64.18Z"/>
    <path d="M727.08,52.09c0-5-.06-10,0-15,.08-5.19,1.33-6,7.9-6.13,4.21-.08,7.2.67,7,5.91-.3,11,.29,22-.66,33-1.29,14.73-7.48,20.3-22.09,21.06a70.8,70.8,0,0,1-14.89-1c-8.67-1.42-14.45-6.79-15.13-15.58-1-12.92-1.18-25.94-1.09-38.92,0-5.8,5.29-4.19,8.86-4.41S703,32,703,36c0,8,0,16,0,24,0,2.49,0,5,.12,7.49C703.67,76.86,706,79,715.52,79c8.43,0,11.1-2.47,11.42-10.91.21-5.33,0-10.67,0-16Z"/>
    <path d="M654.1,189.1c0-5.49-.22-11,.07-16.47s4.71-4.48,8.25-4.62,6.59.25,6.55,4.75c-.11,11.48.35,23-.65,34.41-1.26,14.51-7.75,20.13-22.31,20.75a72.53,72.53,0,0,1-13.88-.85c-9.41-1.42-15.31-7-16-16.41-.91-12.59-1-25.25-1-37.87,0-5.94,4.93-4.56,8.55-4.78s6.31.82,6.31,5.11q0,12.72,0,25.45c0,1.67,0,3.33.07,5,.51,11.2,8.59,16.42,18.75,11.35,2.54-1.26,4.44-5.66,4.89-8.87.79-5.55.22-11.28.22-16.94Z"/>
    <path d="M586.06,112v11c5.68,0,11.14.08,16.6,0,3.92-.07,6.44,1.09,6.44,5.58s-2.72,5.53-6.54,5.47c-5.31-.08-10.63,0-16.34,0v13c6.21,0,12.48.17,18.75-.05,4.58-.16,6.24,1.87,6.26,6.25s-2,5.88-6.15,5.83q-14-.18-28,0c-4.43.06-6.31-1.87-6.28-6.31q.15-23.49,0-47c0-4.06,1.8-5.75,5.7-5.74q14.75,0,29.49,0c3.86,0,5.27,2.07,5.22,5.71S610.4,112,606,112C599.54,112,593.05,112,586.06,112Z"/>
    <path d="M906,112v11c5.46,0,10.89.09,16.31,0,4.06-.09,6.88.87,6.82,5.71-.06,4.63-2.91,5.39-6.66,5.34-5.31-.08-10.62,0-16.27,0v13c6.36,0,12.65.17,18.92-.05,4.69-.16,6.13,2.09,6.14,6.38S929,159.08,925,159c-9.16-.12-18.33-.14-27.49,0-4.59.08-6.71-1.68-6.67-6.45q.18-23.24,0-46.48c0-4.61,2-6.2,6.36-6.15q14,.18,28,0c4.15,0,6.14,1.53,6.12,5.87s-1.81,6.36-6.34,6.21C918.77,111.84,912.62,112,906,112Z"/>
    <path d="M1087.07,112v11c5.69,0,11.15.08,16.6,0,3.94-.07,6.43,1.14,6.42,5.61s-2.74,5.5-6.56,5.44c-5.31-.08-10.62,0-16.32,0v13c6.26,0,12.54.17,18.8-.05,4.63-.17,6.18,2,6.21,6.3s-2.09,5.83-6.18,5.78q-14-.17-28,0c-4.45.06-6.29-1.88-6.26-6.31q.15-23.49,0-47c0-4.07,1.81-5.76,5.7-5.74,9.83,0,19.66,0,29.49,0,3.84,0,5.28,2.07,5.22,5.71s-.82,6.32-5.18,6.29C1100.54,112,1094.06,112,1087.07,112Z"/>
    <path d="M709.8,140c0,4.91,0,9.21,0,13.5,0,5.62-4,5.55-8,5.54s-6.95-.71-6.93-5.61q.09-24.19,0-48.4c0-3.1,1.53-4.92,4.37-4.92,9.63,0,19.28,0,28.88.6,5.43.33,9.77,3.82,10.66,9.08a60,60,0,0,1,.53,19.13c-1.16,7.35-7.33,10.77-16.77,11.06C718.54,140.1,714.56,140,709.8,140Zm.12-10.06c5.45-1.07,12.19-.46,14.49-3.37s1.91-10.83-.58-13.75c-2.29-2.7-9-1.68-13.91-2.32Z"/>
    <path d="M312.92,122c-8.32,0-16.64,0-25,0-5.55,0-8.22-2.69-8.44-8.23a48.31,48.31,0,0,1,.05-6.48c.45-4.41,3-7.17,7.44-7.21q25.69-.19,51.41,0c4.59,0,7.35,2.93,7.68,7.5a50.2,50.2,0,0,1,0,6.49c-.28,5.19-3,7.88-8.25,7.93C329.56,122.06,321.24,122,312.92,122Z"/>
    <path d="M594.55,52.94c4-6.13,7.57-11.71,11.19-17.27,2.82-4.32,8.36-6.32,13-4.39,3.58,1.51,3.19,4.25,1.46,7-4.59,7.33-9,14.78-13.95,21.88-3.17,4.59-5,9.24-4.32,14.85a62.46,62.46,0,0,1,0,7c0,7.25-.85,8.09-8,8-5.92-.07-7.5-1.11-6.81-7,1.29-10.93-2-20.08-8.5-28.65a165.83,165.83,0,0,1-10.14-16c-2.75-4.64-1.21-6.81,4.24-7.37,5.67-.59,9.43,1.25,12.12,6.43S591,47.25,594.55,52.94Z"/>
    <path d="M586,180v11c5.23,0,10.34.09,15.44,0,3.89-.08,5.95,1.46,6,5.52s-1.91,5.66-5.87,5.54c-5-.15-10,0-15.75,0,0,6,.24,11.72-.12,17.44-.15,2.39-1.09,6.28-2.53,6.72-3.09,1-6.8.47-10.1-.19-1-.2-2.1-2.91-2.11-4.48-.16-16.15-.07-32.31-.12-48.46,0-3.41,1.78-4.95,4.87-5q14.49-.13,29,0c3.67,0,4.69,2.42,4.65,5.72s-.81,6.11-4.79,6.19C598.57,180.07,592.59,180,586,180Z"/>
    <path d="M313,130.16c8.15,0,16.3-.06,24.45,0,6.24.06,8.61,2.73,8.68,9.48.09,7.8-2,10.76-8.34,10.81q-24.94.19-49.9,0c-6.46-.06-8.51-2.93-8.4-10.74.08-6.89,2.32-9.47,8.55-9.53C296.39,130.1,304.71,130.16,313,130.16Z"/>
    <path d="M766.92,43c-4.72,0-8.7-.11-12.68,0-4.57.15-5.57-2.49-5.61-6.36,0-4,1.81-5.71,5.76-5.69q20,.09,40,0c4,0,5.68,2,5.61,5.89-.06,3.68-1.28,6.15-5.46,6.12-4,0-8,0-12.67,0v5.54c0,11.65.06,23.3,0,35,0,5.65-1.34,6.58-8,6.52-5.81-.06-6.83-1-6.85-6.52C766.9,70.2,766.92,56.92,766.92,43Z"/>
    <path d="M1199.92,112c-4.65,0-8.77-.09-12.89,0-4.28.11-5.32-2.36-5.38-6-.07-3.84,1.29-6,5.44-6,13.47.05,27,0,40.43,0,4.13,0,5.5,2.28,5.43,6.07s-1.55,6-5.64,5.94-7.92,0-12.49,0v20.21c0,7.16.07,14.32-.07,21.47-.12,6.1-4.69,5.26-8.67,5.34s-6.25-1.26-6.2-5.75C1200,139.8,1199.92,126.33,1199.92,112Z"/>
  </g>
</svg>
