<svg id="Layer_1" data-name="Layer 1" xmlns="http://www.w3.org/2000/svg" viewBox="0 0 1600 900">
  <defs>
    <style>
      .cls-1 {
        fill: #677b8c;
      }
    </style>
  </defs>
  <g>
    <path class="cls-1" d="M295,387.65v16.72a1.72,1.72,0,0,1-1.82,1.82H221.45v34.16h59.24a1.72,1.72,0,0,1,1.82,1.82v16.71a1.72,1.72,0,0,1-1.82,1.82H221.45v50.51a1.71,1.71,0,0,1-1.81,1.82h-18a1.72,1.72,0,0,1-1.82-1.82V387.65a1.71,1.71,0,0,1,1.82-1.81h91.57A1.71,1.71,0,0,1,295,387.65Z"/>
    <path class="cls-1" d="M441.49,513h-19.8a2,2,0,0,1-2.09-1.64C417,501,413.78,490,410.15,478.87H349.37C345.74,490,342.56,501,340,511.39a2,2,0,0,1-2.09,1.64H318.84c-1.27,0-2-.73-1.63-2,11.44-40.52,28.89-85.22,46.51-122.83a3.48,3.48,0,0,1,3.55-2.36h25.8a3.47,3.47,0,0,1,3.54,2.36A831.55,831.55,0,0,1,443.13,511C443.49,512.3,442.76,513,441.49,513Zm-38.06-53.78c-6.64-18.36-14-36.71-21.54-53.43h-4.27c-7.54,16.72-15,35.07-21.62,53.43Z"/>
    <path class="cls-1" d="M474,450.52c0-39.43,26-67,63.06-67h2.72c23.26,0,41.25,11.82,50.79,28.9a1.61,1.61,0,0,1-.64,2.54l-16,7.9a2.21,2.21,0,0,1-3.18-.81c-6.72-11.63-16.81-17.81-31.71-17.81h-2.72c-23.35,0-39.43,18.53-39.43,45.43s15.81,45.06,39.43,45.06h2.72c15.27,0,24.17-5.18,31-13.09a2.32,2.32,0,0,1,3-.63l16.45,8a1.54,1.54,0,0,1,.91,1.28,2.45,2.45,0,0,1-.55,1.36c-10.08,14.72-28.25,23.8-50.42,23.8H536.7C499,515.39,474,489.5,474,450.52Z"/>
    <path class="cls-1" d="M735.3,494.5v16.71a1.72,1.72,0,0,1-1.82,1.82H638.09a1.72,1.72,0,0,1-1.82-1.82V387.65a1.71,1.71,0,0,1,1.82-1.81h93.76a1.71,1.71,0,0,1,1.82,1.81v16.72a1.72,1.72,0,0,1-1.82,1.82h-74v33.07H718a1.72,1.72,0,0,1,1.82,1.82v16.53a1.72,1.72,0,0,1-1.82,1.82H657.89v33.25h75.59A1.72,1.72,0,0,1,735.3,494.5Z"/>
    <path class="cls-1" d="M899.56,478.14c0,22.26-17.08,34.89-47.25,34.89h-62.5a1.72,1.72,0,0,1-1.82-1.82V387.65a1.71,1.71,0,0,1,1.82-1.81h57c29.35,0,45.34,11.63,45.34,32.89,0,14-7.09,23.16-21.44,27.43C890.83,450.43,899.56,462.52,899.56,478.14Zm-53.24-72.5H809.61V439.8h36.71c16.44,0,24-5.36,24-17.08S862.76,405.64,846.32,405.64Zm31.07,70.59c0-11.81-7.81-17.17-25-17.17H809.61v34.16H852.4C869.85,493.22,877.39,488.14,877.39,476.23Z"/>
    <path class="cls-1" d="M937.62,449.43c0-38.34,25.44-66,65.41-66h2.73c40,0,65.41,27.62,65.41,66s-25.44,66-65.41,66H1003C963.06,515.39,937.62,487.77,937.62,449.43Zm68.14,45.25c26.07,0,42.52-17.9,42.52-45.25s-16.45-45.24-42.52-45.24H1003c-26.07,0-42.52,17.9-42.52,45.24S977,494.68,1003,494.68Z"/>
    <path class="cls-1" d="M1108.05,449.43c0-38.34,25.44-66,65.42-66h2.72c40,0,65.42,27.62,65.42,66s-25.44,66-65.42,66h-2.72C1133.49,515.39,1108.05,487.77,1108.05,449.43Zm68.14,45.25c26.08,0,42.52-17.9,42.52-45.25s-16.44-45.24-42.52-45.24h-2.72c-26.08,0-42.52,17.9-42.52,45.24s16.44,45.25,42.52,45.25Z"/>
    <path class="cls-1" d="M1398.32,513h-23.44a3.45,3.45,0,0,1-3.18-1.54,494.93,494.93,0,0,0-52.42-52.79h-10.54v52.51a1.72,1.72,0,0,1-1.82,1.82h-18a1.71,1.71,0,0,1-1.81-1.82V387.65a1.71,1.71,0,0,1,1.81-1.81h18a1.71,1.71,0,0,1,1.82,1.81V437.8h10.72a390.59,390.59,0,0,0,47.43-50.6,2.9,2.9,0,0,1,2.72-1.36h22.17c1.09,0,1.63.54,1.63,1.27a2.25,2.25,0,0,1-.63,1.36c-19.53,24.08-38.89,43.79-56.78,59.06a546.35,546.35,0,0,1,63.32,63.23C1400.32,511.94,1399.78,513,1398.32,513Z"/>
  </g>
</svg>
