<svg id="Layer_1" data-name="Layer 1" xmlns="http://www.w3.org/2000/svg" viewBox="0 0 800 400">
  <g>
    <path d="M143.94,146.36a53,53,0,0,0-38,15.35c-10.07,10.15-15.21,24-15.25,38.09s5,28,15,38.2a54.15,54.15,0,0,0,75.82.27c10.07-10.15,15.21-24,15.25-38.1s-5-28-15-38.2A53,53,0,0,0,143.94,146.36Zm28.29,59.91a32,32,0,0,1-1.67,5.77,28.68,28.68,0,0,1-2.61,5.08,26.7,26.7,0,0,1-3.44,4.27,27,27,0,0,1-4.22,3.46,28.55,28.55,0,0,1-5,2.61,30.62,30.62,0,0,1-5.64,1.64,31.92,31.92,0,0,1-12,0,30.87,30.87,0,0,1-5.63-1.68,28.2,28.2,0,0,1-5-2.65,26.87,26.87,0,0,1-4.2-3.48,27.19,27.19,0,0,1-3.41-4.3,29.27,29.27,0,0,1-2.57-5.09,31.32,31.32,0,0,1-1.63-5.79,33.84,33.84,0,0,1,0-12.37,32,32,0,0,1,1.67-5.77,28.68,28.68,0,0,1,2.61-5.08,27.15,27.15,0,0,1,3.44-4.27,26.38,26.38,0,0,1,4.22-3.45,27.88,27.88,0,0,1,5-2.61,30.65,30.65,0,0,1,5.64-1.65,32.7,32.7,0,0,1,6-.55,31.87,31.87,0,0,1,6,.6,29.37,29.37,0,0,1,5.63,1.68,27.51,27.51,0,0,1,5,2.64,26.39,26.39,0,0,1,4.2,3.49,26.67,26.67,0,0,1,3.41,4.29,29.36,29.36,0,0,1,2.57,5.1,31.44,31.44,0,0,1,1.63,5.78,33.84,33.84,0,0,1,0,12.37Z"/>
    <path d="M576.74,197c0,2.82,0,5.74-.22,8.56a47.66,47.66,0,0,1-.65,5.45,26.78,26.78,0,0,1-3.61,9.55c-4.53,7.09-12.48,10.58-20.57,10.68s-16-3.26-20.44-10.61a29.42,29.42,0,0,1-3.47-9.61,84.37,84.37,0,0,1-1.19-13.82c-.07-3-.1-6-.11-8.94,0-5.07,0-10.34,0-15.41,0-8.06,0-16.34,0-24.37H502.06c0,8,0,33.3,0,41.65,0,4,.06,8.08.18,12.07.09,2.92.23,5.88.49,8.79.61,6.91,1.89,13.66,5,20,6.45,13,19,20.51,33,22.17a51.74,51.74,0,0,0,20.52-1.74c6.36-1.87,13.11-5.21,17.83-10.1.23,3.29.46,6.68.69,9.89h21.29V148.47H576.77C576.77,154.89,576.78,190.43,576.74,197Z"/>
    <path d="M707.7,211c-3.54-9.92-12.2-16-21.31-19.57a105.22,105.22,0,0,0-15.81-4.45c-2.35-.52-4.71-1-7-1.65a40.51,40.51,0,0,1-5.88-1.95,14.47,14.47,0,0,1-5.56-3.89,7,7,0,0,1-1.63-5.29,8.59,8.59,0,0,1,3.41-5.62,14.66,14.66,0,0,1,4-2.25,23.12,23.12,0,0,1,5.8-1.37,37.66,37.66,0,0,1,11.93.68,52,52,0,0,1,16.49,6.7l12.2-16.72A62.48,62.48,0,0,0,677,144.42a60.38,60.38,0,0,0-16.77-.2,48.55,48.55,0,0,0-12.51,3.3,34.53,34.53,0,0,0-13.79,10,30.44,30.44,0,0,0-5.74,11.11,27,27,0,0,0,.17,15.36,25.49,25.49,0,0,0,7.77,11.68c7.61,6.6,18.23,9,27.37,11,3.2.69,6.4,1.35,9.55,2.26a31.56,31.56,0,0,1,7.53,3.05,13,13,0,0,1,4.6,4.36,8.49,8.49,0,0,1,1.21,5.21,9,9,0,0,1-1.9,4.63,13.33,13.33,0,0,1-4.69,3.67,23.73,23.73,0,0,1-7.5,2.11,44.34,44.34,0,0,1-10.86-.09,50,50,0,0,1-11.5-2.79,58.86,58.86,0,0,1-15.56-8.83l-13,17.38a71.3,71.3,0,0,0,26.21,13.9,68.09,68.09,0,0,0,16.3,2.58,62.94,62.94,0,0,0,13.29-.86,47.1,47.1,0,0,0,16.17-5.76,33.31,33.31,0,0,0,9.41-8.29A31.76,31.76,0,0,0,709,224.3,27.88,27.88,0,0,0,707.7,211Z"/>
    <path d="M275.73,228.74A32.91,32.91,0,0,1,258.4,228a27.08,27.08,0,0,1-13.9-10.16A31.51,31.51,0,0,1,239,201.45a33,33,0,0,1,3.5-17,24.89,24.89,0,0,1,12.68-11.61,31.4,31.4,0,0,1,7.36-2.15,33.6,33.6,0,0,1,9.81-.22,38.62,38.62,0,0,1,16.3,6.05q7.35-9.34,14.71-18.67a55,55,0,0,0-28.8-11.71,57.89,57.89,0,0,0-30.74,5,48.84,48.84,0,0,0-22.43,21.38A59,59,0,0,0,214.85,203a56.17,56.17,0,0,0,9.72,29.55,49.56,49.56,0,0,0,24.89,18.48,59.23,59.23,0,0,0,31.1,1.8A52.33,52.33,0,0,0,307.81,238l-16.73-17.26A32.9,32.9,0,0,1,275.73,228.74Z"/>
    <rect x="450.24" y="107.37" width="25.68" height="143.82"/>
    <path d="M397.54,197c0,2.82,0,5.74-.22,8.56a47.66,47.66,0,0,1-.65,5.45,27,27,0,0,1-3.61,9.55c-4.53,7.09-12.48,10.58-20.57,10.68s-16-3.26-20.44-10.61a29.42,29.42,0,0,1-3.47-9.61,83.28,83.28,0,0,1-1.19-13.82c-.07-3-.1-6-.11-8.94,0-5.07,0-10.34,0-15.41V148.47H322.86c0,8,0,33.3,0,41.65,0,4,.05,8.08.18,12.07.09,2.92.23,5.88.49,8.79.61,6.91,1.89,13.66,5,20,6.45,13,19,20.51,33,22.17a51.79,51.79,0,0,0,20.53-1.74c6.36-1.87,13.1-5.21,17.83-10.1.23,3.29.46,6.68.69,9.89h20.73V148.47H397.57C397.57,154.89,397.58,190.43,397.54,197Z"/>
  </g>
</svg>
