<svg xmlns="http://www.w3.org/2000/svg" width="568" height="148" viewBox="0 0 568 148"><path d="M46.5,0,86.77,23.5v47L46.5,94,6.23,70.5v-47Z" transform="translate(21 20)" fill="#fff"/><path d="M43.271,104h0L0,77.783.218,25.794,43.728,0,87,26.194l-.219,51.988L43.271,104ZM59.262,55.637V88L81,75.5V32L43.178,53.008l-.048-.1-.046.1L6,32.4V75.5L27.742,88V55.838l15.727,8.753Z" transform="translate(24 15)" fill="#424242"/><path d="M0,12.052,19.5,0,63.538,26.046,64,79,44.595,91l-.477-52.852" transform="translate(71)" fill="#dc139c"/><path d="M64,12.052,44.5,0,.466,26.046,0,79,19.409,91l.475-52.852" fill="#fb8b00"/><path d="M0,.2.08,23.8,44.132,50,88,23.484,87.922,0,44.137,26.449" transform="translate(23 98)" fill="#0169c9"/><path d="M290,66h-8.58V26.887H257.541V66H249V18h8.541v8.478a9.114,9.114,0,0,1,2.615-6.024,8.582,8.582,0,0,1,2.692-1.792A8.147,8.147,0,0,1,266.1,18H281.42a8.129,8.129,0,0,1,3.349.7,8.766,8.766,0,0,1,4.553,4.717A8.95,8.95,0,0,1,290,26.887V66ZM64,66H55.553V26.887H36.232V66H27.768V26.887H8.426V66H0V18H8.426v8.478a9.167,9.167,0,0,1,2.58-6.024,8.452,8.452,0,0,1,2.655-1.792A7.945,7.945,0,0,1,16.872,18h10.9a7.906,7.906,0,0,1,3.192.662,8.531,8.531,0,0,1,2.655,1.792,9.317,9.317,0,0,1,1.856,2.709,8.335,8.335,0,0,1,.761,3.315,9.834,9.834,0,0,1,.743-3.315,8.824,8.824,0,0,1,1.8-2.709,8.464,8.464,0,0,1,2.655-1.792A7.945,7.945,0,0,1,44.64,18H55.553a7.884,7.884,0,0,1,3.286.7,8.584,8.584,0,0,1,2.692,1.891,8.678,8.678,0,0,1,1.8,2.826A9.061,9.061,0,0,1,64,26.887V66Zm167.493,0H208.525a7.989,7.989,0,0,1-3.3-.7,8.815,8.815,0,0,1-2.722-1.89,8.964,8.964,0,0,1-1.822-2.807A9.082,9.082,0,0,1,200,57.113V26.887a8.777,8.777,0,0,1,5.22-8.185,7.989,7.989,0,0,1,3.3-.7h22.968a7.961,7.961,0,0,1,3.324.7,8.851,8.851,0,0,1,2.686,1.891,9.057,9.057,0,0,1,1.821,2.826A8.966,8.966,0,0,1,240,26.887V57.113a9.045,9.045,0,0,1-2.5,6.3,8.767,8.767,0,0,1-2.686,1.89A7.961,7.961,0,0,1,231.493,66ZM209,27V57h23V27ZM190,66h-8V18h8Zm-25.474,0H136V57.113h28.526V45.985h-20.07a8.043,8.043,0,0,1-3.307-.682,8.749,8.749,0,0,1-2.7-1.889,9.062,9.062,0,0,1-2.452-6.3V26.887a9.225,9.225,0,0,1,.651-3.469,9.02,9.02,0,0,1,1.8-2.826,8.822,8.822,0,0,1,2.7-1.891,7.911,7.911,0,0,1,3.307-.7h26.779v8.887H144.455V37.118h20.07a7.83,7.83,0,0,1,3.29.7,8.636,8.636,0,0,1,2.676,1.891,8.776,8.776,0,0,1,1.84,2.806A9.06,9.06,0,0,1,173,45.985V57.113a9.178,9.178,0,0,1-.668,3.488,8.675,8.675,0,0,1-1.84,2.807,8.953,8.953,0,0,1-2.676,1.89A7.817,7.817,0,0,1,164.525,66Zm-45,0H91V57.113h28.525V45.985H99.455a8.043,8.043,0,0,1-3.307-.682,8.749,8.749,0,0,1-2.7-1.889A9.062,9.062,0,0,1,91,37.118V26.887a9.207,9.207,0,0,1,.651-3.469,9.02,9.02,0,0,1,1.8-2.826,8.822,8.822,0,0,1,2.7-1.891,7.911,7.911,0,0,1,3.307-.7h26.78v8.887H99.455V37.118h20.07a7.83,7.83,0,0,1,3.29.7,8.636,8.636,0,0,1,2.676,1.891,8.777,8.777,0,0,1,1.84,2.806A9.06,9.06,0,0,1,128,45.985V57.113a9.178,9.178,0,0,1-.668,3.488,8.675,8.675,0,0,1-1.84,2.807,8.953,8.953,0,0,1-2.676,1.89A7.817,7.817,0,0,1,119.525,66ZM82,66H74V18h8ZM191,9h-9V0h9V9ZM83,9H74V0h9V9Z" transform="translate(165 35)" fill="#424242"/><path d="M104,69H87.337a9.855,9.855,0,0,1-3.87-.79h-.032a10.983,10.983,0,0,1-3.16-2.193h-.029a10.783,10.783,0,0,1-2.168-3.267l-.032-.035a10.558,10.558,0,0,1-.743-3.993V30.41H66V18.6H77.3V4h11.52V18.6H104v11.8H88.823V57.193H104V69ZM62,69H51V18H62ZM33.935,69H10.041a9.927,9.927,0,0,1-3.888-.794H6.125A10.915,10.915,0,0,1,2.955,66H2.922v-.03A11.375,11.375,0,0,1,.779,62.717v-.034A10.619,10.619,0,0,1,0,58.668V0H11.533V21.344a.578.578,0,0,0,.045-.065.58.58,0,0,1,.045-.065,9.907,9.907,0,0,1,3.142-2.075h.019l.01,0a9.525,9.525,0,0,1,3.821-.794H33.935a9.448,9.448,0,0,1,3.911.828h.014l.012,0,.007,0s0,.009,0,.018,0,.013,0,.015a9.507,9.507,0,0,1,3.11,2.167l.028-.03a.057.057,0,0,1,.017.031.073.073,0,0,0,.016.032,9.745,9.745,0,0,1,2.11,3.187.06.06,0,0,1,0,.024s0,.006,0,.009A10.317,10.317,0,0,1,44,28.678V58.668a10.075,10.075,0,0,1-.84,4.015s0,.009,0,.015a.045.045,0,0,1,0,.019A10.187,10.187,0,0,1,41.017,66a10.44,10.44,0,0,1-3.137,2.2h-.032A9.908,9.908,0,0,1,33.935,69ZM11,30V57H32V30ZM62,12H50V0H62V12Z" transform="translate(464 33)" fill="#424242"/></svg>