<svg id="Layer_1" data-name="Layer 1" xmlns="http://www.w3.org/2000/svg" xmlns:xlink="http://www.w3.org/1999/xlink" viewBox="0 0 650 610">
  <defs>
    <style>
      .cls-1 {
        fill: none;
      }

      .cls-2 {
        fill: #d42f92;
      }

      .cls-3 {
        fill: #fff;
      }

      .cls-4 {
        fill: #f68c1f;
      }

      .cls-5 {
        fill: #2d6ab3;
      }

      .cls-6 {
        fill: #333;
      }

      .cls-7 {
        fill: #f7f3f0;
      }

      .cls-8 {
        fill: #fbca15;
      }

      .cls-9 {
        fill: #e9bb1f;
      }

      .cls-10 {
        fill: #afb0ae;
      }

      .cls-11 {
        fill: #727673;
      }

      .cls-12 {
        fill: #787979;
      }

      .cls-13 {
        fill: #636464;
      }

      .cls-14 {
        fill: #555656;
      }

      .cls-15 {
        fill: #686868;
      }

      .cls-16 {
        clip-path: url(#clip-path);
      }

      .cls-17 {
        fill: #a2c26a;
      }

      .cls-18 {
        fill: #010101;
      }

      .cls-19 {
        clip-path: url(#clip-path-2);
      }

      .cls-20 {
        fill: #56419a;
      }

      .cls-21 {
        clip-path: url(#clip-path-3);
      }

      .cls-22 {
        fill: #ef4150;
      }

      .cls-23 {
        clip-path: url(#clip-path-4);
      }

      .cls-24 {
        fill: #f2d3bd;
      }

      .cls-25 {
        clip-path: url(#clip-path-5);
      }

      .cls-26 {
        fill: #a6907e;
      }

      .cls-27 {
        clip-path: url(#clip-path-6);
      }

      .cls-28 {
        fill: #f2d4bd;
      }

      .cls-29 {
        clip-path: url(#clip-path-7);
      }

      .cls-30 {
        fill: #e6cab8;
      }

      .cls-31 {
        clip-path: url(#clip-path-8);
      }

      .cls-32 {
        clip-path: url(#clip-path-9);
      }

      .cls-33 {
        clip-path: url(#clip-path-10);
      }

      .cls-34 {
        fill: #e6b13f;
      }

      .cls-35 {
        clip-path: url(#clip-path-11);
      }

      .cls-36 {
        clip-path: url(#clip-path-12);
      }

      .cls-37 {
        fill: #465d9a;
      }

      .cls-38 {
        clip-path: url(#clip-path-13);
      }

      .cls-39 {
        clip-path: url(#clip-path-14);
      }

      .cls-40 {
        fill: #3d3d3e;
      }

      .cls-41 {
        clip-path: url(#clip-path-15);
      }

      .cls-42 {
        fill: #bce1d0;
      }

      .cls-43 {
        clip-path: url(#clip-path-16);
      }

      .cls-44 {
        fill: #b77452;
      }

      .cls-45 {
        clip-path: url(#clip-path-17);
      }

      .cls-46 {
        fill: #a2c2b3;
      }

      .cls-47 {
        fill: #f37260;
      }

      .cls-48 {
        clip-path: url(#clip-path-18);
      }

      .cls-49 {
        clip-path: url(#clip-path-19);
      }

      .cls-50 {
        fill: #9f6547;
      }

      .cls-51 {
        clip-path: url(#clip-path-20);
      }

      .cls-52 {
        fill: #ab6b54;
      }

      .cls-53 {
        clip-path: url(#clip-path-21);
      }

      .cls-54 {
        fill: #8a573d;
      }

      .cls-55 {
        clip-path: url(#clip-path-22);
      }

      .cls-56 {
        clip-path: url(#clip-path-23);
      }

      .cls-57 {
        fill: #4b352a;
      }

      .cls-58 {
        clip-path: url(#clip-path-24);
      }

      .cls-59 {
        clip-path: url(#clip-path-25);
      }

      .cls-60 {
        clip-path: url(#clip-path-26);
      }

      .cls-61 {
        fill: #7c5039;
      }

      .cls-62 {
        clip-path: url(#clip-path-27);
      }

      .cls-63 {
        fill: #523527;
      }

      .cls-64 {
        clip-path: url(#clip-path-28);
      }

      .cls-65 {
        clip-path: url(#clip-path-29);
      }

      .cls-66 {
        clip-path: url(#clip-path-30);
      }

      .cls-67 {
        clip-path: url(#clip-path-31);
      }

      .cls-68 {
        fill: #774d37;
      }

      .cls-69 {
        clip-path: url(#clip-path-32);
      }

      .cls-70 {
        clip-path: url(#clip-path-33);
      }

      .cls-71 {
        fill: #f5c81c;
      }

      .cls-72 {
        clip-path: url(#clip-path-34);
      }

      .cls-73 {
        clip-path: url(#clip-path-35);
      }

      .cls-74 {
        clip-path: url(#clip-path-36);
      }

      .cls-75 {
        clip-path: url(#clip-path-37);
      }

      .cls-76 {
        clip-path: url(#clip-path-38);
      }

      .cls-77 {
        clip-path: url(#clip-path-39);
      }

      .cls-78 {
        fill: #db1f2c;
      }

      .cls-79 {
        clip-path: url(#clip-path-40);
      }

      .cls-80 {
        fill: #513526;
      }
    </style>
    <clipPath id="clip-path">
      <rect class="cls-1" x="158.52" y="456.99" width="278.04" height="67.79"/>
    </clipPath>
    <clipPath id="clip-path-2">
      <rect class="cls-1" x="151.22" y="303.02" width="117.5" height="184.45"/>
    </clipPath>
    <clipPath id="clip-path-3">
      <rect class="cls-1" x="199.15" y="212.87" width="34.29" height="54.31"/>
    </clipPath>
    <clipPath id="clip-path-4">
      <rect class="cls-1" x="139.17" y="148.65" width="107.28" height="186.52"/>
    </clipPath>
    <clipPath id="clip-path-5">
      <rect class="cls-1" x="141.78" y="153.16" width="96.29" height="177.17"/>
    </clipPath>
    <clipPath id="clip-path-6">
      <rect class="cls-1" x="204.25" y="246.43" width="36.36" height="24.33"/>
    </clipPath>
    <clipPath id="clip-path-7">
      <rect class="cls-1" x="174.87" y="222.11" width="79.46" height="86.67"/>
    </clipPath>
    <clipPath id="clip-path-8">
      <rect class="cls-1" x="203.99" y="218.91" width="20.64" height="29.71"/>
    </clipPath>
    <clipPath id="clip-path-9">
      <rect class="cls-1" x="200.46" y="231.92" width="5.49" height="6.97"/>
    </clipPath>
    <clipPath id="clip-path-10">
      <rect class="cls-1" x="200.47" y="237.12" width="4.58" height="6.33"/>
    </clipPath>
    <clipPath id="clip-path-11">
      <rect class="cls-1" x="406.83" y="138.9" width="184.69" height="368.4"/>
    </clipPath>
    <clipPath id="clip-path-12">
      <rect class="cls-1" x="430.06" y="472.83" width="153.87" height="20.42"/>
    </clipPath>
    <clipPath id="clip-path-13">
      <rect class="cls-1" x="406.83" y="479.17" width="184.69" height="28.12"/>
    </clipPath>
    <clipPath id="clip-path-14">
      <rect class="cls-1" x="427.08" y="295.88" width="155.82" height="197.44"/>
    </clipPath>
    <clipPath id="clip-path-15">
      <rect class="cls-1" x="497.04" y="206.26" width="27.11" height="13.07"/>
    </clipPath>
    <clipPath id="clip-path-16">
      <rect class="cls-1" x="502.93" y="201.3" width="16.5" height="15.59"/>
    </clipPath>
    <clipPath id="clip-path-17">
      <rect class="cls-1" x="446.14" y="213.71" width="120.65" height="84.12"/>
    </clipPath>
    <clipPath id="clip-path-18">
      <rect class="cls-1" x="418.97" y="138.9" width="149.68" height="189.53"/>
    </clipPath>
    <clipPath id="clip-path-19">
      <rect class="cls-1" x="420.8" y="151.53" width="78.1" height="173.88"/>
    </clipPath>
    <clipPath id="clip-path-20">
      <rect class="cls-1" x="503.04" y="203.48" width="15.91" height="4.31"/>
    </clipPath>
    <clipPath id="clip-path-21">
      <rect class="cls-1" x="494.3" y="184.61" width="34.78" height="9.83"/>
    </clipPath>
    <clipPath id="clip-path-22">
      <rect class="cls-1" x="496.62" y="168.26" width="30.13" height="37.96"/>
    </clipPath>
    <clipPath id="clip-path-23">
      <rect class="cls-1" x="493.7" y="162.16" width="35.97" height="23.36"/>
    </clipPath>
    <clipPath id="clip-path-24">
      <rect class="cls-1" x="286.74" y="185.55" width="154.83" height="324.96"/>
    </clipPath>
    <clipPath id="clip-path-25">
      <rect class="cls-1" x="304.71" y="185.56" width="62.89" height="83.16"/>
    </clipPath>
    <clipPath id="clip-path-26">
      <rect class="cls-1" x="286.74" y="219.2" width="154.83" height="285.12"/>
    </clipPath>
    <clipPath id="clip-path-27">
      <rect class="cls-1" x="432.41" y="231.78" width="8.1" height="5.04"/>
    </clipPath>
    <clipPath id="clip-path-28">
      <rect class="cls-1" x="319.32" y="490.04" width="29.67" height="20.48"/>
    </clipPath>
    <clipPath id="clip-path-29">
      <rect class="cls-1" x="369" y="385.53" width="27.11" height="30.51"/>
    </clipPath>
    <clipPath id="clip-path-30">
      <rect class="cls-1" x="311.2" y="186.94" width="124.74" height="310.85"/>
    </clipPath>
    <clipPath id="clip-path-31">
      <rect class="cls-1" x="341.49" y="218.39" width="13.16" height="7.4"/>
    </clipPath>
    <clipPath id="clip-path-32">
      <rect class="cls-1" x="333.89" y="200.66" width="7.06" height="9.27"/>
    </clipPath>
    <clipPath id="clip-path-33">
      <rect class="cls-1" x="329.54" y="207.79" width="8.58" height="12.36"/>
    </clipPath>
    <clipPath id="clip-path-34">
      <rect class="cls-1" x="355.77" y="208.68" width="8.58" height="12.36"/>
    </clipPath>
    <clipPath id="clip-path-35">
      <rect class="cls-1" x="337.94" y="187.62" width="24.94" height="36.77"/>
    </clipPath>
    <clipPath id="clip-path-36">
      <rect class="cls-1" x="336.21" y="186.94" width="27.78" height="14.82"/>
    </clipPath>
    <clipPath id="clip-path-37">
      <rect class="cls-1" x="311.2" y="232.39" width="124.74" height="265.41"/>
    </clipPath>
    <clipPath id="clip-path-38">
      <rect class="cls-1" x="322" y="232.39" width="53.6" height="57"/>
    </clipPath>
    <clipPath id="clip-path-39">
      <rect class="cls-1" x="311.2" y="283.16" width="124.74" height="214.64"/>
    </clipPath>
    <clipPath id="clip-path-40">
      <rect class="cls-1" x="314.07" y="293.1" width="29.23" height="19.55"/>
    </clipPath>
    <symbol id="Logo" data-name="Logo" viewBox="0 0 43.54 45.56">
      <polygon class="cls-2" points="22.84 5.14 35.93 12.54 36.08 27.54 41.83 24.14 41.69 9.14 28.62 1.76 28.63 1.72 22.84 5.14"/>
      <path class="cls-3" d="M42.52,7.67,29.44.28A1.72,1.72,0,0,0,28.6.06l0,0C28.16-.24,22.48,3.46,22,3.66c-.07,0-.14.1-.21.15a1.24,1.24,0,0,0-.18-.14C21,3.45,15.44-.19,14.93,0V.07a1.91,1.91,0,0,0-.84.22L1,7.63C-.7,7.59.36,23.18,0,24.1c-.33,1.71,5.73,4,6.61,4.89a1.6,1.6,0,0,0,.66.21c-.67,2.06.1,6.13-.19,7.24-.89,1.49,13.23,8.2,13.85,9,.87,1.49,13.73-7.38,14.71-7.56,1.67-.58.56-7,.86-8.18a1.54,1.54,0,0,0-.06-.43,1.43,1.43,0,0,0,.46-.2c.91-.91,6.93-3.15,6.61-4.88C43.18,23.17,44.23,7.68,42.52,7.67ZM8.77,36.47V29.75l13.05,7.48,13-7.49V36.4l-13,7.54ZM1.86,9.16,14.93,1.78v0l5.79,3.41L7.63,12.57l-.14,15L1.72,24.16Zm39.83,0,.14,15-5.75,3.4-.15-15L22.84,5.14l5.79-3.42v0Zm-32.81,19L9,13.33,21.84,6l12.81,7.44-.06,14.85-12.9,7.37Z"/>
      <polygon class="cls-4" points="7.49 27.57 7.63 12.57 20.72 5.17 14.93 1.76 14.93 1.78 1.86 9.16 1.72 24.16 7.49 27.57"/>
      <polygon class="cls-5" points="34.77 29.74 21.82 37.23 8.77 29.75 8.77 36.47 21.77 43.94 34.77 36.4 34.77 29.74"/>
      <path class="cls-6" d="M21.69,35.63l12.9-7.37.06-14.85L21.84,6,9,13.33,8.88,28.17ZM26.45,31V21.81h0l-4.68,2.55L17.1,21.88V31l-6.46-3.56V15.2h0l11,5.86h0v0h0l11.2-6v0l0,0V27.46L26.45,31Z"/>
      <polygon class="cls-3" points="32.91 27.46 32.91 15.09 32.87 15.11 32.87 15.06 21.67 21.05 21.66 21.04 21.66 21.05 21.65 21.06 10.64 15.2 10.64 15.2 10.64 15.2 10.64 27.48 17.1 31.04 17.1 31.02 17.1 21.88 21.76 24.37 26.44 21.82 26.45 21.81 26.45 31.02 26.45 31.02 26.45 31.02 32.91 27.46"/>
    </symbol>
    <symbol id="Column" data-name="Column" viewBox="0 0 46.92 351.85">
      <use width="43.54" height="45.56" transform="translate(3.38 306.29)" xlink:href="#Logo"/>
      <use width="43.54" height="45.56" transform="translate(2.2 244.29)" xlink:href="#Logo"/>
      <use width="43.54" height="45.56" transform="translate(1.7 182.21)" xlink:href="#Logo"/>
      <use width="43.54" height="45.56" transform="translate(0.21 120.59)" xlink:href="#Logo"/>
      <use width="43.54" height="45.56" transform="translate(0 60.79)" xlink:href="#Logo"/>
      <use width="43.54" height="45.56" transform="translate(1.07)" xlink:href="#Logo"/>
    </symbol>
  </defs>
  <g id="Layer_2" data-name="Layer 2">
    <rect class="cls-7" x="82.12" y="62.41" width="524.99" height="378.18" rx="13.26"/>
  </g>
  <g id="Logos">
    <use width="46.92" height="351.85" transform="translate(534.03 76.37)" xlink:href="#Column"/>
    <use width="46.92" height="351.85" transform="translate(451.03 76.37)" xlink:href="#Column"/>
    <use width="46.92" height="351.85" transform="translate(363.03 76.37)" xlink:href="#Column"/>
    <use width="46.92" height="351.85" transform="translate(278.03 76.37)" xlink:href="#Column"/>
    <use width="46.92" height="351.85" transform="translate(193.03 76.37)" xlink:href="#Column"/>
    <use width="46.92" height="351.85" transform="translate(108.03 77.37)" xlink:href="#Column"/>
  </g>
  <g id="Layer_4" data-name="Layer 4">
    <rect class="cls-8" x="61.44" y="75.3" width="28.37" height="365.31"/>
    <path class="cls-8" d="M62.45,60.12H88.8a7.58,7.58,0,0,1,7.59,7.58h0a7.59,7.59,0,0,1-7.59,7.59H62.45a7.59,7.59,0,0,1-7.59-7.59h0A7.58,7.58,0,0,1,62.45,60.12Z"/>
    <path class="cls-9" d="M75.62,4.58c38.8.66,38.79,58.38,0,59C36.81,63,36.82,5.23,75.62,4.58Z"/>
    <path class="cls-9" d="M63.46,438.66H89.81a7.59,7.59,0,1,1,0,15.17H63.46C53.62,454,53.6,438.51,63.46,438.66Z"/>
    <rect class="cls-9" x="41.04" y="447.22" width="69.17" height="29.55" rx="3.69"/>
    <path class="cls-8" d="M78.57,6.36c29.3.5,29.29,44.08,0,44.58C49.27,50.44,49.27,6.85,78.57,6.36Z"/>
    <rect class="cls-8" x="597.75" y="74.83" width="28.37" height="365.31"/>
    <path class="cls-8" d="M598.76,59.66h26.35a7.58,7.58,0,0,1,7.59,7.58h0a7.59,7.59,0,0,1-7.59,7.59H598.76a7.59,7.59,0,0,1-7.59-7.59h0A7.58,7.58,0,0,1,598.76,59.66Z"/>
    <path class="cls-9" d="M611.94,4.11c38.8.66,38.79,58.38,0,59C573.13,62.48,573.14,4.76,611.94,4.11Z"/>
    <path class="cls-9" d="M599.77,438.2h26.35a7.59,7.59,0,1,1,0,15.17H599.77C589.93,453.51,589.91,438.05,599.77,438.2Z"/>
    <rect class="cls-9" x="577.35" y="446.75" width="69.17" height="29.55" rx="3.69"/>
    <path class="cls-8" d="M614.88,5.9c29.3.5,29.29,44.08,0,44.58C585.58,50,585.58,6.39,614.88,5.9Z"/>
  </g>
  <g id="Layer_21" data-name="Layer 21">
    <path class="cls-10" d="M70.93,593.71c87.66-4.9,88.27,6.52.59,11.08C-16.13,609.69-16.75,598.28,70.93,593.71Z"/>
  </g>
  <g id="Layer_6" data-name="Layer 6">
    <polygon class="cls-11" points="76.63 599.27 73.07 599.27 57.39 478.07 64.33 476.77 76.63 599.27"/>
    <polygon class="cls-12" points="116.11 594.99 113.56 596.01 59.26 478.24 67.44 475.86 116.11 594.99"/>
    <polygon class="cls-11" points="31.44 603.6 27.69 602.01 56.19 475.86 64.61 481.14 31.44 603.6"/>
  </g>
  <g id="Layer_8" data-name="Layer 8">
    <rect class="cls-12" x="42.92" y="481.14" width="18.22" height="2.85" transform="translate(-269.8 119.24) rotate(-35.38)"/>
  </g>
  <g id="Layer_9" data-name="Layer 9">
    <path class="cls-12" d="M30.92,494.31,45.47,484c1.81-1.47,5.05,3.12,3.08,4.33L34,498.64C32.19,500.1,29,495.52,30.92,494.31Z"/>
  </g>
  <g id="Layer_10" data-name="Layer 10">
    <polygon class="cls-12" points="71.14 472.4 56.98 474.44 52.17 463.39 70.13 461.69 71.14 472.4"/>
  </g>
  <g id="Layer_16" data-name="Layer 16">
    <path class="cls-13" d="M41,420.58l-2.51,1.15-1.32,1.83c-.5,3.91,1.23,14.47,1.91,18.44.42,2.06,1.79,11.72,3,13.35h9.9v-9.1Z"/>
  </g>
  <g id="Layer_17" data-name="Layer 17">
    <path class="cls-13" d="M44.63,410.85,43,408.08l3-3.16c2.25-1.11,7.49-3.47,9.93-3.95l2.55,1.32c-1.06,2.16-1.52,7.65-1.6,10l-6.12,3.79Z"/>
  </g>
  <g id="Layer_18" data-name="Layer 18">
    <path class="cls-13" d="M43,408.67l-3.3-4.29c-1.12-3.6-7.87-25.1-8.73-28.18l3.95-2.79,4-1c5.23,2.48,15.72,6.24,19.56,10.71,1.09,5.69,2.7,13.79,2.36,19.61l-4.91,2.83Z"/>
  </g>
  <g id="Layer_20" data-name="Layer 20">
    <path class="cls-13" d="M40.09,358.64C48,354.72,61,351,69.47,348.75c4.29,6,5.15,16.87,6.59,23.9,2.67,5.74-2.89,7-7.58,6.5a85,85,0,0,1-15.84,1.08l-7.73-3.13Z"/>
  </g>
  <g id="Layer_19" data-name="Layer 19">
    <path class="cls-14" d="M41,357.19c16,.07,16,24.33,0,24.4S25.08,357.26,41,357.19Z"/>
  </g>
  <g id="Layer_12" data-name="Layer 12">
    <path class="cls-12" d="M76.27,457.8c-2.15,5.49-23.49,7.39-27.49,4.19-5.53-4.33-11.18-43.79-8.24-46.89,5.79-6.11,26.72-9.86,33.64,0C76.54,418.54,78.31,452.6,76.27,457.8Z"/>
  </g>
  <g id="Layer_13" data-name="Layer 13">
    <path class="cls-15" d="M75,417.64c1.39,9.84,2.8,26.26,1.65,36.2,1.88-.72,6.51-2.56,7.86-4.1a133.72,133.72,0,0,0-3.2-31.24C79.87,418.17,76.4,417.42,75,417.64Z"/>
  </g>
  <g id="Layer_15" data-name="Layer 15">
    <path class="cls-13" d="M104.22,406.88l3.27,29.41c1.35,4.84-2.31,25.38,6.1,25.7l8.37,1.56,11.5.89c4.14,1.14,6.51.89,5.86-4.19-5-2.67-15.8-7.07-10.12-14,9.79-6.13,23.87-14.5,10.79-25.88-37.52-13.76,4.07-18-9.23-26.12C125.53,396,105.39,401.4,104.22,406.88Z"/>
  </g>
  <g id="Layer_14" data-name="Layer 14">
    <path class="cls-12" d="M81.29,416.21c2.55-5.6,12.4-5.11,17.68-7.18,14-6.32,12.46,19.87,14,28.06v12.2c-.45,7.37-2.36,6.18-8.84,6.4-7.17.93-16.46,1.44-22-4.11.45-5.9,1.06-18.57.7-24.38A57.53,57.53,0,0,1,81.29,416.21Z"/>
  </g>
  <g id="Layer_11" data-name="Layer 11">
    <rect class="cls-12" x="49.72" y="460.26" width="25.6" height="3.62" transform="translate(-59.63 12.07) rotate(-7.48)"/>
  </g>
  <g id="Layer_7" data-name="Layer 7">
    <path class="cls-15" d="M62.7,468.89c8.86-.13,8.86,13.79,0,13.66C53.83,482.68,53.83,468.76,62.7,468.89Z"/>
  </g>
  <g id="Layer_22" data-name="Layer 22">
    <g class="cls-16">
      <g>
        <path class="cls-17" d="M436.39,524.67a.05.05,0,0,1,.06-.06h.06a.06.06,0,0,1-.06.06Z"/>
        <path class="cls-18" d="M256.65,492.18c-2.36-.5-8.93-4.07-8.93-4.07-3.7-2.31-10.77-11.75-12.4-8.3-1.92,6.07-1.34,3.07-6.43,1.89-1.33,0,1.84-7.14,2.15-8.13,1.8-4.95,5-9.1,6.36-14.27.52-.93.54-2.63,2-2.24s5.85-.58,5.19,1.83c-1.42,11.7,2.78,16.44,6.72,22.86h0l.06.08h0C252.41,483.55,259.11,491.7,256.65,492.18Z"/>
        <path class="cls-18" d="M162.86,481.19a2.28,2.28,0,0,1-.11.41C163,480.93,163.32,480,162.86,481.19Zm-1.39,28.37c-3-2.36-2.38-39.15,8-31.92,2.1,9.36-.65,20.77-5.78,29.25h0A9.37,9.37,0,0,1,161.47,509.56Z"/>
      </g>
    </g>
    <g class="cls-19">
      <path class="cls-20" d="M205,350.64a2,2,0,0,0,.09-.33C205.05,350.42,205,350.53,205,350.64ZM177.53,487.42c-34.32-1-26.09-.7-21.81-31.41,4.95-24.78,9.92-49.63,15.64-74.19-.68-26.95-3.05-60.21,20.55-78.74,11,3.46,22.94,2,34.09,2.57,14.24,63.51,61.51,52.65,32.62,128.09-2.93,10.53-7.39,20.69-9.34,31.45-.1,1.25-1.21.93-2.11.68-4-3.26-23-5.44-20.91-10.35,8-21,18.4-41.93,22.73-64.09h0c-9.06-8.73-20.46-15.63-29.43-24.83-5.46-3.67-14.38-23.74-16.22-10.11C193.68,399.69,190.31,445.22,177.53,487.42Z"/>
    </g>
    <g class="cls-21">
      <path class="cls-22" d="M216.09,267.12c-10.11,0-12.47-13.38-12.77-20.85-9.65-17.75,2-42.66,21.66-30.32,11.65,7.33,8.74,27.66,7.9,41.63C233,264.83,222.13,266.78,216.09,267.12Z"/>
    </g>
    <g class="cls-23">
      <g>
        <path class="cls-24" d="M238.78,335.11a8.2,8.2,0,0,1-3.16-3.08h0a18.7,18.7,0,0,0-1.28-1.52h0a26.5,26.5,0,0,1-2.13-2.37h0l-.23-.22h0l-.18-.13c-.15-.07-.39-.2-.55-.14a.36.36,0,0,0-.14.35h0c6.13,16.48-13.92-7-.84-27.39h0a22.07,22.07,0,0,0,1.08-2.68h0c.61-2.17,1.16-3.67,1.67-5.84,0-.32-.74-8.09-1.09-8.68,0,0,7.79-6.53,9.65-4.48h0c4.24,5.37,7,14,2.09,19.75h0a47.56,47.56,0,0,1-3.59,5.64h0c-2.07,3.28-4.66,6.22-6.74,9.5h0c-.83,1.46-2.06,3.31-1.27,5h0a11.2,11.2,0,0,0,1.44,1.92h0c1.06,1.13,10,13.82,6,11.52,1.62,3.93-.95.68-1.71-.79h0a7.64,7.64,0,0,0-.61-.77h0c-.17-.14-.48-.55-.71-.47h0v.06h0C237.31,331.65,240.12,333.62,238.78,335.11Z"/>
        <path class="cls-24" d="M177.23,246.44c-3.92-5.8-6.86-12.34-10.13-18.57h0c-5-9.31-9.56-19.09-11.88-29.45h0c-.57-2.73-1.38-5.41-1.88-8.15h0c-1-4.43-1.3-9-2-13.46h0a15.4,15.4,0,0,0-1.76-4.65c.22.38-4.79-7.37-6.87-11.26h0c-.17-.24-.34-.47-.53-.69h0c-2.62-1.57-4.73-10.21-.5-4.34h0a2.57,2.57,0,0,0,.33.33h0c-.65-2-2.59-9.3,1-2.26v-.12h0c-2.63-7.29.3-5.55,2.1.09v-.12h0c-1.36-8.86,3-1.86,3.69,2.24h0a15.42,15.42,0,0,0,1,2.42h0c.1.13.34.47.47.2h0c0-.06,0-.13.08-.19h0a3.87,3.87,0,0,0,.12-.83h0a6.17,6.17,0,0,0,0-.86h0c-.82-2.63.39-5.55,1.35-1.24h0c.5,2.43.8,4.9,1.32,7.33h0c.75,3.33,1.78,6.59,2.39,10h0c.67,3.12,1.73,6.13,2.66,9.18h0a31.44,31.44,0,0,0,1.87,4.2h0c.94,1.79,1.79,3.63,2.69,5.44h0a65.19,65.19,0,0,0,3.58,6.23h0a44.93,44.93,0,0,1,5.67,9.15h0c.79,1.57,1.63,3.13,2.41,4.71h0c.56,1.07,1,2.18,1.59,3.26h0c1.25,2.62,3,5,4.2,7.6h0c2.33,4.26,4.64,8.58,7,12.77h0c5.19,6.33-9.4,10.33-9.37,10.87C177.65,246.29,177.46,246.5,177.23,246.44Z"/>
      </g>
    </g>
    <g class="cls-25">
      <g>
        <path class="cls-26" d="M145.17,161.67a1,1,0,0,0-.08-.15h0c-.07-.15-.14-.3-.22-.45h0c-.87-1.66-1.94-3.26-2.93-4.84h0a.06.06,0,0,1-.06-.06h0m.06,0h0v.06h0c1.06,1.68,2.25,3.47,3.14,5.26h0c0,.07.13.16.08.23h0s0,0,0-.05Z"/>
        <path class="cls-26" d="M145.93,160c-.69-1.49-1.13-3.1-1.88-4.57h0c-.25-.5-.56-1-.85-1.5h0c-.06-.12-.3-.33-.28-.46h0c0-.08.12-.08.12,0h0c1.45,2,2,4.33,3,6.55A.07.07,0,0,1,145.93,160Z"/>
        <path class="cls-26" d="M147.47,159.77c-.75-2.2-2-4.24-2.5-6.49h0a.06.06,0,0,1,.08,0v.05h0v.06h0a.68.68,0,0,0,.08.34h0c.69,2.05,1.74,4.05,2.43,6.09h0A.06.06,0,0,1,147.47,159.77Z"/>
        <path class="cls-26" d="M236.3,330.29c-.06-.1-.21-.4-.27-.48v-.08h0c-.73-1.49-2.55-3.08-3-4.38,1,1.4,2.11,2.73,3,4.18h0c.07.17.36.51.34.69h0S236.34,330.35,236.3,330.29Z"/>
        <path class="cls-26" d="M236.94,329.86c-.09-.23-.14-.52-.23-.73h0c-.43-.82-.91-1.64-1.36-2.43h0l-.07-.12h0c-.17-.4-1.18-1.36-1-1.63h0l.06.12h0c.3.47.7,1,1,1.47h0a14.73,14.73,0,0,1,1.66,3.32h0C237,329.92,236.94,329.92,236.94,329.86Z"/>
        <path class="cls-26" d="M237.89,328.72c-.08-.17-.15-.44-.24-.59h0a2.19,2.19,0,0,0-.27-.5h0a14.34,14.34,0,0,0-.87-1.18h0c-.39-.45-.95-1.17-1.28-1.64h0a0,0,0,0,1,0-.07h0c.36.23.64.86,1,1.19h0a6.88,6.88,0,0,1,1.69,2.82h0A0,0,0,0,1,237.89,328.72Z"/>
      </g>
    </g>
    <g class="cls-27">
      <path class="cls-28" d="M223.69,270.69a12,12,0,0,1-4.1-1c-4.67-1.15-8.12-2-10.77-6.43h0A29.64,29.64,0,0,1,205,252.1h0c-1.47-4.11-.08-4.49,2.94-1.94h0c.49.24,1.86,1.83,2.39,1.32h0a5.85,5.85,0,0,0,.81-2.32h0c.14-.56.25-1.12.34-1.69,6.68.83,9.8-4.34,8.05,3.39h0c.06.6-.1,1.35.25,1.86h0a.65.65,0,0,0,.3.18h.08a2,2,0,0,0,.49,0c6.55-.18,12.42.27,17.09,5.44h.05v.05h0c.66.61,1.28,1.27,1.94,1.88h0c.24.27.6.44.82.72-1.66,0-2.88,2.59-4.33,3.92h0c-2.2,1.92-4.37,4.22-7.26,5A17.86,17.86,0,0,1,223.69,270.69Z"/>
    </g>
    <g class="cls-29">
      <path class="cls-18" d="M186.33,290.43c.11,1.07.22,2.38.08.54C186.36,290.1,186.17,288.63,186.33,290.43Zm67.66,4a2.41,2.41,0,0,0,0-.38A2.4,2.4,0,0,1,254,294.43Zm-41.14,14.33c-33.5-1.29-25.8-19.27-28.8-44.75-1.33-4.79-7.81-6.71-8.15-12.44,0-8.76-1.85-17.74-.27-26.39,18.48-13.05,13,18.73,26.24,20.24,4.25-.11,3,6.67,4.67,9.53,1.94,13.46,21.36,17.76,26.82,4.46,1.3-1.68,2.28-4.16,4.88-2.63,9.71,5.68,12.17,18.86,15.09,29.24.08,3.44,2.59,8.38-.9,10.66-5.12,4.34-20.82,4.62-21.19-4.12.1-2.1,1.81-9.9.36-4.78-1.8,6.27-3.85,12.61-6.21,18.69-2.21,3.1-8.94,1.65-12.54,2.25Z"/>
    </g>
    <path class="cls-30" d="M211.78,246.43a7.87,7.87,0,0,0-.47,1.79,17.55,17.55,0,0,0,8.48.68,8.32,8.32,0,0,0-.16-2.81A48.67,48.67,0,0,0,211.78,246.43Z"/>
    <g class="cls-31">
      <path class="cls-28" d="M216.54,248.56a9.65,9.65,0,0,1-8.69-4.32h0c-1.68-1.89-2.15-4.46-3-6.77h0c-3.32-5.73,6.59-21.91,13.34-17.6h0a4.13,4.13,0,0,1,1.69,2.75h0c.53,2.34,1.17,4.66,1.55,7h0a27.15,27.15,0,0,0,.9,3.29h0c.75,3.63,3.52,8.44,1.33,11.78h0a10.85,10.85,0,0,1-2.28,2.21h0a5,5,0,0,1-3.88,1.61C217.18,248.52,216.86,248.57,216.54,248.56Z"/>
    </g>
    <g class="cls-32">
      <path class="cls-28" d="M205.78,238.84h-.11a4.59,4.59,0,0,1-1-.19l-.94-.17a4,4,0,0,1-2.75-1.63h0a7.16,7.16,0,0,1,.12-4.55v-.06h0a.12.12,0,0,1,.07-.07c.9-.18,1.31.79,1.7,1.45h0c.09.14.2.27.3.4h0c.43.53,1,1,1.47,1.53h0l.07,0h.07s0,.13-.07.07-.09,0-.12,0h0c.38.82.61,1.68.94,2.56h0c.19.07.21.24.19.43C205.91,238.61,206,238.8,205.78,238.84Z"/>
    </g>
    <g class="cls-33">
      <path class="cls-34" d="M202.94,243c2.12-.56,2-4.46.59-5.46C200.78,237.51,199.46,242.92,202.94,243Zm-.7.22c-3.08-.85-1.52-6.56,1.38-6,2,1.32,1.83,6.85-1.38,6Z"/>
    </g>
    <g class="cls-35">
      <g>
        <g class="cls-36">
          <g>
            <path class="cls-37" d="M440.84,492.7c-3.22-.92-6.93-2.81-8.34-3.19-3.05-1.14.65-5.62,1-7.87,1.09-6.82,3.37-5,8.83-3.83C451.61,477.19,444,489.44,440.84,492.7Z"/>
            <path class="cls-37" d="M572.13,493c-2.84-12.83-7.57-15.23,8-20C584.72,486.26,586.56,488.16,572.13,493Z"/>
          </g>
        </g>
        <g class="cls-38">
          <g>
            <path class="cls-18" d="M560.25,507.18l0-.06a.5.5,0,0,1-.4-.41h0a1.81,1.81,0,0,1,.46-1.52h0l1-1.69h0a16.86,16.86,0,0,1,1.67-2h0c.71-.84,1.47-1.63,2.22-2.43h0a36.3,36.3,0,0,0,2.22-3h0a12.13,12.13,0,0,0,1.14-3h0c.06-.23.1-.46.15-.69h0a.29.29,0,0,1,.05-.19h0v-.07h0a4.63,4.63,0,0,1,.09-.49h0c0-.34,0-.4.33-.37l.59-.07h.11a18.11,18.11,0,0,0,1.9-.46,14.16,14.16,0,0,0,1.43-.55,18.15,18.15,0,0,0,1.84-1h0l.22-.14h0a23.91,23.91,0,0,0,2.26-1.75h0l.1-.09h0c1.07-.94,2.18-1.84,3.17-2.86h0a3.32,3.32,0,0,0,.37-.47h0c.29-.44.56-.88.86-1.31h0c.4-.59.86-1.14,1.27-1.72h0v0h0c.32-.43.53-.94.87-1.36.75.44.88,2,1.34,2.75h0c1.23,2,2.82,3.79,4.08,5.79h0l.07.12h0c.25.39.48.79.72,1.18h0a10.07,10.07,0,0,0,.64.86.26.26,0,0,1,.25.28c.19.14,0,.44-.18.3l-.38.33h0a28.27,28.27,0,0,1-3.5,2.56h0c-.76.49-1.53,1-2.29,1.44h0c-.44.29-.88.59-1.33.87h0l-.09.06h-.07l-2.57,1.62h0C574.38,501.39,567.84,506.31,560.25,507.18Z"/>
            <path class="cls-18" d="M413.86,502.83c-2.24-.17-5.06.44-6.93-1h0a.4.4,0,0,1,0-.37h0a7.19,7.19,0,0,1,1.82-1.37,9,9,0,0,1,1.7-.91c.38-.17.78-.31,1.16-.48h.08c.75-.33,1.48-.72,2.23-1a5,5,0,0,0,.68-.37h0c27-15.82,6.65-10.24,28.91-5.58-.23,2.56.88,6.05-1.07,8.14A163.07,163.07,0,0,1,413.86,502.83Z"/>
          </g>
        </g>
        <g class="cls-39">
          <path class="cls-40" d="M558.78,493.23C549.2,472.05,546.6,448.85,536,428.1h0c-12-25-20.47-51.38-28.41-77.88-11.32,29.48-25.12,58-36.58,87.37-7.64,18.07-11.9,37.53-21,54.89a136.16,136.16,0,0,1-16.68-10.43c-1.72-1.32-7.25-2.08-5.79-5,6.65-27.79,13.35-55.46,22.27-82.68C460.26,362,478.63,330,478.47,295.94c78.65,8.29,55.65-18.51,68.4,48.05,11,42.24,23.91,83.63,34.67,126h0c4,7.07-2.41,7.31-7.18,10h0C568.78,484.06,562.71,487.81,558.78,493.23Z"/>
        </g>
        <g class="cls-41">
          <g>
            <path class="cls-42" d="M497.45,214.89a14.84,14.84,0,0,1,.09-2.11h0a5.08,5.08,0,0,1,.19-.86c-.09.25-.18.51-.25.78h0a3.58,3.58,0,0,1-.11.53h0c0,.4,0,.8,0,1.2h0a.75.75,0,0,0,.08.41h0Zm11.33,4.4c-3.72-.3-8.66.23-11.19-3,0-.09-.1-.18-.14-.27,0,.13,0,.48,0,.61h0s.11,0,.09.06c-.41.28-.16-.76-.22-.94a5.42,5.42,0,0,1,.35-4.48h0a13,13,0,0,1,.76-1.54,87.54,87.54,0,0,1,10.78-2.17c-.22.85,1,.55,1.51.6a19.12,19.12,0,0,0,3.12,0c1.1,1.12,3.55.35,5,.57,1.48-.21,3,.51,4.38.86a16.39,16.39,0,0,1,.66,6.15c-3.95,4-10,3-15.15,3.42Z"/>
            <path class="cls-42" d="M505.78,206.66c1.36-.1,2.74-.32,4.14-.33a40,40,0,0,1-4.08.44Z"/>
          </g>
        </g>
        <g class="cls-43">
          <path class="cls-44" d="M513,216.83c-3.36-.1-6.6-.83-10-.75.85-1.31.25-3.29.48-4.83h0a27.19,27.19,0,0,0-.38-7.8c2.64.23,6.17-.88,9-1.59,1.69-.15,6.45,1.22,6.6.75a58.7,58.7,0,0,0-1.41,8.35C516.63,216.49,519.25,216.71,513,216.83Z"/>
        </g>
        <path class="cls-42" d="M489.41,214.29Zm-2.78.18c-1.73,0-1.38.27.12,0Zm-2.89.25a2.5,2.5,0,0,0,.67,0Zm-1.52.12Zm-2.48.11h0ZM479,284v.09s0-.06,0-.05Zm33.51,17c-10.94-2-23.92,1.12-33.91-3.67-1.49-19.77,10.21-54.48-16.28-61.16-3.07-1.23-26-10-17.93-11.29,17.15-23-7-4.52,40.86-10.47,4.07-1,11.89,1.42,12.81-3.42,9,4.16,16.7,0,25.72,3.16,23.8,8,40,28.84,43.07,53.57h0v.07h0c1.3,5.53-7.87-.52-11.73,2.69-5.26,4.65-4.91,5.45-9-1.71-2.41-4.54-3-11.71-4.43-16.91-4-9.07,3.16,25.84.92,28.92,1.93,19.18-15,21.47-30.1,20.24Z"/>
        <g class="cls-45">
          <g>
            <path class="cls-46" d="M500.09,225.69c-.81-3.26-4.49-12-4.49-12l.27-.06s3.61,8,4.28,11.68c2.26-3.68,6.23-11.56,6.23-11.56l.45.15S502.85,222.2,500.09,225.69Z"/>
            <path class="cls-46" d="M518,225.61c-1.48-2.58-4.6-9.41-4.37-10.15.83,2.06,4.37,9.83,4.37,9.83s4.61-9.24,6-10.92a.68.68,0,0,1,.24.12C523.78,214.91,518.61,224.89,518,225.61Z"/>
            <path class="cls-46" d="M546.58,269.68c2.94-6.49,14.59-10.68,19.76-4.49h0a1.07,1.07,0,0,0,.13.19h0c.3.64-.46-.24-.49-.47h0c-.05-.07-.09-.14-.14-.2h0l-.15-.16h0a2.69,2.69,0,0,0-.32-.27h0a16.42,16.42,0,0,0-1.55-1,4.5,4.5,0,0,0-.63-.3,4,4,0,0,0-.65-.2,14.58,14.58,0,0,0-1.73-.31,17.3,17.3,0,0,0-4.07.07,5.61,5.61,0,0,0-1,.24,19.33,19.33,0,0,0-2.36.94,16.22,16.22,0,0,0-2,1h0a12.38,12.38,0,0,0-1.48,1h0a11.46,11.46,0,0,0-1.26,1.15h0a14.58,14.58,0,0,0-1.31,1.52h0c-.27.38-.74,1.16-.74,1.16S546.66,269.58,546.58,269.68Z"/>
            <path class="cls-46" d="M545.55,267.29h-.06a14,14,0,0,1,7.94-6.77c3.7-1.73,8.14-1.93,11.61.46h.12c.05.06,0,.16-.1.1H565l-.42-.25c-.57-.31-1.21-.68-1.79-.94a24.2,24.2,0,0,0-3.24-.67,11.51,11.51,0,0,0-2.12.06,10.12,10.12,0,0,0-1.24.27,34,34,0,0,0-3.85,1.4,13.62,13.62,0,0,0-1.65.87h0a19.89,19.89,0,0,0-2.15,1.47h0a5.34,5.34,0,0,0-.66.6h0a13.41,13.41,0,0,0-1.08,1.29h0c-.45.63-.91,1.28-1.3,1.94h0v.05h0a.06.06,0,0,1-.06.06Z"/>
            <path class="cls-46" d="M446.21,228.29c.11-.17.62,0,.83-.07h.39a5.19,5.19,0,0,1,1.25-.07l2.54-.6.51-.18.24-.13c.26-.17.52-.36.76-.55h0a10,10,0,0,0,.75-.7h0l.13-.14h0c.3-.33.57-.68.84-1h0a5.48,5.48,0,0,0,.38-.6h0a3.88,3.88,0,0,0,.22-.46h0a8.19,8.19,0,0,0,.27-.79h0v-.06h0a2.06,2.06,0,0,0,.06-.55h0v-2.3h0a20.33,20.33,0,0,0-.11-2.6h0a9.24,9.24,0,0,0-.24-1.07h0v0h0a5.54,5.54,0,0,0-.29-.73h0a7.82,7.82,0,0,0-.51-1h0c-.11-.17-.22-.32-.33-.47h0l-.07-.08h0s0-.16.09-.12a5.56,5.56,0,0,1,1.32,2.35h0v.05h0a24.94,24.94,0,0,1,.37,6h0a5.21,5.21,0,0,1-.95,2.41h0a7.58,7.58,0,0,1-3.52,2.92,12.68,12.68,0,0,1-3.32.6,2.54,2.54,0,0,1-.61.07h-1A.05.05,0,0,1,446.21,228.29Z"/>
            <path class="cls-46" d="M448.87,229.71c-.87-.1.57-.16.77-.12.49-.15,1.14-.27,1.62-.45h0c.29-.15.88-.43,1.19-.56l.71-.37c.34-.22.81-.58,1.13-.82h0c.29-.24.55-.61.83-.87h0l.17-.17h0a3.28,3.28,0,0,0,.48-.63h0v-.09h0c.05-.1.14-.31.18-.41h0c.11-.33.21-.67.3-1h0v-.09h0c.18-.9.4-1.91.5-2.82h0v0h0c0-.6.1-1.21.06-1.76h0v-.05h0a8,8,0,0,0-.76-3.7h0a3.9,3.9,0,0,0-.28-.49h0c-.08-.12-.14-.25-.22-.37h0l-.23-.34h0c0-.79.89,1,1,1.25,1.32,3.28,1.12,8.4-1.4,11.06h0a7.54,7.54,0,0,1-1.67,1.36,11.56,11.56,0,0,1-1.23.59,6,6,0,0,1-3.29.77Z"/>
            <path class="cls-46" d="M478.52,296.29v-.89c19.43,2.86,38.85,1.13,57.64.24C524.35,297.61,494.94,299.67,478.52,296.29Z"/>
          </g>
        </g>
        <path class="cls-47" d="M505.58,313.58c-1.42-4.9-7.06-9.14-7.72-13.79,5.51-21.73,6.47-44.43,9.58-66.64.06-6.19,3.67-12.7-.56-18.15-2.7-2.78,3.55-1.26,5.63-1.63,1.52,0,2.35.29,1.5,1.72-2.86,3.26-1.57,7.23-1.49,11.37.42,7.35-.19,14.76,0,22.12.53,13,.57,25.88,1,38.93C513.78,297.62,517.22,308.88,505.58,313.58Z"/>
        <g class="cls-48">
          <g>
            <path class="cls-44" d="M443.93,227.09c-8.57-3-9.38-14.1-11.27-21.71h0c-.28-1.07-.67-2.6-.93-3.66h0l-.06-.24h0c-.1-.41-.21-.83-.32-1.25h0c-.09-.34-.17-.68-.26-1h0a.45.45,0,0,0-.08-.31h0a1.49,1.49,0,0,0-.11-.4h0c-.5-1.93-1-3.87-1.43-5.81h0c.52-5.72-15.55-41.52-8.4-39.15-.38-2,1.93-4.46,3-1.69,0-1.29,1.64-1.7,1.95-.33-.18-3.61,4-2.58,3.77.54.06-.7.22-1.38.34-2.07h0c1.07-8.16,2.14-7.55,2.93-7.49,1.92,1.62.36,15.74.84,22h0a11.81,11.81,0,0,0,.3,3.4h0c.45,1.67.94,3.33,1.34,5h0a70.18,70.18,0,0,0,2.34,6.91h0C440.78,191.71,468.63,225.76,443.93,227.09Z"/>
            <path class="cls-44" d="M561.43,265.57l.22-.14A1,1,0,0,0,561.43,265.57Zm-69.86,62.64c-.07-1.1.92-2,1.41-3-6.9,6.41-1.84-.92.48-3.2-2.65,3.3-8.34,5.94-3.26-.24-3.88,1.58,1.45-4,2.55-4.56.61-.78,6.67-3.66,4.39-3.24-4,1-7.8.32-2.27-2.79,2.49-.66,5.08-.91,7.49-1.95,7.38-4.46,13.78-10.46,21-15.21h0c7.16-5.72,14.46-10.54,19.28-18.28h0c4.23-7,17.05-16.66,23.72-7.95h0c4,10,3.44,13.09-6.72,17.52a167.78,167.78,0,0,1-16.91,11.58c-10.4,7.71-22.52,12.05-33.46,18.77-6,3.63-10.75,11.09-17.7,12.55Z"/>
          </g>
        </g>
        <g class="cls-49">
          <g>
            <path class="cls-50" d="M490.12,321.88v-.1h0c0-.07.15,0,.17-.09,2.12-1.52,4.13-3.27,6.32-4.64h0c.51-.34,1.05-.69,1.56-1h0c.31-.3.72-.3.17,0a.35.35,0,0,0-.13.08h0c-.51.35-1,.69-1.55,1h-.05C494.33,318.47,492.41,320.5,490.12,321.88Z"/>
            <path class="cls-50" d="M492.4,323.12a47.23,47.23,0,0,1,5-4.15q-2.11,1.92-4.4,3.62h0a1.77,1.77,0,0,0-.31.3h0C492.63,323,492.49,323.29,492.4,323.12Z"/>
            <path class="cls-50" d="M492.78,325.29c0-.07.08-.1.12-.14h0c.82-.73,1.58-1.52,2.41-2.24h0c.47-.41.92-.83,1.38-1.24h0c1.8-1.62,2.33-1.74.2,0h0l-.13.11h0L495.39,323h0C494.51,323.66,493.67,324.9,492.78,325.29Z"/>
            <path class="cls-50" d="M422.6,160v-.76h0a8.65,8.65,0,0,0-.12-1.52h0a21.46,21.46,0,0,0-.52-2.1,1,1,0,0,0-.11-.44h0c-.11-.31-.25-.64-.34-.91h0c0-.07-.11-.16-.09-.24l-.05-.07h0l-.06-.09h0l-.14-.2c0-.09-.15-.28,0-.29m.05,0h0v.07h0a.75.75,0,0,0,.07.12h0l.12.17h0l.06.1h0a7.59,7.59,0,0,1,.51,1.28c.35,1.56.94,3.3.72,4.87C422.47,160.32,421.32,153.38,421.23,153.4Z"/>
            <path class="cls-50" d="M425.25,158.36c-.13-.11.06-.59,0-.77h0v-.15h0v-1.53h0c0-.14,0-.5,0-.54,0-.26,0-.58,0-.84h0a2.49,2.49,0,0,0-.48-1.24h0a10.21,10.21,0,0,0-.53-1.22h0l-.1-.17h0l-.06-.07h0c0,.07-.12.07-.11,0h0v-.08h0v-.05h.07a1.28,1.28,0,0,1,.14.23h0c.05.45.46.92.49,1.4h0a26.91,26.91,0,0,1,.12,4h0v.16h0c0,.21,0,.49,0,.72h-.06Z"/>
            <path class="cls-50" d="M427.18,158.29c0-.11,0-.22,0-.33h0V156.6h0a8.23,8.23,0,0,0-.07-1.65h0c-.15-.74-.36-1.52-.56-2.24h0a4.82,4.82,0,0,0-.36-.87h0v-.13h0s0,0,.07,0h0c.11.69.6,1.78.77,2.76a12.94,12.94,0,0,1,.15,3.87Z"/>
            <path class="cls-50" d="M430,157.29c-.13-.16,0-.67-.05-.91h0V153.8h0a3.77,3.77,0,0,0-.05-.89,1.45,1.45,0,0,0-.1-.62h0l-.06-.14h0v-.06h0l-.05-.06h0c-.12,0-.05-.15.05-.12.4.45.26,1.12.29,1.68a26.89,26.89,0,0,1,0,3.59H430Z"/>
          </g>
        </g>
        <g class="cls-51">
          <path class="cls-52" d="M510,207.4a50.85,50.85,0,0,1-6.49-1.35,21.07,21.07,0,0,0-.46-3.11c3,.52,15.51-.1,15.51-.1l-.51,2.85C515.75,207.37,512.78,207.31,510,207.4Z"/>
        </g>
        <g class="cls-53">
          <g>
            <path class="cls-54" d="M497.05,194.39c-5-.66-2-13.67,1.46-7.92h0a20.25,20.25,0,0,1-.45,7.15h0C497.78,194,497.52,194.45,497.05,194.39Z"/>
            <path class="cls-54" d="M525.56,194.07c-1.44-1-1-7.1-.34-8.72-.32-.7,1.2-.7,1.65-.64,2.6,1.12,2.42,5.7,1,7.76v-.05C527.48,193.29,526.64,194.34,525.56,194.07Z"/>
          </g>
        </g>
        <g class="cls-55">
          <g>
            <path class="cls-44" d="M503.44,172.11l.51-.28-.64.55C503.35,172.29,503.39,172.2,503.44,172.11Z"/>
            <path class="cls-44" d="M509.38,205.87c-31.54-6.45,4.07-63.14,16-21.53C527.44,195.36,522.18,206.88,509.38,205.87Z"/>
            <path class="cls-44" d="M522.33,180.49a1.48,1.48,0,0,1,0-.42c-.44.07-.46-.48-.45-.78a.56.56,0,0,1-.52-.61.71.71,0,0,1-.43-.57.53.53,0,0,1-.2-.29c-.7-.49.06-1.85.86-1.42a.48.48,0,0,1,.39-.07.38.38,0,0,1,.35.1c.86-2.34.15,2.73.26,3.33h0a.36.36,0,0,1-.14.3v.53h0v.06h0c.07,0,.08.12,0,.13S522.34,180.59,522.33,180.49Z"/>
          </g>
        </g>
        <g class="cls-56">
          <path class="cls-57" d="M496.51,185.81a.09.09,0,0,1,0-.1c-.12-1.17.06-2.37,0-3.55h0c-.11-1-.14-2-.15-3h0a1.08,1.08,0,0,0-.05-.38h0c-1.77-1.18-3.75-4.36-1.06-5.68-1-2.57,1.82-6.61,4.63-5,.06-1.62,4.3-4.25,5.07-2,.58-1.95,4.23-3.88,5.74-2,1.54-1.38,4.63-1.86,5.31.62,2-.89,5.22.14,5.07,2.72,3-1.1,7.24,1.8,5.16,5,3.93,1,3.16,4.83-.15,6.12-.21,1.09.34,9.38-1.56,6.61h0c-2.17-2-2.58-5.12-3.15-7.88-1.93.61-17.72,1.83-20.18.8a14.87,14.87,0,0,1-.57,2.18h0C500.07,181.77,498.11,186.09,496.51,185.81Z"/>
        </g>
      </g>
    </g>
    <g class="cls-58">
      <g>
        <g class="cls-59">
          <path class="cls-17" d="M322.48,264.36a.14.14,0,0,1-.11-.06Zm9.45,4.29c-5.57.4-9.51-3.75-13.73-6.68h0l-.09-.08h0c-4.55-4.28-17.91-16.91-10.84-22.47h0a19.7,19.7,0,0,0,1.71-1.83h0a89.12,89.12,0,0,0,10-13.2h0c7.52-14.52,12.5-33.88,30.65-38.4a13.06,13.06,0,0,1,6.09,0c15.81,7.22,12,29.36,10.91,45-.06,19.78-13.29,38.9-34.7,37.66Z"/>
        </g>
        <g class="cls-60">
          <g>
            <path class="cls-61" d="M326.06,236.1h0c2.67-.21,3.08,4,2.95,6.06h0c-.11,4.41-2.39,8.3-4.25,12.2h0a2.06,2.06,0,0,1-.68,1.2h0l-.06.05h0a1.46,1.46,0,0,1-.91.46,23.48,23.48,0,0,0-7.75,5.1h-.05a49.26,49.26,0,0,0-5.86,6.72h0a64.74,64.74,0,0,0-4.67,6.5h0c-.78,1.26-1.53,2.53-2.31,3.79h0c-2.38,2.91,1.39,5.4,3.59,6.85h0c5.38,3.39,10.7,7.11,15.94,10.5h0l.1.07h0c1.13,1-1.24,2.46-1.67,3.53-1.08,1-1,3.42-2.11,3.81-.65-.17-1.28-.38-1.91-.59h0c-1.11-.38-2.16-.93-3.27-1.32-1.28-.43-2.6-.74-3.88-1.19a23.56,23.56,0,0,1-3.72-1.69c-1.12-.56-2.21-1.15-3.32-1.7-4.84-2.19-9.46-4.22-13.05-8h0a31.82,31.82,0,0,1-2-3.17h0a4.74,4.74,0,0,1-.31-1.53h0a17.11,17.11,0,0,1,.28-2.77h0a17.49,17.49,0,0,1,1.35-4.81h0a.35.35,0,0,1,.07-.15h0c.06-.12.11-.23.16-.35h0c1.5-3.19,3.16-6.25,4.67-9.42h0v-.05h0a.22.22,0,0,1,.05-.12h0c.14-.31.28-.63.43-.95h0a65.93,65.93,0,0,1,7.19-10.91h0a64.68,64.68,0,0,1,21.22-16.37,18.55,18.55,0,0,1,2.17-1"/>
            <path class="cls-61" d="M352.89,271.07c-5.72-8.55-9.39-18.65-14.88-27.48h0c-1.24-2-2.38-4-3.76-5.83h0a25.41,25.41,0,0,0-2.07-2.31h0a7,7,0,0,0-1.76-1.26c-.19.48-.49.07-.67-.14,5.66-2.85,12.87-4.92,11.58-14.83l.82.49h0a43.22,43.22,0,0,0,4.41,2.6c3.64,2.14,7.52-.65,7.82,2.69h0c.18.52.35,1.05.57,1.55h0c1.84,7.81,9.13,3.62,8.51,10.19h0c.2,3.41-.59,6.76-1.1,10.11h0c-.48,3.51-.85,7.08-2.26,10.37h0c-.08.21-.17.43-.26.64h0c-.53,1.32-1.1,2.61-1.66,3.92h0a.46.46,0,0,0-.07.16h0l-.42,1h0a27.1,27.1,0,0,1-3,6.2h0l-.09.11h0C354.08,269.74,353.78,271.12,352.89,271.07Z"/>
            <path class="cls-61" d="M390.23,409.29a10.81,10.81,0,0,1-2.51-1.51h0a21.63,21.63,0,0,1-4-4.44h0a19.28,19.28,0,0,1-2.43-6.55c-.89-.64.49-6.08.8-7.26h0c0-.67.82-.83.45,0,1.19-2.78,5.49-.19,7.67,0,1.19.55-.34,2.87-.22,3.95h0c-.15,1.61-.17,3.23-.16,4.85h0a24,24,0,0,0,.28,3.05h0C390.09,402.93,392.41,409,390.23,409.29Z"/>
            <path class="cls-61" d="M328.53,504.29c-.43-.07-.4-.54-.34-.87l-.39-.44c.15-1.27,1.75-1.65,2.24-2.81h0a12.1,12.1,0,0,0,.62-1.25h0c.24-.43,1.35-7.17,1.83-5.08.54-.4,4.62-1.28,4.62-2.58,3.29,1.23,1.31,6.32-.35,8.48h0a7.39,7.39,0,0,1-2.18,1.79h0l-.17.1C332.53,502.56,330.66,504,328.53,504.29Z"/>
            <path class="cls-61" d="M385.47,245h0c2.76,3.25,6.09,5.51,9.24,8.24h0c3,1.55,6.36,6.22,10,3.73a149.22,149.22,0,0,0,16.74-14h0c1-2.58,2.16-5.1,3.08-7.71h0c.4-1.27.55-2.6.9-3.88h0v-.09h0v-.08h0c1.61-3.64,3.2-1.76,2.16,1.36h0a26.57,26.57,0,0,0-.41,3.21h0a3.64,3.64,0,0,0,0,.66h0a1.09,1.09,0,0,0,.07.3h0a.06.06,0,0,0,0,.06h0s.06.07.12.07h.13l.24-.12h0a3,3,0,0,0,.38-.24h0l.1-.07h0c.17-.14.34-.28.5-.43h0c.41-.4.8-.83,1.17-1.27h0l.13-.16h0l.27-.33h0c.7-.88,1.41-1.75,2.11-2.62h0c.22-.28.45-.55.67-.82h0c3.17-4.14,6.73-4.94,2,.57h0a2.7,2.7,0,0,0-.25.34h0c-.09.15-.17.31-.25.47,1.73-1.6,3.2-3.54,5.18-4.84h0c1.28-.65.6,1.24.18,1.73h0c-1,1.55-2.18,3-3.29,4.47h0c.18-.18.34-.37.5-.56h0c.49-.63,4.08-5.49,4.45-3.39h0a5,5,0,0,1-1.1,2.23c.69-.53,1.12.1.82.78h0c-.46,1.75-1.88,2.93-3.09,4.17h0c-3.29,3.15-7.12,5.65-10.42,8.76-9.69,8.11-14.9,23.6-28.79,25.15-11.6-1-18.84-14.71-27.66-19.33-15.5-23.34-2.79-23.32,14.21-6.45"/>
          </g>
        </g>
        <g class="cls-62">
          <g>
            <path class="cls-63" d="M432.5,235.06a25,25,0,0,1,1.64-2.24h0c.1-.16.3-.48.39-.64h0a.06.06,0,0,1,.05-.06,0,0,0,0,1,.07,0v.06h0a31.58,31.58,0,0,1-2,2.85h-.05Z"/>
            <path class="cls-63" d="M434.78,235.47c0-.13.18-.18.25-.28h0c.39-.34.77-.76,1.13-1.13h0c.09-.12.29-.35.39-.46h0v0h0a0,0,0,0,1,0-.05h.07a11,11,0,0,1-1.83,1.91h0A.07.07,0,0,1,434.78,235.47Z"/>
            <path class="cls-63" d="M436,236.74c0-.18.4-.37.5-.51h0l.32-.28h0c.65-.57,1.33-1.3,1.93-1.91h0c.48-.6,1-1.24,1.45-1.88h0l.11-.19h0a.05.05,0,0,1,.06-.05m.05.05c0,.08,0,.18-.07.25a22.27,22.27,0,0,1-4.28,4.61h0c-.06,0-.13-.05-.07-.09h0Z"/>
          </g>
        </g>
        <g class="cls-64">
          <path class="cls-18" d="M324.22,510.45c-1.54-.24-3.63.23-4.8-1,.23-3.18,4.39-5.22,6.79-6.84h0c.51-.29,1-.59,1.53-.87.88-.69,1.73-.59.86.57h0c-.06.15-.12.29-.16.43h0c-.39,2.14,4.08-.1,4.79-.75h0c2.26-1.79,4.4-3.48,5.11-6.46,0,0,8.14-1.88,8.45-.76h0c.14.48.26,1,.4,1.45v-.05c.28,1.48,4,14.42-.15,11.46h0c-1.7-2.08-3.11-4.43-5.25-6.12-1.31.77-2.25,2.09-3.51,3h0c-3,2.76-6.62,5.34-10.77,5.81A18.12,18.12,0,0,1,324.22,510.45Z"/>
        </g>
        <g class="cls-65">
          <path class="cls-18" d="M390.06,404.77v.52h0c-.51,2.41-3.76-1.51-4.18-2.51h0c-1.46-2.78-3.08-5.52-2.53-8.78h0c1.2-3.22-.87-7.93-5.22-7.23h0a35.49,35.49,0,0,1-2,3.42v-.05l-1,1.43v-.05c-.72,1.21-9.7,14.2-4.53,12.36h0c2.43-1.62,4.65-3.62,7.4-4.71.93,1.32,1.24,3,2.07,4.44h0c2.22,6.35,8.44,13,15.59,12.07,1.06-3.43-1.83-7-3.56-9.74h0c-.36-.49-.71-1-1.08-1.48h0c-.74-2.11-.76-1-1,.33"/>
        </g>
        <g class="cls-66">
          <g>
            <g class="cls-67">
              <path class="cls-68" d="M351.3,225.73a16.56,16.56,0,0,1-2.12-.23,8.74,8.74,0,0,1-2.54-1,6.89,6.89,0,0,1-1.41-.63h0c-1.09-.9-3.27-.78-3.68-2.29h0c0-.38-.56-3.53-.09-3.25.21-.19.81.22.94.37h0a21.44,21.44,0,0,0,3.93,3.86h0a7,7,0,0,0,.63.43h0a11.61,11.61,0,0,0,1.16.61c.65.19,1.32.35,2,.48a6.7,6.7,0,0,0,2,0,4.62,4.62,0,0,0,.71-.18c.44-.13.72-.57,1.17-.66.43-.28.76-.05.58.46h0c0,.3-.11.59-.14.89h0a.91.91,0,0,1-.11.42h0C353.67,225.85,352.25,225.65,351.3,225.73Z"/>
            </g>
            <g class="cls-69">
              <path class="cls-68" d="M336.2,209.61c-4-2.38-2.42-9.36,2.55-8.88a2.44,2.44,0,0,1,1.38.28C342.28,200.89,338.9,212.09,336.2,209.61Z"/>
            </g>
            <g class="cls-70">
              <path class="cls-71" d="M332.68,219.87c-4.24-2.49-2.15-8.62,1.15-11,2-1.82,4,.16,2,1.24-2.36,1.1-4.3,4.33-3.42,6.91v-.11c2,4.11,5-1.42,4.46-3.95v.11c.16-1.29-.82-3.16-.54-4.21C339.67,212.22,338.78,222.08,332.68,219.87Z"/>
            </g>
            <g class="cls-72">
              <path class="cls-71" d="M358.3,220.63c-4.24-2.5-2.15-8.63,1.15-11,2-1.82,4,.16,2,1.24-2.36,1.1-4.3,4.33-3.42,6.91v-.11c2,4.11,5-1.42,4.46-3.95v.12c.16-1.3-.55-3.23-.27-4.29C365.56,212.9,364.43,222.83,358.3,220.63Z"/>
            </g>
            <g class="cls-73">
              <path class="cls-61" d="M351.72,224.29c-11.74-2-16.4-11.95-12.6-22.82v.05c1.58-4.93,4.31-10.38,8.78-13.12h0c13.31-4.89,15.93,12.8,14.43,22.25v-.05a16.44,16.44,0,0,1-1.41,5h0c-.78,1.47-1.41,3-2.27,4.45h0a7.94,7.94,0,0,1-3.78,3.59h-.06A8,8,0,0,1,351.72,224.29Z"/>
            </g>
            <g class="cls-74">
              <g>
                <path class="cls-17" d="M355.29,188.63l.11-.09h0Zm-15.7,9.19a23.46,23.46,0,0,1,1.63-3.95h0a7.85,7.85,0,0,1,1.21-2h0l.07-.07h0l.07-.08h0c3.25-4.08,9.21-7.56,13.49-3.49.28-.32,1.56-.16,1.28.07,2.2,1.68,3.29,4.16,4.06,6.77.06.32,1.88,1.06,1.44,1.23.93,1.4-.43,2.89.47,4.32.33.32,1,1.39,0,1.14a26.53,26.53,0,0,1-7.38-12.47,20,20,0,0,1-3.31,4.35h0c-4.13,4-10.35,9.69-16.26,6-.57-.77.52-1.32,1-.89"/>
                <path class="cls-17" d="M356,189a.65.65,0,0,1-.08-.17c-.5-.46.54-.7.44,0h0v.05A.2.2,0,1,1,356,189Z"/>
              </g>
            </g>
            <g class="cls-75">
              <g>
                <g class="cls-76">
                  <path d="M344,289.29c-7.32-.29-15.26-.47-21.85-3.82,1.91-9.69,2.3-19.71,0-29.35,2-5.93,4.8-14.23,2.85-20.06,1.87-1.86,3.72-4.55,6.31-2,10.07,9.93,17.15,23,22.52,35.81a69.6,69.6,0,0,0,8.88-31.32c.43-1.25-1.41-7.17,1-5.88,1.59.21,2,1.11,2.05,2.59,3.09,8.4,10.71,15.22,9.76,24.71-.44,10.76-10.27,17.57-14.36,26.94-1.1,1.67-4.93,1.26-7,1.61C350.78,288.74,347.43,289.52,344,289.29Z"/>
                </g>
                <g class="cls-77">
                  <path class="cls-78" d="M343.43,385.49l.12,1.1C343.51,386.29,343.46,385.69,343.43,385.49ZM323.54,497.71c-1.76-69.93-23-142.88-2.83-211.94-.19-5.34,13.58-.54,18.64-.47,7.22.1,14.06-.74,21.28-.48,3.81-.49,2.92,4.37,3.69,6.78,18.84,58.34,112-41.31,51.76,71.15-6.1,11-10.63,26.54-20.92,33.63-37.76-9.27-13.6-24.79-6.4-47-3.52,0-7.24,1.25-10.83.31-12.72-1.25-20.5-15.25-27.28-22.92-2.53,14.1-7.2,28-7.68,42.4,0,41.07,10.3,81.48,11.29,122.51C352.81,497,329.21,496.3,323.54,497.71Z"/>
                </g>
                <g class="cls-79">
                  <g>
                    <path class="cls-61" d="M337.16,311.75a4.54,4.54,0,0,1-1.22-.76h0c-.27-.24-.6-.46-.86-.69h0a8.6,8.6,0,0,0-.69-.54h0l-.56-.44h0c-.62-.46-1.29-1-1.9-1.48h0a.06.06,0,0,1,0-.06h0l.12.09h0a1.92,1.92,0,0,1,.23.19h.05c.5.41,1.06.8,1.56,1.22h0l.54.42h.05c.19.14.49.37.67.53h0l.13.11h0c.42.32.86.7,1.3,1h.05l.09.06h0c.09.05.27.16.39.13v.06h0Z"/>
                    <path class="cls-61" d="M340.24,311.54a4.47,4.47,0,0,1-.4-.34v-.05h0l-.22-.18h-.06l-.16-.13h0c-.29-.21-.66-.45-.94-.64h0l-.52-.34h-.06c-.61-.37-1.33-.9-1.9-1.31h-.05c-.4-.29-.89-.64-1.27-.94h-.05l-.28-.22h-.08l-.41-.32h0l-.4-.3h-.05a.06.06,0,0,1,0-.06h.05l1.2.92h0c.4.34.91.68,1.35,1h0c.57.42,1.26.92,1.87,1.29h.05c.31.21.82.53,1.13.75H339c.17.12.39.28.56.42h.06l.25.22v.06l.2.16h0l.11.1h0Z"/>
                    <path class="cls-61" d="M341.64,310.83a24.68,24.68,0,0,1-3.26-2.18h0c-.6-.45-1.32-.79-1.93-1.21h-.07l-.21-.13h-.06l-.5-.34h0l-.6-.4H335l-.61-.39h-.12a.08.08,0,0,1,0-.07h.12l.25.16h0c.4.24.85.53,1.23.81h0l.09.07h.14a33.46,33.46,0,0,1,4,2.71h.2l.26.14c.24.12.51.3.75.45h0c.05,0,.23.08.28.11v.07h-.06Z"/>
                    <path class="cls-80" d="M337.16,311.75a4.54,4.54,0,0,1-1.22-.76h0c-.27-.24-.6-.46-.86-.69h0a8.6,8.6,0,0,0-.69-.54h0l-.56-.44h0c-.62-.46-1.29-1-1.9-1.48h0a.06.06,0,0,1,0-.06h0l.12.09h0a1.92,1.92,0,0,1,.23.19h.05c.5.41,1.06.8,1.56,1.22h0l.54.42h.05c.19.14.49.37.67.53h0l.13.11h0c.42.32.86.7,1.3,1h.05l.09.06h0c.09.05.27.16.39.13v.06h0Z"/>
                    <path class="cls-80" d="M340.24,311.54a4.47,4.47,0,0,1-.4-.34v-.05h0l-.22-.18h-.06l-.16-.13h0c-.29-.21-.66-.45-.94-.64h0l-.52-.34h-.06c-.61-.37-1.33-.9-1.9-1.31h-.05c-.4-.29-.89-.64-1.27-.94h-.05l-.28-.22h-.08l-.41-.32h0l-.4-.3h-.05a.06.06,0,0,1,0-.06h.05l1.2.92h0c.4.34.91.68,1.35,1h0c.57.42,1.26.92,1.87,1.29h.05c.31.21.82.53,1.13.75H339c.17.12.39.28.56.42h.06l.25.22v.06l.2.16h0l.11.1h0Z"/>
                    <path class="cls-80" d="M341.64,310.83a24.68,24.68,0,0,1-3.26-2.18h0c-.6-.45-1.32-.79-1.93-1.21h-.07l-.21-.13h-.06l-.5-.34h0l-.6-.4H335l-.61-.39h-.12a.08.08,0,0,1,0-.07h.12l.25.16h0c.4.24.85.53,1.23.81h0l.09.07h.14a33.46,33.46,0,0,1,4,2.71h.2l.26.14c.24.12.51.3.75.45h0c.05,0,.23.08.28.11v.07h0Z"/>
                    <path class="cls-61" d="M339.84,311.2c.07.07.45.49.48.28-2.27-1.87-4.87-3.29-7.12-5.18,1.62,1.77,4.6,3.27,6.62,4.88h0Zm-2.5,1.39c-8.28-1.63-13.6-9.14-21.88-10.79-.27-.2-.42-12.14,4.75-7.35,3.65,3.48,8.77,2.3,13.24,3.65,5.54,2.53,2.76,4.1-1.78,2.26h0c0,4.26,6.25,5.87,9.27,8,1.19.58,3.94,3.49.7,2.42h0v-.05c-.51-.29-1-.6-1.51-.88h0a46.28,46.28,0,0,0-4.41-3h0c-.55-.38-1.13-.75-1.7-1.11,2.17,1.67,5.09,3.45,7.59,5.05,2.2,1.74-.45,1.1-1.56.72,1.21,1.55-2.39.29-2.93.2h0a.07.07,0,0,0,.05-.08c-.15-.07-.3-.13-.42-.2h0a13.86,13.86,0,0,1-1.67-1.27h0c-1.12-.87-2.23-1.76-3.37-2.6-.09,0,0,.12,0,.14a63.9,63.9,0,0,0,5.39,4l-.16-.05c.37.13,1.37.93.4.88Z"/>
                  </g>
                </g>
              </g>
            </g>
          </g>
        </g>
      </g>
    </g>
  </g>
</svg>
