<svg xmlns="http://www.w3.org/2000/svg" viewBox="0 0 104.8 145.72">
  <defs>
    <style>
      g {
        fill: none;
        stroke-width: 4px;
      }

      .cls-1 {
        stroke: #f47521;
      }

      .cls-2 {
        stroke: #0059a5;
      }

      .cls-3 {
        stroke: #c21a81;
      }
    </style>
  </defs>
  <g transform="translate(-253.65 -323.73)">
    <path class="cls-1" d="M301.13,465.52a6,6,0,0,0,8.53.31l.31-.31L347.7,426a28.72,28.72,0,0,0-1.94-41.16c-10.67-9.25-26.58-7.59-36.35,2.67l-3.88,4-3.84-4c-9.78-10.29-25.68-11.95-36.34-2.7a28.74,28.74,0,0,0-2.47,40.58c.17.2.35.39.53.58Z"/>
    <path class="cls-2" d="M302.13,441.52a6,6,0,0,0,8.53.31l.31-.31L348.7,402a28.72,28.72,0,0,0-1.94-41.16c-10.67-9.25-26.58-7.59-36.35,2.67l-3.88,4-3.84-4c-9.78-10.29-25.68-11.95-36.34-2.7a28.74,28.74,0,0,0-2.47,40.58c.17.2.35.39.53.58Z"/>
    <path class="cls-3" d="M302.13,412.52a6,6,0,0,0,8.53.31l.31-.31L348.7,373a28.72,28.72,0,0,0-1.94-41.16c-10.67-9.25-26.58-7.59-36.35,2.67l-3.88,4-3.84-4c-9.78-10.29-25.68-11.95-36.34-2.7a28.74,28.74,0,0,0-2.47,40.58c.17.2.35.39.53.58Z"/>
  </g>
</svg>
