<svg xmlns="http://www.w3.org/2000/svg" viewBox="0 0 490.56 131.88"><defs><style>.cls-1{fill:#333;}.cls-2{fill:#fff;}.cls-3{fill:#dc139c;}.cls-4{fill:#fb8b00;}.cls-5{fill:#0169c9;}</style></defs><g id="Layer_1" data-name="Layer 1"><path class="cls-1" d="M175.59,56.16V87.52h-7.12V56.16H152.19V87.52h-7.1V49h7.1v6.8a6.93,6.93,0,0,1,.64-2.66A7.11,7.11,0,0,1,154.36,51a7.25,7.25,0,0,1,2.23-1.44A7,7,0,0,1,159.3,49h9.17a7,7,0,0,1,2.69.53A7.37,7.37,0,0,1,173.39,51,7.56,7.56,0,0,1,175,53.17a6.27,6.27,0,0,1,.64,2.66,7.51,7.51,0,0,1,.63-2.66A7.05,7.05,0,0,1,177.73,51,7.29,7.29,0,0,1,180,49.56a7,7,0,0,1,2.7-.53h9.19a6.75,6.75,0,0,1,2.76.57,7.15,7.15,0,0,1,2.27,1.51,7.16,7.16,0,0,1,2.08,5V87.52h-7.11V56.16ZM214.44,49V87.52h-7.13V49ZM207,34.22h7.85v7.41H207Zm38.83,46.17V71.47H228.91a7,7,0,0,1-2.78-.55,7.21,7.21,0,0,1-2.27-1.51,7.39,7.39,0,0,1-1.51-2.27,7,7,0,0,1-.55-2.78v-8.2a7,7,0,0,1,.55-2.78,7.15,7.15,0,0,1,1.51-2.27,7.39,7.39,0,0,1,2.27-1.51,6.81,6.81,0,0,1,2.78-.57h22.51v7.13H228.91v8.2h16.87a6.93,6.93,0,0,1,2.77.56,7.21,7.21,0,0,1,2.25,1.52,6.93,6.93,0,0,1,2.11,5v8.92a7.14,7.14,0,0,1-.56,2.8,6.85,6.85,0,0,1-1.55,2.25A7.57,7.57,0,0,1,248.55,87a6.93,6.93,0,0,1-2.77.56h-24V80.39Zm37.5,0V71.47H266.41a7,7,0,0,1-2.79-.55,7.17,7.17,0,0,1-2.26-1.51,7.41,7.41,0,0,1-1.52-2.27,7.21,7.21,0,0,1-.54-2.78v-8.2a7,7,0,0,1,2.06-5,7.34,7.34,0,0,1,2.26-1.51,6.86,6.86,0,0,1,2.79-.57h22.51v7.13H266.41v8.2h16.87a6.93,6.93,0,0,1,2.77.56,7.21,7.21,0,0,1,2.25,1.52,7,7,0,0,1,1.54,2.25,6.85,6.85,0,0,1,.57,2.78v8.92a7,7,0,0,1-.57,2.8,6.83,6.83,0,0,1-1.54,2.25A7.57,7.57,0,0,1,286.05,87a6.93,6.93,0,0,1-2.77.56h-24V80.39ZM305,49V87.52H297.9V49Zm-7.49-14.81h7.85v7.41h-7.85Zm48.88,46.17a7.07,7.07,0,0,1-2.08,5A7.23,7.23,0,0,1,342.11,87a6.93,6.93,0,0,1-2.77.56H320.23a6.93,6.93,0,0,1-2.75-.56,7.37,7.37,0,0,1-2.26-1.52,7.07,7.07,0,0,1-2.08-5V56.16a7,7,0,0,1,.56-2.78,7.18,7.18,0,0,1,1.52-2.27,7.34,7.34,0,0,1,2.26-1.51,6.77,6.77,0,0,1,2.75-.57h19.11a6.77,6.77,0,0,1,2.77.57,7.08,7.08,0,0,1,3.75,3.78,7,7,0,0,1,.56,2.78ZM320.23,56.16V80.39h19.11V56.16ZM388.3,87.52h-7.12V56.16H361.35V87.52h-7.09V49h7.09v6.8a6.93,6.93,0,0,1,.64-2.66,6.94,6.94,0,0,1,3.77-3.61,7,7,0,0,1,2.7-.53h12.72a6.85,6.85,0,0,1,2.78.57,7.29,7.29,0,0,1,2.25,1.51,7,7,0,0,1,1.53,2.27,6.81,6.81,0,0,1,.56,2.78Z"/><path class="cls-1" d="M395.61,32.78V80.37a8.36,8.36,0,0,0,.65,3.26v0A9.23,9.23,0,0,0,398,86.3v0h0a8.93,8.93,0,0,0,2.64,1.79h0a8.56,8.56,0,0,0,3.24.65h19.9a8.36,8.36,0,0,0,3.26-.65h0a8.54,8.54,0,0,0,2.61-1.79,8.31,8.31,0,0,0,1.79-2.66s0,0,0,0a8.05,8.05,0,0,0,.7-3.26V56a8.15,8.15,0,0,0-.7-3.28v0a7.88,7.88,0,0,0-1.76-2.59s0,0,0,0l0,0a7.93,7.93,0,0,0-2.59-1.76v0h0a8,8,0,0,0-3.26-.67H411.11a8.14,8.14,0,0,0-3.18.64,0,0,0,0,1,0,0A8.24,8.24,0,0,0,405.29,50l-.08.1V32.78Zm43.25,0h-1.24v9.93H448V32.78Zm21.53,3V47.66h-9.45v9.63h9.45V80.37a8.52,8.52,0,0,0,.62,3.26l0,0a8.71,8.71,0,0,0,1.81,2.66h0a9.19,9.19,0,0,0,2.64,1.79h0a8.52,8.52,0,0,0,3.24.65H482.7V79.13H470V57.28H482.7V47.66H470V35.75ZM438,47.66v41.1h9.62V47.66Zm-32.77,9.63h17.42V79.13H405.21Z"/></g><g id="Layer_2" data-name="Layer 2"><path class="cls-1" d="M62.81,105.35a2.94,2.94,0,0,1-1.52-.41L24.85,83.67a3,3,0,0,1-1.48-2.61l.18-42.18a3,3,0,0,1,1.51-2.59L61.71,15.36A3,3,0,0,1,63.19,15a2.94,2.94,0,0,1,1.52.41l36.44,21.25a3,3,0,0,1,1.49,2.6l-.19,42.19A3,3,0,0,1,100.94,84L64.3,105A3.07,3.07,0,0,1,62.81,105.35ZM76.3,60a3,3,0,0,1,3,3V84.09l12.34-6.8V48.88L64.14,63.52a3,3,0,0,1-1.41.35,3.11,3.11,0,0,1-.43,0,2.86,2.86,0,0,1-1.07-.32L34.36,49.21V77.29l12.34,6.8V63.16a3,3,0,0,1,1.46-2.57,2.94,2.94,0,0,1,1.54-.43,3,3,0,0,1,1.41.35L63,66.83l11.91-6.47A3,3,0,0,1,76.3,60Z"/><path class="cls-2" d="M63.19,18,99.64,39.22,99.45,81.4,62.81,102.35,26.37,81.08l.18-42.19L63.19,18m-.46,42.9,0-.07,0,.07L31.36,44.22V79.06L49.7,89.17v-26L63,70.24,76.3,63V89.17L94.64,79.06V43.89l-31.91,17M63.19,12a6,6,0,0,0-3,.79L23.58,33.68a6,6,0,0,0-3,5.19l-.18,42.18a6,6,0,0,0,3,5.21l36.44,21.27a6,6,0,0,0,6,0l36.65-21a6,6,0,0,0,3-5.18l.19-42.19a6,6,0,0,0-3-5.21L66.22,12.78a6.06,6.06,0,0,0-3-.81Zm17,46.43,8.49-4.52V75.51L82.3,79V63a6,6,0,0,0-2.15-4.6ZM37.36,75.51V54.21l8.37,4.45a6,6,0,0,0-2,4.5V79l-6.34-3.5Z"/><path class="cls-2" d="M76.3,92.17a3,3,0,0,1-3-3V68l-8.9,4.84a3,3,0,0,1-2.84,0L52.7,68.16v21a3,3,0,0,1-4.45,2.62L29.92,81.68a3,3,0,0,1-1.56-2.62V44.22a3,3,0,0,1,1.46-2.57,3,3,0,0,1,3-.08L62.69,57.5,93.23,41.24a2.93,2.93,0,0,1,1.41-.36,3,3,0,0,1,3,3V79.06a3,3,0,0,1-1.55,2.62L77.75,91.79A3,3,0,0,1,76.3,92.17Z"/><path class="cls-2" d="M94.64,43.89V79.06L76.3,89.17V63L63,70.24,49.7,63.16v26L31.36,79.06V44.22L62.64,60.87l0-.07,0,.07,31.91-17m0-6a6,6,0,0,0-2.82.7L62.69,54.1,34.18,38.92a6,6,0,0,0-8.82,5.3V79.06a6,6,0,0,0,3.11,5.25L46.81,94.42a6,6,0,0,0,8.89-5.25v-16l4.44,2.37a6.06,6.06,0,0,0,2.83.71,5.94,5.94,0,0,0,2.86-.73l4.47-2.42V89.17a6,6,0,0,0,8.9,5.25L97.53,84.31a6,6,0,0,0,3.11-5.25V43.89a6,6,0,0,0-6-6Z"/><path class="cls-3" d="M103.63,82.3a3.1,3.1,0,0,1-1.48-.38,3,3,0,0,1-1.52-2.59l-.39-40.84L64.52,18.32a3,3,0,0,1,0-5.19L80.93,3.42A3,3,0,0,1,82.45,3a3,3,0,0,1,1.48.39l37.16,21A3,3,0,0,1,122.61,27L123,69.61a3,3,0,0,1-1.47,2.61l-16.38,9.67A2.94,2.94,0,0,1,103.63,82.3Z"/><path class="cls-2" d="M82.45,6l37.16,21L120,69.64,103.63,79.3l-.41-42.57L66,15.71,82.45,6m0-6a6.06,6.06,0,0,0-3,.83L63,10.54a6,6,0,0,0,.1,10.39L97.26,40.25l.37,39.11a6,6,0,0,0,3.05,5.17,6,6,0,0,0,6-.06l16.37-9.66a6,6,0,0,0,3-5.22l-.39-42.66a6,6,0,0,0-3-5.17L85.4.78a6,6,0,0,0-3-.78Z"/><path class="cls-4" d="M22.37,82.3a3,3,0,0,1-1.52-.41L4.48,72.22A3,3,0,0,1,3,69.61L3.39,27a3,3,0,0,1,1.53-2.58l37.15-21A3,3,0,0,1,43.55,3a3,3,0,0,1,1.52.42l16.46,9.71a3,3,0,0,1-.05,5.19L25.76,38.49l-.39,40.84a3,3,0,0,1-1.52,2.59A3.1,3.1,0,0,1,22.37,82.3Z"/><path class="cls-2" d="M43.55,6,60,15.71l-37.22,21L22.37,79.3,6,69.64,6.39,27,43.55,6m0-6A6,6,0,0,0,40.6.78l-37.16,21a6,6,0,0,0-3,5.17L0,69.59a6,6,0,0,0,3,5.22l16.37,9.66a6,6,0,0,0,9.05-5.11l.38-39.11L63,20.93a6,6,0,0,0,.1-10.39L46.6.83A6.06,6.06,0,0,0,43.55,0Z"/><path class="cls-5" d="M63.11,128.88a3,3,0,0,1-1.49-.4l-37-21.21a3,3,0,0,1-1.51-2.6L23,85.57A3,3,0,0,1,27.51,83l35.59,20.4L98.41,82.8a3,3,0,0,1,1.51-.4,3.07,3.07,0,0,1,1.49.39,3,3,0,0,1,1.51,2.59l.06,19a3,3,0,0,1-1.49,2.6L64.62,128.47A3,3,0,0,1,63.11,128.88Z"/><path class="cls-2" d="M99.92,85.4l.06,19L63.11,125.88l-37-21.22L26,85.56l37.1,21.25L99.92,85.4m0-6a6,6,0,0,0-3,.81L63.09,99.88,29,80.35a6,6,0,0,0-3-.79,6,6,0,0,0-6,6l.07,19.1a6,6,0,0,0,3,5.19l37,21.22a6.07,6.07,0,0,0,3,.79,5.91,5.91,0,0,0,3-.82L103,109.59a6,6,0,0,0,3-5.2l-.06-19a6,6,0,0,0-6-6Z"/><path class="cls-1" d="M63.19,18,26.55,38.89l-.18,42.19,36.44,21.27L99.45,81.4l.19-42.18ZM94.64,79.06,76.3,89.17V63L63,70.24,49.7,63.16v26L31.36,79.06V44.22L62.64,60.87l0-.07,0,.07,31.91-17Z"/><polygon class="cls-2" points="94.64 43.88 94.64 79.06 76.3 89.17 76.3 63 62.97 70.24 49.7 63.16 49.7 89.17 31.36 79.06 31.36 44.22 62.65 60.87 62.69 60.8 62.73 60.87 94.64 43.88"/><polygon class="cls-3" points="66 15.71 82.45 6 119.61 26.98 120 69.64 103.63 79.3 103.22 36.73 66 15.71"/><polygon class="cls-4" points="60 15.71 43.55 6 6.39 26.98 6 69.64 22.37 79.3 22.78 36.73 60 15.71"/><polygon class="cls-5" points="26.02 85.56 26.09 104.66 63.11 125.88 99.98 104.41 99.92 85.4 63.12 106.81 26.02 85.56"/></g></svg>