<svg width="1000" height="253" viewBox="0 0 1000 253" fill="none" xmlns="http://www.w3.org/2000/svg">
<g clip-path="url(#clip0)">
<path d="M53.6088 145.893L33.3821 168.57V200.174H0V8.21713H33.3821V129.815L86.9119 68.6604H126.931L77.4701 124.719L129.38 200.253H90.8624L53.6088 145.893Z" fill="#222659"/>
<path d="M118.516 134.318C118.516 92.5611 148.856 65.974 182.475 65.974C190.341 65.7868 198.137 67.4818 205.215 70.9176C212.293 74.3535 218.448 79.4308 223.166 85.7267V68.6604H256.548V200.253H223.166V182.436C218.466 188.919 212.268 194.17 205.1 197.74C197.932 201.31 190.007 203.094 182.001 202.939C149.607 202.939 118.516 176.352 118.516 134.318ZM225.181 134.318C225.087 127.102 222.861 120.075 218.784 114.121C214.706 108.167 208.958 103.552 202.263 100.857C195.569 98.1621 188.227 97.5073 181.161 98.9751C174.095 100.443 167.622 103.968 162.555 109.106C157.487 114.245 154.053 120.767 152.684 127.852C151.315 134.938 152.072 142.27 154.861 148.926C157.649 155.583 162.343 161.265 168.354 165.26C174.364 169.254 181.422 171.382 188.638 171.374C193.485 171.391 198.287 170.44 202.761 168.577C207.236 166.714 211.294 163.977 214.697 160.526C218.1 157.075 220.78 152.979 222.581 148.479C224.381 143.979 225.265 139.165 225.181 134.318Z" fill="#222659"/>
<path d="M275.787 68.6604H309.406V85.2527C313.779 79.1537 319.571 74.2113 326.282 70.8524C332.993 67.4935 340.421 65.8191 347.924 65.974C379.252 65.974 399.004 86.4378 399.004 120.808V200.253H364.635V125.943C364.635 107.178 355.628 95.4846 337.85 95.4846C322.048 95.4846 309.801 107.336 309.801 127.642V200.253H275.787V68.6604Z" fill="#222659"/>
<path d="M413.187 134.318C413.187 92.4031 443.409 65.816 477.028 65.816C484.875 65.5852 492.664 67.2363 499.743 70.6315C506.822 74.0267 512.986 79.0672 517.718 85.3317V7.90109H550.863V200.253H517.718V182.199C513.033 188.714 506.843 194.001 499.677 197.612C492.51 201.223 484.578 203.05 476.554 202.939C444.159 202.939 413.187 176.352 413.187 134.318ZM519.852 134.042C519.758 126.827 517.533 119.802 513.457 113.849C509.381 107.896 503.636 103.281 496.943 100.584C490.251 97.8881 482.911 97.2309 475.847 98.6955C468.782 100.16 462.308 103.681 457.239 108.816C452.17 113.95 448.733 120.469 447.36 127.552C445.986 134.635 446.738 141.966 449.52 148.622C452.302 155.279 456.991 160.965 462.996 164.964C469.001 168.963 476.055 171.097 483.27 171.098C488.081 171.093 492.845 170.135 497.285 168.281C501.725 166.426 505.754 163.711 509.14 160.292C512.526 156.873 515.202 152.818 517.013 148.36C518.824 143.902 519.735 139.13 519.694 134.318L519.852 134.042Z" fill="#222659"/>
<path d="M544.266 221.428C567.179 221.428 569.865 218.03 569.865 196.342V68.6604H604.195V196.855C604.195 239.245 591.04 252.874 548.888 252.874H544.266V221.428ZM586.892 9.71832C589.787 9.60543 592.675 10.0958 595.37 11.1584C598.066 12.221 600.511 13.8325 602.551 15.8906C604.59 17.9487 606.179 20.4084 607.217 23.1136C608.255 25.8187 608.72 28.7102 608.581 31.6043C608.343 37.1601 605.968 42.4094 601.953 46.2565C597.937 50.1037 592.591 52.2514 587.03 52.2514C581.469 52.2514 576.123 50.1037 572.108 46.2565C568.093 42.4094 565.718 37.1601 565.48 31.6043C565.355 28.7371 565.82 25.8747 566.846 23.1942C567.871 20.5138 569.436 18.0723 571.443 16.0208C573.45 13.9693 575.857 12.3515 578.514 11.2675C581.171 10.1834 584.023 9.65615 586.892 9.71832Z" fill="#222659"/>
<path d="M640.264 9.71832C643.159 9.60543 646.046 10.0958 648.742 11.1584C651.438 12.221 653.883 13.8325 655.922 15.8906C657.962 17.9487 659.551 20.4084 660.589 23.1136C661.627 25.8187 662.091 28.7102 661.952 31.6043C661.952 37.325 659.68 42.8114 655.635 46.8566C651.589 50.9017 646.103 53.1743 640.382 53.1743C634.662 53.1743 629.175 50.9017 625.13 46.8566C621.085 42.8114 618.812 37.325 618.812 31.6043C618.687 28.7337 619.153 25.8679 620.181 23.1847C621.209 20.5015 622.777 18.0582 624.789 16.0061C626.8 13.9541 629.211 12.3371 631.873 11.2555C634.535 10.1739 637.391 9.65066 640.264 9.71832ZM623.198 68.6604H657.567V200.253H623.198V68.6604Z" fill="#222659"/>
<path d="M826.137 84.6996L824.201 82.0132C811.322 64.4728 769.328 10.6665 733.339 0.829627C732.549 0.645268 731.758 0.487247 730.968 0.355562C726.031 -0.371643 720.999 0.733776 716.821 3.46312C712.643 6.19246 709.61 10.3569 708.292 15.1701C706.852 21.2989 706.934 27.6869 708.529 33.7771C712.875 52.7002 728.282 74.7047 751.511 86.9514L761.98 92.2451C759.867 92.7328 757.783 93.3395 755.738 94.0624C753.407 94.8741 751.158 95.9059 749.022 97.1438C746.496 98.6205 744.563 100.93 743.554 103.676C742.545 106.423 742.523 109.435 743.491 112.195C743.736 112.987 744.081 113.744 744.519 114.447C748.469 121.203 758.346 126.575 770.158 128.353C790.7 131.395 817.051 123.494 828.428 92.5217L829.416 89.0057L826.137 84.6996Z" fill="url(#paint0_linear)"/>
<path d="M880.619 84.5621L882.555 81.8757C895.434 64.3353 937.428 10.529 973.417 0.692145C974.207 0.507786 974.997 0.349765 975.788 0.21808C980.725 -0.509124 985.757 0.596294 989.935 3.32564C994.112 6.05498 997.146 10.2194 998.464 15.0326C999.903 21.1615 999.822 27.5494 998.227 33.6396C993.881 52.5627 978.474 74.5672 955.245 86.8139L944.776 92.1076C946.889 92.5953 948.973 93.202 951.018 93.9249C953.349 94.7367 955.598 95.7684 957.734 97.0063C960.259 98.483 962.193 100.793 963.202 103.539C964.211 106.285 964.233 109.297 963.264 112.058C963.02 112.849 962.675 113.606 962.237 114.31C958.287 121.065 948.41 126.438 936.598 128.216C916.055 131.257 889.705 123.356 878.328 92.3842L877.34 88.8682L880.619 84.5621Z" fill="url(#paint1_linear)"/>
<path d="M880.536 44.325C880.537 46.9242 879.732 49.4598 878.232 51.5825C876.732 53.7051 874.611 55.3103 872.16 56.1767L854.186 62.4975C853.481 62.7354 852.717 62.7354 852.013 62.4975L834.038 56.1767C831.248 55.1941 828.896 53.2558 827.398 50.7051C825.901 48.1543 825.354 45.1558 825.856 42.2408C826.357 39.3257 827.875 36.6823 830.139 34.7789C832.403 32.8754 835.267 31.8348 838.225 31.8413H868.012C871.334 31.8413 874.519 33.1607 876.868 35.5093C879.216 37.8579 880.536 41.0432 880.536 44.3645" fill="#F79C39"/>
<path d="M852.092 50.1719C852.421 50.2943 852.768 50.3611 853.119 50.3694C852.768 50.3611 852.421 50.2943 852.092 50.1719Z" fill="#F99F39"/>
<path d="M859.045 12.6417L853.119 5.41223L847.154 12.6417L837.475 5.41223V24.4143H868.723V5.41223L859.045 12.6417Z" fill="#F79C39"/>
<path d="M895.232 149.093H810.73C810.73 149.686 810.73 150.279 810.927 150.871C811.57 157.34 812.894 163.722 814.878 169.913H890.847C892.983 163.132 894.451 156.159 895.232 149.093Z" fill="#F79C39"/>
<path d="M819.223 180.303C823.917 189.718 831.157 197.629 840.122 203.137C843.243 204.993 849.8 209.3 853.791 208.351C861.07 206.536 867.83 203.059 873.539 198.193C879.249 193.326 883.753 187.203 886.699 180.303H819.223Z" fill="#F79C39"/>
<path d="M895.982 138.703C895.982 131.118 894.442 123.375 887.173 119.425C878.521 114.724 867.025 115.79 857.504 115.83C844.507 115.83 818.789 111.682 812.112 126.852C810.611 130.618 809.898 134.651 810.019 138.703H895.982Z" fill="#F79C39"/>
<path d="M881.602 88.8477C881.602 94.499 879.923 100.023 876.778 104.719C873.634 109.414 869.165 113.07 863.939 115.221C858.713 117.373 852.966 117.924 847.427 116.804C841.888 115.684 836.806 112.944 832.827 108.931C828.847 104.918 826.15 99.8139 825.076 94.2655C824.002 88.7171 824.601 82.9748 826.796 77.7672C828.992 72.5596 832.684 68.1215 837.406 65.0161C842.128 61.9106 847.665 60.2778 853.316 60.3248C857.06 60.3248 860.767 61.0628 864.226 62.4967C867.684 63.9306 870.826 66.0322 873.471 68.6813C876.117 71.3304 878.214 74.4751 879.643 77.9354C881.072 81.3957 881.805 85.1039 881.8 88.8477" fill="#F79C39"/>
</g>
<defs>
<linearGradient id="paint0_linear" x1="768.222" y1="1.33791e-05" x2="768.222" y2="128.906" gradientUnits="userSpaceOnUse">
<stop stop-color="#F48020"/>
<stop offset="1" stop-color="#F9A61A"/>
</linearGradient>
<linearGradient id="paint1_linear" x1="938.534" y1="-0.137468" x2="938.534" y2="128.769" gradientUnits="userSpaceOnUse">
<stop stop-color="#F48020"/>
<stop offset="1" stop-color="#F9A61A"/>
</linearGradient>
<clipPath id="clip0">
<rect width="1000" height="252.874" fill="white"/>
</clipPath>
</defs>
</svg>
