<svg id="Layer_1" data-name="Layer 1" xmlns="http://www.w3.org/2000/svg" viewBox="0 0 410 410"><defs><style>.cls-1{fill:#fff;}.cls-2{fill:#ecaa20;}.cls-3{fill:#004970;}.cls-4{fill:#802628;}.cls-5{fill:#512c1d;}</style></defs><title>kapor-center</title><g id="Layer_2" data-name="Layer 2"><g id="Layer_1-2" data-name="Layer 1-2"><path class="cls-1" d="M4.29,205A38.75,38.75,0,1,1,43,243.75h0A38.75,38.75,0,0,1,4.29,205"/><path class="cls-1" d="M43,247.53A42.53,42.53,0,1,1,85.57,205,42.53,42.53,0,0,1,43,247.53ZM43,170a35,35,0,1,0,35,35A35,35,0,0,0,43,170Z"/><path class="cls-2" d="M33.72,227.53c-.67,0-1.33.1-2,.1a29,29,0,0,1-15.31-4.38,18.7,18.7,0,0,0,29.71,12.52,28.45,28.45,0,0,1-12.39-8.24"/><path class="cls-2" d="M34,197.47c.33,0,.66-.05,1-.05a23.24,23.24,0,0,1,19.52,10.64,24.58,24.58,0,0,0-2-23A23.93,23.93,0,0,0,34,197.47"/><path class="cls-3" d="M28.66,198.35A28.49,28.49,0,0,1,49.23,181a24.69,24.69,0,0,0-36.55,33.13,23.33,23.33,0,0,1,16-15.81"/><path class="cls-3" d="M35.68,222.79a24.69,24.69,0,0,0,16.21-10.14,18.55,18.55,0,0,0-19.8-10.45,23.63,23.63,0,0,0,3.59,20.59"/><path class="cls-4" d="M27.12,203.7a18.79,18.79,0,0,0-10.61,14.13,24.56,24.56,0,0,0,14,5.25,27.88,27.88,0,0,1-3.39-19.38"/><path class="cls-4" d="M56.93,213.1a23,23,0,0,1-2.07,19.62H55a23.9,23.9,0,0,0,2.61-47.65,29,29,0,0,1-.72,28"/><path class="cls-5" d="M54.67,180.47H55A28.45,28.45,0,0,1,81.27,198a39,39,0,0,0-54.93-28.23,29,29,0,0,1,28.33,10.71"/><path class="cls-5" d="M39.15,226.64a23.83,23.83,0,0,0,10.67,5.5,18.29,18.29,0,0,0,3.69-14.32,29.25,29.25,0,0,1-14.34,8.82"/><path class="cls-5" d="M11.78,219.7A29.27,29.27,0,0,1,4.1,207.84a38.77,38.77,0,0,0,10.3,23.63,23.05,23.05,0,0,1-2.68-10.79,6.63,6.63,0,0,1,0-1"/><path class="cls-5" d="M51.51,237a23.2,23.2,0,0,1-13.18,6.7,38.85,38.85,0,0,0,32-11A27.68,27.68,0,0,1,51.51,237"/><path class="cls-5" d="M113.67,207.7l-11.16-13.23-3,3.36v9.91H95.85V178.2h3.66v15.21l13-15.21h4.6l-12.29,14,13.4,15.52Z"/><path class="cls-5" d="M143.27,207.7l-2.61-6.59H126l-2.61,6.59h-4.2l11.9-29.5h4.56l11.89,29.5Zm-10-25.74L127,197.88h12.52Z"/><path class="cls-5" d="M151.1,207.7V178.2H163c5.93,0,9.24,4.07,9.24,8.89S168.83,196,163,196h-8.18V207.7Zm17.29-20.61c0-3.32-2.39-5.62-5.88-5.62h-7.74v11.24h7.74C166,192.71,168.39,190.41,168.39,187.09Z"/><path class="cls-5" d="M175.65,193c0-8.71,5.93-15.26,14.64-15.26S205,184.26,205,193s-6,15.26-14.68,15.26S175.65,201.69,175.65,193Zm25.52,0c0-6.9-4.29-12-10.88-12s-10.84,5.09-10.84,12,4.2,12,10.84,12S201.17,199.83,201.17,193Z"/><path class="cls-5" d="M227.51,207.7,220,196h-5.93V207.7h-3.6V178.2h11.85c5.39,0,9.29,3.45,9.29,8.89a8.18,8.18,0,0,1-7.7,8.58l8,12Zm.27-20.61c0-3.36-2.43-5.62-5.93-5.62h-7.74v11.28h7.74c3.52,0,6-2.34,6-5.66Z"/><path class="cls-5" d="M247.22,193c0-9.07,6.68-15.26,15.17-15.26a13.08,13.08,0,0,1,11.19,5.84l-3.07,1.73a9.93,9.93,0,0,0-8.14-4.29c-6.46,0-11.37,4.91-11.37,12s4.91,12,11.37,12a10,10,0,0,0,8.14-4.32l3.1,1.68a13.27,13.27,0,0,1-11.23,5.88C253.9,208.23,247.22,202,247.22,193Z"/><path class="cls-5" d="M278.1,207.7V178.2h19.33v3.27H281.77V191h15.35v3.27H281.77v10.22h15.66v3.27Z"/><path class="cls-5" d="M323.92,207.7l-17.2-23.53V207.7h-3.67V178.2h3.76l17,23v-23h3.67v29.5Z"/><path class="cls-5" d="M341.44,207.7V181.47h-9.33V178.2h22.4v3.27h-9.4V207.7Z"/><path class="cls-5" d="M359.14,207.7V178.2h19.37v3.27h-15.7V191h15.35v3.27H362.81v10.22h15.7v3.27Z"/><path class="cls-5" d="M401.15,207.7,393.68,196h-5.93V207.7h-3.67V178.2h11.85c5.4,0,9.29,3.45,9.29,8.89a8.18,8.18,0,0,1-7.71,8.58l8,12Zm.27-20.61c0-3.36-2.43-5.62-5.93-5.62h-7.74v11.28h7.76A5.55,5.55,0,0,0,401.42,187.09Z"/><path class="cls-2" d="M95.59,227.2v-10h2.58V225h4v2.25Z"/><path class="cls-2" d="M104.51,227.2v-10h7.33v2.27h-4.75V221h4.65v2.25h-4.65V225h4.75v2.25Z"/><path class="cls-2" d="M117.13,227.2l-3.76-10h2.92l2.48,7.21,2.46-7.21h2.92l-3.77,10Z"/><path class="cls-2" d="M125.94,227.2v-10h7.33v2.27h-4.76V221h4.65v2.25h-4.65V225h4.75v2.25Z"/><path class="cls-2" d="M135.77,227.2v-10h2.58V225h4v2.25Z"/><path class="cls-2" d="M144.74,227.2v-10h2.58v10Z"/><path class="cls-2" d="M157,227.2l-4.23-5.79v5.79h-2.58v-10h2.65l4,5.5v-5.5h2.69v10Z"/><path class="cls-2" d="M161.8,222.2a5.11,5.11,0,0,1,5-5.18h.37a4.68,4.68,0,0,1,4.3,2.44l-2.16,1.13a2.49,2.49,0,0,0-2.12-1.27,2.9,2.9,0,0,0,0,5.79,3.17,3.17,0,0,0,1.85-.6v-.78h-2.27v-2.27h4.83v4a5.76,5.76,0,0,1-4.42,2,5.11,5.11,0,0,1-5.41-4.79A3.85,3.85,0,0,1,161.8,222.2Z"/><path class="cls-2" d="M181.33,227.2v-7.73h-2.82v-2.28h8.17v2.28h-2.77v7.75Z"/><path class="cls-2" d="M195.71,227.2v-4h-4.2v4h-2.58v-10h2.58v3.73h4.15v-3.74h2.58v10Z"/><path class="cls-2" d="M201.13,227.2v-10h7.38v2.27h-4.8V221h4.65v2.25h-4.65V225h4.8v2.25Z"/><path class="cls-2" d="M215.9,227.2v-10h5a3.33,3.33,0,1,1,.52,6.64h-2.91v3.36Zm5.86-6.67a1.11,1.11,0,0,0-1.15-1.07h-2.1v2.15h2a1.11,1.11,0,0,0,1.25-1,.76.76,0,0,0,0-.15Z"/><path class="cls-2" d="M226.51,227.2v-10h2.58V225h4v2.25Z"/><path class="cls-2" d="M242.31,227.2l-.5-1.44h-3.95l-.5,1.44h-2.92l3.77-10h3.3l3.77,10Zm-2.46-7.45-1.28,3.72h2.54Z"/><path class="cls-2" d="M248.73,227.2v-4l-3.79-6h2.91l2.17,3.69,2.14-3.69h2.92l-3.78,6v4Z"/><path class="cls-2" d="M256.87,227.2v-10h2.58v10Z"/><path class="cls-2" d="M269.1,227.2l-4.23-5.79v5.79h-2.58v-10h2.65l4,5.5v-5.5h2.59v10Z"/><path class="cls-2" d="M273.93,222.2a5.11,5.11,0,0,1,5-5.18h.38a4.68,4.68,0,0,1,4.27,2.44l-2.11,1.11a2.49,2.49,0,0,0-2.12-1.27,2.9,2.9,0,0,0,0,5.79,3.14,3.14,0,0,0,1.84-.6v-.78H279v-2.25h4.83v4a5.76,5.76,0,0,1-4.42,2,5.11,5.11,0,0,1-5.45-4.74A4.69,4.69,0,0,1,273.93,222.2Z"/><path class="cls-2" d="M291.22,227.2v-10h7.29v2.27h-4.75V221h4.65v2.25h-4.65v3.94Z"/><path class="cls-2" d="M301,227.2v-10h2.58v10Z"/><path class="cls-2" d="M306.42,227.2v-10h7.33v2.27H309V221h4.65v2.25H309V225h4.75v2.25Z"/><path class="cls-2" d="M316.26,227.2v-10h2.58V225h4v2.25Z"/><path class="cls-2" d="M325.23,227.2v-10h4.2c3.15,0,5.42,1.89,5.42,5s-2.26,5-5.4,5Zm7-5a2.55,2.55,0,0,0-2.37-2.73h-2.05V225h1.62a2.66,2.66,0,0,0,2.77-2.54v-.24Z"/><path class="cls-2" d="M342.07,227.2v-10h2.58v10Z"/><path class="cls-2" d="M354.3,227.2l-4.23-5.79v5.79h-2.56v-10h2.65l4,5.5v-5.5h2.59v10Z"/><path class="cls-2" d="M366.76,227.2v-7.73H364v-2.28h8.17v2.28h-2.79v7.75Z"/><path class="cls-2" d="M374.41,227.2v-10h7.33v2.27H377V221h4.65v2.25H377V225h4.75v2.25Z"/><path class="cls-2" d="M383.78,222.2a5.11,5.11,0,0,1,5-5.18h.38a4.6,4.6,0,0,1,4.37,2.67l-2.22,1.06a2.41,2.41,0,0,0-2.14-1.46,2.9,2.9,0,0,0,0,5.79,2.41,2.41,0,0,0,2.14-1.45l2.22,1a4.66,4.66,0,0,1-4.37,2.69,5.12,5.12,0,0,1-5.41-4.81C383.78,222.41,383.78,222.31,383.78,222.2Z"/><path class="cls-2" d="M402.45,227.2v-4h-4.16v4h-2.58v-10h2.58v3.73h4.16v-3.74H405v10Z"/></g></g></svg>