<?xml version="1.0" encoding="UTF-8"?>
<svg width="167px" height="23px" viewBox="0 0 167 23" version="1.1" xmlns="http://www.w3.org/2000/svg" xmlns:xlink="http://www.w3.org/1999/xlink">
    <!-- Generator: Sketch 51.3 (57544) - http://www.bohemiancoding.com/sketch -->
    <title>logo</title>
    <desc>Created with Sketch.</desc>
    <defs></defs>
    <g id="Symbols" stroke="none" stroke-width="1" fill="none" fill-rule="evenodd">
        <g id="nav/full-glyph" transform="translate(0.000000, -10.000000)" fill="#AA8B2E">
            <g id="logo/glyph/gold" transform="translate(0.000000, 10.000000)">
                <path d="M10.4033089,12.1974308 L18.1459563,12.1974308 L18.1459563,17.7935077 C16.5014458,19.8396231 14.0201774,21.1338154 11.12053,21.1338154 C6.03845632,21.1338154 2.21239842,17.1919692 2.21239842,11.9568154 C2.21239842,6.72166154 6.06834053,2.77981538 11.12053,2.77981538 C12.9443458,2.77981538 15.2867405,3.24335385 17.7592195,5.25143077 L18.8034089,3.77323846 C16.7704037,1.81735385 14.0808247,0.884084615 11.2699511,0.884084615 C4.87297211,0.884084615 8.78947394e-05,5.54777692 8.78947394e-05,11.9267385 C8.78947394e-05,18.3950462 4.93186158,22.9985846 11.0906458,22.9985846 C14.6477458,22.9985846 17.81723,21.4646615 20.0893089,18.5755077 L20.0893089,10.7227769 L10.4033089,10.7227769 L10.4033089,12.1974308 Z" id="Fill-1"></path>
                <polygon id="Fill-4" points="17.7593074 5.25143077 17.7593074 5.25143077 17.6028547 5.47346923"></polygon>
                <path d="M11.1208816,3.23123462 C6.30688684,3.23123462 2.63025,6.99173462 2.63025,11.9570808 C2.63025,16.8905808 6.33765,20.6820423 11.1208816,20.6820423 C13.8113395,20.6820423 16.1133026,19.5081577 17.6971658,17.6133115 L17.6971658,12.6187731 L10.4036605,12.6187731 L10.4036605,14.0925423 L15.7538132,14.0925423 L15.7538132,17.1621577 C14.3492553,18.21485 12.8550447,18.8464654 11.1797711,18.8464654 C7.59278684,18.8464654 4.84256053,15.9281192 4.84256053,11.9570808 C4.84256053,8.13554231 7.47412895,5.21719615 11.1797711,5.21719615 C13.03435,5.21719615 14.8572868,5.96911923 16.3813816,7.20315769 L17.6031184,5.47373462 L17.4616079,5.67365769 C14.7562079,3.57711923 12.8550447,3.23123462 11.1208816,3.23123462" id="Fill-6"></path>
                <polygon id="Fill-8" points="43.5904279 1.45634231 41.4378858 1.45634231 41.4378858 22.5172654 56.2956121 22.5172654 56.2956121 20.6816885 43.5904279 20.6816885"></polygon>
                <polygon id="Fill-10" points="46.2212053 1.45634231 44.0088947 1.45634231 44.0088947 20.2606115 56.2957 20.2606115 56.2957 18.4259192 46.2212053 18.4259192"></polygon>
                <polygon id="Fill-12" points="82.4001732 15.0564192 82.4265416 22.5172654 84.6529153 22.5172654 84.6529153 14.90515 92.4245679 1.45634231 89.9810942 1.45634231"></polygon>
                <polygon id="Fill-14" points="89.3368258 1.45634231 86.9715784 1.45634231 82.1285784 11.1747269 77.2556942 1.45634231 74.75421 1.45634231 82.0986942 14.51415"></polygon>
                <polygon id="Fill-16" points="74.1415837 1.45634231 71.8264363 1.45634231 79.5699626 14.90515 79.5699626 22.5172654 81.8420416 22.5172654 81.8402837 15.0484577"></polygon>
                <path d="M119.381181,1.45634231 L112.116681,1.45634231 L112.116681,22.5172654 L114.269223,22.5172654 L114.269223,3.11145769 L119.351296,3.11145769 C123.296891,3.11145769 125.778159,5.30795769 125.778159,8.73672692 C125.778159,12.1672654 123.296891,14.3036115 119.290649,14.3036115 L114.687602,14.3036115 L114.687602,22.5172654 L116.899912,22.5172654 L116.899912,15.9888038 L119.321412,15.9888038 C124.672444,15.9888038 127.99047,12.8891115 127.99047,8.73672692 C127.99047,4.61530385 124.702328,1.45634231 119.381181,1.45634231" id="Fill-18"></path>
                <path d="M116.899648,12.2276846 L116.899648,5.21710769 L118.902769,5.21710769 C121.981722,5.21710769 123.117322,6.99253077 123.117322,8.7078 C123.117322,10.4221846 122.011606,12.2276846 118.902769,12.2276846 L116.899648,12.2276846 Z M125.360396,8.73699231 C125.360396,5.63818462 123.177969,3.56287692 119.410801,3.56287692 L114.718101,3.56287692 L114.718101,13.8828 L119.410801,13.8828 C123.207854,13.8828 125.360396,11.8057231 125.360396,8.73699231 Z" id="Fill-20"></path>
                <polygon id="Fill-22" points="150.953761 12.6185962 150.953761 22.5174423 153.166072 22.5174423 153.166072 14.4240962 161.386866 14.4240962 161.386866 22.5174423 163.539408 22.5174423 163.539408 12.6185962"></polygon>
                <polygon id="Fill-24" points="163.987847 22.517 166.169395 22.517 166.169395 1.45607692 163.987847 1.45607692"></polygon>
                <polygon id="Fill-26" points="163.539672 12.1974308 163.539672 1.45643077 161.38713 1.45643077 161.38713 10.3919308 153.165456 10.3919308 153.165456 1.45643077 150.954025 1.45643077 150.954025 12.1974308"></polygon>
                <polygon id="Fill-27" points="148.383016 22.517 150.534679 22.517 150.534679 1.45607692 148.383016 1.45607692"></polygon>
            </g>
        </g>
    </g>
</svg>