<svg id="Layer_1" data-name="Layer 1" xmlns="http://www.w3.org/2000/svg" viewBox="0 0 405 85.06"><defs><style>.cls-1{fill:#fff;}.cls-2{fill:#ecaa20;}.cls-3{fill:#004970;}.cls-4{fill:#802628;}.cls-5{fill:#512c1d;}</style></defs><title>kapor-center-wide</title><g id="Layer_2" data-name="Layer 2"><g id="Layer_1-2" data-name="Layer 1-2"><path class="cls-1" d="M4.29,42.5A38.75,38.75,0,1,1,43,81.25h0A38.74,38.74,0,0,1,4.29,42.5" transform="translate(-0.51 0.03)"/><path class="cls-1" d="M43,85A42.53,42.53,0,1,1,85.57,42.5,42.53,42.53,0,0,1,43,85ZM43,7.5a35,35,0,1,0,35,35,35,35,0,0,0-35-35Z" transform="translate(-0.51 0.03)"/><path class="cls-2" d="M33.72,65c-.67,0-1.33.1-2,.1a29,29,0,0,1-15.31-4.38A18.7,18.7,0,0,0,46.12,73.27,28.45,28.45,0,0,1,33.73,65" transform="translate(-0.51 0.03)"/><path class="cls-2" d="M34,35c.33,0,.66,0,1,0A23.24,23.24,0,0,1,54.52,45.56a24.58,24.58,0,0,0-2-23A23.91,23.91,0,0,0,34,35" transform="translate(-0.51 0.03)"/><path class="cls-3" d="M28.66,35.85A28.49,28.49,0,0,1,49.23,18.5,24.69,24.69,0,0,0,12.68,51.63a23.33,23.33,0,0,1,16-15.81" transform="translate(-0.51 0.03)"/><path class="cls-3" d="M35.68,60.29A24.69,24.69,0,0,0,51.89,50.15,18.55,18.55,0,0,0,32.09,39.7a23.63,23.63,0,0,0,3.59,20.59" transform="translate(-0.51 0.03)"/><path class="cls-4" d="M27.12,41.2A18.79,18.79,0,0,0,16.51,55.33a24.56,24.56,0,0,0,14,5.25A27.88,27.88,0,0,1,27.12,41.2" transform="translate(-0.51 0.03)"/><path class="cls-4" d="M56.93,50.6a23,23,0,0,1-2.07,19.62H55a23.9,23.9,0,0,0,2.61-47.65,29,29,0,0,1-.72,28" transform="translate(-0.51 0.03)"/><path class="cls-5" d="M54.67,18H55A28.46,28.46,0,0,1,81.27,35.5,39,39,0,0,0,26.34,7.27,29,29,0,0,1,54.67,18" transform="translate(-0.51 0.03)"/><path class="cls-5" d="M39.15,64.14a23.83,23.83,0,0,0,10.67,5.5,18.29,18.29,0,0,0,3.69-14.32,29.25,29.25,0,0,1-14.34,8.82" transform="translate(-0.51 0.03)"/><path class="cls-5" d="M11.78,57.2A29.27,29.27,0,0,1,4.1,45.34,38.77,38.77,0,0,0,14.4,69a23.05,23.05,0,0,1-2.68-10.79,5.57,5.57,0,0,1,0-1" transform="translate(-0.51 0.03)"/><path class="cls-5" d="M51.51,74.5a23.23,23.23,0,0,1-13.18,6.7,38.85,38.85,0,0,0,32-11,27.65,27.65,0,0,1-18.82,4.3" transform="translate(-0.51 0.03)"/><path class="cls-5" d="M113.67,45.2,102.51,32l-3,3.36v9.91H95.85V15.7h3.66V30.91l13-15.21h4.6l-12.29,14,13.4,15.52Z" transform="translate(-0.51 0.03)"/><path class="cls-5" d="M143.27,45.2l-2.61-6.59H126l-2.61,6.59h-4.2l11.9-29.5h4.56l11.89,29.5Zm-10-25.74L127,35.38h12.52Z" transform="translate(-0.51 0.03)"/><path class="cls-5" d="M151.1,45.2V15.7H163c5.93,0,9.24,4.07,9.24,8.89S168.83,33.5,163,33.5h-8.18V45.2Zm17.29-20.61c0-3.32-2.39-5.62-5.88-5.62h-7.74V30.21h7.74c3.49,0,5.88-2.3,5.88-5.62Z" transform="translate(-0.51 0.03)"/><path class="cls-5" d="M175.65,30.5c0-8.71,5.93-15.26,14.64-15.26S205,21.76,205,30.5s-6,15.26-14.68,15.26S175.65,39.19,175.65,30.5Zm25.52,0c0-6.9-4.29-12-10.88-12s-10.84,5.09-10.84,12,4.2,12,10.84,12S201.17,37.33,201.17,30.5Z" transform="translate(-0.51 0.03)"/><path class="cls-5" d="M227.51,45.2,220,33.5h-5.93V45.2h-3.6V15.7h11.85c5.39,0,9.29,3.45,9.29,8.89a8.18,8.18,0,0,1-7.7,8.58l8,12Zm.27-20.61c0-3.36-2.43-5.62-5.93-5.62h-7.74V30.25h7.74c3.52,0,6-2.34,6-5.66Z" transform="translate(-0.51 0.03)"/><path class="cls-5" d="M247.22,30.5c0-9.07,6.68-15.26,15.17-15.26a13.08,13.08,0,0,1,11.19,5.84l-3.07,1.73a9.93,9.93,0,0,0-8.14-4.29c-6.46,0-11.37,4.91-11.37,12s4.91,12,11.37,12a10,10,0,0,0,8.14-4.32l3.1,1.68a13.25,13.25,0,0,1-11.23,5.88A14.81,14.81,0,0,1,247.22,30.5Z" transform="translate(-0.51 0.03)"/><path class="cls-5" d="M278.1,45.2V15.7h19.33V19H281.77V28.5h15.35v3.27H281.77V42h15.66v3.27Z" transform="translate(-0.51 0.03)"/><path class="cls-5" d="M323.92,45.2l-17.2-23.53V45.2h-3.67V15.7h3.76l17,23v-23h3.67V45.2Z" transform="translate(-0.51 0.03)"/><path class="cls-5" d="M341.44,45.2V19h-9.33V15.7h22.4V19h-9.4V45.2Z" transform="translate(-0.51 0.03)"/><path class="cls-5" d="M359.14,45.2V15.7h19.37V19h-15.7V28.5h15.35v3.27H362.81V42h15.7v3.27Z" transform="translate(-0.51 0.03)"/><path class="cls-5" d="M401.15,45.2l-7.47-11.7h-5.93V45.2h-3.67V15.7h11.85c5.4,0,9.29,3.45,9.29,8.89a8.18,8.18,0,0,1-7.71,8.58l8,12Zm.27-20.61c0-3.36-2.43-5.62-5.93-5.62h-7.74V30.25h7.76a5.55,5.55,0,0,0,5.9-5.18c0-.16,0-.32,0-.48Z" transform="translate(-0.51 0.03)"/><path class="cls-2" d="M95.59,64.7v-10h2.58v7.8h4v2.25Z" transform="translate(-0.51 0.03)"/><path class="cls-2" d="M104.51,64.7v-10h7.33V57h-4.75V58.5h4.65v2.25h-4.65V62.5h4.75v2.25Z" transform="translate(-0.51 0.03)"/><path class="cls-2" d="M117.13,64.7l-3.76-10h2.92l2.48,7.21,2.46-7.21h2.92l-3.77,10Z" transform="translate(-0.51 0.03)"/><path class="cls-2" d="M125.94,64.7v-10h7.33V57h-4.76V58.5h4.65v2.25h-4.65V62.5h4.75v2.25Z" transform="translate(-0.51 0.03)"/><path class="cls-2" d="M135.77,64.7v-10h2.58v7.8h4v2.25Z" transform="translate(-0.51 0.03)"/><path class="cls-2" d="M144.74,64.7v-10h2.58v10Z" transform="translate(-0.51 0.03)"/><path class="cls-2" d="M157,64.7l-4.23-5.79V64.7h-2.58v-10h2.65l4,5.5V54.7h2.69v10Z" transform="translate(-0.51 0.03)"/><path class="cls-2" d="M161.8,59.7a5.11,5.11,0,0,1,5-5.18h.37a4.68,4.68,0,0,1,4.3,2.44l-2.16,1.13a2.49,2.49,0,0,0-2.12-1.27,2.9,2.9,0,0,0,0,5.79A3.17,3.17,0,0,0,169,62v-.78h-2.27V59h4.83v4a5.76,5.76,0,0,1-4.42,2,5.11,5.11,0,0,1-5.41-4.79A3.71,3.71,0,0,1,161.8,59.7Z" transform="translate(-0.51 0.03)"/><path class="cls-2" d="M181.33,64.7V57h-2.82V54.69h8.17V57h-2.77v7.75Z" transform="translate(-0.51 0.03)"/><path class="cls-2" d="M195.71,64.7v-4h-4.2v4h-2.58v-10h2.58v3.73h4.15V54.69h2.58v10Z" transform="translate(-0.51 0.03)"/><path class="cls-2" d="M201.13,64.7v-10h7.38V57h-4.8V58.5h4.65v2.25h-4.65V62.5h4.8v2.25Z" transform="translate(-0.51 0.03)"/><path class="cls-2" d="M215.9,64.7v-10h5a3.33,3.33,0,1,1,.52,6.64h-2.91V64.7ZM221.76,58A1.11,1.11,0,0,0,220.61,57h-2.1v2.15h2a1.11,1.11,0,0,0,1.25-1V58Z" transform="translate(-0.51 0.03)"/><path class="cls-2" d="M226.51,64.7v-10h2.58v7.8h4v2.25Z" transform="translate(-0.51 0.03)"/><path class="cls-2" d="M242.31,64.7l-.5-1.44h-3.95l-.5,1.44h-2.92l3.77-10h3.3l3.77,10Zm-2.46-7.45L238.57,61h2.54Z" transform="translate(-0.51 0.03)"/><path class="cls-2" d="M248.73,64.7v-4l-3.79-6h2.91L250,58.39l2.14-3.69h2.92l-3.78,6v4Z" transform="translate(-0.51 0.03)"/><path class="cls-2" d="M256.87,64.7v-10h2.58v10Z" transform="translate(-0.51 0.03)"/><path class="cls-2" d="M269.1,64.7l-4.23-5.79V64.7h-2.58v-10h2.65l4,5.5V54.7h2.59v10Z" transform="translate(-0.51 0.03)"/><path class="cls-2" d="M273.93,59.7a5.11,5.11,0,0,1,5-5.18h.38A4.68,4.68,0,0,1,283.58,57l-2.11,1.11a2.49,2.49,0,0,0-2.12-1.27,2.9,2.9,0,0,0,0,5.79,3.11,3.11,0,0,0,1.84-.6v-.78H279V59h4.83v4a5.76,5.76,0,0,1-4.42,2A5.12,5.12,0,0,1,274,60.22,4.53,4.53,0,0,1,273.93,59.7Z" transform="translate(-0.51 0.03)"/><path class="cls-2" d="M291.22,64.7v-10h7.29V57h-4.75V58.5h4.65v2.25h-4.65v3.94Z" transform="translate(-0.51 0.03)"/><path class="cls-2" d="M301,64.7v-10h2.58v10Z" transform="translate(-0.51 0.03)"/><path class="cls-2" d="M306.42,64.7v-10h7.33V57H309V58.5h4.65v2.25H309V62.5h4.75v2.25Z" transform="translate(-0.51 0.03)"/><path class="cls-2" d="M316.26,64.7v-10h2.58v7.8h4v2.25Z" transform="translate(-0.51 0.03)"/><path class="cls-2" d="M325.23,64.7v-10h4.2c3.15,0,5.42,1.89,5.42,5s-2.26,5-5.4,5Zm7-5A2.55,2.55,0,0,0,329.87,57h-2.06V62.5h1.62A2.65,2.65,0,0,0,332.2,60v-.24Z" transform="translate(-0.51 0.03)"/><path class="cls-2" d="M342.07,64.7v-10h2.58v10Z" transform="translate(-0.51 0.03)"/><path class="cls-2" d="M354.3,64.7l-4.23-5.79V64.7h-2.56v-10h2.65l4,5.5V54.7h2.59v10Z" transform="translate(-0.51 0.03)"/><path class="cls-2" d="M366.76,64.7V57H364V54.69h8.17V57h-2.79v7.75Z" transform="translate(-0.51 0.03)"/><path class="cls-2" d="M374.41,64.7v-10h7.33V57H377V58.5h4.65v2.25H377V62.5h4.75v2.25Z" transform="translate(-0.51 0.03)"/><path class="cls-2" d="M383.78,59.7a5.11,5.11,0,0,1,5-5.18h.38a4.6,4.6,0,0,1,4.37,2.67l-2.22,1.06a2.41,2.41,0,0,0-2.14-1.46,2.9,2.9,0,0,0,0,5.79,2.41,2.41,0,0,0,2.14-1.45l2.22,1a4.66,4.66,0,0,1-4.37,2.69A5.12,5.12,0,0,1,383.75,60,1.05,1.05,0,0,0,383.78,59.7Z" transform="translate(-0.51 0.03)"/><path class="cls-2" d="M402.45,64.7v-4h-4.16v4h-2.58v-10h2.58v3.73h4.16V54.69H405v10Z" transform="translate(-0.51 0.03)"/></g></g></svg>