<svg viewBox="0 0 275 99.64" xmlns="http://www.w3.org/2000/svg"><path d="m82.78 79.84-17.88-30.06 17.88-30.07 8.62 30.07zm-39.78-2.93-22.47-22.28h35.75l17.88 30.07zm0-54.36 31.08-7.79-17.89 30.07h-35.75zm45.64-22.55-40.64 10.54-6 10.36-12.19-.09-29.81 28.97 29.79 29 12.21-.13 6 10.35 40.64 10.64 10.91-39.51-6.14-10.26 6.14-10.27zm92.22 29.24a13.13 13.13 0 0 0 -11.86 6.51h-.18v-5.41h-9.53v39.79h9.71v-22.55c0-5.41 3.39-9.17 8.07-9.17 4.4 0 7.7 2.66 7.7 7.33v24.48h9.72v-26c.12-8.75-5.38-14.98-13.63-14.98zm-36.3 24.11c0 5.32-3 9-8 9-4.49 0-7.33-2.57-7.33-7.24v-24.77h-9.72v26.58c0 8.71 4.95 14.39 13.84 14.39 5.59 0 8.71-2.11 11.37-5.78h.28v4.68h9.35v-39.87h-9.72v23h-.09zm55.18-23h9.72v39.78h-9.72zm0-12.37h9.72v8h-9.72zm64.81 12.38-5.77 18a78.85 78.85 0 0 0 -2.3 8.64h-.27s-1.28-5-2.57-8.71l-6.51-18h-10.45l10.73 28.33c2.29 6.05 3 8.62 3 10.82 0 3.3-1.74 5.41-5.87 5.41h-3.76v8.34h6.22c8.07 0 10.91-3.21 13.93-12l14-40.79h-10.38zm-36.94 28.12v-21.08h6.23v-7h-6.23v-12.4h-9.72v12.34h-5.5v7h5.5v23.34c0 7.52 5.68 9.53 10.82 9.53a41.91 41.91 0 0 0 5.29-.21v-7.7h-2.48c-2.29.09-3.94-.92-3.94-3.85z" fill="#000000"/></svg>