<svg xmlns="http://www.w3.org/2000/svg" viewBox="0 0 517.1 660.14"><defs><style>.cls-1{fill:#f9d82c;}.cls-1,.cls-2,.cls-3,.cls-4,.cls-5{stroke:#fff;}.cls-1,.cls-2,.cls-3,.cls-4,.cls-5,.cls-6{stroke-miterlimit:10;}.cls-1,.cls-2{stroke-width:4.56px;}.cls-2{fill:#ebbeaa;}.cls-3{stroke-width:4.45px;}.cls-4{fill:#ffd2df;stroke-width:5.18px;}.cls-5{fill:#bcbec0;stroke-width:4px;}.cls-6{fill:none;stroke:#fbb040;stroke-linecap:round;stroke-width:9.11px;}</style></defs><g id="Layer_7" data-name="Layer 7"><path class="cls-1" d="M151.5,511.28c2,1.21,3.95,2.36,5.93,3.44a4.45,4.45,0,0,1,.37-1C155.71,512.87,153.61,512.05,151.5,511.28Z"/><path class="cls-1" d="M462.9,217.84c-1.46-4.18-7.46-18.76-21.26-22.07-2.16-.51-9-2.14-15.85,1.58A19.27,19.27,0,0,0,421,201a5.47,5.47,0,0,1-9.11-2.34c-3.8-12.87-10.32-22.16-18.51-23.94-4.93-1.06-11.43.38-16.68,1.55a76.65,76.65,0,0,0-10.14,3,5.44,5.44,0,0,1-7.32-5c-.43-16.06-8.86-30.29-21.94-36.72-13.88-6.82-27.84-2.33-32.08-.7a5.38,5.38,0,0,0-1.58.94L10,388.93a5.45,5.45,0,0,0,2.66,9.52l162.94,26.69a5.45,5.45,0,0,1,4.06,7.67q-15.14,32.43-30.26,64.84c17,7.42,38.13,17.34,56.13,27.54,2.24,1.21,4.46,2.43,6.66,3.69,1.25.68,2.5,1.35,3.74,2,21.32,11.14,43.1,22,63.55,34.84l29.6-58.78a5.45,5.45,0,0,1,8.89-1.22L435.27,634.2a5.45,5.45,0,0,0,9.46-3.43q9.22-205.45,18.46-410.9A5.58,5.58,0,0,0,462.9,217.84Z"/></g><g id="Layer_6" data-name="Layer 6"><path class="cls-2" d="M321.06,125.07a5.44,5.44,0,0,0,3.24,9.51c1.27.08,2.58.21,3.93.43a46,46,0,0,1,11.63,3.6c10,5,16.88,18.93,18.52,36.3a5.45,5.45,0,0,0,7.41,4.57,67.46,67.46,0,0,1,10.94-3.26c5.88-1.21,13-2.68,19-.86,8.14,2.45,14.25,10.86,17.55,21.87a5.45,5.45,0,0,0,8.73,2.61,20.89,20.89,0,0,1,3.79-2.49,25,25,0,0,1,10.33-2.42c6.5,0,13.24,4,18.91,10.62a5.47,5.47,0,0,0,9.56-3.18L473.11,98.7a5.42,5.42,0,0,0-3-5.32L401,59a5.44,5.44,0,0,0-6,.8Z"/></g><g id="Layer_3" data-name="Layer 3"><path class="cls-3" d="M467.36,1.3a5.44,5.44,0,0,1,8.95,4.43l-1.9,38.62L472.3,87.18a5.44,5.44,0,0,1-7.85,4.61L435.28,77.35,406.11,62.91a5.45,5.45,0,0,1-1.09-9l32.77-27.63Z"/></g><g id="Layer_11" data-name="Layer 11"><rect class="cls-4" x="117.89" y="513.42" width="143.44" height="115.71" rx="5.67" transform="translate(295.18 -21.31) rotate(28.46)"/></g><g id="Layer_10" data-name="Layer 10"><path class="cls-5" d="M156.14,475.13a5.34,5.34,0,0,0-6.78,1.73,5.08,5.08,0,0,0-.64,1.4,5.27,5.27,0,0,0,.18,3.42,5.19,5.19,0,0,0,2.44,2.7L282.26,554.8a5.41,5.41,0,0,0,1.74.58c2.4.36,6.14.6,7.28-1.27,1.47-2.4-1.55-7.74-3.52-8.78C274.9,538.56,195.26,493.82,156.14,475.13Z"/><path class="cls-5" d="M162.35,461.71a5.31,5.31,0,0,0-6.44,1.35,5.24,5.24,0,0,0-.95,1.83,5.28,5.28,0,0,0,2.62,6.14l131.6,70.78a5.15,5.15,0,0,0,1.73.59c2.42.36,6.19.6,7.33-1.28,1.47-2.42-1.56-7.78-3.54-8.83C281.77,525.49,201.65,480.48,162.35,461.71Z"/><path class="cls-5" d="M167.54,450.61a5.23,5.23,0,0,0-7.41,3.2,5.41,5.41,0,0,0,.19,3.47,5.27,5.27,0,0,0,2.44,2.7L294.9,531.05a5.41,5.41,0,0,0,1.74.58c2.42.37,6.21.61,7.36-1.28,1.48-2.43-1.57-7.81-3.56-8.86C287.46,514.65,207,469.45,167.54,450.61Z"/></g><g id="Layer_12" data-name="Layer 12"><line class="cls-6" x1="303.71" y1="217.27" x2="149.67" y2="387.5"/><line class="cls-6" x1="372.08" y1="470.94" x2="410.97" y2="274.4"/><line class="cls-6" x1="360.98" y1="255.95" x2="247.74" y2="455.67"/></g></svg>
