<svg id="Layer_2" data-name="Layer 2" xmlns="http://www.w3.org/2000/svg" viewBox="0 0 707.89 787.76"><defs><style>.cls-1{fill:#b5aea4;}.cls-2{fill:#f2e8dc;}.cls-3{fill:#fbb05c;}.cls-10,.cls-11,.cls-12,.cls-13,.cls-14,.cls-15,.cls-17,.cls-19,.cls-20,.cls-21,.cls-22,.cls-3,.cls-4,.cls-5,.cls-6,.cls-7,.cls-8,.cls-9{stroke:#000;}.cls-10,.cls-11,.cls-12,.cls-13,.cls-14,.cls-15,.cls-17,.cls-18,.cls-19,.cls-20,.cls-21,.cls-22,.cls-25,.cls-26,.cls-27,.cls-28,.cls-29,.cls-3,.cls-30,.cls-31,.cls-4,.cls-5,.cls-6,.cls-7,.cls-8,.cls-9{stroke-miterlimit:10;}.cls-20,.cls-3{stroke-width:3.38px;}.cls-18,.cls-20,.cls-21,.cls-22,.cls-25,.cls-26,.cls-27,.cls-28,.cls-29,.cls-30,.cls-4,.cls-5,.cls-6,.cls-7{fill:none;}.cls-14,.cls-18,.cls-19,.cls-20,.cls-21,.cls-22,.cls-28,.cls-30,.cls-4,.cls-5,.cls-6,.cls-7{stroke-linecap:round;}.cls-4{stroke-width:4.39px;}.cls-5{stroke-width:4.41px;}.cls-6{stroke-width:3.96px;}.cls-7{stroke-width:3.92px;}.cls-8{fill:#cfd1d2;}.cls-8,.cls-9{stroke-width:3.77px;}.cls-24,.cls-9{fill:#8bb2e7;}.cls-10{fill:#cc664b;}.cls-10,.cls-11,.cls-12{stroke-width:2.61px;}.cls-11{fill:#f5ee74;}.cls-12{fill:#619f61;}.cls-13{fill:#eff0f0;stroke-width:3.35px;}.cls-14{fill:#dcbfae;}.cls-14,.cls-15,.cls-17,.cls-18,.cls-19{stroke-width:2.25px;}.cls-15{fill:#edd86b;}.cls-16{fill:#f0d3dd;}.cls-17{fill:#babcbe;}.cls-18{stroke:#f1a65e;}.cls-21{stroke-width:4px;}.cls-22{stroke-width:3.97px;}.cls-23{fill:#fff;}.cls-25,.cls-26,.cls-27,.cls-31{stroke:#333;}.cls-25,.cls-29{stroke-width:2.38px;}.cls-26{stroke-width:2.08px;}.cls-27{stroke-width:2.25px;}.cls-28,.cls-30{stroke:#fbb05c;}.cls-28{stroke-width:5.36px;}.cls-29{stroke:#211f20;}.cls-30{stroke-width:4.07px;}.cls-31{fill:#454546;stroke-width:1.12px;}</style></defs><rect class="cls-1" x="44.03" y="142.53" width="178.9" height="153.55" rx="12" transform="translate(-23.06 15.82) rotate(-6.24)"/><path class="cls-1" d="M655.7,186.13a61.3,61.3,0,0,0-2.61-6.88c-14.87-33.36-55.37-47.7-90.46-32.05a71.8,71.8,0,0,0-30.11,25,53.84,53.84,0,0,0-79.66,66.51,54.33,54.33,0,0,0,13.69,18.65c-5.76,13.12-6.46,27.42-.76,40.2,10.71,24,40.4,34.75,70.12,27.12,8.62,13.37,24.51,19.47,38.08,14,18.17,10.82,39.93,13.25,59.29,4.61,29.71-13.25,43.8-48.15,35-82.06a30.83,30.83,0,0,0,12-2.68c17.34-7.73,24.37-29.73,15.72-49.14C688.49,192.42,671.45,183.05,655.7,186.13Z"/><circle class="cls-1" cx="662.75" cy="341.83" r="7.15"/><path class="cls-1" d="M291.87,771,204.56,652.17a12,12,0,0,1,2.57-16.78l65.79-48.33a12,12,0,0,1,16.77,2.57L377,708.5a12,12,0,0,1-2.57,16.77L308.64,773.6"/><path class="cls-2" d="M301.35,771,214,652.17a12,12,0,0,1,2.57-16.78l65.79-48.33a12,12,0,0,1,16.77,2.57L386.48,708.5a12,12,0,0,1-2.56,16.77l-65.8,48.33"/><path class="cls-3" d="M157,601.08c-13.5-6-53.57-26.73-79.53-73a171,171,0,0,1-21-97.29l-43-28.43,89.94-57.19a.48.48,0,0,1,.68.18l48.21,92.8a.41.41,0,0,1-.38.6c-12.45-.37-30.2-3-42.51-3.29-1.92,8.81-3,37.73,12.4,68.74,18.54,37.44,53.29,50.15,60.39,52.57Z"/><path class="cls-4" d="M159.27,601.26l35.9-18.57.14-.14,15.54-37.67a.16.16,0,0,0-.21-.22L182,557.86l-.14.13-23.44,42.39A.64.64,0,0,0,159.27,601.26Z"/><path class="cls-5" d="M210.65,543.68c-6.81-.17-45.82-3.48-71.79-35.72-20-24.84-21.89-61.29-22.62-70.2"/><line class="cls-6" x1="169.01" y1="550.1" x2="188.62" y2="539.96"/><line class="cls-6" x1="164.66" y1="590.27" x2="198.24" y2="572.9"/><line class="cls-6" x1="172.73" y1="574.69" x2="205.47" y2="557.75"/><line class="cls-6" x1="154.98" y1="542.49" x2="171.98" y2="533.69"/><line class="cls-6" x1="142.34" y1="531" x2="156" y2="523.93"/><line class="cls-6" x1="131.62" y1="518.51" x2="141.82" y2="513.24"/><line class="cls-6" x1="123.32" y1="504.76" x2="132.9" y2="499.81"/><line class="cls-6" x1="116.33" y1="488.71" x2="124.88" y2="484.29"/><line class="cls-6" x1="112.36" y1="471.92" x2="120.51" y2="467.71"/><line class="cls-6" x1="109.18" y1="455.5" x2="117.1" y2="451.41"/><line class="cls-6" x1="113.66" y1="362.68" x2="129.9" y2="360.07"/><line class="cls-6" x1="122.47" y1="380.11" x2="138.82" y2="376.93"/><line class="cls-6" x1="134.06" y1="402.11" x2="149.27" y2="397.52"/><line class="cls-6" x1="145.23" y1="421.05" x2="158.82" y2="415.98"/><path class="cls-7" d="M152.71,438.59l-46.42-89.73c-.6-1.17-3.32-3.44-2.21-3.5,5.36-.29,12.69.46,18.2.15a1.12,1.12,0,0,1,1.07.61c10.48,20.11,22.89,44.07,42.63,83a.46.46,0,0,1-.13.59c-3.76,2.85-9.23,6.46-13.14,8.92"/><path class="cls-8" d="M39.64,143.19H207.18a2.45,2.45,0,0,1,2.45,2.45v25.08a0,0,0,0,1,0,0H37.19a0,0,0,0,1,0,0V145.64A2.45,2.45,0,0,1,39.64,143.19Z" transform="translate(-16.34 14.35) rotate(-6.24)"/><path class="cls-9" d="M45.25,170.28H217.69a0,0,0,0,1,0,0V287.63a3.25,3.25,0,0,1-3.25,3.25h-166a3.25,3.25,0,0,1-3.25-3.25V170.28A0,0,0,0,1,45.25,170.28Z" transform="matrix(0.99, -0.11, 0.11, 0.99, -24.3, 15.67)"/><ellipse class="cls-10" cx="49.41" cy="165.4" rx="5.41" ry="5.9" transform="translate(-17.7 6.36) rotate(-6.24)"/><ellipse class="cls-11" cx="64.83" cy="163.72" rx="5.41" ry="5.9" transform="translate(-17.42 8.02) rotate(-6.24)"/><ellipse class="cls-12" cx="80.64" cy="161.99" rx="5.41" ry="5.9" transform="translate(-17.14 9.73) rotate(-6.24)"/><rect class="cls-13" x="94.65" y="147.87" width="106.54" height="12.49" rx="3.21" transform="matrix(0.99, -0.11, 0.11, 0.99, -15.88, 17)"/><polyline class="cls-14" points="310.53 655.94 305.67 693.96 313.98 688.03 336.19 672.18"/><path class="cls-15" d="M391.75,572.68,337,671.54c-1.9,2.08-4.47,2.86-6.37,1.71s-2.57-3.88-1.8-6.66l-.62-.37c-1.9,2.09-4.48,2.86-6.38,1.71s-2.56-3.88-1.79-6.65l-1.41-.85c-1.9,2.08-4.47,2.86-6.38,1.71s-2.09-4.4-2.1-4.62a7,7,0,0,1,.31-2q27-49.69,53.92-99.39Z"/><path class="cls-16" d="M397.17,567.13,367.6,549.25l8.27-15.08a1.05,1.05,0,0,1,1.46-.44l27.74,16.78a1.16,1.16,0,0,1,.37,1.54Z"/><path class="cls-17" d="M391.74,574.53l-27.63-16.71a1.94,1.94,0,0,1-.62-2.58l4-7.36a1.74,1.74,0,0,1,2.43-.73l27.63,16.71a1.94,1.94,0,0,1,.62,2.58l-4,7.36A1.74,1.74,0,0,1,391.74,574.53Z"/><path class="cls-18" d="M322.22,654.67,367.63,573"/><path class="cls-18" d="M333.94,661.11l43.9-81.42"/><polygon class="cls-19" points="307.11 692.39 307.35 687.09 307.58 681.78 311.57 684.17 315.56 686.56 311.33 689.47 307.11 692.39"/><path class="cls-3" d="M230.12,47.52C241.64,38.29,277.5,12,330.51,10.17a171.19,171.19,0,0,1,96.1,26l45-25.17q4.75,53.07,9.53,106.16a.48.48,0,0,1-.48.52l-104.57.24a.41.41,0,0,1-.36-.61c6-10.9,16.5-25.47,22.44-36.26C391.22,75.26,366,61.07,331.4,60.48c-41.77-.71-69,24.33-74.43,29.53Z"/><path class="cls-4" d="M228,49.23l0,40.42.06.19,26.33,31.09a.16.16,0,0,0,.3-.09l1.42-31.49-.06-.19-26.9-40.28A.64.64,0,0,0,228,49.23Z"/><path class="cls-5" d="M255.56,121.31c3.27-6,24.12-39.11,64.68-47.39C351.49,67.54,384.74,82.61,393,86"/><line class="cls-6" x1="268.96" y1="81.83" x2="268.97" y2="103.44"/><line class="cls-6" x1="235.27" y1="59.07" x2="235.29" y2="96.87"/><line class="cls-6" x1="245.41" y1="73.38" x2="245.43" y2="110.25"/><line class="cls-6" x1="282.17" y1="72.39" x2="282.18" y2="91.53"/><line class="cls-6" x1="298.18" y1="66.44" x2="298.19" y2="81.81"/><line class="cls-6" x1="314.19" y1="62.76" x2="314.19" y2="74.13"/><line class="cls-6" x1="330.21" y1="61.35" x2="330.22" y2="72.37"/><line class="cls-6" x1="347.68" y1="62.74" x2="347.69" y2="72.36"/><line class="cls-6" x1="364.42" y1="66.12" x2="364.42" y2="76.1"/><line class="cls-6" x1="380.47" y1="71.63" x2="380.47" y2="80.55"/><line class="cls-6" x1="460.88" y1="118.21" x2="455.75" y2="133.83"/><line class="cls-6" x1="441.36" y1="118.04" x2="436.68" y2="134.03"/><line class="cls-6" x1="416.48" y1="118.23" x2="413.59" y2="133.86"/><line class="cls-6" x1="394.53" y1="119.47" x2="392.81" y2="133.87"/><path class="cls-7" d="M375.52,118.06l101,0c1.32,0,4.58-1.38,4.12-.36-2.19,4.89-6.23,11.06-8.48,16.1a1.12,1.12,0,0,1-1,.67c-22.68.08-49.66.11-93.28-.2a.47.47,0,0,1-.46-.38c-.8-4.65-1.5-11.17-1.89-15.78"/><path class="cls-20" d="M663,424.9c2,10.53,5.72,22.88,7.75,33.41-.46,15.71-5.22,44.89-24.4,77.18-27.53,46.31-77.66,60-91.59,65.3"/><line class="cls-21" x1="473.32" y1="594.51" x2="469.58" y2="610.56"/><line class="cls-21" x1="492.18" y1="605.71" x2="487.85" y2="621.84"/><line class="cls-21" x1="511.9" y1="618.34" x2="506.22" y2="633.19"/><line class="cls-21" x1="530.34" y1="631.17" x2="524.28" y2="644.35"/><path class="cls-22" d="M547.61,640.17l-87.8-54.24c-1.14-.71-3.26-3.62-3.39-2.52-.66,5.35-.39,12.76-1.09,18.25a1.17,1.17,0,0,0,.55,1.13c19.67,12.24,43.12,26.73,81.2,49.87a.47.47,0,0,0,.6-.08c3.14-3.53,7.17-8.7,9.93-12.41"/><line class="cls-6" x1="565.26" y1="582.39" x2="563.82" y2="595.96"/><line class="cls-6" x1="632.68" y1="529.69" x2="634.74" y2="551.72"/><line class="cls-6" x1="661.24" y1="451.47" x2="668.28" y2="477.88"/><path class="cls-3" d="M661.68,424.52l.25.24c.7,15.06,1.3,61.53-28.63,104.37-26.92,38.56-63,54.26-77.82,59.72a1.23,1.23,0,0,0-.81,1c-2.83,23.51-4,33-5.82,48.42a1.28,1.28,0,0,1-2,.89L457.1,583a1.78,1.78,0,0,1-.53-2.58l60.61-80.59c.16-.2-.11-.23,0,0,5.23,11.18,12,26.74,17.26,38.07a1.32,1.32,0,0,0,1.53.74c9.79-2.54,35.24-13.87,55.55-39.87,24.07-30.82,21.53-65.59,20.3-75.62a1.26,1.26,0,0,1,1.33-1.4Z"/><line class="cls-6" x1="579.57" y1="578.06" x2="578.14" y2="591.63"/><line class="cls-6" x1="596.87" y1="567.34" x2="595.76" y2="582.72"/><line class="cls-6" x1="615" y1="552.22" x2="615.55" y2="570.17"/><line class="cls-6" x1="656.83" y1="478.84" x2="662.28" y2="499.28"/><line class="cls-6" x1="647.53" y1="504.52" x2="650.9" y2="527.29"/><path class="cls-2" d="M654.77,182.63a62.38,62.38,0,0,0-2.59-6.83c-14.76-33.08-54.79-47.37-89.42-31.92a70.54,70.54,0,0,0-29.7,24.7,53,53,0,0,0-51.89-5c-26.82,12-38.77,43.63-26.67,70.73a53.88,53.88,0,0,0,13.55,18.51c-5.67,13-6.33,27.16-.68,39.84,10.62,23.8,40,34.52,69.31,27,8.54,13.26,24.25,19.34,37.64,13.91,18,10.76,39.47,13.21,58.58,4.68,29.32-13.08,43.19-47.64,34.45-81.26a30.32,30.32,0,0,0,11.88-2.63c17.12-7.64,24-29.42,15.44-48.67C687.17,188.92,670.32,179.6,654.77,182.63Z"/><path class="cls-23" d="M579,194.84c23.34,3.16,39.63,23.3,36.38,45-1.73,11.54-7.69,21.55-17.15,27.63a8.2,8.2,0,0,0-3.51,4.79l-1.94,7.39c0,.2-.09.41-.14.61a6.39,6.39,0,0,1-7.28,4.71l-8.13-1.1.22-1.64a81,81,0,0,1,1.17-30c.87-3.83,1.24-6.43,2.14-9.62,6.44-.42,13.07-2,15.35-6.14,1.43-2.6,0-7.26-3.27-8.15-1.85-.52-4.46.32-6.36,2.09a19.06,19.06,0,0,0-5.54,11.25,3.61,3.61,0,0,1-.12.72,1.12,1.12,0,0,0-.06.23,65.77,65.77,0,0,1-8.21,0,44.7,44.7,0,0,1-7.4-.84c-.56-5.51-2.44-11.14-6.91-15.32-.73-.69-2.81-1.85-4.35-1.18-1.82.81-3.83,5.67-.54,10,2.87,3.82,7.7,5.61,11.8,6.47A51.72,51.72,0,0,1,563,260.92a49.3,49.3,0,0,1-10.57,17.71l-.24,1.66-6-.89a6,6,0,0,1-3.86-6.31l.49-6.46a8,8,0,0,0-2.21-6.06,38.14,38.14,0,0,1-9.8-32.24C534.07,206.66,555.64,191.66,579,194.84Z"/><path class="cls-24" d="M589.71,285.86a2.11,2.11,0,0,1,1.79,2.39l-.5,3.28a2.11,2.11,0,0,1-2.41,1.76l-2.8-.42-41.16-6.1-2.81-.42A2.11,2.11,0,0,1,540,284l.5-3.28a2.1,2.1,0,0,1,2.41-1.76l3.27.48a6.81,6.81,0,0,0,1.72.47l16.18,2.19Z"/><path class="cls-23" d="M592.83,228.26c3.23.89,4.7,5.55,3.27,8.15-2.28,4.16-8.91,5.72-15.35,6.14a1.12,1.12,0,0,1,.06-.23,3.61,3.61,0,0,0,.12-.72,19.06,19.06,0,0,1,5.54-11.25C588.37,228.58,591,227.74,592.83,228.26Z"/><path class="cls-24" d="M585.79,292.87a2.11,2.11,0,0,1,1.78,2.39l-.49,3.29a2.12,2.12,0,0,1-2.43,1.75l-2.33-.35a2.11,2.11,0,0,0-1-.4l-34.44-5.11a2.18,2.18,0,0,0-1,.1l-2.34-.35a2.09,2.09,0,0,1-1.79-2.38l.49-3.28a2.1,2.1,0,0,1,2.41-1.76Z"/><path class="cls-24" d="M582.32,300a2.09,2.09,0,0,1,.82,2l-.49,3.28a2.12,2.12,0,0,1-2.42,1.76L573,305.91c.11-.68-.15-1.38-.67-1.45l-18.21-2.67c-.52-.07-1,.49-1.1,1.16l-7.23-1.08a2.11,2.11,0,0,1-1.79-2.39l.49-3.29a2.1,2.1,0,0,1,1.37-1.65Z"/><path class="cls-24" d="M582.32,300l-36.46-5.41a2.18,2.18,0,0,1,1-.1l34.44,5.11A2.11,2.11,0,0,1,582.32,300Z"/><path class="cls-23" d="M577.44,282.2l-.22,1.64-13.12-1.78-11.93-1.77.24-1.66A49.3,49.3,0,0,0,563,260.92a51.72,51.72,0,0,0,2.16-19.23,44.7,44.7,0,0,0,7.4.84,65.77,65.77,0,0,0,8.21,0c-.9,3.19-1.27,5.79-2.14,9.62A81,81,0,0,0,577.44,282.2Z"/><path class="cls-24" d="M572.33,304.46c.52.07.78.77.67,1.45l-20-3c.13-.67.58-1.23,1.1-1.16Z"/><path class="cls-24" d="M553,303l20,3a1.8,1.8,0,0,1-.35.83c-1.91,2.37-5.53,5.87-10.08,5.64-4.13-.2-7.65-3.42-9.49-8.5A1.84,1.84,0,0,1,553,303Z"/><path class="cls-23" d="M564.1,282.06l-16.18-2.19a6.81,6.81,0,0,1-1.72-.47l6,.89Z"/><path class="cls-23" d="M558.23,226.37c4.47,4.18,6.35,9.81,6.91,15.32-4.1-.86-8.93-2.65-11.8-6.47-3.29-4.36-1.28-9.22.54-10C555.42,224.52,557.5,225.68,558.23,226.37Z"/><path class="cls-25" d="M553,303a1.84,1.84,0,0,0,.06.93c1.84,5.08,5.36,8.3,9.49,8.5,4.55.23,8.17-3.27,10.08-5.64a1.8,1.8,0,0,0,.35-.83"/><path class="cls-26" d="M582.32,300a2.09,2.09,0,0,1,.82,2l-.49,3.28a2.12,2.12,0,0,1-2.42,1.76L573,305.91l-20-3-7.23-1.08a2.11,2.11,0,0,1-1.79-2.39l.49-3.29a2.1,2.1,0,0,1,1.37-1.65"/><path class="cls-27" d="M585.79,292.87a2.11,2.11,0,0,1,1.78,2.39l-.49,3.29a2.12,2.12,0,0,1-2.43,1.75l-2.33-.35-36.46-5.41-2.34-.35a2.09,2.09,0,0,1-1.79-2.38l.49-3.28a2.1,2.1,0,0,1,2.41-1.76"/><path class="cls-28" d="M580.75,242.55c-.9,3.19-1.27,5.79-2.14,9.62a81,81,0,0,0-1.17,30"/><path class="cls-28" d="M580.75,242.55c6.44-.42,13.07-2,15.35-6.14,1.43-2.6,0-7.26-3.27-8.15-1.85-.52-4.46.32-6.36,2.09a19.06,19.06,0,0,0-5.54,11.25,3.61,3.61,0,0,1-.12.72A1.12,1.12,0,0,0,580.75,242.55Z"/><path class="cls-28" d="M565.14,241.69a44.7,44.7,0,0,0,7.4.84,65.77,65.77,0,0,0,8.21,0"/><path class="cls-28" d="M565.14,241.69c-.56-5.51-2.44-11.14-6.91-15.32-.73-.69-2.81-1.85-4.35-1.18-1.82.81-3.83,5.67-.54,10C556.21,239,561,240.83,565.14,241.69Z"/><path class="cls-28" d="M552.41,278.63A49.3,49.3,0,0,0,563,260.92a51.72,51.72,0,0,0,2.16-19.23"/><path class="cls-29" d="M546.2,279.4a6,6,0,0,1-3.86-6.31l.49-6.46a8,8,0,0,0-2.21-6.06,38.14,38.14,0,0,1-9.8-32.24c3.25-21.67,24.82-36.67,48.17-33.49s39.63,23.3,36.38,45c-1.73,11.54-7.69,21.55-17.15,27.63a8.2,8.2,0,0,0-3.51,4.79l-1.94,7.39c0,.2-.09.41-.14.61a6.39,6.39,0,0,1-7.28,4.71l-8.13-1.1-13.12-1.78-16.18-2.19A6.81,6.81,0,0,1,546.2,279.4Z"/><path class="cls-25" d="M564.1,282.06l25.61,3.8a2.11,2.11,0,0,1,1.79,2.39l-.5,3.28a2.11,2.11,0,0,1-2.41,1.76l-2.8-.42-41.16-6.1-2.81-.42A2.11,2.11,0,0,1,540,284l.5-3.28a2.1,2.1,0,0,1,2.41-1.76l3.27.48"/><path class="cls-30" d="M632.41,215.5l-8.89,6.27"/><path class="cls-30" d="M616.78,189.77l-7.75,7.6"/><path class="cls-30" d="M596.93,177.52q-2.26,4.9-4.52,9.81"/><path class="cls-30" d="M571,171.64c.33,3.58.65,7.16,1,10.75"/><path class="cls-30" d="M544.22,177q1.6,5.16,3.2,10.32"/><path class="cls-30" d="M525.32,186.18l5.84,9.13"/><circle class="cls-2" cx="662.21" cy="340.55" r="7.11"/><rect class="cls-2" x="70.5" y="195.1" width="122.52" height="9.07" rx="4.54" transform="translate(-19 13.93) rotate(-5.65)"/><rect class="cls-2" x="72.11" y="211.32" width="122.52" height="9.07" rx="4.54" transform="translate(-20.59 14.17) rotate(-5.65)"/><rect class="cls-2" x="73.71" y="227.54" width="122.52" height="9.07" rx="4.54" transform="translate(-22.18 14.41) rotate(-5.65)"/><rect class="cls-2" x="75.31" y="243.76" width="122.52" height="9.07" rx="4.54" transform="translate(-23.77 14.64) rotate(-5.65)"/><path class="cls-31" d="M220.54,298.23l-17.71,22.89a.22.22,0,0,1-.39-.08c-3.23-26.27-6.78-52.78-10-79.05a.32.32,0,0,1,.48-.27c22.66,14.55,46.21,29.46,68.88,44a.2.2,0,0,1-.09.36l-23.36,5.44a.27.27,0,0,0-.18.43L253.49,311a.2.2,0,0,1-.08.3l-7.12,3.48-11.58,5.53h0l-13.8-22.07A.23.23,0,0,0,220.54,298.23Z"/><circle class="cls-1" cx="647.84" cy="361.17" r="5.23"/><circle class="cls-2" cx="647.45" cy="360.23" r="5.2"/><circle class="cls-1" cx="628.09" cy="372.56" r="3.41"/><circle class="cls-2" cx="627.83" cy="371.95" r="3.4"/></svg>