<svg id="Hats" xmlns="http://www.w3.org/2000/svg" viewBox="0 0 1145.36 1059.06"><defs><style>.cls-1{fill:#454546;}.cls-2{fill:#fff;}.cls-3{fill:#bb98c5;}</style></defs><path class="cls-1" d="M548.2,135.53l-404,216.64a2.17,2.17,0,0,0,.08,3.85L556.23,555.47a21.29,21.29,0,0,0,19-.21L973.9,351.47a3.4,3.4,0,0,0,0-6.05l-409.16-210A17.77,17.77,0,0,0,548.2,135.53Z"/><path class="cls-1" d="M270.06,433.46q-.87,77.67-1.75,155.35a8,8,0,0,0,4.66,7.38L559.08,728.51a17.76,17.76,0,0,0,15.13-.09L856.13,593.67A12,12,0,0,0,863,582.42q-2.58-76.36-5.15-152.72a3.45,3.45,0,0,0-5-3L573.08,568.38a14.49,14.49,0,0,1-12.87.11L275,430.39A3.45,3.45,0,0,0,270.06,433.46Z"/><path d="M867.28,353.92a30.83,30.83,0,0,1,16-5.95,40,40,0,0,1,8.82.2,42.76,42.76,0,0,1,4.35.83c.72.18,1.44.34,2.16.54l2.11.68a49.7,49.7,0,0,1,15.6,8.72,66.75,66.75,0,0,1,11.84,13,94.34,94.34,0,0,1,8.36,14.95,161.1,161.1,0,0,1,6,15.48c3.34,10.31,6.27,20.75,8.64,31.32l1.69,7.94,1.45,8c.5,2.66.88,5.34,1.27,8l.57,4,.49,4c.29,2.68.68,5.36.87,8.06l.67,8.07c.33,5.4.59,10.79.66,16.18a294.71,294.71,0,0,1-1.19,32.29c-.19,2.68-.58,5.34-.86,8l-.5,4-.6,4c-.74,5.31-1.8,10.58-2.88,15.82l-4.27-.5a538.16,538.16,0,0,0-2.4-62.87c-.45-5.19-1.18-10.35-1.79-15.51l-1.12-7.72c-.37-2.58-.85-5.13-1.25-7.7-1.78-10.23-3.8-20.42-6.3-30.48s-5.3-20.05-8.48-29.91-6.58-19.22-11.4-27.52a61.84,61.84,0,0,0-3.88-6,54.48,54.48,0,0,0-4.45-5.45,43.43,43.43,0,0,0-5.09-4.65c-.44-.37-.92-.7-1.4-1l-1.43-1-1.49-.92a14.52,14.52,0,0,0-1.53-.89c-8.2-4.6-18.13-6.71-28-3.69Z"/><path class="cls-2" d="M566.81,600.36c1.35,9.1,2.07,18.2,2.61,27.29s.75,18.2.79,27.3-.13,18.2-.65,27.3a260.2,260.2,0,0,1-2.75,27.3h-2.34a260.2,260.2,0,0,1-2.75-27.3c-.52-9.1-.69-18.2-.65-27.3s.28-18.2.78-27.3,1.27-18.19,2.62-27.29Z"/><path class="cls-3" d="M927.35,596c-1.41,1.29-2.48,2.53-5.14,2.3a4.41,4.41,0,0,1-1.57-.64l-3.23-4.11,0,0c-1.29-1.58-1-5.05.54-6.42L950,558.53a3.45,3.45,0,0,1,4.52-.18,3.4,3.4,0,0,1,.92.66l31.68,29.27a4.29,4.29,0,0,1,.16,5.63l-2.8,3.27c-1.38,1.52-3.72,2.26-5.67.28l-26.48-24.32c-.08-.07-.93.83-1,.91Z"/><path class="cls-3" d="M985.65,643.27c1.4-1.29,2.48-2.53,5.14-2.29a4.24,4.24,0,0,1,1.57.64l3.23,4.1,0,0c1.29,1.58.95,5-.54,6.43L963,680.7a3.47,3.47,0,0,1-4.52.18,3.72,3.72,0,0,1-.93-.67l-31.67-29.27a4.26,4.26,0,0,1-.16-5.62l2.8-3.27c1.38-1.53,3.72-2.27,5.66-.29l26.49,24.32c.08.08.93-.83,1-.9Z"/><path class="cls-3" d="M918.91,611.37l.91,8.18c.12,2,.72,3.4,2.1,3.57l75.55,9.4c1.39.17,5,.83,4.77-1.12l-1.12-7.72c-.13-1.65-.72-3.41-2.1-3.58l-75.55-9.4C921.25,610.35,919,609.58,918.91,611.37Z"/></svg>