<svg xmlns="http://www.w3.org/2000/svg" viewBox="0 0 900 900">
  <defs>
    <style>
      .cls-1 {
        fill: #feba65;
      }

      .cls-2 {
        fill: none;
        stroke: #3e3e46;
        stroke-miterlimit: 10;
        stroke-width: 15px;
      }

      .cls-3 {
        fill: #3e3e46;
      }
    </style>
  </defs>
  <g id="Layer_1" data-name="Layer 1">
    <path class="cls-1" d="M444,896.42c-19.41.05-38.75-1.39-58.08-2.63-11.17-.4-22.88-.3-33.92-1.68a485.37,485.37,0,0,1-97.89-22.58c-21.14-7.82-43-14.21-63-24.61a221.91,221.91,0,0,1-52.61-36.55c-7.15-6.53-13.22-14.14-19.46-21.5-6.11-7-12.84-13.59-18.77-20.8q-12.68-16-25.53-31.85c-8.62-11.76-15.3-24.89-21.82-37.89-7.67-15.65-12.65-32.44-17.56-49.11-4.51-15.71-10.26-31.1-13.94-47-5.37-25.85-7.89-52.35-10.89-78.55-2.92-35-2.33-70.29-1.85-105.4,1.71-33.31,5-66.81,13-99.25,7.1-26.13,16-51.79,25-77.32,8.83-21.55,17.65-43.35,28.93-63.75a277.32,277.32,0,0,1,20.06-31c5.8-7.61,12.37-14.79,18.72-22,17.48-20.29,35.44-40.39,55.54-58.19a112.44,112.44,0,0,1,11.77-9.34c8.26-5.58,17.33-9.85,26.23-14.29a139.63,139.63,0,0,1,35.22-12.23c13.58-2.72,26.49-8,40.07-10.89,16.13-4,32.79-5.24,49.23-7.24,31.31-3.51,62.93-9,94.55-6.8,20.76,1.63,41.66,3.21,61.86,8.48C503.88,16,519.69,16,534.73,20.16c24.78,6.1,49.93,10.68,74.49,17.67C637.32,46,666,53.55,693,65c23.89,10.29,46.4,23.69,67.94,38.22h0c23.71,16.29,45.76,35.67,63.23,58.62,31.35,43.63,45.94,96.62,56.25,148.68a641.22,641.22,0,0,1,10.08,158c-1.76,23.2-3.67,46.63-10,69.1-8,30-19.83,58.88-33.35,86.77a489.46,489.46,0,0,1-54.79,87.89,379.16,379.16,0,0,1-46.23,50.87c-21.66,20.6-41.85,42.87-65,61.86-11.68,9.28-24.65,16.79-37.49,24.32-13.28,7.47-26,16.34-40.35,21.63C551.81,887.37,498.29,897.37,444,896.42Z"/>
  </g>
  <g id="Layer_7" data-name="Layer 7">
    <rect class="cls-2" x="20.47" y="340.03" width="250.45" height="115.07" rx="16.1" transform="translate(-277.71 394.91) rotate(-69.52)"/>
    <rect class="cls-2" x="706.7" y="275.69" width="110.52" height="250.45" rx="15.78" transform="translate(-77.28 208.6) rotate(-14.84)"/>
  </g>
  <g id="Layer_4" data-name="Layer 4">
    <path class="cls-3" d="M725.65,500.27c-47.65,20.41-95.11-16.9-133-42.63-29.24-20.77-57-50.72-94.85-53.05-32.59-.69-55.32,27.64-84.16,38.89-4.94,2.39-12,6.25-17.58,4-7.46-4.27-16.31-14.38-12-23.45,4.58-10,15.47-17,23.33-24.17,33.47-28.78,59-78.47,108.67-77.85,28.59.8,55.2,14.4,83.27,18.69a193.39,193.39,0,0,0,87.05-6.54c9.18-2.88,5.26-17.36-4-14.46-85,30.19-132.66-28.84-197.4-7.21-13.19-13.71-33.35-17.39-51.84-19.67-16.82-1.72-32.43,5.57-47.86,11.17-16.12,5.86-32.21,11.82-48.15,18.18-29.55,15.25-64.72,20.3-94.6,2.9-8.5-4.58-16.08,8.36-7.57,12.95a110.36,110.36,0,0,0,45.27,13.12c16,1.07,30.89-2.07,45.62-8.24,23.88-10,48.19-19,72.55-27.75,23.27-11.82,49.29-8.76,71.7,4.57-26.35,15.92-44.37,42.09-66.4,63.06-15.26,14.62-46.12,34-32.8,59.13,16.19,30.59,40.7,22.23,64.9,7,22.76-11.1,42.95-34.79,70.51-28.18,51.61,16.63,86.53,65.59,137,85.89,26.91,13.27,57.68,21,86.22,8.12C738.64,511.47,734.75,497,725.65,500.27Z"/>
    <path class="cls-3" d="M217,521.54l-43.24-21.85c-8.62-4.35-15.4,9-6.77,13.39l43.25,21.85C218.81,539.28,225.59,525.9,217,521.54Z"/>
  </g>
  <g id="Layer_5" data-name="Layer 5">
    <path class="cls-2" d="M318.16,499.42c-7.11,5.21-66.25,86.41-68.38,95.17-3.83,23.73,25.56,46.49,45.13,25.78,6.88-7.75,64.3-84.63,64.86-92.14C361.87,503.93,340.2,488,318.16,499.42Z"/>
    <path class="cls-2" d="M363.78,538c-6.22,3.95-54.56,70-55.79,77.47-1.52,20.48,28,43,44.57,26.56,5.77-6.19,52.89-68.59,52.76-75.12C405.15,545.76,383.44,529.86,363.78,538Z"/>
    <path class="cls-2" d="M410.89,575.85c-5.91,3.51-50.59,64.4-51.52,71.46-.73,19.38,28.87,41.83,44.39,26.83,5.39-5.67,49-63.15,48.65-69.35C451.48,584.73,429.75,568.86,410.89,575.85Z"/>
    <path class="cls-2" d="M244.12,500c-4.86,2.92-36.74,53.85-36.59,59.79,2.06,16.29,32,35.36,44,22.84,4.08-4.73,35.49-52.8,34.28-58C282.11,507.72,260.21,494.23,244.12,500Z"/>
  </g>
  <g id="Layer_6" data-name="Layer 6">
    <path class="cls-3" d="M666.44,505.49c-6.48-7.18-19.89-4.35-13.44,2.81,15.77,16.15,14.13,64.23-17.77,49.58-43-22.41-83.34-49.6-124.55-75.07-8.21-5.12-15.75,7.85-7.57,12.95,34.24,21.33,68.13,43.32,103.11,63.41,9.65,8.55,16.88,31.19,2.58,39-6.56,2.89-14.47-1.68-20.07-4.76q-59.24-33.4-118.39-67c-8.42-4.76-16,8.2-7.58,13,36.95,22.8,78.72,40.84,113.36,66.09,6.21,20-16.88,31-33.48,24.17-10.32-3.15-19.58-9.26-28.83-14.67L483.17,597c-8.35-4.88-15.91,8.08-7.57,13,12.66,7.41,25.18,14.77,38.13,21.66,3.38,1.8,6.28,2.28,7.89,5.43,4.16,34.15-61.93-5.52-73.81-12.79-8-5.43-15.53,7.56-7.57,13,16,10.8,38.2,21.71,57,26.08,21.36,6,34.44,1.81,39.23-20,23.09,9.49,56.56-2.31,54.39-32.21,25.45,12,48.61-15.1,38.67-39.29C671.39,591.14,694.75,533.31,666.44,505.49Z"/>
  </g>
  <g id="Layer_8" data-name="Layer 8">
    <path class="cls-3" d="M451.52,83.2V217.31c0,9.66,15,9.67,15,0V83.2C466.52,73.54,451.52,73.53,451.52,83.2Z"/>
    <path class="cls-3" d="M352.58,111.07l21.7,110.62c1.56,8,16.29,5.09,14.72-2.89L367.29,108.18C365.73,100.22,351,103.1,352.58,111.07Z"/>
    <path class="cls-3" d="M549,117.65,523.64,227.49c-1.82,7.9,12.79,11.29,14.62,3.37L563.64,121C565.46,113.12,550.85,109.73,549,117.65Z"/>
    <path class="cls-3" d="M266.58,156.05l40.91,86c2.94,6.19,16.49-.24,13.54-6.44l-40.9-86C277.19,143.42,263.63,149.85,266.58,156.05Z"/>
    <path class="cls-3" d="M628.46,157.77,586.8,249.58c-3,6.61,10.66,12.82,13.66,6.2L642.12,164C645.12,157.36,631.46,151.15,628.46,157.77Z"/>
  </g>
</svg>
