<svg xmlns="http://www.w3.org/2000/svg" viewBox="0 0 900 900">
  <defs>
    <style>
      .cls-1 {
        fill: #feba65;
      }

      .cls-2 {
        fill: none;
        stroke: #3e3e46;
        stroke-miterlimit: 10;
        stroke-width: 15px;
      }

      .cls-3 {
        fill: #3e3e46;
      }
    </style>
  </defs>
  <g id="Layer_1" data-name="Layer 1">
    <path class="cls-1" d="M444,896.42c-19.41.05-38.75-1.39-58.08-2.63-11.17-.4-22.88-.3-33.92-1.68a485.37,485.37,0,0,1-97.89-22.58c-21.14-7.82-43-14.21-63-24.61a221.91,221.91,0,0,1-52.61-36.55c-7.15-6.53-13.22-14.14-19.46-21.5-6.11-7-12.84-13.59-18.77-20.8q-12.68-16-25.53-31.85c-8.62-11.76-15.3-24.89-21.82-37.89-7.67-15.65-12.65-32.44-17.56-49.11-4.51-15.71-10.26-31.1-13.94-47-5.37-25.85-7.89-52.35-10.89-78.55-2.92-35-2.33-70.29-1.85-105.4,1.71-33.31,5-66.81,13-99.25,7.1-26.13,16-51.79,25-77.32,8.83-21.55,17.65-43.35,28.93-63.75a277.32,277.32,0,0,1,20.06-31c5.8-7.61,12.37-14.79,18.72-22,17.48-20.29,35.44-40.39,55.54-58.19a112.44,112.44,0,0,1,11.77-9.34c8.26-5.58,17.33-9.85,26.23-14.29a139.63,139.63,0,0,1,35.22-12.23c13.58-2.72,26.49-8,40.07-10.89,16.13-4,32.79-5.24,49.23-7.24,31.31-3.51,62.93-9,94.55-6.8,20.76,1.63,41.66,3.21,61.86,8.48C503.88,16,519.69,16,534.73,20.16c24.78,6.1,49.93,10.68,74.49,17.67C637.32,46,666,53.55,693,65c23.89,10.29,46.4,23.69,67.94,38.22h0c23.71,16.29,45.76,35.67,63.23,58.62,31.35,43.63,45.94,96.62,56.25,148.68a641.22,641.22,0,0,1,10.08,158c-1.76,23.2-3.67,46.63-10,69.1-8,30-19.83,58.88-33.35,86.77a489.46,489.46,0,0,1-54.79,87.89,379.16,379.16,0,0,1-46.23,50.87c-21.66,20.6-41.85,42.87-65,61.86-11.68,9.28-24.65,16.79-37.49,24.32-13.28,7.47-26,16.34-40.35,21.63C551.81,887.37,498.29,897.37,444,896.42Z"/>
  </g>
  <g id="Layer_4" data-name="Layer 4">
    <path class="cls-2" d="M331.29,286.4c-1.69,99-149,99-150.67,0C182.31,187.37,329.61,187.38,331.29,286.4Z"/>
    <path class="cls-2" d="M523,374.54c-1.71,100.21-150.78,100.2-152.48,0C372.22,274.32,521.29,274.33,523,374.54Z"/>
    <path class="cls-2" d="M723.61,287.46c-1.72,100.92-151.85,100.91-153.56,0C571.78,186.53,721.9,186.54,723.61,287.46Z"/>
  </g>
  <g id="Layer_5" data-name="Layer 5">
    <path class="cls-3" d="M452.91,704.32,127.57,542.91c-7.87-3.9-14.22,8.87-6.34,12.78l325.34,161.4C454.44,721,460.79,708.23,452.91,704.32Z"/>
    <path class="cls-3" d="M447.8,703.93l325.34-161.4c7.87-3.91,14.22,8.86,6.33,12.77L454.13,716.7C446.26,720.61,439.91,707.84,447.8,703.93Z"/>
  </g>
  <g id="Layer_8" data-name="Layer 8">
    <path class="cls-3" d="M500.77,494.23c-71.43-37.16-160,11.63-184,84.57-6.2,18.57-8.5,38.77-12.09,58-1.45,7.72,11.22,16.89,12.68,9.13,3-16,5.42-32.22,9.24-48,10.72-40.57,42.89-78.73,81.22-94.88,87.9-33.68,169.68,55.55,166.85,141.29.17,7.89,12.3,5.22,12.13-2.69C585.47,581.24,556,520.59,500.77,494.23Z"/>
  </g>
  <g id="Layer_6" data-name="Layer 6">
    <path class="cls-3" d="M346.57,426.45C272.37,315.14,84,431.84,122.9,556.54c2.21,1.13,10.93-2.3,10.68-6.56C119.6,432.4,263.23,341.92,335.5,435.25,338.7,443,349.75,434.13,346.57,426.45Z"/>
    <path class="cls-3" d="M554.23,425.94c74.2-111.31,262.55,5.4,223.66,130.1-2.2,1.13-10.92-2.31-10.67-6.56,14-117.59-129.65-208.06-201.92-114.73C562.1,442.47,551,433.63,554.23,425.94Z"/>
  </g>
  <g id="Layer_9" data-name="Layer 9">
    <path class="cls-3" d="M68.63,336.5c-.08,17.39-26.52,17.39-26.6,0C42.11,319.11,68.55,319.11,68.63,336.5Z"/>
    <path class="cls-3" d="M70,400.16c-.08,17.39-26.52,17.39-26.59,0S70,382.78,70,400.16Z"/>
    <path class="cls-3" d="M67.78,464.11c-.08,17.39-26.52,17.39-26.59,0S67.7,446.72,67.78,464.11Z"/>
    <path class="cls-3" d="M68.34,527.49c-.07,17.39-26.51,17.38-26.59,0C41.83,510.1,68.27,510.1,68.34,527.49Z"/>
    <path class="cls-3" d="M866,335.09c-.07,17.39-26.51,17.38-26.59,0C839.44,317.7,865.88,317.7,866,335.09Z"/>
    <path class="cls-3" d="M865.39,399c-.08,17.39-26.52,17.39-26.6,0C838.87,381.64,865.31,381.64,865.39,399Z"/>
    <path class="cls-3" d="M865.39,464.11c-.08,17.39-26.52,17.39-26.6,0C838.87,446.72,865.31,446.72,865.39,464.11Z"/>
    <path class="cls-3" d="M866,528.05c-.07,17.39-26.51,17.39-26.59,0C839.44,510.66,865.88,510.66,866,528.05Z"/>
  </g>
</svg>
