<svg xmlns="http://www.w3.org/2000/svg" viewBox="0 0 900 900">
  <defs>
    <style>
      .cls-1 {
        fill: #ffa0ce;
      }

      .cls-2 {
        fill: none;
        stroke-width: 15px;
      }

      .cls-2, .cls-4 {
        stroke: #3e3e46;
        stroke-miterlimit: 10;
      }

      .cls-3, .cls-4 {
        fill: #3e3e46;
      }

      .cls-4 {
        stroke-width: 4px;
      }
    </style>
  </defs>
  <g id="Layer_1" data-name="Layer 1">
    <path class="cls-1" d="M444,899.83c-19.41,0-38.75-1.38-58.08-2.63-11.17-.4-22.88-.3-33.92-1.68a485.37,485.37,0,0,1-97.89-22.58c-21.14-7.82-43-14.21-63-24.61a221.91,221.91,0,0,1-52.61-36.55c-7.15-6.53-13.22-14.14-19.46-21.5-6.11-7-12.84-13.59-18.77-20.8q-12.68-16-25.53-31.85c-8.62-11.76-15.3-24.89-21.82-37.89-7.67-15.65-12.65-32.43-17.56-49.1-4.51-15.72-10.26-31.1-13.94-47-5.37-25.85-7.89-52.35-10.89-78.55-2.92-35-2.33-70.29-1.85-105.4,1.71-33.3,5-66.81,13-99.25,7.1-26.13,16-51.79,25-77.32,8.83-21.54,17.65-43.35,28.93-63.75a277.32,277.32,0,0,1,20.06-31c5.8-7.61,12.37-14.79,18.72-21.95,17.48-20.29,35.44-40.39,55.54-58.19a112.44,112.44,0,0,1,11.77-9.34C189.9,53.29,199,49,207.87,44.58a139.63,139.63,0,0,1,35.22-12.23c13.58-2.72,26.49-8,40.07-10.89,16.13-4,32.79-5.24,49.23-7.24,31.31-3.51,62.93-9,94.55-6.8,20.76,1.63,41.66,3.21,61.86,8.48,15.08,3.46,30.89,3.52,45.93,7.67,24.78,6.11,49.93,10.68,74.49,17.67C637.32,49.37,666,57,693,68.44c23.89,10.29,46.4,23.69,67.94,38.22h0c23.71,16.29,45.76,35.67,63.23,58.62,31.35,43.63,45.94,96.62,56.25,148.69a641.11,641.11,0,0,1,10.08,158c-1.76,23.2-3.67,46.63-10,69.1-8,30-19.83,58.88-33.35,86.77a489.46,489.46,0,0,1-54.79,87.89,379.16,379.16,0,0,1-46.23,50.87c-21.66,20.6-41.85,42.87-65,61.86-11.68,9.28-24.65,16.79-37.49,24.33-13.28,7.46-26,16.33-40.35,21.62C551.81,890.78,498.29,900.78,444,899.83Z"/>
  </g>
  <g id="Layer_3" data-name="Layer 3">
    <path class="cls-2" d="M463.24,680.63c451.25-241.1,194.89-599.29,2.07-422.22C288.12,87.3,1.72,413.28,463.24,680.63Z"/>
  </g>
  <g id="Layer_5" data-name="Layer 5">
    <path class="cls-3" d="M606.16,251c-47.74-14.82-127.49,19.94-140.61,74.71-74.67-196.58-371.24-3.36-119.16,219.4,5.67,5.22,16.56-3,10.87-8.23-237.62-197.92,36-403.79,102-185.28,1,5.61,15.66,6.44,16,.45-1.15-59.77,80.19-103.46,125.1-89.5C605.28,264.45,613.23,253.26,606.16,251Z"/>
    <path class="cls-3" d="M661.5,301.4a199,199,0,0,0-21-26c-5.81-6.12-15.73,2.66-10,8.74a178.9,178.9,0,0,1,18.76,23.51C653.93,314.49,666.11,308.28,661.5,301.4Z"/>
    <path class="cls-3" d="M679.45,333.56c-.81-7.67-15.84-3.67-14.22,3.88,9,61.93-17.66,121.07-60,165.19-40.08,47.91-87.45,89.93-140.37,123.15-7,6.51-62.73-43.08-70.69-50.5-5.62-5.29-15.07,4.31-9.43,9.61A469.67,469.67,0,0,0,422.68,617c20.67,14.28,38.77,35.71,62.53,13C579.39,558.92,697.87,465.48,679.45,333.56Z"/>
  </g>
  <g id="Layer_6" data-name="Layer 6">
    <path class="cls-4" d="M459.85,7.91V87c0,7.72,12,7.73,12,0V7.91C471.85.19,459.85.17,459.85,7.91Z"/>
    <path class="cls-4" d="M615.2,37.66l-32,72.35c-3.12,7.06,7.85,11.92,11,4.85l32-72.35C629.29,35.44,618.32,30.58,615.2,37.66Z"/>
    <path class="cls-4" d="M750.64,125.2,696,182.38c-5.34,5.58,3.33,13.88,8.67,8.29l54.65-57.18C764.65,127.91,756,119.61,750.64,125.2Z"/>
    <path class="cls-4" d="M839.51,259.74l-73.42,29.43c-7.17,2.87-2.72,14,4.46,11.14L844,270.88C851.14,268,846.69,256.86,839.51,259.74Z"/>
    <path class="cls-4" d="M872.92,411.9,788.75,413c-8.21.11-8.07,12.11.16,12l84.17-1.08C881.29,423.8,881.15,411.8,872.92,411.9Z"/>
    <path class="cls-4" d="M843.74,569.62,763,536.76a6,6,0,1,0-4.52,11.11l80.71,32.86A6,6,0,1,0,843.74,569.62Z"/>
    <path class="cls-4" d="M756.12,704.33l-62-64.1c-6.05-6.26-14.68,2.08-8.62,8.34l62,64.11C753.55,718.93,762.18,710.6,756.12,704.33Z"/>
    <path class="cls-4" d="M625.29,793.65,591.51,709.5c-3.3-8.22-14.44-3.76-11.13,4.47l33.77,84.15C617.45,806.34,628.59,801.88,625.29,793.65Z"/>
    <path class="cls-4" d="M457.77,734.17l1.54,92.92c.15,9.08,12.15,8.89,12-.19L469.77,734C469.61,724.9,457.62,725.09,457.77,734.17Z"/>
    <path class="cls-4" d="M338.8,709.61l-33.61,83.58c-3.29,8.16,7.84,12.65,11.13,4.48l33.62-83.58C353.22,705.93,342.09,701.44,338.8,709.61Z"/>
    <path class="cls-4" d="M234.07,639.76l-60.7,64.06c-5.93,6.26,2.77,14.52,8.71,8.26L242.78,648C248.71,641.76,240,633.5,234.07,639.76Z"/>
    <path class="cls-4" d="M166.46,537.64,83.09,567.53c-8.13,2.92-4.1,14.22,4,11.3l83.37-29.9C178.65,546,174.61,534.71,166.46,537.64Z"/>
    <path class="cls-4" d="M139,414.06l-85.47-1.55c-8.34-.15-8.57,11.84-.22,12l85.48,1.55A6,6,0,1,0,139,414.06Z"/>
    <path class="cls-4" d="M162.23,289.8l-73.59-29c-7.18-2.83-11.59,8.33-4.4,11.16l73.59,29C165,303.8,169.43,292.64,162.23,289.8Z"/>
    <path class="cls-4" d="M234.58,179l-57.47-54.35c-5.61-5.31-13.86,3.4-8.25,8.71l57.47,54.36C231.94,193,240.2,184.31,234.58,179Z"/>
    <path class="cls-4" d="M303.55,41.27l30.68,72.91c3,7.12,14.06,2.48,11.06-4.65L314.62,36.62C311.62,29.5,300.56,34.14,303.55,41.27Z"/>
  </g>
</svg>
