<svg xmlns="http://www.w3.org/2000/svg" viewBox="0 0 900 900">
  <defs>
    <style>
      .cls-1 {
        fill: #7fbff4;
      }

      .cls-2 {
        fill: none;
        stroke: #3e3e46;
        stroke-miterlimit: 10;
        stroke-width: 15px;
      }

      .cls-3 {
        fill: #3e3e46;
      }
    </style>
  </defs>
  <g id="Layer_1" data-name="Layer 1">
    <path class="cls-1" d="M444,896.42c-19.41.05-38.75-1.39-58.08-2.63-11.17-.4-22.88-.3-33.92-1.68a485.37,485.37,0,0,1-97.89-22.58c-21.14-7.82-43-14.21-63-24.61a221.91,221.91,0,0,1-52.61-36.55c-7.15-6.53-13.22-14.14-19.46-21.5-6.11-7-12.84-13.59-18.77-20.8q-12.68-16-25.53-31.85c-8.62-11.76-15.3-24.89-21.82-37.89-7.67-15.65-12.65-32.44-17.56-49.11-4.51-15.71-10.26-31.1-13.94-47-5.37-25.85-7.89-52.35-10.89-78.55-2.92-35-2.33-70.29-1.85-105.4,1.71-33.31,5-66.81,13-99.25,7.1-26.13,16-51.79,25-77.32,8.83-21.55,17.65-43.35,28.93-63.75a277.32,277.32,0,0,1,20.06-31c5.8-7.61,12.37-14.79,18.72-22,17.48-20.29,35.44-40.39,55.54-58.19a112.44,112.44,0,0,1,11.77-9.34c8.26-5.58,17.33-9.85,26.23-14.29a139.63,139.63,0,0,1,35.22-12.23c13.58-2.72,26.49-8,40.07-10.89,16.13-4,32.79-5.24,49.23-7.24,31.31-3.51,62.93-9,94.55-6.8,20.76,1.63,41.66,3.21,61.86,8.48C503.88,16,519.69,16,534.73,20.16c24.78,6.1,49.93,10.68,74.49,17.67C637.32,46,666,53.55,693,65c23.89,10.29,46.4,23.69,67.94,38.22h0c23.71,16.29,45.76,35.67,63.23,58.62,31.35,43.63,45.94,96.62,56.25,148.68a641.22,641.22,0,0,1,10.08,158c-1.76,23.2-3.67,46.63-10,69.1-8,30-19.83,58.88-33.35,86.77a489.46,489.46,0,0,1-54.79,87.89,379.16,379.16,0,0,1-46.23,50.87c-21.66,20.6-41.85,42.87-65,61.86-11.68,9.28-24.65,16.79-37.49,24.32-13.28,7.47-26,16.34-40.35,21.63C551.81,887.37,498.29,897.37,444,896.42Z"/>
  </g>
  <g id="Layer_4" data-name="Layer 4">
    <rect class="cls-2" x="594.35" y="157.11" width="121.72" height="560.97"/>
    <rect class="cls-2" x="441.89" y="303.96" width="121.72" height="411.81"/>
    <rect class="cls-2" x="290.43" y="456.41" width="121.72" height="261.75"/>
    <rect class="cls-2" x="140.56" y="587.75" width="121.72" height="128.39"/>
    <line class="cls-2" x1="103.29" y1="718.08" x2="749.83" y2="718.08"/>
  </g>
  <g id="Layer_5" data-name="Layer 5">
    <path class="cls-3" d="M483.61,347.41c.19,12.74-19.81,12.74-19.63,0C463.8,334.68,483.8,334.68,483.61,347.41Z"/>
    <path class="cls-3" d="M540.74,347.35c.19,12.74-19.81,12.74-19.63,0C520.93,334.62,540.93,334.62,540.74,347.35Z"/>
    <path class="cls-3" d="M512.48,375.32c.19,12.73-19.81,12.73-19.62,0C492.67,362.58,512.67,362.58,512.48,375.32Z"/>
    <path class="cls-3" d="M484.23,404.46c.18,12.73-19.82,12.73-19.63,0C464.41,391.72,484.42,391.72,484.23,404.46Z"/>
    <path class="cls-3" d="M540.15,404.16c.19,12.74-19.81,12.74-19.62,0C520.34,391.43,540.34,391.43,540.15,404.16Z"/>
    <path class="cls-3" d="M512.19,431c.19,12.73-19.81,12.73-19.63,0C492.38,418.22,512.38,418.21,512.19,431Z"/>
    <path class="cls-3" d="M483.93,459.21c.19,12.73-19.81,12.73-19.62,0C464.12,446.47,484.12,446.47,483.93,459.21Z"/>
    <path class="cls-3" d="M540.45,459.21c.18,12.73-19.82,12.73-19.63,0C520.63,446.47,540.64,446.47,540.45,459.21Z"/>
    <path class="cls-3" d="M512.19,487.17c.19,12.73-19.81,12.73-19.63,0C492.38,474.44,512.38,474.43,512.19,487.17Z"/>
    <path class="cls-3" d="M484.52,514.84c.19,12.73-19.81,12.73-19.63,0C464.71,502.1,484.71,502.1,484.52,514.84Z"/>
    <path class="cls-3" d="M540.45,514.84c.18,12.73-19.82,12.73-19.63,0C520.63,502.1,540.64,502.1,540.45,514.84Z"/>
    <path class="cls-3" d="M511.6,543.68c.19,12.74-19.81,12.74-19.63,0C491.79,531,511.79,531,511.6,543.68Z"/>
    <path class="cls-3" d="M484.23,571.35c.18,12.73-19.82,12.73-19.63,0C464.41,558.62,484.42,558.62,484.23,571.35Z"/>
    <path class="cls-3" d="M539.86,571.06c.18,12.73-19.82,12.73-19.63,0C520.05,558.32,540.05,558.32,539.86,571.06Z"/>
    <path class="cls-3" d="M512.19,598.43c.19,12.73-19.81,12.73-19.63,0C492.38,585.7,512.38,585.7,512.19,598.43Z"/>
    <path class="cls-3" d="M484.23,627.28c.18,12.73-19.82,12.73-19.63,0C464.41,614.54,484.42,614.54,484.23,627.28Z"/>
    <path class="cls-3" d="M540.45,627.28c.18,12.73-19.82,12.73-19.63,0C520.63,614.54,540.64,614.54,540.45,627.28Z"/>
    <path class="cls-3" d="M512.19,654.65c.19,12.73-19.81,12.73-19.63,0C492.38,641.92,512.38,641.92,512.19,654.65Z"/>
    <path class="cls-3" d="M483.93,683.2c.19,12.73-19.81,12.73-19.62,0C464.12,670.47,484.12,670.47,483.93,683.2Z"/>
    <path class="cls-3" d="M540.45,683.2c.18,12.73-19.82,12.73-19.63,0C520.63,670.47,540.64,670.47,540.45,683.2Z"/>
    <path class="cls-3" d="M241.81,627.11c.18,12.73-19.82,12.73-19.63,0C222,614.38,242,614.38,241.81,627.11Z"/>
    <path class="cls-3" d="M185.75,626.91c.18,12.73-19.82,12.73-19.63,0C165.93,614.18,185.93,614.18,185.75,626.91Z"/>
    <path class="cls-3" d="M213.57,655.25c.18,12.73-19.82,12.73-19.63,0C193.75,642.51,213.75,642.51,213.57,655.25Z"/>
    <path class="cls-3" d="M185.75,683.07c.18,12.73-19.82,12.73-19.63,0C165.93,670.33,185.93,670.33,185.75,683.07Z"/>
    <path class="cls-3" d="M241.39,683.07c.18,12.73-19.82,12.73-19.63,0C221.57,670.33,241.57,670.33,241.39,683.07Z"/>
    <line class="cls-2" x1="149" y1="410.59" x2="344.6" y2="213.87"/>
    <polygon class="cls-2" points="303.24 168.04 389.3 252.99 396.01 159.1 303.24 168.04"/>
  </g>
</svg>
