<svg xmlns="http://www.w3.org/2000/svg" viewBox="0 0 900 900">
  <defs>
    <style>
      .cls-1 {
        fill: #7fbff4;
      }

      .cls-2 {
        fill: none;
        stroke: #3e3e46;
        stroke-miterlimit: 10;
        stroke-width: 15px;
      }

      .cls-3 {
        fill: #3e3e46;
      }
    </style>
  </defs>
  <g id="Layer_1" data-name="Layer 1">
    <path class="cls-1" d="M444,896.42c-19.41.05-38.75-1.39-58.08-2.63-11.17-.4-22.88-.3-33.92-1.68a485.37,485.37,0,0,1-97.89-22.58c-21.14-7.82-43-14.21-63-24.61a221.91,221.91,0,0,1-52.61-36.55c-7.15-6.53-13.22-14.14-19.46-21.5-6.11-7-12.84-13.59-18.77-20.8q-12.68-16-25.53-31.85c-8.62-11.76-15.3-24.89-21.82-37.89-7.67-15.65-12.65-32.44-17.56-49.11-4.51-15.71-10.26-31.1-13.94-47-5.37-25.85-7.89-52.35-10.89-78.55-2.92-35-2.33-70.29-1.85-105.4,1.71-33.31,5-66.81,13-99.25,7.1-26.13,16-51.79,25-77.32,8.83-21.55,17.65-43.35,28.93-63.75a277.32,277.32,0,0,1,20.06-31c5.8-7.61,12.37-14.79,18.72-22,17.48-20.29,35.44-40.39,55.54-58.19a112.44,112.44,0,0,1,11.77-9.34c8.26-5.58,17.33-9.85,26.23-14.29a139.63,139.63,0,0,1,35.22-12.23c13.58-2.72,26.49-8,40.07-10.89,16.13-4,32.79-5.24,49.23-7.24,31.31-3.51,62.93-9,94.55-6.8,20.76,1.63,41.66,3.21,61.86,8.48C503.88,16,519.69,16,534.73,20.16c24.78,6.1,49.93,10.68,74.49,17.67C637.32,46,666,53.55,693,65c23.89,10.29,46.4,23.69,67.94,38.22h0c23.71,16.29,45.76,35.67,63.23,58.62,31.35,43.63,45.94,96.62,56.25,148.68a641.22,641.22,0,0,1,10.08,158c-1.76,23.2-3.67,46.63-10,69.1-8,30-19.83,58.88-33.35,86.77a489.46,489.46,0,0,1-54.79,87.89,379.16,379.16,0,0,1-46.23,50.87c-21.66,20.6-41.85,42.87-65,61.86-11.68,9.28-24.65,16.79-37.49,24.32-13.28,7.47-26,16.34-40.35,21.63C551.81,887.37,498.29,897.37,444,896.42Z"/>
  </g>
  <g id="Layer_7" data-name="Layer 7">
    <path class="cls-2" d="M331.27,627.62c2-13,2.88-72.52-5.74-93.83-10.9-21.17-16.46-79.68-15.32-94.79H528.52c1.33-31.44-.66-71,1.91-106.28-1.17-38.18,50.35-49.15,68-17.24C614,358.57,611.06,442.56,590.76,485c-14.27,18.31-28,26.77-40.87,39.33-29.61,22.34-20.7,85.17-19.46,103.33Z"/>
  </g>
  <g id="Layer_8" data-name="Layer 8">
    <path class="cls-2" d="M312.37,312.08c-2.78,5.7-3.9,74.14-.56,79.84,10.63,14.7,47.77,15.72,51.72-3.51,1.11-7,3.34-72.38-.55-76.77C350.59,297.32,323.68,297,312.37,312.08Z"/>
    <path class="cls-2" d="M423.69,282.08c-2.78,8.78-3.89,114.18-.56,123,10.64,22.63,47.78,24.21,51.72-5.4,1.11-10.81,3.34-111.48-.55-118.24C461.91,259.35,435,258.88,423.69,282.08Z"/>
    <path class="cls-2" d="M479.25,290.58c-2.68,7.58-3.75,98.52-.54,106.1,10.23,19.52,46,20.88,49.76-4.67,1.07-9.32,3.21-96.18-.54-102C516,271,490.13,270.56,479.25,290.58Z"/>
    <path class="cls-2" d="M367.39,292.33c-2.78,7.23-3.89,94-.55,101.21,10.63,18.63,47.77,19.93,51.72-4.45,1.11-8.89,3.33-91.76-.56-97.32C405.62,273.62,378.71,273.23,367.39,292.33Z"/>
  </g>
  <g id="Layer_9" data-name="Layer 9">
    <line class="cls-2" x1="180.45" y1="393.87" x2="145.16" y2="393.87"/>
  </g>
  <g id="Layer_10" data-name="Layer 10">
    <polygon class="cls-2" points="178.07 394.4 243.97 348.67 243.17 434.1 178.07 394.4"/>
    <line class="cls-2" x1="704.3" y1="396.12" x2="739.59" y2="396.12"/>
    <polygon class="cls-2" points="703.66 395.48 640.79 351.85 641.43 437.82 703.66 395.48"/>
  </g>
  <g id="Layer_12" data-name="Layer 12">
    <path class="cls-3" d="M314.33,431.43H246c-3.41,0-5.52,2.23-6.41,5,2.28,3,4.58,6.38,7.57,8.56.59.24,1.4,0,1.3.64a10.66,10.66,0,0,1,2,1.73l63.79.28C323.54,447.66,323.56,431.43,314.33,431.43Z"/>
    <path class="cls-3" d="M305.36,335.75l-53.79-1.48c-1.45,8.68-2.56,10.49-.81,16.83l54.6.13C312.83,351.23,312.84,335.75,305.36,335.75Z"/>
    <path class="cls-3" d="M634.06,436.17H606.92c-7.87,0-7.89,15.72,0,15.72l27.11,0C636.36,443.69,637.5,442.11,634.06,436.17Z"/>
    <path class="cls-3" d="M633.19,337.45H607.91c-7.38,0-7.4,15.81,0,15.81l26.55.11C635.06,344.56,633.37,345.52,633.19,337.45Z"/>
  </g>
  <g id="Layer_5" data-name="Layer 5">
    <path class="cls-3" d="M136.49,727.68h537c24.62,0,49.38.78,74,0h1c10,0,10.06-15.6,0-15.6h-537c-24.62,0-49.38-.77-74,0h-1c-10,0-10.06,15.6,0,15.6Z"/>
  </g>
  <g id="Layer_3" data-name="Layer 3">
    <path class="cls-3" d="M80.77,400.08c3.38-37.28,12.1-74.88,26.74-109a316,316,0,0,1,54.24-85.64,322.64,322.64,0,0,1,75.32-62.17,358.81,358.81,0,0,1,89-38.22,391.63,391.63,0,0,1,96.81-14.68,399.47,399.47,0,0,1,97.16,8.9,373.32,373.32,0,0,1,91.81,32.63A330.31,330.31,0,0,1,690.81,188a310.2,310.2,0,0,1,60,80.18c16.89,32.25,28,67.44,33.91,103.58,1.54,9.39,2.68,18.83,3.52,28.31.89,9.92,16.49,10,15.6,0-3.49-39.37-12.27-78.05-27.68-114.5a330,330,0,0,0-56.56-90,339.31,339.31,0,0,0-78.48-65.17,379.84,379.84,0,0,0-93-40.18A416.66,416.66,0,0,0,447.24,74.78a421.34,421.34,0,0,0-101.77,9.37,389.9,389.9,0,0,0-95.6,34.13A348.28,348.28,0,0,0,167,177.42,327.83,327.83,0,0,0,104.58,261,358,358,0,0,0,69.06,369.15q-2.49,15.39-3.89,30.93c-.91,10,14.7,9.93,15.6,0Z"/>
  </g>
  <g id="Layer_6" data-name="Layer 6">
    <path class="cls-2" d="M320.13,717.16s-3.62-79.88,1.2-85c4.67-5,218-4.13,222.52.6,4.07,4.27.6,85.63.6,85.63Z"/>
  </g>
  <g id="Layer_4" data-name="Layer 4">
    <polygon class="cls-2" points="85.52 565.2 145.16 408.01 206.48 565.2 85.52 565.2"/>
    <path class="cls-2" d="M62.84,565.2H225.38l6.83.08C231.86,686.35,58.14,662.64,62.84,565.2Z"/>
    <polygon class="cls-2" points="679.99 567.14 739.63 409.95 800.95 567.14 679.99 567.14"/>
    <path class="cls-2" d="M657.31,567.14H819.85l6.83.08C826.33,688.29,652.61,664.58,657.31,567.14Z"/>
  </g>
</svg>
