<svg id="Layer_1" data-name="Layer 1" xmlns="http://www.w3.org/2000/svg" viewBox="0 0 441.43 318.74">
  <defs>
    <style>
      .cls-1 {
        fill: #212121;
      }

      .cls-2 {
        fill: #595b5c;
      }

      .cls-3, .cls-7 {
        fill: #2d2d2d;
      }

      .cls-4 {
        fill: #c3a1cb;
      }

      .cls-5 {
        fill: #e6d8c9;
      }

      .cls-6 {
        fill: none;
      }

      .cls-6, .cls-7 {
        stroke: #e6d8c9;
        stroke-miterlimit: 10;
      }

      .cls-8 {
        fill: #eae2da;
      }

      .cls-9 {
        fill: #a1ddf8;
      }

      .cls-10 {
        fill: #f6d996;
      }

      .cls-11 {
        fill: #9ed5b5;
      }

      .cls-12 {
        fill: #f69da0;
      }

      .cls-13 {
        fill: #fdf7fa;
      }

      .cls-14 {
        fill: #c1aaa4;
      }
    </style>
  </defs>
  <path class="cls-1" d="M40.16,51.13C38.44,48,42.45,40.36,44.49,37.4c9.15-13.29,35.23-17.91,50-24.06C114.42,5,123.88,2.54,141,18c3.22-1.28,114.79,1.69,128.17-8.74,9.29-21.52,58.25.09,79.81,7.09,16.22,5.27,2.07,20.13,16.24,28.89,0,0-54.82-15.48-70-6.6-42.12,24.67-31.67,41.26-72,45.74L149.69,75S121,44.66,108.33,39.77C76.89,27.64,84.54,69.6,55.05,55.17,55.05,55.17,42,54.52,40.16,51.13Z"/>
  <path class="cls-1" d="M352.5,27.9c-21.92-10,48.38,107.69,48.38,107.69,5.36,17.6,7.62,57.77,12.17,75.35C412,227,423.87,251,417,265.85c-9.74,16.18-29.72,24.29-47.81,26,20.56,18.05,38,12.29,56.58-4.69,24.62-24.89,13.46-63.34,11-93.29C429.08,142.94,408.82,53.63,352.5,27.9Z"/>
  <path class="cls-2" d="M80.38,315.57c27.9-12.4,28.86-58.32,57.13-77.35,12.16-8.18,101.75-6.63,146.93-4.2,14.64.78,33.95,3.46,44.28,15,12.79,14.25,23.64,37.2,41.69,43.1,20.68,6.77,48.33-13.78,51-36.47.75-6.26,2.09-19.1,1.54-25.42-.39-4.52-.89-13.28-1.57-17.76-3.87-25.44-11.45-56.34-17.82-81-6-23.26-21.32-68.89-38.34-86.2C346.24,26,315,5.76,290.87,18.89c-14.62,8-24.95,36.1-37.61,47-6.83,5.85-29.6,7.35-38.41,8-13.68,1-48.73,3.23-60.45-4.8-15.8-10.81-25-39.24-44.51-42.37C82.43,22.28,44.55,39.75,28.08,61.79,6.66,90.46,2,136.59,1.8,173.54c-.09,24.16-2,39.74-1.39,61.6C-2.39,293.34,7.48,330.07,80.38,315.57Z"/>
  <circle class="cls-3" cx="296.76" cy="94.67" r="16.42"/>
  <circle class="cls-3" cx="324.32" cy="63.96" r="16.42"/>
  <circle class="cls-3" cx="354.74" cy="91.91" r="16.42"/>
  <circle class="cls-3" cx="326.1" cy="122.61" r="16.42"/>
  <circle class="cls-4" cx="269.3" cy="169.4" r="40.1"/>
  <circle class="cls-4" cx="150.08" cy="173.19" r="40.1"/>
  <circle class="cls-4" cx="86.68" cy="99.36" r="40.1"/>
  <circle class="cls-3" cx="238.97" cy="95.98" r="9.04"/>
  <circle class="cls-3" cx="173.85" cy="99.23" r="9.04"/>
  <circle class="cls-5" cx="268" cy="168.52" r="26.16"/>
  <rect class="cls-5" x="140.37" y="140.69" width="21.02" height="64.54" rx="4.51" transform="translate(-3 2.67) rotate(-1)"/>
  <rect class="cls-5" x="140.37" y="140.69" width="21.02" height="64.54" rx="4.51" transform="translate(-19.41 326.84) rotate(-91)"/>
  <circle class="cls-5" cx="84.57" cy="97.59" r="26.16"/>
  <rect class="cls-6" x="168.97" y="96.06" width="5.8" height="4.82" transform="translate(0.99 -1.71) rotate(0.57)"/>
  <rect class="cls-7" x="171.85" y="98.23" width="5.8" height="4.82" transform="translate(1.01 -1.74) rotate(0.57)"/>
  <rect class="cls-8" x="238.04" y="90.27" width="2.16" height="6.65" rx="0.46" transform="matrix(-0.01, 1, -1, -0.01, 335.1, -144.58)"/>
  <rect class="cls-8" x="238.06" y="93.11" width="1.89" height="6.65" rx="0.43" transform="translate(337.82 -141.6) rotate(90.57)"/>
  <rect class="cls-8" x="238" y="95.93" width="1.95" height="6.65" rx="0.44" transform="translate(340.61 -138.72) rotate(90.57)"/>
  <polygon class="cls-9" points="288.55 85.34 292.87 85.39 297.12 90.79 300.76 85.46 304.63 85.5 299.19 93.23 305.8 102.64 301.48 102.59 297.16 95.81 293.29 103.4 288.93 103.09 294.28 93.19 288.55 85.34"/>
  <polygon class="cls-10" points="315.4 55.27 319.27 55.3 323.62 62.23 327.91 55.39 331.63 55.43 326.18 64.75 325.95 72.79 321.49 72.75 321.56 64.86 315.4 55.27"/>
  <polygon class="cls-11" points="316.89 130.62 323.17 112.66 326.6 112.7 334.76 129.9 330.14 130.15 328.7 125.52 322.07 126.05 320.91 130.66 316.89 130.62"/>
  <path class="cls-12" d="M350.24,80.78l.2,22.22s6.4.5,8.36,0a12,12,0,0,0,4-2,7.33,7.33,0,0,0,1.67-2.81,10,10,0,0,0-1.58-6.2,7.41,7.41,0,0,0-2.85-1.52,27.79,27.79,0,0,0-5.17-.12,27.08,27.08,0,0,0,4.48-1.74,6,6,0,0,0,2.11-2.36,5.39,5.39,0,0,0-1-3.58C358.77,80.84,352.76,81,350.24,80.78Z"/>
  <polygon class="cls-3" points="325.21 117.15 323.37 122.79 327.39 122.83 325.21 117.15"/>
  <path class="cls-3" d="M352.4,83.6l.17,4.46a25.21,25.21,0,0,0,3-.11c.81-.17,2.63-.48,3.09-1.17a3.24,3.24,0,0,0-.11-2.67c-.31-.42-1.45-.6-2-.67A29.49,29.49,0,0,0,352.4,83.6Z"/>
  <path class="cls-3" d="M353.26,93.18l.28,5.91a30.29,30.29,0,0,0,3.82-.18c1-.23,3.36-.55,3.94-1.57a5,5,0,0,0-.17-3.55c-.41-.61-1.88-.77-2.53-.86A36.56,36.56,0,0,0,353.26,93.18Z"/>
  <circle class="cls-13" cx="204.89" cy="46.59" r="20.16"/>
  <path class="cls-14" d="M276.61,150.08c-27.17-11.27-39.41,29.68-11.95,37.31C248.09,173.2,256.49,153.75,276.61,150.08Z"/>
  <path class="cls-14" d="M91,79.6c-27.17-11.27-39.42,29.69-12,37.32C62.47,102.73,70.88,83.28,91,79.6Z"/>
</svg>
