<svg xmlns="http://www.w3.org/2000/svg" viewBox="0 0 234.51 319.62"><defs><style>.cls-1{fill:#fcb966;}.cls-2,.cls-4{fill:none;stroke-miterlimit:10;}.cls-2{stroke:#4e4e4f;stroke-width:10px;}.cls-3{fill:#4e4e4f;}.cls-4{stroke:#d0d0d6;stroke-width:2px;}.cls-5{fill:#4a5690;}.cls-6{fill:#6c7cbd;}.cls-7{fill:#4a568f;}.cls-8{fill:#6b7cbd;}.cls-9{fill:#d6d6d6;}</style></defs><g id="Layer_5" data-name="Layer 5"><path class="cls-1" d="M50.93,142.16C43.76,118.32,46.78,90.27,64.57,71,117.05,16.72,189,68.39,175,138.87"/></g><g id="Layer_8" data-name="Layer 8"><line class="cls-2" x1="117.26" y1="228.56" x2="117.26" y2="268.08"/><path class="cls-3" d="M119,227.79c8,5.62,18.07,3.69,27.19,3.7,4.23,0,8.48.52,12.12,2.81,3,1.89,5.2,4.83,5.16,8.48,0,4.63-2,9.11-.34,13.7A14.9,14.9,0,0,0,171,265c4,1.75,7.94,1.32,12-.13,2.76-1,7.33-3.41,9.86-1.21,2,1.73,1.59,5.53-.12,7.64-2.76,3.4-7.86,4-11.93,4.12-3.2.13-3.22,5.13,0,5,4.5-.19,9.33-.84,13.1-3.52a12,12,0,0,0,5.26-10.13c-.13-4.08-2.61-7.88-6.78-8.74-4.53-.94-8.58,1.48-12.78,2.7a9.42,9.42,0,0,1-9.8-2.6,9,9,0,0,1-2.33-4.45c-.46-2.24.17-4.64.52-6.85a18.72,18.72,0,0,0,0-7.71,14.53,14.53,0,0,0-3-5.57,20,20,0,0,0-11.22-6.33c-5.9-1.21-11.85-.45-17.8-.35-5.05.09-10.23-.4-14.48-3.38a2.52,2.52,0,0,0-3.42.9,2.55,2.55,0,0,0,.9,3.42Z"/><ellipse class="cls-3" cx="116.83" cy="276.16" rx="30.84" ry="10.86"/><rect class="cls-3" x="172.71" y="275.39" width="23.97" height="37.55" rx="8.34"/><polyline class="cls-4" points="172.71 287.56 185.16 286.12 196.68 287.56"/><line class="cls-4" x1="184.92" y1="275.39" x2="185.16" y2="286.12"/></g><g id="Layer_6" data-name="Layer 6"><polyline class="cls-5" points="61.06 181.14 139.54 81.93 218.02 183.58"/><polyline class="cls-6" points="197.53 182.6 139.54 81.93 218.02 183.58"/></g><g id="Layer_4" data-name="Layer 4"><polyline class="cls-7" points="12.33 180.43 64.23 109.97 129.72 183.9"/><polyline class="cls-8" points="103.83 182.17 64.23 109.97 129.72 183.9"/><polygon class="cls-9" points="64.23 108.05 49.48 127.07 54.74 125.68 57.83 129.24 61.06 124.6 68.5 127.23 68.5 121.97 73.18 126.29 72.22 121.5 78.26 125.81 64.23 108.05"/><polygon class="cls-9" points="139.38 80.81 157.93 105.26 151.31 103.47 147.42 108.05 143.36 102.08 134 105.46 134 98.7 128.11 104.26 129.33 98.11 121.73 103.64 139.38 80.81"/></g><g id="Layer_2" data-name="Layer 2"><rect class="cls-2" x="12.33" y="15.12" width="209" height="209" rx="12.25"/></g><g id="Layer_3" data-name="Layer 3"><line class="cls-2" x1="12.33" y1="183.58" x2="218.02" y2="183.58"/><line class="cls-2" x1="12.33" y1="204.79" x2="218.02" y2="204.79"/></g></svg>