<svg xmlns="http://www.w3.org/2000/svg" viewBox="0 0 800 800"><defs><style>.cls-1{fill:#d0cae5;}.cls-2{fill:#988cc3;}.cls-3{fill:#6962ab;}.cls-4{fill:#605da9;}.cls-5{fill:#f1b28a;}.cls-6{fill:#f9cba6;}.cls-7{fill:#0b0b0b;}.cls-8{fill:#372215;}.cls-9{fill:#9b6949;}.cls-10{fill:#a56e49;}.cls-11{fill:#ec4748;}.cls-12{fill:#cc4147;}.cls-13{fill:#d8444b;}.cls-14{fill:#998cc3;}.cls-15{fill:#f0eaf4;}.cls-16{fill:#e4f0f4;}.cls-17{fill:#9b694a;}.cls-18{fill:none;}.cls-19{fill:#88171a;}.cls-20{fill:#171717;}</style></defs><g id="Layer_3" data-name="Layer 3"><rect class="cls-1" x="22.38" y="395.68" width="28.98" height="269.53"/><rect class="cls-1" x="565.78" y="395.68" width="25.36" height="284.74"/></g><g id="Layer_4" data-name="Layer 4"><rect class="cls-1" x="269.46" y="488.78" width="14.78" height="165.3"/><rect class="cls-2" x="187.04" y="454.85" width="188.38" height="37.68" rx="7.27"/><path class="cls-1" d="M273.4,647.19c-10.27,1.24-29.8,7.64-39.17,12.07-59.8,21.13,102.25,4.53,100.27,9.12C318.06,657,293.37,648.35,273.4,647.19Z"/><circle class="cls-1" cx="227.81" cy="674.28" r="10.72"/><circle class="cls-1" cx="276.98" cy="675.77" r="10.72"/><circle class="cls-1" cx="325.75" cy="674.78" r="10.72"/></g><g id="Layer_5" data-name="Layer 5"><path class="cls-1" d="M734.33,563.61c3.34,1.72,5.21.86,10.51,5.67l3.49,9.59c.24.68.55,5.83.61,6.56l11.44,130.32,10.07-.59c-.76-7.8-9.08-134.52-11.25-142.07-2.55-8.86-8.39-12.38-11.84-16C743.07,558.65,730.58,554.89,734.33,563.61Z"/><path class="cls-1" d="M607.65,561.83c-6.48,1.8-7.75,8.93-8.33,14.92-.72,7.47-22.15,135.77-2.34,126.57,2.39-28.44,4.65-99.78,12.94-126.09,2.89-9.16,6.88-12.86,10.6-14.21l10.21-7.11C623.86,554.88,612.72,556.64,607.65,561.83Z"/><rect class="cls-1" x="763.34" y="419.75" width="12.43" height="123.14" transform="translate(51.34 -73.71) rotate(5.67)"/><rect class="cls-2" x="589.29" y="535.01" width="184.11" height="28.6" rx="9.88"/><rect class="cls-2" x="770.94" y="316.01" width="20.26" height="109.52" rx="5.6" transform="translate(40.92 -76.13) rotate(5.73)"/></g><g id="Layer_6" data-name="Layer 6"><path class="cls-3" d="M636,451.69c-245.63,32.63-199,14.47-88.69,234.8l52.1-2.16-74.06-149L559,538.81c45.77.27,146.62,21.37,182.12-8.17C756.36,510,756.36,479.7,754,455.29l-64.15,3.87C678.62,456.82,647.22,447.93,636,451.69Z"/></g><g id="Layer_7" data-name="Layer 7"><polygon class="cls-4" points="540.45 537.52 524.52 534.94 592.12 684.76 601.16 684.34 540.45 537.52"/></g><g id="Layer_19" data-name="Layer 19"><path class="cls-5" d="M692.48,199.88l.82,21.72c2.17-1,50.68-10.58,50-13.93l-1.22-20.08-31.15.82Z"/></g><g id="Layer_20" data-name="Layer 20"><path class="cls-6" d="M666.67,121.62c-2.18,6.49-2.54,43.74-2.87,51.22l1.23,3.28,5.73,1.23c.85,3.59,5.26,19.51,4.92,22.94l4.51,3.69,56.55-10.65-3.44-8.07-5.5-4.58,2.45-7.33c5.13-9.64,5.15-13.7,1.16-25.51l-6.55-1.64-2.71-1.4-4.88.91c-1.71-12.53-1.83-11.88-9.22-22.86l-7.73-4.32c-8.61,2.14-21.89,4.71-30.54,6.26Z"/></g><g id="Layer_21" data-name="Layer 21"><path class="cls-7" d="M675.68,96.21c0-9.14-10.51-9.81-16.39-4.92-.59,4.44-8.45,7.25-11.88,8.61-.17,3.64,2.25,9.49,4.51,12.29-5.21,7.37-1,8.57,5.32,11.89,28,9.44,52.75-26.28,58.6,23.36,12.28-1.53,16.85-2.92,15.57,11.88-14.67,16.83.12,41.54,21.31,29.91-12-18.58,13.67-46.28,8.19-67.2C754.28,72.73,710.12,70.57,675.68,96.21Z"/></g><g id="Layer_18" data-name="Layer 18"><path class="cls-8" d="M312.67,205.49c6-1.4,31.23,2.9,30.19-4.55-9.45-7.24-21.76-15.32-13.64-28.53,5.39-11.19-2.77-21.54-7.25-31.23,1.74-24.19-4-64.32-35.56-63.06-33.17-5.43-50.77,1.25-62.44,34.95,2.05,15-5.44,31-12,43.62,1.71,23,13.12,25.28-12.61,40.32-18.93,22.46,47.88-2.61,65.75,19.44C293.75,218.62,286,204.4,312.67,205.49Z"/></g><g id="Layer_16" data-name="Layer 16"><path class="cls-9" d="M247.33,201.15c1.82-.85,3.79-4.46,4.55-6.21.18-3.47.73-15.21-.41-18.4l39.49-.62c.27,8.17-4.36,23.16,6.62,25.64-4.27,8.79-19.62,13.61-28.75,12.2C253.13,214.05,253.57,216.7,247.33,201.15Z"/></g><g id="Layer_17" data-name="Layer 17"><path class="cls-10" d="M240.71,131.26c5-8.43,10.95-17.94,18-22.22,4.26-2.58,13.82,2.56,13.82,2.56s11.46-6.47,17-2.56c6.52,4.6,12.64,15.76,13.19,22.43,1.54,1.8,3.24-2.18,6.41.2,6.69,5,1.39,21-6.21,23.78-2.08,7.54-7,17.37-13,22.54-18.36,16.49-41.38,2.39-49.63-17.37-.85-5.47-7.6-9.13-8.89-14.68C231.26,134.17,228.48,133.14,240.71,131.26Z"/></g><g id="Layer_10" data-name="Layer 10"><path class="cls-11" d="M230.1,202.13c-26-1.91-53.8-.56-64.3,27.7-4.32,26.28-16.48,91.71-21.46,117.89-1.15,14.31,9.7,25,23.36,27,14.93,2.76,47.6,7.7,62.63,6.51l1.92-16.14,1.93-11.56c-3.07,0-36-7.32-40-7.95-9.28-4.26,9.72-57.56,10.37-63.46,1.23,61.67-2.71,86.33,7.25,95.85,13.2,12.63,14.68-.51,121.13,9.79-2.6-32.77-5.33-81.25,2.48-115.66,2.69-11.86,27.72-34.77,24.85-47.11,0,0-4.47-11.9-6.86-15.37-7.42-10.74-26.72-9.16-38.78-8.18C311.1,204.24,292,244.14,286,239.94l-13-25.29C265.05,213.79,235.65,208.34,230.1,202.13Z"/><path class="cls-11" d="M360.28,225s13.93,107.33,9.32,140.09c-.48,3.38-6.78,8.56-10.15,9.13-7.84,1.34-33.46,1-33.46,1L299,377l2.63-23.58,36.51-6.08-5.92-97.6Z"/></g><g id="Layer_23" data-name="Layer 23"><path class="cls-12" d="M181.5,373.84a445.06,445.06,0,0,0,48.65,4.33c.61,0,1.61-.2,1.9-.84s-.24-1-.83-1A442.6,442.6,0,0,1,182.57,372c-1.26-.18-3,1.57-1.07,1.86Z"/><path class="cls-13" d="M196.5,349.31,226,355.92a2.36,2.36,0,0,0,2.05-.55c.42-.44.33-1-.3-1.12l-29.45-6.6a2.35,2.35,0,0,0-2.05.55c-.42.43-.33,1,.3,1.11Z"/></g><g id="Layer_11" data-name="Layer 11"><path class="cls-11" d="M191.31,399.48l-.65,11.8c1.25,25.25,23.58,38.21,37,42.27,17.11,5.17,70.78,10.16,70.78,10.16l36.37,3.93,24.58,3.61,15.72-29.17L370,416l23.86-14.17-154.67-6.65Z"/></g><g id="Layer_2" data-name="Layer 2"><polygon class="cls-14" points="7.69 379.33 605.94 379.33 609.06 380.22 611.73 382.9 612.62 390.03 612.62 395.82 610.39 400.28 607.27 402.06 7.69 402.51 4.13 400.28 2.34 393.6 1.9 386.02 2.79 381.56 5.91 379.77 7.69 379.33"/></g><g id="Layer_22" data-name="Layer 22"><path class="cls-6" d="M510.19,365.33a281.25,281.25,0,0,0-29.76-.54c-10.27,2.23-23.94,9.66-31.65,16.77l.54,2.17c7.33-.13,19.3-2.94,26.24-5.14,11.09,1.59,26.71,2.05,37.88,1.89Z"/></g><g id="Layer_8" data-name="Layer 8"><path class="cls-15" d="M750.21,206.78c-26.91-3.95-53.87,5-78.48,15a92.3,92.3,0,0,0-17.18,9.2c-7.16,4.76-21.1,27.13-21.1,27.13-55.17,84.27-31.94,64.54-125.29,102.47-.16,6.48,1.41,19.84,2.59,26.26,22.56.72,55-5.76,76.63-11.62l19.81-8.61c5-4.21,26-20.39,29.27-25.84,0,31.47-3.36,82.31.43,113.67l5.17,3.44,17.65,4.74,43.49,4.3,31-2.15,20.23-5.17c9.6-25,28.51-116.76,31.86-145.52,0,0,.55-20.34.43-27.12-.09-5-.19-14.94-1-19.83-1.36-8.08-.78-30.37-17.49-48.2C755.73,205.6,750.21,206.78,750.21,206.78Z"/></g><g id="Layer_9" data-name="Layer 9"><path class="cls-16" d="M247.94,201c-4.5.39-13.33,1.41-17.84,1.12,5.7,11,14.5,34.92,24.35,42.35a4.87,4.87,0,0,0,2.89,1c7-1.77,10.55-24.21,14.37-30.46,3.49,5.31,10.12,24.19,12.52,27.45,0,0,2.16,2.25,3.13,2.41a4.28,4.28,0,0,0,2.17-.72c4.84-3.19,21.61-37.26,25.11-42.71-3.65.13-15.3.73-18.7-.33-7.67,10.76-12.79,11.95-24.68,11.32C261.23,211.87,250.93,206,247.94,201Z"/></g><g id="Layer_13" data-name="Layer 13"><path class="cls-17" d="M395.79,477.14c8.51,45,27.1,124.14,28.18,169.75L438.39,659l26.54,4.92-1.64-5.58c-5-3.39-12.91-8.32-16.71-13.1-6.2-37.41,4.54-160.64-5.57-196l-4.26-6.88c-7.24-5.49-18-11.78-26.87-14.09l-18,49.48Z"/></g><g id="Layer_12" data-name="Layer 12"><path class="cls-10" d="M360.4,435.53c2.21-14.46,3.18-28.06,18.82-34.23,9.76.1,27.07-1.74,31.64,10,9.54,36.67-53.51,174.37-47.51,213C320.34,660.91,361.64,455.24,360.4,435.53Z"/></g><g id="Layer_14" data-name="Layer 14"><polygon class="cls-18" points="341.39 594.78 336.81 607.24 338.77 622.64 343.03 643.61 348.6 657.37 354.17 663.92 362.04 665.89 366.95 664.91 370.88 657.7 371.54 647.21 369.25 636.73 364.33 617.39 362.69 622.64 358.76 626.9 353.52 626.24 347.29 618.38 341.39 594.78"/><path class="cls-19" d="M424,646.6l2,17.67c15.21,10.2,42.41,21.64,58.72,29.86,17.3-13.83-14.61-30.82-24.88-37.83.45,7.48-10.43,3.85-14.43,3.73C439.62,658,428.82,650.46,424,646.6Z"/><path class="cls-19" d="M341.13,598.27c-4.9,6.94-1.75,25.31-.42,32.91,3.32,12.57,9,43.55,27.77,31.43,6.39-12.73-2.65-32.37-5.65-45.36-1.72,6.81-3,11.45-10.35,8-5.2-4.8-7.32-24.15-8.84-30.76Z"/></g><g id="Layer_15" data-name="Layer 15"><path class="cls-20" d="M600.71,683.37c-28.29,2.11-77.2-1-98.54,21.39-.41,2.92-2.38,6.68.65,9.08h99.83l5.19-4.54C609.61,704.55,602.13,687.86,600.71,683.37Z"/></g></svg>