<svg id="Layer_1" data-name="Layer 1" xmlns="http://www.w3.org/2000/svg" viewBox="0 0 461.74 315.12"><defs><style>.cls-1{fill:#85bde7;}.cls-2{fill:#b4daf4;}.cls-3{fill:#fcb966;}.cls-4{fill:#f5a0c5;}.cls-5{fill:#6fc493;}.cls-6{fill:none;stroke:#5d6bb2;stroke-miterlimit:10;stroke-width:6px;}.cls-7,.cls-8{font-size:70px;font-family:Poppins-Bold, Poppins;font-weight:700;}.cls-7{fill:#4e4e4f;}.cls-8{fill:#fff;}</style></defs><rect class="cls-1" x="9.23" y="50.93" width="442.57" height="255.1" transform="matrix(1, 0, 0, 1, -0.24, 0.31)"/><g id="Layer_2" data-name="Layer 2"><rect class="cls-1" x="10.28" y="13.56" width="444.81" height="37.33" rx="1.56"/></g><g id="Layer_3" data-name="Layer 3"><rect class="cls-2" x="131.91" y="22.08" width="225.48" height="16.82" rx="8.41"/><rect class="cls-3" x="52.09" y="73.97" width="225.48" height="16.82" rx="8.41"/><rect class="cls-4" x="287.94" y="74.9" width="132.72" height="16.82" rx="6.45"/><rect class="cls-2" x="92.38" y="105.78" width="330" height="16.82" rx="8.41"/><rect class="cls-2" x="50.06" y="231.78" width="121.1" height="16.82" rx="6.16"/><rect class="cls-5" x="182.39" y="232.7" width="132.72" height="16.82" rx="6.45"/><rect class="cls-4" x="50.79" y="263.13" width="192.81" height="16.82" rx="6.43"/><rect class="cls-3" x="322.11" y="232.39" width="101.69" height="16.82" rx="5.65"/><rect class="cls-2" x="259.24" y="262.52" width="161.36" height="16.82" rx="7.11"/></g><rect class="cls-6" x="9.36" y="11.98" width="444.77" height="295.13" rx="11.21" transform="translate(-0.22 0.32) rotate(-0.08)"/><circle class="cls-2" cx="29.75" cy="31.15" r="7.71"/><circle class="cls-2" cx="54.36" cy="31.11" r="7.71"/><circle class="cls-2" cx="79.68" cy="31.08" r="7.71"/><line class="cls-6" x1="10.76" y1="51.04" x2="452.64" y2="50.29"/><text class="cls-7" transform="translate(34.02 196.45)">Javascript</text><text class="cls-8" transform="translate(40.39 196.43)">Javascript</text></svg>