<svg xmlns="http://www.w3.org/2000/svg" viewBox="0 0 800 620.28"><defs><style>.cls-1{fill:#3a4d9f;}.cls-2{fill:#e4e5e6;}.cls-3{fill:#191946;}.cls-4{fill:#2d3676;}.cls-5{fill:#925c3e;}.cls-6{fill:#784933;}.cls-7{fill:#fff;}.cls-8{fill:#ebc8a9;}.cls-9{fill:#445ca9;}.cls-10{fill:none;stroke:#191946;stroke-miterlimit:10;stroke-width:20px;}.cls-11{fill:#dd2928;}.cls-12{fill:#ef4439;}.cls-13{fill:#b48c68;}.cls-14{fill:#584fa1;}.cls-15{fill:#6d5ea9;}.cls-16{fill:#4b4785;}.cls-17{fill:#98765a;}.cls-18{fill:#b1bbc2;}.cls-19{fill:#ced7dd;}</style></defs><g id="Layer_28" data-name="Layer 28"><polygon class="cls-1" points="622.79 540.39 619.13 558.3 629.3 562.78 636.22 540.39 622.79 540.39"/><polygon class="cls-1" points="767.31 542.42 768.53 563.18 784.82 563.59 779.12 541.61 767.31 542.42"/></g><g id="Layer_24" data-name="Layer 24"><path class="cls-2" d="M633.09,562.36a66,66,0,0,1-6-4c-2.13-1.84-7.27-8.76-7.27-8.76l-15.5,6.84-15.51,6.84-10.94,4.56s-7.17,1.47-9.58,1.82-5.84.84-7.47,2.45a10.28,10.28,0,0,0-2.56,6.67c.06.94.17,3.07.91,3.65,2.15,1.69,10.94,0,10.94,0l59.75.91Z"/><path class="cls-2" d="M792,556.25c2.15.71,4.82,5,5.69,7,1.24,3,1.67,9.57,1.42,12.77-.1,1.25-.14,4.44-1.33,4.86-8.92,3.09-35.15,4.82-35.15,4.82l-48.46,1.5.13-11.09,18.1-7.88,31.93-17.91s4,6.34,6.06,7.58,6.71,1.89,9,1.61C782.64,559.14,788.93,555.23,792,556.25Z"/></g><g id="Layer_2" data-name="Layer 2"><polygon class="cls-3" points="647.7 301.01 617.39 548.06 639.12 548.63 689.45 374.78 664.28 296.43 647.7 301.01"/></g><g id="Layer_3" data-name="Layer 3"><polygon class="cls-4" points="660.28 308.44 687.16 391.94 762.07 549.78 788.38 550.35 736.91 411.95 731.76 305.01 660.28 308.44"/></g><g id="Layer_22" data-name="Layer 22"><path class="cls-5" d="M683.52,144.81l.77-11.88a10.25,10.25,0,0,0-2.32,0c-1.61.5-4.17,2.87-5.68,3.62a28.8,28.8,0,0,1-5.68,2.06c-2,.36-6.51,1.1-8.26,0-2.12-1.33-3.76-6.6-4.38-9-1.33-5.2-1.11-16.06-1-21.43.05-3.36,1-13.42,1-13.42l13.42-3.35L698.75,94l4.13,12.65-2.58,20.64,2.83,17Z"/></g><g id="Layer_23" data-name="Layer 23"><path class="cls-3" d="M653.58,96s-1.33-10.72,0-13.93c.77-1.86,4.08-4.47,5.68-5.68A48.45,48.45,0,0,1,668.81,71a54.94,54.94,0,0,1,9.8-1.81c3.47-.38,10.52-1.18,13.94-.52a22,22,0,0,1,7,3.1,22.33,22.33,0,0,1,4.39,5.68,26.2,26.2,0,0,1,1,3.61s4.78,1.24,5.94,2.33a15.87,15.87,0,0,1,3.61,7.74c.15,2-1.53,5.88-2.32,7.74-1.18,2.77-3.47,8.33-4.65,11.1-1.27,3-4.06,8.83-5.16,11.87-.39,1.08-1.29,4.39-1.29,4.39h-3.61s-.24-14.38-1-19.1c-.23-1.39-.57-4.4-1.54-5.42-.78-.81-3.27-1.11-4.39-1a10.79,10.79,0,0,0-4.65,1.81c-1.15,1-1.79,4.42-3.1,5.16-.89.51-3.31.63-4.13,0-1-.78-.67-3.8-1.29-4.91a13.29,13.29,0,0,0-3.87-4.13c-1.15-.6-3.86-.68-5.16-.77-3.54-.23-14.2.26-14.2.26Z"/></g><g id="Layer_30" data-name="Layer 30"><path class="cls-6" d="M573.1,210.76l-6.76-5-4.51-7.66s-2.56-7.14-4.51-8.57c-1-.74-4-1.76-5-.9-2.06,2,3.4,9.3,1.35,11.27-1.56,1.51-6.63-.37-8.56-1.35-1.71-.87-3.83-4.34-5.41-5.41-1.93-1.3-6.32-4.2-8.57-3.61-1.24.33-2.9,2.8-3.16,4.06-.54,2.62,1.48,8,2.71,10.37a37.45,37.45,0,0,0,7.21,8.57c2.89,2.37,9.66,5.71,13.08,7.21,2.61,1.15,10.82,3.61,10.82,3.61l14.43,5,4.51-11.72Z"/></g><g id="Layer_4" data-name="Layer 4"><path class="cls-1" d="M673.43,141.45l35.46.58c30.5,35.9,28,82,41.91,123.8,0,0,4.49,20,4.6,25.31.14,6.57,2.12,21.65-2.69,26.13-12.76,11.88-69,6.9-85.66,5.37,0,0-12.71-3.18-16.13-5.76-8-6.07-7.17-34-7.68-43.79-31.42,1.31-59-12.48-86.44-25,0,0,2.81-16.6,4.61-21.9,1.72-5,9.22-19.2,9.22-19.2,14.46,3.52,34.17,10.85,48.79,13.44,8.34,1.48,25.36,1.51,33.8,1.54C660.39,202.48,670.31,162.05,673.43,141.45Z"/><path class="cls-7" d="M307.76,12.29c-43.88,0-79.45,24.7-79.45,55.15V122.6h79.45c43.88,0,79.46-24.7,79.46-55.16S351.64,12.29,307.76,12.29Z"/><path class="cls-7" d="M481.75,110.89c-31.89,4-55.38,25.86-52.48,48.73L434.52,201l57.73-7.32c31.89-4.05,55.39-25.87,52.49-48.74S513.64,106.85,481.75,110.89Z"/><path class="cls-7" d="M566.09,14.74c39.1,0,70.8,20.49,70.8,45.76v45.76h-70.8c-39.11,0-70.81-20.49-70.81-45.76S527,14.74,566.09,14.74Z"/></g><g id="Layer_10" data-name="Layer 10"><polygon class="cls-8" points="501.95 518.11 504.09 537.4 513.74 540.97 519.45 538.83 525.16 533.47 525.52 528.83 527.66 511.33 501.95 518.11"/><polygon class="cls-8" points="438.37 506.68 433.73 524.54 436.58 528.47 442.3 529.54 448.73 529.19 453.01 525.26 460.87 512.4 450.16 508.83 438.37 506.68"/></g><g id="Layer_8" data-name="Layer 8"><polygon class="cls-1" points="460.47 444.31 433.21 506.92 464.85 518.7 507.93 441.62 522.74 413.35 494.81 407.63 472.25 411.33 460.47 444.31"/></g><g id="Layer_7" data-name="Layer 7"><path class="cls-9" d="M427.49,369.26s75.69,10.16,101,13.12c2.21.26,6.75.71,8.75,1.69,2.41,1.17,6.72,4.75,8.08,7.06s2.16,8,2.36,10.77c.34,4.72-.89,14.15-1.35,18.85-2.51,25.57-12.79,102-12.79,102l-37-.34,8.75-102.66-49.48,3.37-46.45-3.7Z"/></g><g id="Layer_11" data-name="Layer 11"><path class="cls-2" d="M515.52,540.26a51.5,51.5,0,0,0,4.67-3.14c1.67-1.44,5.69-6.86,5.69-6.86L538,535.61,550.17,541l8.57,3.57s5.61,1.16,7.5,1.43,4.57.66,5.85,1.92a8,8,0,0,1,2,5.23c-.05.73-.13,2.4-.71,2.85-1.69,1.32-8.58,0-8.58,0l-46.79.72Z"/><path class="cls-2" d="M432.65,524.19c-1.75.24-4.39,3.15-5.35,4.64-1.37,2.11-2.61,7.14-2.86,9.64-.1,1-.5,3.45.36,3.93,6.44,3.62,26.43,8.57,26.43,8.57l37.15,7.86,1.42-8.57L477,541.69,454.8,523.47s-3.94,4.33-5.72,5a14.87,14.87,0,0,1-7.14,0C439.5,527.71,435.19,523.83,432.65,524.19Z"/></g><g id="Layer_6" data-name="Layer 6"><rect class="cls-4" x="315.61" y="383.2" width="158.65" height="61.77"/><polygon class="cls-4" points="474.25 444.97 493.76 543.14 506.76 540.54 479.46 381.25 467.1 384.5 474.25 444.97"/><rect class="cls-4" x="507.66" y="556.55" width="61.09" height="10.28" rx="4.75"/></g><g id="Layer_5" data-name="Layer 5"><circle class="cls-10" cx="329.54" cy="476.45" r="90.65"/><circle class="cls-3" cx="332.43" cy="479.43" r="12.68"/><rect class="cls-3" x="236.94" y="473.57" width="177.5" height="9.75"/><rect class="cls-3" x="244.09" y="472.6" width="177.5" height="9.75" transform="translate(-144.64 810.32) rotate(-90)"/><rect class="cls-3" x="244.74" y="474.55" width="177.5" height="9.75" transform="translate(-241.33 376.23) rotate(-45)"/><rect class="cls-3" x="241.49" y="473.9" width="177.5" height="9.75" transform="translate(225.21 1050.84) rotate(-135)"/><circle class="cls-3" cx="500.99" cy="555.2" r="22.91"/></g><g id="Layer_13" data-name="Layer 13"><path class="cls-3" d="M403.5,167.77a34.13,34.13,0,0,0-8.56-3.31,47,47,0,0,0-13-.28,38.77,38.77,0,0,0-10.49,4.14c-2.67,1.72-6.91,6.68-8.56,9.39a26.92,26.92,0,0,0-2.49,6.63c-.74,3.72.07,11.43-.55,15.18a38.93,38.93,0,0,1-2.48,8.28,57.91,57.91,0,0,1-6.91,9.39c-1.62,1.82-6.09,4.44-7.17,6.63-1.51,3-.16,10.2-.83,13.52-.54,2.66-2.06,8-3.59,10.22-3.24,4.72-17.4,14.91-17.4,14.91l-11.31,9.11L320.68,276l47-1.47,55.88,6-.2-31s-.33-18-.83-24c-.74-8.95-2.5-26.9-4.69-35.61-.91-3.58-3.17-10.76-5.25-13.81C410.88,173.51,406.12,169.39,403.5,167.77Z"/></g><g id="Layer_12" data-name="Layer 12"><path class="cls-8" d="M411.23,178.81s3.46,8.81,4.14,11.88a72.18,72.18,0,0,1,1.11,10.49,145.38,145.38,0,0,1-1.38,17.67,45,45,0,0,1-1.38,6.62c-.51,1.4-1.53,4.43-2.77,5.25s-5,.64-6.62.55-5-2-6.62-2.65c-2.32-.88-8.84-3.7-8.84-3.7v6.35l-6.9.55.55-23.47s-4.58-1-5.8-1.93a8.88,8.88,0,0,1-2.76-4.14,9.75,9.75,0,0,1,1.93-6.07c1-1,3.88-1.57,5.25-1.66a25.6,25.6,0,0,1,4.69.83s10.69-4.71,14.08-6.63a47.11,47.11,0,0,0,5.8-3.86C407.27,183.55,411.23,178.81,411.23,178.81Z"/></g><g id="Layer_29" data-name="Layer 29"><path class="cls-8" d="M487.83,383.51s5.12,5.66,6.93,7.45,5.45,4.56,6.92,6.4c1.83,2.28,3.92,7.93,5.86,10.12,1.33,1.49,4.53,5.5,6.39,4.79,1.27-.48,1.07-4,1.07-5.33s-1.93-4.27-1.07-5.32c1.1-1.34,5.2-.12,6.93,0s5.58.84,7.45,1.06c1.46.17,4.92,1.66,5.86.54s-.67-4.66-1.6-5.86c-2.06-2.71-8.67-5.4-11.71-6.93s-10-3.31-12.79-5.32c-2.45-1.76-8-9.06-8-9.06Z"/><path class="cls-8" d="M277.64,412l-3.58,9.83a67.59,67.59,0,0,1-4.46,6.25c-2.68,2.8-9.08,7.25-12.21,9.53-2,1.49-6.65,3.8-8.34,5.66a4.74,4.74,0,0,0,0,7.45c1.21,1.15,4.58,2.26,6.25,2.38,3.35.23,10-1.62,13.11-3,2.49-1.1,6.35-5.36,8.93-6.25a11,11,0,0,1,5.06-.3c1.88.57,4.64,3.65,6.26,4.76.93.65,2.76,2.65,3.87,2.39.68-.16,1.44-1.69,1.49-2.39.13-2.12-2.73-5.78-3.58-7.74-1-2.36-3.59-7-3.87-9.53-.42-3.91,2.68-15.48,2.68-15.48Z"/></g><g id="Layer_21" data-name="Layer 21"><path class="cls-11" d="M396.59,253.33l7,11.76L416.63,283,430.58,296s12.26,11.61,16.56,15.25c12.49,9.42,26.82,21.21,38.34,31.81,7,4.85,14.45,11.11,17.86,19.17,3.31,13.67-8.83,28.6-23.09,26.15-8.41,1-15.52-2.38-21.35-8.28-11.14-9.5-41-41.83-41-41.83l-23.09-58.39Z"/></g><g id="Layer_9" data-name="Layer 9"><path class="cls-12" d="M275.36,416l-.68-4s-3.45-4.86-4-6.73c-1.47-4.67-1.81-14.65-1.35-19.52,1.15-12.21,7.91-36.06,12.45-47.46,4.32-10.84,14.11-32.12,20.2-42.07,5.31-8.69,16.93-25.55,23.89-33,5.23-5.59,23.56-19.53,23.56-19.53l5.73-3.7s-.86-8.59,1-10.43c2-2,8.57-1,11.44-1,4.64,0,18.51,1.34,18.51,1.34s8.62-.56,11.11.68a5.83,5.83,0,0,1,2,2.35c2.14,5.67.33,24.24.33,24.24s1.16,22.09,2.7,29.28c2,9.39,8.62,27.54,12.45,36.35,3.28,7.52,12.1,21.47,15.48,28.95a90.62,90.62,0,0,1,5.05,15.48c.56,3,1.35,9.16.67,12.11s-3.87,8.11-5.72,10.44a60.19,60.19,0,0,1-9.76,8.75,145.28,145.28,0,0,1-20.87,11.11C395,411.51,385.71,414.58,381,416c-3.25,1-9.78,3.06-13.12,3.7a86,86,0,0,1-12.79,1.35c-4.16,0-12.68-.38-16.5-2-2.91-1.25-7.83-5.56-9.76-8.08-2.75-3.6-5.65-12.42-6.73-16.83-1.22-5-2-20.53-2-20.53s-5.23,16.18-7.07,21.54c-.81,2.37-2.08,7.28-3.36,9.43a48.93,48.93,0,0,1-8.42,9.42c-2,1.62-8.41,5.72-8.41,5.72Z"/></g><g id="Layer_26" data-name="Layer 26"><polygon class="cls-13" points="20.01 494.73 43.01 476.24 53.38 490.68 36.25 503.3 27.23 505.11 20.01 494.73"/><polygon class="cls-13" points="248.23 536.23 253.64 555.17 258.6 562.84 267.17 561.03 269.88 555.62 265.37 536.23 248.23 536.23"/></g><g id="Layer_27" data-name="Layer 27"><path class="cls-2" d="M22.49,490.46c-1.13-1.26-5.15-.82-6.76-.31-3.71,1.18-12.29,9.53-12.29,9.53l23,27.66c5,6,14.85,18.09,20,24,.75.86,1.95,3.17,3.08,3.38,1.35.25,4.19-1.29,4.91-2.46s.32-3.73,0-4.91c-.47-1.8-2.94-4.75-3.68-6.46-2.48-5.68-5.57-17.73-7.38-23.66-1.1-3.61-1.09-12.48-4.3-14.45-1.07-.65-3.67.86-4.92.93a12.33,12.33,0,0,1-3.69-.31A22.35,22.35,0,0,1,24,498.45a10.63,10.63,0,0,1-1.85-3.38C21.94,493.94,23.26,491.32,22.49,490.46Z"/><path class="cls-2" d="M251.76,554.69a3.89,3.89,0,0,0-2.46.92c-1.1,1.4-.73,5.3-.92,7.07-.29,2.69-.92,10.76-.92,10.76l7.38,1.84,65.76-.3s.66-4,.31-5.23a8.92,8.92,0,0,0-2.76-4c-1.27-.75-4.4-.37-5.84-.62a90.92,90.92,0,0,1-10.15-2.46c-6.19-2.08-24-10.45-24-10.45s-3.57-3.18-4.91-2.76-1.59,3.85-2.46,4.91a15.22,15.22,0,0,1-4.31,3.39,16.61,16.61,0,0,1-5.22.61,20,20,0,0,1-4.61-.92C255.36,557,253.17,554.8,251.76,554.69Z"/></g><g id="Layer_15" data-name="Layer 15"><polygon class="cls-14" points="169.43 426.37 194.25 548.24 271.73 539.96 209.29 276.68 201.02 274.42 169.43 426.37"/></g><g id="Layer_14" data-name="Layer 14"><polygon class="cls-15" points="127.3 276.68 121.28 379.74 37.78 472.26 87.43 534.7 179.96 427.13 185.97 415.84 194.25 384.25 207.04 272.92 127.3 276.68"/></g><g id="Layer_19" data-name="Layer 19"><path class="cls-13" d="M195.53,82.73a32.15,32.15,0,0,1,4.94,3.14,28.57,28.57,0,0,1,4.94,8.53c1.45,4.74,1.18,14.81,1.35,19.76.13,3.81,1,11.59,0,15.27-.64,2.27-2.95,6.79-4.94,8.08-1.52,1-5.4,1.22-7.18.9a42.21,42.21,0,0,1-9.88-3.6c-2-1.14-6.49-3.63-7.19-5.83-3.48-11,12.58-44.45,12.58-44.45Z"/></g><g id="Layer_20" data-name="Layer 20"><path class="cls-15" d="M199.12,83.18c.1-2.23-4.79-4.75-6.73-5.84a38.2,38.2,0,0,0-9.88-3.14c-5.22-.75-16-.88-21.1.45-4.18,1.08-12,5.25-15.27,8.08-2.73,2.37-6.91,8.44-8.53,11.67A52.29,52.29,0,0,0,134,106.08a54.59,54.59,0,0,0,0,10.77c.23,2,.84,5.93,1.8,7.64,1.28,2.28,5.24,5.87,7.18,7.63,1.37,1.23,5.09,2.81,5.84,4.49,1.24,2.77-.79,9.08-.9,12.12-.06,1.68-1.34,5.72,0,6.74,4.72,3.6,17-5.76,22.9-6.29,3.7-.33,12.46,4.23,14.82,1.35,1.48-1.82-2-6.75-2.7-9-.86-2.71-3.68-7.94-3.59-10.78.3-9.69,10.93-27,13.47-36.37.51-1.87.32-6,1.35-7.63C195,85.48,199.06,84.7,199.12,83.18Z"/></g><g id="Layer_31" data-name="Layer 31"><path class="cls-16" d="M169.88,86.75a40.42,40.42,0,0,0-3.34,18c.07,1.53,3,1.1,2.94-.21a39,39,0,0,1,3.17-17.46c.67-1.53-2.25-1.55-2.77-.35Z"/><path class="cls-16" d="M159.07,93.25a31.1,31.1,0,0,0,12.62,33.54c.72.49,3.25-.67,2.71-1a30.61,30.61,0,0,1-12.46-33c.2-.76-2.66-.35-2.87.46Z"/><path class="cls-16" d="M141.21,104.66A35,35,0,0,0,156,126.24c1.07.71,3.61-.77,2.23-1.68a33.37,33.37,0,0,1-14.07-20.68c-.3-1.34-3.2-.59-2.9.78Z"/><path class="cls-16" d="M148.36,135a11.8,11.8,0,0,1,7.64,9.86c.08.83,3,.22,2.9-.78a12.63,12.63,0,0,0-8.21-10.4,2.58,2.58,0,0,0-2,.31c-.33.18-.94.78-.29,1Z"/></g><g id="Layer_25" data-name="Layer 25"><path class="cls-17" d="M65.17,323.19s-1.32,7.51-2.09,9.92c-.65,2-2.09,6.14-3.39,7.83-1.67,2.17-6.44,5.11-8.61,6.79-2.66,2-8,6.13-10.7,8.09-1.8,1.28-6.28,3-7.31,4.95a7.53,7.53,0,0,0,0,5c.72,1.51,3.63,3.65,5.22,4.18,2,.68,6.54.31,8.61-.26,2.31-.64,6.26-3.53,8.35-4.7a81,81,0,0,1,7.57-4.18,15.44,15.44,0,0,1,4.7-1,11.56,11.56,0,0,1,5,1.83c.88.73,1.56,3.09,2.35,3.91A8,8,0,0,0,78,367.56c.73.12,2.51-.13,2.87-.78.52-1-.85-3.19-1.31-4.18-.77-1.68-3.29-4.52-3.91-6.26a30.55,30.55,0,0,1-1-8.09,31,31,0,0,1,1-6.27c.92-3,5.22-11.48,5.22-11.48L84,322.67Z"/><path class="cls-17" d="M290.9,219l8.88-1s4-1,5.25-1.41c2.27-.77,6.72-2.61,8.88-3.64,1.72-.81,5-2.8,6.67-3.63a66.36,66.36,0,0,1,7.06-3c1.28-.39,4-1.36,5.25-1a3.21,3.21,0,0,1,1.82,1.62c.15.7-.78,2-1.21,2.62-1.49,2-5.6,4.85-7.47,6.46-.71.61-2.18,1.76-2.83,2.42a8.91,8.91,0,0,0-1.82,2.22,5.38,5.38,0,0,0,.21,3.44c.47.69,2.28,1,3,1.41,1,.51,3.34,1.23,3.84,2.22a2.59,2.59,0,0,1-.2,2c-.5.62-2.24.88-3,1a45.44,45.44,0,0,1-7.47,0c-2.64-.15-7.86-1.36-10.5-1.21a37.4,37.4,0,0,0-7.06,1.61c-1.68.55-6.47,2.83-6.47,2.83Z"/></g><g id="Layer_18" data-name="Layer 18"><path class="cls-18" d="M193.29,154.12s3,12.91,4.49,17.06a118.28,118.28,0,0,0,8.08,16.16,134.3,134.3,0,0,0,8.53,11.23c1.82,2.21,5.32,6.85,7.63,8.53,5.17,3.75,17.2,8.62,23.35,10.33,7,1.93,21.5,3.7,28.74,3.59,5.11-.08,20.2-3.14,20.2-3.14l7.63,60.61-25.14,2.24s-20.31-1.71-26.94-3.14a188.44,188.44,0,0,1-22.45-7.18c-3.36-1.34-10.77-3.46-13-6.29C197.92,243.4,191,160.85,191,160.85Z"/></g><g id="Layer_16" data-name="Layer 16"><polygon class="cls-19" points="159.16 141.1 193.74 148.73 195.98 181.51 216.19 267.71 222.02 282.08 133.12 282.08 129.53 325.63 63.53 326.98 74.31 280.74 88.22 242.12 116.96 188.24 159.16 141.1"/></g><g id="Layer_17" data-name="Layer 17"><polygon class="cls-18" points="145.25 205.75 140.76 227.31 133.57 267.26 132.68 281.63 148.84 282.08 147.04 266.82 146.14 248.86 145.25 205.75"/></g></svg>