<svg id="Layer_9" data-name="Layer 9" xmlns="http://www.w3.org/2000/svg" viewBox="0 0 596.09 592.74"><defs><style>.cls-1{fill:#73b7f3;}.cls-1,.cls-2,.cls-3,.cls-4{stroke:#000;stroke-miterlimit:10;}.cls-1,.cls-2,.cls-3{stroke-width:6.1px;}.cls-2{fill:#ff95c8;}.cls-3{fill:#feb15a;}.cls-4{fill:#56cd8c;stroke-width:5.41px;}</style></defs><path class="cls-1" d="M172.65,77.1a37,37,0,0,1,27.22,10.11A10.52,10.52,0,0,0,207.06,90H210a10.62,10.62,0,0,0,10.62-10.61V14a6,6,0,0,1,6-6H427.2a7.2,7.2,0,0,1,7.2,7.2v196a10.62,10.62,0,0,1-10.61,10.62H365.91a10.61,10.61,0,0,0-10.61,10.61v3.31a10.35,10.35,0,0,0,2.36,6.66,42.85,42.85,0,0,1,9.73,25.32c1.13,22.58-14.91,41.73-35.81,42.78s-38.77-16.42-39.89-39a42.47,42.47,0,0,1,10.18-30.11,10.33,10.33,0,0,0,2.5-6.83v-2.14a10.61,10.61,0,0,0-10.61-10.61H231.19a10.62,10.62,0,0,1-10.61-10.62V156A10.62,10.62,0,0,0,210,145.4h-5.34a10.37,10.37,0,0,0-6.56,2.27A36.6,36.6,0,0,1,176.6,156c-20.91,1-38.74-15.76-39.82-37.53S151.75,78.15,172.65,77.1Z"/><path class="cls-2" d="M76.21,269.73a37,37,0,0,1,10.1-27.22,10.53,10.53,0,0,0,2.82-7.19v-2.9a10.61,10.61,0,0,0-10.62-10.61H13.11a6,6,0,0,1-6-6V15.18A7.2,7.2,0,0,1,14.29,8h196a10.61,10.61,0,0,1,10.61,10.61V76.47a10.62,10.62,0,0,0,10.62,10.61h3.3a10.38,10.38,0,0,0,6.67-2.36A42.82,42.82,0,0,1,266.81,75c22.58-1.13,41.73,14.91,42.78,35.82s-16.42,38.76-39,39.88a42.47,42.47,0,0,1-30.11-10.18,10.34,10.34,0,0,0-6.84-2.5h-2.13a10.62,10.62,0,0,0-10.62,10.61v62.57a10.62,10.62,0,0,1-10.61,10.62H155.12a10.61,10.61,0,0,0-10.61,10.61v5.35a10.34,10.34,0,0,0,2.27,6.56,36.58,36.58,0,0,1,8.29,21.45c1.05,20.91-15.76,38.74-37.53,39.83S77.26,290.63,76.21,269.73Z"/><path class="cls-3" d="M133.12,334.31c1,20.9,20.2,36.94,42.78,35.81a42.77,42.77,0,0,0,25.31-9.74,10.49,10.49,0,0,1,6.66-2.35h3.31a10.61,10.61,0,0,1,10,7.08c0,.19,0,.4,0,.59v65.41a6,6,0,0,1-6,6H14.55a7.2,7.2,0,0,1-7.2-7.21v-196A10.6,10.6,0,0,1,18,223.31H75.84a10.62,10.62,0,0,0,10.61-10.63v-3.29a10.4,10.4,0,0,0-2.35-6.67,42.66,42.66,0,0,1-9.73-25.31c-1.14-22.58,14.9-41.73,35.81-42.78s38.76,16.42,39.89,39a42.49,42.49,0,0,1-10.19,30.11,10.32,10.32,0,0,0-2.5,6.83v2.13A10.61,10.61,0,0,0,148,223.31h62.58a10.61,10.61,0,0,1,10.61,10.61v55.17a10.54,10.54,0,0,0,.62,3.57v3.83a10.62,10.62,0,0,1-10.62,10.61H209a10.33,10.33,0,0,1-6.83-2.5,42.4,42.4,0,0,0-30.1-10.18C149.54,295.54,132.07,313.41,133.12,334.31Z"/><path class="cls-4" d="M478.35,448.9c20.85,1.83,39.37-14.93,41.35-37.45A42.77,42.77,0,0,0,513.54,385a10.43,10.43,0,0,1-1.42-6.92l.45-3.28A10.61,10.61,0,0,1,521,365.9l.59.09,64.78,9a6,6,0,0,1,5.14,6.8l-27.55,198.7a7.2,7.2,0,0,1-8.13,6.14L361.64,559.69a10.62,10.62,0,0,1-9.06-12l7.95-57.33a10.61,10.61,0,0,0-9.06-12l-3.26-.45a10.41,10.41,0,0,0-6.94,1.41,42.69,42.69,0,0,1-26.4,6.17c-22.52-2-39.29-20.5-37.46-41.35S299,408.06,321.51,410a42.47,42.47,0,0,1,28.42,14.23,10.3,10.3,0,0,0,6.42,3.41l2.11.3a10.63,10.63,0,0,0,12-9.06l8.59-62a10.61,10.61,0,0,1,12-9.05l54.65,7.58a10.43,10.43,0,0,0,3.62-.13l3.8.53a10.62,10.62,0,0,1,9.05,12l-.29,2.11a10.41,10.41,0,0,1-3.42,6.43A42.37,42.37,0,0,0,444.2,404.8C442.21,427.31,457.51,447.07,478.35,448.9Z"/></svg>