<svg xmlns="http://www.w3.org/2000/svg" viewBox="0 0 471.66 449"><defs><style>.cls-1{fill:#63c089;}.cls-1,.cls-2,.cls-3,.cls-4,.cls-5,.cls-6,.cls-7,.cls-8{stroke:#231f20;stroke-miterlimit:10;}.cls-1,.cls-3,.cls-7{stroke-width:3.03px;}.cls-2{fill:#a3ddee;}.cls-2,.cls-4,.cls-5,.cls-6,.cls-8{stroke-width:3.3px;}.cls-3{fill:#fbb05c;}.cls-4{fill:none;}.cls-5{fill:#f496bf;}.cls-6{fill:#eba3c8;}.cls-7{fill:#7bb5e3;}.cls-8{fill:#fff;}</style></defs><g id="Python"><path class="cls-1" d="M463.5,214.58c0,26.55-2.25,43.73-5.61,55.67-7.48,30.36-33.69,57.05-61.79,57.05-1,0-6.77.05-14.05.08h-.65c-8,0-23.58-.14-30.26-.16l-3.14,0v62.65h-.06c0,.78.06,1.59.06,2.39a50.43,50.43,0,0,1-50.27,50.59H179.2A49.94,49.94,0,0,1,143.66,428a50.54,50.54,0,0,1-14.72-35.76c0-.8,0-1.61.05-2.39h-.05V279.33a55.55,55.55,0,0,1,55.33-55.69H295.43l.78-.06c20.74,0,38.47-8.37,50.7-21.48,9.52-10.22,15.24-23.29,15.24-37.55V107.46H411l1.41,0v0h.72A27.39,27.39,0,0,1,422.2,109c15.38,8.32,31.23,27.37,37,58C461.87,179.07,463.5,195.89,463.5,214.58Z"/><line class="cls-2" x1="348" y1="327.63" x2="253.16" y2="327.63"/><path class="cls-3" d="M121.42,122.22c-.2-4-1.62-34.07.85-56.95,0,0,1.15-13.32,6.61-24a46.49,46.49,0,0,1,5.21-8.3s1.19-1.47,2.58-2.88c3.5-3.56,20.18-12.12,37.86-19.47-4,1.5-12.7,6.06-18.29,12.46-5.43,6.22-9.38,12.71-10.66,17a59.16,59.16,0,0,0-2.38,19.26c.39,13.9.26,35,0,62.41Z"/><line class="cls-4" x1="121.91" y1="118.03" x2="143.97" y2="107.46"/><line class="cls-4" x1="121.69" y1="104.02" x2="143.98" y2="93.34"/><line class="cls-4" x1="121.6" y1="88.67" x2="143.65" y2="78.1"/><line class="cls-5" x1="121.59" y1="73.04" x2="144.11" y2="63.01"/><line class="cls-3" x1="123.73" y1="57.79" x2="143.49" y2="48.92"/><line class="cls-3" x1="129.27" y1="41.66" x2="149.72" y2="31.67"/><path class="cls-3" d="M68.64,130c-6.3,4-17.57,9.26-23.87,13.27-6,3.81-11.87,6.49-18,10.34-.61.39-3.44,4.82-3.81,5.44-2.8,4.67-4.24,8.58-7.29,17-2.87,7.93-5,16.79-6.62,38.42-1.88,25.31-2.82,38-.44,53.88,2.29,15.33,3.9,26.37,11,38,12.3,20,39.42,29.46,52.09,33.16A.23.23,0,0,0,72,339c-5.95-3-15.47-8.74-20.14-14.24a99.17,99.17,0,0,1-15-23.7c-2.13-4.82-5.95-14.62-7.9-36.61a261.75,261.75,0,0,1,2.9-66.1c3.07-18.46,5-29.43,12.38-42.67C50.56,144.27,63.14,135,68.64,130Z"/><line class="cls-3" x1="13.27" y1="188.95" x2="36.62" y2="177.6"/><line class="cls-3" x1="17.26" y1="172.74" x2="45.13" y2="157.21"/><line class="cls-5" x1="8.63" y1="225.46" x2="29.28" y2="215.42"/><line class="cls-5" x1="6.65" y1="247.42" x2="27.88" y2="237.1"/><line class="cls-6" x1="12.83" y1="289.44" x2="30.74" y2="280.74"/><line class="cls-6" x1="18.96" y1="308.71" x2="38.17" y2="299.37"/><line class="cls-6" x1="8.56" y1="270.26" x2="29.36" y2="260.15"/><line class="cls-6" x1="32.65" y1="321.51" x2="45.56" y2="315.24"/><line class="cls-3" x1="9.78" y1="206.84" x2="33.79" y2="196.01"/><path class="cls-2" d="M111.54,121.6h1.95c10,.07,26.48.17,29.94.17h.64C142.4,121.51,125,121.53,111.54,121.6Zm-.82,0h0Zm-31,219.1h1.41l-1.41,0Z"/><path class="cls-7" d="M363.07,59.35h.06V169.46a54.67,54.67,0,0,1-.7,8.75,55.4,55.4,0,0,1-54.63,46.73H196.63l-.78.07c-20.73,0-38.47,8.34-50.69,21.4-9.52,10.18-15.24,23.21-15.24,37.41V340.7H81.11l-1.41,0v0H79a28,28,0,0,1-9.11-1.52c-15.38-8.31-31.23-27.29-37-57.8-2.63-12-4.26-28.78-4.26-47.4,0-26.45,2.26-43.57,5.62-55.46,7.48-30.26,33.69-56.84,61.78-56.84,1,0,7.15-.05,14.76-.08h2.77c10,.07,26.48.17,29.94.17h.64V59.35h.05c0-.78-.05-1.58-.05-2.39A50.32,50.32,0,0,1,194.33,6.58H312.86A50.33,50.33,0,0,1,363.13,57C363.13,57.77,363.1,58.57,363.07,59.35Z"/><line class="cls-2" x1="101.9" y1="121.75" x2="196.73" y2="121.75"/><path class="cls-3" d="M109.24,340.69c-.2,3.52-1.3,31.38,1.17,51.26,0,0,1.46,14.21,6.66,23.9,1,1.76,3.56,6.46,3.9,6.83,0,0,1.25,1.75,2.83,3.55,3.07,3.51,26.64,12.06,38.87,13.2-4-1.31-12.71-5.26-18.29-10.83-5.43-5.41-9.38-11.05-10.67-14.77a45.2,45.2,0,0,1-2.37-16.74c.39-12.08-1.17-32.59-1.42-56.39C122.66,340.57,116.5,340.83,109.24,340.69Z"/><line class="cls-6" x1="108.59" y1="352.56" x2="129.19" y2="345.13"/><line class="cls-6" x1="109.73" y1="368.53" x2="130.32" y2="361.1"/><line class="cls-3" x1="109.16" y1="386.12" x2="129.76" y2="378.68"/><line class="cls-3" x1="111.86" y1="400.61" x2="130.32" y2="393.94"/><line class="cls-6" x1="117.07" y1="415.85" x2="133.01" y2="410.07"/><line class="cls-6" x1="127.31" y1="428.57" x2="140.72" y2="424.67"/></g><g id="Eye"><path class="cls-8" d="M190.9,38.06A19.73,19.73,0,1,1,171.23,57.8,19.71,19.71,0,0,1,190.9,38.06Z"/><path class="cls-8" d="M302,372.05a19.73,19.73,0,1,1-19.67,19.73A19.71,19.71,0,0,1,302,372.05Z"/></g></svg>