<svg xmlns="http://www.w3.org/2000/svg" viewBox="0 0 487.72 486.46"><defs><style>.cls-1{fill:#5d6bb2;}.cls-2{fill:#fcb966;}.cls-3{fill:#fff;}</style></defs><g id="Layer_2" data-name="Layer 2"><path class="cls-1" d="M150.75,120.68S146,73.07,151,58.28c2.38-7.11,12.19-19.26,18-24,7.71-6.29,26.43-14.26,36-17,10.4-3,32.18-4.93,43-5,12.06-.07,36.7.77,48,5,7.73,2.9,21.09,13.24,27,19s17.4,19,20,27c9.36,28.77,11.9,93.64-1,121-9.56,20.27-41.56,56-62.35,64.37-20.36,8.17-67.17-2-86.86,3.78-13.77,4.05-34.75,30.89-40.93,44s-4.63,34.75-8.86,48.83c-6,20.12-63.89,7-84,1-9-2.69-25-13.81-31-21-4.37-5.24-9.57-18.32-11-25-5.89-27.37-7.5-84.76-1-112,1.89-7.94,9.34-23.12,15-29,6-6.21,21.67-14.78,30-17,46.38-12.36,192-1,192-1l-1-22Z"/></g><g id="Layer_3" data-name="Layer 3"><path class="cls-2" d="M342.39,366.24s4.73,47.61-.23,62.41c-2.38,7.11-12.19,19.25-18,24-7.71,6.29-26.43,14.26-36,17-10.41,3-32.18,4.93-43,5-12.06.07-36.7-.77-48-5-7.73-2.9-21.09-13.24-27-19s-17.4-19-20-27c-9.36-28.77-4.11-92.06,2.45-119.86,3.62-15.31,28.17-39.83,42.61-46.06,20.84-9,67.42,3.22,88.29-5.69,20.24-8.62,51.44-40.07,60.24-60.23,5.21-11.93,6.53-40.32,12.74-51.75,9.66-17.76,57.56-5.46,77.67.59,9,2.69,25,13.81,31,21,4.37,5.24,9.57,18.32,11,25,5.88,27.37,7.5,84.76,1,112-1.89,7.93-9.34,23.11-15,29-6,6.21-21.67,14.78-30,17-46.38,12.35-192,1-192,1l1,22Z"/></g><g id="Layer_4" data-name="Layer 4"><circle class="cls-3" cx="229.95" cy="63.56" r="20.69"/><circle class="cls-3" cx="267.57" cy="426.63" r="20.69"/></g></svg>