<svg id="Layer_1" data-name="Layer 1" xmlns="http://www.w3.org/2000/svg" xmlns:xlink="http://www.w3.org/1999/xlink" viewBox="0 0 800 800"><defs><style>.cls-1,.cls-18{fill:none;}.cls-2{fill:#faf4ed;}.cls-3{fill:#f5a0c5;}.cls-4{fill:#5d6bb2;}.cls-5{fill:#c3a2cc;}.cls-6{fill:#85bde7;}.cls-7{clip-path:url(#clip-path);}.cls-8{fill:#150f3a;}.cls-9{clip-path:url(#clip-path-3);}.cls-10{fill:#9c6a55;}.cls-11{clip-path:url(#clip-path-5);}.cls-12{fill:#986753;}.cls-13{clip-path:url(#clip-path-9);}.cls-14{fill:#f15b3a;}.cls-15{clip-path:url(#clip-path-15);}.cls-16{fill:#865a47;}.cls-17{clip-path:url(#clip-path-17);}.cls-18{stroke:#5a5c5d;stroke-miterlimit:10;stroke-width:3px;}.cls-19,.cls-20{fill:#5a5c5e;}.cls-20{font-size:53.3px;font-family:Poppins-Bold, Poppins;font-weight:700;}</style><clipPath id="clip-path"><rect class="cls-1" x="191.61" y="41.25" width="107.52" height="141.44"/></clipPath><clipPath id="clip-path-3"><rect class="cls-1" x="222.39" y="130.33" width="46.52" height="50.13"/></clipPath><clipPath id="clip-path-5"><rect class="cls-1" x="228.68" y="128.88" width="39.45" height="33.23"/></clipPath><clipPath id="clip-path-9"><rect class="cls-1" x="169.54" y="161.32" width="150.76" height="53.82"/></clipPath><clipPath id="clip-path-15"><rect class="cls-1" x="209.81" y="91.99" width="69.97" height="20.76"/></clipPath><clipPath id="clip-path-17"><rect class="cls-1" x="214.94" y="49.41" width="60.14" height="95.48"/></clipPath></defs><rect class="cls-2" x="103.8" y="0.74" width="592.4" height="798.52"/><rect class="cls-3" x="198.11" y="540.34" width="53.97" height="53.97"/><rect class="cls-4" x="198.11" y="624.68" width="53.97" height="53.97"/><rect class="cls-5" x="412.02" y="540.34" width="53.97" height="53.97"/><rect class="cls-6" x="412.02" y="624.68" width="53.97" height="53.97"/><g id="Layer_1-2" data-name="Layer 1"><g class="cls-7"><path class="cls-8" d="M244.07,41.37m15.62,2.93Zm0,0ZM289,136.9s0,0,0,0Zm.48,2.72h0S289.49,139.5,289.52,139.62Zm-88.85,3.52c0,.13-.1.42,0,.16C200.65,143.23,200.71,143,200.67,143.14Zm-.43,2.42c-.07.46-.15.95-.22,1.4A5.94,5.94,0,0,0,200.24,145.56Zm-.4,2.63h0Zm-5.92,32.31Zm.23.07Zm13.6,1.76h0Zm-2.48.33c-4.39-.08-10.42-.86-13.63-2.8,3.86-15.44,8.82-30.72,10.44-46.68,3.83-33.81-4.38-93.45,42.82-91.88,64.78,2.14,31.4,96.41,54.22,139.45C268.13,182.33,236.17,174.6,205.27,182.66Z"/></g><g class="cls-7"><path class="cls-8" d="M237.67,42.43l.19-.06h-.05l-.14,0S237.68,42.42,237.67,42.43Zm-.9.53-.11,0,.13,0h.05l.28-.09.08,0Zm-2.85.88h0l.16,0,0,0h0Zm-2.5,1,.08,0,.12-.05.27-.12.62-.28.12-.06-.26.11-.12,0-.08,0-.08,0a0,0,0,0,1-.05,0C231.83,44.57,231.62,44.68,231.42,44.81Z"/></g><g class="cls-9"><path class="cls-10" d="M262.33,150l.06.19-.06-.19Zm-3,30.41a88.52,88.52,0,0,1-14-1.28h0c-7.87-2.31-26.9-8.67-21.29-19.27.69-1.46,1.22-3,2-4.43h0c.29-.57,2.49-7.56,2.49-7.56a18.91,18.91,0,0,0,.32-2.38h0c.13-2.18.28-6.43.28-6.43-.11-1.79-.09-4-.18-5.86,0,0,6.12-1.19,9.21-1.67h0c.17,0,17.16-2,23.29,2.28,0-.31.45.68.45.68-.1,3-.17,6-.12,9h0v0h0a.76.76,0,0,0,0,.15h0l.06,1h0c.1,1.21.3,2.41.37,3.61,0,.24.08.47.12.71,0,0,.28,1.17.47,1.74h0v0h0c.64,1.51,1.69,4.59,1.69,4.59.66,1.19.94,2.55,1.56,3.75h0a11.47,11.47,0,0,0,.78,1.3h0c.24.49.86.76.89,1.33h0s0,0,0,0a.23.23,0,0,0,.08.11C270,167.44,267.6,181.27,259.36,180.43Z"/></g><g class="cls-9"><path class="cls-10" d="M229.47,133.07h.06l.05-.05h0Zm.26.1,0,0h.21l.2,0h-.26Zm-.93.29,0,0h0Z"/></g><g class="cls-11"><path class="cls-12" d="M246.11,155.53c-4.64.09-8.59-2.54-11.79-5.67-3.5-3-6-5.32-5.13-10.25v0h0v-.1s0,0,0,0a15.68,15.68,0,0,0-.23-2.05h0c-.67-5.36-.47-4.67,4-3,4.6.81,9.38,2.21,14.12,1.68h0c6.36,1,15.43-10.35,15.5-6.29-.65,2.15-.48,4.52-.72,6.72-.55,7.65,1.31,8-5.44,13.25C253.47,152.48,250.48,155.8,246.11,155.53Z"/></g><g class="cls-11"><path class="cls-10" d="M261.64,140.6s0,0,0,0,0-.2,0-.3v-.11h0l0,0v-.28c0-.1,0-.2,0-.3l0-.3v-.3c0-.12,0-.25,0-.37s0-.26,0-.38h0s0-.05,0-.08,0,0,.05,0h0l0,0h.06a0,0,0,0,1,0,0v.07s0,.08,0,.12h0v0h0a.49.49,0,0,0,0,.12c0,.19,0,.38,0,.57s0,.4,0,.6,0,.2,0,.3,0,0,0,0v.1c0,.18,0,.35,0,.53a0,0,0,0,1-.05,0Z"/></g><g class="cls-11"><path class="cls-10" d="M261.56,144s0,0,0,0v-.05a.34.34,0,0,1,0-.1,1.77,1.77,0,0,1,0-.23h0c0-.14,0-.27,0-.41h0a1.62,1.62,0,0,0,0-.22s0-.07,0-.11,0-.05,0-.07,0,0,.05,0h0v0l0-.55c0-.09,0-.19,0-.28s0-.2,0-.3a0,0,0,0,1,.05-.05,0,0,0,0,1,0,.05c0,.11,0,.22,0,.34s0,.19,0,.29,0,.24,0,.36h0a0,0,0,0,1,0,.05v.16h0a.28.28,0,0,0,0,.09.09.09,0,0,0,0,0,.28.28,0,0,1,0,.09,1.93,1.93,0,0,1,0,.24h0v0h0v0h0v.29a.86.86,0,0,0,0,.16s0,0,0,.07a.11.11,0,0,1,0,.05.05.05,0,0,1,0,0h0v0a0,0,0,0,1,0,0h0s0,0,0,0h0Z"/></g><g class="cls-11"><path class="cls-10" d="M268,162.09l0,0,0,0,0-.06h0l-.08-.1h0l0,0h0l-.13-.15-.05-.07,0-.05-.1-.12h0l0,0,0,0,0,0a.05.05,0,0,1,0,0,0,0,0,0,1,0,0h0s0,0,0,0h0a.05.05,0,0,1,.05-.06s.06,0,.08.06l.07.08.08.08.15.17.12.19h0l0,.05a.8.8,0,0,1,.13.19,0,0,0,0,1,0,.06h0s0,0,0,0Z"/></g><g class="cls-13"><path class="cls-14" d="M307,182.62c.08-.17.36-.32.47-.48-.37,0-1.24,1.05-1.32.63.5-.5,1.25-.67,1.72-1.15-12.54-7.27-31.8-5.23-39.41-19.14h0c-.31-1.4-1.23,0-2,.39h0c-4.17,3.74-9.55,5.51-15,6.39h0a49.75,49.75,0,0,1-12.37-.25h0l-1.31-.28h0c-5.66-1.19-11.77-2.65-15.56-7.39,0,0-.05,0-.05.07h0a14.36,14.36,0,0,1-.93,2.35h0a11.27,11.27,0,0,1-.62,1.06h0q-.53.75-1.11,1.44h0a20.75,20.75,0,0,1-3.14,2.86h0a9.4,9.4,0,0,1-1.11.64,85.59,85.59,0,0,1-11,4.39h0c-7.15,2-14.31,3.82-20.76,7.62,1.79,2.22,4.53,3.76,6.56,5.74,3.51,2.49,7,5.64,10.92,7.76a174.31,174.31,0,0,0,18.21,7.85c2.62,1.18,5.5,1.29,8.14,2.38,8,1.18,16.62,2.25,24.84,1.49-.21-.2.27-.25.11,0,.3,0,1.68-.31,1.18,0,2.92.39,7.62-1.6,9.38-1.49h.39c2.87-.21,5.79-2.2,8.54-1.95,2.63-1,5.26-2,7.92-2.86-.16.06-.75.07-.43-.16,3.28-.77,6.18-3.18,9.23-4.41C295.32,192.57,300.9,187.18,307,182.62Z"/></g><g class="cls-13"><path class="cls-14" d="M288.82,196.3l0,0a1.82,1.82,0,0,1,.34-.46l0,0c-.12.09-.24.18-.35.28l-.14.14.09.07Z"/></g><g class="cls-13"><path class="cls-14" d="M303.05,186l-.45.32-.25.19a0,0,0,0,1,0,0A4.65,4.65,0,0,0,303.05,186Z"/></g><g class="cls-13"><path class="cls-14" d="M301.47,187.15a33.26,33.26,0,0,0-4.17,3.4l.89-.6c.32-.21.65-.4,1-.62A20.78,20.78,0,0,0,301.47,187.15Z"/></g><g class="cls-13"><path class="cls-14" d="M208.28,198.86a5.63,5.63,0,0,0-.62-.37,10.68,10.68,0,0,0-1.31-.55l.48.24C207.31,198.42,207.79,198.65,208.28,198.86Z"/></g><g class="cls-13"><path class="cls-14" d="M268.09,162h0a.25.25,0,0,1,0,.07l0-.07Z"/></g><g class="cls-15"><path class="cls-16" d="M279.22,92.17Zm.09.11h0Zm-4.67,7.88h0Zm0,.08s0,0,0-.07A.25.25,0,0,0,274.62,100.24Zm.05.12h0Zm-1.2,9.39Zm1.43,2.37c-2.59-1.62-1.47-5.68-1.67-8.31h0c6.94-22.77,8.86-4.59,3.94,6.78h0A2.78,2.78,0,0,1,274.9,112.12Z"/></g><g class="cls-15"><path class="cls-16" d="M211.48,92.66Zm0,0h0Zm0,0h0Zm0,0,0,0h0Zm-1.49.83h0Zm5.28,6.84Zm.11,12.2Zm.18.17h0c-4.21-1.51-3.65-7.3-4.36-10.93h0c-.48-2.71-1.69-5.38-1.32-8.18.06-.82.82-1.85,1.61-1h0l0,0h0a3.51,3.51,0,0,1,.68,1c.82,1.77,1.47,3.62,2.36,5.36h0a10.64,10.64,0,0,0,.76,1.31c.24.33.47.8.8,1C214.4,100.11,220.7,111.82,215.59,112.72Z"/></g><g class="cls-17"><path class="cls-10" d="M245.16,50Zm0,0Zm0,0Zm0,0Zm0,0Zm0,0Zm0,0Zm0,0Zm0,0Zm0,0Zm0,0Zm0,0Zm0,0Zm0,0Zm0,0Zm0,0Zm0,0Zm0,0Zm0,0Zm0,0Zm0,0Zm0,0Zm0,0Zm0,0Zm0,0Zm0,0Zm0,0Zm0,0Zm0,0Zm0,0Zm0,0Zm0,0-5,10-.11,0C239.52,60.1,240.68,59.87,240.16,60Zm7,.65Zm0,0Zm0,0Zm0,0Zm0,0Zm0,0Zm0,0Zm0,0Zm0,0Zm0,0Zm0,0Zm0,0Zm0,0Zm0,0Zm0,0Zm0,0Zm0,0Zm0,0Zm0,0Zm0,0Zm0,0Zm0,0Zm0,0Zm0,0Zm0,0Zm0,0Zm0,0Zm0,0Zm0,0Zm0,0Zm0,0Zm0,0Zm6.25.11Zm-16.45.36Zm0,0Zm0,0Zm0,0Zm0,0Zm0,0Zm0,0Zm0,0Zm0,0Zm0,0Zm0,0Zm0,0Zm0,0Zm0,0Zm0,0Zm0,0Zm0,0Zm0,0Zm0,0Zm0,0Zm0,0Zm0,0Zm0,0Zm0,0Zm0,0Zm0,0Zm0,0Zm0,0Zm0,0Zm0,0Zm0,0Zm0,0Zm17.73.32Zm0,0Zm0,0Zm0,0Zm0,0Zm0,0Zm0,0Zm0,0Zm0,0Zm0,0Zm0,0Zm0,0Zm0,0Zm0,0Zm0,0Zm0,0Zm2.92,1.19ZM229,64.25l-.37.22C228.91,64.4,229.45,64,229,64.25ZM216.18,84.79A10.74,10.74,0,0,0,216,85.9,9.37,9.37,0,0,0,216.18,84.79Zm-.39,2.49Zm-.72,7Zm53.7,29.38Zm0,0Zm0,0Zm0,0Zm0,0Zm0,0Zm0,0Zm0,0Zm0,0Zm0,0Zm0,0Zm0,0Zm0,0Zm0,0Zm0,0Zm0,0Zm0,0Zm0,0Zm0,0Zm0,0Zm0,0Zm0,0Zm0,0Zm0,0Zm0,0Zm0,0Zm0,0Zm0,0Zm0,0Zm0,0Zm0,0Zm0,0ZM256,139.48Zm0,0Zm0,0Zm0,0Zm0,0Zm0,0Zm0,0Zm0,0Zm0,0Zm0,0Zm0,0Zm0,0Zm0,0Zm0,0Zm0,0Zm0,0Zm0,0Zm0,0Zm0,0Zm0,0Zm0,0Zm0,0Zm0,0Zm0,0Zm0,0Zm0,0Zm0,0Zm0,0Zm0,0Zm0,0Zm0,0Zm0,0Zm-12.32,5.41a22.1,22.1,0,0,1-5.36-2.2,31.11,31.11,0,0,1-9.36-8,46.29,46.29,0,0,1-6.67-9.13c-3.57-6.5-6.22-13.61-6.63-21a61.67,61.67,0,0,1,1.22-24,25.05,25.05,0,0,1,12.43-16.48c3.88-3.08,9.05-3.85,13.74-4.81a48.21,48.21,0,0,1,1.71-8.39,7.77,7.77,0,0,1,.44-1.39c.12,0,.48,3.26.85,4.75.35,1.71.42,3.43.79,5.16h0a2.12,2.12,0,0,1,.49.06l.29.07c17.38,2.76,23.89,12.56,27,29,.58,4,.3,8,.32,12A65,65,0,0,1,273.18,113a74,74,0,0,1-6.47,14.89C261.2,135.36,253.72,144.69,243.72,144.9Z"/></g></g><g id="Layer_2" data-name="Layer 2"><circle class="cls-18" cx="245.65" cy="119.24" r="87.91"/></g><rect class="cls-19" x="401.32" y="118.05" width="218" height="24.56"/><rect class="cls-19" x="401.32" y="161.32" width="218" height="24.56"/><rect class="cls-19" x="181.9" y="249.84" width="125.8" height="24.56"/><rect class="cls-19" x="181.9" y="295.29" width="125.8" height="24.56"/><rect class="cls-19" x="181.9" y="335.88" width="125.8" height="24.56"/><rect class="cls-19" x="338.42" y="249.84" width="280.9" height="24.56"/><rect class="cls-19" x="338.42" y="295.29" width="280.9" height="24.56"/><rect class="cls-19" x="338.42" y="335.88" width="280.9" height="24.56"/><rect class="cls-19" x="181.29" y="400.02" width="125.8" height="24.56"/><rect class="cls-19" x="181.29" y="445.47" width="125.8" height="24.56"/><rect class="cls-19" x="181.29" y="486.06" width="125.8" height="24.56"/><rect class="cls-19" x="337.81" y="400.02" width="280.9" height="24.56"/><rect class="cls-19" x="337.81" y="445.47" width="280.9" height="24.56"/><rect class="cls-19" x="337.81" y="486.06" width="280.9" height="24.56"/><rect class="cls-19" x="202.75" y="708.37" width="176.06" height="24.56"/><rect class="cls-19" x="202.75" y="751.63" width="176.06" height="24.56"/><rect class="cls-19" x="423.83" y="708.37" width="176.06" height="24.56"/><rect class="cls-19" x="423.83" y="751.63" width="176.06" height="24.56"/><rect class="cls-19" x="486.42" y="555.04" width="115.46" height="24.56"/><rect class="cls-19" x="486.42" y="639.38" width="115.46" height="24.56"/><rect class="cls-19" x="274.32" y="555.04" width="115.46" height="24.56"/><rect class="cls-19" x="274.32" y="639.38" width="115.46" height="24.56"/><text class="cls-20" transform="translate(399.05 88.23)">Resume</text></svg>