<svg xmlns="http://www.w3.org/2000/svg" xmlns:xlink="http://www.w3.org/1999/xlink" viewBox="0 0 2019.51 1870.34"><defs><style>.cls-1,.cls-17{fill:none;}.cls-2{fill:#c3a2cc;}.cls-3{fill:#62187a;}.cls-4{fill:#fff;}.cls-5{fill:#f05a39;}.cls-6{clip-path:url(#clip-path);}.cls-7{fill:#12083a;}.cls-8{clip-path:url(#clip-path-4);}.cls-9{fill:#9c6954;}.cls-10{clip-path:url(#clip-path-5);}.cls-11{clip-path:url(#clip-path-6);}.cls-12{fill:#976652;}.cls-13{clip-path:url(#clip-path-10);}.cls-14{clip-path:url(#clip-path-11);}.cls-15{fill:#855946;}.cls-16{clip-path:url(#clip-path-13);}.cls-17,.cls-18{stroke:#61d397;stroke-miterlimit:10;}.cls-17{stroke-width:30px;}.cls-18,.cls-20{fill:#5b6cca;}.cls-18{stroke-width:12px;}.cls-19{fill:#61d397;}.cls-21{fill:#336d4d;}</style><clipPath id="clip-path"><rect class="cls-1" x="358.11" y="36.36" width="1128.62" height="1484.68"/></clipPath><clipPath id="clip-path-4"><rect class="cls-1" x="681.15" y="971.46" width="488.33" height="526.19"/></clipPath><clipPath id="clip-path-5"><polygon class="cls-1" points="693.89 981.48 1182.22 981.48 1169.48 1497.65 681.15 1497.65 693.89 981.48"/></clipPath><clipPath id="clip-path-6"><rect class="cls-1" x="747.17" y="956.27" width="414.11" height="348.82"/></clipPath><clipPath id="clip-path-10"><rect class="cls-1" x="126.43" y="1296.7" width="1582.54" height="564.97"/></clipPath><clipPath id="clip-path-11"><rect class="cls-1" x="549.14" y="568.99" width="734.49" height="217.88"/></clipPath><clipPath id="clip-path-13"><rect class="cls-1" x="602.95" y="122.04" width="631.29" height="1002.25"/></clipPath></defs><g id="Layer_3" data-name="Layer 3"><path class="cls-2" d="M325.42,1870.34h-199c-29.74,0-94.72-32.78-94.72-62.52V773.53c0-29.75,51.11-62.52,80.85-62.52h191.6c29.74,0,88.33,32.77,88.33,62.52V1807.82C392.49,1837.56,355.16,1870.34,325.42,1870.34Z"/></g><g id="Layer_6" data-name="Layer 6"><rect class="cls-3" x="77.13" y="1141.14" width="278.53" height="27.69" rx="13.85"/></g><g id="Layer_5" data-name="Layer 5"><path d="M83.3,1075.85c0,1.2-1.44,2.32-1.92,3.44a11.82,11.82,0,0,0-.8,3.92c0,5,4.32,8.72,8.32,11.2,1.36.88,5,.88,5.28,1,3.92,0,7-4.72,7.2-6.4a15.88,15.88,0,0,1,1.28-4.72l1.44-3.52c.64-1.52.56-3.44,1.68-4.72.8-1,2.88-4.32,4.4-4.56a16.84,16.84,0,0,1,2-.16c3.92,0,5.28,3,7.12,4.64a22.3,22.3,0,0,1,6.24,14.4c0,3-.4,6.64-1.76,9-1.12,2.08-1.6,5-4,5.92-1,.4-1.28,1.6-3,1.6-1.2,0-2.24-.72-2.24-1.36a1.46,1.46,0,0,1,1.12-1.28c3.44-.64,6-7.52,6-12.24,0-5.36-2.8-14.08-9.2-15.6-3.84.64-4.32,7.92-5,9.2-1.36,2.8-1.68,5.2-3.2,7.44-.56.88-1.36,3.36-2.08,3.84a17.35,17.35,0,0,1-9.6,2.72c-3.6,0-7-2.48-9.36-4.4-3.76-3.12-6.72-6.08-6.72-11.6,0-1.92.32-9.44,5.2-10.32C82.42,1073.37,83.3,1074.81,83.3,1075.85Z"/><path d="M80.66,1035.05c0,1.6-.16,3.2-.16,3.68.16,3.36.64,7.12,2.24,10.16,1,2-.48,4,2.08,5.28s5.76,1.44,8.48,1.44c1,0,4,1,6,1,1.36,0,2.08-.4,2.08-1.6,0-2.56-1.12-5.92-1.92-8.88-.4-1.6-1.36-3-1.36-4.56,0-.56-.4-.8-.72-1.28s.16-1.2.16-1.84c0-.4-.48-1-.48-1.36,0-.16.32-.24,1.44-.24,1.6,0,1,2.64,1.84,3.44,1,1.12.48,2.72,1.6,3.6s1.36,3.6,1.84,4.88c.8,2.08,1.84,3.68,2.16,5.84.48,2.64,1.12,2.56,3.36,2.56h6.24c1.76,0,5-1.92,5-3.2a47.16,47.16,0,0,0,.48-4.72,23.15,23.15,0,0,0-2.24-9c-1.12-2.64-1.68-5.28-4.08-7-.4-.32-.56-.56-.56-.8,0-.8,1.36-1.36,2.4-1.36,3.44,0,4.08,6,5.92,8.16.88,1,.56,2.72,1.68,4.08.88,1,1.52,6,1.52,8.56,0,9.6-8.4,10.32-17.6,10.32A42,42,0,0,1,95,1060.17c-1.2.08-2.48.24-3.76.24a8.79,8.79,0,0,1-4.32-1c-1.28.08-2.32,1.28-3.52,1.28s-4.64-3.12-4.64-4.8c0-.88.56-1.92.56-3.2,0-.88-1.52-2.4-1.52-3.28,0-.32.08-.64.08-1,0-3.6-1-6.48-1-10.64,0-2.72.64-6.72,2.56-6.72h.16C80.42,1031.05,80.66,1033.05,80.66,1035.05Z"/><path d="M89,995.28c-1.76,0-5.2,1.12-6.24,2.8s-1.84,3.2-1.84,5c0,6.32,6.56,10,10.32,13.44,1,.4,2.08.64,3.12,1,.72.32,1.52,1.28,2.24,1.28a15.05,15.05,0,0,1,2.64.4,2,2,0,0,1,.64-.08c.64,0,1.2,1,3,1,7.12,0,17.44,0,17.44-10.32,0-4.56-2.4-9.92-5.6-13.52-1.52-1.76-4.64-3.12-4.64-4.88,0-1,.16-2.88,1.44-3,2.32.48,3.84,2.24,5.2,4.08a53.57,53.57,0,0,1,4.08,5.44,15.75,15.75,0,0,0,1.68,2.56c1,1,1,2.56,1.52,3.84a18.54,18.54,0,0,1,1.36,6.08,7.48,7.48,0,0,1-.16,1.84c-.56,2.48-3,7.12-6.32,9.2-3,1.84-9.84,2.64-13.84,2.64-2.64,0-6.8.08-9.52-1.36a19.44,19.44,0,0,0-3-1c-3.6-1.12-6.8-4.32-10.08-7.2-3.36-2.56-5.84-8.8-5.84-12.24,0-2.48,1.36-4.32,2.32-6.56.72-.88,1.92-1,2.88-1.52s1-1.12,2-1.12a9.09,9.09,0,0,0,2.88-.8c.8-.4,1-1.2,2-1.2s2.48.72,2.56,1.92C91,994.64,90.18,995.28,89,995.28Z"/><path d="M111.54,975.11c2.56.16,4.64,1,7.6,1h1.44c1.44,0,6.32.64,6.32,4.56a1.61,1.61,0,0,1-1.68,1.52c-.64,0-1.28-.24-1.92-.24s-1.12.08-1.36.08c-.4,0-.64-.16-1.76-1s-3.28-.56-4.48-.8c-6.4-1.12-12.48-2.24-18.64-2.24-3.28,0-6.8-1.44-10.24-1.44-1.2,0-2.16.64-3,.64-1.52,0-2.24-1.44-4.16-2.4-1.68-.8-3.84-1.84-3.84-3.44,0-1.12,2-2.32,2-4.64,0-2-1-4.4-1.2-6a25.23,25.23,0,0,1-.32-4.24c0-7.44,1.84-14.64,8.72-14.64,3,0,4.72,1.92,7.36,3.28,1.36.72,1.84,1.92,3,3,0,0,1.76,1.2,2.08,2.08,1.36,3.68,3.92,7.52,4.16,10.88.16,1.92.16,6.24.48,7a2.65,2.65,0,0,0,1.68-1.28c.56-.56,1.12.24,2.4-2.4.8-.64,1.52-1,1.52-2.16,0-.4,2-1.76,2.32-2.24a34.32,34.32,0,0,0,5.36-9.44c0-2.24,1.44-3.92,4.32-3.92,1.92,0,2.08,1.84,2.08,2.72,0,2.64-3.44,3.12-3.92,6.08-.24,1.84-2.24,4-3.28,5.6-2,3.2-4.8,5.6-7.28,8.64-.64.88-.56,1.12-1.52,1.68a9.27,9.27,0,0,0-2.72,2.24C105.22,975.27,109.06,975,111.54,975.11Zm-31-16.8c0,4.16,2,7.6,2.88,11.68.4,1.92,10.08,3.36,14.8,3.36a28.32,28.32,0,0,0,.16-3.68c0-5.52-1.2-11.28-4-15.76-1.36-2.16-.88-2.08-2.16-3.2l-1.84-2.08a12.69,12.69,0,0,0-5.44-2.08A2.4,2.4,0,0,0,82.82,948C80.82,950,80.5,956.07,80.5,958.31Z"/><path d="M80.66,907.91c0,1.6-.16,3.2-.16,3.68.16,3.36.64,7.12,2.24,10.16,1,2-.48,4,2.08,5.28s5.76,1.44,8.48,1.44c1,0,4,1,6,1,1.36,0,2.08-.4,2.08-1.6,0-2.56-1.12-5.92-1.92-8.88-.4-1.6-1.36-3-1.36-4.56,0-.56-.4-.8-.72-1.28s.16-1.2.16-1.84c0-.4-.48-1-.48-1.36,0-.16.32-.24,1.44-.24,1.6,0,1,2.64,1.84,3.44,1,1.12.48,2.72,1.6,3.6s1.36,3.6,1.84,4.88c.8,2.08,1.84,3.68,2.16,5.84.48,2.64,1.12,2.56,3.36,2.56h6.24c1.76,0,5-1.92,5-3.2a47.16,47.16,0,0,0,.48-4.72,23.15,23.15,0,0,0-2.24-9c-1.12-2.64-1.68-5.28-4.08-7-.4-.32-.56-.56-.56-.8,0-.8,1.36-1.36,2.4-1.36,3.44,0,4.08,6,5.92,8.16.88,1,.56,2.72,1.68,4.08.88,1,1.52,6,1.52,8.56,0,9.6-8.4,10.32-17.6,10.32A42,42,0,0,1,95,933c-1.2.08-2.48.24-3.76.24a8.79,8.79,0,0,1-4.32-1c-1.28.08-2.32,1.28-3.52,1.28s-4.64-3.12-4.64-4.8c0-.88.56-1.92.56-3.2,0-.88-1.52-2.4-1.52-3.28,0-.32.08-.64.08-1,0-3.6-1-6.48-1-10.64,0-2.72.64-6.72,2.56-6.72h.16C80.42,903.91,80.66,905.91,80.66,907.91Z"/><path d="M76.26,865.18A42.59,42.59,0,0,1,79,875.34,6.2,6.2,0,0,0,80.5,879a14.4,14.4,0,0,0,2.24.16c3,0,6.16-.24,9.2-.24,3.44,0,6.72.8,10.08.8,2.16,0,4.32-.32,6.4-.32,3.92,0,7.84,1.12,11.76,1.12,2.08,0,4.08-.72,5.84-.72,1.2,0,2.88.8,2.88,3.36,0,2-1.6,2.32-4.24,2.32a23.13,23.13,0,0,1-5.76-.64c-2.88-.8-6.08-.4-9.12-.64-1.2-.08-2.48-.16-3.68-.16-1.68,0-3.44.24-5.2.24-1.52,0-3.28-.72-4.88-.72-.56,0-1.12.32-1.68.24a6.65,6.65,0,0,0-1.84-.48,9.82,9.82,0,0,0-3.2.56c-.4,0-1-.4-1.68-.4s-1.28.16-1.84.16c-1.6,0-3.28-.08-4.88-.08.48,2.72,1.52,5.44,1.84,8.16.24,1.44,1.28,3.44,1.28,5.12a2.23,2.23,0,0,1-2.32,2.48c-2.64,0-3.12-.72-3.52-2.72-.48-3-.08-5.92-.88-8.88-.72-2.72-1-5.52-1.92-8.16a6.06,6.06,0,0,1-.4-1.52c0-.4.24-1.12.24-1.92a16.43,16.43,0,0,0-.72-3.44,31.56,31.56,0,0,1-1.28-8.16,12.26,12.26,0,0,1-.4-2.56c0-1,.4-1.84,1.92-1.84C76.42,860.94,75.86,863.74,76.26,865.18Z"/><path d="M89.81,825.18c-.33,1.15-2,1.83-2.79,2.78a11.85,11.85,0,0,0-1.85,3.55c-1.38,4.84,1.76,9.57,4.93,13,1.06,1.22,4.52,2.21,4.81,2.37,3.77,1.08,8.07-2.6,8.68-4.17a16.2,16.2,0,0,1,2.53-4.19l2.35-3c1-1.28,1.48-3.15,2.91-4.08,1-.7,4-3.36,5.48-3.17a18.06,18.06,0,0,1,2,.39c3.77,1.08,4.26,4.3,5.57,6.42a22.31,22.31,0,0,1,2,15.56c-.82,2.85-2.21,6.28-4.18,8.21-1.65,1.69-2.92,4.41-5.47,4.59-1,.12-1.67,1.19-3.36.71-1.16-.33-2-1.31-1.78-1.93a1.46,1.46,0,0,1,1.43-.92c3.48.33,7.83-5.58,9.13-10.12,1.47-5.15,1.17-14.31-4.56-17.53-3.87-.44-6.33,6.43-7.3,7.49-2.08,2.31-3,4.53-5.12,6.27-.78.69-2.23,2.86-3.06,3.12a17.35,17.35,0,0,1-10,0c-3.46-1-6.09-4.32-7.79-6.8-2.76-4-4.79-7.69-3.28-13,.53-1.85,2.9-9,7.84-8.49C89.65,822.55,90.1,824.18,89.81,825.18Z"/><path d="M169,779.85c-.95.1-2.09,0-3.2.11-6.21.69-12.74,4.15-18.11,6.6a36.92,36.92,0,0,1,.18,4.48,16.88,16.88,0,0,0,.52,2.52c.16,1.51-.47,3.76,0,7.57.17,1.51.56,2.92,1.6,2.8,1.75-.19,5.87-2.9,7-3.18,2.5-.68,4.55-1.79,7.63-2.38a29.48,29.48,0,0,1,4.45-1.21c.87-.1,1.54.07,1.6.62.21,1.91-3.76,3.88-5.69,4.58l-5.18,1.94c-1.94.7-3.94,2.21-6,2.67-1.5.33-2.24,1.62-3.63,2.18l3,17.45c.19.95-2.55,2.38-3,2.43a3.31,3.31,0,0,1-2.08-.65c-.19-1-.3-2-.41-2.94l-.44-4c-.4-3.66-.94-11.41-2.34-11.65-1.22-.19-1.36-.74-1.5-1.93-.15-1.35,1.39-2,1.26-3.2,0-.32-.15-.63-.19-.94-.05-.48.15-.83.1-1.3-.11-1-.57-2.27-.68-3.23-.32-2.94-.32-6.56-.48-9.44a1.56,1.56,0,0,0-.89-.06c-.48,0-1.11.2-1.66.26a1.31,1.31,0,0,1-1.51-1.28c-.58-5.25,7.7-6.73,9.78-7.6,5.78-2.33,11.73-4.52,17.94-5.21,1.43-.16,3.72.23,3.9,1.1C171.1,779.13,170.43,779.69,169,779.85Z"/><path d="M213.21,807.62c-.08,1.28-1.12,2.16-1.52,3.44a24.47,24.47,0,0,1-7,10.64c-.4.32-4.4,4.08-5,4.08-1,0-1.92,1-2.88,1.28-2.4.64-5,1.76-7.6,1.76-.88,0-5.52-1-5.52-1.44,0-.88-1.76-.32-1.76-1.12s-1.76-2.64-2-3.44a19.15,19.15,0,0,1-1.36-6.88V810.5c0-1.36,1-2.72,1.2-4.08.24-1.76.64-3.2,1-5,.24-1,1.2-1.6,1.2-2.56.24-1.68,1.2-3,1.68-4.56.24-1,0-1.28.72-1.92a33,33,0,0,0,3.92-5.92c.72-1.2.72-2.56,1.76-3.6.32-.32,1.36-.8,1.52-1.52.08-.4,1.36-1.44,1.6-1.76a5,5,0,0,1,2.64-1.52c1.12,0,2.4.4,3.52.4.48,0,1.12-.4,1.52.16,1,1.36,5.12,2.64,7.12,4a19.22,19.22,0,0,1,5.28,4.88c.32.56.08,1.28.48,1.68.88.8,1.12,2.48,1.12,4.24a70,70,0,0,1-1,10.4C213.93,805.14,213.29,806.34,213.21,807.62Zm-14.32,13.44c2.16-1.44,4.16-2.56,5.76-4.64,1-1.36,3.52-3.76,3.68-5.36.24-2.32,1.6-4.48,1.84-6.64s1.12-4.4,1.12-6.72a20.27,20.27,0,0,0-1.44-7.52c-.88-2.32-2.64-3.44-4.8-4.72-1.12-.64-3.68-2.08-5.52-2.08-1.44,0-3.76,2-5.68,2.8-1,.4-2.56,3.76-3.28,5a49.47,49.47,0,0,0-2.88,5.84c-.24.64-1,1.68-1,2.24,0,.24.08.4.08.56,0,.88-.8.8-1.12,1.76-1.28,3.52-2.64,7.84-2.64,11.92a20.8,20.8,0,0,0,2.24,9.2,15.57,15.57,0,0,0,5.92,1.36c1.84,0,2.56-1,4.08-1C196.57,823.06,197.69,821.86,198.89,821.06Z"/><path d="M229.85,814.1c-.16,2.56-1,4.64-1,7.6v1.44c0,1.44-.64,6.32-4.56,6.32a1.61,1.61,0,0,1-1.52-1.68c0-.64.24-1.28.24-1.92s-.08-1.12-.08-1.36c0-.4.16-.64,1-1.76s.56-3.28.8-4.48c1.12-6.4,2.24-12.48,2.24-18.64,0-3.28,1.44-6.8,1.44-10.24,0-1.2-.64-2.16-.64-3,0-1.52,1.44-2.24,2.4-4.16.8-1.68,1.84-3.84,3.44-3.84,1.12,0,2.32,2,4.64,2,2,0,4.4-1,6-1.2a25.23,25.23,0,0,1,4.24-.32c7.44,0,14.64,1.84,14.64,8.72,0,3-1.92,4.72-3.28,7.36-.72,1.36-1.92,1.84-3,3,0,0-1.2,1.76-2.08,2.08-3.68,1.36-7.52,3.92-10.88,4.16-1.92.16-6.24.16-7,.48a2.65,2.65,0,0,0,1.28,1.68c.56.56-.24,1.12,2.4,2.4.64.8,1,1.52,2.16,1.52.4,0,1.76,2,2.24,2.32a34.32,34.32,0,0,0,9.44,5.36c2.24,0,3.92,1.44,3.92,4.32,0,1.92-1.84,2.08-2.72,2.08-2.64,0-3.12-3.44-6.08-3.92-1.84-.24-4-2.24-5.6-3.28-3.2-2-5.6-4.8-8.64-7.28-.88-.64-1.12-.56-1.68-1.52a9.27,9.27,0,0,0-2.24-2.72C229.69,807.78,230,811.62,229.85,814.1Zm16.8-31c-4.16,0-7.6,2-11.68,2.88-1.92.4-3.36,10.08-3.36,14.8a28.32,28.32,0,0,0,3.68.16c5.52,0,11.28-1.2,15.76-4,2.16-1.36,2.08-.88,3.2-2.16l2.08-1.84a12.69,12.69,0,0,0,2.08-5.44,2.4,2.4,0,0,0-1.44-2.08C255,783.38,248.89,783.06,246.65,783.06Z"/><path d="M322.38,823.91c1.33-1.15,3.2-4.25,2.89-6.2s-.7-3.62-1.9-5c-4.13-4.78-11.5-3.27-16.6-3.42-1,.38-2,.88-3,1.26-.75.22-2,0-2.53.49a15.42,15.42,0,0,1-2.26,1.43,2,2,0,0,1-.43.47c-.48.42-1.59,0-3,1.21-5.39,4.65-13.2,11.4-6.45,19.21,3,3.45,8.3,5.93,13.08,6.57,2.3.33,5.55-.68,6.7.65.63.73,1.76,2.29.85,3.19-2.07,1.15-4.37.81-6.61.31a54.88,54.88,0,0,1-6.64-1.45,16,16,0,0,0-2.95-.84c-1.4-.16-2.46-1.26-3.66-1.91a18.6,18.6,0,0,1-5-3.71,7.21,7.21,0,0,1-1.08-1.5c-1.2-2.24-2.42-7.32-1.24-11.09,1-3.33,5.72-8.43,8.75-11,2-1.73,5.09-4.51,8.09-5.19a19.59,19.59,0,0,0,3-1.21c3.46-1.5,8-1.17,12.34-1.14,4.21-.26,10.17,2.84,12.42,5.44,1.62,1.88,1.79,4.16,2.53,6.49,0,1.13-.77,2-1.18,3s-.06,1.53-.78,2.15a9.26,9.26,0,0,0-1.66,2.49c-.34.83.06,1.54-.73,2.22s-2.35,1.07-3.19.22C321.29,825.7,321.47,824.69,322.38,823.91Z"/><path d="M306.87,858c-2.56-.16-4.64-1-7.6-1h-1.44c-1.44,0-6.32-.64-6.32-4.56a1.61,1.61,0,0,1,1.68-1.52c.64,0,1.28.24,1.92.24s1.12-.08,1.36-.08c.4,0,.64.16,1.76,1s3.28.56,4.48.8c6.4,1.12,12.48,2.24,18.64,2.24,3.28,0,6.8,1.44,10.24,1.44,1.2,0,2.16-.64,3-.64,1.52,0,2.24,1.44,4.16,2.4,1.68.8,3.84,1.84,3.84,3.44,0,1.12-2,2.32-2,4.64,0,2,1,4.4,1.2,6a25.23,25.23,0,0,1,.32,4.24c0,7.44-1.84,14.64-8.72,14.64-3,0-4.72-1.92-7.36-3.28-1.36-.72-1.84-1.92-3-3,0,0-1.76-1.2-2.08-2.08-1.36-3.68-3.92-7.52-4.16-10.88-.16-1.92-.16-6.24-.48-7a2.65,2.65,0,0,0-1.68,1.28c-.56.56-1.12-.24-2.4,2.4-.8.64-1.52,1-1.52,2.16,0,.4-2,1.76-2.32,2.24a34.32,34.32,0,0,0-5.36,9.44c0,2.24-1.44,3.92-4.32,3.92-1.92,0-2.08-1.84-2.08-2.72,0-2.64,3.44-3.12,3.92-6.08.24-1.84,2.24-4,3.28-5.6,2-3.2,4.8-5.6,7.28-8.64.64-.88.56-1.12,1.52-1.68a9.27,9.27,0,0,0,2.72-2.24C313.19,857.85,309.35,858.17,306.87,858Zm31,16.8c0-4.16-2-7.6-2.88-11.68-.4-1.92-10.08-3.36-14.8-3.36a28.32,28.32,0,0,0-.16,3.68c0,5.52,1.2,11.28,4,15.76,1.36,2.16.88,2.08,2.16,3.2l1.84,2.08a12.69,12.69,0,0,0,5.44,2.08,2.4,2.4,0,0,0,2.08-1.44C337.59,883.13,337.91,877.05,337.91,874.81Z"/><path d="M337.75,925.21c0-1.6.16-3.2.16-3.68-.16-3.36-.64-7.12-2.24-10.16-1-2,.48-4-2.08-5.28s-5.76-1.44-8.48-1.44c-1,0-4-1-6-1-1.36,0-2.08.4-2.08,1.6,0,2.56,1.12,5.92,1.92,8.88.4,1.6,1.36,3,1.36,4.56,0,.56.4.8.72,1.28s-.16,1.2-.16,1.84c0,.4.48,1,.48,1.36,0,.16-.32.24-1.44.24-1.6,0-1-2.64-1.84-3.44-1-1.12-.48-2.72-1.6-3.6s-1.36-3.6-1.84-4.88c-.8-2.08-1.84-3.68-2.16-5.84-.48-2.64-1.12-2.56-3.36-2.56h-6.24c-1.76,0-5,1.92-5,3.2a47.16,47.16,0,0,0-.48,4.72,23.15,23.15,0,0,0,2.24,9c1.12,2.64,1.68,5.28,4.08,7,.4.32.56.56.56.8,0,.8-1.36,1.36-2.4,1.36-3.44,0-4.08-6-5.92-8.16-.88-1-.56-2.72-1.68-4.08-.88-1-1.52-6-1.52-8.56,0-9.6,8.4-10.32,17.6-10.32a42,42,0,0,1,13.12,1.92c1.2-.08,2.48-.24,3.76-.24a8.79,8.79,0,0,1,4.32,1c1.28-.08,2.32-1.28,3.52-1.28s4.64,3.12,4.64,4.8c0,.88-.56,1.92-.56,3.2,0,.88,1.52,2.4,1.52,3.28,0,.32-.08.64-.08,1,0,3.6,1,6.48,1,10.64,0,2.72-.64,6.72-2.56,6.72h-.16C338,929.21,337.75,927.21,337.75,925.21Z"/><path d="M345.27,957.54a24.08,24.08,0,0,1-3.28.72c-3.92.8-7.76,4.4-12.32,5.28a59.9,59.9,0,0,0-6.48,1.84c-2.64.4-5.68.24-8.08,1.52.56,3.12,1.2,4.16,1.44,7.6-.56.56-2.64-.16-3.2-2.32-1.12-2.08-1.28-3.52-2.08-4.8l-3.2.4c-3.28.32-6.56.08-9.92.4-.72,0-1.36.24-1.84.24-.88,0-2.32-2.56-2.32-3.84a.75.75,0,0,1,.4-.72c.72-.16,1.6-1.2,2.24-1.2,2.16,0,4,.88,6.16.88,2.48,0,4.88-.64,7.36-.88-1.12-3-2.08-5.92-3-8.88-.64-2.08-1.6-8.8-3.52-9.36a107.11,107.11,0,0,0-13-3.28c-2.56-.48-5.84-1.2-5.84-4.48,0-1.2,1-1.92,2.4-1.92,1.84,0,4,1.28,5.44,1.92a35.35,35.35,0,0,0,7.52,2.24c3.76.72,7.36,1.92,11,2.56,2.32.4,4.48,1.76,6.8,2.24,4.56,1,9,2.88,13.28,4.48,3,1,6.24,1.68,8.72,3.36.56.32,1.52,1.12,2.16,1.12s1.44-.4,2.16-.4c1.36,0,2.08,1.76,2.08,3a3.59,3.59,0,0,1-.8,2.16A.61.61,0,0,1,345.27,957.54Zm-19-6.8a36.45,36.45,0,0,0-4.24-1c-1.28-.32-2.24-1.12-3.52-1.28-3-.4-5.68-2.08-8.72-2.24,0,1.76.72,3.28,1.2,5,.16,3.92,2.48,7,2.64,10.8,6.08,0,11.36-2.72,17.2-3.44.8-.08,5.28-2.08,5.28-3.28,0-.4-.72-.56-1.52-.88-1.68-.64-3-1.84-4.8-2.32A26.35,26.35,0,0,1,326.23,950.74Z"/><path d="M342.15,1012.34a42.59,42.59,0,0,1-2.72-10.16,6.2,6.2,0,0,0-1.52-3.68,14.4,14.4,0,0,0-2.24-.16c-3,0-6.16.24-9.2.24-3.44,0-6.72-.8-10.08-.8-2.16,0-4.32.32-6.4.32-3.92,0-7.84-1.12-11.76-1.12-2.08,0-4.08.72-5.84.72-1.2,0-2.88-.8-2.88-3.36,0-2,1.6-2.32,4.24-2.32a23.13,23.13,0,0,1,5.76.64c2.88.8,6.08.4,9.12.64,1.2.08,2.48.16,3.68.16,1.68,0,3.44-.24,5.2-.24,1.52,0,3.28.72,4.88.72.56,0,1.12-.32,1.68-.24a6.65,6.65,0,0,0,1.84.48,9.82,9.82,0,0,0,3.2-.56c.4,0,1,.4,1.68.4s1.28-.16,1.84-.16c1.6,0,3.28.08,4.88.08-.48-2.72-1.52-5.44-1.84-8.16-.24-1.44-1.28-3.44-1.28-5.13a2.23,2.23,0,0,1,2.32-2.47c2.64,0,3.12.72,3.52,2.72.48,3,.08,5.92.88,8.88.72,2.72,1,5.52,1.92,8.16a6.06,6.06,0,0,1,.4,1.52c0,.4-.24,1.12-.24,1.92a16.43,16.43,0,0,0,.72,3.44,31.56,31.56,0,0,1,1.28,8.16,12.26,12.26,0,0,1,.4,2.56c0,1-.4,1.84-1.92,1.84C342,1016.58,342.55,1013.78,342.15,1012.34Z"/><path d="M339.75,1026.74a9.33,9.33,0,0,0-3.28-.48c-.72,0-1.44.16-2.16.16-4.16.16-8.24-.8-12.4-.72a9.8,9.8,0,0,1-1.52.16,4.39,4.39,0,0,1-2.4-.32c-2-1-4.56-.64-6.8-.88-3.44-.4-7-1.44-10.64-1.28-1.52,0-2.32-1-4.32-1-.88,0-1.52-.56-2.4-.48-1.28,0-1.6-.08-2-1.68a10.54,10.54,0,0,1-.4-2.08,1.4,1.4,0,0,1,1.52-1.6c1.6-.08,2.88,1,4.4.88.8,0,1.36.64,1.92.8,3.52,1.52,8.32,1,12.24,1.76,6.72,1.28,13.76,1,20.56,2a2.47,2.47,0,0,0,.8.08c.88-.08,1.76-.32,2.72-.4.8,0,1.6.24,2.4.16.4,0,.88-.08,1.28-.08,3.36-.16,3.76,1,3.76,3.2,0,1.84-.8,2.4-2.08,2.4C340.47,1027.38,340.15,1026.74,339.75,1026.74Z"/><path d="M292.15,1037.13c.08-.32.56-.4,1.2-.4a37.19,37.19,0,0,1,4.88.48,6.78,6.78,0,0,1,3.6.72c6.16,0,13,1.92,19.6,2.64,2.24.4,6.16,1.28,6.88,1.28s.88-1.52,4.48-1.52c1,0,1.36.16,1.36.72,0,1.12-1.36,3-1.68,3.36-.4.64-.56,1.76-.88,2a24.75,24.75,0,0,0-6.08,4.32c-.88.88-1.84.8-3,1.36-3.36,1.6-6,4.16-9.44,5.76a23.27,23.27,0,0,0-4.72,2.72c-1.28,1-4.56,2.08-4.8,3.52a26,26,0,0,0,8.24,1.84c1.68,0,3.28-.24,4.88-.16h2.72c3.28,0,6.48-.48,10.16-.48,1,0,1.76.08,2.72.08,2.24,0,4.72-1.28,7-1.28a2,2,0,0,1,2,2.08c0,1.36-1,2.48-3,2.48-1.12,0-1.44-.4-2.4-.16-4.48,1-9.68.8-14.32.8-3.44,0-7,.32-10.56.32-2.4,0-6.4-.16-8.32-1-1.28-.56-1-.4-2.4-.4-2.16,0-4.48-.72-4.48-3.84,0-2.48,2.4-2.4,3.92-3.28,1-.56,1.52-1.76,2.48-2.4a126.46,126.46,0,0,0,14.24-8.24c2.4-1.6,5-2.4,7.2-4.48-.08-.8-5.76-1.36-6.8-1.44l-5.12-.64c-2.8-.32-5.44-1.52-8.64-1.76-1,0-2,.24-3,.24-1.12,0-2.24-.64-4-.64-1.2,0-2.32.08-3.52.08a4.41,4.41,0,0,1-1.2-2.24A5.29,5.29,0,0,1,292.15,1037.13Z"/><path d="M302.79,1081.62c2.4,0,4.56.88,7,.88,3-.08,6.08,1.52,9,2.4l3.92,1.2c1.76.4,2.24,1,3.68,2,.88.56,1.84.56,2.56,1.36,1.76,2,4.48,3.6,6.56,5.6a40,40,0,0,1,4.08,5.12c2.56,3.68,2.88,6.48,2.88,10.72a11,11,0,0,1-2.08,6.16c-.88,1.36-1.92,4-3.76,4.08a1.9,1.9,0,0,1-1.12-1.84c0-1.76,1.68-4.08,2-5.44a21.34,21.34,0,0,0,.56-4.32c0-4.72-2.24-8.4-5.92-11.84a2.87,2.87,0,0,1-.8-1.12c-.24-.72-2-.88-3-2-1.28-1.44-4.72-3.28-7.2-4.32-1.36-.64-3-.88-4.32-1.6l-2.4-1.28c-3.92-.24-8-1.36-11.84-1.36-4.56,0-6.16,2.08-6.16,4.24,0,7.92,7.36,14.08,12.16,19.44,2,2.24,5,3.28,7.84,4.4,2.32,1,6.48.72,6.48,3.36,0,1.52-1.2,2.24-2.72,2.24a3.89,3.89,0,0,1-1-.08,72.39,72.39,0,0,0-12.48-1.12c-3.36,0-6.72.56-10.08.56-2.24,0-3.12-1.44-3.12-3.28,0-1-1-2.32,3.84-2.32,3.44,0,8.16.4,9.36.4,0-1.44-3.36-3.92-4.24-5-.64-.64-.8-1.76-1.6-2.16-3.28-1.76-4.4-6.16-6.64-9-.88-1.12-1.44-4.32-2.32-5.6-.4-.56-.4-2.24-.4-3.36,0-1.92.48-1.44,1.12-3C293.43,1083.14,299.35,1081.62,302.79,1081.62Z"/><path class="cls-3" d="M119.36,1326.18c0-7.5-3-12.5-7-14v33.41c0,9.3,1.3,16,1.3,18,0,.9-.9,1.5-1.9,1.7a75.14,75.14,0,0,1-13.3,1,88.78,88.78,0,0,1-14.3-1c-.9-.2-1.4-.9-1.4-2.1,0-1.6,1.1-10.7,1.1-17.2v-27.21c0-6.5-.9-11.8-2.6-14.8,1.2-4.2,5.1-7.5,15.8-7.5h15.2c18.4,0,31.6,8.1,31.6,22.4,0,17.81-12.5,23.51-24.1,23.51a7.73,7.73,0,0,1-6-2.3C116.56,1338,119.36,1332.88,119.36,1326.18Z"/><path class="cls-3" d="M183.86,1350.69c5,0,9.7-5,12.3-8.9a3.22,3.22,0,0,1,1.8-.6c2,0,3.6,6.8,3.6,12.8,0,7.1-4.2,12.3-10.2,12.3-5.7,0-14.3-1-18.9-1h-15.6c-1.5,0-2.6-.7-2.6-1.7,0-3.4,1.1-3.4,1.1-7.2v-41.51c0-4-1.6-8.6-3.2-10.1,0-6,6-9.2,15.2-9.2,8.1,0,15.1,2,18.3,5.2-1.3,1.7-1.8,5.1-1.8,9.2Z"/><path class="cls-3" d="M232.86,1296.48c9.9,0,19.1,5.3,21.6,10.6,1.5,3.2,15.5,46.61,16.7,49.31.7,2.1,2.8,4.4,2.8,6.6s-4.6,3.3-15.2,3.3c-8.1,0-12.1-.3-13.9-.6s-2.4-.8-2.4-1.9c0-.6.3-1.5.3-2.2a9,9,0,0,0-.2-1.8l-1.7-5.4h-14.4l-1.4,4.3a8.43,8.43,0,0,0-.6,3c0,.8.2,2.1.2,2.6,0,.7-1,1.5-1.9,1.6a46.71,46.71,0,0,1-6.5.4,50.39,50.39,0,0,1-7.6-.3c-.8-.1-1.5-.4-1.5-1.1s.7-1.4,1.4-3c.8-2,16.4-49,16.9-50.91a63.71,63.71,0,0,0,1.8-8.9C227.56,1299.28,229.76,1296.48,232.86,1296.48Zm.9,28.8-4.1,19.31h8Z"/><path class="cls-3" d="M284.26,1297.58c7.9,0,16.4,2.7,18,8.4,2.2,7.9,3.6,19,5.2,27.9a39.18,39.18,0,0,0,3.9-17.9,18,18,0,0,0-5.4-12.6c3.7-4.7,10.3-7.9,18.9-7.9,8.9,0,14.9,6.5,14.9,14.9,0,14.1-20,30.9-20,36.31v4c0,7.2,1.2,10.9,1.2,12.9,0,.9-.8,1.5-1.9,1.7a73.53,73.53,0,0,1-12.6,1,95.76,95.76,0,0,1-14.8-1c-1-.2-1.4-.9-1.4-2.1,0-1.6,1-5.6,1-12.1v-4.4c0-7.1-14.2-29.71-16.7-33.61a42.49,42.49,0,0,0-6-7.8C268.56,1301.08,274.66,1297.58,284.26,1297.58Z"/><path class="cls-3" d="M107.11,1457.29H71.61c-1,0-1.5-.9-1.5-2.1,0-1.6.9-10.5.9-17v-29.31c0-6.4-.6-12.8-1.9-15.7,0-1.9,2.1-4.5,6.3-4.5h32.4c10.1,0,20.9,4.4,20.9,14.5,0,12.5-9.7,17.4-16.3,18.81,8.6,1.79,18.1,5.7,18.1,17.5C130.51,1451.59,118.51,1457.29,107.11,1457.29Zm-7.6-38.11c3.7,0,6-3.2,6-9.7,0-5-.8-9.8-6-9.8Zm0,28.11c4.2,0,6.6-3.8,6.6-11,0-7-2.1-10.51-6.6-10.6Z"/><path class="cls-3" d="M168.71,1459.39c-23.8,0-35.2-15.5-35.2-37.51,0-20,15.9-34.3,35.2-34.3,18.6,0,35,10.3,35,34.3C203.71,1439.79,192.91,1459.39,168.71,1459.39Zm6.5-34.9c0-13.11-3.7-21.11-7.6-21.11s-5.6,5.6-5.6,17.3c0,15.31,4.4,22.91,8.1,22.91C173.21,1443.59,175.21,1437.09,175.21,1424.49Z"/><path class="cls-3" d="M241.91,1459.39c-23.8,0-35.2-15.5-35.2-37.51,0-20,15.9-34.3,35.2-34.3,18.6,0,35,10.3,35,34.3C276.91,1439.79,266.11,1459.39,241.91,1459.39Zm6.5-34.9c0-13.11-3.7-21.11-7.6-21.11s-5.6,5.6-5.6,17.3c0,15.31,4.4,22.91,8.1,22.91C246.41,1443.59,248.41,1437.09,248.41,1424.49Z"/><path class="cls-3" d="M347.71,1400.18c0,7.9-8.3,16.9-17.9,24.51,7.1,7.59,18.9,22.4,18.9,26.7,0,4.9-11.1,8-22.2,8-3.1,0-5.7-2.2-6.3-4-1.1-3.5-4.7-13.3-7.9-18.8-.1,0-.1.1-.2.1v.9c0,9.3,1.3,16,1.3,18,0,.9-.9,1.4-1.9,1.7a81.59,81.59,0,0,1-13.7,1,82.56,82.56,0,0,1-13.9-1c-.9-.2-1.4-.9-1.4-2.1,0-1.6,1.1-10.7,1.1-17.2v-27.21c0-6.5-.9-11.8-2.6-14.8,0-3.9,4-7.5,15.8-7.5,5.8,0,13.8,2.3,17.2,5.2-1.2,3.7-1.9,8.3-1.9,15.8v10.4c3.8-5.8,7.5-14.5,7.5-17.6,0-4.5-.7-6.6-2.3-8.3,0-2.8,8.1-5.5,14.6-5.5C340.21,1388.48,347.71,1392.88,347.71,1400.18Z"/><path class="cls-4" d="M116.38,1228.4v16.75c0,3.32,1.19,6,1.9,6.24a1.59,1.59,0,0,1,.63,1.34c0,4.11-7,5.93-9.87,5.93-6.32,0-8.77-1.9-10.67-5.06-2.05,3.24-8.14,5.06-14.61,5.06-7.9,0-14.22-2.93-14.22-9.48s4.74-9.72,9.71-11.38A49.06,49.06,0,0,1,95.61,1235c0-11.22-1.82-16.35-4-16.35-2,0-2.93,1.89-2.93,5.6a14.69,14.69,0,0,0,1.43,6.64c-1.82,1.82-6.64,3.32-11,3.32s-7.67-2.85-7.67-8.53c0-9.17,11.38-14.46,23.54-14.46S116.38,1216.08,116.38,1228.4Zm-24.09,22.75c1.26,0,2.84-2,3.32-3.79v-7.74c-3.08,0-6,3.24-6,6.16C89.6,1249.26,90.79,1251.15,92.29,1251.15Z"/><path class="cls-4" d="M160.39,1211.26c10.34,0,16.82,3.87,16.82,9.32a7,7,0,0,1-7.19,6.79,10.79,10.79,0,0,1-7.11-3.23,5.76,5.76,0,0,0,.87-3.16,3,3,0,0,0-2.84-3,3.12,3.12,0,0,0-3.08,3.24,8.28,8.28,0,0,0,4,6.56c9.16,4.19,17.06,8.61,17.06,17,0,9.72-8.77,13.91-21.09,13.91-10.82,0-17-4-17-9.09,0-4.26,4-6.71,7.43-6.71a10.26,10.26,0,0,1,7.58,3.39,6.44,6.44,0,0,0-.79,3.16c0,1.19,1.5,2.53,3.08,2.53a3.16,3.16,0,0,0,3.08-3.39c0-2.37-2.37-5.3-4.74-6.32-4.73-2.06-15.16-6.4-15.16-17.23C141.35,1216.47,150.35,1211.26,160.39,1211.26Z"/><path class="cls-4" d="M231.88,1228.4v16.75c0,3.32,1.18,6,1.89,6.24a1.58,1.58,0,0,1,.64,1.34c0,4.11-7,5.93-9.88,5.93-6.32,0-8.77-1.9-10.66-5.06-2.06,3.24-8.14,5.06-14.62,5.06-7.9,0-14.22-2.93-14.22-9.48s4.74-9.72,9.72-11.38A49,49,0,0,1,211.1,1235c0-11.22-1.81-16.35-3.95-16.35-2,0-2.92,1.89-2.92,5.6a14.84,14.84,0,0,0,1.42,6.64c-1.82,1.82-6.63,3.32-11,3.32s-7.66-2.85-7.66-8.53c0-9.17,11.37-14.46,23.54-14.46C222.56,1211.26,231.88,1216.08,231.88,1228.4Zm-24.1,22.75c1.27,0,2.85-2,3.32-3.79v-7.74c-3.08,0-6,3.24-6,6.16C205.1,1249.26,206.28,1251.15,207.78,1251.15Z"/><path class="cls-4" d="M244.28,1216.16c0-5.06-1.18-9.48-2.29-10.27,0-3.16,4.9-6.08,11.54-6.08,3.31,0,11.45,1.89,14.29,4.18a67.86,67.86,0,0,0-2.76,19.91v19.59c0,5.06,1.26,10.11,1.26,11.77,0,1-.23,1.66-1.1,1.82a46.39,46.39,0,0,1-10,.79,51.5,51.5,0,0,1-10.58-.79,1.59,1.59,0,0,1-1.19-1.66c0-1.35.87-8,.87-12.48Z"/><path class="cls-4" d="M319.57,1234.17c0,2.45-4.9,3.95-11,3.95a83.8,83.8,0,0,1-12.88-1c.32,8.69,2.69,14.54,5.21,14.54,1.74,0,2.37-1.74,2.37-3.87a13.92,13.92,0,0,0-.55-3.72,7.46,7.46,0,0,1,4.66-1.42c4.42,0,8.77,3.48,10.19,7.58-3.16,5.3-9.56,8.46-19.67,8.46-13.66,0-23.22-7.59-23.22-22.67,0-14.46,9.63-24.73,24.25-24.73C311.27,1211.26,319.57,1216.87,319.57,1234.17Zm-24.1-1.82a17.72,17.72,0,0,0,6.48-1c0-8-1.42-12.63-3.32-12.63C296.58,1218.69,295.47,1224.61,295.47,1232.35Z"/><path class="cls-4" d="M344.93,1211.26c10.35,0,16.82,3.87,16.82,9.32a7,7,0,0,1-7.19,6.79,10.75,10.75,0,0,1-7.1-3.23,5.85,5.85,0,0,0,.86-3.16,3,3,0,0,0-2.84-3,3.12,3.12,0,0,0-3.08,3.24,8.28,8.28,0,0,0,4,6.56c9.16,4.19,17.06,8.61,17.06,17,0,9.72-8.77,13.91-21.09,13.91-10.82,0-17-4-17-9.09,0-4.26,4-6.71,7.42-6.71a10.26,10.26,0,0,1,7.58,3.39,6.44,6.44,0,0,0-.79,3.16c0,1.19,1.51,2.53,3.09,2.53a3.17,3.17,0,0,0,3.08-3.39c0-2.37-2.37-5.3-4.74-6.32-4.74-2.06-15.17-6.4-15.17-17.23C325.89,1216.47,334.9,1211.26,344.93,1211.26Z"/></g><g id="Layer_4" data-name="Layer 4"><path class="cls-5" d="M271.36,879v50.78H195.84v21.87c6.51-6,17.44-9.63,30.73-9.63,37,0,54.16,28.9,54.16,61.45,0,41.93-25,65.89-65.88,65.89-45.84,0-72.14-25.52-71.35-60.94h56.24c0,4.17,2.35,11.46,12.24,11.46,9.12,0,12.76-7.29,12.76-17.45,0-10.42-5.21-15.36-13.54-15.36-7.81,0-11.2,4.42-11.2,8.59H143.76V879Z"/></g><g id="Layer_1" data-name="Layer 1"><g class="cls-6"><path class="cls-7" d="M908.73,37.63c-11.45.5-23-.05-34.26,2.56,12.48-.79,24.92-2.09,37.41-2.59C910.84,37.58,909.77,37.62,908.73,37.63ZM834.65,49.74C825,52.27,815.39,54.79,806,58h0c-5.16,1.91-10.22,4.1-15.25,6.37,15.19-5.17,31-8.41,46.11-13.77l-.06,0c4-1.39,8-2.87,12-4.27-1.67.36-3.34.67-5,1h.06C840.8,48.13,837.73,49,834.65,49.74Zm238,18.65Zm0,0h0A0,0,0,0,0,1072.68,68.4Zm308.11,972s-.11-.47-.12-.51Zm5,28.57c-.08-.39-.17-.79-.25-1.18C1385.62,1068.2,1385.71,1068.59,1385.79,1069Zm-932.64,36.9c-.26,1-.51,2.12-.72,3.18.31-1.31.62-2.66.93-4Zm-4.5,25.41c-.78,4.9-1.52,9.82-2.3,14.72a73.59,73.59,0,0,0,1.74-8.32s0,0,0,.06a72,72,0,0,0,.93-8.42C448.88,1130,448.76,1130.63,448.65,1131.29Zm-4.24,27.58a.06.06,0,0,0,0-.06S444.42,1158.86,444.41,1158.87Zm-62.12,339.18h0Zm2.4.77.06,0h0l.09-.06Zm142.79,18.52c.06,0,.27,0,.15,0l.1,0Zm-26,3.45c-42.76,2.91-84.94-11.11-124.59-21.3h0c-44.27,15.4,10-103,13.09-122.23a.24.24,0,0,0,0,.08l.45-1.47a.19.19,0,0,0,0,.07c32.62-129.57,67.38-259.23,79.18-392.64,2.3-53.17,8.79-106.08,13.84-159h0c.84-20.88,2.79-41.66,4.28-62.5h0c1.17-19.34,1.68-38.73,3.69-58h0c1.07-25.77.53-51.61,3.16-77.32v0c1.34-18.39,1.62-36.92,3.11-55.27,1.53-22.65,3.72-45.25,6.15-67.82v.07c.28-4.48.56-9.05.86-13.5C506.87,319.6,590,155.38,749.88,83.69l-.06,0c50.15-28,108.63-47.93,167.66-46.88h0c73.22,3.92,151.68,17.51,212.43,62.78l-.06,0c68.42,45,127.7,105.87,159.51,181.86l0-.06c22.29,49.28,36.63,104.2,42.11,158v0c2.37,20.52,3.09,41.18,4.56,61.76v-.07c1.86,17.12,3.71,34.23,5.16,51.38v-.07c1.14,10.89,2.19,21.77,3.21,32.67v0c14.07,87.37,16.21,175.78,20.3,264,4.5,33.56,2.42,67.52,5.76,101.16h0c8.14,61,15.37,122.13,28.07,182.44,0,0,0,0,0-.06,10.73,48.32,18.93,97.14,28.6,145.69,0,0,0,0,0-.06,11.89,55.49,28.37,109.46,44.9,163.66,3.81,27,34.09,72-14.19,63.93h.06c-39.81,8.82-78.37-6.75-117.94-8.61h0c-25,1-50,.59-74.94,2.16h0c-51.09,8.7-101.83-3.73-152.89-5.46h0c-35.42.81-70.22-4.46-104.88-11.27h.05c-13.8-2.28-27.67-4.48-41.68-5h.07c-49.08-3.4-97.7,1.87-146.45,5.6-50.89-6.82-100.45-.6-151,5.89h.11C612.5,1497.64,559.13,1522.57,501.45,1520.79Z"/></g><g class="cls-6"><path class="cls-7" d="M841.61,48.72l1.9-.55-.52.09-1.38.25A.3.3,0,0,1,841.61,48.72Zm-9.46,5.58-1.21.34,1.34-.26.57-.1,2.92-.94.84-.28Zm-30,9.3.25-.05h-.06l1.62-.39a.43.43,0,0,1-.15-.2.27.27,0,0,1,0-.12ZM776,73.7l.83-.33c.41-.16.82-.32,1.22-.5,1-.42,2-.82,2.92-1.26l6.46-2.93,1.27-.58c-.92.4-1.84.78-2.76,1.16l-1.21.5-.88.35a4.59,4.59,0,0,1-.83.21.46.46,0,0,1-.52-.3C780.25,71.18,778.07,72.39,776,73.7ZM752.62,84a.51.51,0,0,1,.09-.7,7.67,7.67,0,0,1,.74-.53l.22-.15,0,0,1-.68c.47-.32,1-.63,1.45-.91a.5.5,0,0,1,.08-.46,1.7,1.7,0,0,1,.46-.38c.18-.12.36-.22.55-.33.44-.26.9-.49,1.36-.73.82-.42,1.65-.81,2.48-1.21l2-.94.42-.24,5.44-3.11c1.84-1,3.68-2.11,5.52-3.14a117.25,117.25,0,0,1,11-5.09c1.84-.79,3.66-1.61,5.49-2.41s3.88-1.66,5.82-2.45,3.75-1.5,5.64-2.2,3.92-1.42,5.91-2.05c1.33-.42,2.67-.83,4-1.2.14-.05.28-.11.43-.15l1.65-.49c1-.28,1.94-.56,2.91-.82L823.42,52c1.71-.46,3.41-.93,5.12-1.38l.73-.19c2.68-.8,5.36-1.6,8.06-2.35l5.34-1.48,2.37-.64.93-.24.87-.22c.33-.08.66-.13,1-.19a.5.5,0,0,1,.53.3.51.51,0,0,1-.15.59.85.85,0,0,1-.25.17,4.19,4.19,0,0,1-.68.23l-.8.24-.23.07a1.88,1.88,0,0,1,.34,0l.51.12a.54.54,0,0,1,.25.16l1.25-.33,1.71-.43c.43-.1.87-.19,1.3-.27a3.94,3.94,0,0,1,.69-.07,2.26,2.26,0,0,1,.41.09.49.49,0,0,1,.36.44q3.07-.62,6.15-1.17c4-.72,8.07-1.38,12.13-1.89s8.22-1,12.34-1.41,8.45-.82,12.69-1.15c2-.16,4-.3,6.07-.36s4.25-.11,6.38-.13c4.11,0,8.21,0,12.32,0,2,0,4,0,6,0s4.21,0,6.32.12,4.22.19,6.33.31l2.89.15c.88,0,1.75.09,2.63.07a.27.27,0,0,1,.08-.07,1,1,0,0,1,.86-.2,1.16,1.16,0,0,1,.4.16.88.88,0,0,1,.3.36.65.65,0,0,1-.09.67.93.93,0,0,1-.39.29,2.8,2.8,0,0,1-.76.12,14.59,14.59,0,0,1-1.48,0c-1,0-2-.09-3-.14L935,42c-4.11-.2-8.23-.2-12.36-.2-3.86,0-7.72,0-11.59,0-2,0-4,0-6,.08s-3.93.13-5.89.24h.09c-4.19.29-8.36.68-12.54,1.08s-8.24.83-12.36,1.34c-1.82.23-3.64.45-5.46.72-2.06.3-4.11.63-6.16,1-3.58.59-7.13,1.28-10.68,2a1.19,1.19,0,0,1-.25.13c-.23.09-.42.15-.65.22l-.72.21-1.35.38-.06,0a.58.58,0,0,1-.27.19c-.54.15-1.1.26-1.65.38l-.54.11-.54.14-.73.19a.5.5,0,0,1,.09.61,1.11,1.11,0,0,1-.37.43,2.47,2.47,0,0,1-.49.24l-.38.14-1.61.57-2.82,1-1.41.47c.41,0,.82,0,1.23,0a2,2,0,0,1,.64.07.79.79,0,0,1,.27.15.51.51,0,0,1,.19.46.49.49,0,0,1-.3.39,2.35,2.35,0,0,1-.78.19c-.22,0-.44,0-.66.05H838a.5.5,0,0,1-.42-.23l-1,.1c-.75.1-1.5.19-2.24.31l-1.27.21c-1.81.58-3.62,1.14-5.44,1.71L821.5,58.9l-8.71,2.71-2.39.73c-.65.2-1.3.41-2,.6l-2.77.8-.45.13-.41.16-1.74.72-.78.34-.55.25c-.2.09-.38.2-.58.27a.5.5,0,0,1-.54-.83l-.14,0a3.42,3.42,0,0,1-.43-.21.5.5,0,0,1-.24-.49c-.87.39-1.75.78-2.61,1.18l-5.7,2.66c-2.13,1-4.26,2-6.4,3-1.51.69-3,1.38-4.55,2-.88.38-1.75.77-2.64,1.12l-1.71.69-.94.36c-.25.09-.5.16-.76.23a3.94,3.94,0,0,1-.69.08.51.51,0,0,1-.55-.63,1.66,1.66,0,0,1,.11-.38,1.84,1.84,0,0,1,.26-.29l.14-.13-.32.14-1,.42-3.59,2.39q-2.46,1.62-5,3.14l-2.33,1.4-1.13.67-.53.31-.25.14a1,1,0,0,1-.28.12l-.17,0a.5.5,0,0,1-.46-.8,2.2,2.2,0,0,1,.2-.23l.46-.37.74-.52c.41-.29.84-.56,1.27-.84.84-.55,1.7-1.08,2.56-1.61l1.81-1.1-.15.08q-2.25,1.1-4.5,2.22l0,0-.72.36.06,0c-1,.53-2.08,1.07-3.1,1.64-.77.47-1.53.94-2.28,1.44l-.88.58-.32.24a4.42,4.42,0,0,1-.67.46.58.58,0,0,1-.26.06A.64.64,0,0,1,752.62,84Z"/></g><g class="cls-6"><path class="cls-7" d="M917.93,37.77l1.32,0h-1.33S917.92,37.76,917.93,37.77ZM993.77,48.2l-.88-.35c-.48-.15-1-.28-1.46-.4s-1-.22-1.45-.31h0c-1.31-.26-2.65-.5-4-.72s-2.71-.44-4.07-.68-2.78-.48-4.17-.74-2.61-.49-3.93-.7c-2.81-.46-5.66-.86-8.49-1.26l-8.23-1.15L949,40.77c-2.67-.37-5.34-.66-8-1l-8.25-.92-4.34-.49-2.09-.23c-.61-.07-1.23-.13-1.85-.17h-.16a.52.52,0,0,1,.07.42.5.5,0,0,1-.42.36,10.71,10.71,0,0,1-1.39.12l-.45,0a.48.48,0,0,1-.14.42.94.94,0,0,1-.33.23,2,2,0,0,1-.44.09l-.4,0h0q-4.24.35-8.51.62c-2.68.17-5.35.29-8,.39s-5.33.2-8,.32c-1.32,0-2.64.12-4,.19l-3.49.2h0c-1.18.09-2.37.17-3.55.28l-1.78.16c-.66.07-1.33.13-2,.21-2,.25-4,.52-6,.87L875,43l-1.68.37a.51.51,0,0,1-.53-.3.67.67,0,0,1,0-.24l-1,.33h0l-.06,0h0a21.87,21.87,0,0,0-2.34,1c-.37.2-.73.4-1.08.63-.18.12-.36.26-.53.39h0l-.28.27,0,0c-.17.2-.32.4-.48.6a.5.5,0,0,1-.7.09.51.51,0,0,1-.09-.7c.12-.16.24-.32.37-.47a5.14,5.14,0,0,1,.71-.69,8.45,8.45,0,0,1,1-.66c.4-.23.82-.44,1.23-.63s.88-.38,1.33-.55c.2-.07.4-.15.6-.21l1.33-.42.66-.2.72-.18a.49.49,0,0,1,.25-.17,6,6,0,0,1,.73-.19l.28-.07.42-.1h-.66a4.17,4.17,0,0,1-.49-.08.51.51,0,0,1-.43-.56.6.6,0,0,1,.16-.39,1.15,1.15,0,0,1,.47-.23c.39-.1.79-.19,1.18-.27.62-.12,1.24-.23,1.86-.32,1.39-.21,2.79-.4,4.18-.57s2.76-.31,4.14-.44,2.8-.22,4.2-.32c.7-.05,1.4-.08,2.1-.12l1.64-.09c1.38-.06,2.76-.13,4.14-.16l3.92-.08,1.46-.1c1.29-.1,2.58-.16,3.87-.22,2.72-.12,5.45-.18,8.17-.21,1.44,0,2.88,0,4.32,0l2.24.08c.7,0,1.41.08,2.11.13,1.28.09,2.55.22,3.82.36l4.36.47,8.22.88c2.74.29,5.48.6,8.22,1,1.34.17,2.68.36,4,.55l4.18.57,8.1,1.12c2.85.39,5.69.8,8.53,1.26,1.28.21,2.55.45,3.82.68,1.43.27,2.87.52,4.3.77,2.68.47,5.37.89,8,1.44.67.14,1.33.3,2,.48.32.09.63.19.94.3a3.66,3.66,0,0,1,.46.18l.74.35a.5.5,0,0,1-.26.94Z"/></g><g class="cls-8"><path class="cls-9" d="M852.17,984h-.08l.72-.05c.29,0,241.22,65,242,33.47,0,0,1.11-1.92,1.11-1.93-1.05,31.44-1.18,95.63-1.14,96.17v-.08c.24,3.53.46,7,.68,10.57V1122c1,12.66,1.85,44.41,5.08,56.7,4.77,18.17,24.58,60.84,24.59,60.85,9.6,14.76,24.61,46.27,24.59,46.24,2.51,5.16,18.32,32.3,19,35.72h0c1.37,32-10.24,63.36-16.78,94.42-5.73,19.11-8.11,40-18.05,57.45-14.77,19-41.08,23.85-63.91,23.82a1.1,1.1,0,0,1-.73.18c-49.08-1.26-98.37-4.48-146.69-13.53h0c-58.51-9.15-105.68-37-154.73-68.15-44.47-24.1-63-40.33-85.23-86.4-3.6-14.46,10.32-34.81,16.57-47.73h0s0,0,0,0h0c7.21-15.28,12.74-31.33,20.36-46.42l0,.06a129.57,129.57,0,0,0,8.12-18.46h0c6.36-20.18,13.33-40.27,18-60.93,0,0,0,0,0,.06a200.9,200.9,0,0,0,3.36-25v0a607.6,607.6,0,0,0,.07-68.55v.07c1.23-8.84-10.3-62.14-2.72-61.39h0c1.2,0,2.46,1.63.53,1.24l.06,0-1.13-.38a1.49,1.49,0,0,0-.3-.09l0,0a3.58,3.58,0,0,0-.29.91s0,0,0,0a60.69,60.69,0,0,0-.22,12.35h0v.07c8.51-32.15,101.79-30.78,101.76-30.78h.07L852,984"/></g><g class="cls-10"><path class="cls-9" d="M755.46,1000.19l.31-.07.32-.07c.19-.15.4-.29.6-.43l0,0Zm2.77,1.08-.5.22c.71,0,1.43-.1,2.14-.17s1.42-.18,2.14-.29h0l.08,0h0l.17,0-.16-.07.07,0-.35-.11-.48-.08-.9,0-1,.07h-.11Zm-9.78,3,.3-.28-.56.12,0,0,.19.12Zm-1,15.54a1.36,1.36,0,0,1-.57-.13.77.77,0,0,1-.34-.55,3,3,0,0,1-.06-.59c0-.12,0-.25,0-.37,0-.77,0-1.54,0-2.31v-.08c0,.14,0,.27,0,.41a3.58,3.58,0,0,1-.12.87.5.5,0,0,1-.56.34.51.51,0,0,1-.42-.51c0-.17,0-.33,0-.5a.51.51,0,0,1-.36-.49c0-.41,0-.81,0-1.22a.5.5,0,0,1-.38-.51l0-.7a.52.52,0,0,1-.59-.45,6.15,6.15,0,0,1,0-1l0-.77c0-.58,0-1.16.08-1.75s.05-1.16.09-1.73l.06-.91a9.37,9.37,0,0,1,.15-1.39.36.36,0,0,1,0-.11,1.06,1.06,0,0,1-.11-.77.43.43,0,0,1-.1-.09.79.79,0,0,1-.19-.49.75.75,0,0,1,.25-.56l.19-.15c.05-.35.1-.69.16-1a7.38,7.38,0,0,1,.36-1.38.75.75,0,0,1,.76-.51h0a.54.54,0,0,1,.57.05.84.84,0,0,1,.2.18,1.79,1.79,0,0,1,.12.24,7.71,7.71,0,0,1,.14.62c0,.12.05.24.07.36l.21-.11-.05-.07a2,2,0,0,1-.25-.39.54.54,0,0,1,0-.35.51.51,0,0,1,.4-.48.78.78,0,0,1,.22,0,1.58,1.58,0,0,1,.44.11l.36.14.59.25c.34-.16.67-.33,1-.48l-.08,0c1-.45,2-.89,2.94-1.3.42-.18.85-.35,1.28-.49s1.12-.4,1.7-.55l2.39-.6.36-.15a6.45,6.45,0,0,1,3.34-.61.68.68,0,0,1,.45,1l-.06.08a.89.89,0,0,1,.12.53,1.43,1.43,0,0,1-.64.93l-.2.16a4.31,4.31,0,0,1,1.11.28,2.69,2.69,0,0,1,1.13.8,1,1,0,0,1,.23.47.74.74,0,0,1-.14.54,1.08,1.08,0,0,1-.45.34,3.83,3.83,0,0,1-.64.18l-.93.16c-.54.09-1.08.16-1.62.22-1,.13-2.11.19-3.16.25l-1.7.09-.72,0-.28.07c-.42.1-.84.19-1.26.26h0l-.61.1h.09l-.82.13h0c-.34.25-.66.51-1,.77l-.9.77a.77.77,0,0,1,.26.74,1.42,1.42,0,0,1-.36.58c-.05.07-.11.13-.17.2s0,.12,0,.18a1.54,1.54,0,0,1,0,.48,4.27,4.27,0,0,1-.25.79c-.22.56-.45,1.11-.67,1.67l0-.07-.15.39,0-.08a4.22,4.22,0,0,1-.43,1,.66.66,0,0,1-.57.29v0h0c0,.55,0,1.1,0,1.65s0,1.32,0,2c0,1.17-.05,2.34,0,3.51v0h0c0,.17,0,.34,0,.51h0a.5.5,0,0,1-.06,1Z"/></g><g class="cls-11"><path class="cls-12" d="M930.13,1236c-48.72,1-90.16-26.65-123.69-59.5-19.26-16.71-37.5-35.41-52.29-56.52-7.41-14.16,1-34.64-1.63-51.13,0,.63,0-.27,0-.53,0,.09,0,.19,0,.29,0-.2,0-.4,0-.6a2.81,2.81,0,0,1,0,.29c-2-21.65-6.39-43-4.36-64.73,9-8.66,25.22,8,35.27,8.92,51,10.25,104.87,25.11,157.24,20.07,29.45-2,58.43-11.42,84.11-26.13,14.36-7.1,80.18-79.2,77.36-36-5.89,32.79-6,66.11-8.37,99.11-1.35,19.38,5.09,43.62-6.38,60.37-19.67,23.69-44.54,41.43-67,62.37C997,1217.44,965.75,1237.27,930.13,1236Z"/></g><g class="cls-11"><path class="cls-9" d="M1093.21,1079.21a.51.51,0,0,1-.48-.52c0-1,.08-2.08.11-3.12,0-.37,0-.73,0-1.1a.57.57,0,0,1-.29,0,.53.53,0,0,1-.4-.38,1.25,1.25,0,0,1,0-.43c0-.12,0-.23,0-.35l.06-.73.12-1.44c.08-1.06.15-2.12.24-3.18s.19-2,.23-3.08l.12-3.2c0-1.31.1-2.61.14-3.92s.09-2.65.06-4h0c0-.27,0-.53,0-.8a.5.5,0,0,1,.52-.48l.15,0h0a.57.57,0,0,1,.29-.26.48.48,0,0,1,.39,0,.55.55,0,0,1,.2.17.63.63,0,0,1,.1.3,2.51,2.51,0,0,1,0,.39c0,.11,0,.23,0,.34,0,.41,0,.81-.1,1.22h0a.2.2,0,0,1,0-.07,2,2,0,0,1,0,.34s0,0,0,.08a.2.2,0,0,1,0-.07c0,.42-.08.83-.11,1.25,0,2,0,3.94-.11,5.92s-.15,4.24-.21,6.36c0,1-.07,2.1-.11,3.15a.48.48,0,0,1-.18.35c0,.36,0,.72,0,1.09,0,1.86-.1,3.71-.18,5.57a.51.51,0,0,1-.51.48Z"/></g><g class="cls-11"><path class="cls-9" d="M1092.39,1114.39a1.34,1.34,0,0,1-.14-.52c0-.15,0-.31,0-.46,0-.37-.06-.74-.09-1.11,0-.8-.08-1.61-.11-2.41v.07c0-1.41,0-2.82-.06-4.23v.07c0-.76-.06-1.52-.13-2.28,0-.39-.07-.77-.11-1.16a6.32,6.32,0,0,1-.06-.75.51.51,0,0,1,.52-.48.46.46,0,0,1,.2,0c0-.13,0-.25,0-.38.07-1.92.16-3.84.25-5.76.05-1,.09-2,.13-3s.08-2.12.09-3.18a.5.5,0,0,1,.52-.48.51.51,0,0,1,.48.52c0,1.18-.06,2.36-.11,3.54,0,1-.09,2-.14,3-.06,1.26-.12,2.52-.17,3.78h0a.51.51,0,0,1,.48.52c0,.58,0,1.15,0,1.73v-.07a7.16,7.16,0,0,0,.09.92c0,.16.07.32.11.47a4.89,4.89,0,0,1,.16.93c.07.85.1,1.7.12,2.55v-.07c0,.11,0,.23,0,.34v-.07c0,.16,0,.32,0,.48v-.07c0,1,0,2,0,3.07,0,.55-.05,1.11-.09,1.66,0,.23,0,.47-.07.71a5.72,5.72,0,0,1-.11.57.79.79,0,0,1-.23.42l-.12.08v.32a.5.5,0,0,1-.41.47l0,.11a.54.54,0,0,1-.45.29h-.06A.45.45,0,0,1,1092.39,1114.39Z"/></g><g class="cls-11"><path class="cls-9" d="M1159.75,1304.8a.84.84,0,0,1-.28-.25l-.3-.39-.43-.57h0c-.31-.36-.61-.73-.91-1.1h0l-.34-.42,0,0c-.44-.54-.89-1.07-1.32-1.61l-.54-.67-.5-.6c-.34-.42-.66-.86-1-1.28l0,0c0-.07-.11-.13-.17-.2l-.24-.22-.38-.38a.83.83,0,0,1-.25-.41.52.52,0,0,1,.26-.58h0a.55.55,0,0,1-.16-.39v.06a.52.52,0,0,1,.53-.56c.37,0,.65.35.88.6s.47.55.72.81.55.59.84.88a15.64,15.64,0,0,1,1.55,1.8c.45.62.87,1.27,1.27,1.93v0l0,0,.47.55a16.76,16.76,0,0,1,1.37,2,.51.51,0,0,1-.2.68.47.47,0,0,1-.28,0,.18.18,0,0,1,0,.07.49.49,0,0,1-.38.18A.87.87,0,0,1,1159.75,1304.8Z"/></g><g class="cls-13"><path class="cls-5" d="M1562.08,1950c25.21-135,6.29-364.6-18.41-419.83-17.89-40-57.7-50.84-74.46-61.91-52.32-17.6-82.5-25.57-134.65-43.7-70.45-12.11-138.93-48.09-170-115.63-3.57-15.15-12.67,0-20.72,4.09h0c-43.79,39.28-100.29,57.85-157.53,67.09l.36-.08c-42.75,6.12-87.06,2.19-129.8-2.62H857c-4.58-1-9.15-2-13.76-2.89h0c-176.06-28.72-152.26-113-173.64-52.22v0a107.44,107.44,0,0,1-6.56,11.15.1.1,0,0,0,0,0c-3.62,5.21-7.52,10.24-11.64,15.07l0,0c-10.41,10.58-20.58,21.73-33,30h0c-40.28,22.42-83.61,38.34-127.29,52.79l.13,0c-73.69,20.45-163.85,19.65-214.35,78-29.26,33.81-33.15,382.88-23.64,396.48C330,1970,1514.49,1985.89,1562.08,1950Z"/><path class="cls-5" d="M533,1690.8a54.41,54.41,0,0,0-6.5-3.88,125.56,125.56,0,0,0-13.75-5.77c1.68.86,3.34,1.74,5,2.57C522.85,1686.21,527.91,1688.59,533,1690.8Z"/><path class="cls-5" d="M1160.91,1303.49h0a7.37,7.37,0,0,1,.39.74c-.12-.27-.23-.54-.36-.8A.09.09,0,0,1,1160.91,1303.49Z"/></g><g class="cls-14"><path class="cls-15" d="M1277.75,570.83Zm.86,1.19,0,0Zm-49,82.69,0-.06,0,0Zm-.23.92c.11-.23.21-.47.32-.7a.24.24,0,0,1,0-.08Q1229.53,655.27,1229.38,655.63Zm.62,1.2s0-.08,0-.12h0A.43.43,0,0,1,1230,656.83Zm-12.61,98.6v0Zm14.95,24.86a7.47,7.47,0,0,1-1.48-.3l-.75-.27a5.92,5.92,0,0,1-.81-.37c-.22-.12-.45-.24-.66-.38l-.53-.35c-.21-.15-.4-.3-.6-.46s-.4-.35-.6-.53-.32-.31-.47-.47-.31-.33-.46-.5q-.54-.63-1-1.29a30.17,30.17,0,0,1-1.76-2.68c-1.07-1.78-2-3.61-2.91-5.48-.45-.93-.84-1.89-1.23-2.84-.2-.49-.38-1-.56-1.47s-.38-1-.56-1.57-.34-1-.51-1.55-.32-1.11-.46-1.66c-.26-1-.48-2-.67-3q-.6-3.15-.91-6.33c-.11-1.16-.22-2.31-.32-3.46s-.14-2.1-.2-3.16c-.23-4.5-.26-9-.3-13.53s0-8.78,0-13.17v-5.59c0-1.92,0-3.84,0-5.75s0-3.6.09-5.39.14-3.76.27-5.63h0c0-.11,0-.21,0-.32s0-.23,0-.34,0-.17,0-.25l.06-.86c0-.58.09-1.17.14-1.75.08-1,.18-2,.29-3.05.22-2.09.52-4.18.9-6.24q.3-1.6.69-3.18c.27-1.09.59-2.16.94-3.23.66-2.06,1.4-4.1,2.16-6.12a54.39,54.39,0,0,1,2.45-5.59,33.22,33.22,0,0,1,3.49-5.3,20.74,20.74,0,0,1,2-2.22l.41-.37a2.94,2.94,0,0,1,.68-.49,1.06,1.06,0,0,1,.6-.14,2.14,2.14,0,0,1,.27.06l.23.14,1.71-3.73c.9-2,1.78-4,2.58-6,.86-2.18,1.65-4.39,2.45-6.59,1.5-4.11,2.94-8.23,4.44-12.33q1.16-3.15,2.33-6.28,1.23-3.3,2.47-6.59c1.58-4.16,3.25-8.29,5.1-12.33.9-2,1.83-3.92,2.79-5.86s2-4,3.08-6,2.1-3.88,3.27-5.75c.59-1,1.2-1.88,1.82-2.81s1.18-1.72,1.81-2.55c.33-.44.67-.87,1-1.3s.71-.84,1.07-1.25c.16-.18.34-.35.5-.53s.36-.36.55-.53.36-.33.55-.48.51-.41.77-.6a15.83,15.83,0,0,1,2.47-1.48c.45-.22.9-.43,1.36-.62s1-.38,1.52-.54a10.89,10.89,0,0,1,1.5-.35,5,5,0,0,1,1,0l.49.06a3.86,3.86,0,0,1,.66.2,3.27,3.27,0,0,1,.85.53,3.88,3.88,0,0,1,.75.87,7.28,7.28,0,0,1,.66,1.27c0,.11.09.23.14.35s.11.27.16.41l.26.77c.09.26.15.52.23.79.16.55.29,1.11.43,1.66q.38,1.55.66,3.12c.22,1.14.4,2.3.58,3.45.08.52.14,1,.2,1.56,0,.27.06.55.09.82s.07.57.09.86c.1,1.14.2,2.27.28,3.41s.13,2.29.19,3.43.08,2.23.11,3.35,0,2.18.07,3.27c0,2.32,0,4.64.06,7,0,4.49,0,9,0,13.48v6.56c0,2.23,0,4.46,0,6.69,0,1.18,0,2.35,0,3.53s-.07,2.38-.12,3.57c-.09,2.21-.25,4.41-.4,6.61s-.33,4.35-.51,6.53q-.3,3.54-.63,7.08c-.41,4.37-.86,8.74-1.43,13.09s-1.15,8.73-1.73,13.1-1.28,8.8-2,13.19c-.37,2.25-.75,4.49-1.16,6.73s-.84,4.5-1.27,6.75-.82,4.23-1.27,6.34c-.23,1.06-.48,2.12-.75,3.17s-.61,2.13-.93,3.19c-.63,2-1.33,4.06-2,6.07s-1.52,4.16-2.34,6.22-1.66,4.09-2.48,6.14-1.65,4.19-2.45,6.29l-1.29,3.41q-.68,1.75-1.38,3.48c-.9,2.24-1.87,4.45-3,6.61l0-.06c-.48,1-1,1.91-1.59,2.83s-1.11,1.67-1.71,2.48q-.42.57-.87,1.11c-.32.4-.66.8-1,1.18s-.78.81-1.19,1.19-.78.68-1.18,1l-.55.4c-.18.12-.36.25-.55.36-.47.29-.94.55-1.43.81-.83.44-1.68.83-2.53,1.23l-2.67,1.21c-.93.43-1.87.86-2.82,1.23a18.32,18.32,0,0,1-2.72.87c-.21,0-.41.09-.62.12l-.83.1c-.21,0-.41,0-.62,0A6.34,6.34,0,0,1,1232.34,780.29Z"/></g><g class="cls-14"><path class="cls-15" d="M566.69,576l-.06-.06,0,0h0l0,0,0,0Zm0,0,0,0h0Zm0,0,0,0h0l0,0h0Zm.21.19-.2-.19h0Zm-15.55,8.63h0S551.38,584.89,551.37,584.89Zm55.34,71.83Zm1.18,128h0Zm1.85,1.8h0a19.92,19.92,0,0,1-6-1.54,28.8,28.8,0,0,1-3-1.51c-.89-.49-1.73-1-2.57-1.61s-1.77-1.28-2.62-2a27.78,27.78,0,0,1-2.49-2.36c-.71-.73-1.37-1.5-2-2.29s-1.36-1.71-2-2.59a64.51,64.51,0,0,1-3.71-5.78c-1.12-1.92-2.17-3.89-3.15-5.89s-1.82-4.06-2.65-6.13-1.54-4-2.28-6c-1.59-4.32-3-8.7-4.3-13.12-.62-2.07-1.21-4.16-1.71-6.27s-1-4.41-1.32-6.64c-.71-4.52-1.14-9.07-1.52-13.62-.18-2.17-.36-4.34-.57-6.52s-.46-4.51-.68-6.77c-.39-4.12-.7-8.25-1.19-12.36-.46-3.94-1.13-7.85-1.91-11.74h0c-.91-4.43-1.92-8.83-2.95-13.22-.52-2.22-1.06-4.43-1.58-6.64L558,645.36q-.76-3.29-1.59-6.56c-.55-2.14-1.16-4.28-1.73-6.41s-1.2-4.53-1.74-6.81-1-4.3-1.38-6.46-.75-4.48-1-6.73-.54-4.49-.71-6.75-.3-4.32-.34-6.49,0-4.34.13-6.52.3-4.45.62-6.65a25.28,25.28,0,0,1,1.59-5.92c.2-.5.41-1,.64-1.47s.53-1,.82-1.53A16,16,0,0,1,555,574.6a9.53,9.53,0,0,1,2.43-2,5.65,5.65,0,0,1,2.11-.66,6.41,6.41,0,0,1,2.18.18,8,8,0,0,1,1.33.45,12.8,12.8,0,0,1,1.54.74,14.46,14.46,0,0,1,2.48,1.79l-.05,0,.31.27-.05,0A22.45,22.45,0,0,1,571.2,580c1.16,1.8,2.2,3.7,3.19,5.6s1.91,3.72,2.73,5.64,1.69,4.1,2.53,6.14,1.68,4.08,2.51,6.12,1.73,4.32,2.62,6.47c1.71,4.11,3.5,8.19,5.3,12.26.71,1.62,1.44,3.25,2.17,4.87s1.57,3.38,2.36,5.06c1.52,3.24,3,6.48,4.59,9.7h0c1.17,2.34,2.39,4.65,3.7,6.92s2.76,4.58,4.25,6.8a.1.1,0,0,0,0-.05q1.5,2.21,3,4.4c1.1,1.55,2.2,3.11,3.43,4.55l0,0,0,0c.14.15.28.29.43.43l.17.14.13.09.08,0,.06,0h.23a.49.49,0,0,1,.4-.13.51.51,0,0,1,.43.57c-.07.48-.69.62-1.1.58a2.17,2.17,0,0,1-1.25-.71,11.63,11.63,0,0,1-1-1.12c-1.32-1.67-2.55-3.4-3.77-5.15l-.93-1.34c.09.67.18,1.34.31,2a15.78,15.78,0,0,0,.49,1.79,39.28,39.28,0,0,0,1.55,3.8c.93,1.82,2,3.59,2.89,5.41a63.62,63.62,0,0,1,2.65,5.9,123.45,123.45,0,0,1,4.07,12.28c1.2,4.31,2.34,8.64,3.29,13,.5,2.3,1,4.61,1.47,6.92.45,2.14.91,4.29,1.35,6.44s.85,4.3,1.25,6.46.84,4.5,1.21,6.75.7,4.46.91,6.7.34,4.4.41,6.61c.12,4.36,0,8.72-.09,13.08s-.39,8.88-.93,13.29a29.58,29.58,0,0,1-1.43,6.24,24.08,24.08,0,0,1-1.25,3.07c-.23.44-.45.88-.7,1.3s-.58.92-.9,1.37a11.84,11.84,0,0,1-1.93,2.13,13,13,0,0,1-2.23,1.61,24.24,24.24,0,0,1-2.72,1.3,18,18,0,0,1-3,.88,15.88,15.88,0,0,1-3.37.36C610.48,786.61,610.11,786.6,609.74,786.57Z"/></g><g class="cls-16"><path class="cls-9" d="M920.36,127.22Zm0,0Zm0,0Zm0,0Zm0,0Zm0,0Zm0,0Zm0,0Zm0,0Zm0,0Zm0,0Zm0,0Zm0,0Zm0,0Zm0,0Zm0,0Zm0,0Zm0,0Zm0,0Zm0,0Zm0,0Zm0,0Zm0,0Zm0,0Zm0,0Zm0,0Zm0,0Zm0,0Zm0,0Zm0,0Zm0,0Zm0,0Zm20.52,111.8Zm0,0Zm0,0Zm0,0Zm0,0Zm0,0Zm0,0Zm0,0Zm0,0Zm0,0Zm0,0Zm0,0Zm0,0Zm0,0Zm0,0Zm0,0Zm0,0Zm0,0Zm0,0Zm0,0Zm0,0Zm0,0Zm0,0Zm0,0Zm0,0Zm0,0Zm0,0Zm0,0Zm0,0Zm0,0Zm0,0Zm0,0h0Zm65.62,1.21h0S1006.48,240.33,1006.48,240.33Zm-172.71,3.76Zm0,0Zm0,0Zm0,0Zm0,0Zm0,0Zm0,0Zm0,0Zm0,0Zm0,0Zm0,0Zm0,0Zm0,0Zm0,0Zm0,0Zm0,0Zm0,0Zm0,0Zm0,0Zm0,0Zm0,0Zm0,0Zm0,0Zm0,0Zm0,0Zm0,0Zm0,0Zm0,0Zm0,0Zm0,0Zm0,0Zm0,0Zm186.11,3.42h0Zm0,0h0Zm0,0h0Zm0,0h0Zm0,0h0Zm0,0h0Zm0,0h0Zm0,0h0Zm0,0h0Zm0,0h0Zm0,0h0Zm0,0h0Zm0,0h0Zm0,0h0Zm0,0h0Zm0,0h0Zm30.71,12.51h0ZM750.73,277.36c-1.05.62-2.77,1.68-3.84,2.31C749.45,279.14,756.05,274.4,750.73,277.36ZM616.18,492.93c-.59,3.95-1.41,7.89-1.67,11.87,1.09-4.21,1.23-8.63,1.83-12.94ZM612,519.09v0S612,519.1,612,519.09Zm-7.5,73.7h0Zm563.71,308.37Zm0,0Zm0,0Zm0,0Zm0,0Zm0,0Zm0,0Zm0,0Zm0,0Zm0,0Zm0,0Zm0,0Zm0,0Zm0,0Zm0,0Zm0,0Zm0,0Zm0,0Zm0,0Zm0,0Zm0,0Zm0,0Zm0,0Zm0,0Zm0,0Zm0,0Zm0,0Zm0,0Zm0,0Zm0,0Zm0,0Zm0,0Zm-133.65,165.89Zm0,0Zm0,0Zm0,0Zm0,0Zm0,0Zm0,0Zm0,0Zm0,0Zm0,0Zm0,0Zm0,0Zm0,0Zm0,0Zm0,0Zm0,0Zm0,0Zm0,0Zm0,0Zm0,0Zm0,0Zm0,0Zm0,0Zm0,0Zm0,0Zm0,0Zm0,0Zm0,0Zm0,0Zm0,0Zm0,0Zm0,0Zm-129.31,56.74C685.45,1047.33,595.65,787,603.69,571.6,612.57,405,683.44,268.91,857.35,233.38c12.7-3,51.43-6.48,51.43-6.48s10.93-106.37,12.85-103.37c4.21,34.13,5.77,66.89,10.08,101.56,24,4,54.87,8.64,78.33,15.46,39.18,11.4,158.44,77,182.62,165,61.81,154.18,57,338.75-19.72,487C1136.82,983.46,1009.79,1127.94,905.26,1123.89Z"/></g><g class="cls-16"><path class="cls-9" d="M616.26,530.62a.68.68,0,0,1-.19-.45l-.27-4.08a.28.28,0,0,0,0,.09v-.06h0v0q-.19-2.91-.38-5.81v0c0-.32,0-.64,0-1l-.12-2.21c0-.92-.12-1.84-.14-2.75,0-1.07-.08-2.13-.1-3.2s0-1.87,0-2.8l0-.12c0-.1,0-.2,0-.3a.61.61,0,0,1-.07-.1,1.11,1.11,0,0,1-.14-.5c0-.14,0-.28,0-.42s0-.53,0-.79v-.15h0a.66.66,0,0,1-.64-.49,1,1,0,0,1-.05-.29c0-.14,0-.28,0-.43v.09c0-.06,0-.12,0-.19v.09c.1-1.55.25-3.1.47-4.64.11-.79.23-1.57.37-2.35s.25-1.54.41-2.31h0v0h0a0,0,0,0,1,0,0l.27-1.35c0-.21.09-.43.14-.64a9.56,9.56,0,0,1,.24-1.06.59.59,0,0,1,.22-.31c.07-.37.15-.74.22-1.11a.29.29,0,0,1,0,.09,1.78,1.78,0,0,1,.14-.5,1,1,0,0,1,.16-.24,1.24,1.24,0,0,1,.23-.17.68.68,0,0,1,.83.1.55.55,0,0,1,.33-.27l.09,0c0-.18.07-.36.11-.55a7.86,7.86,0,0,1,.19-.84.5.5,0,0,1,1,.14,7.62,7.62,0,0,1-.12,1.07c0,.28-.09.55-.14.83-.09.57-.2,1.13-.3,1.7-.18,1-.38,2-.56,3-.34,1.82-.7,3.63-1,5.45q-.11.93-.18,1.86h0v0c0,.71-.08,1.42-.11,2.13,0,.36,0,.72,0,1.08s0,.79-.06,1.19a.5.5,0,0,1-.5.43h0s0,.1,0,.14a.25.25,0,0,1,0,.07c0,.19,0,.38,0,.56s0,.65,0,1c0,.55,0,1.1,0,1.66,0,1.1.05,2.2.08,3.3,0,.88.08,1.75.12,2.63l.18,3.37a.28.28,0,0,0,0-.09c0,.31,0,.62.06.93,0,.66.09,1.32.12,2,.06,1,.14,2,.19,3a.28.28,0,0,0,0-.09c0,.61.08,1.23.12,1.84,0,.78.1,1.55.14,2.33a.64.64,0,0,1-.64.64A.59.59,0,0,1,616.26,530.62Z"/></g><g class="cls-16"><path class="cls-9" d="M609.52,668.72a.79.79,0,0,1-.38-.44,2.9,2.9,0,0,1-.14-.48,1.61,1.61,0,0,1-.07-.49.5.5,0,0,1,.5-.5.51.51,0,0,1,.5.5v.06a3.74,3.74,0,0,0,.12.45.49.49,0,0,1-.08.88.54.54,0,0,1-.25.06Z"/></g><g class="cls-16"><circle class="cls-9" cx="606.74" cy="588.63" r="0.5"/></g><g class="cls-16"><path class="cls-9" d="M610.06,671.26c-.27-1-.49-1.91-.71-2.87-.18-.79-.36-1.59-.52-2.39,0,0,0,0,0,.06-.05-.26-.11-.51-.16-.77,0,0,0,0,0,0q-.63-3.07-1.11-6.16c-.33-2.09-.68-4.18-1-6.27s-.55-4.21-.8-6.31c-.12-1.06-.25-2.12-.36-3.18s-.22-2-.34-3.07c-.19-1.66-.39-3.31-.55-5s-.32-3.25-.43-4.87v0c0-.22,0-.43,0-.65h0c-.07-1-.11-2-.16-3s-.09-2.12-.14-3.18c-.09-2.16-.23-4.31-.35-6.46-.06-1-.09-2.05-.12-3.08s0-2.16-.07-3.25c0-2.09,0-4.19,0-6.29s0-4.3.16-6.45.22-4.23.34-6.35c0-.77.09-1.55.17-2.32,0-.42.09-.85.12-1.27a2.45,2.45,0,0,0,0-.46c0-.12,0-.23,0-.35a.82.82,0,0,1,.07-.31.5.5,0,0,1,.92,0,1.28,1.28,0,0,1,.1.43c0,.1,0,.2,0,.29a.49.49,0,0,1-.18.38l-.09,1c-.06.65-.12,1.3-.16,2h0c-.13,2.09-.22,4.19-.33,6.28-.05,1.05-.11,2.09-.14,3.14s-.05,2.23-.06,3.34c0,2.12,0,4.25,0,6.38,0,1,0,2.06,0,3.09s.05,2.13.11,3.19c.11,2.16.26,4.32.36,6.48s.16,4.13.28,6.2c0,.21,0,.43,0,.65a.17.17,0,0,0,0-.07s0,.06,0,.09v0c0,.22,0,.43,0,.65h0c.07,1,.16,2.08.26,3.12s.19,2.07.3,3.11.26,2.19.38,3.29.23,2.07.34,3.11c.23,2.11.48,4.23.74,6.34q.18,1.57.42,3.15c.15,1,.32,2,.48,3,.25,1.59.51,3.17.77,4.75s.56,3.14.88,4.7a.14.14,0,0,0,0-.06c0,.08,0,.16.05.23a.43.43,0,0,1,0,0l.15.71v0c.16.79.34,1.57.52,2.34.21.93.43,1.86.69,2.79a.52.52,0,0,1-.35.62l-.13,0A.6.6,0,0,1,610.06,671.26Z"/></g><g class="cls-16"><path class="cls-9" d="M608,650.31c-.34-1.16-.68-2.33-1-3.5-.12-.45-.23-.91-.32-1.37s-.25-1.15-.36-1.73c-.21-1-.41-2.06-.57-3.1-.09-.53-.17-1.06-.23-1.59s-.13-1.18-.19-1.76c-.1-1-.16-2-.21-3,0-.66-.07-1.32-.1-2a.69.69,0,0,1-.11-.13.48.48,0,0,1-.33.12.51.51,0,0,1-.5-.5c0-.56,0-1.12,0-1.68v-1.55c0-1.16,0-2.32,0-3.47,0-2.2,0-4.41,0-6.61v-3.24l0-.05a.85.85,0,0,1-.1-.47c0-.28,0-.55,0-.83,0-.59,0-1.19.07-1.78s.09-1.47.14-2.2l0-1,.12-3.21c0-.2,0-.41,0-.61a.51.51,0,0,1,.43-.5.5.5,0,0,1,.56.43,2,2,0,0,1,0,.25.6.6,0,0,1,.33-.23h0c0-.25,0-.49,0-.74a.5.5,0,0,1,.5-.5.51.51,0,0,1,.5.5c0,.36,0,.73,0,1.09a.72.72,0,0,1,.14-.2v0a3.51,3.51,0,0,1,.15-.53.51.51,0,0,1,.46-.3.49.49,0,0,1,.46.3,1.11,1.11,0,0,1,.13.4c0,.13,0,.27,0,.41s0,.37,0,.55c0,.39.06.77.08,1.16h0c0,.59.07,1.17.11,1.76l0,0a.51.51,0,0,1,.62-.35.5.5,0,0,1,.35.61,3.62,3.62,0,0,0-.18.62s0,0,0-.07c-.12.6-.16,1.21-.22,1.82v0h0c0,.65-.06,1.29-.08,1.94,0,.31,0,.61,0,.92s0,.84,0,1.26,0,.62,0,.92,0,.68,0,1c0,.73.1,1.45.14,2.18a.17.17,0,0,0,0-.07l.18,2.41v0c.06.77.12,1.54.17,2.31v0h0v0l.15,2.14v0h0v0c0,.57.09,1.14.11,1.71v0c0,.79.1,1.57.14,2.36s.1,1.59.12,2.39a.51.51,0,0,1-.43.5.5.5,0,0,1-.55-.36,4,4,0,0,1-.09-.77l-.06-.69-.12-1.36c0-.43-.07-.85-.09-1.28a.49.49,0,0,1-.56-.1l-.06-.06a.38.38,0,0,0,0,.1.78.78,0,0,1-.16.28.49.49,0,0,1-.47.18c0,.47.09.93.14,1.4s.07.85.11,1.27.06.66.08,1,.05.91.08,1.36a10.59,10.59,0,0,1,0,1.38,5.74,5.74,0,0,1-.09.71,4.91,4.91,0,0,1-.17.5.51.51,0,0,1-.59.29,1,1,0,0,1-.26-.09.62.62,0,0,1-.22-.26c0,.31.05.62.08.93.07.67.16,1.34.26,2s.22,1.4.35,2.09.28,1.48.43,2.21c0,0,0,0,0-.05.2.9.39,1.8.63,2.7q.43,1.59.9,3.18a.5.5,0,0,1-.35.61l-.13,0A.44.44,0,0,1,608,650.31Z"/></g><g class="cls-16"><path class="cls-9" d="M874.39,233.22l.64,0,.65-.07a.51.51,0,0,1,.08-.44l0-.08-.11,0a.43.43,0,0,1-.29-.36l-.69.21c-.37.13-.73.26-1.08.42l-.17.1-.09.07.13.06a1.89,1.89,0,0,0,.41.1h-.06l.24,0H874C874.15,233.21,874.27,233.21,874.39,233.22ZM748.33,280.51l0,0c1.07-.8,2.16-1.54,3.25-2.29l3.07-2.08,0,0c1.17-.79,2.35-1.59,3.53-2.37l3.83-2.5c2.41-1.57,4.85-3.08,7.25-4.65a.1.1,0,0,0,0,0l.1-.07c-1,.62-2.08,1.25-3.13,1.84-1.58.88-3.18,1.72-4.78,2.56-.7.37-1.4.75-2.08,1.15-.35.2-.7.39-1,.61l-1.28.82c-.62.43-1.25.86-1.86,1.32l-1.11.83c-.36.27-.7.56-1,.84-1.32,1.06-2.6,2.17-3.89,3.27l0,0Z"/></g><g class="cls-16"><path class="cls-9" d="M749.33,283a.52.52,0,0,1-.09-.7c.39-.58.79-1.17,1.21-1.73s.73-1,1.12-1.45.74-.92,1.15-1.34l.89-.91c.16-.16.3-.33.47-.48h0l1.36-1.21.44-.39c.16-.14.33-.26.5-.39l.16-.12-.27.06a.5.5,0,0,1-.61-.35.86.86,0,0,1,0-.45,1.11,1.11,0,0,1,.28-.45c.31-.32.65-.59,1-.88s.84-.66,1.27-1q1.23-.93,2.49-1.8c.92-.64,1.85-1.26,2.79-1.85.2-.12.39-.26.6-.38l.86-.5c.34-.2.68-.39,1-.57s.53-.25.8-.36l.07,0,1.12-.7c.48-.3,1-.59,1.46-.88l.9-.53c.36-.21.71-.43,1.08-.62l1.25-.68c.48-.26,1-.46,1.46-.7a2.3,2.3,0,0,1,.57-.21l.22,0a1.57,1.57,0,0,1,.37,0,.51.51,0,0,1,.36.24.47.47,0,0,1,0,.5,2.33,2.33,0,0,1-.17.26,2.61,2.61,0,0,1-.23.24,4.34,4.34,0,0,1-.49.35l-.65.42-.39.25.13,0a.49.49,0,0,1,.41.36.51.51,0,0,1-.18.53,1.78,1.78,0,0,1-.27.21l-.39.23-.37.2-.71.39-.27.14-.3.19c-.57.35-1.12.71-1.69,1.07-1.17.75-2.33,1.51-3.49,2.27a.1.1,0,0,0,.05,0L765,270.4l-.67.46,1-.62,2.73-1.67c.93-.56,1.87-1.13,2.82-1.66l1.18-.66c.32-.18.65-.34,1-.5a18.88,18.88,0,0,1,1.78-.79,4.57,4.57,0,0,1,1.31-.32,2.81,2.81,0,0,1,.41,0l.12,0a.61.61,0,0,1,.23.11c.8.62-.13,1.58-.6,2.09s-1,1.05-1.59,1.57a.5.5,0,0,1-.71-.71c.57-.55,1.16-1.09,1.69-1.67h0l.36-.43-.11,0H776c-.23.05-.45.11-.68.18l.06,0a14.84,14.84,0,0,0-1.59.67l.06,0c-.44.22-.88.43-1.31.68s-1,.52-1.41.79c-1,.57-2,1.16-3,1.75-1.84,1.1-3.66,2.25-5.52,3.32l-1.42.81-.57.32-.44.24a6.29,6.29,0,0,1-.7.32.51.51,0,0,1-.63-.21.57.57,0,0,1-.09-.47.85.85,0,0,1,.26-.4l-.66.48c-.29.21-.57.45-.86.67l-.73.57-.29.23,0,0c-.6.54-1.19,1.07-1.8,1.59l0,0c-.5.52-1,1-1.52,1.56l0,0c-.5.59-1,1.17-1.46,1.79-.25.33-.51.66-.75,1-.36.5-.71,1-1.05,1.51a.47.47,0,0,1-.39.19A.36.36,0,0,1,749.33,283Z"/></g></g><g id="Layer_10" data-name="Layer 10"><polygon class="cls-4" points="1018.87 1776.69 905.25 1777.2 950.18 1762.79 905.12 1747.83 1018.73 1747.32 1018.87 1776.69"/></g><g id="Layer_2" data-name="Layer 2"><path class="cls-17" d="M496.6,585.49c-10.51-229.38,195.7-509.78,425.82-505,230.32,4.73,442.1,252.5,420.54,489.45"/><path class="cls-18" d="M591.59,869.69c-98.07,12.51-186.68-48.76-197.92-136.85s59.17-169.62,157.24-182.13"/><rect class="cls-19" x="568.78" y="528.3" width="45.85" height="351.77" rx="22.93" transform="translate(-78.59 74.35) rotate(-6.74)"/><path class="cls-17" d="M1331.41,808.07C1299.13,950.78,1118,1051,973.28,1007.41"/><path class="cls-18" d="M1247.4,853.81c98.57,7.62,184-58,190.87-146.51s-67.51-166.48-166.09-174.1"/><rect class="cls-19" x="1216.13" y="512.63" width="45.85" height="351.77" rx="22.93" transform="translate(2428.48 1459.61) rotate(-176.1)"/><rect class="cls-20" x="884.28" y="969.14" width="121.49" height="67.4" rx="33.56" transform="translate(175.07 -139.93) rotate(9.33)"/></g><g id="Layer_9" data-name="Layer 9"><rect class="cls-19" x="973.28" y="1650.35" width="866.64" height="211.32" rx="40.69"/><rect class="cls-21" x="1018.87" y="1689.01" width="202.98" height="148" rx="12"/><path class="cls-19" d="M1096.45,1724.89c0,4.44-1.8,10-1.8,15.12v37.68c0,1.68.6,2.88,1.68,2.88s2.16,1.92,2.16,4.68-1,5-2,5.28c-3.12.72-9.72,1.2-17.76,1.2-8.52,0-13.32-.72-15.36-1.2-.84-.24-1.68-1-1.68-2.88,0-3.24,1.44-10.08,1.44-13.92V1747a8,8,0,0,0-3.6-5.88,7,7,0,0,1-2.64-5.64c0-4.08,9.12-9.48,16.56-12.12a61.08,61.08,0,0,1,18.24-3C1094.29,1720.33,1096.45,1721.77,1096.45,1724.89Z"/><path class="cls-19" d="M1123.45,1756.21c-6.6,0-13.08-5.16-13.08-15.6,0-14,14.76-20.28,31.32-20.28,18,0,31.08,5.16,31.08,21.36,0,12.72-15.84,24.6-24.72,30.36,6.6-.36,15.24-2.64,19.92-7.32,2.88,1.8,4.8,7.8,4.8,13.08,0,6.48-3.48,9.84-6.48,11.52-2.76,1.56-16.32,2.4-23.88,2.4-14.16,0-21.24-.48-26.16-1.2-1.32-.24-3.24-1.92-3.24-5.76a9.37,9.37,0,0,1,4-7.92c7.8-5.28,26-20.76,26-33.48,0-6.72-1.92-10-4.8-10s-4.92,2.76-4.92,6.72a13,13,0,0,0,3,8.52C1134.37,1753.09,1128.85,1756.21,1123.45,1756.21Z"/><path class="cls-21" d="M1267.1,1683.06a8.32,8.32,0,0,1,1.54,5.19c0,1.8-1.06,2.81-2.36,2.81s-4.84-.48-7.67-.48-4.37.38-4.37,1.91a1.8,1.8,0,0,0,1.83,2c1.83,0,4.78-.8,6.61-.8s2.77.58,2.77,3.87c0,3.6-1,5.56-2.48,5.56s-2.65-.21-4.36-.21c-2.77,0-4,.64-4,2.23,0,.95.29,1.48,2.3,1.48,6.9,0,11.27-2.6,12.5-2.6s2.13,1.65,2.13,4.46c0,3.71-.47,5.72-2.24,6.51a47.57,47.57,0,0,1-16.23,2.87c-7.43,0-9.2-.75-9.85-2.23-.82-2-1.83-7.74-1.83-14.68,0-10.17,1.13-16,1.71-17.7s4.67-2.75,13.1-2.75C1261.85,1680.52,1265.45,1680.73,1267.1,1683.06Z"/><path class="cls-21" d="M1292.05,1681.15c0,5.14-1.77,13.94-1.77,24.27,0,3.55,2.13,5.41,2.13,7.53s-4.07,5.3-10.86,5.3c-2.59,0-3.89-1.17-3.89-3.24,0-3.7,1.18-9.32,1.18-15.63,0-7.74-1.95-13.51-1.95-16.27s6.49-6,11.33-6C1290.7,1677.12,1292.05,1678.4,1292.05,1681.15Z"/><path class="cls-21" d="M1327,1699.28c0,6.57-16.34,5.51-16.34,7.79,0,1,1,2,4.07,2,4,0,6.49-3.07,8.08-3.07,1.89.15,4.78,3.12,4.78,5.19,0,2.28-6,6.41-13.86,6.41-8.85,0-16-5.14-16-13.46,0-8.48,7-14.47,16.28-14.47C1322.25,1689.68,1327,1693.87,1327,1699.28Zm-12.51-2.55c-2.71,0-5.36,1.54-5.36,3a.92.92,0,0,0,.94.8c2.24,0,6.61-1.54,6.61-2.39S1315.88,1696.73,1314.52,1696.73Z"/><path class="cls-21" d="M1347.91,1693.71c.82,0,3.12-3.81,9.44-3.81,6.72,0,7.55,4,8.31,4,1.12,0,4.07-4.29,10.5-4.29,4,0,7.56,2.7,7.56,6.73,0,5.62-1.07,8.74-.12,11.71.82,2.6,2.47,2.76,2.47,4.24,0,2.33-5.66,5.35-9.73,5.35s-5.78-3.81-5.78-13.83c0-2.65-.71-3.55-1.71-3.55-1.47,0-3.19,1.32-3.19,6.2,0,3.18,1.18,4.45,1.18,6.84s-4.36,4.24-8.61,4.24c-4,0-4.54-2.81-4.54-14.31,0-2.23-.65-2.86-1.77-2.86-2,0-3,1-3,4.18,0,1.54.89,7,.89,9.38s-1.48,4-5.14,4c-4.54,0-9.91-.58-9.91-3.23,0-1.75.65-4.72.65-9,0-5-1.53-7.47-1.53-9.59,0-2.28,6.72-5.67,10.2-5.67C1346.2,1690.43,1347,1693.71,1347.91,1693.71Z"/><path class="cls-21" d="M1420.34,1699.28c0,6.57-16.34,5.51-16.34,7.79,0,1,1,2,4.07,2,4,0,6.49-3.07,8.08-3.07,1.89.15,4.78,3.12,4.78,5.19,0,2.28-6,6.41-13.86,6.41-8.85,0-16-5.14-16-13.46,0-8.48,7-14.47,16.28-14.47C1415.56,1689.68,1420.34,1693.87,1420.34,1699.28Zm-12.51-2.55c-2.71,0-5.36,1.54-5.36,3a.92.92,0,0,0,.94.8c2.24,0,6.61-1.54,6.61-2.39S1409.19,1696.73,1407.83,1696.73Z"/><path class="cls-21" d="M1441.1,1694.51a14.38,14.38,0,0,1,10.27-4.51c5.48,0,9.26,2.65,9.26,6.84S1459,1703,1459,1706c0,5,1.12,5.41,1.12,7,0,2.22-5.78,4.29-10.62,4.29-2.89,0-4.07-1.27-4.07-3.34,0-3.39,2.06-8.32,2.06-11.92,0-2.12-.65-2.81-1.77-2.81-1.77,0-4.13,2.17-4.13,5.4,0,8.38-.35,12.83-4.83,12.83-3.9,0-9.33-1.8-9.33-4,0-1.74.89-3,.89-7.84,0-4-2-7.52-2-10.07,0-2.12,5.9-4.77,10.27-4.77C1439.63,1690.74,1440.51,1692.92,1441.1,1694.51Z"/><path class="cls-21" d="M1466.29,1699.75a1.1,1.1,0,0,1-1.24-1.22c0-2.81,1.88-8.32,4.48-8.32.53,0,.83-.21.83-.74,0-2.49-1.71-4-1.71-5.67,0-2.75,8-6.31,12-6.31,2.48,0,3.42,1,3.42,2.76,0,2.23-.76,5.51-.76,8.74a.89.89,0,0,0,1,1c1.35,0,3.07-.37,4-.37a1.24,1.24,0,0,1,1.3,1.33c0,4.29-1.48,7.57-3.84,8.1-2.12.48-2.53,1-2.53,5.14,0,6.42,1,6.63,1,8.75s-4.54,5.3-11.86,5.3c-2.24,0-3.54-.8-3.54-2.76,0-3.39,1.12-8.42,1.12-15.42,0-.69-.29-.9-.76-.9C1468.53,1699.17,1467.11,1699.75,1466.29,1699.75Z"/><path class="cls-21" d="M1512.94,1700.23c-1.53,0-3.18-3.6-5.66-3.6a1.28,1.28,0,0,0-1.41,1.21c0,3.34,12.68,4.09,12.68,11.56,0,4.34-4.54,8.69-11.74,8.69-8.26,0-15-4.14-15-6.2,0-2.49,3.83-5.88,6-5.88,1.71,0,3.54,3.92,7,3.92a1.47,1.47,0,0,0,1.48-1.38c0-3-11.56-3.07-11.56-11.18,0-4.67,4.54-7.85,12-7.85s11.21,3.61,11.21,5.2C1518,1696.63,1514.77,1700.23,1512.94,1700.23Z"/><path class="cls-21" d="M1570,1703.14c0,7.58-5.25,14.79-15.34,14.79-8.84,0-14.74-5.78-14.74-12.67,0-9,7.31-15,15.86-15C1564.79,1690.21,1570,1695.51,1570,1703.14Zm-15.57,5c2.24,0,3.95-2.12,3.95-4.77a2.55,2.55,0,0,0-2.42-2.76,4.56,4.56,0,0,0-4.31,4.72A2.92,2.92,0,0,0,1554.41,1708.13Z"/><path class="cls-21" d="M1602.25,1685.44c0,3.34-5.14,5.25-7.85,5.25-1.77,0-.47-4.82-2.54-4.82-1.47,0-2,1.8-2,3.71,0,2.38,0,4.71,1,4.71,2.6,0,3.54-.58,4.6-.58,2.13,0,4,3.29,4,6.94,0,2-.76,3-2.12,3s-4.72.06-4.72,1.81.65,4.61.65,10.12c0,2-.88,3-3.36,3-4.84,0-9.91-1.86-9.91-4.14,0-1.69.41-3.34.41-8.32,0-1-.41-1.38-1.65-1.38-2.07,0-3.25-2.65-3.25-6.46,0-1.27,1.12-1.75,2.07-2.12s1.24-.43,1.24-1.33c0-1.85-1-3.65-1-7.68,0-5.88,5-10.23,12.57-10.23C1597.29,1676.91,1602.25,1680.94,1602.25,1685.44Z"/><path class="cls-21" d="M1650.26,1698.43c0,5.72-1,8-1,10.17,0,3.66,1.42,3.61,1.42,4.72,0,1.59-5,4.45-8.38,4.45-2.71,0-3.42-2.12-4.07-2.12s-4.07,2-8.37,2c-6.08,0-9.27-3-9.27-6.83,0-10.49,17.29-9.49,17.29-12.4,0-.59-.59-1.12-1.83-1.12-5.25,0-9,3.77-10.85,3.77-1.54,0-2-1.86-2-3.61a6.17,6.17,0,0,1,.53-2.91c1.36-2.7,7-5.09,14.57-5.09C1644.53,1689.47,1650.26,1692.7,1650.26,1698.43Zm-18.7,11c0,1,.65,1.48,1.83,1.48,1.59,0,4.71-2.54,4.71-3.92,0-.69-.23-1.22-.82-1.22C1635.1,1705.79,1631.56,1708.07,1631.56,1709.45Z"/><path class="cls-21" d="M1272.58,1749.71c-1.52,0-2-.45-2.32-1.36-.58-1.95-1.73-3.51-3.69-3.51-2.24,0-5,2.47-5,9.42,0,7.68,3.69,11.38,6.3,11.38a3.26,3.26,0,0,0,3.4-3,2.77,2.77,0,0,0-2-2.47,3.17,3.17,0,0,1-2.31-3.06c0-1.1.5-1.75,2.24-2.92,1.59-1.11,7-2.67,11.14-2.67,3.47,0,6.29,2.6,6.29,7.09,0,10.66-7.3,18.4-20.69,18.4-13.6,0-24.3-7.48-24.3-21.13,0-14.82,10.12-24.64,25.24-24.64,11.58,0,17.15,6.18,17.15,9.69S1275.83,1749.71,1272.58,1749.71Z"/><path class="cls-21" d="M1310.84,1745.81c1,0,4.78-3.51,9.55-3.51,5.28,0,9,4.88,9,8.06,0,3.77-5.57,8-11.07,8-1.52,0-2.46-.72-2.46-1.95,0-2-.65-3.12-2.1-3.12-1.08,0-1.81.71-1.81,2.14,0,5.33,1.67,9.89,1.67,16.26,0,3.57-2.17,5.78-5.94,5.78-6.22,0-12.73-2.21-12.73-5,0-2.08.65-5,.65-7.22,0-12.81-3-12.68-3-15.47,0-3.19,10.57-6.7,13.82-6.7C1309.25,1743.08,1309.76,1745.81,1310.84,1745.81Z"/><path class="cls-21" d="M1368.93,1754.26c0,8.06-20,6.77-20,9.56,0,1.23,1.23,2.47,5,2.47,4.84,0,7.95-3.77,9.91-3.77,2.31.19,5.86,3.84,5.86,6.37,0,2.8-7.38,7.87-17,7.87-10.86,0-19.61-6.31-19.61-16.52,0-10.4,8.61-17.74,20-17.74C1363.07,1742.5,1368.93,1747.63,1368.93,1754.26Zm-15.33-3.12c-3.33,0-6.59,1.89-6.59,3.71a1.13,1.13,0,0,0,1.16,1c2.75,0,8.1-1.88,8.1-2.92S1355.26,1751.14,1353.6,1751.14Z"/><path class="cls-21" d="M1412.48,1753.22c0,7-1.23,9.89-1.23,12.48,0,4.49,1.74,4.42,1.74,5.79,0,2-6.15,5.46-10.27,5.46-3.33,0-4.2-2.6-5-2.6s-5,2.47-10.27,2.47c-7.45,0-11.36-3.71-11.36-8.38,0-12.88,21.2-11.64,21.2-15.22,0-.71-.72-1.36-2.24-1.36-6.44,0-11,4.61-13.31,4.61-1.89,0-2.46-2.27-2.46-4.42a7.46,7.46,0,0,1,.65-3.57c1.66-3.32,8.53-6.24,17.87-6.24C1405.46,1742.24,1412.48,1746.2,1412.48,1753.22Zm-22.93,13.52c0,1.24.79,1.83,2.24,1.83,2,0,5.79-3.13,5.79-4.82,0-.84-.29-1.49-1-1.49C1393.89,1762.26,1389.55,1765.05,1389.55,1766.74Z"/><path class="cls-21" d="M1420.36,1754.85a1.35,1.35,0,0,1-1.52-1.5c0-3.44,2.32-10.2,5.5-10.2.65,0,1-.26,1-.91,0-3.06-2.09-4.94-2.09-7,0-3.38,9.76-7.73,14.68-7.73,3,0,4.2,1.17,4.2,3.38,0,2.73-.94,6.76-.94,10.72a1.09,1.09,0,0,0,1.23,1.24c1.66,0,3.76-.46,4.92-.46a1.52,1.52,0,0,1,1.59,1.63c0,5.26-1.81,9.29-4.7,9.94-2.61.59-3.11,1.17-3.11,6.31,0,7.87,1.22,8.13,1.22,10.72s-5.57,6.5-14.54,6.5c-2.74,0-4.34-1-4.34-3.38,0-4.16,1.38-10.33,1.38-18.91,0-.85-.36-1.11-.94-1.11C1423.11,1754.13,1421.38,1754.85,1420.36,1754.85Z"/><path class="cls-21" d="M1510.35,1740.29c0,3.25-5.5,7.34-8.53,7.34-1.81,0-2.25-.78-3.4-2.08-2-2.27-3-2.79-4.63-2.79a1.61,1.61,0,0,0-1.38,1.43c0,5.13,19.1,5.26,19.1,19.37,0,8.45-8.46,13.26-17.87,13.26-10.05,0-19.82-6.5-19.82-12,0-4.29,6.29-8.45,8.68-8.45s3.91,7.34,8.47,7.34a2.71,2.71,0,0,0,3-2.6c0-3.77-17.51-5.2-17.51-17,0-8.39,8.18-13.85,17.08-13.85C1503.55,1730.34,1510.35,1735.8,1510.35,1740.29Z"/><path class="cls-21" d="M1554.41,1753.22c0,7-1.23,9.89-1.23,12.48,0,4.49,1.73,4.42,1.73,5.79,0,2-6.15,5.46-10.27,5.46-3.33,0-4.2-2.6-5-2.6s-5,2.47-10.27,2.47c-7.46,0-11.36-3.71-11.36-8.38,0-12.88,21.19-11.64,21.19-15.22,0-.71-.72-1.36-2.24-1.36-6.44,0-11,4.61-13.31,4.61-1.88,0-2.46-2.27-2.46-4.42a7.58,7.58,0,0,1,.65-3.57c1.67-3.32,8.54-6.24,17.87-6.24C1547.39,1742.24,1554.41,1746.2,1554.41,1753.22Zm-22.94,13.52c0,1.24.8,1.83,2.25,1.83,2,0,5.78-3.13,5.78-4.82,0-.84-.29-1.49-1-1.49C1535.81,1762.26,1531.47,1765.05,1531.47,1766.74Z"/><path class="cls-21" d="M1580.08,1732c0,6.31-2.17,17.1-2.17,29.77,0,4.36,2.61,6.64,2.61,9.23s-5,6.5-13.31,6.5c-3.19,0-4.78-1.42-4.78-4,0-4.55,1.45-11.44,1.45-19.18,0-9.49-2.39-16.57-2.39-20s8-7.35,13.89-7.35C1578.42,1727.09,1580.08,1728.65,1580.08,1732Z"/><path class="cls-21" d="M1623,1754.26c0,8.06-20,6.77-20,9.56,0,1.23,1.23,2.47,5,2.47,4.85,0,8-3.77,9.91-3.77,2.32.19,5.86,3.84,5.86,6.37,0,2.8-7.37,7.87-17,7.87-10.85,0-19.6-6.31-19.6-16.52,0-10.4,8.61-17.74,20-17.74C1617.12,1742.5,1623,1747.63,1623,1754.26Zm-15.34-3.12c-3.32,0-6.58,1.89-6.58,3.71a1.13,1.13,0,0,0,1.16,1c2.75,0,8.1-1.88,8.1-2.92S1609.31,1751.14,1607.64,1751.14Z"/><path class="cls-21" d="M1654.81,1755.43c-1.88,0-3.91-4.42-7-4.42a1.58,1.58,0,0,0-1.73,1.5c0,4.09,15.55,5,15.55,14.17,0,5.33-5.57,10.66-14.39,10.66-10.13,0-18.45-5.07-18.45-7.6,0-3.06,4.7-7.22,7.38-7.22,2.09,0,4.34,4.81,8.61,4.81a1.79,1.79,0,0,0,1.8-1.69c0-3.64-14.17-3.77-14.17-13.72,0-5.72,5.57-9.62,14.75-9.62s13.75,4.42,13.75,6.37C1661,1751,1657.05,1755.43,1654.81,1755.43Z"/><path class="cls-21" d="M1284.23,1807.54c0,9.17-9.19,16.06-17.73,16.06-2.89,0-4.27-.91-4.92-.91s-.65.33-.65,1.3c-.07,4.16,1.52,6.24,1.52,8.25s-1.73,3.39-5.5,3.39-11.07-1.24-12.66-5.47-2.6-10.85-2.6-18.85.51-15,2.17-16.9,9.62-4.16,16.86-4.16C1274.53,1790.25,1284.23,1797,1284.23,1807.54Zm-23.37-4.48c-.72.32-.87,3.44-.87,4.61s0,2.21,2.17,2.21,4.41-2,4.41-3.83a3.8,3.8,0,0,0-3.76-3.51A3.36,3.36,0,0,0,1260.86,1803.06Z"/><path class="cls-21" d="M1310.12,1791c0,6.31-2.17,17.1-2.17,29.77,0,4.36,2.6,6.64,2.6,9.23s-5,6.5-13.31,6.5c-3.18,0-4.77-1.42-4.77-4,0-4.55,1.45-11.44,1.45-19.18,0-9.49-2.39-16.57-2.39-20s8-7.35,13.89-7.35C1308.46,1786.09,1310.12,1787.65,1310.12,1791Z"/><path class="cls-21" d="M1353.09,1812.22c0,7-1.23,9.89-1.23,12.48,0,4.49,1.74,4.42,1.74,5.79,0,2-6.15,5.46-10.27,5.46-3.33,0-4.2-2.6-5-2.6s-5,2.47-10.27,2.47c-7.45,0-11.36-3.71-11.36-8.38,0-12.88,21.2-11.64,21.2-15.22,0-.71-.72-1.36-2.24-1.36-6.44,0-11,4.61-13.31,4.61-1.88,0-2.46-2.27-2.46-4.42a7.46,7.46,0,0,1,.65-3.57c1.66-3.32,8.53-6.24,17.87-6.24C1346.07,1801.24,1353.09,1805.2,1353.09,1812.22Zm-22.93,13.52c0,1.24.79,1.83,2.24,1.83,1.95,0,5.79-3.13,5.79-4.82,0-.84-.29-1.49-1-1.49C1334.5,1821.26,1330.16,1824.05,1330.16,1825.74Z"/><path class="cls-21" d="M1377.18,1805.79c0,2.21-.58,4.22-.58,9.42,0,5.79,1.37,8.52,2.75,8.52,1.59,0,3.32-3.51,3.32-11.51,0-5.85-.72-6.37-.72-7.86a2.33,2.33,0,0,1,2.61-2.15c6,0,14.25,3.25,14.25,7.8,0,16.06-15,43-29.45,43-5.2,0-11.14-6.5-11.14-10.59a2.13,2.13,0,0,1,2.32-2.34c1.59,0,3.83,1,6.44,1,3.32,0,6.8-2.28,6.8-4.29,0-1-13.53-12.16-13.53-25,0-4.94,9.11-8.64,13.45-8.71C1375.88,1803.12,1377.18,1804.1,1377.18,1805.79Z"/><path class="cls-21" d="M1427.09,1789c0,2.8-3.62,8.32-3.76,13.72,0,1.17.29,2,1.23,2s3.47-2.4,8.53-2.4c7.31,0,12.16,5.13,12.16,13.71,0,12.29-9.77,20-20.84,20-7.74,0-12.44-1.83-15.62-6.83-2.68-4.16-3.4-7.67-3.4-17.1a91.89,91.89,0,0,1,2.31-18.13c1.23-5.07,10.71-8.06,15.77-8.06C1425.86,1785.9,1427.09,1787.26,1427.09,1789Zm-4.7,32.57c0,2.4.94,3.51,2.31,3.51,2.61,0,4.71-3.84,4.71-8.39,0-2.14-.94-3.44-2.61-3.44C1424.41,1813.2,1422.39,1817.16,1422.39,1821.52Z"/><path class="cls-21" d="M1488.36,1818c0,9.3-6.44,18.14-18.81,18.14-10.85,0-18.08-7.09-18.08-15.54,0-11,9-18.46,19.46-18.46C1482,1802.15,1488.36,1808.65,1488.36,1818Zm-19.1,6.11c2.75,0,4.85-2.6,4.85-5.85a3.12,3.12,0,0,0-3-3.38,5.58,5.58,0,0,0-5.28,5.78A3.57,3.57,0,0,0,1469.26,1824.12Z"/><path class="cls-21" d="M1532.71,1818c0,9.3-6.44,18.14-18.81,18.14-10.85,0-18.09-7.09-18.09-15.54,0-11,9-18.46,19.46-18.46C1526.34,1802.15,1532.71,1808.65,1532.71,1818Zm-19.1,6.11c2.75,0,4.84-2.6,4.84-5.85a3.12,3.12,0,0,0-3-3.38,5.58,5.58,0,0,0-5.28,5.78A3.57,3.57,0,0,0,1513.61,1824.12Z"/><path class="cls-21" d="M1571.26,1821.65c4,3.58,6.66,3.45,6.66,5.59s-6.66,8.45-9.7,8.45c-2,0-4.56-1.37-7.59-5.4s-4-6.37-5.21-6.37c-.51,0-.94.33-.94,1.18,0,2.85.86,3.7.86,5.84,0,2.54-8.24,4.75-11.57,4.75-2.6,0-3.91-1.5-3.91-4.16,0-8,2.1-18.85,2.1-30.23,0-7.15-.87-8.84-.87-10.46,0-3.25,8.61-5.79,15.12-5.79,2.61,0,3.69,1.17,3.69,3.58s-3.47,16.44-3.47,18.26c0,.78.29,1.11.65,1.11s6.87-6.63,11.43-6.63c3.18,0,9,4.94,9,8.32,0,1.23-2.53,2.4-4.63,3.25-4.77,2-5.5,2.73-5.5,4S1568.29,1819,1571.26,1821.65Z"/></g></svg>