<svg xmlns="http://www.w3.org/2000/svg" viewBox="0 0 595.22 573.06"><defs><style>.cls-1{fill:#4e4e4f;}.cls-12,.cls-2{fill:none;}.cls-2{stroke:#4e4e4f;stroke-width:4px;}.cls-12,.cls-13,.cls-2,.cls-23,.cls-24{stroke-miterlimit:10;}.cls-3{fill:#b4daf4;}.cls-4{fill:#fcb966;}.cls-5{fill:#212121;}.cls-6{fill:#f5a0c5;}.cls-7{fill:#595b5c;}.cls-13,.cls-8{fill:#2d2d2d;}.cls-9{fill:#9bd0ee;}.cls-10{fill:#f4f1ef;}.cls-11,.cls-23{fill:#fff;}.cls-12,.cls-13{stroke:#e6d8c9;}.cls-14{fill:#eae2da;}.cls-15{fill:#a1ddf8;}.cls-16{fill:#f6d996;}.cls-17{fill:#9ed5b5;}.cls-18{fill:#f69da0;}.cls-19{fill:#fdf7fa;}.cls-20{fill:#c1aaa4;}.cls-21{fill:#f7a54a;}.cls-22{fill:#e1559f;}.cls-23,.cls-24{stroke:#4f4f50;stroke-width:2px;}.cls-24{fill:#ddd;}</style></defs><g id="Layer_1" data-name="Layer 1"><rect class="cls-1" x="3.03" y="234.18" width="442.6" height="37.34" rx="1.77"/><rect class="cls-2" x="2.02" y="232.41" width="444.77" height="295.13" rx="11.21" transform="translate(-0.52 0.31) rotate(-0.08)"/><rect class="cls-3" x="124.56" y="243.05" width="225.48" height="16.82" rx="8.41"/><path class="cls-3" d="M0,270.35H448.91a0,0,0,0,1,0,0V516.45a13.17,13.17,0,0,1-13.17,13.17H13.2A13.17,13.17,0,0,1,0,516.45V270.35a0,0,0,0,1,0,0Z" transform="translate(-0.54 0.31) rotate(-0.08)"/><circle class="cls-3" cx="22.4" cy="251.58" r="7.71"/><circle class="cls-3" cx="47.01" cy="251.54" r="7.71"/><circle class="cls-3" cx="72.33" cy="251.51" r="7.71"/><line class="cls-4" x1="3.41" y1="271.47" x2="445.3" y2="270.73"/><rect class="cls-4" x="54.72" y="331.79" width="269.83" height="16.82" rx="8.41"/><path class="cls-5" d="M275.56,359.88c-1.37-2.52,1.82-8.58,3.45-10.94,7.29-10.58,28.07-14.26,39.8-19.17,15.9-6.67,23.44-8.6,37.1,3.75,2.56-1,91.44,1.35,102.1-7,7.4-17.14,46.4.07,63.58,5.65,12.92,4.19,1.65,16,12.93,23,0,0-43.66-12.33-55.74-5.26-33.55,19.65-25.23,32.87-57.36,36.44l-58.61-7.5S340,354.72,329.86,350.83c-25-9.67-18.94,23.76-42.44,12.27C287.42,363.1,277,362.58,275.56,359.88Z"/><rect class="cls-6" x="30.12" y="368.76" width="247.61" height="16.82" rx="8.41"/><path class="cls-5" d="M524.37,341.37c-17.46-8,38.55,85.79,38.55,85.79,4.26,14,6.07,46,9.69,60-.85,12.77,8.62,31.95,3.15,43.74-7.76,12.89-23.68,19.35-38.09,20.74,16.38,14.38,30.26,9.78,45.08-3.74,19.61-19.83,10.72-50.46,8.78-74.32C585.39,433,569.24,361.87,524.37,341.37Z"/><path class="cls-7" d="M307.6,570.54c22.23-9.88,23-46.46,45.51-61.62,9.69-6.52,81.06-5.28,117.05-3.35,11.66.63,27,2.76,35.27,11.93,10.19,11.35,18.84,29.63,33.21,34.34,16.48,5.39,38.5-11,40.65-29.06.59-5,1.66-15.21,1.22-20.25-.31-3.6-.71-10.57-1.25-14.15-3.08-20.27-9.12-44.88-14.19-64.49-4.8-18.53-17-54.88-30.55-68.67-15.13-15.38-40-31.49-59.24-21-11.64,6.33-19.87,28.75-30,37.4-5.44,4.66-23.58,5.85-30.6,6.37-10.9.8-38.82,2.57-48.16-3.82-12.58-8.62-19.87-31.27-35.45-33.76-21.88-3.5-52.05,10.42-65.18,28-17.06,22.84-20.81,59.59-20.93,89-.07,19.24-1.6,31.65-1.1,49.07C241.66,552.83,249.53,582.09,307.6,570.54Z"/><circle class="cls-8" cx="479.97" cy="394.56" r="13.08"/><circle class="cls-8" cx="501.93" cy="370.1" r="13.08"/><circle class="cls-8" cx="526.16" cy="392.37" r="13.08"/><circle class="cls-8" cx="503.34" cy="416.82" r="13.08"/><circle class="cls-9" cx="458.1" cy="454.1" r="31.95"/><circle class="cls-9" cx="363.13" cy="457.12" r="31.95"/><circle class="cls-9" cx="312.62" cy="398.3" r="31.95"/><circle class="cls-8" cx="433.94" cy="395.61" r="7.2"/><circle class="cls-8" cx="382.06" cy="398.2" r="7.2"/><circle class="cls-10" cx="457.06" cy="453.4" r="20.84"/><rect class="cls-11" x="355.39" y="431.23" width="16.74" height="51.41" rx="3.59" transform="translate(-7.94 6.43) rotate(-1)"/><rect class="cls-11" x="355.39" y="431.23" width="16.74" height="51.41" rx="3.59" transform="translate(-86.74 828.63) rotate(-91)"/><circle class="cls-11" cx="310.94" cy="396.89" r="20.84"/><rect class="cls-12" x="378.17" y="395.67" width="4.62" height="3.84" transform="translate(3.99 -3.78) rotate(0.57)"/><rect class="cls-13" x="380.47" y="397.4" width="4.62" height="3.84" transform="translate(4.01 -3.8) rotate(0.57)"/><rect class="cls-14" x="433.19" y="391.06" width="1.72" height="5.29" rx="0.37" transform="translate(832.08 -36.39) rotate(90.57)"/><rect class="cls-14" x="433.21" y="393.32" width="1.5" height="5.29" rx="0.35" transform="translate(834.24 -34.02) rotate(90.57)"/><rect class="cls-14" x="433.17" y="395.57" width="1.55" height="5.29" rx="0.35" transform="translate(836.47 -31.72) rotate(90.57)"/><polygon class="cls-15" points="473.44 387.13 476.87 387.17 480.26 391.47 483.16 387.23 486.24 387.26 481.91 393.42 487.17 400.91 483.74 400.88 480.29 395.47 477.2 401.52 473.73 401.27 478 393.38 473.44 387.13"/><polygon class="cls-16" points="494.82 363.17 497.91 363.2 501.37 368.72 504.79 363.27 507.75 363.3 503.41 370.73 503.23 377.13 499.67 377.1 499.73 370.81 494.82 363.17"/><polygon class="cls-17" points="496.01 423.2 501.01 408.9 503.74 408.93 510.25 422.63 506.57 422.83 505.42 419.14 500.13 419.56 499.21 423.23 496.01 423.2"/><path class="cls-18" d="M522.57,383.5l.17,17.7s5.1.4,6.65,0a9.6,9.6,0,0,0,3.22-1.63,5.76,5.76,0,0,0,1.33-2.24,7.93,7.93,0,0,0-1.26-4.94,5.79,5.79,0,0,0-2.27-1.21,22.32,22.32,0,0,0-4.12-.1,21.64,21.64,0,0,0,3.58-1.38,4.84,4.84,0,0,0,1.67-1.88,4.3,4.3,0,0,0-.8-2.86C529.37,383.55,524.58,383.69,522.57,383.5Z"/><polygon class="cls-8" points="502.64 412.47 501.17 416.96 504.37 417 502.64 412.47"/><path class="cls-8" d="M524.29,385.74l.14,3.56a20.62,20.62,0,0,0,2.37-.09c.64-.13,2.09-.38,2.46-.93a2.64,2.64,0,0,0-.08-2.13c-.25-.33-1.16-.47-1.57-.53A23.8,23.8,0,0,0,524.29,385.74Z"/><path class="cls-8" d="M525,393.38l.22,4.7a23.94,23.94,0,0,0,3-.14c.81-.18,2.67-.44,3.14-1.25a3.87,3.87,0,0,0-.14-2.82c-.33-.49-1.49-.62-2-.69A28,28,0,0,0,525,393.38Z"/><circle class="cls-19" cx="406.79" cy="356.26" r="16.06"/><path class="cls-20" d="M463.92,438.7c-21.64-9-31.4,23.65-9.52,29.73C441.2,457.12,447.89,441.63,463.92,438.7Z"/><path class="cls-20" d="M316.06,382.56c-21.64-9-31.4,23.65-9.52,29.73C293.34,401,300,385.49,316.06,382.56Z"/><rect class="cls-6" x="30.12" y="297.41" width="171.9" height="16.82" rx="7.34"/></g><g id="Layer_2" data-name="Layer 2"><path class="cls-4" d="M492.65,258a55.11,55.11,0,1,1-22.55-74.6l-26,48.58,55,3.11A55,55,0,0,1,492.65,258Z"/><path class="cls-21" d="M394.39,208.17A58.2,58.2,0,0,0,389,234.86a57.05,57.05,0,0,0,14.09,33.94c7.62,8.6,18.25,14.23,28.67,16.91,11.35,2.92,23.91,1.4,36.09-4-10,4.4-24.61-.16-33.72-2.89s-17.53-8.67-23.76-15.12c-7.08-7.31-12.05-17.37-14.94-28C393.79,229.79,393.35,214.74,394.39,208.17Z"/><path class="cls-22" d="M547.47,242.8c10.12-4.6,19.68-13.68,27.12-22,7.33-8.73,11.59-20.6,7.07-31.64-5.51-13.62-24.25-18-33.89-6.39C522.57,158.43,481.85,204.78,547.47,242.8Z"/><path class="cls-6" d="M551.59,240.39c10.12-4.59,19.4-14.68,26.84-23,7.33-8.73,11.59-20.6,7.07-31.64-5.51-13.62-24.25-18-33.89-6.38C526.41,155,486,202.38,551.59,240.39Z"/></g><g id="Layer_4" data-name="Layer 4"><path class="cls-23" d="M36.46,2.66c24.08,8.91,54.87-3.89,79,1.76,27.86,6.54,18.75,20.92-3.26,28.1-23,7.48-59.7,7.62-70.54,7.32L73.08,30Z"/><path class="cls-23" d="M8.14,63S2.69,143.56,14,151.87c31.34,23,481.08-94.86,551.63-40.55-2.23-113.56-4-107-115.89-98.43C314.49,22.8,141.29,79.28,8.14,63Z"/><path class="cls-23" d="M530.52,169.09c-23-9-52.77,5.15-75.4-2-27.88-8.81-15.22-27,7.48-31.09s52.84-6.16,63.18-5.83l-30.29,11.52Z"/><path class="cls-24" d="M8.14,63c-.82-39.15,97.27-12.22,121.74-40.44l2.58,39.1C94.68,65.62,45.94,66.39,8.14,63Z"/><path class="cls-24" d="M565.64,111.68c-6.63,31.55-99,5.61-126,37.45l-3.53-49.92c20.43-2.45,47.93-3.83,71.87-4.16,9.49-.14,26.3.07,34.7,3C553.35,101.68,557.65,105,565.64,111.68Z"/></g><g id="Layer_5" data-name="Layer 5"><path class="cls-1" d="M148.53,93.07a5.87,5.87,0,0,1-2.77-1.54,5.24,5.24,0,0,1-1.41-2.89L149,88a2.11,2.11,0,0,0,2.52,1.74,2.4,2.4,0,0,0,1.47-.66,1.5,1.5,0,0,0,.39-1.33,1.49,1.49,0,0,0-.6-1,3.86,3.86,0,0,0-1.21-.56,18,18,0,0,0-1.94-.38,20.21,20.21,0,0,1-3-.67,5.35,5.35,0,0,1-2.13-1.33,4.5,4.5,0,0,1-1.18-2.63,4.78,4.78,0,0,1,1.27-4.19,7.51,7.51,0,0,1,4.54-2.09,7.7,7.7,0,0,1,5,.74,5.17,5.17,0,0,1,2.51,3.69l-4.75.67a1.84,1.84,0,0,0-.83-1.28,2.27,2.27,0,0,0-1.59-.29,1.93,1.93,0,0,0-1.22.61,1.52,1.52,0,0,0-.31,1.28,1.54,1.54,0,0,0,1,1.25,14.77,14.77,0,0,0,2.71.69,25,25,0,0,1,3,.72,5.63,5.63,0,0,1,2.11,1.3A4.34,4.34,0,0,1,158,86.75a5.32,5.32,0,0,1-.39,2.91,5.63,5.63,0,0,1-2,2.32,7.91,7.91,0,0,1-3.41,1.24A9.27,9.27,0,0,1,148.53,93.07Z"/><path class="cls-1" d="M165.59,77a5.46,5.46,0,0,1,2.56-1,5.89,5.89,0,0,1,3.33.45,6.26,6.26,0,0,1,2.63,2.24,9.52,9.52,0,0,1,1.09,7.76,6.36,6.36,0,0,1-1.9,2.91,6,6,0,0,1-3.08,1.36,5.56,5.56,0,0,1-2.72-.24,4.91,4.91,0,0,1-2-1.34l1.24,8.82-4.39.62-3-21.14,4.38-.61.29,2A4.8,4.8,0,0,1,165.59,77Zm4.16,3.64a3,3,0,0,0-2.37-.62,3,3,0,0,0-2.09,1.26,4.2,4.2,0,0,0,.73,5.18,3.12,3.12,0,0,0,4.45-.64,3.69,3.69,0,0,0,.56-2.74A3.55,3.55,0,0,0,169.75,80.61Z"/><path class="cls-1" d="M181.44,88.2a6.66,6.66,0,0,1-3-2.19,8.41,8.41,0,0,1-1.09-7.78,6.75,6.75,0,0,1,2.31-3,8.58,8.58,0,0,1,7.59-1.07,6.71,6.71,0,0,1,3,2.21,8.26,8.26,0,0,1,1.08,7.77,6.79,6.79,0,0,1-2.33,3,8.24,8.24,0,0,1-3.68,1.43A7.84,7.84,0,0,1,181.44,88.2Zm5.39-4.65a3.73,3.73,0,0,0,.51-2.77,3.79,3.79,0,0,0-1.23-2.52,3,3,0,0,0-4.25.59,3.8,3.8,0,0,0-.47,2.77,3.86,3.86,0,0,0,1.2,2.53,2.75,2.75,0,0,0,2.22.62A2.87,2.87,0,0,0,186.83,83.55Z"/><path class="cls-1" d="M206.07,72.35a6.46,6.46,0,0,1,2.13,4.27L209.38,85l-4.36.61-1.1-7.77a3.16,3.16,0,0,0-1.06-2.13,2.94,2.94,0,0,0-4,.57,3.19,3.19,0,0,0-.43,2.33l1.1,7.77-4.39.62-2-14.31,4.38-.62.27,1.9a4.62,4.62,0,0,1,1.58-1.75,5.64,5.64,0,0,1,2.47-.91A5.24,5.24,0,0,1,206.07,72.35Z"/><path class="cls-1" d="M214.85,83.76a5.8,5.8,0,0,1-2.55-1.43A4.68,4.68,0,0,1,211,80l4.33-.61a1.69,1.69,0,0,0,.86,1.11,2.51,2.51,0,0,0,1.58.25,2.26,2.26,0,0,0,1.23-.5,1,1,0,0,0,.33-.9,1,1,0,0,0-.77-.82,14.69,14.69,0,0,0-2.17-.36,20.35,20.35,0,0,1-2.67-.39,4.56,4.56,0,0,1-1.95-1,3.44,3.44,0,0,1-1.07-2.22,4.09,4.09,0,0,1,.36-2.34,4.56,4.56,0,0,1,1.78-1.88,7.62,7.62,0,0,1,3.06-1,6.34,6.34,0,0,1,4.43.73,5.23,5.23,0,0,1,2.28,3.29l-4.05.57a1.76,1.76,0,0,0-.82-1.09,2.31,2.31,0,0,0-1.51-.23,2.07,2.07,0,0,0-1.14.46,1,1,0,0,0-.3.87,1,1,0,0,0,.79.83,11.11,11.11,0,0,0,2.12.33,22.25,22.25,0,0,1,2.71.44,4.54,4.54,0,0,1,1.93,1,3.69,3.69,0,0,1,1.12,2.27,3.76,3.76,0,0,1-.39,2.34,4.75,4.75,0,0,1-1.81,1.84,7.71,7.71,0,0,1-3,1A8.27,8.27,0,0,1,214.85,83.76Z"/><path class="cls-1" d="M229.37,81.45a6.66,6.66,0,0,1-3-2.19,7.7,7.7,0,0,1-1.51-3.76,7.56,7.56,0,0,1,.43-4,6.73,6.73,0,0,1,2.3-3,8.58,8.58,0,0,1,7.59-1.07,6.71,6.71,0,0,1,3,2.21,8.26,8.26,0,0,1,1.08,7.77,6.72,6.72,0,0,1-2.33,3,8.24,8.24,0,0,1-3.68,1.43A7.85,7.85,0,0,1,229.37,81.45Zm5.39-4.65a3.73,3.73,0,0,0,.51-2.77A3.79,3.79,0,0,0,234,71.51a3,3,0,0,0-4.25.59,4.64,4.64,0,0,0,.74,5.3,2.73,2.73,0,0,0,2.22.62A2.87,2.87,0,0,0,234.76,76.8Z"/><path class="cls-1" d="M247.44,65.56a5,5,0,0,1,2.47-1l.65,4.64-1.2.17a3.67,3.67,0,0,0-2.36,1,3.19,3.19,0,0,0-.48,2.59l.94,6.64-4.39.62-2-14.31,4.38-.62.34,2.39A5.85,5.85,0,0,1,247.44,65.56Z"/><path class="cls-1" d="M266.6,70.69l-9.92,1.4A3,3,0,0,0,257.83,74a2.6,2.6,0,0,0,1.95.44,2.32,2.32,0,0,0,2.09-1.7l4.67-.66a6.5,6.5,0,0,1-.94,2.72,6.58,6.58,0,0,1-2.1,2.1A7.54,7.54,0,0,1,260.44,78a7.66,7.66,0,0,1-3.87-.37,6.42,6.42,0,0,1-2.93-2.2,8.84,8.84,0,0,1-1.11-7.79,6.4,6.4,0,0,1,2.19-2.93,7.86,7.86,0,0,1,3.65-1.43,7.76,7.76,0,0,1,3.81.36,6.34,6.34,0,0,1,2.88,2.13,7.56,7.56,0,0,1,1.44,3.64A10.55,10.55,0,0,1,266.6,70.69Zm-4.75-1.81a2.31,2.31,0,0,0-1-1.69,2.93,2.93,0,0,0-2-.4,2.84,2.84,0,0,0-1.77.91,2.9,2.9,0,0,0-.68,2Z"/><path class="cls-1" d="M268.25,65.41a6.28,6.28,0,0,1,1.91-2.88,6,6,0,0,1,3.08-1.35,5.63,5.63,0,0,1,2.66.23A4.69,4.69,0,0,1,278,62.74L277,56.1l4.39-.62,2.67,19-4.38.61-.29-2a4.54,4.54,0,0,1-1.53,1.89,5.5,5.5,0,0,1-2.57,1,5.89,5.89,0,0,1-3.33-.46,6.33,6.33,0,0,1-2.63-2.27,9.49,9.49,0,0,1-1.1-7.76Zm9.16,0a3,3,0,0,0-2.35-.64A3,3,0,0,0,273,66.07a3.58,3.58,0,0,0-.54,2.7,3.68,3.68,0,0,0,1.27,2.48,3.08,3.08,0,0,0,4.44-.61,3.64,3.64,0,0,0,.55-2.72A3.6,3.6,0,0,0,277.41,65.46Z"/><path class="cls-1" d="M296.9,58.48a5.55,5.55,0,0,1,2.55-1,6,6,0,0,1,3.33.44,6.29,6.29,0,0,1,2.63,2.25,8.42,8.42,0,0,1,1.38,3.75,8.81,8.81,0,0,1-.28,4,6.37,6.37,0,0,1-1.91,2.91,6,6,0,0,1-3.08,1.36A5.66,5.66,0,0,1,298.8,72a4.73,4.73,0,0,1-2-1.36l.28,2-4.38.62-2.67-19,4.38-.61.94,6.69A4.58,4.58,0,0,1,296.9,58.48Zm4.16,3.63a3.11,3.11,0,0,0-2.38-.62,3,3,0,0,0-2.08,1.26,4.18,4.18,0,0,0,.73,5.19,3.1,3.1,0,0,0,4.44-.64,3.65,3.65,0,0,0,.56-2.74A3.59,3.59,0,0,0,301.06,62.11Z"/><path class="cls-1" d="M322.71,54.42l-6,22.37-4.72.67,2.26-7.75-7.77-13,4.9-.69L316,64.5l2-9.41Z"/><path class="cls-1" d="M333.53,49.13l1.52,10.77a3.61,3.61,0,0,0,1.14,2.38,3,3,0,0,0,2.46.54,3.1,3.1,0,0,0,2.24-1.2,3.58,3.58,0,0,0,.47-2.61l-1.52-10.77,4.39-.61,1.51,10.74a7.73,7.73,0,0,1-.45,4.22,6.66,6.66,0,0,1-2.41,2.91,8.82,8.82,0,0,1-3.74,1.39,8.47,8.47,0,0,1-3.92-.3,6.29,6.29,0,0,1-3-2.14,8,8,0,0,1-1.55-4l-1.52-10.74Z"/><path class="cls-1" d="M360.76,50.57a6.33,6.33,0,0,1,2.13,4.26l1.18,8.36-4.36.62L358.62,56a3.2,3.2,0,0,0-1.06-2.12,2.63,2.63,0,0,0-2.11-.51,2.6,2.6,0,0,0-1.89,1.07,3.16,3.16,0,0,0-.43,2.34l1.09,7.77-4.38.62-2-14.31,4.39-.62.26,1.9a4.76,4.76,0,0,1,1.59-1.76,5.91,5.91,0,0,1,2.46-.91A5.24,5.24,0,0,1,360.76,50.57Z"/><path class="cls-1" d="M365.12,46.24a2.34,2.34,0,0,1-.47-3.39,2.68,2.68,0,0,1,1.78-.94,2.61,2.61,0,0,1,2,.42,2.26,2.26,0,0,1,1,1.6,2.24,2.24,0,0,1-.49,1.78,2.64,2.64,0,0,1-1.77.94A2.69,2.69,0,0,1,365.12,46.24Zm4.37,1.59,2,14.31-4.39.62-2-14.31Z"/><path class="cls-1" d="M382.14,56.85l.52,3.72-2.23.32a5.49,5.49,0,0,1-3.88-.65,4.87,4.87,0,0,1-1.87-3.62l-.8-5.69-1.75.25-.51-3.65,1.75-.24-.5-3.49,4.39-.62.49,3.49,2.87-.4.52,3.64-2.88.4.81,5.75a1.24,1.24,0,0,0,.44.88,1.51,1.51,0,0,0,1.07.13Z"/><path class="cls-1" d="M397.7,43.86l-6,22.37L387,66.9l2.26-7.75-7.77-13,4.9-.69,4.57,8.48,2-9.41Z"/><path class="cls-1" d="M225.94,101.48a3.28,3.28,0,0,0-1.59-1.18,4.58,4.58,0,0,0-2.21-.17,4.43,4.43,0,0,0-3.21,1.87,5.35,5.35,0,0,0-.76,3.92,5.41,5.41,0,0,0,1.89,3.69,5,5,0,0,0,3.91.88,4.46,4.46,0,0,0,2.61-1.21,4.67,4.67,0,0,0,1.3-2.59l-5.57.79-.45-3.23,9.54-1.35L232,107a8.78,8.78,0,0,1-1.22,3.29,8.92,8.92,0,0,1-2.64,2.7,9.27,9.27,0,0,1-3.93,1.44,9.7,9.7,0,0,1-4.92-.5,8.43,8.43,0,0,1-3.72-2.78,10.41,10.41,0,0,1-1.34-9.51A8.49,8.49,0,0,1,217,97.91a9.76,9.76,0,0,1,4.58-1.84,9.38,9.38,0,0,1,5.67.8,7.46,7.46,0,0,1,3.55,3.92Z"/><path class="cls-1" d="M233.67,101.67a6.29,6.29,0,0,1,1.91-2.89,5.94,5.94,0,0,1,3.08-1.34,5.39,5.39,0,0,1,2.74.24,4.57,4.57,0,0,1,2,1.36l-.28-2,4.38-.62,2,14.31-4.39.62-.28-2a4.8,4.8,0,0,1-1.56,1.87,5.5,5.5,0,0,1-2.57,1,5.9,5.9,0,0,1-3.3-.46,6.36,6.36,0,0,1-2.64-2.27,8.85,8.85,0,0,1-1.38-3.77A8.59,8.59,0,0,1,233.67,101.67Zm9.16,0a3.13,3.13,0,0,0-4.44.61,3.6,3.6,0,0,0-.55,2.71,3.67,3.67,0,0,0,1.28,2.47,2.92,2.92,0,0,0,2.35.65,3,3,0,0,0,2.09-1.26,4.2,4.2,0,0,0-.73-5.18Z"/><path class="cls-1" d="M254.39,90.67l2.67,19-4.38.61-2.67-19Z"/><path class="cls-1" d="M258.65,98.15a6.2,6.2,0,0,1,1.91-2.88,5.87,5.87,0,0,1,3.08-1.35,5.62,5.62,0,0,1,2.74.24,4.5,4.5,0,0,1,2,1.37l-.29-2,4.39-.62,2,14.31-4.39.62-.29-2a4.81,4.81,0,0,1-1.55,1.86,5.5,5.5,0,0,1-2.57,1,5.86,5.86,0,0,1-3.31-.46,6.33,6.33,0,0,1-2.63-2.27,8.8,8.8,0,0,1-1.38-3.77A8.59,8.59,0,0,1,258.65,98.15Zm9.16,0a3,3,0,0,0-2.35-.63,3,3,0,0,0-2.09,1.25,3.58,3.58,0,0,0-.55,2.7A3.69,3.69,0,0,0,264.1,104a3,3,0,0,0,2.35.65,3,3,0,0,0,2.09-1.27,3.56,3.56,0,0,0,.54-2.71A3.64,3.64,0,0,0,267.81,98.19Z"/><path class="cls-1" d="M282.71,101.8c1.48-1.62,2.64-3,3.49-4a16.7,16.7,0,0,0,2.05-3.14,5.11,5.11,0,0,0,.6-3,2.54,2.54,0,0,0-.72-1.57,1.79,1.79,0,0,0-1.54-.39,1.86,1.86,0,0,0-1.43,1,3.5,3.5,0,0,0-.26,2.14l-4.23.6a7.4,7.4,0,0,1,.42-3.78,5.54,5.54,0,0,1,2-2.48A7.31,7.31,0,0,1,286.25,86a6.24,6.24,0,0,1,4.82.91,5.64,5.64,0,0,1,2.13,3.86A8.14,8.14,0,0,1,292,96.16a28,28,0,0,1-4.13,5.24l6.93-1,.5,3.56-12.87,1.82-.46-3.26C282.52,102,282.76,101.76,282.71,101.8Z"/><path class="cls-1" d="M296.67,87.17q1.35-2.78,5.15-3.31t5.85,1.76a12.49,12.49,0,0,1,2.69,6.71,12.52,12.52,0,0,1-.72,7.24c-.9,1.86-2.61,3-5.14,3.32s-4.49-.23-5.86-1.77A12.5,12.5,0,0,1,296,94.36,12.4,12.4,0,0,1,296.67,87.17ZM304.92,89a2.67,2.67,0,0,0-4.66.66,11.11,11.11,0,0,0,0,4.07,16.79,16.79,0,0,0,.62,2.85A3.66,3.66,0,0,0,302,98.34a2.85,2.85,0,0,0,3.72-.52,3.78,3.78,0,0,0,.57-2,17.2,17.2,0,0,0-.2-2.91A11,11,0,0,0,304.92,89Z"/><path class="cls-1" d="M311.5,87.05,310.92,83,318,82l2.63,18.72-4.56.64L314,86.69Z"/><path class="cls-1" d="M330.25,95.81A2,2,0,0,0,332,94.33a10,10,0,0,0,0-4,3.79,3.79,0,0,1-1.37,1.45,5.25,5.25,0,0,1-2.11.74,6.29,6.29,0,0,1-3-.27,4.84,4.84,0,0,1-2.3-1.74A6.9,6.9,0,0,1,322,87.34a6.77,6.77,0,0,1,.31-3.42,5.42,5.42,0,0,1,1.93-2.49,7.19,7.19,0,0,1,3.31-1.25q3.8-.54,5.64,1.61t2.5,6.74a21.18,21.18,0,0,1,.17,5.58,6.23,6.23,0,0,1-1.56,3.58,6.16,6.16,0,0,1-3.73,1.68,6.84,6.84,0,0,1-3.43-.3,5.57,5.57,0,0,1-2.39-1.73,6.44,6.44,0,0,1-1.22-2.65l4.05-.58A2.23,2.23,0,0,0,330.25,95.81Zm.43-7.79a2.51,2.51,0,0,0,.39-1.87,2.64,2.64,0,0,0-.94-1.81,2.75,2.75,0,0,0-3.58.52,2.61,2.61,0,0,0-.39,2,2.5,2.5,0,0,0,.91,1.69,2.55,2.55,0,0,0,2,.42A2.35,2.35,0,0,0,330.68,88Z"/></g></svg>