<svg xmlns="http://www.w3.org/2000/svg" viewBox="0 0 595.22 400.41"><defs><style>.cls-1{fill:#4e4e4f;}.cls-12,.cls-2{fill:none;}.cls-2{stroke:#4e4e4f;stroke-width:4px;}.cls-12,.cls-13,.cls-2{stroke-miterlimit:10;}.cls-3{fill:#b4daf4;}.cls-4{fill:#fcb966;}.cls-5{fill:#212121;}.cls-6{fill:#f5a0c5;}.cls-7{fill:#595b5c;}.cls-13,.cls-8{fill:#2d2d2d;}.cls-9{fill:#9bd0ee;}.cls-10{fill:#f4f1ef;}.cls-11{fill:#fff;}.cls-12,.cls-13{stroke:#e6d8c9;}.cls-14{fill:#eae2da;}.cls-15{fill:#a1ddf8;}.cls-16{fill:#f6d996;}.cls-17{fill:#9ed5b5;}.cls-18{fill:#f69da0;}.cls-19{fill:#fdf7fa;}.cls-20{fill:#c1aaa4;}.cls-21{fill:#f7a54a;}.cls-22{fill:#e1559f;}</style></defs><g id="Layer_1" data-name="Layer 1"><rect class="cls-1" x="3.03" y="61.52" width="442.6" height="37.34" rx="1.77"/><rect class="cls-2" x="2.02" y="59.75" width="444.77" height="295.13" rx="11.21" transform="translate(-0.28 0.31) rotate(-0.08)"/><rect class="cls-3" x="124.56" y="70.39" width="225.48" height="16.82" rx="8.41"/><path class="cls-3" d="M0,97.69H448.91a0,0,0,0,1,0,0V343.79A13.17,13.17,0,0,1,435.74,357H13.2A13.17,13.17,0,0,1,0,343.79V97.69a0,0,0,0,1,0,0Z" transform="translate(-0.31 0.31) rotate(-0.08)"/><circle class="cls-3" cx="22.4" cy="78.92" r="7.71"/><circle class="cls-3" cx="47.01" cy="78.89" r="7.71"/><circle class="cls-3" cx="72.33" cy="78.85" r="7.71"/><line class="cls-4" x1="3.41" y1="98.81" x2="445.3" y2="98.07"/><rect class="cls-4" x="54.72" y="159.13" width="269.83" height="16.82" rx="8.41"/><path class="cls-5" d="M275.56,187.22c-1.37-2.51,1.82-8.58,3.45-10.94,7.29-10.58,28.07-14.26,39.8-19.17,15.9-6.67,23.44-8.6,37.1,3.76,2.56-1,91.44,1.34,102.1-7,7.4-17.14,46.4.07,63.58,5.65,12.92,4.2,1.65,16,12.93,23,0,0-43.66-12.34-55.74-5.26-33.55,19.64-25.23,32.86-57.36,36.43l-58.61-7.5S340,182.06,329.86,178.17c-25-9.66-18.94,23.76-42.44,12.27C287.42,190.44,277,189.92,275.56,187.22Z"/><rect class="cls-6" x="30.12" y="196.1" width="247.61" height="16.82" rx="8.41"/><path class="cls-5" d="M524.37,168.71c-17.46-8,38.55,85.8,38.55,85.8,4.26,14,6.07,46,9.69,60-.85,12.78,8.62,32,3.15,43.74-7.76,12.9-23.68,19.35-38.09,20.74,16.38,14.38,30.26,9.79,45.08-3.74,19.61-19.83,10.72-50.46,8.78-74.31C585.39,260.36,569.24,189.21,524.37,168.71Z"/><path class="cls-7" d="M307.6,397.88c22.23-9.87,23-46.45,45.51-61.61,9.69-6.53,81.06-5.29,117.05-3.35,11.66.62,27,2.76,35.27,11.92,10.19,11.35,18.84,29.64,33.21,34.34,16.48,5.39,38.5-11,40.65-29.06.59-5,1.66-15.21,1.22-20.25-.31-3.6-.71-10.57-1.25-14.15-3.08-20.26-9.12-44.87-14.19-64.49-4.8-18.53-17-54.88-30.55-68.66-15.13-15.39-40-31.49-59.24-21-11.64,6.33-19.87,28.76-30,37.4-5.44,4.66-23.58,5.86-30.6,6.37-10.9.8-38.82,2.57-48.16-3.82-12.58-8.61-19.87-31.26-35.45-33.75-21.88-3.5-52.05,10.41-65.18,28-17.06,22.83-20.81,59.58-20.93,89-.07,19.24-1.6,31.65-1.1,49.07C241.66,380.17,249.53,409.43,307.6,397.88Z"/><circle class="cls-8" cx="479.97" cy="221.91" r="13.08"/><circle class="cls-8" cx="501.93" cy="197.44" r="13.08"/><circle class="cls-8" cx="526.16" cy="219.71" r="13.08"/><circle class="cls-8" cx="503.34" cy="244.17" r="13.08"/><circle class="cls-9" cx="458.1" cy="281.44" r="31.95"/><circle class="cls-9" cx="363.13" cy="284.46" r="31.95"/><circle class="cls-9" cx="312.62" cy="225.65" r="31.95"/><circle class="cls-8" cx="433.94" cy="222.95" r="7.2"/><circle class="cls-8" cx="382.06" cy="225.54" r="7.2"/><circle class="cls-10" cx="457.06" cy="280.74" r="20.84"/><rect class="cls-11" x="355.39" y="258.57" width="16.74" height="51.41" rx="3.59" transform="translate(-4.92 6.41) rotate(-1)"/><rect class="cls-11" x="355.39" y="258.57" width="16.74" height="51.41" rx="3.59" transform="translate(85.89 652.95) rotate(-91)"/><circle class="cls-11" cx="310.94" cy="224.23" r="20.84"/><rect class="cls-12" x="378.17" y="223.01" width="4.62" height="3.84" transform="translate(2.27 -3.79) rotate(0.57)"/><rect class="cls-13" x="380.47" y="224.74" width="4.62" height="3.84" transform="translate(2.28 -3.81) rotate(0.57)"/><rect class="cls-14" x="433.19" y="218.4" width="1.72" height="5.29" rx="0.37" transform="translate(659.43 -210.77) rotate(90.57)"/><rect class="cls-14" x="433.21" y="220.66" width="1.5" height="5.29" rx="0.35" transform="translate(661.59 -208.4) rotate(90.57)"/><rect class="cls-14" x="433.17" y="222.91" width="1.55" height="5.29" rx="0.35" transform="translate(663.82 -206.11) rotate(90.57)"/><polygon class="cls-15" points="473.44 214.48 476.87 214.51 480.26 218.81 483.16 214.57 486.24 214.6 481.91 220.76 487.17 228.25 483.74 228.22 480.29 222.81 477.2 228.87 473.73 228.61 478 220.72 473.44 214.48"/><polygon class="cls-16" points="494.82 190.52 497.91 190.55 501.37 196.06 504.79 190.62 507.75 190.65 503.41 198.07 503.23 204.48 499.67 204.44 499.73 198.16 494.82 190.52"/><polygon class="cls-17" points="496.01 250.54 501.01 236.24 503.74 236.27 510.25 249.97 506.57 250.17 505.42 246.48 500.13 246.91 499.21 250.57 496.01 250.54"/><path class="cls-18" d="M522.57,210.84l.17,17.7s5.1.4,6.65,0a9.42,9.42,0,0,0,3.22-1.63,5.69,5.69,0,0,0,1.33-2.24,7.88,7.88,0,0,0-1.26-4.93,5.81,5.81,0,0,0-2.27-1.22,22.1,22.1,0,0,0-4.12-.09,21,21,0,0,0,3.58-1.39,4.84,4.84,0,0,0,1.67-1.88,4.31,4.31,0,0,0-.8-2.86C529.37,210.89,524.58,211,522.57,210.84Z"/><polygon class="cls-8" points="502.64 239.81 501.17 244.31 504.37 244.34 502.64 239.81"/><path class="cls-8" d="M524.29,213.08l.14,3.56a18.52,18.52,0,0,0,2.37-.09c.64-.13,2.09-.38,2.46-.92a2.66,2.66,0,0,0-.08-2.14c-.25-.33-1.16-.47-1.57-.53A23.8,23.8,0,0,0,524.29,213.08Z"/><path class="cls-8" d="M525,220.72l.22,4.71a24.43,24.43,0,0,0,3-.15c.81-.18,2.67-.44,3.14-1.25a3.87,3.87,0,0,0-.14-2.82c-.33-.49-1.49-.62-2-.69A29.38,29.38,0,0,0,525,220.72Z"/><circle class="cls-19" cx="406.79" cy="183.6" r="16.06"/><path class="cls-20" d="M463.92,266c-21.64-9-31.4,23.65-9.52,29.73C441.2,284.46,447.89,269,463.92,266Z"/><path class="cls-20" d="M316.06,209.91c-21.64-9-31.4,23.64-9.52,29.72C293.34,228.32,300,212.83,316.06,209.91Z"/><rect class="cls-6" x="30.12" y="124.75" width="171.9" height="16.82" rx="7.34"/></g><g id="Layer_2" data-name="Layer 2"><path class="cls-4" d="M492.65,85.36a55.11,55.11,0,1,1-22.55-74.6l-26,48.58,55,3.11A55,55,0,0,1,492.65,85.36Z"/><path class="cls-21" d="M394.39,35.52A58.12,58.12,0,0,0,389,62.2a57.08,57.08,0,0,0,14.09,34c7.62,8.6,18.25,14.22,28.67,16.9,11.35,2.92,23.91,1.4,36.09-4-10,4.4-24.61-.16-33.72-2.89s-17.53-8.67-23.76-15.11c-7.08-7.32-12.05-17.38-14.94-28C393.79,57.13,393.35,42.08,394.39,35.52Z"/><path class="cls-22" d="M547.47,70.14c10.12-4.59,19.68-13.68,27.12-22,7.33-8.73,11.59-20.59,7.07-31.64-5.51-13.62-24.25-18-33.89-6.38C522.57-14.22,481.85,32.13,547.47,70.14Z"/><path class="cls-6" d="M551.59,67.73c10.12-4.59,19.4-14.68,26.84-23C585.76,36,590,24.13,585.5,13.08,580-.54,561.25-4.93,551.61,6.7,526.41-17.63,486,29.72,551.59,67.73Z"/></g></svg>