<svg id="Layer_3" data-name="Layer 3" xmlns="http://www.w3.org/2000/svg" viewBox="0 0 1700.69 1907.8"><defs><style>.cls-1{stroke:#333;}.cls-1,.cls-10,.cls-11,.cls-12,.cls-13,.cls-18,.cls-19,.cls-2,.cls-3,.cls-4,.cls-5,.cls-6,.cls-7,.cls-8{stroke-miterlimit:10;}.cls-1,.cls-10,.cls-11,.cls-12,.cls-4,.cls-5,.cls-6{stroke-width:3px;}.cls-18,.cls-2{fill:#cb987e;}.cls-10,.cls-11,.cls-12,.cls-13,.cls-18,.cls-2,.cls-3,.cls-4,.cls-5,.cls-6,.cls-7,.cls-8{stroke:#000;}.cls-13,.cls-18,.cls-2{stroke-width:2px;}.cls-10,.cls-13,.cls-19,.cls-3,.cls-7{fill:none;}.cls-3{stroke-width:6.04px;}.cls-14,.cls-4,.cls-8{fill:#feb15a;}.cls-6{fill:#ffacab;}.cls-13,.cls-18,.cls-19,.cls-7{stroke-linecap:round;}.cls-7{stroke-width:4px;}.cls-8{stroke-width:3.18px;}.cls-9{fill:#5aa6a9;}.cls-11{fill:#5aa6ca;}.cls-12{fill:#aae3ff;}.cls-15{fill:#fed15a;}.cls-16{fill:#56cd8c;}.cls-17{fill:#bb98c5;}.cls-19{stroke:#ff3838;stroke-width:16px;}.cls-20{fill:#005ec2;}.cls-21{fill:#ff95c8;}</style></defs><path class="cls-1" d="M775.3,1350.52c-28.44,22-66.74,26-98.13,10.18-44.21-22.27-49.57-71.17-49.85-74.2-31.18,27.54-78.33,27.57-109.24.39-30.33-26.66-36.77-72.24-14.77-106.61-42.73-2.15-80.95-26.62-99.36-64.07-22.24-45.25-10.46-99.09,22.46-132,32.2-32.18,73.76-33.49,83.46-33.54-5.77-4.38-65-50.84-61.31-123.47.09-1.73.22-3.55.22-3.55a137.44,137.44,0,0,1,23.32-67.58,168.43,168.43,0,0,1,40-38.11,166.68,166.68,0,0,1,27.29-15c2.05-14.55,11.1-65.74,55.66-102.64,46.38-38.42,113.16-46.36,173-21.5,23.07-51.43,71.26-86.45,125.14-90.21,65-4.53,127.74,37.19,151.33,102.82,52.73-25.73,115.72-18.16,160.22,19.19,50.5,42.39,58,107.7,48.42,147.86,0,.11,0,.2-.06.26,3.27.58,76.94,15,102.33,83.54,19,51.23,2.83,110.67-40.77,147.81,43.81,26.56,69,74.28,64,121.59-6.34,59.78-60,109.71-127.56,112.68,6.66,7.65,36,42.9,28.33,82.63-9.51,49.45-73.5,91.3-152.68,79.22A266.34,266.34,0,0,1,989.39,1339c-8.63,9-43.43,42.93-99.86,47.73C826.9,1392.1,783.72,1357.54,775.3,1350.52Z"/><path class="cls-2" d="M780.76,1311.47l0,111.33c6.09,6,45.62,43.48,105.66,39.43,53.77-3.62,86.2-38,92.8-45.36q-4.14-63.58-8.27-127.17a197.27,197.27,0,0,1-190.16,21.77Z"/><path class="cls-2" d="M634.38,1129.73c6.36,26.33,19.65,78.47,64.3,124.08,5.51,5.63,75.89,75.49,170.37,71.63,102.53-4.2,199.34-93.82,225.57-221.66,2.61,2.71,11.89,11.69,26,12.41,11.83.61,20.43-5,24.82-7.9,20.37-13.62,29.49-41.39,27.07-65.42-.33-3.28-5-45-28.2-48.51-15.7-2.35-29.53,14.37-31.59,16.92-6.39-5.64-16.8-12.27-23.19-17.91-153.79,1.88-303.57,4.75-457.36,6.63A300.21,300.21,0,0,0,634.38,1129.73Z"/><line class="cls-3" x1="556.06" y1="1694.76" x2="556.06" y2="1908.75"/><path class="cls-3" d="M1165.12,1678.19c.85,53.36,15.18,104.71,19.89,157.44v72.17"/><path class="cls-4" d="M755.93,1438.65a260.13,260.13,0,0,0-46.56,7.77c-60.39,14.93-50.91,11.39-78.35,19.08-83.83,23.47-109.59,43-120.21,51.8-28.22,23.39-42.8,48.41-51,62.52-63.51,109-50.88,300.38-48.83,328.32h958.51a923.66,923.66,0,0,0-10-176.73c-15.39-99.92-28-178.2-79.1-235-87.82-97.48-244.73-80.82-276.76-76.8-6.88,12.49-28.23,47.24-70.48,62.81-51.77,19.09-113.78,1.61-156.81-44.45C771.45,1438,764.4,1438.05,755.93,1438.65Z"/><path class="cls-5" d="M787.65,1221.56c-9.95-10.74-17.36-26.68-18.11-46a.65.65,0,0,1,1.08-.52c7.72,6.68,17.39,13,28.7,15.49a.65.65,0,0,1,.17,1.21c-11,5.94-14.44,15.78-10.74,29.21A.65.65,0,0,1,787.65,1221.56Z"/><path class="cls-6" d="M817,1235.22c-9.72.61-22.43-3.91-29.5-13h0c-5.11-15.43-4-25.07,9-31.25.29.06,3.18-1.26,3.47-1.22a45.6,45.6,0,0,0,6.47.64c28,.79,45-23.67,50.47-19.25C864.4,1177.08,848,1233.28,817,1235.22Z"/><path class="cls-7" d="M795.89,1082.23a54.49,54.49,0,0,1-12.31,13.91c-7.76,6.17-12.65,6.43-14,10.09-1.57,4.12,1.58,11.9,22.87,28"/><path class="cls-8" d="M759.5,1442.52c5,29.39,66,56.23,123.06,54.13,48.49-1.79,93.17-24.47,111.77-55.84,4.11-6.93,12.64-21.32,7-31-3.88-6.71-12.85-8.19-18.86-8.38-3.36-.11-3.36-.11-9.07,3.66-13.53,8.91-38.08,33.85-77.91,39.58-51.3,7.36-79.68-11.24-91.64-20.19-1.69-1.26-14.18-8.43-18.25-9.45-13.07-3.29-17.22-1.3-22.61,7.3C758.08,1430.26,759.1,1440.17,759.5,1442.52Z"/><path class="cls-9" d="M1099.24,1030.46c-16.81-9.21-34.84-19.55-51.6-28.7a.29.29,0,0,1-.11-.39l16.65-28.3a.28.28,0,0,1,.42-.08c15.32,12.47,31.91,26.13,47.29,38.65Z"/><path class="cls-10" d="M1047.64,1001.76c16.76,9.15,34.79,19.49,51.6,28.7l12.65-18.82c-15.38-12.52-32-26.18-47.29-38.65a.28.28,0,0,0-.42.08l-16.65,28.3A.29.29,0,0,0,1047.64,1001.76Z"/><path class="cls-11" d="M572.43,911.78c-19.95,57.25,5,154.61,45.55,185.11a99.91,99.91,0,0,0,26,13.73c29.47,9.65,56.44,9.31,81.3-8.14,8.79-6.17,28.28-19.44,40-25.15,0,0,10-5.37,29.78-6.47,31.13-1.75,54.14,17.11,75.92,27.47,43.9,20.9,105.15,18,148.94-8.67,41.21-25.06,58.33-69.3,62.15-79.58a149.68,149.68,0,0,0,8-31.05s5-46.65-16.63-90.39c-32.14-65.11-119.61-62.91-167-68C813,810.72,610.75,801.79,572.43,911.78Z"/><path class="cls-12" d="M745,1049.14c-10.82,4.62,1.14-.09-3.9,1.78a160.54,160.54,0,0,1-43.55,8.71c-11.38.75-20.46,1.75-31.74-1.63-19.78-5.92-32.07-20.52-44.74-31.31a18.26,18.26,0,0,1-1.51-1.41A166.22,166.22,0,0,1,581.24,961c-5.08-16.09-10-31.75-6.51-49.17,8.72-43.18,62.93-64.81,88.94-75.19,20.3-8.1,42.52-14.17,122.19-20.25,129.31-9.86,171.6-1.56,201.74,8,32.22,10.17,56,23.44,73,46.27,3.53,4.71,14.84,20.63,19.53,41.94,11.5,52.3-22.21,122-83.15,149.67-19.15,8.69-37.9,13-56.44,13.24-22.74.3-34.52-13.8-81.83-34.83-25.51-11.34-51.6-13-65.35-10.68C784,1031.47,766.38,1040,745,1049.14Z"/><path class="cls-13" d="M793.39,1439.14c-4.13,4.14-6.31,8.57-5,14.38"/><path class="cls-13" d="M829.66,1455.94c-3.09,5.45-6.46,9.19-5.52,16.19a7.18,7.18,0,0,1,1.77.7"/><path class="cls-13" d="M912.06,1458.22c3.74,7.27,8.62,12.53,8.75,21.26"/><path class="cls-13" d="M979.19,1418.89c3.24-.17,13.82,4.13,11.89,10"/><path class="cls-14" d="M871,1467c-.36,4-2.73,9.42.63,12.51"/><path class="cls-13" d="M951.22,1440.08c8,2.57,13.85,8.66,13.13,17.51"/><path class="cls-10" d="M558.8,1685.87a1157.07,1157.07,0,0,0-7,151.12c.36,18.83,3.13,54,4.31,71.76"/><path class="cls-10" d="M1163.31,1683.52c6.31,40.39,11.51,83.81,14.88,130,2.12,29,3.37,67.47,3.92,94.3"/><line class="cls-7" x1="990.53" y1="921.03" x2="951.77" y2="991.47"/><line class="cls-7" x1="1008.53" y1="935.45" x2="968.9" y2="1007.46"/><path class="cls-15" d="M565.14,366.53l-32.28-8.73a2,2,0,0,0-1.83.41l-25.49,21.64a2,2,0,0,1-3.33-1.43L500.54,345a2,2,0,0,0-1-1.62l-28.46-17.55a2,2,0,0,1,.34-3.61l31.24-11.91a2,2,0,0,0,1.25-1.41l7.9-32.49a2,2,0,0,1,3.53-.79l21,26a2.05,2.05,0,0,0,1.73.74l33.34-2.52a2,2,0,0,1,1.84,3.11L555,331a2,2,0,0,0-.18,1.87l12.71,30.93A2,2,0,0,1,565.14,366.53Z"/><path class="cls-15" d="M1005.65,190.17l-32.08-27.4a2.57,2.57,0,0,0-2.32-.52l-40.75,10.9a2.54,2.54,0,0,1-3-3.43l16.13-39a2.56,2.56,0,0,0-.21-2.36l-23-35.4a2.55,2.55,0,0,1,2.34-3.92l42.06,3.3a2.57,2.57,0,0,0,2.18-.94l26.56-32.77a2.55,2.55,0,0,1,4.46,1l9.86,41a2.54,2.54,0,0,0,1.56,1.78l39.38,15.14a2.55,2.55,0,0,1,.42,4.55l-36,22a2.52,2.52,0,0,0-1.21,2l-2.23,42.14A2.55,2.55,0,0,1,1005.65,190.17Z"/><path class="cls-15" d="M1167.72,512.8l-32.08-27.39a2.54,2.54,0,0,0-2.32-.52l-40.75,10.9a2.56,2.56,0,0,1-3-3.44l16.14-39a2.57,2.57,0,0,0-.21-2.36l-23-35.39a2.55,2.55,0,0,1,2.34-3.93l42.06,3.3a2.54,2.54,0,0,0,2.18-.93l26.56-32.78a2.55,2.55,0,0,1,4.46,1l9.86,41a2.54,2.54,0,0,0,1.56,1.79l39.38,15.13a2.55,2.55,0,0,1,.42,4.55l-36,22.05a2.52,2.52,0,0,0-1.21,2L1171.92,511A2.55,2.55,0,0,1,1167.72,512.8Z"/><circle class="cls-16" cx="1492.95" cy="641.38" r="78.5"/><path class="cls-15" d="M812.78,395.87l-32.27-8.73a2,2,0,0,0-1.84.41l-25.49,21.64a2,2,0,0,1-3.32-1.43l-1.67-33.4a2,2,0,0,0-1-1.62l-28.46-17.56a2,2,0,0,1,.34-3.6l31.25-11.91a2,2,0,0,0,1.24-1.41l7.9-32.49A2,2,0,0,1,763,305l21,26a2,2,0,0,0,1.72.74l33.35-2.52a2,2,0,0,1,1.84,3.11l-18.28,28a2.05,2.05,0,0,0-.18,1.88l12.71,30.93A2,2,0,0,1,812.78,395.87Z"/><circle class="cls-17" cx="273.11" cy="1103.83" r="59.26"/><path class="cls-18" d="M1124.51,1026.88c1.39-1.55,11.31-12.34,20.87-10,11.47,2.82,14.63,22.63,13.15,34.93a45.94,45.94,0,0,1-10.43,23.59"/><path class="cls-13" d="M872.07,1464.38c.43,6.16-2.3,11.91,0,17.69"/><path class="cls-15" d="M375.68,1402.25l-32.28-8.73a2,2,0,0,0-1.83.41l-25.49,21.64a2,2,0,0,1-3.33-1.44l-1.67-33.4a2,2,0,0,0-.95-1.61l-28.46-17.56a2,2,0,0,1,.34-3.6l31.24-11.91a2.06,2.06,0,0,0,1.25-1.41l7.9-32.5a2,2,0,0,1,3.53-.78l21,26a2,2,0,0,0,1.73.75l33.34-2.53a2,2,0,0,1,1.84,3.12l-18.27,28a2,2,0,0,0-.18,1.87l12.7,30.93A2,2,0,0,1,375.68,1402.25Z"/><path class="cls-15" d="M1306.27,311.18l-32.09-27.4a2.54,2.54,0,0,0-2.31-.52l-40.76,10.9a2.55,2.55,0,0,1-3-3.43l16.14-39a2.57,2.57,0,0,0-.21-2.36l-23-35.39a2.55,2.55,0,0,1,2.34-3.93l42.06,3.31a2.58,2.58,0,0,0,2.18-.94l26.56-32.78a2.55,2.55,0,0,1,4.46,1l9.85,41a2.55,2.55,0,0,0,1.57,1.78l39.38,15.13a2.55,2.55,0,0,1,.42,4.55l-36,22a2.56,2.56,0,0,0-1.22,2l-2.22,42.13A2.55,2.55,0,0,1,1306.27,311.18Z"/><path class="cls-15" d="M366.8,244.64l-32.09-27.4a2.55,2.55,0,0,0-2.31-.52l-40.76,10.9a2.54,2.54,0,0,1-3-3.43l16.14-39a2.54,2.54,0,0,0-.22-2.36l-23-35.39a2.55,2.55,0,0,1,2.33-3.93L326,146.83a2.57,2.57,0,0,0,2.18-.94l26.57-32.78a2.54,2.54,0,0,1,4.45,1l9.86,41a2.54,2.54,0,0,0,1.56,1.78L410,172.06a2.55,2.55,0,0,1,.42,4.55l-36,22a2.55,2.55,0,0,0-1.21,2L371,242.83A2.54,2.54,0,0,1,366.8,244.64Z"/><path class="cls-15" d="M1536.2,1202l-32.28-8.73a2,2,0,0,0-1.83.41l-25.49,21.64a2,2,0,0,1-3.33-1.44l-1.67-33.4a2,2,0,0,0-.95-1.61l-28.46-17.56a2,2,0,0,1,.34-3.6l31.24-11.91a2.06,2.06,0,0,0,1.25-1.41l7.9-32.5a2,2,0,0,1,3.53-.79l21,26a2,2,0,0,0,1.73.75l33.34-2.53a2,2,0,0,1,1.84,3.12l-18.27,28a2,2,0,0,0-.18,1.87l12.71,30.93A2,2,0,0,1,1536.2,1202Z"/><path class="cls-15" d="M198.45,944.37,166.36,917a2.55,2.55,0,0,0-2.31-.52l-40.76,10.9a2.54,2.54,0,0,1-3-3.43l16.14-39a2.54,2.54,0,0,0-.22-2.36l-23-35.39a2.55,2.55,0,0,1,2.33-3.93l42.06,3.31a2.57,2.57,0,0,0,2.18-.94l26.57-32.77a2.54,2.54,0,0,1,4.45,1l9.86,41a2.54,2.54,0,0,0,1.56,1.78l39.38,15.14a2.54,2.54,0,0,1,.42,4.54l-36,22.06a2.53,2.53,0,0,0-1.21,2l-2.23,42.13A2.54,2.54,0,0,1,198.45,944.37Z"/><path class="cls-15" d="M1657.08,1001.38,1625,974a2.54,2.54,0,0,0-2.31-.52l-40.75,10.9a2.55,2.55,0,0,1-3-3.43l16.14-39a2.57,2.57,0,0,0-.21-2.36l-23-35.39a2.55,2.55,0,0,1,2.34-3.93l42.06,3.31a2.58,2.58,0,0,0,2.18-.94L1645,869.85a2.55,2.55,0,0,1,4.46,1l9.85,41a2.55,2.55,0,0,0,1.57,1.78l39.38,15.14a2.54,2.54,0,0,1,.42,4.54l-36,22.06a2.53,2.53,0,0,0-1.22,2l-2.22,42.13A2.55,2.55,0,0,1,1657.08,1001.38Z"/><path class="cls-19" d="M372.82,465.19a10.62,10.62,0,0,0,.28-4.28c-1.82-12.48-46.83-16.14-82-4"/><circle class="cls-20" cx="704.61" cy="78.5" r="78.5"/><path class="cls-19" d="M90.4,519.81c-40.77,9.87-75.91,45.27-69.47,60.63.82,2,2.95,3.39,6.2,4.35"/><ellipse class="cls-21" cx="196.93" cy="506.56" rx="109.8" ry="112.74"/><path class="cls-19" d="M27.13,584.79c47.29,13.83,333.67-74,345.69-119.6"/></svg>