<svg id="Layer_1" data-name="Layer 1" xmlns="http://www.w3.org/2000/svg" viewBox="0 0 708.08 583.04"><defs><style>.cls-1{fill:#faded1;}.cls-2{fill:none;}.cls-10,.cls-11,.cls-15,.cls-16,.cls-17,.cls-18,.cls-2,.cls-5,.cls-7,.cls-8,.cls-9{stroke:#000;}.cls-10,.cls-11,.cls-15,.cls-16,.cls-17,.cls-18,.cls-2,.cls-5,.cls-6,.cls-7,.cls-8,.cls-9{stroke-miterlimit:10;}.cls-3{fill:#424242;}.cls-4{fill:#feb15a;}.cls-5{fill:#d1d3d4;}.cls-6{fill:#eaeaea;stroke:#eaeaea;}.cls-7{fill:#ef5336;}.cls-8{fill:#fbf031;}.cls-9{fill:#00a651;}.cls-10{fill:#f1f2f2;}.cls-11,.cls-12{fill:#d8ad9b;}.cls-13{fill:#926b56;}.cls-14,.cls-15{fill:#dcb398;}.cls-16,.cls-17{fill:#a7a9ac;}.cls-17,.cls-18{stroke-width:0.95px;}.cls-18{fill:#fff;}</style></defs><path class="cls-1" d="M703,70.59a4.06,4.06,0,0,1-2.78,4.71l-92.7,28.37a4,4,0,0,0-2.1,1.51,109.63,109.63,0,0,1-26.11,25.55c-10,6.92-24,16.67-41.51,17.34-40,1.52-71.29-45.83-81.73-61.65a175.3,175.3,0,0,1-10-17.13l0,0,1.25.3c2,.89,3.93,1.65,5.53,2.35a78.76,78.76,0,0,0,9.16,3.3c4.78,1.43,21.07,4.5,26.1,4l-40.79-9.7c-6.17-2.76-12.74-6.79-10.71-14.31a9.36,9.36,0,0,1,3.77-5,4.1,4.1,0,0,1,3.38-.61c18.41,4.71,32.67,4.32,42.37,3,11-1.43,16.13-4,29.27-3.92,12.54.08,15.42,2.45,27.7,2.7,3.5.07,9.06,0,30.9-4.17,21.28-4,31.91-6.07,44.36-10A285,285,0,0,0,654.7,23c11.57-5.34,21.47-10.66,29.55-15.35a4,4,0,0,1,6,2.66Z"/><path class="cls-1" d="M447.3,69.57l40.79,9.7c-5,.45-21.32-2.62-26.1-4a78.76,78.76,0,0,1-9.16-3.3C451.23,71.22,449.28,70.46,447.3,69.57Z"/><path class="cls-2" d="M446.05,69.27l0,0a175.3,175.3,0,0,0,10,17.13c10.44,15.82,41.68,63.17,81.73,61.65,17.46-.67,31.52-10.42,41.51-17.34a109.63,109.63,0,0,0,26.11-25.55,4,4,0,0,1,2.1-1.51l92.7-28.37A4.06,4.06,0,0,0,703,70.59L690.24,10.28a4,4,0,0,0-6-2.66c-8.08,4.69-18,10-29.55,15.35a285,285,0,0,1-36.36,14.35c-12.45,3.9-23.08,5.92-44.36,10-21.84,4.16-27.4,4.24-30.9,4.17-12.28-.25-15.16-2.62-27.7-2.7-13.14-.07-18.24,2.49-29.27,3.92-9.7,1.27-24,1.66-42.37-3a4.1,4.1,0,0,0-3.38.61,9.36,9.36,0,0,0-3.77,5c-2,7.52,4.54,11.55,10.71,14.31,2,.89,3.93,1.65,5.53,2.35a78.76,78.76,0,0,0,9.16,3.3c4.78,1.43,21.07,4.5,26.1,4"/><polyline class="cls-2" points="488.09 79.27 447.3 69.57 446.05 69.27"/><path class="cls-2" d="M520.79,89.52c2.1,1.68,3.47,3.87,6,5.5a44.18,44.18,0,0,0,8.94,4.72,70.4,70.4,0,0,0,23.76,3.74"/><rect class="cls-3" x="227.87" y="194.17" width="203.3" height="162.12" rx="5.39" transform="translate(47.68 -48.66) rotate(9.1)"/><circle class="cls-4" cx="336.38" cy="232.4" r="19.03"/><rect class="cls-4" x="278.56" y="263.17" width="103.91" height="6.31" rx="2.38" transform="translate(46.29 -48.93) rotate(9.1)"/><rect class="cls-4" x="276.4" y="276.7" width="103.91" height="6.31" rx="2.38" transform="translate(48.4 -48.41) rotate(9.1)"/><rect class="cls-4" x="274.23" y="290.23" width="103.91" height="6.31" rx="2.38" transform="matrix(0.99, 0.16, -0.16, 0.99, 50.51, -47.9)"/><rect class="cls-4" x="272.06" y="303.76" width="103.91" height="6.31" rx="2.38" transform="translate(52.63 -47.39) rotate(9.1)"/><rect class="cls-5" x="234.5" y="133.59" width="189.83" height="22.6" rx="1.64" transform="translate(43.1 -73.13) rotate(13.55)"/><path class="cls-6" d="M215.84,364.22l-18.34-3.13a.79.79,0,0,1-.28-1.45l48.3-30a.79.79,0,0,1,1.19.8l-9.09,53.42a.79.79,0,0,1-1.37.38l-9.08-10.48a.79.79,0,0,0-1.29.14l-7.6,14.25a.79.79,0,0,1-1.17.26l-10.43-7.79a.79.79,0,0,1-.18-1.08l9.86-14.14A.78.78,0,0,0,215.84,364.22Z"/><circle class="cls-7" cx="249.92" cy="125.66" r="4.74"/><circle class="cls-8" cx="264.51" cy="129.18" r="4.74"/><circle class="cls-9" cx="279.11" cy="132.7" r="4.74"/><rect class="cls-10" x="289.15" y="145.28" width="121.74" height="8.99" rx="3.39" transform="translate(44.82 -77.81) rotate(13.55)"/><path class="cls-11" d="M222.77,27.56c24.67,2.88,48.8,5.28,73.46,8.16,4.4.42,11.21,3.92,12.48,5.86,2.28,3.49.53,7.55-10.64,8.47h-.17C286.17,49.53,279,49,266.7,48.2"/><path class="cls-11" d="M189.11,13.49a1.43,1.43,0,0,1,.77-2.68c18.17-.13,41.9,1.58,60.35,1.83.69,0,6.41.87,6.26,3.66-.45,7.81-55.45,10.81-42,11.84Z"/><path class="cls-12" d="M312.53,69.49c1,1.21,3.28,3.83,1.56,7.81-1.83,4.22-11.49,3.64-15.1,2.6C280.76,74.65,222.68,52.75,206.15,45a1.2,1.2,0,0,0-1,0l-18.29,8.72a1.22,1.22,0,0,0-.68,1.16c.27,6.83-3.15,15-2.59,21.69.2,2.26,5.3,5.36,4.15,4.42-10.16-8.26,18.69,14.48,24.78,18.7,9.83,6.81,18,13.45,22,20.68,3.19,5.75,2.77,15.34-1.76,18.47-3.46,2.4-8.47.74-12.32-.57-8.86-3-12-8-22.65-16.32-3.41-2.67-7.25-5.18-14.91-10.21C166.29,100.94,161,99.09,157.37,98.12c-4.78-1.26-6.27-.86-15.1-1.56-6.25-.49-25.18-2.07-44.78-7.81C84.64,85,84,83.11,73,80.94c-3.41-.67-10.35-1.87-23.95-2.08A265.41,265.41,0,0,0,9.74,81.21,1.21,1.21,0,0,1,8.4,79.7q8.22-30.6,16.42-61.19a1.22,1.22,0,0,1,1.41-.87,315.82,315.82,0,0,0,63.45,6c20.32-.15,30.48-.22,42.17-3.13C157,14.28,170.13,2.35,188.61,8.05c5.84,1.8,9.29,4.46,12.94,7C242.14,43.15,297.83,51.69,312.53,69.49Z"/><path class="cls-2" d="M314.09,77.3c-1.83,4.22-11.49,3.64-15.1,2.6C280.76,74.65,222.68,52.75,206.15,45a1.2,1.2,0,0,0-1,0l-18.29,8.72a1.22,1.22,0,0,0-.68,1.16c.27,6.83-3.15,15-2.59,21.69.2,2.26,5.3,5.36,4.15,4.42-10.16-8.26,18.69,14.48,24.78,18.7,9.83,6.81,18,13.45,22,20.68,3.19,5.75,2.77,15.34-1.76,18.47-3.46,2.4-8.47.74-12.32-.57-8.86-3-12-8-22.65-16.32-3.41-2.67-7.25-5.18-14.91-10.21C166.29,100.94,161,99.09,157.37,98.12c-4.78-1.26-6.27-.86-15.1-1.56-6.25-.49-25.18-2.07-44.78-7.81C84.64,85,84,83.11,73,80.94c-3.41-.67-10.35-1.87-23.95-2.08A265.41,265.41,0,0,0,9.74,81.21,1.21,1.21,0,0,1,8.4,79.7q8.22-30.6,16.42-61.19a1.22,1.22,0,0,1,1.41-.87,315.82,315.82,0,0,0,63.45,6c20.32-.15,30.48-.22,42.17-3.13C157,14.28,170.13,2.35,188.61,8.05c5.84,1.8,9.29,4.46,12.94,7,40.59,28.11,96.28,36.65,111,54.45C313.53,70.7,315.81,73.32,314.09,77.3Z"/><path class="cls-11" d="M210,34.87c21.34,23.78,43.68,45.06,65,68.84a9.9,9.9,0,0,1-12.51,15.14l-.19-.13c-26.5-22-49.75-42.66-76.26-64.61-1.54-1.27-7.59-2.22-9.13-3.49"/><path class="cls-13" d="M469.78,451.75c-5.38-4.19-11.19-8.37-15.49-12.36a11.35,11.35,0,0,0-2.12-1.58l-66.41-38a5.36,5.36,0,0,1-.59-.38c-6.26-4.6-9.47-10.59-6.77-14.1,2.37-3.08,8.33-1.73,13.94-.35a105,105,0,0,1,20.84,7.73c21.8,11.21,28.08,17.51,42.93,20.74,3,.65,5.33,1.21,6.89,1.39-23.44-16.67-49.84-37.19-73.51-54.12a10.16,10.16,0,0,1-4.34-7.6,6.14,6.14,0,0,1,.83-3.71c2.64-4.13,12.41-4.74,22.56,1.94,12,8.63,25.62,16.73,40.7,25.39,11.09,6.37,17.91,11.2,27.83,15.68-6.59-6.78-15-17.43-23.53-24.62a311.09,311.09,0,0,0-28.12-21.09c-5.33-2.79-7-9.17-4.68-13.27,2.53-4.45,9.72-6.09,14.84-2C471.2,357.26,495,375,498.84,379.16c.57.62,2.91,1.85,6.07,2.91a145.27,145.27,0,0,0-12.71-19c-1-1.27-4.72-6-10.16-11.81-3.29-3.52-6.52-6.69-9.61-9.53a1.48,1.48,0,0,1-.26-.3c-2.35-3.24-3.57-7-2.23-9.21,1.81-3,8.7-3.88,15.83.66a3,3,0,0,1,.34.28l45,44.61a2.91,2.91,0,0,0,.33.26c23.82,15,35.62,27.61,42,36.59A106.9,106.9,0,0,0,591.78,435a96.62,96.62,0,0,0,14.84,10.15,104.88,104.88,0,0,0,36,11.94,1.92,1.92,0,0,1,1.51,2.6q-14.52,37-29,74C609,528.15,593,514.07,584,508.38a163.41,163.41,0,0,0-39.09-17.9,11.75,11.75,0,0,0-3.12-.49,205.55,205.55,0,0,1-29.25-2.7,197.16,197.16,0,0,1-41-10.94c-10.06-3.93-13-6.1-22.26-8.59-9.85-2.63-15.33-2.9-23.86-3.46a1.91,1.91,0,0,1-1.28-.6c-1.29-1.36-3.76-4.45-3.36-8,.59-5.39,7.46-10.55,16.68-9.78l.22,0C448.66,447.86,458.75,449.81,469.78,451.75Z"/><path class="cls-2" d="M504.91,382.07c-3.16-1.06-5.5-2.29-6.07-2.91-3.82-4.17-27.64-21.9-63.26-47.65-5.12-4.13-12.31-2.49-14.84,2-2.35,4.1-.65,10.48,4.68,13.27a311.09,311.09,0,0,1,28.12,21.09c8.54,7.19,16.94,17.84,23.53,24.62"/><path class="cls-2" d="M615.12,533.67q14.52-37,29-74a1.92,1.92,0,0,0-1.51-2.6,104.88,104.88,0,0,1-36-11.94A96.62,96.62,0,0,1,591.78,435a106.9,106.9,0,0,1-18.35-20.31c-6.38-9-18.18-21.62-42-36.59a2.91,2.91,0,0,1-.33-.26l-45-44.61a3,3,0,0,0-.34-.28c-7.13-4.54-14-3.66-15.83-.66-1.34,2.22-.12,6,2.23,9.21a1.48,1.48,0,0,0,.26.3c3.09,2.84,6.32,6,9.61,9.53,5.44,5.8,9.17,10.54,10.16,11.81a145.27,145.27,0,0,1,12.71,19"/><path class="cls-2" d="M615.12,533.67C609,528.15,593,514.07,584,508.38a163.41,163.41,0,0,0-39.09-17.9,11.75,11.75,0,0,0-3.12-.49,205.55,205.55,0,0,1-29.25-2.7,197.16,197.16,0,0,1-41-10.94c-10.06-3.93-13-6.1-22.26-8.59-9.85-2.63-15.33-2.9-23.86-3.46a1.91,1.91,0,0,1-1.28-.6c-1.29-1.36-3.76-4.45-3.36-8,.59-5.39,7.46-10.55,16.68-9.78l.22,0c11,1.95,21.11,3.9,32.14,5.84"/><path class="cls-2" d="M482.18,460.49a133.35,133.35,0,0,1-12.4-8.74c-5.38-4.19-11.19-8.37-15.49-12.36a11.35,11.35,0,0,0-2.12-1.58l-66.41-38a5.36,5.36,0,0,1-.59-.38c-6.26-4.6-9.47-10.59-6.77-14.1,2.37-3.08,8.33-1.73,13.94-.35a105,105,0,0,1,20.84,7.73c21.8,11.21,28.08,17.51,42.93,20.74,3,.65,5.33,1.21,6.89,1.39"/><path class="cls-2" d="M463,414.87c-23.44-16.67-49.84-37.19-73.51-54.12a10.16,10.16,0,0,1-4.34-7.6,6.14,6.14,0,0,1,.83-3.71c2.64-4.13,12.41-4.74,22.56,1.94,12,8.63,25.62,16.73,40.7,25.39,11.09,6.37,17.91,11.2,27.83,15.68"/><path class="cls-14" d="M223.63,447.13c.92,3,.65,7.32-.44,13.06-2,10.47-5.17,14.46-6.65,15.42.17-4.44-.67-8.65-3.33-11.79-2.3-2.73-6.85-4.59-16-8.31-5.86-2.4-8.86-3.6-12.47-3.61-2.9,0-5.81.61-16.21,5.91-1.65.84-3.52,1.83-5.59,2.94l-.25.13c-4.48,1.95-22.94-3.8-18.46-11.1,1.48-2.4,4.24-3.14,12.45-5.8,12.33-4,10-3.68,17.35-6.27a49.29,49.29,0,0,1,9.81-2,43.11,43.11,0,0,1,10,0c7.51.92,14.91,3.6,25.63,7.35A7.45,7.45,0,0,1,223.63,447.13Z"/><path class="cls-14" d="M162.73,460.88l.25-.13c2.07-1.11,3.94-2.1,5.59-2.94,10.4-5.3,13.31-5.92,16.21-5.91,3.61,0,6.61,1.21,12.47,3.61,9.11,3.72,13.66,5.58,16,8.31,2.66,3.14,3.5,7.35,3.33,11.79-.39,10.28-6.21,21.89-7.63,24.73-6.74,13.44-16.32,21.07-22.62,26.08a104.15,104.15,0,0,1-31.21,16.71,108.13,108.13,0,0,1-25.91,5.34,6.64,6.64,0,0,0-2.87.92L80.38,576.62l-60.85-46.2,68.61-46a126.51,126.51,0,0,1,8.14-16.14,129.07,129.07,0,0,1,10.84-15.35c5.15-6.29,16.11-16.42,27.53-24.79,4,.87,11.56,2.13,16,2.82,13.4,2.09,23.8,4.84,33.25,4.73a49.29,49.29,0,0,0-9.81,2c-7.33,2.59-5,2.28-17.35,6.27-8.21,2.66-11,3.4-12.45,5.8C139.79,457.08,158.25,462.83,162.73,460.88Z"/><path class="cls-2" d="M163,460.75c2.07-1.11,3.94-2.1,5.59-2.94,10.4-5.3,13.31-5.92,16.21-5.91,3.61,0,6.61,1.21,12.47,3.61,9.11,3.72,13.66,5.58,16,8.31,2.66,3.14,3.5,7.35,3.33,11.79-.39,10.28-6.21,21.89-7.63,24.73-6.74,13.44-16.32,21.07-22.62,26.08a104.15,104.15,0,0,1-31.21,16.71,108.13,108.13,0,0,1-25.91,5.34,6.64,6.64,0,0,0-2.87.92L80.38,576.62l-60.85-46.2,68.61-46"/><path class="cls-2" d="M199.35,480.46l-13-5.21A6.63,6.63,0,0,0,182,475c-15.18,4.48-26.79,4-29.49-1.15-.53-1-1-2.71-.14-5.63a4.79,4.79,0,0,1,2.15-2.75c3-1.73,5.72-3.28,8.19-4.62"/><path class="cls-2" d="M216.54,475.61c1.48-1,4.66-4.95,6.65-15.42,1.09-5.74,1.36-10.07.44-13.06a7.45,7.45,0,0,0-4.15-4.15c-10.72-3.75-18.12-6.43-25.63-7.35a43.11,43.11,0,0,0-10,0,49.29,49.29,0,0,0-9.81,2c-7.33,2.59-5,2.28-17.35,6.27-8.21,2.66-11,3.4-12.45,5.8-4.48,7.3,14,13.05,18.46,11.1l.25-.13"/><path class="cls-2" d="M88.14,484.4a126.51,126.51,0,0,1,8.14-16.14,129.07,129.07,0,0,1,10.84-15.35c5.15-6.29,16.11-16.42,27.53-24.79,4,.87,11.56,2.13,16,2.82,13.4,2.09,23.8,4.84,33.25,4.73"/><path class="cls-15" d="M231.78,410.26c-.95,5.12-1.12,10.53-4.13,15.37a35.91,35.91,0,0,1-13.29,12.56l-.28-.32c.31-2.56.56-5.44-.36-7.21-3.4-6.52-10.39-9.58-15.58-11.08l-.53-.61s6.46-.32,13.31-8.16c3.44-3.94,3.44-8,4.13-12.62,2.12-9.18,8.6-13.71,12.43-12.6,2.89.83,4.86,5,5.29,9.74A62.88,62.88,0,0,1,231.78,410.26Z"/><path class="cls-15" d="M202.73,391.71A105.59,105.59,0,0,1,195,404.84c-3.42,5.09-6.55,9.14-8.87,12l-1.32.29c-5.05-.69-10.29-1.3-15.73-1.8q-7.15-.66-13.94-1c9-6.21,18-12.83,21.4-17.25.49-.62,1.42-1.84,3.74-4.83,5.41-6.94,7.92-10,10.66-13.14,6.52-7.39,8.23-7.94,9.69-7.88,2.61.12,5,2.22,6.12,4.48C208.61,379.5,206.6,383.77,202.73,391.71Z"/><path class="cls-15" d="M214.08,437.87c-.22,1.84-.6,2.52-.48,3.51l-16-5.15c-3-.48-33.61-.34-37-.64-4.49-.4-8.72-.55-12.63-.55-6.29-.37-10.94-3.41-13.3-6.93a8.79,8.79,0,0,1-1.66-6.28c.63-3.63,4.55-6.68,9.3-8q6.24.11,12.87.46t13.94,1c5.44.5,10.68,1.11,15.73,1.8q3.67.5,7.21,1.05c.84.19,3.19.55,6.1,1.4,5.19,1.5,12.18,4.56,15.58,11.08C214.64,432.43,214.39,435.31,214.08,437.87Z"/><path class="cls-15" d="M144.18,475.09c-5.66.24-8.67.6-12.91,4.93-3.16,3.24-6.47,9.37-7.88,13.69"/><path class="cls-16" d="M426.41,85.22a3,3,0,0,1-.45-5,25.94,25.94,0,0,0,5.32-5.83,15.57,15.57,0,0,0,1.83-5.75,3,3,0,0,1,4.4-2.14c45.05,23.81,91.93,48.72,137,72.52a3,3,0,0,1,1.22,4.17q-4.38,7.86-8.77,15.7a3,3,0,0,1-4.12,1.19Z"/><path class="cls-1" d="M542,134.93c2.7,2.46,1.12,6.4-.52,9.36-4.66,8.32-9.84,16.86-18.24,21.53a16.66,16.66,0,0,1-11.7,1c-3.37-1.16-6.66-2.71-5-5.72,1.44-.73,2.76-1.49,4-2.24a51.47,51.47,0,0,0,18.34-20l.25.13c3-1.6,3.4-3.34,7.38-4.95A5.35,5.35,0,0,1,542,134.93Z"/><path class="cls-1" d="M531.32,123a7.89,7.89,0,0,1,1.16,7.49,62.92,62.92,0,0,1-3.64,8.41,51.47,51.47,0,0,1-18.34,20c-1.21.75-2.53,1.51-4,2.24-8.77,4.52-20.92,8.09-26,2.52-1.17-1.27-4-7.48-1.89-15.84l-.22-.79a63.45,63.45,0,0,0,14.67-6.65,47.85,47.85,0,0,0,6.29-4.69c7.55-1.62,21.76-16.43,27.54-16.34C527.51,119.36,529.68,120.89,531.32,123Z"/><path class="cls-1" d="M515.49,105.87a6.15,6.15,0,0,1,.13,4.43c-2.28,6.74-6.92,17.16-16.24,25.39a47.85,47.85,0,0,1-6.29,4.69A63.45,63.45,0,0,1,478.42,147c-6.65,2-13.18,2.39-16.45-1.18-1.16-1.29-2.88-8.19-.74-16.55a7.64,7.64,0,0,0,2.34-1.16c.34-.26.73-.51,1.14-.77,6.1-4,18.07-10.24,23.34-13.91,7.6-7.6,16.37-14.54,21.46-12.62A8.51,8.51,0,0,1,515.49,105.87Z"/><path class="cls-1" d="M458.27,102.41a40.8,40.8,0,0,1,12.58-7.54,19.9,19.9,0,0,1,11.68.73,9.2,9.2,0,0,1,4.79,3.61c1.45,2.43.92,5.19-.45,7.76a23.69,23.69,0,0,1-3.94,5.19q-4.37,4.41-9.13,8.36c-2.91,2.41-5.95,4.7-9.09,6.85-.41.26-.8.51-1.14.77a7.64,7.64,0,0,1-2.34,1.16,7,7,0,0,1-3.58-.31,49.07,49.07,0,0,1-20.82-11.83,11.83,11.83,0,0,1-2.43-3c-5.16-8.82-.28-19.86,1.82-23.16C443,95,451.36,99,458.27,102.41Z"/><path class="cls-2" d="M470.85,94.87a19.9,19.9,0,0,1,11.68.73,9.2,9.2,0,0,1,4.79,3.61c1.45,2.43.92,5.19-.45,7.76a23.69,23.69,0,0,1-3.94,5.19q-4.37,4.41-9.13,8.36"/><path class="cls-2" d="M463.57,128.14a7.64,7.64,0,0,1-2.34,1.16,7,7,0,0,1-3.58-.31,49.07,49.07,0,0,1-20.82-11.83,11.83,11.83,0,0,1-2.43-3c-5.16-8.82-.28-19.86,1.82-23.16,6.8,4,15.14,8,22,11.43"/><path class="cls-2" d="M473.8,120.52c-2.91,2.41-5.95,4.7-9.09,6.85"/><path class="cls-2" d="M470.85,94.87a40.8,40.8,0,0,0-12.58,7.54c-3.08,2.64-5.4,5.42-5.94,7.53"/><path class="cls-2" d="M529.09,139c3-1.6,3.4-3.34,7.38-4.95a5.35,5.35,0,0,1,5.54.84c2.7,2.46,1.12,6.4-.52,9.36-4.66,8.32-9.84,16.86-18.24,21.53a16.66,16.66,0,0,1-11.7,1c-3.37-1.16-6.66-2.71-5-5.72"/><path class="cls-2" d="M461.23,129.3c-2.14,8.36-.42,15.26.74,16.55,3.27,3.57,9.8,3.17,16.45,1.18a63.45,63.45,0,0,0,14.67-6.65,47.85,47.85,0,0,0,6.29-4.69c9.32-8.23,14-18.65,16.24-25.39a6.15,6.15,0,0,0-.13-4.43,8.51,8.51,0,0,0-6-5c-5.09-1.92-13.86,5-21.46,12.62-5.27,3.67-17.24,9.91-23.34,13.91-.41.26-.8.51-1.14.77"/><path class="cls-2" d="M478.64,147.82c-2.14,8.36.72,14.57,1.89,15.84,5.08,5.57,17.23,2,26-2.52,1.44-.73,2.76-1.49,4-2.24a51.47,51.47,0,0,0,18.34-20,62.92,62.92,0,0,0,3.64-8.41,7.89,7.89,0,0,0-1.16-7.49c-1.64-2.12-3.81-3.65-4.4-3.66-5.78-.09-20,14.72-27.54,16.34"/><circle class="cls-17" cx="388.64" cy="50.06" r="50.06"/><circle class="cls-18" cx="388.64" cy="50.06" r="33.36"/></svg>