<svg id="Layer_1" data-name="Layer 1" xmlns="http://www.w3.org/2000/svg" viewBox="0 0 539.08 370.67"><defs><style>.cls-1{fill:#4e4e4f;}.cls-2{fill:#85bde7;}.cls-3{fill:none;stroke:#4e4e4f;stroke-miterlimit:10;stroke-width:4px;}.cls-4{fill:#b4daf4;}.cls-5{fill:#e4f4fd;}.cls-6{fill:#f4c69a;}.cls-7{fill:#fcb966;}.cls-8{fill:#e5f5fd;}.cls-9{fill:#86bde7;}</style></defs><rect class="cls-1" x="9.09" y="105.47" width="444.22" height="255.37" rx="3.02" transform="translate(-0.32 0.31) rotate(-0.08)"/><g id="Layer_2" data-name="Layer 2"><rect class="cls-2" x="10.38" y="69.3" width="442.6" height="37.34" rx="1.77"/></g><rect class="cls-3" x="9.36" y="67.53" width="444.77" height="295.13" rx="11.21" transform="translate(-0.29 0.32) rotate(-0.08)"/><g id="Layer_3" data-name="Layer 3"><rect class="cls-4" x="131.91" y="78.17" width="225.48" height="16.82" rx="8.41"/><circle class="cls-5" cx="98.55" cy="172.49" r="37.2"/><circle class="cls-5" cx="227.97" cy="172.49" r="37.2"/><circle class="cls-5" cx="361.95" cy="172.49" r="37.2"/><rect class="cls-6" x="43.64" y="224.89" width="109.81" height="16.82" rx="5.87"/><rect class="cls-6" x="43.64" y="254.45" width="109.81" height="16.82" rx="5.87"/><rect class="cls-6" x="60.77" y="287.21" width="75.55" height="16.82" rx="4.87"/><rect class="cls-6" x="176.78" y="224.89" width="109.81" height="16.82" rx="5.87"/><rect class="cls-6" x="176.78" y="254.45" width="109.81" height="16.82" rx="5.87"/><rect class="cls-6" x="193.9" y="287.21" width="75.55" height="16.82" rx="4.87"/><rect class="cls-6" x="307.05" y="223.29" width="109.81" height="16.82" rx="5.87"/><rect class="cls-6" x="307.05" y="252.84" width="109.81" height="16.82" rx="5.87"/><rect class="cls-6" x="324.18" y="285.6" width="75.55" height="16.82" rx="4.87"/></g><circle class="cls-4" cx="29.75" cy="86.7" r="7.71"/><circle class="cls-4" cx="54.36" cy="86.66" r="7.71"/><circle class="cls-4" cx="79.68" cy="86.63" r="7.71"/><line class="cls-7" x1="10.76" y1="106.59" x2="452.64" y2="105.84"/><path class="cls-8" d="M534.4,69.32a63.95,63.95,0,1,0-112.53,41.57,70.47,70.47,0,0,1,17.4,45.79l5.51,15.79,45.84,3.6,11-19.23a67.83,67.83,0,0,1,16.66-45.1A63.67,63.67,0,0,0,534.4,69.32Z"/><path class="cls-9" d="M439,150.39h62.71a0,0,0,0,1,0,0V160a31.35,31.35,0,0,1-31.35,31.35h0A31.35,31.35,0,0,1,439,160v-9.56A0,0,0,0,1,439,150.39Z"/><rect class="cls-9" x="457.33" y="45.15" width="26.23" height="9.38" rx="2.95" transform="translate(420.61 520.29) rotate(-90)"/><rect class="cls-9" x="457.41" y="89.89" width="26.07" height="9.38" rx="2.94" transform="translate(375.87 565.03) rotate(-90)"/><rect class="cls-9" x="438.19" y="78.6" width="26.1" height="9.38" rx="2.98" transform="translate(18.81 236.78) rotate(-30)"/><rect class="cls-9" x="477.22" y="56.12" width="25.93" height="9.38" rx="2.98" transform="translate(35.27 253.24) rotate(-30)"/><rect class="cls-9" x="438.88" y="55.45" width="26" height="9.38" rx="2.99" transform="translate(787.54 368.59) rotate(-145)"/><rect class="cls-9" x="476.77" y="79.84" width="26.09" height="9.38" rx="2.98" transform="translate(842.57 434.73) rotate(-145)"/><rect class="cls-9" x="434.28" y="150.39" width="72.33" height="9.28" rx="4.54"/></svg>