<svg xmlns="http://www.w3.org/2000/svg" width="214.889" height="153.551" viewBox="0 0 214.889 153.551"><defs><style>.a{fill:#f9ac66;}.b{fill:#ece5ce;}.c{fill:#3b3e59;}.d{fill:#ed6b5b;}</style></defs><g transform="translate(-491.178 -617.76)"><path class="a" d="M1075.735,663.01l-11.865,65.458,8.191-4.467Z" transform="translate(-423.968 -33.499)"/><path class="b" d="M1079.52,765.952l7.8-102.942,11.873,102.942Z" transform="translate(-435.554 -33.499)"/><rect class="c" width="1.418" height="2.922" rx="0.709" transform="translate(651.584 645.663) rotate(-0.54)"/><rect class="c" width="1.418" height="2.922" rx="0.709" transform="translate(651.634 650.96) rotate(-0.54)"/><rect class="c" width="1.418" height="2.922" rx="0.709" transform="translate(651.687 656.259) rotate(-0.54)"/><rect class="c" width="1.418" height="2.922" rx="0.709" transform="translate(650.353 666.859) rotate(-0.54)"/><rect class="c" width="1.418" height="2.922" rx="0.709" transform="translate(653.325 666.699) rotate(-0.573)"/><rect class="c" width="1.418" height="2.922" rx="0.709" transform="translate(650.355 661.52) rotate(-0.54)"/><rect class="c" width="1.418" height="2.922" rx="0.709" transform="translate(653.193 661.519) rotate(-0.54)"/><rect class="c" width="1.418" height="2.922" rx="0.709" transform="translate(651.834 672.155) rotate(-0.54)"/><rect class="c" width="1.418" height="2.922" rx="0.709" transform="translate(654.537 672.156) rotate(-0.54)"/><rect class="c" width="1.418" height="2.922" rx="0.709" transform="translate(649.222 672.157) rotate(-0.54)"/><rect class="c" width="1.418" height="2.922" rx="0.709" transform="translate(651.884 677.458) rotate(-0.54)"/><rect class="c" width="1.418" height="2.922" rx="0.709" transform="translate(652.076 682.597) rotate(-0.573)"/><path class="b" d="M974.38,636.954v74.235h17.033V636.954l-6.884-4.184h-4.469Z" transform="translate(-357.718 -11.112)"/><path class="a" d="M940.14,636.954v74.235h8.892V636.954l5.679-4.184h-8.334Z" transform="translate(-332.37 -11.112)"/><rect class="c" width="1.641" height="1.641" transform="translate(609.718 628.049)"/><rect class="c" width="1.641" height="1.641" transform="translate(612.743 628.049)"/><rect class="c" width="1.641" height="1.641" transform="translate(609.718 631.215)"/><rect class="c" width="1.641" height="1.641" transform="translate(612.743 631.215)"/><rect class="c" width="1.641" height="1.641" transform="translate(609.718 634.38)"/><rect class="c" width="1.641" height="1.641" transform="translate(612.743 634.38)"/><rect class="c" width="1.641" height="1.641" transform="translate(609.718 637.546)"/><rect class="c" width="1.641" height="1.641" transform="translate(612.743 637.546)"/><rect class="c" width="1.641" height="1.641" transform="translate(609.718 640.714)"/><rect class="c" width="1.641" height="1.641" transform="translate(612.743 640.714)"/><rect class="c" width="1.641" height="1.641" transform="translate(609.718 643.88)"/><rect class="c" width="1.641" height="1.641" transform="translate(612.743 643.88)"/><rect class="c" width="1.641" height="1.641" transform="translate(609.718 647.045)"/><rect class="c" width="1.641" height="1.641" transform="translate(612.743 647.045)"/><rect class="c" width="1.641" height="1.641" transform="translate(609.718 650.211)"/><rect class="c" width="1.641" height="1.641" transform="translate(612.743 650.211)"/><rect class="c" width="2.535" height="2.535" transform="translate(619.428 628.049)"/><rect class="c" width="2.535" height="2.535" transform="translate(624.089 628.049)"/><rect class="c" width="2.535" height="2.535" transform="translate(628.862 628.049)"/><rect class="c" width="2.535" height="2.535" transform="translate(619.428 633.534)"/><rect class="c" width="2.535" height="2.535" transform="translate(624.089 633.534)"/><rect class="c" width="2.535" height="2.535" transform="translate(628.862 633.534)"/><rect class="c" width="2.535" height="2.535" transform="translate(619.428 639.018)"/><rect class="c" width="2.535" height="2.535" transform="translate(624.089 639.018)"/><rect class="c" width="2.535" height="2.535" transform="translate(628.862 639.018)"/><rect class="c" width="2.535" height="2.535" transform="translate(619.428 644.503)"/><rect class="c" width="2.535" height="2.535" transform="translate(624.089 644.503)"/><rect class="c" width="2.535" height="2.535" transform="translate(628.862 644.503)"/><rect class="c" width="2.535" height="2.535" transform="translate(619.428 649.988)"/><rect class="c" width="2.535" height="2.535" transform="translate(624.089 649.988)"/><rect class="c" width="2.535" height="2.535" transform="translate(628.862 649.988)"/><rect class="c" width="2.535" height="2.535" transform="translate(619.428 655.472)"/><rect class="c" width="2.535" height="2.535" transform="translate(624.089 655.472)"/><rect class="c" width="2.535" height="2.535" transform="translate(628.862 655.472)"/><rect class="c" width="2.535" height="2.535" transform="translate(619.428 660.957)"/><rect class="c" width="2.535" height="2.535" transform="translate(624.089 660.957)"/><rect class="c" width="2.535" height="2.535" transform="translate(628.862 660.957)"/><rect class="c" width="2.535" height="2.535" transform="translate(619.428 666.444)"/><rect class="c" width="2.535" height="2.535" transform="translate(624.089 666.444)"/><rect class="c" width="2.535" height="2.535" transform="translate(628.862 666.444)"/><rect class="c" width="2.535" height="2.535" transform="translate(628.862 671.929)"/><rect class="a" width="8.393" height="5.16" transform="translate(662.783 675.697) rotate(180)"/><rect class="a" width="15.132" height="48.261" transform="translate(650.134 675.697)"/><rect class="b" width="13.507" height="48.261" transform="translate(665.266 675.697)"/><rect class="b" width="12.925" height="5.16" transform="translate(675.705 675.697) rotate(180)"/><rect class="a" width="1.576" height="3.181" transform="translate(672.527 675.7) rotate(180)"/><rect class="c" width="2.116" height="2.116" transform="translate(666.969 678.486)"/><rect class="c" width="2.116" height="2.116" transform="translate(670.865 678.486)"/><rect class="c" width="2.116" height="2.116" transform="translate(674.856 678.486)"/><rect class="c" width="2.116" height="2.116" transform="translate(666.969 683.07)"/><rect class="c" width="2.116" height="2.116" transform="translate(670.865 683.07)"/><rect class="c" width="2.116" height="2.116" transform="translate(674.856 683.07)"/><rect class="c" width="2.116" height="2.116" transform="translate(666.969 687.653)"/><rect class="c" width="2.116" height="2.116" transform="translate(670.865 687.653)"/><rect class="c" width="2.116" height="2.116" transform="translate(674.856 687.653)"/><rect class="c" width="2.116" height="2.116" transform="translate(666.969 692.237)"/><rect class="c" width="2.116" height="2.116" transform="translate(670.865 692.237)"/><rect class="c" width="2.116" height="2.116" transform="translate(674.856 692.237)"/><rect class="c" width="2.116" height="2.116" transform="translate(666.969 696.82)"/><rect class="c" width="2.116" height="2.116" transform="translate(670.865 696.82)"/><rect class="c" width="2.116" height="2.116" transform="translate(674.856 696.82)"/><rect class="c" width="2.116" height="2.116" transform="translate(666.969 701.404)"/><rect class="c" width="2.116" height="2.116" transform="translate(670.865 701.404)"/><rect class="c" width="2.116" height="2.116" transform="translate(674.856 701.404)"/><rect class="c" width="2.116" height="2.116" transform="translate(666.969 705.988)"/><rect class="c" width="2.116" height="2.116" transform="translate(670.865 705.988)"/><rect class="c" width="2.116" height="2.116" transform="translate(674.856 705.988)"/><rect class="c" width="2.116" height="2.116" transform="translate(666.969 710.571)"/><rect class="c" width="2.116" height="2.116" transform="translate(670.865 710.571)"/><rect class="c" width="2.116" height="2.116" transform="translate(674.856 710.571)"/><rect class="c" width="2.116" height="2.116" transform="translate(670.865 714.57)"/><rect class="c" width="2.116" height="2.116" transform="translate(674.856 714.57)"/><rect class="c" width="1.893" height="1.893" transform="translate(653.226 678.486)"/><rect class="c" width="1.893" height="1.893" transform="translate(656.711 678.486)"/><rect class="c" width="1.893" height="1.893" transform="translate(660.277 678.486)"/><rect class="c" width="1.893" height="1.893" transform="translate(653.226 682.584)"/><rect class="c" width="1.893" height="1.893" transform="translate(656.711 682.584)"/><rect class="c" width="1.893" height="1.893" transform="translate(660.277 682.584)"/><rect class="c" width="1.893" height="1.893" transform="translate(653.226 686.682)"/><rect class="c" width="1.893" height="1.893" transform="translate(656.711 686.682)"/><rect class="c" width="1.893" height="1.893" transform="translate(660.277 686.682)"/><rect class="c" width="1.893" height="1.893" transform="translate(653.226 690.78)"/><rect class="c" width="1.893" height="1.893" transform="translate(656.711 690.78)"/><rect class="c" width="1.893" height="1.893" transform="translate(660.277 690.78)"/><rect class="c" width="1.893" height="1.893" transform="translate(653.226 694.881)"/><rect class="c" width="1.893" height="1.893" transform="translate(656.711 694.881)"/><rect class="c" width="1.893" height="1.893" transform="translate(660.277 694.881)"/><rect class="c" width="1.893" height="1.893" transform="translate(653.226 698.978)"/><rect class="c" width="1.893" height="1.893" transform="translate(656.711 698.978)"/><rect class="c" width="1.893" height="1.893" transform="translate(660.277 698.978)"/><rect class="c" width="1.893" height="1.893" transform="translate(653.226 703.076)"/><rect class="c" width="1.893" height="1.893" transform="translate(656.711 703.076)"/><rect class="c" width="1.893" height="1.893" transform="translate(660.277 703.076)"/><rect class="c" width="1.893" height="1.893" transform="translate(653.226 707.174)"/><rect class="c" width="1.893" height="1.893" transform="translate(656.711 707.174)"/><rect class="c" width="1.893" height="1.893" transform="translate(660.277 707.174)"/><rect class="c" width="1.893" height="1.893" transform="translate(656.711 710.753)"/><rect class="c" width="1.893" height="1.893" transform="translate(660.277 710.753)"/><rect class="a" width="6.895" height="4.238" transform="translate(633.84 645.843) rotate(180)"/><rect class="a" width="12.431" height="39.647" transform="translate(623.45 645.846)"/><rect class="b" width="11.097" height="39.647" transform="translate(635.882 645.846)"/><rect class="b" width="6.895" height="4.238" transform="translate(640.735 645.843) rotate(180)"/><rect class="a" width="0.805" height="1.626" transform="translate(638.538 645.846) rotate(180)"/><rect class="c" width="1.418" height="2.922" transform="translate(639.276 648.248)"/><rect class="c" width="1.418" height="2.922" transform="translate(642.636 648.248)"/><rect class="c" width="1.418" height="2.922" transform="translate(639.276 653.548)"/><rect class="c" width="1.418" height="2.922" transform="translate(642.636 653.548)"/><rect class="c" width="1.418" height="2.922" transform="translate(639.276 658.846)"/><rect class="c" width="1.418" height="2.922" transform="translate(642.636 658.846)"/><rect class="c" width="1.418" height="2.922" transform="translate(639.276 664.146)"/><rect class="c" width="1.418" height="2.922" transform="translate(642.636 664.146)"/><rect class="c" width="1.418" height="2.922" transform="translate(639.276 669.444)"/><rect class="c" width="1.418" height="2.922" transform="translate(642.636 669.444)"/><rect class="c" width="1.418" height="2.922" transform="translate(639.276 674.744)"/><rect class="c" width="1.418" height="2.922" transform="translate(642.636 674.744)"/><rect class="c" width="1.418" height="2.922" transform="translate(639.276 680.042)"/><rect class="c" width="1.418" height="2.922" transform="translate(642.636 680.042)"/><rect class="c" width="1.418" height="2.922" transform="translate(639.276 685.342)"/><rect class="c" width="1.418" height="2.922" transform="translate(642.636 685.342)"/><rect class="c" width="1.418" height="2.922" transform="translate(627.278 648.248)"/><rect class="c" width="1.418" height="2.922" transform="translate(630.638 648.248)"/><rect class="c" width="1.418" height="2.922" transform="translate(627.278 653.548)"/><rect class="c" width="1.418" height="2.922" transform="translate(630.638 653.548)"/><rect class="c" width="1.418" height="2.922" transform="translate(627.278 658.846)"/><rect class="c" width="1.418" height="2.922" transform="translate(630.638 658.846)"/><rect class="c" width="1.418" height="2.922" transform="translate(627.278 664.146)"/><rect class="c" width="1.418" height="2.922" transform="translate(630.638 664.146)"/><rect class="c" width="1.418" height="2.922" transform="translate(627.278 669.444)"/><rect class="c" width="1.418" height="2.922" transform="translate(630.638 669.444)"/><rect class="c" width="1.418" height="2.922" transform="translate(627.278 674.744)"/><rect class="c" width="1.418" height="2.922" transform="translate(630.638 674.744)"/><rect class="c" width="1.418" height="2.922" transform="translate(627.278 680.042)"/><rect class="c" width="1.418" height="2.922" transform="translate(630.638 680.042)"/><rect class="c" width="1.418" height="2.922" transform="translate(627.278 685.342)"/><rect class="c" width="1.418" height="2.922" transform="translate(630.638 685.342)"/><path class="a" d="M1119.66,812.931l2.444-2.831h2.994l2.955,2.831Z" transform="translate(-465.27 -142.391)"/><path class="b" d="M1156.477,812.8l-2.875-2.875-13,.044,2.955,2.831Z" transform="translate(-480.772 -142.265)"/><path class="b" d="M609.824,766.18v74.233H589.9V766.18l9.962-2.61Z" transform="translate(-73.084 -107.944)"/><rect class="a" width="19.924" height="74.233" transform="translate(577.994 638.385)"/><rect class="c" width="2.018" height="4.158" transform="translate(520.766 661.793)"/><rect class="c" width="2.018" height="4.158" transform="translate(525.544 661.793)"/><rect class="c" width="2.018" height="4.158" transform="translate(530.325 661.793)"/><rect class="c" width="2.018" height="4.158" transform="translate(520.766 669.329)"/><rect class="c" width="2.018" height="4.158" transform="translate(525.544 669.329)"/><rect class="c" width="2.018" height="4.158" transform="translate(530.325 669.329)"/><rect class="c" width="2.018" height="4.158" transform="translate(520.766 676.866)"/><rect class="c" width="2.018" height="4.158" transform="translate(525.544 676.866)"/><rect class="c" width="2.018" height="4.158" transform="translate(530.325 676.866)"/><rect class="c" width="2.018" height="4.158" transform="translate(520.766 684.399)"/><rect class="c" width="2.018" height="4.158" transform="translate(525.544 684.399)"/><rect class="c" width="2.018" height="4.158" transform="translate(530.325 684.399)"/><rect class="c" width="2.018" height="4.158" transform="translate(520.766 691.936)"/><rect class="c" width="2.018" height="4.158" transform="translate(525.544 691.936)"/><rect class="c" width="2.018" height="4.158" transform="translate(530.325 691.936)"/><rect class="c" width="2.018" height="4.158" transform="translate(520.766 699.472)"/><rect class="c" width="2.018" height="4.158" transform="translate(525.544 699.472)"/><rect class="c" width="2.018" height="4.158" transform="translate(530.325 699.472)"/><rect class="c" width="2.018" height="4.158" transform="translate(520.766 707.008)"/><rect class="c" width="2.018" height="4.158" transform="translate(525.544 707.008)"/><rect class="c" width="2.018" height="4.158" transform="translate(530.325 707.008)"/><rect class="c" width="2.018" height="4.158" transform="translate(520.766 714.542)"/><rect class="c" width="2.018" height="4.158" transform="translate(525.544 714.542)"/><rect class="c" width="2.018" height="4.158" transform="translate(530.325 714.542)"/><path class="a" d="M650.5,766.18v74.233H638.222V766.18l-9.962-2.61,12.9.086Z" transform="translate(-101.483 -107.944)"/><rect class="c" width="1.433" height="2.953" transform="translate(539.44 661.817)"/><rect class="c" width="1.433" height="2.953" transform="translate(542.834 661.817)"/><rect class="c" width="1.433" height="2.953" transform="translate(539.44 667.169)"/><rect class="c" width="1.433" height="2.953" transform="translate(542.834 667.169)"/><rect class="c" width="1.433" height="2.953" transform="translate(539.44 672.521)"/><rect class="c" width="1.433" height="2.953" transform="translate(542.834 672.521)"/><rect class="c" width="1.433" height="2.953" transform="translate(539.44 677.873)"/><rect class="c" width="1.433" height="2.953" transform="translate(542.834 677.873)"/><rect class="c" width="1.433" height="2.953" transform="translate(539.44 683.226)"/><rect class="c" width="1.433" height="2.953" transform="translate(542.834 683.226)"/><rect class="c" width="1.433" height="2.953" transform="translate(539.44 688.578)"/><rect class="c" width="1.433" height="2.953" transform="translate(542.834 688.578)"/><rect class="c" width="1.433" height="2.953" transform="translate(539.44 693.93)"/><rect class="c" width="1.433" height="2.953" transform="translate(542.834 693.93)"/><rect class="c" width="1.433" height="2.953" transform="translate(539.44 699.282)"/><rect class="c" width="1.433" height="2.953" transform="translate(542.834 699.282)"/><path class="b" d="M704.923,687.6v74.233H687.89V687.6l6.882-4.145h4.472Z" transform="translate(-145.627 -48.638)"/><rect class="c" width="2.018" height="4.158" transform="translate(547.381 640.613)"/><rect class="c" width="2.018" height="4.158" transform="translate(552.16 640.613)"/><rect class="c" width="2.018" height="4.158" transform="translate(547.381 648.149)"/><rect class="c" width="2.018" height="4.158" transform="translate(552.16 648.149)"/><rect class="c" width="2.018" height="4.158" transform="translate(547.381 655.683)"/><rect class="c" width="2.018" height="4.158" transform="translate(552.16 655.683)"/><rect class="c" width="2.018" height="4.158" transform="translate(547.381 663.219)"/><rect class="c" width="2.018" height="4.158" transform="translate(552.16 663.219)"/><rect class="c" width="2.018" height="4.158" transform="translate(547.381 670.755)"/><rect class="c" width="2.018" height="4.158" transform="translate(552.16 670.755)"/><rect class="c" width="2.018" height="4.158" transform="translate(547.381 678.291)"/><rect class="c" width="2.018" height="4.158" transform="translate(552.16 678.291)"/><rect class="c" width="2.018" height="4.158" transform="translate(547.381 685.825)"/><rect class="c" width="2.018" height="4.158" transform="translate(552.16 685.825)"/><rect class="c" width="2.018" height="4.158" transform="translate(547.381 693.361)"/><rect class="c" width="2.018" height="4.158" transform="translate(552.16 693.361)"/><path class="a" d="M746.179,687.6v74.233h-8.889V687.6l-5.679-4.145h8.331Z" transform="translate(-177.993 -48.638)"/><rect class="c" width="1.433" height="2.953" transform="translate(561.496 641.246)"/><rect class="c" width="1.433" height="2.953" transform="translate(564.89 641.246)"/><rect class="c" width="1.433" height="2.953" transform="translate(561.496 646.599)"/><rect class="c" width="1.433" height="2.953" transform="translate(564.89 646.599)"/><rect class="c" width="1.433" height="2.953" transform="translate(561.496 651.951)"/><rect class="c" width="1.433" height="2.953" transform="translate(564.89 651.951)"/><rect class="c" width="1.433" height="2.953" transform="translate(561.496 657.303)"/><rect class="c" width="1.433" height="2.953" transform="translate(564.89 657.303)"/><rect class="c" width="1.433" height="2.953" transform="translate(561.496 662.655)"/><rect class="c" width="1.433" height="2.953" transform="translate(564.89 662.655)"/><rect class="c" width="1.433" height="2.953" transform="translate(561.496 668.008)"/><rect class="c" width="1.433" height="2.953" transform="translate(564.89 668.008)"/><rect class="c" width="1.433" height="2.953" transform="translate(561.496 673.36)"/><rect class="c" width="1.433" height="2.953" transform="translate(564.89 673.36)"/><rect class="c" width="1.433" height="2.953" transform="translate(561.496 678.712)"/><rect class="c" width="1.433" height="2.953" transform="translate(564.89 678.712)"/><rect class="c" width="1.008" height="2.075" transform="translate(581.217 641.974)"/><rect class="c" width="1.008" height="2.075" transform="translate(583.603 641.974)"/><rect class="c" width="1.008" height="2.075" transform="translate(581.217 645.739)"/><rect class="c" width="1.008" height="2.075" transform="translate(583.603 645.739)"/><rect class="c" width="1.008" height="2.075" transform="translate(581.217 649.502)"/><rect class="c" width="1.008" height="2.075" transform="translate(583.603 649.502)"/><rect class="c" width="1.008" height="2.075" transform="translate(581.217 653.265)"/><rect class="c" width="1.008" height="2.075" transform="translate(583.603 653.265)"/><rect class="c" width="1.008" height="2.075" transform="translate(581.217 657.031)"/><rect class="c" width="1.008" height="2.075" transform="translate(583.603 657.031)"/><rect class="c" width="1.008" height="2.075" transform="translate(581.217 660.793)"/><rect class="c" width="1.008" height="2.075" transform="translate(583.603 660.793)"/><rect class="c" width="1.008" height="2.075" transform="translate(581.217 664.556)"/><rect class="c" width="1.008" height="2.075" transform="translate(583.603 664.556)"/><rect class="c" width="1.008" height="2.075" transform="translate(581.217 668.322)"/><rect class="c" width="1.008" height="2.075" transform="translate(583.603 668.322)"/><rect class="c" width="1.008" height="2.075" transform="translate(585.948 641.974)"/><rect class="c" width="1.008" height="2.075" transform="translate(588.335 641.974)"/><rect class="c" width="1.008" height="2.075" transform="translate(585.948 645.739)"/><rect class="c" width="1.008" height="2.075" transform="translate(588.335 645.739)"/><rect class="c" width="1.008" height="2.075" transform="translate(585.948 649.502)"/><rect class="c" width="1.008" height="2.075" transform="translate(588.335 649.502)"/><rect class="c" width="1.008" height="2.075" transform="translate(585.948 653.265)"/><rect class="c" width="1.008" height="2.075" transform="translate(588.335 653.265)"/><rect class="c" width="1.008" height="2.075" transform="translate(585.948 657.031)"/><rect class="c" width="1.008" height="2.075" transform="translate(588.335 657.031)"/><rect class="c" width="1.008" height="2.075" transform="translate(585.948 660.793)"/><rect class="c" width="1.008" height="2.075" transform="translate(588.335 660.793)"/><rect class="c" width="1.008" height="2.075" transform="translate(585.948 664.556)"/><rect class="c" width="1.008" height="2.075" transform="translate(588.335 664.556)"/><rect class="c" width="1.008" height="2.075" transform="translate(585.948 668.322)"/><rect class="c" width="1.008" height="2.075" transform="translate(588.335 668.322)"/><rect class="b" width="11.097" height="74.233" transform="translate(566.9 638.385)"/><rect class="c" width="1.61" height="1.61" transform="translate(568.533 641.815)"/><rect class="c" width="1.61" height="1.61" transform="translate(571.496 641.815)"/><rect class="c" width="1.61" height="1.61" transform="translate(574.535 641.815)"/><rect class="c" width="1.61" height="1.61" transform="translate(568.533 645.303)"/><rect class="c" width="1.61" height="1.61" transform="translate(571.496 645.303)"/><rect class="c" width="1.61" height="1.61" transform="translate(574.535 645.303)"/><rect class="c" width="1.61" height="1.61" transform="translate(568.533 648.79)"/><rect class="c" width="1.61" height="1.61" transform="translate(571.496 648.79)"/><rect class="c" width="1.61" height="1.61" transform="translate(574.535 648.79)"/><rect class="c" width="1.61" height="1.61" transform="translate(568.533 652.281)"/><rect class="c" width="1.61" height="1.61" transform="translate(571.496 652.281)"/><rect class="c" width="1.61" height="1.61" transform="translate(574.535 652.281)"/><rect class="c" width="1.61" height="1.61" transform="translate(568.533 655.768)"/><rect class="c" width="1.61" height="1.61" transform="translate(571.496 655.768)"/><rect class="c" width="1.61" height="1.61" transform="translate(574.535 655.768)"/><rect class="c" width="1.61" height="1.61" transform="translate(568.533 659.256)"/><rect class="c" width="1.61" height="1.61" transform="translate(571.496 659.256)"/><rect class="c" width="1.61" height="1.61" transform="translate(574.535 659.256)"/><rect class="c" width="1.61" height="1.61" transform="translate(568.533 662.744)"/><rect class="c" width="1.61" height="1.61" transform="translate(571.496 662.744)"/><rect class="c" width="1.61" height="1.61" transform="translate(574.535 662.744)"/><rect class="c" width="1.61" height="1.61" transform="translate(568.533 666.231)"/><rect class="c" width="1.61" height="1.61" transform="translate(571.496 666.231)"/><rect class="c" width="1.61" height="1.61" transform="translate(574.535 666.231)"/><rect class="b" width="6.895" height="4.238" transform="translate(573.14 634.146)"/><rect class="a" width="0.805" height="1.626" transform="translate(575.34 636.759)"/><rect class="a" width="6.895" height="4.238" transform="translate(580.035 634.146)"/><path class="a" d="M717.438,795.7l.164.213a4.155,4.155,0,0,1,.26,4.674,4.248,4.248,0,0,1-4.233,2.033,695.457,695.457,0,0,0-187.666,0,4.243,4.243,0,0,1-4.233-2.033,4.155,4.155,0,0,1,.273-4.674l.158-.205a3.246,3.246,0,0,0-.662-4.594h0a4.121,4.121,0,0,1-1.558-4.415,4.3,4.3,0,0,1,3.61-3.116l.13-.018a4.384,4.384,0,0,0,3.8-4.347c-.641.379-1.283.763-1.932,1.137l-2.059-3.576c33.983-19.63,64.066-48.895,87.028-84.641V678.061a.971.971,0,0,1,.969-.969h2.181a.971.971,0,0,1,.969.969v.5H617.3a2.626,2.626,0,0,1-.034-.351,2.548,2.548,0,1,1,5.093,0,2.626,2.626,0,0,1-.034.351h2.664v-.5a.974.974,0,0,1,.971-.969h2.184a.971.971,0,0,1,.969.969v14.078c22.957,35.747,53.047,65.011,87.028,84.641l-2.057,3.568c-.8-.462-1.595-.935-2.387-1.4a4.625,4.625,0,0,0,4.015,4.581l.366.052a4.3,4.3,0,0,1,3.61,3.116,4.119,4.119,0,0,1-1.558,4.415l-.026.021a3.233,3.233,0,0,0-.662,4.573Z" transform="translate(-21.186 -42.803)"/><rect class="c" width="4.487" height="3.106" rx="1.553" transform="translate(596.377 643.89)"/><rect class="c" width="4.487" height="3.106" rx="1.553" transform="translate(596.377 649.946)"/><rect class="c" width="4.487" height="3.106" rx="1.553" transform="translate(596.377 656.002)"/><rect class="c" width="4.487" height="3.106" rx="1.553" transform="translate(596.377 662.058)"/><rect class="c" width="4.487" height="3.106" rx="1.553" transform="translate(596.377 668.491)"/><rect class="c" width="4.487" height="3.106" rx="1.553" transform="translate(596.377 674.547)"/><rect class="c" width="4.487" height="3.106" rx="1.553" transform="translate(596.377 680.603)"/><rect class="c" width="4.487" height="3.106" rx="1.553" transform="translate(596.377 686.659)"/><path class="c" d="M718.086,791.118l.029-.018a4.132,4.132,0,0,0,1.558-4.415,4.3,4.3,0,0,0-3.61-3.116l-.366-.049a4.63,4.63,0,0,1-4.015-4.584c.795.47,1.587.943,2.384,1.4l2.059-3.566c-33.975-19.63-64.066-48.895-87.028-84.641V678.056a.971.971,0,0,0-.971-.971H625.95a.971.971,0,0,0-.971.971v.48h-2.664a2.548,2.548,0,1,0-5.025,0H614.63v-.491a.969.969,0,0,0-.971-.971h-2.176a.971.971,0,0,0-.971.971v14.075c-22.967,35.757-53.05,65.022-87.033,84.652l2.059,3.566c.644-.374,1.3-.756,1.93-1.135a4.389,4.389,0,0,1-3.8,4.347l-.13.018a4.3,4.3,0,0,0-3.61,3.116,4.124,4.124,0,0,0,1.558,4.415h0a3.246,3.246,0,0,1,.662,4.594l-.158.205a4.155,4.155,0,0,0-.273,4.674,4.246,4.246,0,0,0,4.233,2.031,695.877,695.877,0,0,1,187.666,0,4.243,4.243,0,0,0,4.233-2.033,4.155,4.155,0,0,0-.26-4.674l-.164-.213a3.233,3.233,0,0,1,.657-4.565Zm-15.363-17.794q2.411,1.582,4.849,3.116v6.033q-2.423-.3-4.849-.584Zm-9.349-6.472q2.6,1.893,5.243,3.708v10.847q-2.62-.291-5.243-.561Zm6.861,18.877q-1.41,1.093-2.815,2.194-1.13-1.379-2.267-2.753,2.529.278,5.072.566ZM684.015,759.7q2.6,2.078,5.241,4.1v16.638q-2.618-.26-5.241-.493Zm.683,24.429q-1.387,1.124-2.766,2.254-1.156-1.35-2.337-2.7,2.555.223,5.093.454Zm-10.053-32.306q2.6,2.3,5.241,4.519v23.242q-2.618-.223-5.241-.421Zm-9.349-8.694q2.6,2.529,5.241,4.973v30.76q-2.618-.187-5.241-.353Zm-9.349-9.609q2.6,2.792,5.241,5.5v39.237q-2.618-.153-5.241-.288Zm-9.551-10.86q2.677,3.215,5.433,6.326v48.791q-2.716-.122-5.433-.221Zm-9.315-11.808q2.555,3.42,5.194,6.752v59.815q-2.6-.083-5.194-.145Zm-5.074-7,.938,1.33v71.994q-1.924-.034-3.846-.057V704.766a1.6,1.6,0,0,1,2.909-.909ZM619.8,682.666h0a5.176,5.176,0,0,1,5.176,5.178V776.75H614.63V687.844a5.176,5.176,0,0,1,5.173-5.178Zm2.553,98.511q-1.28,1.244-2.553,2.49l-2.553-2.49q2.555-.008,5.108,0Zm-16.148-75.352q.813-1.143,1.615-2.291a1.475,1.475,0,0,1,2.685.839v72.75q-2.15.029-4.3.068Zm-9.315,12.343q2.641-3.311,5.194-6.713v65.821q-2.6.068-5.194.151ZM587.342,729.5q2.755-3.1,5.433-6.287v54.366q-2.719.1-5.433.226Zm-9.349,9.985q2.657-2.69,5.243-5.469V778q-2.62.132-5.243.286Zm-9.349,9.048q2.618-2.433,5.215-4.955v34.967q-2.623.169-5.243.356ZM559.3,756.72q2.618-2.2,5.215-4.5V779.2c-1.748.138-3.5.275-5.243.426Zm.748,26.974q-1.169,1.348-2.337,2.7l-2.766-2.254q2.524-.231,5.069-.447Zm-10.107-19.544q2.644-2,5.243-4.075v19.916q-2.623.242-5.243.5Zm-9.349,6.729q2.636-1.8,5.241-3.688V780.9q-2.623.273-5.241.564Zm3.916,14.3q-1.138,1.371-2.267,2.753-1.4-1.1-2.815-2.194,2.5-.288,5.041-.558Zm-12.883-8.461q2.441-1.511,4.848-3.09v8.31q-2.423.286-4.848.59Zm-7.565,11c.018-.057.034-.06.078-.065q2.423-.333,4.851-.644-1.106,1.4-2.207,2.8-1.34-1-2.688-2c-.078-.026-.091-.034-.075-.094Zm1.4,10.816a.083.083,0,0,1-.091-.044.072.072,0,0,1,0-.1q1.083-1.4,2.171-2.807,1.5,1.132,3,2.275-2.579.327-5.121.675Zm9.964-2.142q-2.646-2.049-5.321-4.077,2.078-2.636,4.189-5.264,2.677,2.046,5.324,4.108-2.153,2.61-4.233,5.233Zm5.087.26q1.181-1.465,2.366-2.927,1.48,1.169,2.948,2.337-2.7.283-5.355.587Zm10.221-1.945q-2.6-2.106-5.228-4.194,2.135-2.6,4.3-5.171,2.633,2.1,5.23,4.225-2.2,2.56-4.342,5.137Zm5.077.371q1.21-1.441,2.428-2.875,1.454,1.2,2.893,2.4-2.7.223-5.363.467Zm10.255-1.722q-2.55-2.163-5.132-4.308,2.189-2.545,4.415-5.072,2.581,2.158,5.134,4.339-2.27,2.511-4.459,5.038Zm9.559-10.8q-1.2,1.324-2.387,2.651-1.35-1.161-2.711-2.316,2.506-.177,5.056-.338Zm-4.534,11.286q1.239-1.415,2.49-2.82,1.423,1.231,2.838,2.47Q573.75,793.645,571.085,793.84Zm10.286-1.5q-2.5-2.218-5.033-4.415,2.241-2.5,4.516-4.978,2.535,2.218,5.035,4.451-2.275,2.457-4.519,4.934Zm9.79-10.585q-1.228,1.3-2.444,2.6-1.324-1.189-2.659-2.374,2.553-.127,5.1-.231Zm-4.737,11.167q1.27-1.387,2.55-2.766,1.395,1.262,2.781,2.532-2.664.109-5.331.239Zm10.312-1.27q-2.452-2.27-4.934-4.529,2.3-2.441,4.625-4.875,2.485,2.27,4.934,4.56-2.314,2.42-4.625,4.849Zm10.019-10.367q-1.254,1.27-2.5,2.542-1.3-1.221-2.6-2.431,2.542-.06,5.1-.107Zm-4.981,11.073q1.3-1.361,2.6-2.711,1.366,1.3,2.727,2.6-2.654.052-5.324.119Zm10.338-1.039q-2.4-2.337-4.833-4.635,2.337-2.392,4.729-4.773,2.431,2.337,4.833,4.674Q614.464,788.945,612.114,791.323Zm5.02.815q1.327-1.33,2.67-2.651,1.337,1.324,2.667,2.651Q619.8,792.131,617.134,792.139Zm10.357-.815q-2.337-2.376-4.729-4.739,2.4-2.337,4.833-4.674,2.381,2.381,4.729,4.773-2.431,2.316-4.833,4.641Zm5,.925q1.361-1.3,2.727-2.6,1.3,1.356,2.61,2.711Q635.161,792.3,632.492,792.248Zm2.857-8.411q-1.241-1.272-2.5-2.542,2.555.047,5.105.112-1.311,1.213-2.61,2.431Zm7.531,7.825q-2.3-2.426-4.625-4.843,2.451-2.288,4.934-4.56,2.337,2.431,4.625,4.874-2.5,2.257-4.947,4.529Zm4.981,1.039q1.387-1.27,2.781-2.532,1.283,1.379,2.55,2.766-2.677-.132-5.344-.236Zm3.038-8.349q-1.218-1.3-2.444-2.6,2.553.1,5.1.223-1.348,1.182-2.672,2.371Zm2.828,3.044q2.5-2.233,5.036-4.451,2.275,2.483,4.516,4.978-2.532,2.2-5.033,4.415-2.257-2.477-4.532-4.945Zm9.476,6.09q1.413-1.239,2.838-2.47,1.252,1.408,2.49,2.82-2.677-.19-5.339-.353Zm3.223-8.279q-1.189-1.33-2.387-2.651,2.55.161,5.1.335-1.371,1.156-2.724,2.314Zm2.76,3.116q2.553-2.181,5.134-4.339,2.22,2.527,4.415,5.072-2.581,2.145-5.131,4.308-2.207-2.54-4.438-5.054Zm9.349,6.292q1.441-1.205,2.893-2.4,1.218,1.433,2.428,2.875-2.675-.26-5.342-.483Zm6.1-5.041q2.6-2.119,5.23-4.225,2.166,2.579,4.3,5.17-2.628,2.078-5.228,4.194-2.15-2.586-4.316-5.152Zm9.209,6.492q1.467-1.176,2.948-2.337,1.187,1.462,2.366,2.927-2.672-.309-5.318-.595Zm6.212-4.906q2.644-2.078,5.324-4.108,2.106,2.625,4.186,5.264-2.675,2.026-5.321,4.077-2.1-2.628-4.2-5.238Zm14.244,7.331c-.031.052-.049.049-.091.044q-2.54-.345-5.085-.675,1.5-1.14,3-2.275,1.091,1.4,2.168,2.807c.013.029.023.042-.008.093Zm1.275-10.679q-1.343,1-2.688,2-1.1-1.4-2.207-2.8,2.428.312,4.851.644c.044,0,.062,0,.078.065s-.013.062-.049.088Z" transform="translate(-21.18 -42.796)"/><path class="b" d="M713.01,775.948a7.713,7.713,0,0,0-3.264-4.485,2.052,2.052,0,0,1-.634-2.75h0l1.763-3.054-3.057-1.766A230.613,230.613,0,0,1,680.9,745.658a32.147,32.147,0,0,1-12.351-25.3h0a11.281,11.281,0,0,0-2.709-7.9A10.166,10.166,0,0,0,658,709.317a11.29,11.29,0,0,0-5.35,1.223v-.9H643.6a275.507,275.507,0,0,1-21.035-28.366V668.234a4.5,4.5,0,0,0-4.511-4.5h-2.176a4.467,4.467,0,0,0-1.818.384,6.066,6.066,0,0,0-8.661,0,4.468,4.468,0,0,0-1.818-.384H601.41a4.5,4.5,0,0,0-4.5,4.5v13.034a275.151,275.151,0,0,1-21.05,28.366h-8.271v1.179A12.3,12.3,0,0,0,562,709.634h-6.918a3.716,3.716,0,0,0-3.716,3.716V720a31.991,31.991,0,0,1-12.125,25.12,230.935,230.935,0,0,1-27.6,18.771l-3.057,1.766,1.763,3.054h0a2.052,2.052,0,0,1-.634,2.75,7.71,7.71,0,0,0-3.264,4.5,7.619,7.619,0,0,0,2.672,8,7.674,7.674,0,0,0-.491,8.6,7.817,7.817,0,0,0,6.687,3.8,7.905,7.905,0,0,0,1.039-.07c9.224-1.257,24.1-2.7,34.513-3.636a17.867,17.867,0,0,1,13.683,4.867c.047.044.093.086.145.127,1.275,1.039,3.028,2.742,6.394,2.742a8.95,8.95,0,0,0,3.921-.815h71.1c3.275,0,3.56-.281,3.56-.281a7.531,7.531,0,0,0,1.93-1.485,17.108,17.108,0,0,1,13.888-5.578q18.887,1.524,37.609,4.067a8.032,8.032,0,0,0,1.057.07,7.812,7.812,0,0,0,6.685-3.8,7.674,7.674,0,0,0-.488-8.6,7.625,7.625,0,0,0,2.665-8.03Zm-112.576-93.64V668.234a.974.974,0,0,1,.971-.971h2.176a.971.971,0,0,1,.969.971v.493h2.664a2.586,2.586,0,0,1-.034-.353,2.548,2.548,0,0,1,5.093,0,2.6,2.6,0,0,1-.034.353H614.9v-.493a.971.971,0,0,1,.969-.971h2.187a.974.974,0,0,1,.971.971v14.075a280.067,280.067,0,0,0,19.976,27.325h-15.87v.922a11.284,11.284,0,0,0-5.389-1.244,10.179,10.179,0,0,0-7.845,3.137l-.036.042a10.352,10.352,0,0,0-7.664-2.857h-18.55v1.1a11.22,11.22,0,0,0-3.314-.958A279.822,279.822,0,0,0,600.433,682.309ZM515.891,792.787a4.332,4.332,0,0,1-.579.039,4.241,4.241,0,0,1-3.654-2.078,4.155,4.155,0,0,1,.275-4.674l.158-.205a3.246,3.246,0,0,0-.665-4.594h0a4.124,4.124,0,0,1-1.558-4.415,4.293,4.293,0,0,1,3.612-3.116l.125-.018a4.391,4.391,0,0,0,3.8-4.352c-.641.382-1.283.766-1.93,1.135L513.4,766.95a238.654,238.654,0,0,0,37.959-27.34v14.774a2.384,2.384,0,0,0,2.384,2.384h.919a1.859,1.859,0,0,1,1.859,1.859v8.952a1.862,1.862,0,0,1-1.859,1.859h-.919a2.384,2.384,0,0,0-2.384,2.384v8.271a3.555,3.555,0,0,0,3.555,3.555h10.969a9.421,9.421,0,0,0-2.654,4.332Q539.507,789.577,515.891,792.787Zm192.146-11.51-.023.018a3.236,3.236,0,0,0-.66,4.576l.166.21a4.155,4.155,0,0,1,.275,4.674,4.241,4.241,0,0,1-3.654,2.078,4.33,4.33,0,0,1-.578-.039q-25.025-3.4-50.2-4.981l-.065-1.558a6.016,6.016,0,0,0-1.439-2.527H657.2a1.646,1.646,0,0,0,1.646-1.649V771.812a10.544,10.544,0,0,0,6.8-3.184,12.055,12.055,0,0,0,2.9-8.5v-4.085c0-3.571-.976-6.43-2.9-8.5a9.7,9.7,0,0,0-3.423-2.337,9.371,9.371,0,0,0,3.617-2.415,9.7,9.7,0,0,0,2.007-3.394,238.958,238.958,0,0,0,38.211,27.548L704,770.511c-.8-.457-1.587-.93-2.381-1.4a4.625,4.625,0,0,0,4.01,4.581l.366.055a4.285,4.285,0,0,1,3.61,3.116A4.119,4.119,0,0,1,708.036,781.277Z" transform="translate(-11.104 -32.973)"/><path class="c" d="M708.721,867.648v1c0,2.877-.88,4.716-2.838,5.635,2.358.919,3.277,3.038,3.277,6v2.277c0,4.316-2.278,6.635-6.674,6.635H695.57V861.21h6.635C706.76,861.21,708.721,863.329,708.721,867.648Zm-8.754-2.441V872.6h1.719c1.639,0,2.638-.719,2.638-2.958v-1.558c0-2-.68-2.877-2.239-2.877Zm0,11.39v8.593h2.519c1.478,0,2.278-.68,2.278-2.758v-2.439c0-2.6-.839-3.4-2.838-3.4Z" transform="translate(-151.313 -180.228)"/><path class="c" d="M767.243,889.187a8.579,8.579,0,0,1-.4-3.438v-4.4c0-2.6-.88-3.555-2.877-3.555h-1.514v11.39h-4.4V861.21h6.635c4.555,0,6.513,2.119,6.513,6.435v2.2c0,2.877-.919,4.755-2.875,5.674,2.2.919,2.916,3.038,2.916,5.955v4.316a8.213,8.213,0,0,0,.48,3.4Zm-4.791-23.98V873.8h1.719c1.639,0,2.638-.719,2.638-2.958v-2.758c0-2-.68-2.877-2.239-2.877Z" transform="translate(-197.567 -180.228)"/><path class="c" d="M819.92,861.21h4.4v27.977h-4.4Z" transform="translate(-243.37 -180.228)"/><path class="c" d="M849.16,861.21h6.955c4.394,0,6.552,2.439,6.552,6.913v14.148c0,4.477-2.158,6.916-6.552,6.916H849.16Zm4.4,4V885.19h2.477c1.4,0,2.236-.719,2.236-2.719V867.928c0-2-.839-2.716-2.236-2.716Z" transform="translate(-265.017 -180.228)"/><path class="c" d="M917.485,872.7h6.144v8.871c0,4.477-2.239,7.035-6.555,7.035s-6.555-2.558-6.555-7.035V867.032c0-4.474,2.239-7.032,6.555-7.032s6.555,2.553,6.555,7.027v2.719h-4.155v-2.994c0-2-.878-2.758-2.278-2.758s-2.278.758-2.278,2.758v15.106c0,2,.88,2.716,2.278,2.716s2.278-.719,2.278-2.716V876.7h-2Z" transform="translate(-310.442 -179.332)"/><path class="c" d="M972,861.21h4.4v27.977H972Z" transform="translate(-355.956 -180.228)"/><path class="c" d="M1005.005,868.923v20.256h-3.955V861.21h5.516l4.516,16.745V861.21H1015v27.977h-4.516Z" transform="translate(-377.462 -180.228)"/><path class="c" d="M1072.484,872.7h6.152v8.871c0,4.477-2.236,7.035-6.552,7.035s-6.555-2.558-6.555-7.035V867.032c0-4.474,2.236-7.032,6.555-7.032s6.552,2.558,6.552,7.032v2.719h-4.155v-3c0-2-.878-2.758-2.277-2.758s-2.278.758-2.278,2.758v15.106c0,2,.878,2.716,2.278,2.716s2.277-.719,2.277-2.716V876.7h-2Z" transform="translate(-425.197 -179.332)"/><path class="c" d="M695.57,994.63h15.27v4.49h-5.165V1015.3H700.74V999.12H695.57Z" transform="translate(-151.313 -279)"/><path class="c" d="M767.614,1015.3H762.68V994.63h4.934v8.406h5.615V994.63h5.028V1015.3h-5.028v-7.775h-5.615Z" transform="translate(-200.995 -279)"/><path class="c" d="M841.429,1002.813h6.781v4.49h-6.781v3.524h8.531v4.49H836.49V994.63h13.47v4.49h-8.531Z" transform="translate(-255.637 -279)"/><path class="c" d="M928.254,1007.528h6.916v9.97c0,5.028-2.516,7.9-7.365,7.9s-7.365-2.875-7.365-7.9v-16.345c0-5.03,2.514-7.9,7.365-7.9s7.365,2.872,7.365,7.9v3.054H930.5v-3.376c0-2.246-.987-3.1-2.558-3.1s-2.561.852-2.561,3.1V1017.8c0,2.244.989,3.054,2.561,3.054s2.558-.81,2.558-3.054v-5.794h-2.244Z" transform="translate(-317.786 -277.978)"/><path class="c" d="M1001.538,1026.093h-4.986l-.852-5.713h-6.061l-.854,5.713H984.25l5.028-31.423h7.23Zm-11.271-9.97h4.76l-2.381-15.9Z" transform="translate(-365.025 -279.03)"/><path class="c" d="M1074.284,1002.427v4.088c0,5.028-2.423,7.767-7.362,7.767h-2.337v11.811h-4.934V994.67h7.271C1071.861,994.659,1074.284,997.4,1074.284,1002.427Zm-9.7-3.277V1009.8h2.337c1.558,0,2.423-.719,2.423-2.963v-4.716c0-2.244-.852-2.963-2.423-2.963Z" transform="translate(-420.844 -279.03)"/><rect class="c" width="50.066" height="6.207" transform="translate(544.257 740.794)"/><path class="d" d="M744.265,1145.311a1.324,1.324,0,0,1-1.319.818c-.956-.026-1.363-.779-1.228-2.1l.151-1.376c.138-1.335.709-2.057,1.662-2.015a1.127,1.127,0,0,1,1.117.844l.083-.779h1.3l-.408,3.937c-.029.231.055.34.273.34.763,0,1.088-1.688,1.088-3.077,0-1.7-.815-2.875-2.709-2.875-2.425,0-3.693,1.935-3.693,5.041,0,2.192,1.008,3.555,3.173,3.555a4.233,4.233,0,0,0,2.82-.927l-.109,1.3a4.708,4.708,0,0,1-2.792.761c-3.064,0-4.373-1.948-4.373-4.768,0-3.376,1.662-6.129,5.028-6.129,2.872,0,3.786,1.8,3.786,4,0,3.353-1.608,4.344-2.657,4.344C744.769,1146.207,744.32,1145.947,744.265,1145.311Zm-1.226-1.348c-.068.626.164.886.587.9s.693-.231.763-.857l.135-1.3c.055-.519-.218-.761-.587-.761-.421-.016-.706.218-.779.857Z" transform="translate(-183.686 -385.035)"/><path class="d" d="M782.062,1146.7l1.021-6.77h2.078v9.536h-1.418v-6.84l-1.039,6.84h-1.418l-1.117-6.752v6.752h-1.3v-9.518h2.077Z" transform="translate(-212.98 -386.567)"/><path class="d" d="M809.94,1140h1.5v9.536h-1.5Z" transform="translate(-235.982 -386.619)"/><path class="d" d="M823.886,1139.54c1.459,0,2.207.87,2.207,2.4v.3h-1.415v-.395c0-.68-.273-.94-.751-.94s-.748.26-.748.94c0,1.963,2.929,2.337,2.929,5.054,0,1.527-.763,2.4-2.236,2.4s-2.233-.873-2.233-2.4v-.584h1.415v.68c0,.681.3.927.779.927s.779-.26.779-.927c0-1.961-2.927-2.337-2.927-5.054C821.682,1140.41,822.429,1139.54,823.886,1139.54Z" transform="translate(-244.643 -386.278)"/><path class="d" d="M846.129,1139.54c1.457,0,2.207.87,2.207,2.4v.3h-1.418v-.395c0-.68-.273-.94-.748-.94s-.75.26-.75.94c0,1.963,2.929,2.337,2.929,5.054,0,1.527-.764,2.4-2.233,2.4s-2.236-.873-2.236-2.4v-.584H845.3v.68c0,.681.3.927.779.927s.779-.26.779-.927c0-1.961-2.929-2.337-2.929-5.054C843.911,1140.41,844.672,1139.54,846.129,1139.54Z" transform="translate(-261.108 -386.278)"/><path class="d" d="M867,1140h1.5v9.536H867Z" transform="translate(-278.224 -386.619)"/><path class="d" d="M879.14,1141.937a2.278,2.278,0,1,1,4.55,0v4.958a2.278,2.278,0,1,1-4.55,0Zm1.5,5.054c0,.681.3.94.779.94s.779-.26.779-.94v-5.15c0-.68-.3-.94-.779-.94s-.779.26-.779.94Z" transform="translate(-287.211 -386.278)"/><path class="d" d="M904.337,1142.618v6.908H903V1140h1.88l1.54,5.713V1140h1.335v9.536h-1.54Z" transform="translate(-304.875 -386.619)"/><path class="d" d="M932.49,1142.182v.34a1.875,1.875,0,0,1-.969,1.922,1.93,1.93,0,0,1,1.117,2.044v.779a2.029,2.029,0,0,1-2.275,2.262H928V1140h2.262C931.823,1140,932.49,1140.711,932.49,1142.182Zm-2.984-.831v2.522h.584c.561,0,.9-.26.9-1.008v-.519c0-.68-.234-.982-.763-.982Zm0,3.9v2.929h.857c.5,0,.779-.231.779-.94v-.831c0-.885-.286-1.158-.966-1.158Z" transform="translate(-323.383 -386.619)"/><path class="d" d="M952,1140h1.5v9.536H952Z" transform="translate(-341.15 -386.619)"/><path class="d" d="M962.86,1140h4.633v1.361h-1.558v8.175h-1.506v-8.185H962.87Z" transform="translate(-349.19 -386.619)"/><path class="d" d="M984.134,1171.12v1.444H982.69v-1.444Z" transform="translate(-363.87 -409.657)"/><path class="d" d="M994.08,1141.937a2.278,2.278,0,1,1,4.55,0v4.958a2.278,2.278,0,1,1-4.55,0Zm1.5,5.054c0,.681.3.94.779.94s.779-.26.779-.94v-5.15c0-.68-.3-.94-.779-.94s-.779.26-.779.94Z" transform="translate(-372.302 -386.278)"/><path class="d" d="M1021.057,1149.526a3.019,3.019,0,0,1-.135-1.171v-1.5c0-.885-.3-1.213-.982-1.213h-.519v3.9h-1.5V1140h2.262c1.558,0,2.22.722,2.22,2.192v.75a1.9,1.9,0,0,1-.979,1.935c.748.312.995,1.039.995,2.028v1.473a2.857,2.857,0,0,0,.161,1.158Zm-1.633-8.175v2.929h.595c.558,0,.9-.244.9-1.008v-.935c0-.68-.231-.982-.761-.982Z" transform="translate(-389.951 -386.619)"/><path class="d" d="M1043.558,1143.872h2.1v3.023c0,1.527-.763,2.4-2.233,2.4s-2.233-.873-2.233-2.4v-4.958c0-1.527.761-2.4,2.233-2.4s2.233.87,2.233,2.4v.927h-1.415v-1.023c0-.68-.3-.94-.779-.94s-.779.26-.779.94v5.15c0,.681.3.927.779.927s.779-.26.779-.927v-1.758h-.683Z" transform="translate(-407.178 -386.278)"/><path class="d" d="M626.813,621.655l6.882,4.186v15.766h7.04v4.238h6.233v10.084l4.5-24.824a.234.234,0,0,1,.236-.2.239.239,0,0,1,.242.213l4.3,37.263.584-.673h2.994l13-.049,2.885,2.877v5.16h3.067v43.688q8.759,6.233,17.942,11.533l3.059,1.763-1.769,3.059a2.049,2.049,0,0,0,.636,2.745,7.71,7.71,0,0,1,3.262,4.487,7.622,7.622,0,0,1-2.667,8.011,7.679,7.679,0,0,1,.486,8.6,7.814,7.814,0,0,1-6.685,3.8,7.653,7.653,0,0,1-1.057-.073q-18.7-2.54-37.609-4.064c-.436-.036-.872-.052-1.3-.052a17.23,17.23,0,0,0-12.585,5.63,7.532,7.532,0,0,1-1.927,1.485s-.288.281-3.56.281H563.916a8.942,8.942,0,0,1-3.921.815c-3.376,0-5.119-1.711-6.394-2.742-.052-.042-.1-.083-.148-.127a18.093,18.093,0,0,0-12.18-4.934c-.5,0-1,.023-1.5.07-10.408.945-25.289,2.387-34.513,3.636a7.487,7.487,0,0,1-1.039.073,7.817,7.817,0,0,1-6.687-3.8,7.669,7.669,0,0,1,.488-8.593,7.622,7.622,0,0,1-2.683-7.991,7.744,7.744,0,0,1,3.264-4.5,2.046,2.046,0,0,0,.634-2.745l-1.763-3.059,3.054-1.763q8.31-4.8,16.288-10.367V658.238l9.962-2.612,12.9.088,2.6.7V638.966l6.887-4.155h12.8l5.365,3.563h5.828v-4.228h12.795a4.493,4.493,0,0,1,4.355-3.376h2.176a4.506,4.506,0,0,1,1.818.379,6.069,6.069,0,0,1,8.658,0,4.528,4.528,0,0,1,1.818-.379h2.184a4.331,4.331,0,0,1,.828.078v-5.007l6.233-4.186h12.805m69.805,136.237a1.052,1.052,0,0,0,.073-.112,2.377,2.377,0,0,0,.122-.226c-.039.075-.081.148-.125.223s-.044.075-.07.114M627.912,617.76H612.821l-.984.662-6.233,4.184-1.724,1.158v3.147h0a9.982,9.982,0,0,0-10.479,0,8.747,8.747,0,0,0-.906-.049h-2.176a8.39,8.39,0,0,0-6.736,3.376H569.245v4.241h-.756l-4.384-2.893-.979-.649H548.064l-.927.558-6.884,4.142-1.888,1.137v15.044l-11.561-.081h-.519l-.5.13-9.957,2.6-2.909.761V718.51c-4.711,3.223-9.528,6.258-14.34,9.035l-3.057,1.766-3.376,1.948,1.945,3.376.966,1.675a11.58,11.58,0,0,0-1.789,15.285,11.533,11.533,0,0,0,.9,9.98,11.73,11.73,0,0,0,10.037,5.713,11.571,11.571,0,0,0,1.576-.107c9.663-1.314,25.665-2.836,34.342-3.623.379-.036.779-.052,1.148-.052a14.165,14.165,0,0,1,9.531,3.9c.12.112.239.213.361.312l.294.242a12.637,12.637,0,0,0,8.536,3.355,13.074,13.074,0,0,0,4.706-.815H635c3.168,0,4.638-.205,5.685-.9a11.405,11.405,0,0,0,2.659-2.109,13.4,13.4,0,0,1,9.728-4.386,8.495,8.495,0,0,1,.995.039c12.507,1.01,25.089,2.368,37.4,4.043A11.644,11.644,0,0,0,703.981,751.6a11.588,11.588,0,0,0-1.792-15.285l.966-1.67,1.95-3.376-3.376-1.948-3.057-1.766c-5.389-3.116-10.762-6.531-15.994-10.18V671.8h-3.067v-2.877l-1.14-1.14-2.875-2.875-1.148-1.148h-1.62l-12.985.047h-.179l-3.823-33.139a4.137,4.137,0,0,0-8.18-.26l-2.078,11.538h-.922v-4.236H637.6V623.65l-1.872-1.138-6.882-4.186Z" transform="translate(0)"/></g></svg>