
<svg viewBox="0 -3 152 48" fill="none" xmlns="http://www.w3.org/2000/svg">
<path d="M16.9597 31.6028C17.7493 31.5396 19.1969 31.7295 20.5129 31.1599C23.079 30.084 23.8028 27.4259 23.4738 25.3373C23.079 22.9957 20.9734 21.3502 20.6445 21.097C20.4471 20.9704 20.1181 21.1603 20.2497 21.4135C20.4471 21.7299 21.0392 22.7425 20.8418 24.388C20.5787 26.6664 18.7363 28.1221 17.8151 28.8182C16.8939 29.5144 16.1702 29.0081 15.8412 28.5018C15.6438 28.2486 15.4464 27.7423 15.7096 27.2993C15.907 26.9195 16.3676 26.7297 16.8282 26.2234C18.4073 24.5779 18.9337 23.1856 19.0653 21.7932C19.1969 20.4009 19.0653 18.6921 17.8809 16.92C16.9597 15.5277 15.3148 14.3252 14.92 14.0088C14.5252 13.629 14.3278 13.6291 14.3936 12.9962C14.4594 12.3633 14.591 10.7811 14.1962 9.45204C13.8014 8.0597 13.0118 7.1104 13.0118 7.1104C12.9461 6.92053 12.6829 6.98382 12.7487 7.23697C12.8803 7.55341 12.9461 7.99639 12.8803 8.62927C12.7487 10.0216 10.9063 11.6038 9.59034 12.743C8.27437 13.8822 6.82681 15.0214 6.03723 16.6669C5.44504 17.9326 5.18185 19.5149 5.64244 21.4135C6.16882 23.3121 7.1558 24.0083 7.94538 25.3373C8.73496 26.6031 7.74798 27.6157 6.82681 27.8689C5.97143 28.122 4.91866 26.5398 4.39227 25.4639C3.73429 24.1349 3.80008 21.9197 3.80008 21.6033C3.80008 21.54 3.80008 21.4767 3.80008 21.3502C3.80008 21.2236 3.60269 21.1603 3.53689 21.2236C3.47109 21.2869 3.40529 21.3502 3.33949 21.4767C2.74731 22.2362 1.29975 23.8817 0.77336 25.0209C0.246974 26.1601 -0.345211 27.8056 0.246974 29.8941C0.839158 31.9193 2.15512 33.0585 2.61571 33.4382C2.68151 33.5015 2.74731 33.5648 2.81311 33.6281C2.94471 33.7547 3.2737 33.6913 3.33949 33.4382C3.40529 33.2483 3.40529 32.9952 3.40529 32.8687C3.47109 32.1092 3.86588 31.6662 5.11605 31.0333C6.49781 30.3371 9.52454 29.3245 10.8405 29.2612C11.8275 29.2612 12.6171 30.0839 11.3669 31.856C10.7089 32.742 8.53756 33.5016 8.01118 34.1977C7.48479 34.9572 8.01118 36.4128 9.85353 37.6153C11.6959 38.881 14.3278 38.8177 15.1174 38.8177C15.9728 38.7544 15.907 38.2481 15.907 37.8051C15.907 37.3621 15.907 36.4127 18.4073 35.4001C20.7103 34.4508 21.3024 33.6913 21.5656 33.3116C21.8288 32.8686 21.5656 32.6155 21.3024 32.8053C21.0392 32.9952 20.3155 33.4382 18.9337 33.6281C17.5519 33.818 16.8282 33.4382 16.565 32.9319C16.1702 32.6155 16.1702 31.6661 16.9597 31.6028ZM13.4066 25.7804C13.4724 26.4133 13.0776 26.793 12.6171 26.9196C11.8933 27.1094 10.6431 27.1727 10.4457 25.3373C10.1825 23.1855 10.2483 20.7173 11.3011 18.7554C12.0907 17.2365 13.0776 16.1606 13.1434 16.034C13.275 15.9074 13.5382 15.7808 13.7356 16.0973C14.0646 16.7301 13.5382 18.4389 13.3408 20.3376C13.0776 22.7425 13.275 25.0209 13.4066 25.7804Z" fill="#E43D24"/>
<path d="M119.711 16.2922C120.073 16.5536 120.706 17.2506 120.796 17.6862C120.977 18.1217 120.706 18.4702 119.892 19.2543C118.806 20.2997 119.349 21.2581 118.987 21.5194C118.625 21.8679 117.721 21.3452 117.178 19.9513C116.635 18.6445 117.449 16.9892 118.263 16.3794C118.987 15.8566 119.62 16.2051 119.711 16.2922ZM150.659 27.0951C149.638 25.8048 146.628 26.8052 142.829 28.0249C139.12 29.2446 135.904 31.2768 134.185 32.2351C132.466 33.1063 131.29 32.0609 130.928 31.3639C130.566 30.667 130.838 30.667 132.375 30.1443C133.823 29.6215 136.446 27.8792 136.989 26.311C137.532 24.7428 138.256 22.5649 135.361 22.1293C132.375 21.6937 129.481 22.7391 128.033 25.0913C126.586 27.4436 127.31 29.8829 127.4 30.2314C127.491 30.5799 126.315 30.7541 125.229 30.8412C124.143 30.8412 124.867 28.9246 125.139 27.2693C125.5 25.614 125.048 25.2656 124.777 24.9171C124.596 24.5686 122.334 21.6065 121.701 20.9967C121.068 20.3869 120.977 21.955 119.439 24.9171C117.811 27.9663 115.64 29.3602 115.007 29.7087C114.374 30.0571 113.469 30.4927 114.012 28.4019C114.645 26.3981 116.273 24.3072 116.635 23.8716C116.997 23.5232 116.635 23.0005 116.092 22.5649C115.55 22.1293 115.007 21.7808 112.564 23.436C110.122 25.0913 107.137 28.3148 106.684 28.7503C106.232 29.1859 106.051 28.489 107.137 25.8754C108.132 23.2618 111.117 20.2997 112.745 18.5573C114.374 16.7278 118.535 13.3302 119.259 12.7203C119.982 12.1105 119.62 11.3264 116.545 10.9779C113.559 10.6295 111.388 11.2393 109.941 13.1559C108.494 14.9854 105.87 19.6899 104.332 25.4398C103.156 29.97 102.161 31.1897 101.528 31.1897C100.895 31.1897 100.352 30.5799 100.443 28.3148C100.533 26.0496 101.89 24.2201 102.523 23.6103C103.156 23.0004 102.975 22.4777 100.623 22.0421C98.2714 21.6065 95.0148 22.3035 93.5674 24.0459C92.12 25.7883 92.0296 27.7049 91.7582 28.3148C91.5773 28.9246 90.4012 29.8829 89.768 30.3185C89.1348 30.7541 88.6825 29.7087 88.8634 27.6178C89.0443 25.5269 90.5822 23.6974 91.0345 23.0005C91.4868 22.3906 89.8585 22.3035 88.9539 22.3035C88.0492 22.3035 87.5065 22.7391 86.6018 23.6974C85.6972 24.6557 83.6166 27.5307 83.0738 28.1405C82.6215 28.7503 82.0788 28.9246 82.0788 27.792C82.0788 26.6595 82.712 25.0913 83.7975 23.5232C84.8831 22.0421 87.8683 18.6445 89.2252 17.4248C90.4917 16.2051 94.1102 13.1559 94.7434 12.6332C95.3766 12.1105 94.9243 11.5878 94.3816 11.3264C93.9292 11.1522 90.8535 10.3681 88.5015 10.8908C86.1495 11.4135 84.3403 14.2885 82.8025 17.3377C81.2646 20.3869 80.36 24.3072 79.6363 26.311C79.0031 28.3148 75.9274 30.667 74.9323 31.2768C73.9372 31.8867 71.8566 32.3223 71.7661 29.4473C71.5852 26.5724 72.9421 24.3944 73.7563 23.6103C74.5704 22.8262 75.7464 22.8262 75.9274 23.3489C76.0178 23.8716 75.4751 26.1368 75.2941 26.6595C75.1132 27.1822 75.1132 27.6178 75.7464 27.4436C76.3797 27.2693 77.9175 25.7883 78.1889 24.9171C78.3698 24.133 78.008 21.6065 75.3846 21.2581C72.7612 20.9096 70.4997 22.2164 69.1427 24.5686C67.7858 26.9208 68.419 27.7049 67.5144 28.2276C66.5193 28.7503 64.891 30.4927 64.6196 30.7541C64.4387 31.0155 64.0769 31.0155 64.1673 29.2731C64.2578 27.6178 64.891 26.311 65.2529 25.5269C65.7052 24.6557 67.3335 22.5649 67.8763 21.8679C68.419 21.1709 70.4997 18.2089 70.771 17.8604C71.0424 17.5119 71.2234 17.5119 71.5852 17.4248C71.947 17.4248 73.304 17.6861 75.2941 17.9475C77.2843 18.2089 78.3698 17.7733 79.184 17.2506C80.36 16.4665 81.0837 15.1597 81.1741 14.4627C81.1741 13.8529 80.4504 14.1142 79.3649 14.2014C78.2794 14.2885 74.3895 14.3756 73.7563 14.3756C73.2135 14.3756 73.304 14.0271 73.3944 13.7658C73.5754 13.5044 74.9323 11.5878 75.2941 11.1522C75.656 10.7166 75.3846 10.3681 74.8418 10.281C74.2086 10.1939 71.6757 10.0196 69.9569 10.5423C68.2381 10.9779 66.9716 13.1559 66.5193 13.7658C66.067 14.3756 66.248 14.637 63.2627 14.8983C60.2775 15.0726 54.7593 15.5953 53.5833 15.7695C52.3168 15.9438 51.8645 16.0309 51.6836 15.9438C51.5027 15.8566 51.5027 15.1597 51.5027 15.1597C51.5931 11.762 45.9845 10.3681 39.2903 13.0688C32.5057 15.7695 29.9728 20.3869 29.3396 22.1293C28.6159 23.8716 27.7112 28.7503 30.1537 32.4094C32.4153 35.8942 36.3956 36.504 39.6522 36.6782C42.366 36.8525 44.8085 35.9813 46.3464 35.2843C47.8842 34.5002 48.3365 33.8033 48.6079 32.845C48.8793 31.8867 48.5174 29.97 47.9747 29.3602C47.4319 28.7503 46.9796 29.3602 46.9796 29.3602C44.7181 32.148 39.9236 34.4131 36.1242 33.8904C32.3248 33.4548 32.4153 28.5761 32.958 25.8754C33.5008 23.1747 35.2196 20.3869 38.0239 17.599C40.9187 14.8112 44.3562 13.5044 45.8036 13.5044C47.251 13.4173 47.251 14.9854 46.9796 16.2051C46.7082 17.4248 46.1654 17.3377 42.8184 18.9929C39.4713 20.6482 37.0288 23.2618 36.3051 24.83C35.6719 26.311 37.3002 28.5761 39.1094 29.0988C40.9187 29.6215 43.8134 27.8792 46.4368 25.2656C49.3316 22.4777 50.4171 19.6028 50.779 18.7316C51.1408 17.8604 53.131 17.599 57.0209 17.1634C60.9107 16.815 63.1723 16.9021 64.1673 17.0763C65.1624 17.2506 64.1673 18.5573 62.9009 22.4777C61.6344 26.3981 61.8153 29.0117 60.4584 30.9283C59.8252 31.8867 58.4682 31.1897 58.4682 28.7503C58.4682 26.311 59.4633 24.7428 60.0061 24.0459C60.5489 23.436 61.0012 22.9133 60.187 22.652C56.9304 21.4323 53.7642 21.955 51.5027 24.2201C49.5125 26.2239 49.6935 29.97 51.0504 31.4511C52.4073 32.9321 54.8498 33.0192 55.9353 32.5836C57.0209 32.148 56.9304 32.0609 57.5636 32.3223C58.2873 32.5836 59.8252 32.845 60.4584 32.7579C60.9107 32.6707 61.0012 32.845 61.1821 33.2806C61.5439 34.5874 62.2676 35.7199 62.9913 36.4169C64.0769 37.4623 66.248 38.1593 66.6098 37.985C67.1526 37.8108 65.8861 36.1555 65.5243 34.5003C65.3433 33.8033 65.3433 32.9321 65.7052 32.0609C66.1575 31.1897 66.7907 30.4927 67.424 30.3185C68.0572 30.1443 67.7858 30.5799 68.8713 32.0609C69.9569 33.629 72.3089 33.629 74.299 33.2806C76.0178 32.9321 78.0984 30.4056 78.6412 29.7958C79.0031 29.4473 79.2744 28.9246 79.2744 29.8829C79.3649 30.8412 79.8172 33.5419 80.1791 33.8904C80.5409 34.1518 81.2646 34.9358 82.1692 32.6707C82.9834 30.4056 85.064 27.008 85.4259 26.6595C85.8782 26.311 86.1495 26.3981 86.0591 27.008C85.8782 27.6178 85.5163 29.2731 85.5163 30.7541C85.5163 32.2351 87.2351 32.9321 88.3206 33.1935C88.9539 33.3677 89.4062 33.4548 89.5871 33.2806C89.6776 33.1935 89.6776 33.0192 89.6776 32.6707C89.768 31.8867 90.4917 30.8412 91.2154 30.4056C92.3914 29.7087 91.7582 31.7124 94.7434 32.7579C95.9194 33.1935 97.4573 32.7579 98.181 32.4094C98.9046 32.0609 98.7237 32.0609 99.5379 32.4094C100.262 32.7579 101.347 32.9321 101.98 32.7579C102.614 32.6707 101.98 33.6291 102.071 37.201C102.161 40.7729 107.227 42.4281 107.589 41.9054C107.951 41.4698 107.318 41.0342 106.413 38.1593C105.418 35.2843 106.142 32.2351 107.137 30.4056C108.222 28.5761 110.212 26.8337 110.665 26.4852C111.207 26.1368 111.931 25.8754 111.479 26.7466C111.117 27.6178 110.031 30.1443 109.76 31.7124C109.489 33.2806 111.298 33.3677 112.474 33.3677C113.65 33.3677 114.464 32.7579 116.545 30.9283C118.625 29.0117 120.435 26.7466 120.796 26.2239C121.158 25.7012 121.249 25.8754 121.52 25.9625C121.791 26.1368 122.425 26.8337 121.972 28.0534C121.52 29.2731 120.344 31.1026 119.62 31.7995C118.897 32.4965 118.625 32.845 121.43 32.845C124.143 32.845 127.038 32.148 127.491 32.0609C127.943 31.9738 127.852 31.8867 129.028 33.1063C130.204 34.326 131.29 34.5002 133.371 34.1518C135.451 33.8033 137.713 31.9738 141.512 30.8412C145.312 29.7087 146.95 29.3602 148.94 29.7087C150.84 30.0571 151.111 31.0155 151.654 30.8412C152.287 30.5799 152.106 28.9246 150.659 27.0951ZM107.86 21.6937C108.222 20.8225 109.76 18.1217 111.298 16.3794C112.836 14.5498 113.831 13.8529 114.193 13.6786C114.464 13.5915 114.916 13.4173 115.188 13.6786C115.55 14.0271 114.464 14.8983 113.559 15.8566C112.564 16.9021 108.946 20.9967 108.494 21.5194C108.132 21.955 107.499 22.5649 107.86 21.6937ZM83.4357 21.6937C83.7975 20.8225 85.3354 18.1217 86.8732 16.3794C88.4111 14.5498 89.4062 13.8529 89.768 13.6786C90.0394 13.5915 90.4917 13.4173 90.7631 13.6786C91.1249 14.0271 90.0394 14.8983 89.1348 15.8566C88.1397 16.9021 84.5212 20.9967 84.0689 21.5194C83.6166 21.955 83.0738 22.5649 83.4357 21.6937ZM66.067 21.955C66.2479 21.0838 67.5144 18.5573 68.419 17.4248C68.419 17.4248 68.6904 17.1634 69.1427 17.2506C69.595 17.3377 69.5046 17.6861 69.2332 17.9475C68.9618 18.296 66.8812 21.5194 66.5193 22.0421C66.1575 22.5649 65.8861 22.8262 66.067 21.955ZM45.7131 19.8641C45.4417 20.474 43.9039 23.0005 41.4614 24.3072C39.019 25.614 39.2903 24.83 40.014 23.6103C40.7377 22.3906 42.0947 21.0838 45.4417 19.6028C45.3513 19.5157 45.9845 19.2543 45.7131 19.8641ZM57.6541 23.8716C57.4732 24.6557 56.8399 25.7883 56.659 28.0534C56.4781 30.3185 55.9353 30.9283 54.9402 30.8412C53.9452 30.7541 52.7692 28.9246 53.8547 26.1368C54.5784 24.3944 55.8448 23.436 56.8399 23.2618C57.2018 23.2618 57.9255 23.1747 57.6541 23.8716ZM99.7188 23.9588C99.357 24.9171 98.9047 25.7883 98.5428 27.8792C98.181 29.8829 98.0905 30.7541 96.824 30.7541C95.5576 30.7541 95.1957 28.489 95.829 26.6595C96.3717 24.83 97.8191 23.5232 99.0856 23.2618C98.9951 23.2618 100.081 23.0876 99.7188 23.9588ZM130.566 28.0534C130.657 27.3564 131.199 24.3072 133.823 23.3489C133.823 23.3489 134.547 23.0876 134.818 23.6974C134.999 24.3072 134.728 25.7012 134.185 26.6595C133.28 28.2276 131.652 28.9246 131.2 29.0988C130.566 29.1859 130.566 28.7503 130.566 28.0534Z" fill="black"/>
</svg>
