<svg xmlns="http://www.w3.org/2000/svg" viewBox="0 -8 120 50"><path fill="#ff4d37" d="M31.1,13c0,0,3.2-2.7,7.1-2.7v5.2c-7.6-0.1-7.1,6-7.1,6v12h-4.7V10.7h4.7V13z M58.7,10.7h4.6v12.7c0,5.8-4.6,10.7-10.4,10.7
	c-5.8,0-10.4-4.9-10.4-10.7V10.7h4.6v12.7c0,3.2,2.6,5.9,5.8,5.9s5.8-2.7,5.8-5.9L58.7,10.7z M67.9,33.5V10.7h4.7v22.9H67.9z
	 M12.5,14.9c-3.9,0-7.1,3.2-7.1,7.1s3.2,7.1,7.1,7.1c2.4,0,4.5-1.2,5.9-3.1l3.7,2.8c-2.3,3.1-5.8,5-9.6,5C6,33.9,0.8,28.6,0.8,22
	s5.3-11.8,11.7-11.8c3.8,0,7.5,1.9,9.6,5L18.4,18C17.1,16.1,14.9,14.9,12.5,14.9z M101.1,19.9h13.6c-1.3-5.6-6.8-5.4-6.8-5.4
	S102.9,14.1,101.1,19.9z M107.8,10.3c0,0,12-0.4,11.4,13.5H101c0.4,1.7,1.2,3.1,2.5,4.3c1.3,1.2,3,1.8,4.9,1.8c0,0,3.9,0.2,6.2-3.1
	l3.4,2.5c-0.9,1.3-2.4,2.4-4.4,3.4c-1.7,0.8-3.7,1.3-5.6,1.3c-6.5,0-11.4-5.3-11.4-11.8C96.5,15.6,101.5,10.3,107.8,10.3z M91.3,22
	c0,0,2.5,1.5,2.4,5c0,0,0.2,4.9-5.2,6.5c0,0-6.4,2.1-11.6-3.1l2.4-3.3c5.3,4.4,8.8,1.9,8.8,1.9c0.6-0.5,0.9-1.1,0.9-1.8
	c0-1.8-2.3-2.4-2.3-2.4c-0.7-0.2-1.4-0.5-2.3-0.7c0,0-2.8-0.7-4.9-2c-0.7-0.5-1.3-1.1-1.8-1.9s-0.7-1.8-0.7-3c0,0-0.2-4.5,4-6.4
	c0,0,5.9-2.5,11.4,1.9L90,16.2c-2.5-1.9-5-1.8-5-1.8c-1.1,0-1.8,0.2-2.4,0.7c-0.5,0.5-0.8,0.9-0.8,1.5c0,0-0.2,1.4,2.3,2.4
	c0.7,0.2,1.4,0.5,2.3,0.7c0.8,0.2,1.7,0.6,2.5,0.8C89.8,21.1,90.6,21.6,91.3,22L91.3,22z M70.2,0c1.8,0,3.2,1.4,3.2,3.3
	S72,6.6,70.2,6.6c-1.8,0-3.2-1.4-3.2-3.3S68.4,0,70.2,0z"></path></svg>
