<svg xmlns="http://www.w3.org/2000/svg" width="334.889" height="108.528" viewBox="-10 -10 354.889 108.528"><defs><style>.a{fill:#c82021;}</style></defs><path class="a" d="M193.941,258.515c-6.084-3.963-14.624-5.47-25.565-5.47H147.389v69.717h21.6c7.591,0,14.289-.893,19.815-3.07a25,25,0,0,0,12.782-10.94c3.07-5.191,4.577-11.889,4.577-20.374,0-7.312-.893-13.4-2.735-18.253C200.639,264.879,197.9,260.915,193.941,258.515Zm-5.749,41.417A14.415,14.415,0,0,1,183,307.859c-2.735,2.121-6.977,3.07-12.5,3.07h-7.591V264.041h6.419c6.084,0,10.94.893,14.01,3.349a14.149,14.149,0,0,1,4.856,7.312,46.635,46.635,0,0,1,1.507,12.168C189.7,292.285,189.364,296.583,188.192,299.932Zm27.351,22.495H231.4V292.9h18.587V281.345H231.4V264.32h28.3V252.766H215.543Zm54.534,0H285.93V252.71H270.077Zm85.848-69.717H339.794V292.9L310.266,252.71H297.484v69.717h16.132V281.345l29.249,41.082h13.061ZM87.105,325.162c-1.228-.614-2.735-1.507-6.419-7.591l-7.312-11.889-8.54-14.01-.614-1.228c.279,0,.893-.279,1.228-.279,9.768-3.349,15.517-12.168,15.517-24.951a21.413,21.413,0,0,0-7.312-16.466c-.614-.614-1.507-1.228-2.121-1.842-6.7-4.242-15.517-5.805-27.072-5.805H22.244c-1.228,0-1.507.893-.893,1.507s1.228,1.507,1.228,3.963v70.052a9.066,9.066,0,0,1-1.228,4.242c-.614.614-.279,1.507,1.228,1.507H38.711V292.844h7.312l5.191,8.819,6.419,10.94,3.07,5.47c3.628,6.084,6.977,10.047,12.782,10.94.614,0,3.628.614,4.856.614H79.57a18.1,18.1,0,0,0,6.419-1.507,1,1,0,0,1,.614-.279C88.612,326.725,88,325.5,87.105,325.162ZM49.037,281.345H38.655V252.71H48.981c5.191,0,9.154.614,11.889,3.349a7.659,7.659,0,0,1,2.456,3.628,20.208,20.208,0,0,1,1.228,6.7C64.555,270.07,64.275,281.345,49.037,281.345ZM107.814,292.9H126.4V281.345H107.814V264.32h28.3V252.766H91.961v69.717h44.152V310.929h-28.3V292.9Z" transform="translate(-21.037 -241.1)"/></svg>
