<svg xmlns="http://www.w3.org/2000/svg" viewBox="0 0 936.99 665.95"><defs><style>.cls-1{fill:#ece5ce;}.cls-2{fill:#f9ac66;}.cls-3{fill:#3b3e59;}.cls-4{fill:#ed6b5b;}</style></defs><g id="Layer_1" data-name="Layer 1"><path class="cls-1" d="M918.51,546.9a33.63,33.63,0,0,0-14.22-19.56,8.94,8.94,0,0,1-2.78-12l7.7-13.33-13.33-7.7q-40-23.1-78.23-50.28V253.55H804.27v-22.5l-12.53-12.54-56.69.21H722l-2.55,2.94L700.7,59.18a1,1,0,0,0-2.07-.07L679,167.35v-44H651.79V104.9h-30.7V36.15l-30-18.25H535.25L508.06,36.15V58a19.47,19.47,0,0,0-3.61-.34H495A19.61,19.61,0,0,0,487,59.27a26.46,26.46,0,0,0-37.76,0,19.52,19.52,0,0,0-7.91-1.66h-9.49a19.59,19.59,0,0,0-19,14.75H357.05V90.84H331.64L308.25,75.31H252.43l-30,18.07v76.07l-11.29-3L154.89,166l-43.43,11.39V449.13q-34.75,24.24-71,45.2L27.11,502l7.7,13.33a8.93,8.93,0,0,1-2.77,12,33.71,33.71,0,0,0-14.23,19.6,33.21,33.21,0,0,0,11.65,34.89,33.46,33.46,0,0,0-2.14,37.48,34.09,34.09,0,0,0,29.16,16.57,35.27,35.27,0,0,0,4.59-.31c40.22-5.48,105.11-11.76,150.49-15.89,2.19-.2,4.37-.29,6.54-.29,19.69,0,38.45,8,53.11,21.52.21.19.42.37.65.55,5.55,4.49,13.2,12,27.87,12a39,39,0,0,0,17.1-3.56H626.76c14.27,0,15.52-1.22,15.52-1.22a32.66,32.66,0,0,0,8.41-6.47c14.3-15.43,34-24.56,54.87-24.56,1.89,0,3.79.08,5.69.23q82.37,6.64,164,17.73a35.82,35.82,0,0,0,4.61.31A34.09,34.09,0,0,0,909,619.33a33.52,33.52,0,0,0-2.13-37.5A33.23,33.23,0,0,0,918.51,546.9Z"/><polygon class="cls-2" points="700.23 51.23 648.49 336.66 684.21 317.19 700.23 51.23"/><polygon class="cls-1" points="666.21 500.1 700.23 51.23 752 500.1 666.21 500.1"/><rect class="cls-3" x="699.47" y="121.66" width="6.18" height="12.74" rx="2.08" transform="translate(-1.17 6.61) rotate(-0.54)"/><rect class="cls-3" x="699.69" y="144.76" width="6.18" height="12.74" rx="2.08" transform="translate(-1.39 6.61) rotate(-0.54)"/><rect class="cls-3" x="699.91" y="167.87" width="6.18" height="12.74" rx="2.08" transform="translate(-1.61 6.61) rotate(-0.54)"/><rect class="cls-3" x="694.11" y="214.08" width="6.18" height="12.74" rx="2.08" transform="matrix(1, -0.01, 0.01, 1, -2.04, 6.56)"/><rect class="cls-3" x="706.48" y="214.08" width="6.18" height="12.74" rx="2.08" transform="matrix(1, -0.01, 0.01, 1, -2.04, 6.68)"/><rect class="cls-3" x="694.11" y="190.8" width="6.18" height="12.74" rx="2.08" transform="translate(-1.82 6.56) rotate(-0.54)"/><rect class="cls-3" x="706.48" y="190.8" width="6.18" height="12.74" rx="2.08" transform="translate(-1.82 6.68) rotate(-0.54)"/><rect class="cls-3" x="700.56" y="237.18" width="6.18" height="12.74" rx="2.08" transform="translate(-2.26 6.62) rotate(-0.54)"/><rect class="cls-3" x="712.35" y="237.18" width="6.18" height="12.74" rx="2.08" transform="translate(-2.26 6.73) rotate(-0.54)"/><rect class="cls-3" x="689.17" y="237.18" width="6.18" height="12.74" rx="2.08" transform="matrix(1, -0.01, 0.01, 1, -2.26, 6.52)"/><rect class="cls-3" x="700.78" y="260.29" width="6.18" height="12.74" rx="2.08" transform="matrix(1, -0.01, 0.01, 1, -2.48, 6.63)"/><rect class="cls-3" x="700.99" y="283.39" width="6.18" height="12.74" rx="2.08" transform="translate(-2.69 6.63) rotate(-0.54)"/><polygon class="cls-1" points="547.15 35.24 547.15 358.93 621.43 358.93 621.43 35.24 591.41 16.99 571.92 16.99 547.15 35.24"/><polygon class="cls-2" points="508.39 35.24 508.39 358.93 547.15 358.93 547.15 35.24 571.92 16.99 535.59 16.99 508.39 35.24"/><rect class="cls-3" x="516.88" y="44.86" width="7.16" height="7.16"/><rect class="cls-3" x="530.08" y="44.86" width="7.16" height="7.16"/><rect class="cls-3" x="516.88" y="58.67" width="7.16" height="7.16"/><rect class="cls-3" x="530.08" y="58.67" width="7.16" height="7.16"/><rect class="cls-3" x="516.88" y="72.47" width="7.16" height="7.16"/><rect class="cls-3" x="530.08" y="72.47" width="7.16" height="7.16"/><rect class="cls-3" x="516.88" y="86.28" width="7.16" height="7.16"/><rect class="cls-3" x="530.08" y="86.28" width="7.16" height="7.16"/><rect class="cls-3" x="516.88" y="100.08" width="7.16" height="7.16"/><rect class="cls-3" x="530.08" y="100.08" width="7.16" height="7.16"/><rect class="cls-3" x="516.88" y="113.89" width="7.16" height="7.16"/><rect class="cls-3" x="530.08" y="113.89" width="7.16" height="7.16"/><rect class="cls-3" x="516.88" y="127.69" width="7.16" height="7.16"/><rect class="cls-3" x="530.08" y="127.69" width="7.16" height="7.16"/><rect class="cls-3" x="516.88" y="141.5" width="7.16" height="7.16"/><rect class="cls-3" x="530.08" y="141.5" width="7.16" height="7.16"/><rect class="cls-3" x="559.22" y="44.86" width="11.05" height="11.05"/><rect class="cls-3" x="579.54" y="44.86" width="11.05" height="11.05"/><rect class="cls-3" x="600.36" y="44.86" width="11.05" height="11.05"/><rect class="cls-3" x="559.22" y="68.78" width="11.05" height="11.05"/><rect class="cls-3" x="579.54" y="68.78" width="11.05" height="11.05"/><rect class="cls-3" x="600.36" y="68.78" width="11.05" height="11.05"/><rect class="cls-3" x="559.22" y="92.69" width="11.05" height="11.05"/><rect class="cls-3" x="579.54" y="92.69" width="11.05" height="11.05"/><rect class="cls-3" x="600.36" y="92.69" width="11.05" height="11.05"/><rect class="cls-3" x="559.22" y="116.61" width="11.05" height="11.05"/><rect class="cls-3" x="579.54" y="116.61" width="11.05" height="11.05"/><rect class="cls-3" x="600.36" y="116.61" width="11.05" height="11.05"/><rect class="cls-3" x="559.22" y="140.53" width="11.05" height="11.05"/><rect class="cls-3" x="579.54" y="140.53" width="11.05" height="11.05"/><rect class="cls-3" x="600.36" y="140.53" width="11.05" height="11.05"/><rect class="cls-3" x="559.22" y="164.44" width="11.05" height="11.05"/><rect class="cls-3" x="579.54" y="164.44" width="11.05" height="11.05"/><rect class="cls-3" x="600.36" y="164.44" width="11.05" height="11.05"/><rect class="cls-3" x="559.22" y="188.36" width="11.05" height="11.05"/><rect class="cls-3" x="579.54" y="188.36" width="11.05" height="11.05"/><rect class="cls-3" x="600.36" y="188.36" width="11.05" height="11.05"/><rect class="cls-3" x="559.22" y="212.27" width="11.05" height="11.05"/><rect class="cls-3" x="579.54" y="212.27" width="11.05" height="11.05"/><rect class="cls-3" x="600.36" y="212.27" width="11.05" height="11.05"/><rect class="cls-3" x="600.36" y="236.19" width="11.05" height="11.05"/><rect class="cls-2" x="711.67" y="230.13" width="36.59" height="22.5" transform="translate(1459.93 482.76) rotate(-180)"/><rect class="cls-2" x="693.11" y="252.63" width="65.98" height="210.43"/><rect class="cls-1" x="759.09" y="252.63" width="58.9" height="210.43"/><rect class="cls-1" x="748.26" y="230.13" width="56.35" height="22.5" transform="translate(1552.87 482.76) rotate(-180)"/><rect class="cls-2" x="783.87" y="238.76" width="6.87" height="13.87" transform="translate(1574.61 491.39) rotate(-180)"/><rect class="cls-3" x="766.52" y="264.79" width="9.23" height="9.23"/><rect class="cls-3" x="783.5" y="264.79" width="9.23" height="9.23"/><rect class="cls-3" x="800.9" y="264.79" width="9.23" height="9.23"/><rect class="cls-3" x="766.52" y="284.77" width="9.23" height="9.23"/><rect class="cls-3" x="783.5" y="284.77" width="9.23" height="9.23"/><rect class="cls-3" x="800.9" y="284.77" width="9.23" height="9.23"/><rect class="cls-3" x="766.52" y="304.76" width="9.23" height="9.23"/><rect class="cls-3" x="783.5" y="304.76" width="9.23" height="9.23"/><rect class="cls-3" x="800.9" y="304.76" width="9.23" height="9.23"/><rect class="cls-3" x="766.52" y="324.74" width="9.23" height="9.23"/><rect class="cls-3" x="783.5" y="324.74" width="9.23" height="9.23"/><rect class="cls-3" x="800.9" y="324.74" width="9.23" height="9.23"/><rect class="cls-3" x="766.52" y="344.73" width="9.23" height="9.23"/><rect class="cls-3" x="783.5" y="344.73" width="9.23" height="9.23"/><rect class="cls-3" x="800.9" y="344.73" width="9.23" height="9.23"/><rect class="cls-3" x="766.52" y="364.71" width="9.23" height="9.23"/><rect class="cls-3" x="783.5" y="364.71" width="9.23" height="9.23"/><rect class="cls-3" x="800.9" y="364.71" width="9.23" height="9.23"/><rect class="cls-3" x="766.52" y="384.7" width="9.23" height="9.23"/><rect class="cls-3" x="783.5" y="384.7" width="9.23" height="9.23"/><rect class="cls-3" x="800.9" y="384.7" width="9.23" height="9.23"/><rect class="cls-3" x="766.52" y="404.69" width="9.23" height="9.23"/><rect class="cls-3" x="783.5" y="404.69" width="9.23" height="9.23"/><rect class="cls-3" x="800.9" y="404.69" width="9.23" height="9.23"/><rect class="cls-3" x="783.5" y="422.13" width="9.23" height="9.23"/><rect class="cls-3" x="800.9" y="422.13" width="9.23" height="9.23"/><rect class="cls-3" x="706.6" y="264.79" width="8.25" height="8.25"/><rect class="cls-3" x="721.78" y="264.79" width="8.25" height="8.25"/><rect class="cls-3" x="737.34" y="264.79" width="8.25" height="8.25"/><rect class="cls-3" x="706.6" y="282.66" width="8.25" height="8.25"/><rect class="cls-3" x="721.78" y="282.66" width="8.25" height="8.25"/><rect class="cls-3" x="737.34" y="282.66" width="8.25" height="8.25"/><rect class="cls-3" x="706.6" y="300.53" width="8.25" height="8.25"/><rect class="cls-3" x="721.78" y="300.53" width="8.25" height="8.25"/><rect class="cls-3" x="737.34" y="300.53" width="8.25" height="8.25"/><rect class="cls-3" x="706.6" y="318.4" width="8.25" height="8.25"/><rect class="cls-3" x="721.78" y="318.4" width="8.25" height="8.25"/><rect class="cls-3" x="737.34" y="318.4" width="8.25" height="8.25"/><rect class="cls-3" x="706.6" y="336.27" width="8.25" height="8.25"/><rect class="cls-3" x="721.78" y="336.27" width="8.25" height="8.25"/><rect class="cls-3" x="737.34" y="336.27" width="8.25" height="8.25"/><rect class="cls-3" x="706.6" y="354.14" width="8.25" height="8.25"/><rect class="cls-3" x="721.78" y="354.14" width="8.25" height="8.25"/><rect class="cls-3" x="737.34" y="354.14" width="8.25" height="8.25"/><rect class="cls-3" x="706.6" y="372.01" width="8.25" height="8.25"/><rect class="cls-3" x="721.78" y="372.01" width="8.25" height="8.25"/><rect class="cls-3" x="737.34" y="372.01" width="8.25" height="8.25"/><rect class="cls-3" x="706.6" y="389.88" width="8.25" height="8.25"/><rect class="cls-3" x="721.78" y="389.88" width="8.25" height="8.25"/><rect class="cls-3" x="737.34" y="389.88" width="8.25" height="8.25"/><rect class="cls-3" x="721.78" y="405.48" width="8.25" height="8.25"/><rect class="cls-3" x="737.34" y="405.48" width="8.25" height="8.25"/><rect class="cls-2" x="592.01" y="103.98" width="30.06" height="18.48" transform="translate(1214.08 226.44) rotate(-180)"/><rect class="cls-2" x="576.76" y="122.46" width="54.21" height="172.87"/><rect class="cls-1" x="630.97" y="122.46" width="48.38" height="172.87"/><rect class="cls-1" x="622.07" y="103.98" width="30.06" height="18.48" transform="translate(1274.2 226.44) rotate(-180)"/><rect class="cls-2" x="639.03" y="115.37" width="3.51" height="7.09" transform="translate(1281.58 237.83) rotate(-180)"/><rect class="cls-3" x="645.76" y="132.94" width="6.18" height="12.74"/><rect class="cls-3" x="660.41" y="132.94" width="6.18" height="12.74"/><rect class="cls-3" x="645.76" y="156.04" width="6.18" height="12.74"/><rect class="cls-3" x="660.41" y="156.04" width="6.18" height="12.74"/><rect class="cls-3" x="645.76" y="179.15" width="6.18" height="12.74"/><rect class="cls-3" x="660.41" y="179.15" width="6.18" height="12.74"/><rect class="cls-3" x="645.76" y="202.26" width="6.18" height="12.74"/><rect class="cls-3" x="660.41" y="202.26" width="6.18" height="12.74"/><rect class="cls-3" x="645.76" y="225.36" width="6.18" height="12.74"/><rect class="cls-3" x="660.41" y="225.36" width="6.18" height="12.74"/><rect class="cls-3" x="645.76" y="248.47" width="6.18" height="12.74"/><rect class="cls-3" x="660.41" y="248.47" width="6.18" height="12.74"/><rect class="cls-3" x="645.76" y="271.57" width="6.18" height="12.74"/><rect class="cls-3" x="660.41" y="271.57" width="6.18" height="12.74"/><rect class="cls-3" x="645.76" y="294.68" width="6.18" height="12.74"/><rect class="cls-3" x="660.41" y="294.68" width="6.18" height="12.74"/><rect class="cls-3" x="593.44" y="132.94" width="6.18" height="12.74"/><rect class="cls-3" x="608.1" y="132.94" width="6.18" height="12.74"/><rect class="cls-3" x="593.44" y="156.04" width="6.18" height="12.74"/><rect class="cls-3" x="608.1" y="156.04" width="6.18" height="12.74"/><rect class="cls-3" x="593.44" y="179.15" width="6.18" height="12.74"/><rect class="cls-3" x="608.1" y="179.15" width="6.18" height="12.74"/><rect class="cls-3" x="593.44" y="202.26" width="6.18" height="12.74"/><rect class="cls-3" x="608.1" y="202.26" width="6.18" height="12.74"/><rect class="cls-3" x="593.44" y="225.36" width="6.18" height="12.74"/><rect class="cls-3" x="608.1" y="225.36" width="6.18" height="12.74"/><rect class="cls-3" x="593.44" y="248.47" width="6.18" height="12.74"/><rect class="cls-3" x="608.1" y="248.47" width="6.18" height="12.74"/><rect class="cls-3" x="593.44" y="271.57" width="6.18" height="12.74"/><rect class="cls-3" x="608.1" y="271.57" width="6.18" height="12.74"/><rect class="cls-3" x="593.44" y="294.68" width="6.18" height="12.74"/><rect class="cls-3" x="608.1" y="294.68" width="6.18" height="12.74"/><polygon class="cls-2" points="711.67 230.13 722.32 217.8 735.38 217.8 748.26 230.13 711.67 230.13"/><polygon class="cls-1" points="804.61 230.13 792.08 217.6 735.38 217.8 748.26 230.13 804.61 230.13"/><polygon class="cls-1" points="198.67 176.49 198.67 500.17 111.8 500.17 111.8 176.49 155.23 165.1 198.67 176.49"/><rect class="cls-2" x="378.56" y="89.93" width="86.87" height="323.68"/><rect class="cls-3" x="129.02" y="192" width="8.8" height="18.12"/><rect class="cls-3" x="149.86" y="192" width="8.8" height="18.12"/><rect class="cls-3" x="170.69" y="192" width="8.8" height="18.12"/><rect class="cls-3" x="129.02" y="224.86" width="8.8" height="18.12"/><rect class="cls-3" x="149.86" y="224.86" width="8.8" height="18.12"/><rect class="cls-3" x="170.69" y="224.86" width="8.8" height="18.12"/><rect class="cls-3" x="129.02" y="257.72" width="8.8" height="18.12"/><rect class="cls-3" x="149.86" y="257.72" width="8.8" height="18.12"/><rect class="cls-3" x="170.69" y="257.72" width="8.8" height="18.12"/><rect class="cls-3" x="129.02" y="290.58" width="8.8" height="18.12"/><rect class="cls-3" x="149.86" y="290.58" width="8.8" height="18.12"/><rect class="cls-3" x="170.69" y="290.58" width="8.8" height="18.12"/><rect class="cls-3" x="129.02" y="323.43" width="8.8" height="18.12"/><rect class="cls-3" x="149.86" y="323.43" width="8.8" height="18.12"/><rect class="cls-3" x="170.69" y="323.43" width="8.8" height="18.12"/><rect class="cls-3" x="129.02" y="356.29" width="8.8" height="18.12"/><rect class="cls-3" x="149.86" y="356.29" width="8.8" height="18.12"/><rect class="cls-3" x="170.69" y="356.29" width="8.8" height="18.12"/><rect class="cls-3" x="129.02" y="389.15" width="8.8" height="18.12"/><rect class="cls-3" x="149.86" y="389.15" width="8.8" height="18.12"/><rect class="cls-3" x="170.69" y="389.15" width="8.8" height="18.12"/><rect class="cls-3" x="129.02" y="422.01" width="8.8" height="18.12"/><rect class="cls-3" x="149.86" y="422.01" width="8.8" height="18.12"/><rect class="cls-3" x="170.69" y="422.01" width="8.8" height="18.12"/><polygon class="cls-2" points="252.19 176.49 252.19 500.17 198.67 500.17 198.67 176.49 155.23 165.1 211.46 165.48 252.19 176.49"/><rect class="cls-3" x="210.45" y="192.1" width="6.25" height="12.87"/><rect class="cls-3" x="225.25" y="192.1" width="6.25" height="12.87"/><rect class="cls-3" x="210.45" y="215.44" width="6.25" height="12.87"/><rect class="cls-3" x="225.25" y="215.44" width="6.25" height="12.87"/><rect class="cls-3" x="210.45" y="238.77" width="6.25" height="12.87"/><rect class="cls-3" x="225.25" y="238.77" width="6.25" height="12.87"/><rect class="cls-3" x="210.45" y="262.11" width="6.25" height="12.87"/><rect class="cls-3" x="225.25" y="262.11" width="6.25" height="12.87"/><rect class="cls-3" x="210.45" y="285.45" width="6.25" height="12.87"/><rect class="cls-3" x="225.25" y="285.45" width="6.25" height="12.87"/><rect class="cls-3" x="210.45" y="308.79" width="6.25" height="12.87"/><rect class="cls-3" x="225.25" y="308.79" width="6.25" height="12.87"/><rect class="cls-3" x="210.45" y="332.13" width="6.25" height="12.87"/><rect class="cls-3" x="225.25" y="332.13" width="6.25" height="12.87"/><rect class="cls-3" x="210.45" y="355.47" width="6.25" height="12.87"/><rect class="cls-3" x="225.25" y="355.47" width="6.25" height="12.87"/><polygon class="cls-1" points="297.02 92.46 297.02 416.15 222.75 416.15 222.75 92.46 252.76 74.4 272.26 74.4 297.02 92.46"/><rect class="cls-3" x="245.07" y="99.64" width="8.8" height="18.12"/><rect class="cls-3" x="265.91" y="99.64" width="8.8" height="18.12"/><rect class="cls-3" x="245.07" y="132.5" width="8.8" height="18.12"/><rect class="cls-3" x="265.91" y="132.5" width="8.8" height="18.12"/><rect class="cls-3" x="245.07" y="165.36" width="8.8" height="18.12"/><rect class="cls-3" x="265.91" y="165.36" width="8.8" height="18.12"/><rect class="cls-3" x="245.07" y="198.22" width="8.8" height="18.12"/><rect class="cls-3" x="265.91" y="198.22" width="8.8" height="18.12"/><rect class="cls-3" x="245.07" y="231.08" width="8.8" height="18.12"/><rect class="cls-3" x="265.91" y="231.08" width="8.8" height="18.12"/><rect class="cls-3" x="245.07" y="263.93" width="8.8" height="18.12"/><rect class="cls-3" x="265.91" y="263.93" width="8.8" height="18.12"/><rect class="cls-3" x="245.07" y="296.79" width="8.8" height="18.12"/><rect class="cls-3" x="265.91" y="296.79" width="8.8" height="18.12"/><rect class="cls-3" x="245.07" y="329.65" width="8.8" height="18.12"/><rect class="cls-3" x="265.91" y="329.65" width="8.8" height="18.12"/><polygon class="cls-2" points="335.79 92.46 335.79 416.15 297.02 416.15 297.02 92.46 272.26 74.4 308.59 74.4 335.79 92.46"/><rect class="cls-3" x="306.61" y="102.41" width="6.25" height="12.87"/><rect class="cls-3" x="321.42" y="102.41" width="6.25" height="12.87"/><rect class="cls-3" x="306.61" y="125.75" width="6.25" height="12.87"/><rect class="cls-3" x="321.42" y="125.75" width="6.25" height="12.87"/><rect class="cls-3" x="306.61" y="149.09" width="6.25" height="12.87"/><rect class="cls-3" x="321.42" y="149.09" width="6.25" height="12.87"/><rect class="cls-3" x="306.61" y="172.42" width="6.25" height="12.87"/><rect class="cls-3" x="321.42" y="172.42" width="6.25" height="12.87"/><rect class="cls-3" x="306.61" y="195.76" width="6.25" height="12.87"/><rect class="cls-3" x="321.42" y="195.76" width="6.25" height="12.87"/><rect class="cls-3" x="306.61" y="219.1" width="6.25" height="12.87"/><rect class="cls-3" x="321.42" y="219.1" width="6.25" height="12.87"/><rect class="cls-3" x="306.61" y="242.44" width="6.25" height="12.87"/><rect class="cls-3" x="321.42" y="242.44" width="6.25" height="12.87"/><rect class="cls-3" x="306.61" y="265.78" width="6.25" height="12.87"/><rect class="cls-3" x="321.42" y="265.78" width="6.25" height="12.87"/><rect class="cls-3" x="392.6" y="105.58" width="4.39" height="9.05"/><rect class="cls-3" x="403.01" y="105.58" width="4.39" height="9.05"/><rect class="cls-3" x="392.6" y="121.99" width="4.39" height="9.05"/><rect class="cls-3" x="403.01" y="121.99" width="4.39" height="9.05"/><rect class="cls-3" x="392.6" y="138.41" width="4.39" height="9.05"/><rect class="cls-3" x="403.01" y="138.41" width="4.39" height="9.05"/><rect class="cls-3" x="392.6" y="154.82" width="4.39" height="9.05"/><rect class="cls-3" x="403.01" y="154.82" width="4.39" height="9.05"/><rect class="cls-3" x="392.6" y="171.23" width="4.39" height="9.05"/><rect class="cls-3" x="403.01" y="171.23" width="4.39" height="9.05"/><rect class="cls-3" x="392.6" y="187.64" width="4.39" height="9.05"/><rect class="cls-3" x="403.01" y="187.64" width="4.39" height="9.05"/><rect class="cls-3" x="392.6" y="204.05" width="4.39" height="9.05"/><rect class="cls-3" x="403.01" y="204.05" width="4.39" height="9.05"/><rect class="cls-3" x="392.6" y="220.46" width="4.39" height="9.05"/><rect class="cls-3" x="403.01" y="220.46" width="4.39" height="9.05"/><rect class="cls-3" x="413.24" y="105.58" width="4.39" height="9.05"/><rect class="cls-3" x="423.65" y="105.58" width="4.39" height="9.05"/><rect class="cls-3" x="413.24" y="121.99" width="4.39" height="9.05"/><rect class="cls-3" x="423.65" y="121.99" width="4.39" height="9.05"/><rect class="cls-3" x="413.24" y="138.41" width="4.39" height="9.05"/><rect class="cls-3" x="423.65" y="138.41" width="4.39" height="9.05"/><rect class="cls-3" x="413.24" y="154.82" width="4.39" height="9.05"/><rect class="cls-3" x="423.65" y="154.82" width="4.39" height="9.05"/><rect class="cls-3" x="413.24" y="171.23" width="4.39" height="9.05"/><rect class="cls-3" x="423.65" y="171.23" width="4.39" height="9.05"/><rect class="cls-3" x="413.24" y="187.64" width="4.39" height="9.05"/><rect class="cls-3" x="423.65" y="187.64" width="4.39" height="9.05"/><rect class="cls-3" x="413.24" y="204.05" width="4.39" height="9.05"/><rect class="cls-3" x="423.65" y="204.05" width="4.39" height="9.05"/><rect class="cls-3" x="413.24" y="220.46" width="4.39" height="9.05"/><rect class="cls-3" x="423.65" y="220.46" width="4.39" height="9.05"/><rect class="cls-1" x="330.17" y="89.93" width="48.38" height="323.68"/><rect class="cls-3" x="337.3" y="104.89" width="7.03" height="7.03"/><rect class="cls-3" x="350.22" y="104.89" width="7.03" height="7.03"/><rect class="cls-3" x="363.47" y="104.89" width="7.03" height="7.03"/><rect class="cls-3" x="337.3" y="120.1" width="7.03" height="7.03"/><rect class="cls-3" x="350.22" y="120.1" width="7.03" height="7.03"/><rect class="cls-3" x="363.47" y="120.1" width="7.03" height="7.03"/><rect class="cls-3" x="337.3" y="135.31" width="7.03" height="7.03"/><rect class="cls-3" x="350.22" y="135.31" width="7.03" height="7.03"/><rect class="cls-3" x="363.47" y="135.31" width="7.03" height="7.03"/><rect class="cls-3" x="337.3" y="150.52" width="7.03" height="7.03"/><rect class="cls-3" x="350.22" y="150.52" width="7.03" height="7.03"/><rect class="cls-3" x="363.47" y="150.52" width="7.03" height="7.03"/><rect class="cls-3" x="337.3" y="165.73" width="7.03" height="7.03"/><rect class="cls-3" x="350.22" y="165.73" width="7.03" height="7.03"/><rect class="cls-3" x="363.47" y="165.73" width="7.03" height="7.03"/><rect class="cls-3" x="337.3" y="180.93" width="7.03" height="7.03"/><rect class="cls-3" x="350.22" y="180.93" width="7.03" height="7.03"/><rect class="cls-3" x="363.47" y="180.93" width="7.03" height="7.03"/><rect class="cls-3" x="337.3" y="196.14" width="7.03" height="7.03"/><rect class="cls-3" x="350.22" y="196.14" width="7.03" height="7.03"/><rect class="cls-3" x="363.47" y="196.14" width="7.03" height="7.03"/><rect class="cls-3" x="337.3" y="211.35" width="7.03" height="7.03"/><rect class="cls-3" x="350.22" y="211.35" width="7.03" height="7.03"/><rect class="cls-3" x="363.47" y="211.35" width="7.03" height="7.03"/><rect class="cls-1" x="357.39" y="71.45" width="30.06" height="18.48"/><rect class="cls-2" x="366.98" y="82.85" width="3.51" height="7.09"/><rect class="cls-2" x="387.45" y="71.45" width="30.06" height="18.48"/><path class="cls-2" d="M894.21,589.24l.7.94a18.08,18.08,0,0,1,1.19,20.36,18.52,18.52,0,0,1-18.45,8.86,3033.41,3033.41,0,0,0-818.3,0,18.49,18.49,0,0,1-18.45-8.86,18.11,18.11,0,0,1,1.19-20.36l.68-.9a14.13,14.13,0,0,0-2.88-20l-.06,0A18,18,0,0,1,33,550a18.77,18.77,0,0,1,15.74-13.61l.57-.08a19.13,19.13,0,0,0,16.56-19c-2.81,1.66-5.6,3.33-8.42,5l-9-15.55C196.67,421.15,327.85,293.57,428,137.68V76.3a4.23,4.23,0,0,1,4.23-4.22h9.5a4.22,4.22,0,0,1,4.22,4.22v2.15h11.63a10.87,10.87,0,0,1-.15-1.52,11.11,11.11,0,1,1,22.21,0,12.62,12.62,0,0,1-.15,1.52h11.62V76.3a4.22,4.22,0,0,1,4.23-4.22h9.5A4.23,4.23,0,0,1,509,76.3v61.38c100.12,155.89,231.3,283.47,379.5,369.07l-9,15.55c-3.48-2-6.95-4.07-10.4-6.12a20.17,20.17,0,0,0,17.49,20l1.61.22A18.75,18.75,0,0,1,904,550a18,18,0,0,1-6.83,19.22l-.11.09A14.08,14.08,0,0,0,894.21,589.24Z"/><rect class="cls-3" x="458.72" y="113.94" width="19.57" height="13.55" rx="2.89"/><rect class="cls-3" x="458.72" y="140.34" width="19.57" height="13.55" rx="2.89"/><rect class="cls-3" x="458.72" y="166.75" width="19.57" height="13.55" rx="2.89"/><rect class="cls-3" x="458.72" y="193.15" width="19.57" height="13.55" rx="2.89"/><rect class="cls-3" x="458.72" y="221.2" width="19.57" height="13.55" rx="2.89"/><rect class="cls-3" x="458.72" y="247.61" width="19.57" height="13.55" rx="2.89"/><rect class="cls-3" x="458.72" y="274.01" width="19.57" height="13.55" rx="2.89"/><rect class="cls-3" x="458.72" y="300.42" width="19.57" height="13.55" rx="2.89"/><path class="cls-3" d="M897.06,569.3l.11-.09A18,18,0,0,0,904,550a18.76,18.76,0,0,0-15.75-13.61l-1.59-.22a20.18,20.18,0,0,1-17.51-20c3.46,2.06,6.92,4.12,10.4,6.12l9-15.54C740.33,421.16,609.16,293.56,509,137.68V76.3a4.22,4.22,0,0,0-4.23-4.22h-9.49a4.22,4.22,0,0,0-4.23,4.22v2.15H479.45a10.87,10.87,0,0,0,.15-1.52,11.1,11.1,0,1,0-22.2,0,10.87,10.87,0,0,0,.15,1.52H445.92V76.3a4.22,4.22,0,0,0-4.22-4.22h-9.5A4.23,4.23,0,0,0,428,76.3v61.38C327.84,293.56,196.67,421.16,48.47,506.75l9,15.54c2.82-1.62,5.61-3.29,8.42-4.95a19.14,19.14,0,0,1-16.56,19l-.56.08A18.77,18.77,0,0,0,33,550a18,18,0,0,0,6.83,19.22l.06,0a14.15,14.15,0,0,1,2.88,20l-.69.9a18.08,18.08,0,0,0-1.18,20.35,18.48,18.48,0,0,0,18.45,8.87,3033.41,3033.41,0,0,1,818.3,0,18.54,18.54,0,0,0,18.46-8.87,18.08,18.08,0,0,0-1.2-20.35l-.71-.93A14.09,14.09,0,0,1,897.06,569.3Zm-67-77.56c7,4.6,14.05,9.14,21.14,13.55v26.3q-10.56-1.3-21.14-2.54Zm-40.81-28.21q11.36,8.24,22.86,16.17V527q-11.42-1.26-22.86-2.44Zm29.92,82.31q-6.15,4.77-12.27,9.56-4.92-6-9.89-12Q808.1,544.57,819.17,545.84ZM748.44,432.35q11.34,9.09,22.86,17.86v72.55q-11.43-1.12-22.86-2.15Zm3,106.53q-6,4.9-12,9.83-5.05-5.91-10.15-11.79Q740.32,537.87,751.42,538.88ZM707.63,398q11.32,10,22.86,19.7V519q-11.43-1-22.86-1.84Zm-40.81-37.91q11.31,11,22.86,21.69V515.87q-11.43-.81-22.86-1.54ZM626,318.15q11.29,12.18,22.86,24v171.1Q637.44,512.56,626,512ZM584.37,270.8q11.67,14,23.69,27.59V511.13q-11.84-.53-23.69-1Zm-40.62-51.49q11.14,14.92,22.67,29.42V509.55q-11.34-.36-22.67-.64Zm-22-30.51,4.08,5.8V508.53q-8.38-.15-16.77-.25V192.79A7,7,0,0,1,521.72,188.8ZM468.5,96.4h0A22.58,22.58,0,0,1,491.08,119V506.64H445.92V119A22.58,22.58,0,0,1,468.5,96.4ZM479.63,526q-5.58,5.41-11.13,10.85Q463,531.37,457.37,526,468.5,525.92,479.63,526ZM409.22,197.39q3.54-5,7-10A6.43,6.43,0,0,1,428,191.06V508.28q-9.37.12-18.75.29ZM368.6,251.2q11.52-14.41,22.66-29.26V509q-11.33.29-22.66.65ZM327,300.6q12-13.5,23.69-27.41V510.24q-11.85.45-23.69,1Zm-40.81,43.54q11.57-11.73,22.86-23.85V512.07q-11.44.58-22.86,1.26Zm-40.81,39.45Q256.89,373,268.19,362V514.45q-11.43.74-22.85,1.56Zm-40.81,35.72q11.53-9.62,22.85-19.6V517.34q-11.43.88-22.85,1.85Zm3.25,117.61q-5.1,5.9-10.15,11.79-6-4.94-12-9.83Q196.68,537.86,207.78,536.92ZM163.72,451.7q11.52-8.71,22.85-17.76v86.84q-11.43,1-22.85,2.17ZM122.91,481q11.51-7.86,22.85-16.07v59.79q-11.43,1.18-22.85,2.46ZM140,543.4q-5,6-9.89,12-6.12-4.78-12.27-9.56Q128.92,544.58,140,543.4ZM83.82,506.5Q94.46,499.92,105,493v36.23q-10.58,1.25-21.14,2.57Zm-33,48c.07-.25.14-.26.33-.29q10.58-1.42,21.16-2.8-4.83,6.1-9.63,12.22-5.84-4.37-11.72-8.72C50.82,554.75,50.76,554.71,50.83,554.45Zm6.1,47.16c-.19,0-.26,0-.39-.19s-.09-.28,0-.43q4.71-6.13,9.47-12.24,6.56,4.95,13.07,9.92Q68,600.11,56.93,601.61Zm43.45-9.34q-11.53-8.94-23.2-17.78,9.06-11.5,18.26-23,11.67,8.93,23.21,17.92Q109.44,580.83,100.38,592.27Zm22.19,1.13q5.13-6.39,10.31-12.77,6.45,5.1,12.85,10.22Q134.15,592.08,122.57,593.4Zm44.56-8.49q-11.32-9.18-22.79-18.28,9.3-11.29,18.74-22.55,11.47,9.18,22.8,18.43Q176.43,573.69,167.13,584.91Zm22.14,1.62q5.28-6.27,10.59-12.54,6.33,5.24,12.61,10.5Q200.88,585.46,189.27,586.53ZM234,579q-11.13-9.42-22.38-18.78,9.54-11.09,19.23-22.12,11.25,9.42,22.38,18.92Q243.53,568,234,579Zm41.67-47.08q-5.22,5.77-10.4,11.56-5.89-5.06-11.82-10.09Q264.54,532.63,275.66,531.94Zm-19.58,49.19q5.4-6.17,10.85-12.3,6.21,5.37,12.38,10.77Q267.69,580.32,256.08,581.13Zm44.85-6.52Q290,564.93,279,555.34q9.78-10.87,19.7-21.69,11,9.66,21.95,19.4Q310.71,563.81,300.93,574.61Zm42.69-46.16q-5.34,5.65-10.65,11.33-5.79-5.19-11.6-10.35Q332.48,528.91,343.62,528.45ZM323,577.2q5.55-6,11.12-12.06,6.09,5.5,12.14,11Q334.6,576.65,323,577.2Zm45-5.53q-10.69-9.92-21.52-19.75,10-10.67,20.16-21.26,10.83,9.92,21.52,19.89Q377.94,561.08,367.94,571.67Zm43.67-45.21q-5.46,5.53-10.89,11.09-5.66-5.31-11.36-10.6Q400.49,526.67,411.61,526.46ZM389.9,574.74q5.67-5.93,11.38-11.81,6,5.64,11.89,11.3Q401.53,574.44,389.9,574.74ZM435,570.19Q424.51,560.05,413.9,550q10.25-10.44,20.62-20.81,10.61,10.14,21.08,20.35Q445.22,559.83,435,570.19Zm21.89,3.56q5.79-5.79,11.63-11.56,5.83,5.77,11.64,11.56Q468.5,573.71,456.87,573.75ZM502,570.19q-10.25-10.37-20.63-20.67,10.47-10.2,21.08-20.35Q512.86,539.55,523.1,550,512.49,560,502,570.19Zm21.81,4q5.91-5.67,11.88-11.3,5.71,5.9,11.38,11.81Q535.48,574.44,523.84,574.23Zm12.44-36.68q-5.43-5.55-10.89-11.09,11.13.19,22.26.49Q541.94,532.23,536.28,537.55Zm32.79,34.12q-10-10.6-20.17-21.12,10.7-10,21.52-19.89,10.16,10.61,20.16,21.26Q579.75,561.76,569.07,571.67Zm21.71,4.51q6-5.53,12.14-11,5.58,6,11.12,12.06Q602.42,576.65,590.78,576.18ZM604,539.78q-5.29-5.67-10.65-11.33,11.13.45,22.25,1Q609.81,534.59,604,539.78Zm12.34,13.27q10.9-9.74,22-19.4,9.91,10.82,19.7,21.69-11,9.6-21.95,19.27Q626.29,563.79,616.37,553.05Zm41.32,26.55q6.16-5.4,12.38-10.77,5.45,6.13,10.85,12.3Q669.31,580.32,657.69,579.6Zm14-36.1q-5.19-5.79-10.4-11.56,11.11.69,22.22,1.47Q677.64,538.43,671.74,543.5Zm12,13.54q11.12-9.49,22.38-18.92,9.69,11,19.23,22.12Q714.13,569.6,703,579,693.47,568,683.78,557Zm40.75,27.45q6.29-5.26,12.61-10.5,5.33,6.27,10.59,12.54Q736.14,585.47,724.53,584.49Zm26.59-22q11.32-9.25,22.8-18.43,9.45,11.25,18.74,22.55-11.46,9.09-22.79,18.28Q760.57,573.69,751.12,562.51Zm40.15,28.34q6.4-5.13,12.85-10.22,5.18,6.38,10.31,12.77Q802.87,592.08,791.27,590.85Zm27.08-21.39q11.53-9,23.21-17.92,9.21,11.44,18.26,23-11.67,8.85-23.2,17.78Q827.56,580.84,818.35,569.46Zm62.11,32c-.13.22-.2.22-.39.19Q869,600.1,857.9,598.67q6.51-5,13.07-9.92,4.75,6.11,9.47,12.24C880.55,601.14,880.6,601.19,880.46,601.42ZM886,554.86q-5.88,4.35-11.72,8.72-4.8-6.12-9.63-12.22,10.58,1.36,21.16,2.8c.19,0,.26,0,.33.29S886.18,554.75,886,554.86Z"/><path class="cls-1" d="M710.67,284.89c0-13.52-3.76-24.45-11.15-32.52-5.39-5.89-15.37-12.89-32.27-12.89-9.69,0-17.1,2.3-22.66,5.37h0a4.05,4.05,0,0,0-4.05-4H527a4.14,4.14,0,0,0-4.14,4.14h0c-5.59-3.12-13.05-5.47-22.82-5.47-16.92,0-26.89,7-32.28,12.89l-.46.51c-5.43-5.62-15.26-12.07-31.86-12.07H363.71a4.85,4.85,0,0,0-4.86,4.85h0c-6.34-3.18-14-4.85-23-4.85H297.29A5.19,5.19,0,0,0,292.1,246h0c-6.44-3.4-14.39-5.19-23.66-5.19H230.33a5.64,5.64,0,0,0-5.64,5.63v173a4.76,4.76,0,0,0,4.76,4.76h7.48a4,4,0,0,1,4,4v24.5a4,4,0,0,1-4,4h-6.64a5.61,5.61,0,0,0-5.6,5.61V498h-.37v38a4.49,4.49,0,0,0,4.49,4.49H236v54.56a6.27,6.27,0,0,0,6.27,6.27H502.79a39.81,39.81,0,0,0,16,0h33.67a42.4,42.4,0,0,0,7.44-.64v.64H702.16a8.5,8.5,0,0,0,8.51-8.5V384.34a6.61,6.61,0,0,0-6.62-6.61h-4.43c7.32-8.05,11-19,11-32.41Z"/><path class="cls-3" d="M295.51,283.73v4.15c0,11.95-3.66,19.59-11.79,23.41,9.79,3.82,13.61,12.62,13.61,24.9v9.47c0,17.93-9.46,27.56-27.72,27.56H240.88V257h27.56C287.37,257,295.51,265.79,295.51,283.73ZM259.14,273.6v30.71h7.14c6.81,0,11-3,11-12.28v-6.48c0-8.3-2.82-11.95-9.3-11.95Zm0,47.32v35.69h10.47c6.14,0,9.46-2.82,9.46-11.45V335c0-10.79-3.49-14.11-11.79-14.11Z"/><path class="cls-3" d="M346.48,373.22c-1-3-1.66-4.82-1.66-14.28V340.68c0-10.8-3.66-14.78-12-14.78h-6.31v47.32H308.29V257h27.56c18.93,0,27.06,8.8,27.06,26.74v9.13c0,11.95-3.81,19.76-12,23.57,9.13,3.82,12.12,12.62,12.12,24.74V359.1c0,5.65.17,9.8,2,14.12ZM326.55,273.6v35.7h7.14c6.81,0,11-3,11-12.29V285.55c0-8.3-2.82-11.95-9.3-11.95Z"/><path class="cls-3" d="M375,257H393.3V373.22H375Z"/><path class="cls-3" d="M406.58,257h28.89c18.26,0,27.23,10.13,27.23,28.73v58.77c0,18.6-9,28.73-27.23,28.73H406.58Zm18.26,16.61v83h10.3c5.81,0,9.29-3,9.29-11.29V284.89c0-8.3-3.48-11.29-9.29-11.29Z"/><path class="cls-3" d="M501.71,308.46h25.57v36.86c0,18.6-9.3,29.23-27.23,29.23s-27.23-10.63-27.23-29.23V284.89c0-18.6,9.3-29.22,27.23-29.22s27.23,10.62,27.23,29.22v11.29H510V283.73c0-8.31-3.65-11.46-9.46-11.46s-9.46,3.15-9.46,11.46v62.76c0,8.3,3.65,11.29,9.46,11.29s9.46-3,9.46-11.29V325.07h-8.3Z"/><path class="cls-3" d="M539.07,257h18.26V373.22H539.07Z"/><path class="cls-3" d="M586.89,289v84.18H570.45V257h22.91l18.76,69.57V257h16.27V373.22H609.63Z"/><path class="cls-3" d="M668.9,308.46h25.57v36.86c0,18.6-9.29,29.23-27.23,29.23S640,363.92,640,345.32V284.89c0-18.6,9.3-29.22,27.23-29.22s27.23,10.62,27.23,29.22v11.29H677.21V283.73c0-8.31-3.66-11.46-9.47-11.46s-9.46,3.15-9.46,11.46v62.76c0,8.3,3.65,11.29,9.46,11.29s9.47-3,9.47-11.29V325.07H668.9Z"/><path class="cls-3" d="M240.88,393.92h48V408H272.62v49.36H257.1V408H240.88Z"/><path class="cls-3" d="M311.12,457.38H295.61V393.92h15.51v25.91h17.63V393.92h15.8v63.46h-15.8V433.93H311.12Z"/><path class="cls-3" d="M371.34,419.12h21.3v14.11h-21.3v10h26.8v14.11H355.83V393.92h42.31V408h-26.8Z"/><path class="cls-4" d="M439.12,459.93l-19.6-66h16.22l11.84,45,11.85-45h14.81l-19.6,66v32.72H439.12Z"/><path class="cls-4" d="M479.06,417.62c0-15.8,8.32-24.83,23.56-24.83s23.55,9,23.55,24.83V469c0,15.79-8.32,24.82-23.55,24.82s-23.56-9-23.56-24.82Zm15.52,52.32c0,7.06,3.1,9.74,8,9.74s8-2.68,8-9.74V416.63c0-7.05-3.11-9.73-8-9.73s-8,2.68-8,9.73Z"/><path class="cls-4" d="M552,393.92v76.16c0,7.06,3.1,9.6,8,9.6s8-2.54,8-9.6V393.92h14.67V469.1c0,15.79-7.9,24.82-23.13,24.82s-23.13-9-23.13-24.82V393.92Z"/><path class="cls-4" d="M589.81,393.92h48V408H621.54v84.63H606V408H589.81Z"/><path class="cls-4" d="M661.05,492.65H645.53V393.92h15.52v42.31h17.63V393.92h15.79v98.73H678.68V450.34H661.05Z"/><path class="cls-3" d="M274.44,511h34.47v10.14H297.25V582H286.1V521.13H274.44Z"/><path class="cls-3" d="M324.92,540.9h15.31V551H324.92v20.78h19.27V582H313.77V511h30.42v10.14H324.92Z"/><path class="cls-3" d="M383.42,555.5v9.43c0,11.35-5.68,17.84-16.63,17.84s-16.62-6.49-16.62-17.84V528c0-11.35,5.67-17.84,16.62-17.84s16.63,6.49,16.63,17.84v6.9H372.88v-7.61c0-5.06-2.23-7-5.78-7s-5.78,1.93-5.78,7v38.33c0,5.06,2.23,6.89,5.78,6.89s5.78-1.83,5.78-6.89V555.5Z"/><path class="cls-3" d="M401.36,582H390.21V511h11.15v30.42H414V511h11.36v71H414V551.54H401.36Z"/><path class="cls-3" d="M456.12,510.78h17.57c11.11,0,16.56,6.16,16.56,17.48V564c0,11.31-5.45,17.47-16.56,17.47H456.12Zm11.11,10.1v50.5h6.26c3.53,0,5.65-1.82,5.65-6.86V527.75c0-5-2.12-6.87-5.65-6.87Z"/><path class="cls-3" d="M500.25,510.78h11.11v70.7H500.25Z"/><path class="cls-3" d="M539,568.45h.21l8.38-57.67h10.2l-10.91,70.7H530.35l-10.91-70.7h11.21Z"/><path class="cls-3" d="M565.9,510.78H577v70.7H565.9Z"/><path class="cls-3" d="M588,510.78h17.57c11.11,0,16.56,6.16,16.56,17.48V564c0,11.31-5.45,17.47-16.56,17.47H588Zm11.11,10.1v50.5h6.26c3.53,0,5.65-1.82,5.65-6.86V527.75c0-5-2.12-6.87-5.65-6.87Z"/><path class="cls-3" d="M643.26,540.58h15.25v10.1H643.26v20.7h19.19v10.1h-30.3v-70.7h30.3v10.1H643.26Z"/><rect class="cls-3" x="240.88" y="472.86" width="157.26" height="19.79"/><path class="cls-4" d="M345.79,627.18l3.7-24.5H357v34.51H351.9V612.44l-3.74,24.75H343l-4-24.4v24.4h-4.73V602.68h7.54Z"/><path class="cls-4" d="M363.44,602.68h5.42v34.51h-5.42Z"/><path class="cls-4" d="M382.57,602.29c5.27,0,8,3.15,8,8.67v1.09h-5.12v-1.43c0-2.47-1-3.4-2.71-3.4s-2.72.93-2.72,3.4c0,7.1,10.6,8.43,10.6,18.29,0,5.52-2.76,8.67-8.08,8.67s-8.09-3.15-8.09-8.67v-2.12h5.13v2.46c0,2.47,1.09,3.35,2.81,3.35s2.81-.88,2.81-3.35c0-7.1-10.6-8.43-10.6-18.29C374.58,605.44,377.29,602.29,382.57,602.29Z"/><path class="cls-4" d="M403.47,602.29c5.28,0,8,3.15,8,8.67v1.09h-5.13v-1.43c0-2.47-1-3.4-2.71-3.4s-2.71.93-2.71,3.4c0,7.1,10.6,8.43,10.6,18.29,0,5.52-2.76,8.67-8.09,8.67s-8.08-3.15-8.08-8.67v-2.12h5.12v2.46c0,2.47,1.09,3.35,2.81,3.35s2.81-.88,2.81-3.35c0-7.1-10.6-8.43-10.6-18.29C395.48,605.44,398.2,602.29,403.47,602.29Z"/><path class="cls-4" d="M417.08,602.68h5.42v34.51h-5.42Z"/><path class="cls-4" d="M428.46,611c0-5.52,2.91-8.67,8.24-8.67s8.23,3.15,8.23,8.67v17.95c0,5.52-2.91,8.67-8.23,8.67s-8.24-3.15-8.24-8.67Zm5.43,18.29c0,2.47,1.08,3.4,2.81,3.4s2.81-.93,2.81-3.4V610.62c0-2.47-1.09-3.4-2.81-3.4s-2.81.93-2.81,3.4Z"/><path class="cls-4" d="M455.73,612.19v25h-4.88V602.68h6.8l5.57,20.66V602.68h4.83v34.51h-5.57Z"/><path class="cls-4" d="M490.63,610.62v1.23c0,3.55-1.08,5.82-3.5,6.95,2.91,1.14,4,3.75,4,7.4V629c0,5.33-2.81,8.19-8.23,8.19h-8.53V602.68h8.18C488.21,602.68,490.63,605.29,490.63,610.62Zm-10.8-3v9.12H482c2,0,3.26-.89,3.26-3.65v-1.92c0-2.47-.84-3.55-2.76-3.55Zm0,14v10.6h3.11c1.82,0,2.81-.84,2.81-3.4v-3c0-3.2-1-4.19-3.5-4.19Z"/><path class="cls-4" d="M496.89,602.68h5.42v34.51h-5.42Z"/><path class="cls-4" d="M507.15,602.68h16.76v4.93h-5.67v29.58h-5.42V607.61h-5.67Z"/><path class="cls-4" d="M531,632v5.23h-5.23V632Z"/><path class="cls-4" d="M536.48,611c0-5.52,2.91-8.67,8.23-8.67s8.23,3.15,8.23,8.67v17.95c0,5.52-2.91,8.67-8.23,8.67s-8.23-3.15-8.23-8.67Zm5.42,18.29c0,2.47,1.09,3.4,2.81,3.4s2.81-.93,2.81-3.4V610.62c0-2.47-1.08-3.4-2.81-3.4s-2.81.93-2.81,3.4Z"/><path class="cls-4" d="M570.25,637.19c-.3-.89-.5-1.43-.5-4.24v-5.42c0-3.21-1.08-4.39-3.55-4.39h-1.87v14.05h-5.42V602.68h8.18c5.62,0,8,2.61,8,7.94v2.71c0,3.55-1.14,5.87-3.55,7,2.71,1.13,3.6,3.75,3.6,7.34V633a10.21,10.21,0,0,0,.59,4.19Zm-5.92-29.58v10.6h2.12c2,0,3.25-.89,3.25-3.65v-3.4c0-2.47-.83-3.55-2.76-3.55Z"/><path class="cls-4" d="M589.33,618h7.59v10.95c0,5.52-2.76,8.67-8.09,8.67s-8.08-3.15-8.08-8.67V611c0-5.52,2.76-8.67,8.08-8.67s8.09,3.15,8.09,8.67v3.36h-5.13v-3.7c0-2.47-1.08-3.4-2.81-3.4s-2.81.93-2.81,3.4v18.63c0,2.47,1.09,3.35,2.81,3.35s2.81-.88,2.81-3.35v-6.36h-2.46Z"/><path class="cls-4" d="M935.25,541.56a50.33,50.33,0,0,0-15.19-24.67l4.2-7.28,8.48-14.35L918,486.39l-13.33-7.69c-23.5-13.57-46.92-28.48-69.73-44.39V235.64H821.6V223.09l-5-5-12.54-12.54-5-5-7.07,0-56.65.2h-.78L717.92,56.31a18,18,0,0,0-35.67-1.15l-9.11,50.31h-4V87h-30.7V25.69l-8.16-5-30-18.25L596.18,0H530.42l-4.3,2.88L498.93,21.13l-7.52,5.05V39.91h-.06a43.57,43.57,0,0,0-45.69,0,37.05,37.05,0,0,0-4-.21h-9.49a36.54,36.54,0,0,0-29.37,14.76H340.41V72.94h-3.3L318,60.24l-4.27-2.83H248.05l-4,2.43L214,77.91l-8.23,5v65.6l-50.41-.35H153.1l-2.18.57-43.43,11.39-12.68,3.33V439.3c-20.54,14.06-41.54,27.29-62.52,39.4L19,486.4,4.25,494.89l8.49,14.71L17,516.9A50.73,50.73,0,0,0,1.73,541.64a50.19,50.19,0,0,0,7.42,41.91,50.31,50.31,0,0,0,3.91,43.52A51.17,51.17,0,0,0,56.82,652a50,50,0,0,0,6.88-.47c23-3.13,54.3-6.53,84.12-9.53l2.76-.28c14.39-1.44,28.37-2.78,40.82-3.95l.53-.05q13-1.15,25.92-2.21l.54,0c1.43-.11,2.89-.17,4.33-.17,15.69,0,31.13,5.42,42.4,17.58a49.4,49.4,0,0,0,11.6,9.19c4.57,3,11,3.93,24.78,3.93h62.84v0H627.1c13.8,0,20.21-.9,24.78-3.93a49.4,49.4,0,0,0,11.6-9.19c11.27-12.16,26.73-19.13,42.42-19.13,1.44,0,2.9.06,4.33.17,54.53,4.4,109.4,10.34,163.06,17.63a50.76,50.76,0,0,0,54.58-67.93A50.28,50.28,0,0,0,935.25,541.56ZM917.8,566.61a1.22,1.22,0,0,1-.07.17,33.5,33.5,0,0,1-10.52,14.14c.1.13.2.26.29.4a33.41,33.41,0,0,1,4.39,31.77c0,.1-.07.2-.11.3a33.18,33.18,0,0,1-2.44,5,33.87,33.87,0,0,1-33.76,16.24q-81.51-11.08-164-17.73c-1.9-.15-3.8-.23-5.69-.23-20.82,0-40.57,9.13-54.87,24.56a32.66,32.66,0,0,1-8.41,6.47s-1.25,1.22-15.52,1.22H317.17l0,0H301.5c-14.27,0-18.73-.17-24.59-6C262,628.05,242.86,618.38,222,618.37c-1.27,0-2.79,0-4.51.11-1.87,0-3.75.12-5.63.29l-1.1.1c-16.87,1.14-43.74,4-61.89,5.89l-1.09.11c-31.36,3.15-63,6.6-86.41,9.78a33.61,33.61,0,0,1-4.59.32,34.1,34.1,0,0,1-29.16-16.58,33.47,33.47,0,0,1,1.6-36.73c.17-.25.35-.5.54-.74A33.24,33.24,0,0,1,18.15,546c.23-.87.49-1.72.8-2.56a33.76,33.76,0,0,1,13.43-17,8.59,8.59,0,0,0,3.27-3.89,9,9,0,0,0-.5-8.09l-7.39-12.79-.31-.54,13.33-7.69q36.06-20.82,70.68-45l.34-.24V176.5l43.43-11.4,56.23.39,10.95,3,.34.09V92.46l30-18.06h55.82L332,89.93h25.41V71.45h55.84q.19-.77.45-1.5a.25.25,0,0,1,0-.07,19.57,19.57,0,0,1,18.52-13.19h9.49a19.69,19.69,0,0,1,7.91,1.66,26.46,26.46,0,0,1,37.76,0,19.77,19.77,0,0,1,7.92-1.66h9.49a19.5,19.5,0,0,1,3.27.28l.34.06V35.24L535.59,17h55.83l30,18.25V104h30.7v18.48h27.22v44L698.9,58.56l.07-.37a1,1,0,0,1,2.07.07l18.74,162.48,2.55-2.94h13.06l56.69-.2,12.53,12.53v22.5H818v190.5q38.21,27.14,78.23,50.29l13.33,7.69-.48.84-7.22,12.49a9.72,9.72,0,0,0-.81,1.85,8.9,8.9,0,0,0,3.59,10.13A33.63,33.63,0,0,1,918.85,546,33.19,33.19,0,0,1,917.8,566.61Z"/><path class="cls-4" d="M895.8,611a5.72,5.72,0,0,0,.32-.48c.19-.32.37-.65.53-1-.17.32-.35.64-.54,1C896,610.7,895.91,610.85,895.8,611Z"/></g></svg>