<svg id="Layer_1" data-name="Layer 1" xmlns="http://www.w3.org/2000/svg" viewBox="0 0 1200 630">
  <defs>
    <style>
      .cls-1 {
        fill: #ece5ce;
      }

      .cls-2 {
        fill: #f9ac66;
      }

      .cls-3 {
        fill: #3b3e59;
      }

      .cls-4 {
        fill: #ed6b5b;
      }
    </style>
  </defs>
  <g id="Layer_1-2" data-name="Layer 1">
    <path class="cls-1" d="M959,485.65A26.86,26.86,0,0,0,947.69,470a7.12,7.12,0,0,1-2.21-9.57l6.14-10.64L941,443.69q-31.9-18.44-62.41-40.12v-152H867.89v-18l-10-10-45.23.16H802.25l-2,2.35-15-129.64a.83.83,0,0,0-1.66-.05l-15.66,86.36V147.71H746.23V133H721.74V78.14L697.8,63.58H653.25L631.56,78.14V95.57a15.52,15.52,0,0,0-2.88-.27h-7.54a15.76,15.76,0,0,0-6.39,1.28,21.11,21.11,0,0,0-29.85-.27l-.27.27a15.77,15.77,0,0,0-6.32-1.32h-7.57A15.63,15.63,0,0,0,555.58,107H511.07v14.74H490.8l-18.67-12.39H427.6L403.66,123.8v60.69l-9-2.39-44.88-.36-34.65,9.09V407.64Q287.4,427,258.47,443.7l-10.65,6.12L254,460.46a7.12,7.12,0,0,1-2.21,9.57,26.9,26.9,0,0,0-11.36,15.64,26.49,26.49,0,0,0,9.3,27.84,26.69,26.69,0,0,0-1.71,29.9,27.19,27.19,0,0,0,23.27,13.22,28.12,28.12,0,0,0,3.66-.24C307,552,358.78,547,395,543.71c1.75-.16,3.49-.23,5.22-.23,15.71,0,30.67,6.38,42.37,17.17l.52.44c4.43,3.58,10.53,9.57,22.24,9.57A31,31,0,0,0,479,567.82H726.26c11.39,0,12.38-1,12.38-1a26,26,0,0,0,6.71-5.17,59.83,59.83,0,0,1,43.78-19.59c1.51,0,3,.06,4.54.18q65.73,5.29,130.85,14.15a30.19,30.19,0,0,0,3.68.25,27.23,27.23,0,0,0,23.25-13.23,26.73,26.73,0,0,0-1.7-29.92A26.52,26.52,0,0,0,959,485.65Z"/>
    <polygon class="cls-2" points="784.88 90.17 743.6 317.9 772.1 302.37 784.88 90.17"/>
    <polygon class="cls-1" points="757.74 448.31 784.88 90.17 826.19 448.31 757.74 448.31"/>
    <rect class="cls-3" x="784.28" y="146.35" width="4.93" height="10.16" rx="1.66" transform="translate(-1.39 7.42) rotate(-0.54)"/>
    <rect class="cls-3" x="784.45" y="164.78" width="4.93" height="10.16" rx="1.66" transform="translate(-1.57 7.42) rotate(-0.54)"/>
    <rect class="cls-3" x="784.63" y="183.21" width="4.93" height="10.16" rx="1.66" transform="matrix(1, -0.01, 0.01, 1, -1.74, 7.43)"/>
    <rect class="cls-3" x="780.13" y="219.77" width="4.93" height="10.17" rx="1.66" transform="translate(-2.21 7.84) rotate(-0.57)"/>
    <rect class="cls-3" x="790" y="219.77" width="4.93" height="10.17" rx="1.66" transform="translate(-2.21 7.94) rotate(-0.57)"/>
    <rect class="cls-3" x="780" y="201.51" width="4.93" height="10.16" rx="1.66" transform="translate(-1.91 7.38) rotate(-0.54)"/>
    <rect class="cls-3" x="789.87" y="201.51" width="4.93" height="10.16" rx="1.66" transform="translate(-1.91 7.48) rotate(-0.54)"/>
    <rect class="cls-3" x="785.15" y="238.51" width="4.93" height="10.16" rx="1.66" transform="translate(-2.26 7.43) rotate(-0.54)"/>
    <rect class="cls-3" x="794.55" y="238.51" width="4.93" height="10.16" rx="1.66" transform="translate(-2.26 7.52) rotate(-0.54)"/>
    <rect class="cls-3" x="776.2" y="238.21" width="4.93" height="10.17" rx="1.66" transform="translate(-2.39 7.8) rotate(-0.57)"/>
    <rect class="cls-3" x="785.47" y="256.64" width="4.93" height="10.17" rx="1.66" transform="translate(-2.58 7.89) rotate(-0.57)"/>
    <rect class="cls-3" x="785.5" y="275.39" width="4.93" height="10.16" rx="1.66" transform="translate(-2.61 7.44) rotate(-0.54)"/>
    <polygon class="cls-1" points="662.74 77.41 662.74 335.67 722.01 335.67 722.01 77.41 698.06 62.85 682.51 62.85 662.74 77.41"/>
    <polygon class="cls-2" points="631.82 77.41 631.82 335.67 662.74 335.67 662.74 77.41 682.51 62.85 653.52 62.85 631.82 77.41"/>
    <rect class="cls-3" x="638.59" y="85.09" width="5.71" height="5.71"/>
    <rect class="cls-3" x="649.12" y="85.09" width="5.71" height="5.71"/>
    <rect class="cls-3" x="638.59" y="96.11" width="5.71" height="5.71"/>
    <rect class="cls-3" x="649.12" y="96.11" width="5.71" height="5.71"/>
    <rect class="cls-3" x="638.59" y="107.12" width="5.71" height="5.71"/>
    <rect class="cls-3" x="649.12" y="107.12" width="5.71" height="5.71"/>
    <rect class="cls-3" x="638.59" y="118.13" width="5.71" height="5.71"/>
    <rect class="cls-3" x="649.12" y="118.13" width="5.71" height="5.71"/>
    <rect class="cls-3" x="638.59" y="129.15" width="5.71" height="5.71"/>
    <rect class="cls-3" x="649.12" y="129.15" width="5.71" height="5.71"/>
    <rect class="cls-3" x="638.59" y="140.16" width="5.71" height="5.71"/>
    <rect class="cls-3" x="649.12" y="140.16" width="5.71" height="5.71"/>
    <rect class="cls-3" x="638.59" y="151.17" width="5.71" height="5.71"/>
    <rect class="cls-3" x="649.12" y="151.17" width="5.71" height="5.71"/>
    <rect class="cls-3" x="638.59" y="162.19" width="5.71" height="5.71"/>
    <rect class="cls-3" x="649.12" y="162.19" width="5.71" height="5.71"/>
    <rect class="cls-3" x="672.37" y="85.09" width="8.82" height="8.82"/>
    <rect class="cls-3" x="688.59" y="85.09" width="8.82" height="8.82"/>
    <rect class="cls-3" x="705.2" y="85.09" width="8.82" height="8.82"/>
    <rect class="cls-3" x="672.37" y="104.17" width="8.82" height="8.82"/>
    <rect class="cls-3" x="688.59" y="104.17" width="8.82" height="8.82"/>
    <rect class="cls-3" x="705.2" y="104.17" width="8.82" height="8.82"/>
    <rect class="cls-3" x="672.37" y="123.25" width="8.82" height="8.82"/>
    <rect class="cls-3" x="688.59" y="123.25" width="8.82" height="8.82"/>
    <rect class="cls-3" x="705.2" y="123.25" width="8.82" height="8.82"/>
    <rect class="cls-3" x="672.37" y="142.33" width="8.82" height="8.82"/>
    <rect class="cls-3" x="688.59" y="142.33" width="8.82" height="8.82"/>
    <rect class="cls-3" x="705.2" y="142.33" width="8.82" height="8.82"/>
    <rect class="cls-3" x="672.37" y="161.42" width="8.82" height="8.82"/>
    <rect class="cls-3" x="688.59" y="161.42" width="8.82" height="8.82"/>
    <rect class="cls-3" x="705.2" y="161.42" width="8.82" height="8.82"/>
    <rect class="cls-3" x="672.37" y="180.5" width="8.82" height="8.82"/>
    <rect class="cls-3" x="688.59" y="180.5" width="8.82" height="8.82"/>
    <rect class="cls-3" x="705.2" y="180.5" width="8.82" height="8.82"/>
    <rect class="cls-3" x="672.37" y="199.58" width="8.82" height="8.82"/>
    <rect class="cls-3" x="688.59" y="199.58" width="8.82" height="8.82"/>
    <rect class="cls-3" x="705.2" y="199.58" width="8.82" height="8.82"/>
    <rect class="cls-3" x="672.37" y="218.66" width="8.82" height="8.82"/>
    <rect class="cls-3" x="688.59" y="218.66" width="8.82" height="8.82"/>
    <rect class="cls-3" x="705.2" y="218.66" width="8.82" height="8.82"/>
    <rect class="cls-3" x="705.2" y="237.74" width="8.82" height="8.82"/>
    <rect class="cls-2" x="794.01" y="232.91" width="29.19" height="17.95"/>
    <rect class="cls-2" x="779.2" y="250.86" width="52.64" height="167.89"/>
    <rect class="cls-1" x="831.84" y="250.86" width="46.99" height="167.89"/>
    <rect class="cls-1" x="823.2" y="232.91" width="44.96" height="17.95"/>
    <rect class="cls-2" x="851.61" y="239.79" width="5.48" height="11.07"/>
    <rect class="cls-3" x="837.77" y="260.56" width="7.36" height="7.36"/>
    <rect class="cls-3" x="851.32" y="260.56" width="7.36" height="7.36"/>
    <rect class="cls-3" x="865.2" y="260.56" width="7.36" height="7.36"/>
    <rect class="cls-3" x="837.77" y="276.5" width="7.36" height="7.36"/>
    <rect class="cls-3" x="851.32" y="276.5" width="7.36" height="7.36"/>
    <rect class="cls-3" x="865.2" y="276.5" width="7.36" height="7.36"/>
    <rect class="cls-3" x="837.77" y="292.45" width="7.36" height="7.36"/>
    <rect class="cls-3" x="851.32" y="292.45" width="7.36" height="7.36"/>
    <rect class="cls-3" x="865.2" y="292.45" width="7.36" height="7.36"/>
    <rect class="cls-3" x="837.77" y="308.39" width="7.36" height="7.36"/>
    <rect class="cls-3" x="851.32" y="308.39" width="7.36" height="7.36"/>
    <rect class="cls-3" x="865.2" y="308.39" width="7.36" height="7.36"/>
    <rect class="cls-3" x="837.77" y="324.34" width="7.36" height="7.36"/>
    <rect class="cls-3" x="851.32" y="324.34" width="7.36" height="7.36"/>
    <rect class="cls-3" x="865.2" y="324.34" width="7.36" height="7.36"/>
    <rect class="cls-3" x="837.77" y="340.28" width="7.36" height="7.36"/>
    <rect class="cls-3" x="851.32" y="340.28" width="7.36" height="7.36"/>
    <rect class="cls-3" x="865.2" y="340.28" width="7.36" height="7.36"/>
    <rect class="cls-3" x="837.77" y="356.23" width="7.36" height="7.36"/>
    <rect class="cls-3" x="851.32" y="356.23" width="7.36" height="7.36"/>
    <rect class="cls-3" x="865.2" y="356.23" width="7.36" height="7.36"/>
    <rect class="cls-3" x="837.77" y="372.18" width="7.36" height="7.36"/>
    <rect class="cls-3" x="851.32" y="372.18" width="7.36" height="7.36"/>
    <rect class="cls-3" x="865.2" y="372.18" width="7.36" height="7.36"/>
    <rect class="cls-3" x="851.32" y="386.1" width="7.36" height="7.36"/>
    <rect class="cls-3" x="865.2" y="386.1" width="7.36" height="7.36"/>
    <rect class="cls-3" x="789.96" y="260.56" width="6.58" height="6.58"/>
    <rect class="cls-3" x="802.08" y="260.56" width="6.58" height="6.58"/>
    <rect class="cls-3" x="814.49" y="260.56" width="6.58" height="6.58"/>
    <rect class="cls-3" x="789.96" y="274.82" width="6.58" height="6.58"/>
    <rect class="cls-3" x="802.08" y="274.82" width="6.58" height="6.58"/>
    <rect class="cls-3" x="814.49" y="274.82" width="6.58" height="6.58"/>
    <rect class="cls-3" x="789.96" y="289.08" width="6.58" height="6.58"/>
    <rect class="cls-3" x="802.08" y="289.08" width="6.58" height="6.58"/>
    <rect class="cls-3" x="814.49" y="289.08" width="6.58" height="6.58"/>
    <rect class="cls-3" x="789.96" y="303.34" width="6.58" height="6.58"/>
    <rect class="cls-3" x="802.08" y="303.34" width="6.58" height="6.58"/>
    <rect class="cls-3" x="814.49" y="303.34" width="6.58" height="6.58"/>
    <rect class="cls-3" x="789.96" y="317.59" width="6.58" height="6.58"/>
    <rect class="cls-3" x="802.08" y="317.59" width="6.58" height="6.58"/>
    <rect class="cls-3" x="814.49" y="317.59" width="6.58" height="6.58"/>
    <rect class="cls-3" x="789.96" y="331.85" width="6.58" height="6.58"/>
    <rect class="cls-3" x="802.08" y="331.85" width="6.58" height="6.58"/>
    <rect class="cls-3" x="814.49" y="331.85" width="6.58" height="6.58"/>
    <rect class="cls-3" x="789.96" y="346.11" width="6.58" height="6.58"/>
    <rect class="cls-3" x="802.08" y="346.11" width="6.58" height="6.58"/>
    <rect class="cls-3" x="814.49" y="346.11" width="6.58" height="6.58"/>
    <rect class="cls-3" x="789.96" y="360.37" width="6.58" height="6.58"/>
    <rect class="cls-3" x="802.08" y="360.37" width="6.58" height="6.58"/>
    <rect class="cls-3" x="814.49" y="360.37" width="6.58" height="6.58"/>
    <rect class="cls-3" x="802.08" y="372.81" width="6.58" height="6.58"/>
    <rect class="cls-3" x="814.49" y="372.81" width="6.58" height="6.58"/>
    <rect class="cls-2" x="698.54" y="132.26" width="23.98" height="14.74"/>
    <rect class="cls-2" x="686.37" y="147" width="43.25" height="137.93"/>
    <rect class="cls-1" x="729.62" y="147" width="38.6" height="137.93"/>
    <rect class="cls-1" x="722.52" y="132.26" width="23.98" height="14.74"/>
    <rect class="cls-2" x="736.06" y="141.34" width="2.8" height="5.66"/>
    <rect class="cls-3" x="741.42" y="155.36" width="4.93" height="10.16"/>
    <rect class="cls-3" x="753.11" y="155.36" width="4.93" height="10.16"/>
    <rect class="cls-3" x="741.42" y="173.79" width="4.93" height="10.16"/>
    <rect class="cls-3" x="753.11" y="173.79" width="4.93" height="10.16"/>
    <rect class="cls-3" x="741.42" y="192.23" width="4.93" height="10.16"/>
    <rect class="cls-3" x="753.11" y="192.23" width="4.93" height="10.16"/>
    <rect class="cls-3" x="741.42" y="210.67" width="4.93" height="10.16"/>
    <rect class="cls-3" x="753.11" y="210.67" width="4.93" height="10.16"/>
    <rect class="cls-3" x="741.42" y="229.1" width="4.93" height="10.16"/>
    <rect class="cls-3" x="753.11" y="229.1" width="4.93" height="10.16"/>
    <rect class="cls-3" x="741.42" y="247.54" width="4.93" height="10.16"/>
    <rect class="cls-3" x="753.11" y="247.54" width="4.93" height="10.16"/>
    <rect class="cls-3" x="741.42" y="265.97" width="4.93" height="10.16"/>
    <rect class="cls-3" x="753.11" y="265.97" width="4.93" height="10.16"/>
    <rect class="cls-3" x="741.42" y="284.41" width="4.93" height="10.16"/>
    <rect class="cls-3" x="753.11" y="284.41" width="4.93" height="10.16"/>
    <rect class="cls-3" x="699.68" y="155.36" width="4.93" height="10.16"/>
    <rect class="cls-3" x="711.37" y="155.36" width="4.93" height="10.16"/>
    <rect class="cls-3" x="699.68" y="173.79" width="4.93" height="10.16"/>
    <rect class="cls-3" x="711.37" y="173.79" width="4.93" height="10.16"/>
    <rect class="cls-3" x="699.68" y="192.23" width="4.93" height="10.16"/>
    <rect class="cls-3" x="711.37" y="192.23" width="4.93" height="10.16"/>
    <rect class="cls-3" x="699.68" y="210.67" width="4.93" height="10.16"/>
    <rect class="cls-3" x="711.37" y="210.67" width="4.93" height="10.16"/>
    <rect class="cls-3" x="699.68" y="229.1" width="4.93" height="10.16"/>
    <rect class="cls-3" x="711.37" y="229.1" width="4.93" height="10.16"/>
    <rect class="cls-3" x="699.68" y="247.54" width="4.93" height="10.16"/>
    <rect class="cls-3" x="711.37" y="247.54" width="4.93" height="10.16"/>
    <rect class="cls-3" x="699.68" y="265.97" width="4.93" height="10.16"/>
    <rect class="cls-3" x="711.37" y="265.97" width="4.93" height="10.16"/>
    <rect class="cls-3" x="699.68" y="284.41" width="4.93" height="10.16"/>
    <rect class="cls-3" x="711.37" y="284.41" width="4.93" height="10.16"/>
    <polygon class="cls-2" points="794.01 232.91 802.51 223.07 812.93 223.07 823.2 232.91 794.01 232.91"/>
    <polygon class="cls-1" points="868.16 232.91 858.16 222.91 812.93 223.07 823.2 232.91 868.16 232.91"/>
    <polygon class="cls-1" points="384.7 190.11 384.7 448.36 315.39 448.36 315.39 190.11 350.05 181.02 384.7 190.11"/>
    <rect class="cls-2" x="528.23" y="121.05" width="69.31" height="258.25"/>
    <rect class="cls-3" x="329.13" y="202.49" width="7.02" height="14.46"/>
    <rect class="cls-3" x="345.76" y="202.49" width="7.02" height="14.46"/>
    <rect class="cls-3" x="362.38" y="202.49" width="7.02" height="14.46"/>
    <rect class="cls-3" x="329.13" y="228.7" width="7.02" height="14.46"/>
    <rect class="cls-3" x="345.76" y="228.7" width="7.02" height="14.46"/>
    <rect class="cls-3" x="362.38" y="228.7" width="7.02" height="14.46"/>
    <rect class="cls-3" x="329.13" y="254.92" width="7.02" height="14.46"/>
    <rect class="cls-3" x="345.76" y="254.92" width="7.02" height="14.46"/>
    <rect class="cls-3" x="362.38" y="254.92" width="7.02" height="14.46"/>
    <rect class="cls-3" x="329.13" y="281.14" width="7.02" height="14.46"/>
    <rect class="cls-3" x="345.76" y="281.14" width="7.02" height="14.46"/>
    <rect class="cls-3" x="362.38" y="281.14" width="7.02" height="14.46"/>
    <rect class="cls-3" x="329.13" y="307.35" width="7.02" height="14.46"/>
    <rect class="cls-3" x="345.76" y="307.35" width="7.02" height="14.46"/>
    <rect class="cls-3" x="362.38" y="307.35" width="7.02" height="14.46"/>
    <rect class="cls-3" x="329.13" y="333.57" width="7.02" height="14.46"/>
    <rect class="cls-3" x="345.76" y="333.57" width="7.02" height="14.46"/>
    <rect class="cls-3" x="362.38" y="333.57" width="7.02" height="14.46"/>
    <rect class="cls-3" x="329.13" y="359.78" width="7.02" height="14.46"/>
    <rect class="cls-3" x="345.76" y="359.78" width="7.02" height="14.46"/>
    <rect class="cls-3" x="362.38" y="359.78" width="7.02" height="14.46"/>
    <rect class="cls-3" x="329.13" y="386" width="7.02" height="14.46"/>
    <rect class="cls-3" x="345.76" y="386" width="7.02" height="14.46"/>
    <rect class="cls-3" x="362.38" y="386" width="7.02" height="14.46"/>
    <polygon class="cls-2" points="427.41 190.11 427.41 448.36 384.7 448.36 384.7 190.11 350.05 181.02 394.91 181.33 427.41 190.11"/>
    <rect class="cls-3" x="394.1" y="202.56" width="4.99" height="10.27"/>
    <rect class="cls-3" x="405.91" y="202.56" width="4.99" height="10.27"/>
    <rect class="cls-3" x="394.1" y="221.19" width="4.99" height="10.27"/>
    <rect class="cls-3" x="405.91" y="221.19" width="4.99" height="10.27"/>
    <rect class="cls-3" x="394.1" y="239.8" width="4.99" height="10.27"/>
    <rect class="cls-3" x="405.91" y="239.8" width="4.99" height="10.27"/>
    <rect class="cls-3" x="394.1" y="258.42" width="4.99" height="10.27"/>
    <rect class="cls-3" x="405.91" y="258.42" width="4.99" height="10.27"/>
    <rect class="cls-3" x="394.1" y="277.05" width="4.99" height="10.27"/>
    <rect class="cls-3" x="405.91" y="277.05" width="4.99" height="10.27"/>
    <rect class="cls-3" x="394.1" y="295.67" width="4.99" height="10.27"/>
    <rect class="cls-3" x="405.91" y="295.67" width="4.99" height="10.27"/>
    <rect class="cls-3" x="394.1" y="314.29" width="4.99" height="10.27"/>
    <rect class="cls-3" x="405.91" y="314.29" width="4.99" height="10.27"/>
    <rect class="cls-3" x="394.1" y="332.91" width="4.99" height="10.27"/>
    <rect class="cls-3" x="405.91" y="332.91" width="4.99" height="10.27"/>
    <polygon class="cls-1" points="463.17 123.07 463.17 381.33 403.92 381.33 403.92 123.07 427.86 108.66 443.42 108.66 463.17 123.07"/>
    <rect class="cls-3" x="421.73" y="128.79" width="7.02" height="14.46"/>
    <rect class="cls-3" x="438.35" y="128.79" width="7.02" height="14.46"/>
    <rect class="cls-3" x="421.73" y="155.01" width="7.02" height="14.46"/>
    <rect class="cls-3" x="438.35" y="155.01" width="7.02" height="14.46"/>
    <rect class="cls-3" x="421.73" y="181.23" width="7.02" height="14.46"/>
    <rect class="cls-3" x="438.35" y="181.23" width="7.02" height="14.46"/>
    <rect class="cls-3" x="421.73" y="207.45" width="7.02" height="14.46"/>
    <rect class="cls-3" x="438.35" y="207.45" width="7.02" height="14.46"/>
    <rect class="cls-3" x="421.73" y="233.67" width="7.02" height="14.46"/>
    <rect class="cls-3" x="438.35" y="233.67" width="7.02" height="14.46"/>
    <rect class="cls-3" x="421.73" y="259.88" width="7.02" height="14.46"/>
    <rect class="cls-3" x="438.35" y="259.88" width="7.02" height="14.46"/>
    <rect class="cls-3" x="421.73" y="286.09" width="7.02" height="14.46"/>
    <rect class="cls-3" x="438.35" y="286.09" width="7.02" height="14.46"/>
    <rect class="cls-3" x="421.73" y="312.31" width="7.02" height="14.46"/>
    <rect class="cls-3" x="438.35" y="312.31" width="7.02" height="14.46"/>
    <polygon class="cls-2" points="494.11 123.07 494.11 381.33 463.17 381.33 463.17 123.07 443.42 108.66 472.4 108.66 494.11 123.07"/>
    <rect class="cls-3" x="470.83" y="131" width="4.99" height="10.27"/>
    <rect class="cls-3" x="482.64" y="131" width="4.99" height="10.27"/>
    <rect class="cls-3" x="470.83" y="149.63" width="4.99" height="10.27"/>
    <rect class="cls-3" x="482.64" y="149.63" width="4.99" height="10.27"/>
    <rect class="cls-3" x="470.83" y="168.25" width="4.99" height="10.27"/>
    <rect class="cls-3" x="482.64" y="168.25" width="4.99" height="10.27"/>
    <rect class="cls-3" x="470.83" y="186.86" width="4.99" height="10.27"/>
    <rect class="cls-3" x="482.64" y="186.86" width="4.99" height="10.27"/>
    <rect class="cls-3" x="470.83" y="205.49" width="4.99" height="10.27"/>
    <rect class="cls-3" x="482.64" y="205.49" width="4.99" height="10.27"/>
    <rect class="cls-3" x="470.83" y="224.11" width="4.99" height="10.27"/>
    <rect class="cls-3" x="482.64" y="224.11" width="4.99" height="10.27"/>
    <rect class="cls-3" x="470.83" y="242.73" width="4.99" height="10.27"/>
    <rect class="cls-3" x="482.64" y="242.73" width="4.99" height="10.27"/>
    <rect class="cls-3" x="470.83" y="261.35" width="4.99" height="10.27"/>
    <rect class="cls-3" x="482.64" y="261.35" width="4.99" height="10.27"/>
    <rect class="cls-3" x="539.43" y="133.53" width="3.5" height="7.22"/>
    <rect class="cls-3" x="547.74" y="133.53" width="3.5" height="7.22"/>
    <rect class="cls-3" x="539.43" y="146.63" width="3.5" height="7.22"/>
    <rect class="cls-3" x="547.74" y="146.63" width="3.5" height="7.22"/>
    <rect class="cls-3" x="539.43" y="159.73" width="3.5" height="7.22"/>
    <rect class="cls-3" x="547.74" y="159.73" width="3.5" height="7.22"/>
    <rect class="cls-3" x="539.43" y="172.82" width="3.5" height="7.22"/>
    <rect class="cls-3" x="547.74" y="172.82" width="3.5" height="7.22"/>
    <rect class="cls-3" x="539.43" y="185.91" width="3.5" height="7.22"/>
    <rect class="cls-3" x="547.74" y="185.91" width="3.5" height="7.22"/>
    <rect class="cls-3" x="539.43" y="199.01" width="3.5" height="7.22"/>
    <rect class="cls-3" x="547.74" y="199.01" width="3.5" height="7.22"/>
    <rect class="cls-3" x="539.43" y="212.1" width="3.5" height="7.22"/>
    <rect class="cls-3" x="547.74" y="212.1" width="3.5" height="7.22"/>
    <rect class="cls-3" x="539.43" y="225.19" width="3.5" height="7.22"/>
    <rect class="cls-3" x="547.74" y="225.19" width="3.5" height="7.22"/>
    <rect class="cls-3" x="555.9" y="133.53" width="3.5" height="7.22"/>
    <rect class="cls-3" x="564.21" y="133.53" width="3.5" height="7.22"/>
    <rect class="cls-3" x="555.9" y="146.63" width="3.5" height="7.22"/>
    <rect class="cls-3" x="564.21" y="146.63" width="3.5" height="7.22"/>
    <rect class="cls-3" x="555.9" y="159.73" width="3.5" height="7.22"/>
    <rect class="cls-3" x="564.21" y="159.73" width="3.5" height="7.22"/>
    <rect class="cls-3" x="555.9" y="172.82" width="3.5" height="7.22"/>
    <rect class="cls-3" x="564.21" y="172.82" width="3.5" height="7.22"/>
    <rect class="cls-3" x="555.9" y="185.91" width="3.5" height="7.22"/>
    <rect class="cls-3" x="564.21" y="185.91" width="3.5" height="7.22"/>
    <rect class="cls-3" x="555.9" y="199.01" width="3.5" height="7.22"/>
    <rect class="cls-3" x="564.21" y="199.01" width="3.5" height="7.22"/>
    <rect class="cls-3" x="555.9" y="212.1" width="3.5" height="7.22"/>
    <rect class="cls-3" x="564.21" y="212.1" width="3.5" height="7.22"/>
    <rect class="cls-3" x="555.9" y="225.19" width="3.5" height="7.22"/>
    <rect class="cls-3" x="564.21" y="225.19" width="3.5" height="7.22"/>
    <rect class="cls-1" x="489.62" y="121.05" width="38.6" height="258.25"/>
    <rect class="cls-3" x="495.31" y="132.98" width="5.61" height="5.61"/>
    <rect class="cls-3" x="505.62" y="132.98" width="5.61" height="5.61"/>
    <rect class="cls-3" x="516.19" y="132.98" width="5.61" height="5.61"/>
    <rect class="cls-3" x="495.31" y="145.12" width="5.61" height="5.61"/>
    <rect class="cls-3" x="505.62" y="145.12" width="5.61" height="5.61"/>
    <rect class="cls-3" x="516.19" y="145.12" width="5.61" height="5.61"/>
    <rect class="cls-3" x="495.31" y="157.25" width="5.61" height="5.61"/>
    <rect class="cls-3" x="505.62" y="157.25" width="5.61" height="5.61"/>
    <rect class="cls-3" x="516.19" y="157.25" width="5.61" height="5.61"/>
    <rect class="cls-3" x="495.31" y="169.39" width="5.61" height="5.61"/>
    <rect class="cls-3" x="505.62" y="169.39" width="5.61" height="5.61"/>
    <rect class="cls-3" x="516.19" y="169.39" width="5.61" height="5.61"/>
    <rect class="cls-3" x="495.31" y="181.53" width="5.61" height="5.61"/>
    <rect class="cls-3" x="505.62" y="181.53" width="5.61" height="5.61"/>
    <rect class="cls-3" x="516.19" y="181.53" width="5.61" height="5.61"/>
    <rect class="cls-3" x="495.31" y="193.65" width="5.61" height="5.61"/>
    <rect class="cls-3" x="505.62" y="193.65" width="5.61" height="5.61"/>
    <rect class="cls-3" x="516.19" y="193.65" width="5.61" height="5.61"/>
    <rect class="cls-3" x="495.31" y="205.79" width="5.61" height="5.61"/>
    <rect class="cls-3" x="505.62" y="205.79" width="5.61" height="5.61"/>
    <rect class="cls-3" x="516.19" y="205.79" width="5.61" height="5.61"/>
    <rect class="cls-3" x="495.31" y="217.92" width="5.61" height="5.61"/>
    <rect class="cls-3" x="505.62" y="217.92" width="5.61" height="5.61"/>
    <rect class="cls-3" x="516.19" y="217.92" width="5.61" height="5.61"/>
    <rect class="cls-1" x="511.34" y="106.3" width="23.98" height="14.74"/>
    <rect class="cls-2" x="518.99" y="115.4" width="2.8" height="5.66"/>
    <rect class="cls-2" x="535.32" y="106.3" width="23.98" height="14.74"/>
    <path class="cls-2" d="M939.65,519.43l.56.75a14.42,14.42,0,0,1,.95,16.24,14.77,14.77,0,0,1-14.72,7.07,2420.15,2420.15,0,0,0-652.89,0,14.74,14.74,0,0,1-14.72-7.07,14.44,14.44,0,0,1,.94-16.24l.55-.72a11.27,11.27,0,0,0-2.1-15.8,1.56,1.56,0,0,0-.2-.16h0a14.38,14.38,0,0,1-5.45-15.38,15,15,0,0,1,12.56-10.86l.46-.06A15.26,15.26,0,0,0,278.75,462L272,466l-7.18-12.41c118.26-68.3,222.92-170.1,302.83-294.47v-49a3.36,3.36,0,0,1,3.37-3.36h7.58a3.36,3.36,0,0,1,3.37,3.36h0v1.72h9.28a8.27,8.27,0,0,1-.12-1.22,8.86,8.86,0,0,1,17.72-.53,4.68,4.68,0,0,1,0,.53c0,.41-.06.82-.12,1.22H618v-1.72a3.36,3.36,0,0,1,3.37-3.36H629a3.37,3.37,0,0,1,3.32,3.36v49c79.88,124.37,184.54,226.17,302.78,294.46L927.91,466c-2.77-1.6-5.54-3.25-8.29-4.88a16.08,16.08,0,0,0,14,15.95l1.29.18a15,15,0,0,1,12.6,10.85A14.35,14.35,0,0,1,942,503.46l-.09.07a11.23,11.23,0,0,0-2.42,15.7Z"/>
    <rect class="cls-3" x="592.19" y="140.2" width="15.61" height="10.81" rx="2.31"/>
    <rect class="cls-3" x="592.19" y="161.27" width="15.61" height="10.81" rx="2.31"/>
    <rect class="cls-3" x="592.19" y="182.34" width="15.61" height="10.81" rx="2.31"/>
    <rect class="cls-3" x="592.19" y="203.4" width="15.61" height="10.81" rx="2.31"/>
    <rect class="cls-3" x="592.19" y="225.78" width="15.61" height="10.81" rx="2.31"/>
    <rect class="cls-3" x="592.19" y="246.85" width="15.61" height="10.81" rx="2.31"/>
    <rect class="cls-3" x="592.19" y="267.92" width="15.61" height="10.81" rx="2.31"/>
    <rect class="cls-3" x="592.19" y="288.99" width="15.61" height="10.81" rx="2.31"/>
    <path class="cls-3" d="M941.92,503.52l.09-.07a14.35,14.35,0,0,0,5.45-15.33,15,15,0,0,0-12.56-10.86l-1.27-.17a16.1,16.1,0,0,1-14-16c2.76,1.64,5.52,3.29,8.29,4.88l7.18-12.4C816.88,385.32,712.22,283.52,632.31,159.15v-49a3.36,3.36,0,0,0-3.37-3.36h-7.58a3.36,3.36,0,0,0-3.38,3.35h0v1.72h-9.25a8.27,8.27,0,0,0,.12-1.22,8.86,8.86,0,0,0-17.71,0,8.27,8.27,0,0,0,.12,1.22H582v-1.72a3.36,3.36,0,0,0-3.37-3.36H571a3.37,3.37,0,0,0-3.35,3.36v49C487.76,283.52,383.11,385.32,264.86,453.61l7.19,12.4c2.25-1.29,4.47-2.62,6.71-3.95a15.26,15.26,0,0,1-13.21,15.16l-.45.07a15,15,0,0,0-12.58,10.83A14.37,14.37,0,0,0,258,503.46h0a11.28,11.28,0,0,1,2.43,15.78l-.13.17-.55.72a14.42,14.42,0,0,0-.94,16.24,14.72,14.72,0,0,0,14.72,7.07,2421,2421,0,0,1,652.89,0,14.79,14.79,0,0,0,14.73-7.07,14.44,14.44,0,0,0-1-16.24l-.57-.74a11.25,11.25,0,0,1,2.13-15.76Zm-53.45-61.88c5.58,3.67,11.21,7.29,16.86,10.81v21q-8.42-1-16.86-2Zm-32.56-22.51Q865,425.7,874.15,432v37.74q-9.12-1-18.24-1.95Zm23.87,65.67q-4.9,3.81-9.79,7.63l-7.89-9.58q8.85.94,17.68,1.95Zm-56.43-90.55q9,7.26,18.24,14.25v57.89q-9.12-.9-18.24-1.72Zm2.39,85q-4.79,3.9-9.57,7.84-4-4.71-8.1-9.41,8.79.76,17.65,1.57Zm-35-112.4q9,8,18.23,15.71v80.83q-9.12-.81-18.23-1.47ZM758.22,336.6q9,8.77,18.24,17.3v107q-9.12-.64-18.24-1.23Zm-32.56-33.46q9,9.71,18.23,19.14V458.8q-9.1-.56-18.23-1Zm-33.22-37.78q9.31,11.16,18.9,22V457.11q-9.45-.42-18.9-.8ZM660,224.27q8.9,11.91,18.09,23.48v208.1q-9-.28-18.09-.51Zm-17.55-24.34,3.25,4.63V455q-6.68-.12-13.38-.2V203.12a5.58,5.58,0,0,1,10.1-3.19ZM600,126.21h0a18,18,0,0,1,18,18h0V453.53H582V144.24a18,18,0,0,1,18-18ZM608.87,469q-4.46,4.32-8.88,8.66-4.38-4.38-8.88-8.66Q600,468.91,608.87,469ZM552.69,206.79q2.84-4,5.59-8a5.13,5.13,0,0,1,9.4,2.93V454.83c-5,.07-10,.14-15,.24Zm-32.4,42.93q9.18-11.5,18.07-23.35v229q-9,.22-18.07.52Zm-33.2,39.41q9.59-10.77,18.91-21.87V456.4q-9.47.36-18.91.8Zm-32.56,34.74q9.24-9.36,18.24-19v153q-9.12.47-18.24,1ZM422,355.35q9.18-8.44,18.2-17.23V459.76q-9.12.58-18.23,1.24Zm-32.56,28.5q9.19-7.68,18.23-15.64v93.85q-9.12.7-18.23,1.48ZM392,477.68q-4.06,4.71-8.09,9.41-4.8-3.94-9.58-7.84,8.79-.81,17.64-1.57Zm-35.18-68q9.19-6.94,18.23-14.17v69.29q-9.12.79-18.23,1.73Zm-32.56,23.38q9.18-6.27,18.23-12.82V468q-9.12.94-18.23,2Zm13.63,49.78q-4,4.8-7.89,9.58l-9.79-7.63Q329.06,483.79,337.89,482.85Zm-44.82-29.44q8.49-5.25,16.9-10.77v28.91q-8.45,1-16.87,2.05Zm-26.33,38.3c.06-.2.11-.21.26-.23q8.44-1.14,16.89-2.23Q280,494.11,276.2,499q-4.65-3.5-9.35-7c-.11-.13-.16-.16-.1-.37Zm4.87,37.63c-.15,0-.21,0-.31-.15a.25.25,0,0,1,0-.35q3.75-4.89,7.55-9.76,5.23,3.95,10.43,7.91-8.83,1.11-17.67,2.31Zm34.66-7.45q-9.19-7.14-18.51-14.19,7.23-9.18,14.57-18.35,9.32,7.13,18.52,14.3-7.34,9.06-14.57,18.2Zm17.71.9q4.09-5.1,8.22-10.19,5.16,4.06,10.26,8.15-9.24.94-18.47,2ZM359.53,516q-9-7.32-18.18-14.58,7.41-9,14.95-18,9.15,7.32,18.19,14.7Q367,507,359.54,516Zm17.67,1.3q4.2-5,8.45-10,5,4.18,10.06,8.38-9.24.74-18.51,1.59Zm35.69-6q-8.88-7.51-17.85-15,7.6-8.83,15.34-17.64,9,7.51,17.86,15.09Q420.5,502.48,412.89,511.26Zm33.25-37.56q-4.17,4.59-8.3,9.22-4.69-4-9.43-8.05,8.85-.62,17.72-1.16Zm-15.62,39.24q4.31-4.92,8.65-9.81,5,4.28,9.88,8.59-9.27.6-18.54,1.24Zm35.78-5.2q-8.73-7.71-17.5-15.36,7.8-8.67,15.71-17.3,8.79,7.69,17.52,15.47-7.93,8.59-15.74,17.21Zm34.06-36.83q-4.26,4.51-8.49,9-4.62-4.14-9.26-8.26,8.85-.39,17.74-.76ZM483.9,509.82l8.87-9.62q4.86,4.4,9.69,8.78Q493.16,509.39,483.9,509.82Zm35.91-4.41q-8.53-7.92-17.17-15.76,8-8.5,16.08-17,8.64,7.92,17.17,15.87-8.14,8.4-16.13,16.85Zm34.84-36.07q-4.35,4.41-8.69,8.85-4.51-4.24-9.06-8.46,8.82-.23,17.7-.39Zm-17.37,38.52q4.53-4.73,9.08-9.42,4.78,4.5,9.49,9Q546.55,507.62,537.28,507.86Zm36-3.63q-8.37-8.09-16.83-16.11,8.18-8.33,16.45-16.6,8.46,8.09,16.82,16.23Q581.42,496,573.26,504.23Zm17.47,2.84q4.62-4.62,9.28-9.22l9.29,9.22q-9.31,0-18.59,0Zm36-2.84q-8.18-8.28-16.46-16.49,8.36-8.14,16.82-16.24,8.31,8.28,16.48,16.62Q635.09,496.1,626.72,504.23Zm17.4,3.19q4.73-4.51,9.48-9,4.56,4.69,9.08,9.42-9.24-.21-18.53-.38Zm9.93-29.26q-4.34-4.44-8.69-8.85,8.88.15,17.76.39l-9,8.49Zm26.16,27.22q-8-8.46-16.09-16.85,8.53-8,17.17-15.87,8.1,8.46,16.08,17-8.61,7.89-17.14,15.79Zm17.32,3.6q4.79-4.41,9.69-8.78,4.44,4.79,8.87,9.62-9.26-.44-18.54-.81Zm10.57-29q-4.22-4.53-8.49-9,8.88.36,17.75.79ZM718,490.55q8.7-7.77,17.55-15.47,7.9,8.63,15.72,17.3-8.78,7.67-17.51,15.38-7.83-8.64-15.74-17.21Zm33,21.19q4.91-4.31,9.87-8.6,4.35,4.91,8.66,9.82-9.24-.65-18.51-1.22Zm11.17-28.81q-4.14-4.62-8.3-9.22,8.87.56,17.73,1.17l-9.37,8.05Zm9.57,10.81q8.88-7.58,17.86-15.1,7.72,8.78,15.34,17.65-8.9,7.47-17.77,15-7.61-8.77-15.33-17.55Zm32.51,21.9,10.06-8.38q4.26,5,8.45,10-9.15-.85-18.41-1.63Zm21.22-17.55q9-7.38,18.19-14.71,7.54,9,14.95,18-9.13,7.26-18.18,14.59Q833,507,825.48,498.1Zm32,22.61q5.12-4.1,10.26-8.16,4.13,5.1,8.22,10.19-9.12-1-18.38-2ZM879,503.63q9.19-7.19,18.52-14.3,7.35,9.14,14.57,18.35-9.32,7.06-18.51,14.19-7.14-9.15-14.49-18.22Zm49.55,25.53c-.1.18-.16.18-.31.15q-8.73-1.21-17.59-2.36,5.19-4,10.43-7.91,3.79,4.88,7.55,9.76c.09.12.13.16,0,.35ZM933.1,492q-4.7,3.47-9.35,7-3.82-4.89-7.68-9.75,8.43,1.08,16.88,2.23c.15,0,.21,0,.26.23S933.24,491.91,933.1,492Z"/>
    <path class="cls-1" d="M793.21,276.6c0-10.79-3-19.51-8.9-26-4.3-4.7-12.26-10.28-25.74-10.28a36.78,36.78,0,0,0-18.08,4.28h0a3.23,3.23,0,0,0-3.23-3.19H646.67a3.31,3.31,0,0,0-3.31,3.3h0a36.71,36.71,0,0,0-18.2-4.36c-13.5,0-21.46,5.58-25.76,10.28l-.37.41c-4.33-4.48-12.17-9.63-25.42-9.63H516.38a3.87,3.87,0,0,0-3.87,3.86h0c-5.06-2.54-11.17-3.87-18.35-3.87H463.39a4.14,4.14,0,0,0-4.14,4.11h0c-5.14-2.71-11.48-4.14-18.88-4.14H410a4.5,4.5,0,0,0-4.5,4.49V384a3.8,3.8,0,0,0,3.8,3.8h6a3.19,3.19,0,0,1,3.19,3.19v19.55a3.19,3.19,0,0,1-3.19,3.19h-5.3a4.48,4.48,0,0,0-4.47,4.48v28.47h-.29V477a3.58,3.58,0,0,0,3.58,3.58h5.74v43.53a5,5,0,0,0,5,5H627.35a31.93,31.93,0,0,0,12.77,0H667a34.78,34.78,0,0,0,5.94-.51v.51h113.5a6.78,6.78,0,0,0,6.79-6.78h0V356a5.27,5.27,0,0,0-5.27-5.28h-3.55c5.84-6.42,8.78-15.16,8.78-25.86Z"/>
    <path class="cls-3" d="M462,275.67V279c0,9.54-2.92,15.63-9.41,18.68,7.81,3,10.86,10.07,10.86,19.87v7.56c0,14.3-7.55,22-22.12,22H418.38V254.35h22C455.47,254.35,462,261.36,462,275.67Zm-29-8.08v24.5h5.7c5.43,0,8.77-2.39,8.77-9.79v-5.17c0-6.63-2.25-9.54-7.42-9.54Zm0,37.76v28.47h8.35c4.9,0,7.55-2.25,7.55-9.13v-8.11c0-8.61-2.78-11.26-9.4-11.26Z"/>
    <path class="cls-3" d="M502.64,347.07c-.8-2.39-1.33-3.84-1.33-11.39V321.11c0-8.62-2.92-11.79-9.57-11.79h-5v37.75H472.17V254.35h22c15.1,0,21.59,7,21.59,21.33V283c0,9.53-3,15.76-9.58,18.8,7.29,3.05,9.67,10.07,9.67,19.74v14.3c0,4.51.14,7.82,1.6,11.26Zm-15.9-79.48v28.48h5.69c5.44,0,8.78-2.39,8.78-9.8v-9.14c0-6.63-2.25-9.54-7.42-9.54Z"/>
    <path class="cls-3" d="M525.39,254.35H540v92.72h-14.6Z"/>
    <path class="cls-3" d="M550.59,254.35h23c14.57,0,21.72,8.08,21.72,22.92v46.89c0,14.84-7.18,22.92-21.72,22.92h-23Zm14.57,13.25v66.22h8.22c4.63,0,7.41-2.39,7.41-9V276.6c0-6.62-2.78-9-7.41-9Z"/>
    <path class="cls-3" d="M626.49,295.4h20.4v29.41c0,14.84-7.42,23.33-21.73,23.33s-21.72-8.49-21.72-23.33V276.6c0-14.84,7.42-23.31,21.72-23.31s21.73,8.47,21.73,23.31v9H633.1v-9.94c0-6.63-2.91-9.14-7.54-9.14S618,269,618,275.67v50.08c0,6.62,2.91,9,7.55,9s7.54-2.4,7.54-9V308.66h-6.62Z"/>
    <path class="cls-3" d="M656.3,254.35h14.57v92.72H656.3Z"/>
    <path class="cls-3" d="M694.45,279.88V347H681.33V254.35h18.28l15,55.5v-55.5h13v92.72h-15Z"/>
    <path class="cls-3" d="M759.88,295.4h20.41v29.41c0,14.84-7.42,23.33-21.73,23.33s-21.73-8.49-21.73-23.33V276.6c0-14.84,7.42-23.31,21.72-23.31s21.73,8.47,21.73,23.31v9H766.51v-9.94c0-6.63-2.92-9.14-7.55-9.14s-7.55,2.51-7.55,9.14v50.08c0,6.62,2.91,9,7.55,9s7.55-2.4,7.55-9V308.66h-6.63Z"/>
    <path class="cls-3" d="M418.38,363.59h38.3v11.23h-13v39.39H431.32V374.82H418.38Z"/>
    <path class="cls-3" d="M474.42,414.22H462.05V363.59h12.37v20.67h14.07V363.59H501.1v50.63H488.49V395.51H474.42Z"/>
    <path class="cls-3" d="M522.47,383.7h17V395h-17v8h21.38v11.26H510.1v-50.6h33.75v11.23H522.47Z"/>
    <path class="cls-4" d="M576.55,416.26,560.91,363.6h12.94l9.45,35.9,9.46-35.9h11.81l-15.64,52.66v26.1H576.55Z"/>
    <path class="cls-4" d="M608.42,382.5c0-12.61,6.64-19.81,18.8-19.81S646,369.87,646,382.5v41c0,12.6-6.63,19.81-18.78,19.81s-18.8-7.18-18.8-19.81Zm12.38,41.74c0,5.64,2.47,7.77,6.38,7.77s6.39-2.13,6.39-7.77V381.71c0-5.63-2.49-7.76-6.39-7.76s-6.38,2.13-6.38,7.76Z"/>
    <path class="cls-4" d="M666.61,363.59v60.77c0,5.63,2.48,7.65,6.39,7.65s6.38-2,6.38-7.65V363.59h11.7v60c0,12.6-6.3,19.81-18.45,19.81s-18.46-7.18-18.46-19.81v-60Z"/>
    <path class="cls-4" d="M696.78,363.59h38.3v11.23h-13v67.53H709.7V374.82H696.78Z"/>
    <path class="cls-4" d="M753.62,442.36H741.24V363.59h12.38v33.76h14.07V363.59h12.6v78.77h-12.6V408.61H753.62Z"/>
    <path class="cls-3" d="M445.16,457h27.5v8.09h-9.3v48.56h-8.9V465.09h-9.3Z"/>
    <path class="cls-3" d="M485.43,480.86h12.22v8.06H485.43V505.5h15.38v8.15H476.54V457h24.27v8.09H485.43Z"/>
    <path class="cls-3" d="M532.11,492.51V500c0,9.06-4.53,14.24-13.27,14.24s-13.26-5.18-13.26-14.24V470.57c0-9.06,4.52-14.24,13.26-14.24s13.27,5.18,13.27,14.24v5.5H523.7V470c0-4-1.78-5.58-4.61-5.58s-4.61,1.54-4.61,5.58v30.58c0,4,1.78,5.5,4.61,5.5s4.61-1.46,4.61-5.5v-8.07Z"/>
    <path class="cls-3" d="M546.42,513.65h-8.89V457h8.89v24.27h10.09V457h9.06v56.65h-9.06v-24.3H546.42Z"/>
    <path class="cls-3" d="M590.11,456.83h14c8.87,0,13.22,4.91,13.22,13.95v28.51c0,9-4.35,13.94-13.22,13.94h-14Zm8.87,8.06v40.29h5c2.82,0,4.51-1.45,4.51-5.47V470.37c0-4-1.69-5.48-4.51-5.48Z"/>
    <path class="cls-3" d="M625.32,456.83h8.87v56.41h-8.87Z"/>
    <path class="cls-3" d="M656.24,502.84h.17l6.69-46h8.13l-8.7,56.41H649.34l-8.7-56.41h8.94Z"/>
    <path class="cls-3" d="M677.7,456.83h8.86v56.41H677.7Z"/>
    <path class="cls-3" d="M695.34,456.83h14c8.86,0,13.21,4.91,13.21,13.95v28.51c0,9-4.35,13.94-13.21,13.94h-14Zm8.86,8.06v40.29h5c2.81,0,4.5-1.45,4.5-5.47V470.37c0-4-1.69-5.48-4.5-5.48Z"/>
    <path class="cls-3" d="M739.43,480.6h12.16v8.06H739.43v16.52h15.31v8.06H730.56V456.83h24.18v8.06H739.43Z"/>
    <rect class="cls-3" x="418.38" y="426.57" width="125.47" height="15.79"/>
    <path class="cls-4" d="M502.09,549.7l3-19.55h6v27.54H507V537.94l-3,19.75h-4.12l-3.19-19.47v19.47h-3.78V530.15h6Z"/>
    <path class="cls-4" d="M516.17,530.15h4.32v27.54h-4.32Z"/>
    <path class="cls-4" d="M531.43,529.84c4.21,0,6.38,2.51,6.38,6.92v.87h-4.08v-1.14c0-2-.8-2.72-2.16-2.72s-2.17.75-2.17,2.72c0,5.66,8.45,6.72,8.45,14.59,0,4.4-2.2,6.92-6.44,6.92s-6.46-2.52-6.46-6.92v-1.69h4.1v2c0,2,.87,2.67,2.24,2.67s2.24-.7,2.24-2.67c0-5.66-8.46-6.72-8.46-14.59C525.06,532.35,527.22,529.84,531.43,529.84Z"/>
    <path class="cls-4" d="M548.11,529.84c4.21,0,6.38,2.51,6.38,6.92v.87H550.4v-1.14c0-2-.8-2.72-2.17-2.72s-2.16.75-2.16,2.72c0,5.66,8.46,6.72,8.46,14.59,0,4.4-2.2,6.92-6.46,6.92s-6.44-2.52-6.44-6.92v-1.69h4.08v2c0,2,.87,2.67,2.25,2.67s2.24-.7,2.24-2.67c0-5.66-8.46-6.72-8.46-14.59C541.73,532.35,543.9,529.84,548.11,529.84Z"/>
    <path class="cls-4" d="M559,530.15h4.32v27.54H559Z"/>
    <path class="cls-4" d="M568.05,536.79c0-4.4,2.32-6.92,6.57-6.92s6.57,2.52,6.57,6.92v14.32c0,4.41-2.33,6.92-6.57,6.92s-6.57-2.51-6.57-6.92Zm4.33,14.59c0,2,.86,2.72,2.24,2.72s2.24-.75,2.24-2.72V536.49c0-2-.87-2.72-2.24-2.72s-2.24.75-2.24,2.72Z"/>
    <path class="cls-4" d="M589.8,537.74v20h-3.89V530.15h5.43l4.44,16.49V530.15h3.85v27.54h-4.44Z"/>
    <path class="cls-4" d="M617.65,536.49v1c0,2.83-.86,4.64-2.79,5.54,2.32.91,3.19,3,3.19,5.91v2.23c0,4.25-2.24,6.54-6.57,6.54h-6.8V530.15h6.52C615.72,530.15,617.65,532.23,617.65,536.49Zm-8.62-2.4v7.28h1.73c1.6,0,2.6-.71,2.6-2.91v-1.53c0-2-.67-2.84-2.2-2.84Zm0,11.17v8.46h2.48c1.46,0,2.25-.67,2.25-2.71v-2.4c0-2.55-.8-3.34-2.8-3.34Z"/>
    <path class="cls-4" d="M622.64,530.15H627v27.54h-4.33Z"/>
    <path class="cls-4" d="M630.83,530.15H644.2v3.94h-4.52v23.6h-4.33v-23.6h-4.52Z"/>
    <path class="cls-4" d="M649.86,553.55v4.17h-4.17v-4.17Z"/>
    <path class="cls-4" d="M654.23,536.79c0-4.4,2.32-6.92,6.57-6.92s6.56,2.52,6.56,6.92v14.32c0,4.41-2.32,6.92-6.56,6.92s-6.57-2.51-6.57-6.92Zm4.33,14.59c0,2,.86,2.72,2.24,2.72s2.24-.75,2.24-2.72V536.49c0-2-.86-2.72-2.24-2.72s-2.24.75-2.24,2.72Z"/>
    <path class="cls-4" d="M681.17,557.69a8.64,8.64,0,0,1-.39-3.39V550c0-2.56-.87-3.5-2.84-3.5h-1.49v11.21h-4.32V530.15h6.52c4.49,0,6.39,2.08,6.39,6.34v2.16c0,2.83-.91,4.68-2.84,5.58,2.17.91,2.88,3,2.88,5.86v4.25a8.12,8.12,0,0,0,.47,3.35Zm-4.72-23.6v8.45h1.69c1.6,0,2.6-.71,2.6-2.91v-2.71c0-2-.67-2.83-2.21-2.83Z"/>
    <path class="cls-4" d="M696.4,542.38h6.05v8.73c0,4.41-2.2,6.92-6.45,6.92s-6.45-2.51-6.45-6.92V536.79c0-4.4,2.2-6.92,6.45-6.92s6.45,2.52,6.45,6.92v2.68h-4.09v-3c0-2-.86-2.71-2.24-2.71s-2.24.74-2.24,2.71v14.86c0,2,.87,2.68,2.24,2.68s2.24-.71,2.24-2.68v-5.07h-2Z"/>
    <path class="cls-4" d="M972.4,481.39a40.22,40.22,0,0,0-12.12-19.69l3.35-5.81,6.76-11.44-11.76-7.08L948,431.23c-18.75-10.82-37.44-22.72-55.64-35.41V237.3H881.72v-10l-4-4-10-10-4-4h-5.64l-45.2.16h-.62L799,94.22a14.36,14.36,0,0,0-28.46-.91l-7.27,40.14h-3.19V118.71h-24.5V69.79l-6.51-4L705.13,51.24l-3.27-1.94H649.4L646,51.59,624.27,66.15l-6,4v11h0a34.77,34.77,0,0,0-36.45,0,28.41,28.41,0,0,0-3.19-.17H571a29.15,29.15,0,0,0-23.44,11.78H497.79v14.74h-2.63L479.91,97.36l-3.4-2.26H424.1L420.91,97l-24,14.42-6.57,4v52.34l-40.22-.28h-1.8l-1.74.45L312,177.05l-10.11,2.66V399.8C285.45,411,268.69,421.57,252,431.23l-10.61,6.15-11.77,6.77,6.78,11.74,3.4,5.82a40.22,40.22,0,0,0-6.27,53.18,40.16,40.16,0,0,0,3.12,34.72,40.82,40.82,0,0,0,34.92,19.89,40.4,40.4,0,0,0,5.49-.37c18.35-2.5,43.32-5.21,67.11-7.61l2.2-.22c11.49-1.15,22.64-2.22,32.57-3.15l.43,0q10.37-.92,20.68-1.76h.43c1.14-.09,2.3-.14,3.45-.14,12.52,0,24.84,4.32,33.83,14a39.6,39.6,0,0,0,9.26,7.33c3.64,2.39,8.77,3.13,19.77,3.13H726.53c11,0,16.13-.71,19.77-3.13a39.6,39.6,0,0,0,9.26-7.33A46.53,46.53,0,0,1,789.4,555c1.15,0,2.32,0,3.46.14,43.51,3.51,87.29,8.25,130.1,14.07A40.5,40.5,0,0,0,966.51,515,40.13,40.13,0,0,0,972.4,481.39Zm-13.93,20a.58.58,0,0,1-.05.14,26.68,26.68,0,0,1-8.4,11.28,3.71,3.71,0,0,1,.23.32,26.64,26.64,0,0,1,3.51,25.35.78.78,0,0,1-.09.24,27,27,0,0,1-28.88,16.94q-65-8.83-130.85-14.14c-1.52-.12-3-.19-4.54-.19a59.91,59.91,0,0,0-43.78,19.6,26.13,26.13,0,0,1-6.71,5.16s-1,1-12.38,1H466.75c-11.39,0-14.95-.14-19.62-4.79-11.9-11.87-27.17-19.58-43.81-19.59-1,0-2.23,0-3.6.09s-3,.09-4.49.23l-.88.08c-13.46.91-34.9,3.19-49.38,4.7l-.87.09c-25,2.51-50.26,5.26-68.94,7.8a28.15,28.15,0,0,1-3.66.26,27.23,27.23,0,0,1-23.27-13.23,26.69,26.69,0,0,1,1.28-29.31c.13-.2.28-.4.43-.59a26.52,26.52,0,0,1-9.27-27.86c.19-.69.39-1.37.64-2A26.94,26.94,0,0,1,252,469.32a6.86,6.86,0,0,0,2.61-3.1,7.22,7.22,0,0,0-.4-6.46l-5.9-10.2-.25-.43L258.73,443q28.77-16.61,56.39-35.9l.27-.19V190.12L350,181l44.87.31,8.74,2.4.27.07V123.07l23.93-14.41h44.54l18.69,12.39h20.28V106.3h44.55a11,11,0,0,1,.36-1.19v-.06a15.61,15.61,0,0,1,14.78-10.52h7.57a15.76,15.76,0,0,1,6.31,1.32,21.1,21.1,0,0,1,29.85-.27l.28.27a15.76,15.76,0,0,1,6.31-1.32H629a15.33,15.33,0,0,1,2.61.22l.27,0V77.41l21.69-14.55h44.55L722,77.42v54.85h24.5V147h21.71v35.1L783.82,96l.06-.3a.83.83,0,0,1,1.65.06l15,129.64,2-2.35h10.42l45.23-.16,10,10v18h10.69v152q30.48,21.66,62.41,40.13l10.64,6.13-.38.67-5.77,10a8,8,0,0,0-.64,1.47,7.11,7.11,0,0,0,2.86,8.09,26.82,26.82,0,0,1,11.34,15.62A26.43,26.43,0,0,1,958.47,501.37Z"/>
    <path class="cls-4" d="M940.92,536.79a3.11,3.11,0,0,0,.25-.38,7.67,7.67,0,0,0,.43-.8c-.14.25-.28.51-.43.8S941,536.67,940.92,536.79Z"/>
  </g>
</svg>
