<svg xmlns="http://www.w3.org/2000/svg" width="216" height="424.013" viewBox="0 0 216 424.013">
  <g id="Artboard_1" data-name="Artboard 1" transform="translate(-187.76 -33.452)">
    <g id="Layer_4" data-name="Layer 4" transform="translate(247.011 283.866)">
      <path id="Path_1365" data-name="Path 1365" d="M345.915,739.664s-2.379-21.85-2.81-29.161c-.29-4.81.492-14.557-.468-19.283-2.037-10.033-13.644-27.948-15.049-38.093-.937-6.9,3.475-20.805,2.81-27.747-.422-4.515-3.794-13.072-5.152-17.4-2.22-6.979-8.07-20.543-9.4-27.746-.539-2.89-2.965-10.2-.468-11.756,3.166-1.981,10.655,4.29,13.171,7.054,2.66,2.923,4.941,10.805,6.112,14.581,1.03,3.325.342,11.194,2.81,13.639,2.215,2.183,9.7,4.159,12.225,2.342,3.475-2.492,3.152-12.735,2.342-16.932-.581-3.054-8-8.346-6.112-10.819,1.761-2.314,9.147.857,11.288,2.81,3.747,3.447,4.866,14.487,6.581,19.283,1.016,2.81,1.55,9.92,4.215,11.283,1.958,1,6.651-1.11,8.464-2.342,1.944-1.326,4.459-5.494,5.62-7.522a67.347,67.347,0,0,0,5.176-11.756c.96-3.428-.618-11.574,1.874-14.112,2.253-2.286,10.59-4.3,12.7-1.874,1.934,2.215-2.923,8.37-3.279,11.288-.426,3.382,1.026,10.271.468,13.634-.595,3.6-3.892,10.225-5.152,13.639-1.19,3.171-3.8,9.438-4.707,12.7a223.2,223.2,0,0,0-5.152,27.746c-.59,5.733-.646,17.288-.468,23.044.131,4.365,1.007,13.058,1.405,17.4,1.044,11.3,4.684,45.146,4.684,45.146Z" transform="translate(-314.264 -568.098)" fill="#a67e64"/>
    </g>
    <g id="Layer_1" data-name="Layer 1" transform="translate(187.76 92.967)">
      <ellipse id="Ellipse_1262" data-name="Ellipse 1262" cx="106.681" cy="101.768" rx="106.681" ry="101.768" transform="translate(0 0)" fill="#a3def9"/>
      <path id="Path_1366" data-name="Path 1366" d="M380.25,243.18l-8.295,1.536-4.613.614h-3.073l-6.759,6.454-3.073,3.691-3.691,6.145-3.377,7.99V273.3l1.227,4.3,1.232,2.155,3.377,1.841,4.3,1.232,6.145.923,5.841-.618,3.073-.614,3.686.614,4,2.768,1.845,2.763,1.227,4.918v3.686l1.536,5.227.923,4,.614,5.836,1.845,5.227,2.459,4.913,5.532,6.763,2.763,5.222,3.073.309,2.459-.618,1.232-3.377.3-3.686,1.232-4.3,2.459-4,3.073-4,3.377-3.686,2.768-2.459-.309-4-.614-4,1.227-3.686,2.155-4.609,4.3-7.99,3.073-3.691.923-1.227,1.232-.923.459-1.227.155-2-8.145.923-3.227.459-1.536-1.686-1.536-2L416.2,269.3l-1.841-4.763-1.691-3.686-2.768-5.377-.614-1.541,5.073,5.227,2.3,1.845,2.609,3.377,1.691,3.382.768,2.3,2.154,1.536,2.15.768,2.459.155,2.15-1.536,2-.768,1.536-2.155,1.386-1.382,1.382-1.841,1.227-1.386-1.536-2.3-1.382-1.536-2.3-.155-1.536.923-1.536-.923-1.845-1.686-1.536-1.541-1.227-1.532-.464-1.691.464-1.232,2,.614,2.768,1.386,1.691,1.841,2,1.382,3.532.773,3.077.918,3.227.923,2.918.768,2.459.923,1.382.614.768,1.691,1.077,2.459.614,1.845v1.536l.459,2.3.464,2.3.3,1.536,1.691,1.691,1.227,1.227,1.232.923,1.227.614.618,1.382.459,1.232.309-2.614.459-4.3.309-1.536.614-2.614,1.227-2.918,1.536-2.614,2.155-1.382,2-1.232,1.382-.3L471.826,265l.918,2.459,1.536,1.691,2.155,1.227,1.073,1.541.309,1.382-.614,2,.15,3.382,1.232,2,1.536,1.232,1.382,1.691,1.232,2.15.459,1.382.155-3.377-.614-2.768-.923-2.459-.155-1.536.309-1.536,1.073-.3,1.232.3,1.382.155-.614-4.918-1.382-7.372-1.845-7.686-3.686-9.372-4-7.836-4.15-7.068-7.068-9.063-7.527-8.3-6.3-5.686-5.068-3.841-2.614.464-3.382.459-1.536,1.691-.15,1.077-1.845-.309-1.845-.155-2-.155.768,1.232,1.077.923-2.459.3-2.154-.155-1.841-.3-1.232.768-1.382-.309-1.845.155-2.918,1.382-3.377,1.077-3.077-.459-1.841.3-2.154,1.845-1.536-.155-1.073.768-1.691-.459-1.845-.923v-1.845l1.232-.923,1.227,1.077,1.232.309,1.073-.309-.3-2.3-1.691-1.077-3.073-.923-3.536-.768-3.382-.3-3.072.155-2.918.614-3.073,1.382-1.382,1.227-.309,1.536-2.3,1.386-2.763.768-1.386.923-2,1.536.3,1.382,1.845.459,1.536-.15,1.845.15,1.536,1.386.614,1.382.614,1.077v1.841l1.536-.459,1.691-1.232,1.382-1.382,2.155-1.382-.618-1.691-.918-1.382,1.382-.923,1.691-1.232.768,1.077-.309,1.382.155,1.386,1.536.614.768,1.227V220.6l-.923,1.536-1.841.768L391,223.977l-2,.763-2.459.464-1.845-.155-2-.309-1.077-1.532-.923-1.845-1.227-.614-1.382.15-.923,1.386.923,1.382.768,1.073.155,1.691-1.386.309-1.841.155-1.077,1.073-1.536.618-1.227.768-1.386-.309v1.691l-1.382.155-1.227-.618-.618,1.077,1.386.768,1.841,1.845-2.763.3-2.155.464-2.454.309-2.155.763-.918,1.691.15,1.386.309,1.841.309,1.845,1.073.768,2,.155,4.3.459,1.232-.614v-2.15l1.382-2.459,1.382-1.845,1.232-1.382,2.3-.923H378.4l3.073.464,2,1.382,2.614,1.227,1.227.923.309,1.691-.309,1.227,1.077.768,1.227-.459-.155-1.691v-.539l.693.08.689,1,.618-.539-.155-1.611-.848-.464-1.92-.689-2.3-1.077-.459-1.382.693-1.232.918-.23,1,.309.843.459,1.845,1,2,1.382.768.773v2.993l.539,1.536L396,242.1l1.152-.843,1-1.152.614-1.077,1.382-.15,2.3.843.693.459-.539,3.611.075,1,1.232.534,1.307-.075,1.152-.155,1.073-.539,1.691-.534,1.461-.155.843-.08.464,1.536.459,1.152-.923,1.925-1.611,1.611-1,.3-1.386.384h-7.218l-2.3-.23L396,249.326l-1.457-1-1.077-.23-.539.843v1l-1.227.234-1.845-.614-1.073-.309-1.077-.768-1.766-.923-1.307-.459-1.227-.768-1.232-1.77-.843-1.382Z" transform="translate(-272.613 -183.88)" fill="#61b683"/>
      <path id="Path_1367" data-name="Path 1367" d="M508.514,419.5l-1.227,1-1.845,2.15-2.384,3.536-2.15,3.916-1,2.843.768,1.845,1.691.923,1.152.689.843-.918,1.232-2.693,1.457-2.918,1.232-3.382.688-3.3L508.9,420.5Z" transform="translate(-353.707 -298.201)" fill="none"/>
      <path id="Path_1368" data-name="Path 1368" d="M223.955,408.111l-.229,4.379.229,2.88.806,1.269,2.3,1.269,1.04,1.265.806,1.5-.347,1.405-1.958,1.5L224.878,423l-1.958-1.728-1.845-1.5-.81-1.864-1.269-1.728-1.728-2.192-1.405-1.845a13.543,13.543,0,0,1-.806-2.88,38.562,38.562,0,0,0-.468-4.379l-1.728-2.763-1.382-3.574.347-3.339v-3.344l-.81-4.955-1.035-3.11-.937-3.457-1.152-2.651-2.075-2.421-2.187-1.611-2.88-3.344-1.56-2.534-.576-2.763-.075-2.96.768-2.459.614-5.222.768-3.686-.155-3.227-.881.267-.618.768-1.073.267-.576-.614-1.461-.229-1.536-1.152-1.653-2.112-1.035-1.92-.614-.468-1.691-.689-.614-1.04.44-3.073.468-2.651.52-2.937.52-1.5h1.1l.749.979.056,1.56-.117,2.3-.468,1.152-.347,1.555.806.347.866-.117.937-.173.689-.117.347,1.963V344.9l.693.4,1.265.234.937-.468,1.208-.468,1.325.229.937.693,1.04,1.035.342.749.866-.52L204.7,345l.937-1.04.862-.937,1.213-.52.576-.173-.117-1.152,1.611.117,1.443.515,1.555.52,2.019.468,2.417.52,1.56.4.862.173,1.208,1.208.693,1.443.4,1.269,1.382,1.035L225.056,350l1.269,1.555.965,1.592.745,2.192.52,1.438,1.967.585h1.04l1.152-.632.862-.229,1.1.468v2.88l.229.937.867-.347.749-.229,1.265-.515.937-.81,1.213-.112.806,1.208,1.1,1.035.689.937,1.213.52,1.265.468.867,1.152.689,1.269.347,2.3-1.152,2.707-2.248,1.672-1.152.979-.4,1.152v7.072l-1.438,1.784-1.728,1.443-2.089,1.457-2.422,1.382-1.611,1.845-.637,1.269-.632,2.342-1.326,2.131-.693,2.075-1.208,1.443-.871.628-.061,2.075.29,1.784-1.269.749-1.77.707-1.1.173-.29,1.035.347,1.325Z" transform="translate(-188.302 -250.822)" fill="#61b683"/>
      <path id="Path_1369" data-name="Path 1369" d="M508.865,419.5l-2.075,2-1.382,2.539-3.11,4.375-1.269,3-.459,2.534,2.15,1.77,2-.229,1.232-2.693,2.342-3.686,1.5-4.379-.539-4.225Z" transform="translate(-354.058 -298.201)" fill="#61b683"/>
      <path id="Path_1370" data-name="Path 1370" d="M209.218,330.51h-2.937l-1.9.234-.984.576-.286,1.208.693.52,1.667-.29,1.672-.459,1.845-.056,1.611,1.091,1.785,1.152,1.157-.459.515-.806-.515-1.04L211.7,331.2l-1.152-.52Z" transform="translate(-195.92 -250.891)" fill="#61b683"/>
      <path id="Path_1371" data-name="Path 1371" d="M231.2,337.336l-1.152.693-.866.576-.112,1.152.806.4,1.438-.229.81-.4,1.091-.693.52-1.035-.52-.52h-1.438Z" transform="translate(-209.722 -254.49)" fill="#61b683"/>
      <path id="Path_1372" data-name="Path 1372" d="M197.94,271.774l1.5.229,1.382.173,1.386.632,1.208.923.979.81,1.152,1.667.749.81.576-1.269.806-2.595.979-2.707.866-2.59.576-2.309,1.784-1.958,2.248-1.672,1.9-1.9,2.478-1.667,3.171-1.616,2.075-1.785,1.382-.923,1.611-.632,3,.056,1.5.632,1.265,1.269,1.152,1.035,1.152-.632.384-1.382-.15-1.845-.768-.689-1.536-.384-1.307-.229h-1.616l-.539-.848-.689-.539-.848.384-1.227.155-.459-.843.384-.618,1.152-.15,1.3-.155,1.232-.155,2.15.23,1.845.768,1.152.155.689.539.923.614,1.536.075,1.077-.534,1.077-.464.918-.075v-1.152l-1.382-2.688-1.307-1.845-1.3-2.379-.773-1.461-.3-1.536-.384-.614-1.152.918-1,.464-1.536-.229-1-1.152-1.766-1.307-1.461-.614-1.152-.539-1.841.459-1.307,1.232-1.152,1.766-1.232,1.691-1.227,1.152-1.307,1-1.382-.155-.768-1.152-.155-1.307-1.307-.534-1.457,1.766-1.925,2.763L211,245.616l-1.386,1.92-1.073,1.616-1.232,2.225-1.382,2.229-1.611,3.227-1.077,1.92-1.382,2.918-1.536,3.691-1.232,3.457Z" transform="translate(-193.172 -200.45)" fill="#61b683"/>
      <path id="Path_1373" data-name="Path 1373" d="M263.37,206.15l1.438,1.555,1.04,1.265L267,210.239l1.5,1.269,2.075,1.091.979.693-.173.862-.979,1.04-1.326.286-1.845.29-1.265.862-1.386,1.213-.459,1.091-1.326-.286-2.075-.979-2.187-1.1L257.089,216l-2.421-.29-2.014-.056-.464-.515,1.152-.984,1.04-.806.576-.347.576.347.693.637.632.745.749.234,1.841.112,2.421-.112,1.616-.637,1.035-.689.056-.52-1.265-.056-2.651.112.112-.749.866-.459.806-.693v-1.152l-1.152-.342-1.269-.117-.749-.52,1.386-1.1,1.325-1.035Z" transform="translate(-222.013 -184.778)" fill="#61b683"/>
      <path id="Path_1374" data-name="Path 1374" d="M284.18,194.929l1.091.576,1.1.112,1.213.173,1.611-.347,1.5-.112.923.112,1.265.52L294.2,197l1.269.693.576.632.459,2.365-.459,2.763L294.9,205.7l-1.269,1.728-.173,1.269,1.1,1.438,1.672,1.672,1.269,1.438h1.438l1.443-.806,2.534-1.035,1.845-1.1,2.534-2.014,3.513-2.539,3.8-1.611,2.824-1.1,2.3-.923,2.881-.342,1.672-.984.806-1.611.749-1.555,1.845-1.845,1.728-1.265,1.265-1.5.29-.749-3.518-.229-4.033-.407-5.241.407-1.555.4-2.136-.117-3.4-.347-2.539-.749-1.667-.459-2.422-.061-1.443.347-4.548-.169-2.136-.464-1.958-.4H292.3l-.576.056-2.59,1.326-2.192,1.616Z" transform="translate(-239.019 -176.208)" fill="#61b683"/>
    </g>
    <g id="Layer_3" data-name="Layer 3" transform="translate(296.767 251.34)">
      <path id="Path_1375" data-name="Path 1375" d="M465.878,702.745l-13.639-38.1-8-15.517s-10.8-18.416-13.639-24.927c-2.674-6.131-7.728-18.735-8.464-25.4-.506-4.581,2.192-13.742,1.874-18.341-.239-3.5-3.222-10.131-3.279-13.634-.047-2.4,1.981-7.026,1.873-9.41-.173-4.117-3.986-13.681-.937-16.459,1.756-1.6,7.536-.056,9.4,1.405,2.2,1.728,3.508,7.649,4.215,10.346.895,3.326,1.119,10.3,1.873,13.639.834,3.663,2.81,11.185,5.176,14.107a12.621,12.621,0,0,0,5.152,3.279c2.187.515,6.768-.361,8.937-.937a13.228,13.228,0,0,0,4.215-1.873c1.916-1.728,4.267-6.52,5.152-8.937,2.042-5.471,3.3-17.227,3.747-23.044.717-9.04-2.768-27.587-.159-36.276.5-1.644,2.229-5.068,3.817-5.724a6.078,6.078,0,0,1,4.773.937c5,5.152,2.749,21.423,4.773,28.313.342,1.162.239,3.606.637,4.749.6,1.714,1.443,6.187,3.18,6.7.937.272,2.417-1.7,2.862-2.548,2.122-4.042,1.8-13.583,2.229-18.131.347-3.747.707-11.213.937-14.951.155-2.389-.436-7.41.632-9.545.66-1.311,3-4,4.454-3.817,1.358.164,2.684,3.18,3.18,4.454,3.143,7.99,4.351,25.475,4.407,34.06a138.883,138.883,0,0,1-2.81,24.454c-.885,3.747-3.93,10.829-4.684,14.58-.5,2.426-.309,7.494-.937,9.873-1.541,5.855-7.494,16.543-9.878,22.1-1.7,3.976-6.3,11.677-6.581,15.99-.2,3.161,2.407,9.189,3.279,12.229,1.635,5.349,6.674,21.189,6.674,21.189l14.112,20.693,23.044,23.985Z" transform="translate(-420.495 -498.652)" fill="#894f31"/>
      <path id="Path_1376" data-name="Path 1376" d="M510.445,614.708c-2.923,0-4.136-11.03-4.852-13.864-.52-2.061-1.443-6.2-1.911-8.271-.468-2.145-1.569-6.417-1.906-8.59-.272-1.738-1.134-5.316-.637-7,.253-.871,1.321-2.81,2.225-2.866,1.237-.075,2.768,2.506,3.5,3.5a44.777,44.777,0,0,1,2.862,5.41c.726,1.489,2.492,4.407,2.7,6.051C513.171,594.867,516.286,614.675,510.445,614.708Z" transform="translate(-463.287 -538.771)" fill="#894f31"/>
    </g>
    <g id="Layer_5" data-name="Layer 5" transform="translate(203.708 260.105)">
      <path id="Path_1377" data-name="Path 1377" d="M224.138,711.846l13.171-18.81,14.566-28.22,1.874-6.557s-3.03-14.613-4.684-19.283a179.365,179.365,0,0,0-11.756-24.454c-1.222-2.009-4.632-5.4-5.644-7.527s-1.93-7.026-2.342-9.4c-.389-2.211-.468-6.74-.937-8.937-.628-2.9-2.81-8.464-3.747-11.283-.993-2.979-3.044-9.1-2.81-12.229.23-3.279,3.6-9.147,4.707-12.229,1.756-4.9,5.04-14.777,6.581-19.751,1.2-3.874.881-13.733,4.482-15.592,1.5-.778,5.414.834,6.361,2.225,1.953,2.857.15,10.435-.5,13.84-.585,3.091-3.138,8.9-4.183,11.887a89.708,89.708,0,0,0-2.955,14.051c-.82,6.557,2.2,3.171,3.377-4.295,1.447-9.213,1.311-30,8.079-36.425a7.2,7.2,0,0,1,5.724-.937c1.475.646,3.176,3.827,3.5,5.405,1.8,8.763-4.478,26.454-6.014,35.264-.576,3.279,1.405,5.007,2.613-1.977.276-1.578.731-4.745.984-6.323.431-2.688,1.663-8.018,1.78-10.74.094-2.07-1.691-6.487-.632-8.271.89-1.5,4.684-3.279,6.361-2.862s3.892,4,4.454,5.728c2.342,7.11-.815,22.43-.866,29.91-.028,4.567-.834,13.836.281,18.267.511,2.028,2.885,5.564,3.794,7.447.585,1.218,1.073,4.253,2.248,4.913,1.077.609,8.047.15,8.848-.417,5.269-3.747,5.724-18.534,7.588-24.725,1.087-3.611,3.335-11.288,6.178-13.766,1.326-1.152,5.012-1.7,6.745-1.967,1.405-.22,4.585-.974,5.761-.141,1.3.937,1.873,4.454,1.967,6.042.267,4.136-2.951,15.733-3.091,16.295s-4.782,13.545-5.48,18.267c-.468,3.335-.2,10.117,0,13.484.3,5.012,2.089,14.932,2.389,19.948a51.935,51.935,0,0,1,0,7.442c-.445,3.353-2.717,9.78-3.513,13.063-.7,2.9-2.529,11.662-2.529,11.662l-18.445,53.741-56.055,1.119Z" transform="translate(-221.811 -517.367)" fill="#dab197"/>
    </g>
    <g id="Layer_7" data-name="Layer 7" transform="translate(267.988 35.318)">
      <path id="Path_1378" data-name="Path 1378" d="M385.964,88.069c7.672-3.485,14.918-10.37,20.557-16.683,5.555-6.618,8.787-15.616,5.363-23.985-4.183-10.3-18.388-13.653-25.7-4.843C367.088,24.117,336.218,59.246,385.964,88.069Z" transform="translate(-359.052 -37.436)" fill="#d388b1"/>
    </g>
    <g id="Layer_6" data-name="Layer 6" transform="translate(270.9 33.452)">
      <path id="Path_1379" data-name="Path 1379" d="M392.177,84.092c7.677-3.485,14.922-10.37,20.562-16.688,5.55-6.613,8.787-15.611,5.358-23.981C413.915,33.1,399.709,29.77,392.4,38.58,373.307,20.126,342.436,55.254,392.177,84.092Z" transform="translate(-365.269 -33.452)" fill="#f5a0c5"/>
    </g>
  </g>
</svg>
