<svg xmlns="http://www.w3.org/2000/svg" width="286.724" height="358.281" viewBox="0 0 286.724 358.281">
  <g id="innovation" transform="translate(-31.945 -25.819)">
    <g id="Layer_2" data-name="Layer 2">
      <path id="Path_1353" data-name="Path 1353" d="M257.48,169a85.9,85.9,0,1,0-138.91,67.55l20.84,64.08,63.41-.88,19.42-61.4A85.74,85.74,0,0,0,257.48,169Z" fill="#f9d674"/>
      <rect id="Rectangle_1085" data-name="Rectangle 1085" width="80.58" height="18.05" rx="4" transform="translate(130.3 298.73)" fill="#4e4e4f"/>
      <rect id="Rectangle_1086" data-name="Rectangle 1086" width="66.93" height="15.85" rx="4" transform="translate(139.01 314.73)" fill="#4e4e4f"/>
      <rect id="Rectangle_1087" data-name="Rectangle 1087" width="37.87" height="14.53" rx="4" transform="translate(152.92 329.06)" fill="#4e4e4f"/>
    </g>
    <g id="Layer_4" data-name="Layer 4">
      <path id="Path_1354" data-name="Path 1354" d="M34.84,171.74H67.43c3.86,0,3.87-6,0-6H34.84C30.98,165.74,30.98,171.74,34.84,171.74Z" fill="#f9d674"/>
      <line id="Line_99" data-name="Line 99" x2="27.74" y2="16.3" transform="translate(54.66 98.28)" fill="#f9d674"/>
      <path id="Path_1355" data-name="Path 1355" d="M53.14,100.88l27.75,16.29c3.33,2,6.35-3.23,3-5.18L56.17,95.69c-3.33-2-6.36,3.23-3,5.19Z" fill="#f9d674"/>
      <path id="Path_1356" data-name="Path 1356" d="M104.91,49.6,119,76c1.82,3.41,7,.38,5.18-3L110.09,46.57c-1.82-3.41-7-.38-5.18,3Z" fill="#f9d674"/>
      <path id="Path_1357" data-name="Path 1357" d="M170.11,28.71l-.88,26.86c-.13,3.86,5.87,3.86,6,0l.88-26.86C176.23,24.85,170.23,24.86,170.11,28.71Z" fill="#f9d674"/>
      <path id="Path_1358" data-name="Path 1358" d="M240.53,47.89,223.8,72.55c-2.18,3.21,3,6.21,5.18,3l16.73-24.66c2.17-3.2-3-6.21-5.18-3Z" fill="#f9d674"/>
      <path id="Path_1359" data-name="Path 1359" d="M268.41,116.73l27.3-15.41c3.36-1.9.34-7.09-3-5.19l-27.3,15.42C262.05,113.44,265.07,118.63,268.41,116.73Z" fill="#f9d674"/>
      <path id="Path_1360" data-name="Path 1360" d="M282.31,172.62h33.46c3.86,0,3.87-6,0-6H282.31C278.45,166.62,278.44,172.62,282.31,172.62Z" fill="#f9d674"/>
    </g>
    <g id="Layer_6" data-name="Layer 6">
      <path id="Path_1361" data-name="Path 1361" d="M226.39,173.58l.44-10.13-12.69-1.51a42.12,42.12,0,0,0-3.13-11L221.54,145l-3.08-8.81L205.71,142a42.83,42.83,0,0,0-8.4-8.18l6.62-12.64-8.37-4-8.2,11.15a42.281,42.281,0,0,0-10-2.47l-2.1-14.41h-8.37l-2.58,14.84a42.629,42.629,0,0,0-7.41,2.13l-8.5-11.24-10.13,4.84,7.24,13a42.11,42.11,0,0,0-6.43,6.51l-14.9-5.89-4,6.17,13.47,8.54a42.29,42.29,0,0,0-3.4,11.81l-14.48,2.54-.44,6.17,14.87,2.17a42.12,42.12,0,0,0,2.4,9.73l-12.86,8.35,6.6,7.93,11.18-7a42.78,42.78,0,0,0,6.33,7.17l-5.18,13.91,8.81,4.4,7.89-10.89a42,42,0,0,0,10.63,3l1.73,14.48,9.25.44L176.79,210a42.08,42.08,0,0,0,11.72-3L196,217.61l7.93-4.4-6.26-11.53a42.4,42.4,0,0,0,7.28-7l12.63,4.39,4.4-6.6L211,185a42.12,42.12,0,0,0,3.28-11.91Z" fill="#4e4e4f"/>
    </g>
    <g id="Layer_5" data-name="Layer 5">
      <circle id="Ellipse_1261" data-name="Ellipse 1261" cx="20.7" cy="20.7" r="20.7" transform="translate(150.65 146.28)" fill="#f9d674"/>
    </g>
    <g id="Layer_7" data-name="Layer 7">
      <path id="Path_1362" data-name="Path 1362" d="M98.85,382.78h42.27c3.86,0,3.87-6,0-6H98.85C94.99,376.78,94.99,382.78,98.85,382.78Z" fill="#9ed5b5"/>
      <path id="Path_1363" data-name="Path 1363" d="M169.75,384.1h80.58c3.86,0,3.86-6,0-6H169.75C165.88,378.1,165.88,384.1,169.75,384.1Z" fill="#c3a2cc"/>
      <path id="Path_1364" data-name="Path 1364" d="M120,370.45l80.72.38,11.75.06c3.86,0,3.86-6,0-6l-80.73-.39L120,364.45C116.14,364.45,116.13,370.45,120,370.45Z" fill="#a3def9"/>
    </g>
  </g>
</svg>
