<svg xmlns="http://www.w3.org/2000/svg" width="452.339" height="475.042" viewBox="0 -150 452.339 475.042">
  <g id="technical" transform="translate(-10.702 -10.963)">
    <rect id="Rectangle_1037" data-name="Rectangle 1037" width="328.834" height="189.542" transform="translate(14.048 43.385)" fill="#f0efef"/>
    <g id="Layer_2" data-name="Layer 2" transform="translate(13.26 13.59)">
      <rect id="Rectangle_1038" data-name="Rectangle 1038" width="330.506" height="29.364" rx="11.5" fill="#fff"/>
    </g>
    <rect id="Rectangle_1039" data-name="Rectangle 1039" width="330.469" height="219.285" rx="11.21" transform="translate(13.706 14.43) rotate(-0.08)" fill="none" stroke="#59595b" stroke-miterlimit="10" stroke-width="6"/>
    <circle id="Ellipse_1255" data-name="Ellipse 1255" cx="5.729" cy="5.729" r="5.729" transform="translate(23.276 22.722)" fill="#aaaaab"/>
    <circle id="Ellipse_1256" data-name="Ellipse 1256" cx="5.729" cy="5.729" r="5.729" transform="translate(41.554 22.699)" fill="#aaaaab"/>
    <circle id="Ellipse_1257" data-name="Ellipse 1257" cx="5.729" cy="5.729" r="5.729" transform="translate(60.374 22.67)" fill="#aaaaab"/>
    <rect id="Rectangle_1040" data-name="Rectangle 1040" width="32.529" height="10.157" rx="5.078" transform="translate(49.251 66.651) rotate(-0.08)" fill="#9ed5b5"/>
    <rect id="Rectangle_1041" data-name="Rectangle 1041" width="83.44" height="10.157" rx="5.078" transform="translate(94.322 66.588) rotate(-0.08)" fill="#a1ddf8"/>
    <rect id="Rectangle_1042" data-name="Rectangle 1042" width="56.632" height="10.157" rx="5.078" transform="translate(83.179 89.295) rotate(-0.08)" fill="#cfe2ad"/>
    <rect id="Rectangle_1043" data-name="Rectangle 1043" width="45.829" height="10.157" rx="5.078" transform="translate(152.033 89.191) rotate(-0.08)" fill="#9f9fcf"/>
    <rect id="Rectangle_1044" data-name="Rectangle 1044" width="20.165" height="10.157" rx="5.078" transform="translate(208.859 89.119) rotate(-0.08)" fill="#c3a2cc"/>
    <rect id="Rectangle_1045" data-name="Rectangle 1045" width="32.529" height="10.157" rx="5.078" transform="translate(238.958 89.07) rotate(-0.08)" fill="#f69da0"/>
    <rect id="Rectangle_1046" data-name="Rectangle 1046" width="36.214" height="10.157" rx="5.078" transform="translate(84.802 113.181) rotate(-0.08)" fill="#f0bd92"/>
    <rect id="Rectangle_1047" data-name="Rectangle 1047" width="57.152" height="10.157" rx="5.078" transform="translate(134.197 113.119) rotate(-0.08)" fill="#c3a2cc"/>
    <rect id="Rectangle_1048" data-name="Rectangle 1048" width="32.529" height="10.157" rx="5.078" transform="translate(202.71 113.023) rotate(-0.08)" fill="#9ed5b5"/>
    <rect id="Rectangle_1049" data-name="Rectangle 1049" width="57.539" height="10.157" rx="5.078" transform="translate(246.956 112.961) rotate(-0.08)" fill="#f6d996"/>
    <rect id="Rectangle_1050" data-name="Rectangle 1050" width="45.071" height="10.157" rx="5.078" transform="translate(49.35 137.311) rotate(-0.08)" fill="#9ed5b5"/>
    <rect id="Rectangle_1051" data-name="Rectangle 1051" width="39.528" height="10.157" rx="5.078" transform="translate(83.273 157.087) rotate(-0.08)" fill="#f9d674"/>
    <rect id="Rectangle_1052" data-name="Rectangle 1052" width="19.259" height="10.157" rx="5.078" transform="translate(133.724 157.024) rotate(-0.08)" fill="#c3a2cc"/>
    <rect id="Rectangle_1053" data-name="Rectangle 1053" width="44.752" height="10.157" rx="5.078" transform="translate(166.297 156.971) rotate(-0.08)" fill="#f69da0"/>
    <rect id="Rectangle_1054" data-name="Rectangle 1054" width="39.811" height="10.157" rx="5.078" transform="translate(222.788 156.892) rotate(-0.08)" fill="#f6d996"/>
    <rect id="Rectangle_1055" data-name="Rectangle 1055" width="19.549" height="10.157" rx="5.078" transform="translate(273.573 156.821) rotate(-0.08)" fill="#c3a1cb"/>
    <rect id="Rectangle_1056" data-name="Rectangle 1056" width="46.683" height="10.157" rx="5.078" transform="translate(83.249 181.74) rotate(-0.08)" fill="#f0bd92"/>
    <rect id="Rectangle_1057" data-name="Rectangle 1057" width="45.071" height="10.157" rx="5.078" transform="translate(140.327 181.653) rotate(-0.08)" fill="#9ed5b5"/>
    <rect id="Rectangle_1058" data-name="Rectangle 1058" width="83.44" height="10.157" rx="5.078" transform="translate(195.592 181.583) rotate(-0.08)" fill="#a1ddf8"/>
    <rect id="Rectangle_1059" data-name="Rectangle 1059" width="44.752" height="10.157" rx="5.078" transform="translate(49.595 201.039) rotate(-0.08)" fill="#f69da0"/>
    <rect id="Rectangle_1060" data-name="Rectangle 1060" width="57.539" height="10.157" rx="5.078" transform="translate(107.46 200.958) rotate(-0.08)" fill="#f9d674"/>
    <line id="Line_97" data-name="Line 97" y1="0.55" x2="328.322" transform="translate(14.895 42.679)" fill="none" stroke="#59595b" stroke-miterlimit="10" stroke-width="6"/>
    <rect id="Rectangle_1061" data-name="Rectangle 1061" width="328.834" height="189.542" transform="translate(129.541 92.832)" fill="#626364"/>
    <rect id="Rectangle_1062" data-name="Rectangle 1062" width="330.506" height="29.364" rx="11.5" transform="translate(128.813 62.881)" fill="#fff"/>
    <rect id="Rectangle_1063" data-name="Rectangle 1063" width="330.469" height="219.285" rx="11.21" transform="translate(129.261 63.715) rotate(-0.08)" fill="none" stroke="#59595b" stroke-miterlimit="10" stroke-width="6"/>
    <circle id="Ellipse_1258" data-name="Ellipse 1258" cx="5.729" cy="5.729" r="5.729" transform="translate(138.829 72.013)" fill="#aaaaab"/>
    <circle id="Ellipse_1259" data-name="Ellipse 1259" cx="5.729" cy="5.729" r="5.729" transform="translate(157.114 71.991)" fill="#aaaaab"/>
    <circle id="Ellipse_1260" data-name="Ellipse 1260" cx="5.729" cy="5.729" r="5.729" transform="translate(175.927 71.961)" fill="#aaaaab"/>
    <rect id="Rectangle_1064" data-name="Rectangle 1064" width="32.529" height="10.157" rx="5.078" transform="translate(164.806 115.944) rotate(-0.08)" fill="#9ed5b5"/>
    <rect id="Rectangle_1065" data-name="Rectangle 1065" width="83.44" height="10.157" rx="5.078" transform="translate(209.877 115.874) rotate(-0.08)" fill="#a1ddf8"/>
    <rect id="Rectangle_1066" data-name="Rectangle 1066" width="56.632" height="10.157" rx="5.078" transform="translate(198.545 138.854)" fill="#cfe2ad"/>
    <rect id="Rectangle_1067" data-name="Rectangle 1067" width="45.829" height="10.157" rx="5.078" transform="translate(267.596 138.484) rotate(-0.08)" fill="#9f9fcf"/>
    <rect id="Rectangle_1068" data-name="Rectangle 1068" width="20.165" height="10.157" rx="5.078" transform="translate(324.421 138.405) rotate(-0.08)" fill="#c3a2cc"/>
    <rect id="Rectangle_1069" data-name="Rectangle 1069" width="32.529" height="10.157" rx="5.078" transform="translate(354.513 138.355) rotate(-0.08)" fill="#f69da0"/>
    <rect id="Rectangle_1070" data-name="Rectangle 1070" width="36.214" height="10.157" rx="5.078" transform="translate(200.365 162.474) rotate(-0.08)" fill="#f0bd92"/>
    <rect id="Rectangle_1071" data-name="Rectangle 1071" width="57.152" height="10.157" rx="5.078" transform="translate(249.753 162.405) rotate(-0.08)" fill="#c3a2cc"/>
    <rect id="Rectangle_1072" data-name="Rectangle 1072" width="32.529" height="10.157" rx="5.078" transform="translate(318.273 162.309) rotate(-0.08)" fill="#9ed5b5"/>
    <rect id="Rectangle_1073" data-name="Rectangle 1073" width="57.539" height="10.157" rx="5.078" transform="translate(362.512 162.247) rotate(-0.08)" fill="#f9d674"/>
    <rect id="Rectangle_1074" data-name="Rectangle 1074" width="45.071" height="10.157" rx="5.078" transform="translate(164.912 186.597) rotate(-0.08)" fill="#9ed5b5"/>
    <rect id="Rectangle_1075" data-name="Rectangle 1075" width="39.528" height="10.157" rx="5.078" transform="translate(198.829 206.373) rotate(-0.08)" fill="#f9d674"/>
    <rect id="Rectangle_1076" data-name="Rectangle 1076" width="19.259" height="10.157" rx="5.078" transform="translate(249.279 206.31) rotate(-0.08)" fill="#c3a2cc"/>
    <rect id="Rectangle_1077" data-name="Rectangle 1077" width="44.752" height="10.157" rx="5.078" transform="translate(281.853 206.257) rotate(-0.08)" fill="#f69da0"/>
    <rect id="Rectangle_1078" data-name="Rectangle 1078" width="39.811" height="10.157" rx="5.078" transform="translate(338.344 206.185) rotate(-0.08)" fill="#f9d674"/>
    <rect id="Rectangle_1079" data-name="Rectangle 1079" width="19.549" height="10.157" rx="5.078" transform="translate(389.128 206.107) rotate(-0.08)" fill="#c3a1cb"/>
    <rect id="Rectangle_1080" data-name="Rectangle 1080" width="46.683" height="10.157" rx="5.078" transform="translate(198.804 231.026) rotate(-0.08)" fill="#f0bd92"/>
    <rect id="Rectangle_1081" data-name="Rectangle 1081" width="45.071" height="10.157" rx="5.078" transform="translate(255.882 230.939) rotate(-0.08)" fill="#9ed5b5"/>
    <rect id="Rectangle_1082" data-name="Rectangle 1082" width="83.44" height="10.157" rx="5.078" transform="translate(311.147 230.869) rotate(-0.08)" fill="#a1ddf8"/>
    <rect id="Rectangle_1083" data-name="Rectangle 1083" width="44.752" height="10.157" rx="5.078" transform="translate(164.812 250.551)" fill="#f69da0"/>
    <rect id="Rectangle_1084" data-name="Rectangle 1084" width="57.539" height="10.157" rx="5.078" transform="translate(223.016 250.251) rotate(-0.08)" fill="#f9d674"/>
    <line id="Line_98" data-name="Line 98" y1="0.55" x2="328.322" transform="translate(130.448 91.97)" fill="none" stroke="#59595b" stroke-miterlimit="10" stroke-width="6"/>
  </g>
</svg>
