<svg id="Canvas" xmlns="http://www.w3.org/2000/svg" viewBox="0 0 439.06 483.19">
  <defs>
    <style>
      .cls-1 {
        fill: none;
        stroke: #4e4e4f;
        stroke-miterlimit: 10;
        stroke-width: 3px;
      }

      .cls-2 {
        fill: #4e4e4f;
      }

      .cls-3 {
        fill: #f9c76e;
      }

      .cls-4 {
        fill: #fff;
      }
    </style>
  </defs>
  <g id="Champagne_Flutes" data-name="Champagne Flutes">
    <g id="Flutes">
      <path id="Path_463" data-name="Path 463" class="cls-1" d="M217.92,56.79c1.28-4.55,68.61-27.06,73.81-22.78,3.45,2.85,9.93,21.55,9.93,21.55L315.9,93.25,343.2,157,356,190.27S362.6,204,363.7,209a33,33,0,0,1,.45,10c-.51,2.81-3.24,7.94-4.55,10.48-3,5.8-10.53,16.62-13.67,22.32a146.75,146.75,0,0,0-7.29,15,37.22,37.22,0,0,0-1.82,7.29c-.27,3.56.7,10.68,1.37,14.12,1.07,5.59,6.38,21.87,6.38,21.87L356,349.76l10,32.81,6.83,23.23,5.47,17.32a120,120,0,0,0,5.47,10.94,25,25,0,0,0,4.1,4.55,17.69,17.69,0,0,0,5,2.27c1.79.39,5.48,0,7.29,0,2.63,0,7.87-.24,10.49-.45,2.86-.24,8.53-1.08,11.4-1.36s12.47-2.27,12.12,0c-.11.6-2.54,1.62-3.47,2.26-2.47,1.71-8.17,3.85-10.93,5-4.75,2-14.32,5.58-19.14,7.29-5.2,1.84-15.7,5.19-21,6.84-3.74,1.19-11.27,3.44-15,4.56-3.18.94-9.5,2.86-12.76,3.64-2.26.55-6.8,1.56-9.12,1.82-3.28.38-11.57,3.32-13.21.46-.74-1.29,2.05-4.06,3.19-5,1.79-1.51,6.52-2.67,8.65-3.64,2.89-1.3,8.59-4,11.4-5.47,2.3-1.18,7-3.56,9.11-5,1.73-1.18,5.33-3.65,6.39-5.47.92-1.6,1.4-5.43,1.36-7.29,0-2.57-1.62-7.53-2.28-10-1.11-4.26-5-16.86-5-16.86l-20.05-62.92-13.66-41.92s-4.29-15.74-6.84-20.5a45.29,45.29,0,0,0-6.39-8.2,55.61,55.61,0,0,0-9.1-6.83c-2.78-1.54-8.94-3.3-11.87-4.56-3.14-1.36-9.26-4.37-12.3-5.94a116.61,116.61,0,0,1-10.94-5.93,65.6,65.6,0,0,1-8.66-7.74,37.89,37.89,0,0,1-5-7.29c-2-4.82-3.05-15.43-4.1-20.5-2.47-12.09-10-48.3-10-48.3l-8.2-43.74-8.63-35.91-6.72-23.42S217.14,59.62,217.92,56.79Z"/>
      <path id="Path_464" data-name="Path 464" class="cls-1" d="M134.31,35.57c2.38-3.35,73.3,17.24,74.48,20.49,1.57,4.37-2.86,21.75-2.86,21.75L197.29,119,186,187.46l-7.12,34.9s-1.79,15.17-3.56,19.92a33.61,33.61,0,0,1-5,8.69c-2,2.09-7,5-9.5,6.38-5.67,3.28-17.81,8.31-23.53,11.48a146,146,0,0,0-14.24,8.75,36.58,36.58,0,0,0-5.46,5.17c-2.13,2.85-5.13,9.34-6.45,12.64-2.1,5.29-6.37,21.87-6.37,21.87l-11.65,39.5-9.2,33-6.73,23.27-4.74,17.54a115.47,115.47,0,0,0-1.27,12.16,23.77,23.77,0,0,0,1,6,18.07,18.07,0,0,0,3,4.62,41.43,41.43,0,0,0,6.14,3.91c2.25,1.37,6.77,4,9.08,5.26,2.54,1.34,7.79,3.67,10.34,5s11.74,4.8,10.21,6.51c-.4.48-3,0-4.13,0-3,.12-9-1.18-11.87-1.66-5-.87-15.06-3-20-4.14-5.38-1.19-16-4.07-21.37-5.51-3.8-1-11.36-3.16-15.13-4.25-3.19-.91-9.57-2.71-12.72-3.79-2.2-.74-6.56-2.37-8.65-3.36-3-1.44-11.55-3.42-11.4-6.72.08-1.48,3.91-2.31,5.39-2.51,2.37-.31,6.93,1.24,9.26,1.58,3.12.46,9.4,1.18,12.54,1.52,2.59.23,7.78.77,10.38.67,2.1-.08,6.46-.21,8.31-1.18,1.64-.86,4.1-3.84,5.07-5.42,1.34-2.2,2.68-7.23,3.46-9.67,1.36-4.19,4.85-16.9,4.85-16.9L81.82,349l11-42.73s4.86-15.58,5.26-21a45.47,45.47,0,0,0-1-10.34,55.63,55.63,0,0,0-4-10.68c-1.51-2.78-5.76-7.58-7.54-10.21-1.91-2.83-5.45-8.67-7.18-11.61a118.88,118.88,0,0,1-6-10.88,65.55,65.55,0,0,1-3.13-11.18,36.33,36.33,0,0,1-.31-8.84c.88-5.15,5.7-14.62,7.57-19.49C80.93,180.52,94,145.91,94,145.91l16.62-41.29,12.06-35,6.8-23.47S132.16,38.62,134.31,35.57Z"/>
      <path id="Path_465" data-name="Path 465" class="cls-2" d="M112.51,472.32c-.44-.72-5.73.7-3,2.06.62.31.84,4.05.36,4.75s-2.44.42-3.22.33c-4.17-.51-8.42-.52-12.57-1.19-8.43-1.33-16.84-3-25.18-4.75s-15.25-3.75-23.22-6S29.25,463,21.57,460.12c-4.16-1.59-8.13-3.67-12.15-5.6l-3-1.45c-.7-.34-2.07-.71-2.46-1.44-.81-1.55,1.84-3.47,2.72-4.23,2.37-2-1.07-5-1.76-4.52a14,14,0,0,0-4.52,6.18,4.33,4.33,0,0,0,1,4.83c1.51,1.68,4.11,2.48,6.09,3.43,2.22,1.07,4.45,2.12,6.67,3.15,9,4.12,18.66,6.62,27.84,9.5,9.39,3,17.86,5.07,27.63,7.22s20,3.13,30,4.75c2.67.41,5.34.93,8,1.18,2.1.24,4.52-.16,5.6-2.06a8,8,0,0,0-.62-8.73Z"/>
      <g id="Layer_3" data-name="Layer 3">
        <path id="Path_466" data-name="Path 466" class="cls-2" d="M434.14,436.59c-.77-.36-4.17,3.82-1.1,3.48.69-.08,2.9,2.95,2.86,3.8s-1.83,1.68-2.54,2c-3.79,1.81-7.38,4.1-11.23,5.77-7.81,3.42-15.8,6.53-23.74,9.5s-14.88,5-22.83,7.4-16.26,5.11-24.31,6.78c-4.37.9-8.83,1.28-13.26,1.81l-3.35.4c-.77.1-2.11.52-2.85.11-1.51-.87-1.1-4-.77-5.13.9-2.93-2.81-4.12-3.11-3.31a20,20,0,0,0-.52,8.56c.33,2,0,2.37,1.8,3.77.74.57,4.74-.12,7-.39,2.44-.3,4.88-.59,7.31-.94,9.77-1.34,19.3-4.44,28.58-6.95,9.5-2.57,17.81-5.33,27.18-8.78s18.52-8.1,27.78-12.14c2.48-1.08,5-2.08,7.44-3.27a8,8,0,0,0,4.39-4.42C440.18,440.42,434.76,436.89,434.14,436.59Z"/>
      </g>
    </g>
    <g id="Champagne">
      <path id="Path_467" data-name="Path 467" class="cls-3" d="M242.88,120.6c14.83-3.49,37.41,17.6,58.92,25.06,9.19,3.18,23.08,5.14,30.51,11.65,8.42,7.36,11.26,16.94,15,27.12,3.38,9.32,10.44,20.32,10.85,31.52-10.41,18.9-21.1,60.09-49.59,50.13-16.7-6.52-37.25-13.06-45.48-30.5-5.2-20-10.11-48.86-14.47-69.25C249,156.36,236.49,122.11,242.88,120.6Z"/>
      <path id="Path_468" data-name="Path 468" class="cls-3" d="M189,122.23c-14.83-3.49-37.41,17.6-58.93,25.06-9.18,3.17-23.08,5.14-30.51,11.64-8.4,7.35-11.25,16.93-15,27.11-3.4,9.34-10.44,20.33-10.86,31.52,10.41,18.9,21.1,60.1,49.59,50.17,16.71-6.52,37.26-13.06,45.47-30.49C174,217.24,179,188.38,183.3,168,183,158,195.42,123.72,189,122.23Z"/>
    </g>
    <g id="Bubbles">
      <circle id="Ellipse_1210" data-name="Ellipse 1210" class="cls-4" cx="116.52" cy="257.52" r="3.95"/>
      <circle id="Ellipse_1211" data-name="Ellipse 1211" class="cls-4" cx="126.18" cy="249.71" r="3.95"/>
      <circle id="Ellipse_1212" data-name="Ellipse 1212" class="cls-4" cx="134.42" cy="238.82" r="3.95"/>
      <circle id="Ellipse_1213" data-name="Ellipse 1213" class="cls-4" cx="136.94" cy="224.09" r="3.95"/>
      <circle id="Ellipse_1214" data-name="Ellipse 1214" class="cls-4" cx="141.19" cy="208.16" r="3.95"/>
      <circle id="Ellipse_1215" data-name="Ellipse 1215" class="cls-4" cx="124.46" cy="225.94" r="3.95"/>
      <circle id="Ellipse_1216" data-name="Ellipse 1216" class="cls-4" cx="149.28" cy="193.95" r="3.95"/>
      <circle id="Ellipse_1217" data-name="Ellipse 1217" class="cls-4" cx="160.12" cy="183.27" r="3.95"/>
      <circle id="Ellipse_1218" data-name="Ellipse 1218" class="cls-4" cx="160.82" cy="169.9" r="3.95"/>
      <circle id="Ellipse_1219" data-name="Ellipse 1219" class="cls-4" cx="158.43" cy="156.53" r="3.95"/>
      <circle id="Ellipse_1220" data-name="Ellipse 1220" class="cls-4" cx="180.5" cy="129.84" r="3.95"/>
      <circle id="Ellipse_1221" data-name="Ellipse 1221" class="cls-4" cx="130.04" cy="152.58" r="3.95"/>
      <circle id="Ellipse_1222" data-name="Ellipse 1222" class="cls-4" cx="169.26" cy="145.7" r="3.95"/>
      <circle id="Ellipse_1223" data-name="Ellipse 1223" class="cls-4" cx="158.85" cy="143.17" r="3.95"/>
      <circle id="Ellipse_1224" data-name="Ellipse 1224" class="cls-4" cx="169.26" cy="132.76" r="3.95"/>
      <circle id="Ellipse_1225" data-name="Ellipse 1225" class="cls-4" cx="147.69" cy="159.57" r="3.95"/>
      <circle id="Ellipse_1226" data-name="Ellipse 1226" class="cls-4" cx="145.02" cy="148.32" r="3.95"/>
      <circle id="Ellipse_1227" data-name="Ellipse 1227" class="cls-4" cx="149.52" cy="137.92" r="3.95"/>
      <circle id="Ellipse_1228" data-name="Ellipse 1228" class="cls-4" cx="318.42" cy="258.6" r="3.95"/>
      <circle id="Ellipse_1229" data-name="Ellipse 1229" class="cls-4" cx="308.76" cy="250.79" r="3.95"/>
      <circle id="Ellipse_1230" data-name="Ellipse 1230" class="cls-4" cx="300.52" cy="239.9" r="3.95"/>
      <circle id="Ellipse_1231" data-name="Ellipse 1231" class="cls-4" cx="298" cy="225.16" r="3.95"/>
      <circle id="Ellipse_1232" data-name="Ellipse 1232" class="cls-4" cx="293.75" cy="209.23" r="3.95"/>
      <circle id="Ellipse_1233" data-name="Ellipse 1233" class="cls-4" cx="310.48" cy="227.02" r="3.95"/>
      <circle id="Ellipse_1234" data-name="Ellipse 1234" class="cls-4" cx="285.66" cy="195.03" r="3.95"/>
      <circle id="Ellipse_1235" data-name="Ellipse 1235" class="cls-4" cx="274.82" cy="184.35" r="3.95"/>
      <circle id="Ellipse_1236" data-name="Ellipse 1236" class="cls-4" cx="274.12" cy="170.98" r="3.95"/>
      <circle id="Ellipse_1237" data-name="Ellipse 1237" class="cls-4" cx="276.5" cy="157.61" r="3.95"/>
      <circle id="Ellipse_1238" data-name="Ellipse 1238" class="cls-4" cx="254.43" cy="130.92" r="3.95"/>
      <circle id="Ellipse_1239" data-name="Ellipse 1239" class="cls-4" cx="304.9" cy="153.65" r="3.95"/>
      <circle id="Ellipse_1240" data-name="Ellipse 1240" class="cls-4" cx="265.68" cy="146.78" r="3.95"/>
      <circle id="Ellipse_1241" data-name="Ellipse 1241" class="cls-4" cx="276.09" cy="144.25" r="3.95"/>
      <circle id="Ellipse_1242" data-name="Ellipse 1242" class="cls-4" cx="265.68" cy="133.84" r="3.95"/>
      <circle id="Ellipse_1243" data-name="Ellipse 1243" class="cls-4" cx="287.25" cy="160.65" r="3.95"/>
      <circle id="Ellipse_1244" data-name="Ellipse 1244" class="cls-4" cx="289.92" cy="149.39" r="3.95"/>
      <circle id="Ellipse_1245" data-name="Ellipse 1245" class="cls-4" cx="285.42" cy="139" r="3.95"/>
    </g>
    <g id="Accent">
      <path id="Path_469" data-name="Path 469" class="cls-2" d="M204.08,38.2q-8.16-14.46-16.29-28.93c-1.5-2.66-5.6-.27-4.1,2.38L200,40.58C201.49,43.26,205.59,40.87,204.08,38.2Z"/>
      <path id="Path_470" data-name="Path 470" class="cls-2" d="M217,35.7A77,77,0,0,1,214.69,3,2.44,2.44,0,0,0,213,.09a2.37,2.37,0,0,0-2.92,1.65h0A82.48,82.48,0,0,0,212.39,37C213.24,39.89,217.82,38.62,217,35.7Z"/>
      <path id="Path_471" data-name="Path 471" class="cls-2" d="M246.65,2.19a2.36,2.36,0,0,0-3.24.84l-21,27.3a2.37,2.37,0,0,0,.84,3.25h0a2.45,2.45,0,0,0,3.26-.85l21-27.3A2.37,2.37,0,0,0,246.65,2.19Z"/>
    </g>
  </g>
</svg>
