<svg id="Layer_1" data-name="Layer 1" xmlns="http://www.w3.org/2000/svg" xmlns:xlink="http://www.w3.org/1999/xlink" viewBox="0 0 2050 1036">
  <defs>
    <style>
      .cls-1 {
        fill: none;
      }

      .cls-2 {
        clip-path: url(#clip-path);
      }

      .cls-3 {
        fill: #1b301b;
      }

      .cls-4 {
        fill: #21541e;
      }
    </style>
    <clipPath id="clip-path">
      <rect class="cls-1" x="-85.38" y="0.68" width="2486.18" height="1034.58"/>
    </clipPath>
  </defs>
  <g class="cls-2">
    <path class="cls-3" d="M1,286.55c-2.66,1.92-5.37,3.77-8,5.67-3.79,2.69-7.61,5.33-11.42,8q-10.65,7.4-21.19,15c-3.21,2.3-6.38,4.68-9.56,7-3.64,2.7-7.15,5.58-10.64,8.47l-3.25,3.05c-1,.92-1.84,2-2.75,2.95l-3,3.63-1.67,2.22c-1.06,1.42-2.12,2.83-3.17,4.25a6,6,0,0,1-8.42,1.09,6.09,6.09,0,0,1-1.08-8.42c1.76-2.37,3.46-4.8,5.33-7.08s3.57-4.22,5.47-6.26c4.52-4.87,10-8.86,15.2-12.91s10.52-7.75,15.82-11.57c5.14-3.7,10.36-7.31,15.57-10.92q8.43-5.88,16.82-11.83c3.36-2.38,6.67-4.81,10-7.26v14.93Z"/>
    <path class="cls-3" d="M2390.19,906q-15.92-11.28-31.9-22.45L2345,875c-1-.66-2-1.24-3.05-1.82l-9-5c-3.76-2.1-7.61-4-11.41-6-4.67-2.47-9.37-4.88-14.06-7.3q-6.76-3.51-13.57-7c-.7-.37-1.46-.69-2.17-1.1-.51-.24-1-.52-1.51-.77l-3.72-1.86c-.44-.23-.87-.42-1.29-.64-.67-.29-1.31-.65-2-1-9.07-4.49-18.12-9-27.26-13.35q-15.87-7.59-31.85-14.94c-4.9-2.27-9.83-4.51-14.64-7l-7.92-4c-2.76-1.41-5.46-3-8.19-4.46-2.45-1.34-4.83-2.84-7.24-4.26s-5-3.11-7.47-4.68c-4.6-2.9-9.05-6.07-13.51-9.19-9-6.3-17.67-13-26.31-19.81s-17.09-14.11-25.25-21.59c-8.73-8-17-16.54-25.43-24.81q-12.16-11.86-24.77-23.25-7.18-6.28-14.47-12.45V663l2.78,2.34c9.43,7.91,18.78,15.92,27.82,24.3,9.3,8.62,18.36,17.48,27.37,26.41,3.48,3.45,6.94,6.91,10.49,10.27,4.35,4.12,8.77,8.14,13.24,12.12,7,5.95,14.06,11.69,21.25,17.35,8.38,6.58,17,12.81,25.74,18.91,2.36,1.59,4.7,3.23,7.11,4.75,3.58,2.25,7.15,4.49,10.8,6.64,3.29,1.93,6.62,3.77,10,5.6s6.72,3.5,10.1,5.21c11.84,5.64,23.77,11.09,35.63,16.68,10.61,5,21.14,10.16,31.65,15.36,2.19,1.08,4.39,2.16,6.58,3.26l0,0,.64.32.49.25,1.91,1c1.18.6,2.49,1.11,3.62,1.82l.7.36.17.08.43.22c2.13,1.07,4.24,2.15,6.36,3.23,5.87,3,11.71,6,17.56,9.07s11.42,6,17.11,9c3.19,1.68,6.3,3.51,9.45,5.26,2.82,1.58,5.49,3.41,8.2,5.17,3,2,6.15,3.85,9.12,5.93l10.32,7.23q10.95,7.68,21.85,15.41a6,6,0,0,1,1.09,8.41,5.81,5.81,0,0,1-4.68,2.29A6.49,6.49,0,0,1,2390.19,906Z"/>
    <path class="cls-4" d="M513,33.3l-.21,0-.2,0,5-.91ZM1,1035V271.61l4.5-3.36,2.56-1.9c3.22-2.39,6.44-4.9,9.55-7.32l4.62-3.59,4.42-3.38,2.91-2.23,2.54-2c1.66-1.29,3.38-2.61,5.09-3.88,11.21-8.21,21.34-15.61,31.89-22.94l5.2-3.63c3.47-2.43,7.07-4.94,10.63-7.38l5.88-4c3.87-2.67,7.87-5.43,11.86-8.06l8.45-5.59,8.46-5.58c4.14-2.74,8.41-5.44,12.53-8.06q2.67-1.68,5.34-3.39c3.63-2.32,7.39-4.59,11-6.78l4.93-3c4.54-2.78,9.22-5.5,13.75-8.13l3.53-2c11-6.39,22-12.66,32.67-18.61l4.12-2.31c3.72-2.08,7.56-4.23,11.39-6.27l11.47-6.09,2.49-1.33c1.69-.91,3.45-1.86,5.2-2.74l19.78-10c4-2,8.13-4,12.13-5.82L275,99.9c5.07-2.4,10.16-4.65,15.82-7.13l5.59-2.46,4.52-2c1.92-.84,3.9-1.64,5.81-2.42l2.61-1.06c11.29-4.67,23.41-9.62,35.49-14.2L351,68.26c4.05-1.56,8.24-3.17,12.39-4.67l20.51-7.43c4.28-1.55,8.67-3,12.91-4.43,2.05-.69,4.11-1.37,6.15-2.07,4.56-1.55,9.23-3,13.75-4.42l5.14-1.6c4.63-1.47,9.37-2.82,14-4.13l2.91-.83,4.3-1.24,4-1.15c2.37-.68,4.8-1.29,7.15-1.88l3.53-.89c3.45-.91,6.9-1.8,10.36-2.7,1.61-.42,3.25-.78,4.85-1.14l2.3-.53,1.73-.4c6-1.39,12.17-2.83,18.3-4.08,1.73-.35,3.45-.72,5.18-1.08,3.87-.82,7.88-1.66,11.84-2.37,2.21-.39,4.42-.8,6.63-1.2,4.71-.86,9.58-1.76,14.39-2.51l6.2-1,6.14-1,2.11-.34c1.65-.26,3.29-.53,5-.75L563.86,13l2.86-.4c2.17-.3,4.4-.61,6.62-.87l10.25-1.17,10.27-1.17c4.62-.52,9.33-1,13.88-1.42,2.22-.21,4.44-.42,6.67-.65,4.58-.46,9.25-.83,13.76-1.2,2.4-.19,4.79-.38,7.18-.59,4.68-.39,9.44-.73,14-1l7.05-.5c12.56-.93,25-1.46,36.76-1.94,11.93-.47,24.15-.78,37.36-.93l1.52,0c8-.09,16.25-.18,24.37-.18,5.07,0,9.66,0,14,.11,14.69.25,26.93.49,39.57,1.21,12.8.74,26,1.5,39.25,2.59l4.89.41c11.27.94,22.93,1.9,34.38,3l7.86.78c10.37,1,21.11,2.07,31.63,3.31,12.93,1.53,26.33,3.2,39.84,4.94,4.28.56,8.63,1.2,12.83,1.82l6.6,1c4.65.66,9.35,1.44,13.91,2.19,2.18.36,4.36.72,6.55,1.06,12.94,2.07,26,4.61,38.66,7.07l1.56.31c4.25.82,8.55,1.77,12.71,2.69l5.28,1.15c5.56,1.2,11.19,2.55,16.63,3.86l4,1c12.63,3,24.83,6.37,38.33,10.14,11.46,3.2,23.79,6.87,37.69,11.23,27.15,8.5,50.76,16.25,72.17,23.71,27.81,9.69,51,18.18,73.94,28.13l2.47,1.07c4.91,2.13,10,4.33,14.94,6.59,6.27,2.87,12.76,5.83,19.13,8.82,13,6.08,24.56,11.69,35.5,17.16,5.9,2.93,10.72,5.39,15.18,7.74,7.06,3.71,13,6.87,18.53,9.94s11,6.11,16.46,9.26l4.11,2.35,4.1,2.36c2.29,1.31,4.57,2.72,6.78,4.08l3.29,2c21.9,13.25,44.4,27.39,66.88,42,9.86,6.42,19.69,13.23,29.19,19.82l2.26,1.57c7.64,5.3,15.38,10.74,22.87,16l9,6.32,2.58,1.82c19.5,13.68,39.65,27.83,59,42.43l6,4.52c8.16,6.15,16.59,12.51,24.8,18.88,13.13,10.2,23.74,18.67,33.37,26.63s19.53,16.47,29,24.59l1.29,1.1c10.56,9.06,19.93,17.14,28.65,24.67,12.1,10.47,24.09,21.45,35.69,32.07,6.3,5.77,12.82,11.74,19.27,17.55,8.86,8,17.84,16.12,26.52,24,10,9.11,20.42,18.54,30.69,27.75,9.54,8.3,19.44,16.77,29.42,25.19,9.59,8.08,19.25,16.26,28.7,24.31q7.84,6.69,15.66,13.41,7.35,6.3,14.7,12.58,5.73,4.9,11.5,9.78c5.87,5,11.93,10.11,17.86,15.21l9.31,8c5.85,5,11.89,10.24,17.87,15.33,8.15,6.94,17,14.37,27.72,23.41v372H1Z"/>
  </g>
</svg>
