<svg id="Layer_1" data-name="Layer 1" xmlns="http://www.w3.org/2000/svg" xmlns:xlink="http://www.w3.org/1999/xlink" viewBox="0 0 2048.02 1630.33">
  <defs>
    <style>
      .cls-1 {
        fill: none;
      }

      .cls-2 {
        fill: #21541e;
      }

      .cls-3 {
        clip-path: url(#clip-path);
      }

      .cls-4 {
        fill: #d6cfcf;
      }

      .cls-5 {
        clip-path: url(#clip-path-2);
      }

      .cls-6 {
        clip-path: url(#clip-path-3);
      }

      .cls-7 {
        fill: #2d2c2c;
      }

      .cls-8 {
        clip-path: url(#clip-path-4);
      }

      .cls-9 {
        clip-path: url(#clip-path-5);
      }

      .cls-10 {
        fill: #f8b832;
      }

      .cls-11 {
        clip-path: url(#clip-path-6);
      }

      .cls-12 {
        fill: #5435a9;
      }

      .cls-13 {
        clip-path: url(#clip-path-7);
      }

      .cls-14 {
        fill: #ff8eb4;
      }

      .cls-15 {
        clip-path: url(#clip-path-8);
      }

      .cls-16 {
        clip-path: url(#clip-path-9);
      }

      .cls-17 {
        fill: #ff8fb4;
      }

      .cls-18 {
        clip-path: url(#clip-path-10);
      }

      .cls-19 {
        clip-path: url(#clip-path-11);
      }

      .cls-20 {
        fill: #21185f;
      }

      .cls-21 {
        clip-path: url(#clip-path-12);
      }

      .cls-22 {
        clip-path: url(#clip-path-13);
      }

      .cls-23 {
        clip-path: url(#clip-path-14);
      }

      .cls-24 {
        fill: #c49280;
      }

      .cls-25 {
        clip-path: url(#clip-path-15);
      }

      .cls-26 {
        fill: #ffc3d6;
      }

      .cls-27 {
        clip-path: url(#clip-path-16);
      }

      .cls-28 {
        clip-path: url(#clip-path-17);
      }

      .cls-29 {
        clip-path: url(#clip-path-18);
      }

      .cls-30 {
        clip-path: url(#clip-path-19);
      }

      .cls-31 {
        fill: #c08467;
      }

      .cls-32 {
        clip-path: url(#clip-path-20);
      }

      .cls-33 {
        fill: #bab6d4;
      }

      .cls-34 {
        clip-path: url(#clip-path-21);
      }

      .cls-35 {
        fill: #c08367;
      }

      .cls-36 {
        clip-path: url(#clip-path-22);
      }

      .cls-37 {
        clip-path: url(#clip-path-23);
      }

      .cls-38 {
        clip-path: url(#clip-path-24);
      }

      .cls-39 {
        fill: #7b52ee;
      }

      .cls-40 {
        clip-path: url(#clip-path-25);
      }

      .cls-41 {
        clip-path: url(#clip-path-26);
      }

      .cls-42 {
        clip-path: url(#clip-path-27);
      }

      .cls-43 {
        fill: #ffd6cb;
      }

      .cls-44 {
        clip-path: url(#clip-path-28);
      }

      .cls-45 {
        fill: #005dfb;
      }

      .cls-46 {
        fill: #6ca3ff;
      }

      .cls-47 {
        clip-path: url(#clip-path-29);
      }

      .cls-48 {
        clip-path: url(#clip-path-30);
      }

      .cls-49 {
        fill: #e6e3ff;
      }

      .cls-50 {
        fill: #e3e1fb;
      }

      .cls-51 {
        clip-path: url(#clip-path-31);
      }

      .cls-52 {
        fill: #9c9aad;
      }

      .cls-53 {
        clip-path: url(#clip-path-32);
      }

      .cls-54 {
        clip-path: url(#clip-path-33);
      }

      .cls-55 {
        fill: #dd029f;
      }

      .cls-56 {
        clip-path: url(#clip-path-34);
      }

      .cls-57 {
        fill: #0967cb;
      }

      .cls-58 {
        clip-path: url(#clip-path-35);
      }

      .cls-59 {
        clip-path: url(#clip-path-36);
      }

      .cls-60 {
        clip-path: url(#clip-path-37);
      }

      .cls-61 {
        fill: #1f1e1e;
      }

      .cls-62 {
        clip-path: url(#clip-path-38);
      }

      .cls-63 {
        clip-path: url(#clip-path-39);
      }

      .cls-64 {
        fill: #2c2c2c;
      }

      .cls-65 {
        clip-path: url(#clip-path-40);
      }

      .cls-66 {
        clip-path: url(#clip-path-41);
      }

      .cls-67 {
        fill: #424242;
      }

      .cls-68 {
        clip-path: url(#clip-path-42);
      }

      .cls-69 {
        fill: #fff;
      }

      .cls-70 {
        clip-path: url(#clip-path-43);
      }

      .cls-71 {
        fill: #fe8c00;
      }

      .cls-72 {
        clip-path: url(#clip-path-44);
      }

      .cls-73 {
        clip-path: url(#clip-path-45);
      }

      .cls-74 {
        fill: #331a0e;
      }

      .cls-75 {
        clip-path: url(#clip-path-46);
      }

      .cls-76 {
        fill: #f87232;
      }

      .cls-77 {
        clip-path: url(#clip-path-47);
      }

      .cls-78 {
        clip-path: url(#clip-path-48);
      }

      .cls-79 {
        fill: #61d397;
      }

      .cls-80 {
        clip-path: url(#clip-path-49);
      }

      .cls-81 {
        fill: #ffd7cb;
      }

      .cls-82 {
        clip-path: url(#clip-path-50);
      }

      .cls-83 {
        clip-path: url(#clip-path-51);
      }

      .cls-84 {
        clip-path: url(#clip-path-52);
      }

      .cls-85 {
        fill: #bab7d5;
      }

      .cls-86 {
        clip-path: url(#clip-path-53);
      }

      .cls-87 {
        clip-path: url(#clip-path-54);
      }

      .cls-88 {
        clip-path: url(#clip-path-55);
      }

      .cls-89 {
        clip-path: url(#clip-path-56);
      }

      .cls-90 {
        clip-path: url(#clip-path-57);
      }

      .cls-91 {
        fill: #ed4748;
      }

      .cls-92 {
        clip-path: url(#clip-path-58);
      }

      .cls-93 {
        fill: #8a0102;
      }

      .cls-94 {
        clip-path: url(#clip-path-59);
      }

      .cls-95 {
        fill: #4a210e;
      }
    </style>
    <clipPath id="clip-path">
      <rect class="cls-1" x="198.01" y="1045.34" width="46.39" height="73.97"/>
    </clipPath>
    <clipPath id="clip-path-2">
      <rect class="cls-1" x="388.04" y="1029.44" width="46.39" height="73.98"/>
    </clipPath>
    <clipPath id="clip-path-3">
      <rect class="cls-1" x="195.72" y="1088.95" width="118.28" height="55.27"/>
    </clipPath>
    <clipPath id="clip-path-4">
      <rect class="cls-1" x="390.77" y="1076.45" width="102.22" height="51.17"/>
    </clipPath>
    <clipPath id="clip-path-5">
      <rect class="cls-1" x="161.48" y="535.11" width="306.56" height="554.32"/>
    </clipPath>
    <clipPath id="clip-path-6">
      <rect class="cls-1" x="187.62" y="295.48" width="304.62" height="313.23"/>
    </clipPath>
    <clipPath id="clip-path-7">
      <rect class="cls-1" x="373.29" y="1041.05" width="200.05" height="94.12"/>
    </clipPath>
    <clipPath id="clip-path-8">
      <rect class="cls-1" x="350.19" y="954.97" width="232.06" height="119.8"/>
    </clipPath>
    <clipPath id="clip-path-9">
      <rect class="cls-1" x="1254.61" y="1058.43" width="45.5" height="40.76"/>
    </clipPath>
    <clipPath id="clip-path-10">
      <rect class="cls-1" x="1069.53" y="1061.95" width="44.88" height="42.03"/>
    </clipPath>
    <clipPath id="clip-path-11">
      <rect class="cls-1" x="1248.22" y="1086.48" width="70.46" height="33.53"/>
    </clipPath>
    <clipPath id="clip-path-12">
      <rect class="cls-1" x="1061.48" y="1082.78" width="70.46" height="33.54"/>
    </clipPath>
    <clipPath id="clip-path-13">
      <rect class="cls-1" x="1007.92" y="567.53" width="318.92" height="517.18"/>
    </clipPath>
    <clipPath id="clip-path-14">
      <rect class="cls-1" x="1273.24" y="386.48" width="84.42" height="211.49"/>
    </clipPath>
    <clipPath id="clip-path-15">
      <rect class="cls-1" x="1093.33" y="283.38" width="275.57" height="325.05"/>
    </clipPath>
    <clipPath id="clip-path-16">
      <rect class="cls-1" x="546.02" y="1056.81" width="225.3" height="66.17"/>
    </clipPath>
    <clipPath id="clip-path-17">
      <rect class="cls-1" x="555.4" y="1056.81" width="199.01" height="46.25"/>
    </clipPath>
    <clipPath id="clip-path-18">
      <rect class="cls-1" x="546.02" y="1078.3" width="225.3" height="44.67"/>
    </clipPath>
    <clipPath id="clip-path-19">
      <rect class="cls-1" x="760.07" y="349.4" width="77.98" height="269.3"/>
    </clipPath>
    <clipPath id="clip-path-20">
      <rect class="cls-1" x="703.25" y="569.25" width="157.23" height="216.1"/>
    </clipPath>
    <clipPath id="clip-path-21">
      <rect class="cls-1" x="789.67" y="353.56" width="220.06" height="748.54"/>
    </clipPath>
    <clipPath id="clip-path-22">
      <rect class="cls-1" x="792.88" y="1023.97" width="44.35" height="80.79"/>
    </clipPath>
    <clipPath id="clip-path-23">
      <rect class="cls-1" x="962.51" y="1014.28" width="52.62" height="83.7"/>
    </clipPath>
    <clipPath id="clip-path-24">
      <rect class="cls-1" x="790.3" y="1006.36" width="169.39" height="111.46"/>
    </clipPath>
    <clipPath id="clip-path-25">
      <rect class="cls-1" x="965.51" y="996.24" width="165.15" height="112.25"/>
    </clipPath>
    <clipPath id="clip-path-26">
      <rect class="cls-1" x="816.46" y="351.75" width="137.7" height="170.1"/>
    </clipPath>
    <clipPath id="clip-path-27">
      <rect class="cls-1" x="271.91" y="427.08" width="172.24" height="47.45"/>
    </clipPath>
    <clipPath id="clip-path-28">
      <rect class="cls-1" x="288.33" y="375.77" width="306.93" height="639.53"/>
    </clipPath>
    <clipPath id="clip-path-29">
      <rect class="cls-1" x="552.47" y="491.75" width="208.06" height="576.38"/>
    </clipPath>
    <clipPath id="clip-path-30">
      <rect class="cls-1" x="560.65" y="534.12" width="189.72" height="533.89"/>
    </clipPath>
    <clipPath id="clip-path-31">
      <rect class="cls-1" x="663.77" y="596.84" width="125.85" height="204"/>
    </clipPath>
    <clipPath id="clip-path-32">
      <rect class="cls-1" x="666.89" y="606.54" width="108.42" height="192.51"/>
    </clipPath>
    <clipPath id="clip-path-33">
      <rect class="cls-1" x="752.79" y="649.7" width="35.2" height="33.12"/>
    </clipPath>
    <clipPath id="clip-path-34">
      <rect class="cls-1" x="745.73" y="685.88" width="38.34" height="25.91"/>
    </clipPath>
    <clipPath id="clip-path-35">
      <rect class="cls-1" x="778.6" y="478.46" width="159" height="243.24"/>
    </clipPath>
    <clipPath id="clip-path-36">
      <rect class="cls-1" x="1190.93" y="216.73" width="50.33" height="60.98"/>
    </clipPath>
    <clipPath id="clip-path-37">
      <rect class="cls-1" x="1163.37" y="103" width="128.71" height="149.14"/>
    </clipPath>
    <clipPath id="clip-path-38">
      <rect class="cls-1" x="179.5" y="163.88" width="278.31" height="285.16"/>
    </clipPath>
    <clipPath id="clip-path-39">
      <rect class="cls-1" x="179.5" y="163.88" width="278.31" height="285.16"/>
    </clipPath>
    <clipPath id="clip-path-40">
      <rect class="cls-1" x="346.14" y="204.56" width="18.5" height="19.36"/>
    </clipPath>
    <clipPath id="clip-path-41">
      <rect class="cls-1" x="737.58" y="658.73" width="42.6" height="41.73"/>
    </clipPath>
    <clipPath id="clip-path-42">
      <rect class="cls-1" x="741.12" y="666.52" width="36.69" height="29.88"/>
    </clipPath>
    <clipPath id="clip-path-43">
      <rect class="cls-1" x="726.35" y="655.57" width="23.86" height="40.77"/>
    </clipPath>
    <clipPath id="clip-path-44">
      <rect class="cls-1" x="643.59" y="242.77" width="51.13" height="61.75"/>
    </clipPath>
    <clipPath id="clip-path-45">
      <rect class="cls-1" x="608.33" y="140.97" width="116.34" height="133.45"/>
    </clipPath>
    <clipPath id="clip-path-46">
      <rect class="cls-1" x="352.45" y="179.74" width="219.15" height="365.31"/>
    </clipPath>
    <clipPath id="clip-path-47">
      <rect class="cls-1" x="329.42" y="286.38" width="44.96" height="37.65"/>
    </clipPath>
    <clipPath id="clip-path-48">
      <rect class="cls-1" x="350.38" y="229.3" width="570.22" height="325.58"/>
    </clipPath>
    <clipPath id="clip-path-49">
      <rect class="cls-1" x="728.2" y="428.77" width="45.2" height="47.49"/>
    </clipPath>
    <clipPath id="clip-path-50">
      <rect class="cls-1" x="566.13" y="367.27" width="226.29" height="137.41"/>
    </clipPath>
    <clipPath id="clip-path-51">
      <rect class="cls-1" x="833.38" y="176.64" width="117.63" height="134.91"/>
    </clipPath>
    <clipPath id="clip-path-52">
      <rect class="cls-1" x="1058.04" y="1041" width="43.59" height="75.28"/>
    </clipPath>
    <clipPath id="clip-path-53">
      <rect class="cls-1" x="889.25" y="1053.03" width="43.59" height="75.28"/>
    </clipPath>
    <clipPath id="clip-path-54">
      <rect class="cls-1" x="1054.7" y="1082.91" width="133.14" height="58.82"/>
    </clipPath>
    <clipPath id="clip-path-55">
      <rect class="cls-1" x="884.69" y="1088.99" width="121.01" height="58.82"/>
    </clipPath>
    <clipPath id="clip-path-56">
      <rect class="cls-1" x="913.53" y="1083.01" width="233.58" height="32.2"/>
    </clipPath>
    <clipPath id="clip-path-57">
      <rect class="cls-1" x="713.24" y="263.87" width="598.45" height="818.07"/>
    </clipPath>
    <clipPath id="clip-path-58">
      <rect class="cls-1" x="940.91" y="454.76" width="176.61" height="69.54"/>
    </clipPath>
    <clipPath id="clip-path-59">
      <rect class="cls-1" x="944.88" y="117.76" width="214.55" height="227.23"/>
    </clipPath>
  </defs>
  <g>
    <path class="cls-2" d="M512,1002.84l-.41.09,5-.91ZM0,2004.56v-763.4c297.75-254.28,706.17-325,1081.65-233.16,392.3,82.2,673.27,374.63,966.36,624.56,0,0,0,372,0,372S0,2004.55,0,2004.56Z"/>
    <g>
      <g class="cls-3">
        <path class="cls-4" d="M211.12,1119.1c-1.69,0-3.37-.09-5.06-.1h.06c-11.48,0-7.29-5.36-7.51-13.94,1.52-13.66,2.23-27.38,3.57-41.06,1.25-18.12,2.63-14.45,18.77-17.71h0l.26,0h-.09l.29,0,.22,0h0l.16,0h0l.27,0h0c38.16-4.62,14,13.6,18.63,54.92v-.1a53.48,53.48,0,0,0,.4,7.9.06.06,0,0,1,0,0s0,.06,0,.1v0c3.86,15.91-10.25,6.14-24,9.84h.07l-.45,0h.07l-.46.06h.07l-.53.07h.07A38.46,38.46,0,0,1,211.12,1119.1Z"/>
      </g>
      <g class="cls-5">
        <path class="cls-4" d="M401.15,1103.21c-1.69,0-3.37-.1-5.06-.11h.06c-11.48,0-7.29-5.35-7.51-13.93,1.52-13.66,2.23-27.39,3.57-41.06,1.24-18.12,2.63-14.45,18.77-17.72h0l.26,0h-.09l.29,0,.21,0h0l.16,0h0l.27,0h0c38.16-4.61,14,13.6,18.63,54.92v-.1a54.94,54.94,0,0,0,.39,7.91s0,0,0,0a.29.29,0,0,1,0,.09h0c3.86,15.91-10.25,6.14-24,9.83h.07l-.44.06h.07l-.46.06h.07l-.54.06h.07A40.31,40.31,0,0,1,401.15,1103.21Z"/>
      </g>
      <g class="cls-6">
        <path class="cls-7" d="M198,1144c-3.42-17,0-35.94-2-53.54a61.14,61.14,0,0,0,9.09.92h.1c2.66,0,5.34.11,8,.1h0c10.69.37,21.28-1.26,31.67-2,18.24,4.26,81.2,18.13,66.07,45.74-10.68,9-27.8,2.64-40.87,5.33C246,1142.07,221.87,1142.2,198,1144Z"/>
      </g>
      <g class="cls-8">
        <path class="cls-7" d="M396.4,1127.41c-4.06-14.48-2.51-31.15-5.42-46.22a50.81,50.81,0,0,0,7.71.15h.09c2.23-.23,4.49-.29,6.73-.48h0c9.06-.4,17.89-2.7,26.61-4,16.6,2.59,71.8,10.3,57.7,36.27-8.47,5.84-20.22,3.34-30,5.69C438.75,1122.09,417.41,1124,396.4,1127.41Z"/>
      </g>
      <g class="cls-9">
        <path class="cls-10" d="M452,585.21c-.11,1-.19,2.08-.22,3.13a.28.28,0,0,1,.39-.11c0-1.26,0-2.53-.08-3.79C452,584.7,452,585,452,585.21ZM335.91,740.08l.3,1.38a21.84,21.84,0,0,0-.62-3.06C335.7,739,335.8,739.52,335.91,740.08Zm-51.83,349-1.08-.21h.06l-2.38-.5h.05c-39.79-8-79.14-18-119-25.68.1-1.36.24-2.71.41-4.06h0c14.84-100.77,42.43-199,61.15-298.94,12.17-58.18,21.54-117.35,41.73-173.41,4-17.3,8.55-34.87,16-51,.28,1.73-1.65,4.43-2.14,6.37H279c57.53-9.79,114.12,13.7,171.23,18.41,1.47,0,1.7,1.63,1.28,2.78-2.63,9.39-2.56,19.34-.89,28.8.38-3-.59-7.33,1.45-9.54,1.37.62.87,2.75,1.07,4,2.2-.22-.45,4.3-.08,5.54-.27.89.68,4.69-.93,4.05a.21.21,0,0,1,0,.11h0c-7.55,155.95-28.2,316.6,14.89,469.2h0v0h0c.51,1.32,1.12,2.86.62,4.27h0c-8.24,1.24-18.4-2.86-27.17-3.28l.07,0c-.31,0-.69-.19-.95-.11-30.2-5.06-60.62-9.31-90.77-14.46h0a1.33,1.33,0,0,1-.45-.4h0c-.26-.24-.48-.52-.72-.78h0a3.7,3.7,0,0,1-.9-1.24h0c-5.82-50.31-5.63-101.69-6.42-152.44.58-51.34,3.6-103-6.56-153.55h0c-.38-2.74-.9-5.46-1.14-8.21h0c-.49-3.19-.79-6.43-1.56-9.57h0c-.62-2.71-1.19-5.46-1.57-8.22-22.74,122.92-28.79,248.46-44.9,372.2Z"/>
      </g>
      <g class="cls-11">
        <path class="cls-12" d="M466,608.3c0-.25.43-.25.42,0S466,608.56,466,608.3Z"/>
        <path class="cls-12" d="M472.74,578.44c0-.26.43-.26.42,0S472.74,578.69,472.74,578.44Z"/>
        <path class="cls-12" d="M357.83,304.37a2.27,2.27,0,0,1,1.08-1.08h0l0,0h0l.2-.12-1.35,1.26Z"/>
        <path class="cls-12" d="M358.08,302c-.16-.19-.43-.23-.6-.45a13.47,13.47,0,0,1,6.75-3.46c-1.27,1-2.62,1.85-3.73,2.87h0c-.69.66-1.65.42-2.42,1.11A.15.15,0,0,0,358.08,302Z"/>
        <path class="cls-12" d="M356.91,301.26c0-.15-.06-.3-.1-.45a11.14,11.14,0,0,1,2.19-1.08l-.38.33,0,0A13.63,13.63,0,0,1,356.91,301.26Z"/>
        <path class="cls-12" d="M244.26,438.93c-.63-.32-1.26-.65-1.89-1Zm10.91-.1c12,5.54,23.64,11.62,35.46,17.42,6.12-26.45,12.87-53.18,20.15-79.51-27.29,13.54-52.07,32.31-75.28,52,1.28.69,2.58,1.32,3.86,2l-.3-.16c3.32,1.72,6.6,3.53,9.95,5.2l-.29-.15.56.29-.29-.15C251,436.8,253.1,437.85,255.17,438.83Zm105,28.72c-.7,1.08.89,1.36,1.3.39l-.05.06c2.41-2.7,4.69-5.5,7.11-8.18,0,0,0,0-.05.05.7-.77,1.39-1.56,2.08-2.34l-.05.06c4.69-5.24,9.52-10.41,14.67-15.2h0c.56-.47,1.08-1,1.67-1.38l-.06,0a7.58,7.58,0,0,1,.91-.52h0c.92-.2,3.14-1.65,1-1.81-7.74,4.08-13,11.91-19.1,18l.05-.07c-2.65,3-5.27,6-7.82,9h0l0,0h0l-1.23,1.37h0l0,.06h0l-.06.05,0,0Zm90.31,92.2c-45.3-7.28-91.21-8.74-137-9.83-12.14-.13-24.49-.74-36.64-1.28-.81,0-2.07.09-2-1,1.76-6.73.44-13.39,2.33-20,8.43-47.26,13.94-27.49-28-53.82h0l-.3-.14,0,0c-2.23-1.22-4.39-2.51-6.54-3.84h0l-.23-.13.14.08c-17.91-10.58-37.09-20-54.15-31.55l0,0a2,2,0,0,1-.11-.26h0a5.08,5.08,0,0,1-.1-2.92h0c22.81-28,54-49,81-72.75,2.48-8.93,3.64-17.6,13.24-21.21v0h0c-2,5.11-4,10.33-5.91,15.43,12.47-5.22,7.68-17.28,17.53-21.82h0c-1.11,3.75-2.16,7.63-3.08,11.23,19.48-13.67,39.57-29.7,64.64-26.86,7.61-.3,16.55,2.76,23.46-1.4h0a7.89,7.89,0,0,0,.8-.84h0c6.39-14.26-15.69-10-23.61-9.89h0c0-2,11.1-8.68,7.11-6.83-.86,0-1.51,1-2.38,1.15h0v0h0l0,0,0,0,0,0h0l.07-.06h0c.84-1.17,3.22-1.73,3.66-2.78h0c24.48-8.05,52.47,5.87,73.59,17.72,10.47,17,29.66,26.47,38.2,44.64,8.82,28.91,12,59.93,15.72,89.85-3,23.06-16.87,41.76-32.13,58.43-13.83,15.81-24.38,34.48-43,45.32a.29.29,0,0,1-.13.5c11.47,1,23,2.66,34.33,4.3C452,559.3,451,559.93,450.49,559.75Z"/>
      </g>
      <g class="cls-13">
        <path class="cls-14" d="M379.74,1055.19c0-.55,0-1.09,0-1.64l0,.29h0c0,.25,0,.5,0,.76h0c0,.07,0,.13,0,.19v0Zm38.18,16.19c-13.22-.58-26.34-1.25-39.52-.12.32-4.33.89-8.64,1.21-13v0c-.19-3.22-.59-6.39.93-9.82h0c.16-.78,1-1,1.62-1.24h0c2.24-.62,4.53-1.07,6.79-1.62h0l.37-.07h0c11.12-2,22.45-2.55,33.61-4.34,3,3.14-4.06,24.24-4.67,30.14Z"/>
        <path class="cls-14" d="M508.5,1086.1c.29-1.23.57-2.46.83-3.7a0,0,0,0,0,0,0c.05-.26.11-.52.16-.77v0a94,94,0,0,0,1.56-10.84v0a.28.28,0,0,1,0-.09h0c0-.21,0-.42,0-.63v0c.13-1.61.09-3.24.25-4.84l-.15.15h0c0,.24-.31.45-.48.19,0-1,1.56-1.74,2.43-2.06h0l.32-.14h0a3.77,3.77,0,0,0,.48-.28l0,0c1.83-1.15,3.16-2.93,5.07-4h0a49.27,49.27,0,0,1,5.56-3.18l0,0c5.64-2.58,11.54-4.57,17-7.49l0,0c1.47-.25,6.85-4.37,7.22-2.28-1.42,11.71-2.63,23.53-5.25,35-11.73,1.32-23.37,3.43-35,5.19C508.42,1086.42,508.46,1086.26,508.5,1086.1Z"/>
        <path d="M560.88,1091.62a2.27,2.27,0,0,1-.57-.2l.05,0c-.1,0-.19-.08-.29-.12h0c-1.13-.58-2.68-.24-3.06-1.67C557.75,1089.64,562.46,1090.75,560.88,1091.62Z"/>
        <path d="M558.32,1117.11c2.35-1.13,4.73-2.19,7.17-3.08h0l0,0h0c6.81-1.89-6.88,4.11-8,4.67C557.78,1118.16,558.05,1117.63,558.32,1117.11Z"/>
        <path d="M376.09,1129.18v0a4.15,4.15,0,0,1-.27-.32h0a0,0,0,0,1,0,0c-1.55-16.89.42-34.54-2-51.47a1.63,1.63,0,0,1,.57-.17c-1.9-8.25,3.68-5.57,9.23-6,11.45-1.85,23.12.22,34.66.17.94.13,2.88-.35,2.58,1.14-.21,4.28-2.57,8.43-3.45,12.67-.7,1.46,1.78,1,2.56,1.07A169.32,169.32,0,0,1,452.3,1093c11,2.83,39.45,14.79,22.46,28C442.37,1125.57,408.5,1126.26,376.09,1129.18Z"/>
        <path d="M416.43,1078.1c-.53-1.63,2.11-3.31,2.68-4.92a.16.16,0,0,0,0,.07c.16-.3.31-.6.44-.91l0,.08a5.28,5.28,0,0,0,.34-1.11v.09a.28.28,0,0,0,0-.09,20.2,20.2,0,0,0-2.06-.38h0c-5.11-2.07-50.12,1.29-39.74.1h.19c13.31-.91,26.66-3,40-1.45h0l.28,0h0C424.27,1069.31,418.57,1077.35,416.43,1078.1Z"/>
        <path d="M380.94,1072c-.61-.44.56-.56.88-.67h0l.25-.07h0l.31-.08h0c12.35-1.53,24.54-1.92,36.67-.21,1.05-.63,1.8,1.46.38.8-7.19-1.08-17.31.37-23.59-.83-.51.08-4.17.57-2.61-.36-2.47.28-5.13.46-7.49.84h0l-.09,0h0c-.14,0-.27,0-.4,0h0A18.43,18.43,0,0,1,380.94,1072Z"/>
        <path d="M417.37,1083.53c-.62-1.63.95-4,1.51-5.65v0l.09-.22v0a20.89,20.89,0,0,0,.85-2.33v0a33.05,33.05,0,0,0,.67-3.26h0c0-.36.15-.77-.06-1.08h0a.26.26,0,0,0-.1-.07h0l-.09,0,0,0-.13,0h0l-.18,0h-.22c-.89.23-.11-.74.54-.34h0c2.24,3.19-1.61,8.17-2.25,11.72v0C417.8,1082.65,418,1083.54,417.37,1083.53Z"/>
        <path d="M415.85,1087.47c-.17-2.8,2.06-5.93,3.11-8.64a0,0,0,0,1,0,0,36,36,0,0,0,1.5-4.31h0a18,18,0,0,0,.52-2.31h0a1.54,1.54,0,0,0,0-.74v0l0-.07h0v0h0l0,0v0l-.06-.07h0v0h0l-.1-.07h0a1.71,1.71,0,0,0-.23-.13h0l-.13-.05h0c-.34,0-.63-.43-.17-.46,2.9.94-.55,6.82-1,8.94,0,0,0,0,0,0-.52,1.21-1.13,2.38-1.66,3.58h0v0h0C416.86,1084.48,416.85,1086.52,415.85,1087.47Z"/>
        <path d="M415.35,1088.16c-.27-2.46,2.43-5.2,3.14-7.73v0c.9-2.22,1.71-4.47,2.41-6.75v0c.13-.5.23-1,.32-1.49a0,0,0,0,1,0,0c0-.48.21-1.09-.18-1.46h0a.26.26,0,0,0-.09,0h0l-.13,0h0a1.63,1.63,0,0,0-.66,0h0l.06,0c-.34.23-.48-.39-.08-.38,3.9.1-.64,8.29-1.09,10.44h0c-.82,1.91-1.78,3.75-2.69,5.61v0C416,1086.85,416.14,1088.18,415.35,1088.16Z"/>
        <path d="M420.51,1073.71c0-.59.06-1.2,0-1.79h0s0-.06,0-.1v0c-.06-.21,0-.43-.07-.64h0c.41-2,2.08,1.47.65,1.9C421.1,1073.46,420.86,1074.3,420.51,1073.71Z"/>
        <path d="M420.51,1073.62c-.38-.2.07-.64.14-.93h0a6,6,0,0,0,.23-.59v0a5.41,5.41,0,0,0,.12-.58v0a.88.88,0,0,0,0-.28h0v0h0a1.26,1.26,0,0,0-.51-.83h0a.92.92,0,0,0-.23-.09h0a1.55,1.55,0,0,0-.31-.06h0a1.53,1.53,0,0,0-.37,0h-.09l0,0h0l0,0h0s0,0-.05,0l0,0,0,0h0s0,0,0,0h0l0,0h0v0h0c-1.37.66.85-2,2,.57v0C421.6,1071.73,421.23,1073.3,420.51,1073.62Z"/>
        <path d="M419.16,1076.45c-.3-.06-.31-.4-.17-.62h0c.08-.19.15-.39.22-.58h0C419.82,1074.52,419.83,1076.63,419.16,1076.45Z"/>
        <path d="M417.76,1071.62c-.21-.25-.22-.84.21-.84h0l.11,0h0c.65-.34,1.26.22.53.67h0a1.67,1.67,0,0,1-.23.12l0,0C418.19,1071.65,418,1071.81,417.76,1071.62Z"/>
        <path d="M420.87,1071.36c-.26,0-.16-.34-.2-.52h0s0,0,0,0h0a.45.45,0,0,0-.07-.18h0l0,0h0s0,0,0,0h0l-.05,0h0l-.18-.09h0c-.18,0-.5,0-.39-.3h0C420.51,1069.52,421.62,1071.06,420.87,1071.36Z"/>
        <path d="M420.84,1071a.94.94,0,0,0-.06-.28h0l0,0h0l0,0h0a.28.28,0,0,0-.09-.1h0l-.07,0h0l-.06,0h0c-.72-.2.09-.66.41-.22C421.37,1070.46,421.29,1071.66,420.84,1071Z"/>
        <path d="M419.72,1071.93c-.11-.23.28-.46.42-.24S419.85,1072.19,419.72,1071.93Z"/>
        <path d="M419.58,1074.24c0-.82,1-1.74,1.48-2.52l0,0,.16-.23h0l0-.08h0v0c-.12-.09-.06-.24-.08-.36h0v0h0a.13.13,0,0,0,0-.06c-.25.2-.53-.15-.54-.39-.14,0-.25-.09-.39-.11h0c-1.29-.61,1.34-.48,1.38.3v0a1.13,1.13,0,0,1-.3,1.37h0C420.66,1072.68,420.37,1074.05,419.58,1074.24Z"/>
        <path d="M381.14,1072c-1-.54,1.49-1.39,1.95-.92.21.26-.27.81-.52.52-.29.2-.71.13-1.05.22h0C381.35,1071.76,381.31,1072,381.14,1072Z"/>
        <path d="M374.77,1080.16a45.25,45.25,0,0,1-.65-5.82v0c0-1.1-.45-3,1.08-3.21h0a1.73,1.73,0,0,1,.68-.05h0c.9-.1.68.59-.09.4h-.27l-.27.06h0a1.4,1.4,0,0,0-.29.09h0l-.1.07h0a.8.8,0,0,0-.15.17v0l-.05.1h0v0h0a1.17,1.17,0,0,0-.09.42v0c-.06.92,0,1.84,0,2.76h0c.2,1.53.28,3.08.5,4.61v0C375.26,1080,375.07,1080.59,374.77,1080.16Z"/>
        <path d="M374.53,1079.21a16.66,16.66,0,0,1-.47-4.41v0a9.18,9.18,0,0,1,0-1.57v0c-.1-1.43.86-2.65,2.31-1.82h0c.65.15-.06.65-.39.26h0l-.09,0h0l-.1,0h0a1.55,1.55,0,0,0-.31,0h0a1.7,1.7,0,0,0-.39,0h0l-.12,0h0l-.12.06h0l-.07,0h0a.33.33,0,0,0-.11.15v0a.61.61,0,0,0-.05.12v0c0,.09-.05.18-.07.26v0a9,9,0,0,0-.15,1v0s0,.09,0,.13v0a5.61,5.61,0,0,0,0,.82v0c.08.79.07,1.58.11,2.37v0a21,21,0,0,0,.22,2.1h0C374.89,1078.87,375,1079.64,374.53,1079.21Z"/>
        <path d="M376,1091.09c-.45-2-.71-4.08-1.14-6.11v0c-.72-3.53-1.55-7.19-1.26-10.81v0c-.32-5,4.49-2.5,2.59-2.66h0l-.18,0h-.74a1.79,1.79,0,0,0-.4.09h0l-.18.07h0a.64.64,0,0,0-.16.11v0l-.09.1v0a.47.47,0,0,0-.06.09v0l-.11.19v0a1.53,1.53,0,0,0-.11.27v0l-.09.35v0c-.08.44-.1.9-.15,1.34v0c0,.1,0,.19,0,.28v0c0,.28-.06.55-.08.83v0a20.25,20.25,0,0,0,0,2.06v0c.29,2,.53,3.94.85,5.9h0c.57,2.36,1,4.74,1.38,7.12h0C376.26,1090.37,376.61,1091.64,376,1091.09Z"/>
        <path d="M373.86,1079.13c-.88-2.75.92-9,.89-2.49h0c-.1.41.59,1.91-.16,1.67.05.23.06.71-.3.54C374.35,1079.12,374.05,1079.5,373.86,1079.13Z"/>
        <path d="M416.77,1088.53c-.44-.44.1-1.4.13-2v0a.44.44,0,0,1,0-.1v0c.19-.92.23-1.88.43-2.8v0c.85-.68-.05,2.42,0,2.9v0l-.15.66h0C417,1087.61,417.23,1088.42,416.77,1088.53Z"/>
        <path d="M425.81,1087.87c-2.8-.1-5.47-1.11-8.2-1.61h0l-.53-.11h0l-.17,0h0c-1.12,0-1-.73.1-.39h0l.62.12h0c2,.38,3.95,1,5.94,1.35h0c.52.1,1,.18,1.57.23h0C425.41,1087.39,426.47,1087.5,425.81,1087.87Z"/>
        <path d="M426.71,1087.57a54.78,54.78,0,0,1-6.75-1.06h0l-1.46-.28h0l-1.26-.27h0c-2.41-.45.29-.61,1.14-.17h0l.23,0h0c.93.17,1.86.36,2.78.57h0C422.18,1086.84,427.53,1086.78,426.71,1087.57Z"/>
        <path d="M465.1,1099l-.34-.18h0a97.17,97.17,0,0,0-11.87-5.34h0a55.75,55.75,0,0,0-6.45-1.84h0l-.79-.18h0l-1-.23h0l-.14,0h0l-2.25-.5h0a51.8,51.8,0,0,0-5.42-.86h0c-5.38-.81,4.18-.17,5.38.43h0l2.34.53h0l.16,0h0l.84.19h0l.24,0h0l.8.18h0C452.54,1092.87,461.32,1095.56,465.1,1099Z"/>
        <path d="M465.79,1099.54c-1-.68-2.09-1.22-3.15-1.8h0l-.11-.06h0l-.24-.13h0a75.56,75.56,0,0,0-9.48-4.07h0a90.38,90.38,0,0,0-11.17-3.15h0c-2.22-.41-4.43-.87-6.66-1.12h0c-.8-.06-1.61-.15-2.42-.13h0l-.15,0h-.06c-.52,0-.14-.54.22-.44h0c7.11.33,14.12,2.25,20.82,4.58h0a71.41,71.41,0,0,1,9.41,4.1h0C463.31,1097.82,466.8,1099.06,465.79,1099.54Z"/>
        <path d="M505.53,1135c-9.69,3.69-.18-41.32-.4-47.62h0c13-2.65,26.72-4.46,40-6.17.69,0,4.93-1.1,3.66.22a125.54,125.54,0,0,1-4.34,17.12c6.29-3.45,14.42-7.78,21.49-6.33.59,2.34-8.45,1.32-10.38,2.83,5.14,5.1,1.7,20,0,26.75,3.17-1.29,15.41-7.2,17.58-4.82-2.54,2.15-8.49,2.44-11.85,4.15C543.77,1128.46,524.37,1132.38,505.53,1135Z"/>
        <path d="M543.93,1097.16c-.25-1.76,1.21-3.78,1.71-5.54h0c.45-1.37.89-2.75,1.38-4.12h0a.88.88,0,0,1,.05-.15h0c.59-1.78,1.07-3.61,1.58-5.43v0a.5.5,0,0,1,0-.12v0a4,4,0,0,0,.07-.5h0a1.09,1.09,0,0,0,0-.18v0h0c.08-1,.64.33.31.79h0c-.54,1.91-1,3.85-1.68,5.73h0c-.82,2.45-1.64,4.89-2.63,7.27v0C544.37,1095.59,544.52,1096.83,543.93,1097.16Z"/>
        <path d="M548.12,1083c-.67,0,.21-2.07.65-1.61C549.45,1081.42,548.47,1083.16,548.12,1083Z"/>
      </g>
      <g class="cls-15">
        <path d="M442.28,1067.82a1.34,1.34,0,0,1-.35,0h0c-1-.32-1.83-.93-2.78-1.29h0l-.5-.21h0c-.79-.32-1.6-.6-2.42-.84h0a51.44,51.44,0,0,0-6.61-1.29h0a253.12,253.12,0,0,0-26.4-1.48h-1.58l-6.67.14h0a320,320,0,0,1-42-3h0l-.3-.1h0c-.26-.09-.52-.19-.79-.27h0c-1.23-.25-1.78-1-1.37-2.2h0a4.91,4.91,0,0,0,0-.55v0c1.3-20.76,9-40.69,11.39-61.36v0c0-.33.09-.66.13-1h0v0h0c0-.21.06-.41.08-.62h0c0-.27.07-.55.11-.82h0l0-.21h0v0h0c1.15-8.32,1.14-16.74,1.84-25.09a0,0,0,0,1,0,0c.05-.76,1.23-3.61,2.05-3.07,11-7.7,25.9-8.66,39-9.2h-.06c3.49.08,7-.21,10.46-.25h.21a48.44,48.44,0,0,1,15.51,3l-.07,0c5.87,2.68,12.95,0,18.52,2.95l-.06,0a1.56,1.56,0,0,0,.36.23h0c4.1,31.13-3.83,69.78-4.42,103.29h0a6.92,6.92,0,0,1-.72,2l0,0a3.45,3.45,0,0,1-.67.54h0a5.75,5.75,0,0,1-.82.42h0a4.75,4.75,0,0,1-.63.23h0A2,2,0,0,1,442.28,1067.82Z"/>
        <path d="M495.64,968.21a20,20,0,0,0,2.56-.25h0l.28-.05,0,0,0,0-.3-.19h0a4.39,4.39,0,0,0-1.09-.42h0c-.22,0-.45-.09-.68-.12h0a4.37,4.37,0,0,0-2,.15h0c-.63.19-1.26.39-1.88.61a14.06,14.06,0,0,0,1.45.21h0C494.59,968.2,495.11,968.21,495.64,968.21ZM494.28,1068a2,2,0,0,1-.08-.41c0,.14,0,.28,0,.41Zm65.19,6.51c3.32-2.92,8.19-5.08,12-7.82-2.6-.25-5.21-.27-7.81-.26h0c-16.78.52-32.88,6.53-49.56,7.91h0c-5.47-.26-16.37.34-19.93-4.07-1.5-28.15-3-56.61-3.88-84.89-.19-5.4-.34-10.81-1-16.17-.71-2.91,2-1,3.52-2.06l0,0a35.32,35.32,0,0,1,18.28-.77h0a73.53,73.53,0,0,0,7.57.09h.83a39.43,39.43,0,0,1,4.35,0h0c3.9.53,7.84,1.3,11.68,2.09l.44.11h0l.12,0h0c5,1.59,11,2.31,14.28,6.72h0l0,0h0l.05.05h0l0,0h0c.57.48,1.16.94,1.75,1.4l0,0,.1.08h0c4.49.4,4.51,4,3,2h0a3.32,3.32,0,0,0-.26-.36l0,0-.25-.27,0,0-.17-.14,0,0-.06,0c6.56,13,12.82,26.33,16.65,40.39h0c3.71,12.19,5.19,25.05,9.83,36.93l0,0a.87.87,0,0,1,.07.17s0,0,0,0C586.1,1062.08,563.84,1071.12,559.47,1074.47Z"/>
        <path d="M351.58,1059.37a5.33,5.33,0,0,1-1.08-.51h0v0h0v0h0a6.86,6.86,0,0,1,.1-2.92h0a.2.2,0,1,1,.39.12h0l0,.07h0a2.45,2.45,0,0,0-.08.29s0,0,0,0c0,.24-.06.49-.08.73v0c0,.45,0,.9,0,1.36v0a1.57,1.57,0,0,0,0,.23h0a.23.23,0,0,0,0,.11v0l.05.06,0,0,0,0h0l0,0h0l0,0h0l.06,0,0,0c.23.15.8.17.73.53Z"/>
      </g>
      <g class="cls-16">
        <path class="cls-17" d="M1295.18,1098.83c-6.42-3-24.29,2.15-16-9.39l-.07,0c-8.16.33-16.26,1.4-24.26,1.78.19-6.76.9-13.69,1.47-20.37v.09c-.78-13.89,15.23-12.9,25.23-11.72,5.87,1.59,14.94.77,18.13,6.8h0v0l0,.07,0-.07c-.3,10.86-2,22.11-3.55,33Z"/>
      </g>
      <g class="cls-18">
        <path class="cls-17" d="M1110.11,1103.77c-6.13-1-12.25-1.44-18.42-2.21-1.26-2,1.12-5.41,1.91-7.39l-.07,0c-7.92.18-16.17,1.78-23.79,1.7.62-9.93.59-20.22,3.19-29.8,11.49-7.08,26.72-3.57,38.65.76C1117,1068.36,1110.46,1098,1110.11,1103.77Z"/>
      </g>
      <g class="cls-19">
        <path class="cls-20" d="M1299.84,1119.8c-11-.64-22-1.46-33-1.17h0c-4.33-.64-17.41,2.3-18.1-3.27-1.27-22.82,5.9-32.11,29.2-28,17.39,0,34.44,6.57,39.33,24.86C1322.18,1121.52,1305.06,1118.77,1299.84,1119.8Z"/>
        <path class="cls-20" d="M1286.42,1088.73h0c-2.14-.31-4.26-.78-6.42-1h0c-3-.19-6.11-.25-9.16-.22h0c-.69,0-1.38.06-2.08.07h0c-.84.05-1.69.17-2.53.15h0q-1.1.06-2.19.06h0c-.22,0-.44,0-.66,0h0c-.83-.63,1.31-.4,1.71-.43h0c.62,0,1.24-.07,1.86-.07h0c.87,0,1.74-.18,2.61-.15h0a69.54,69.54,0,0,1,16.74,1.13h0C1286.65,1088.22,1286.82,1088.73,1286.42,1088.73Z"/>
        <path class="cls-20" d="M1298.54,1092.41c-1.42-.62-2.79-1.34-4.24-1.87h0l-.16-.06h0l-.14,0h0a52.57,52.57,0,0,0-6-1.84h0a38.58,38.58,0,0,0-4-.68h0c-3.59-.26-7.18-.56-10.78-.51h0c-2.18.12-4.36.21-6.53.52h0c-.29-.05-.55.33-.78.14C1275.42,1085.55,1291,1087.08,1298.54,1092.41Z"/>
      </g>
      <g class="cls-21">
        <path class="cls-20" d="M1113.1,1116.1c-11-.64-22-1.46-33-1.17h0c-4.34-.63-17.41,2.3-18.11-3.26-1.27-22.83,5.91-32.11,29.2-28,17.39,0,34.45,6.58,39.33,24.87C1135.43,1117.82,1118.32,1115.07,1113.1,1116.1Z"/>
        <path class="cls-20" d="M1099.68,1085h0c-2.14-.31-4.25-.79-6.41-1h0c-3-.2-6.11-.25-9.17-.23h0c-.69,0-1.39.07-2.08.08h0c-.85,0-1.69.18-2.54.16h0c-.73,0-1.46.06-2.19,0h0c-.21,0-.44,0-.65,0h0c-.82-.63,1.31-.4,1.72-.44h0c.62,0,1.23-.06,1.86-.06h0c.87-.05,1.73-.18,2.61-.15h0a69.57,69.57,0,0,1,16.74,1.13h0C1099.91,1084.52,1100.07,1085,1099.68,1085Z"/>
        <path class="cls-20" d="M1111.8,1088.7c-1.42-.61-2.8-1.33-4.24-1.86h0l-.17-.06h0l-.14,0h0a52.12,52.12,0,0,0-6-1.84h0a38.58,38.58,0,0,0-4-.68h0c-3.58-.26-7.18-.57-10.78-.52h0c-2.19.12-4.37.22-6.53.53h0c-.28,0-.54.33-.77.15C1088.67,1081.85,1104.22,1083.38,1111.8,1088.7Z"/>
      </g>
      <g class="cls-22">
        <path class="cls-20" d="M1297.92,874.17c-.16-2.26-.31-4.68-.41-6.09Q1297.71,871.1,1297.92,874.17Zm-77.11,3.66c0-.66-.11-1.89-.13-2.11S1220.78,877.27,1220.81,877.83Zm82.54,107.43c.06-1,.14-2.06.19-3.09C1303.48,983.2,1303.41,984.23,1303.35,985.26ZM1301.9,1009c.06-1.07.15-2.15.2-3.22C1302,1006.84,1302,1007.91,1301.9,1009Zm-293.37,73.45c42.14-150.92,58.41-300.25,87.35-454.06,5.35-50,69.81-29.18,105.65-44.32,27.32-3.67,62.81-16.88,90.53-14.21,28.68,154.4,27.43,332.65,34.57,493-11.39-.41-100.52,18.54-95.12,2.77-16.8-130.11-25.78-261.67-48-391.2-15.06,91.87-30.4,199.77-44.77,297.14C1123.61,1090.24,1121.38,1081,1008.53,1082.43Z"/>
      </g>
      <g class="cls-23">
        <path class="cls-24" d="M1275,597.53a.74.74,0,0,1-.22-.43c-3.65-.76,1.09-11.84,1.35-14.71,4.65-15.39,7.82-31.23,11.2-46.94h0s0-.05,0-.07h0s0,0,0,0h0c1.14-2.76-.07-7.37,2-9.18a69.14,69.14,0,0,1,5.24-13.2h0v0h0c.48-.93.94-1.87,1.42-2.8l0,.05c3-5.87,6.14-11.64,9.14-17.5l0,.07a134,134,0,0,0,12.05-34.8v0c.17-.8.33-1.61.49-2.41h0a216,216,0,0,0,3.71-25.44s0,.06,0,.09c.06-.84.12-1.67.17-2.5v0a68.23,68.23,0,0,0,0-8.58.45.45,0,0,1,0,.11c-.15-2.78-.59-5.52-.94-8.28-2.63-1,1.13-2.37,2.06-3.15h0c.8-.55,1.64-1.07,2.45-1.61l0,0a60.47,60.47,0,0,1,6-4.16l0,0,.22-.15h0c5.76-2.66,14.17-13.05,20.23-7.73,2.22-1.43,2.61,4.43,3.68,5.64C1367.82,473.28,1325.91,547.78,1275,597.53Z"/>
        <path class="cls-24" d="M1355.25,395.72l0,0c0-.21,0-.43,0-.65C1355.25,395.27,1355.25,395.49,1355.25,395.72Zm0,10.2c0,.85,0,1.69,0,2.54.1-1.67.17-3.34.22-5h0v-.07c0-.6,0-1.21,0-1.81a.67.67,0,0,1-.24,0v.16h0v.18c0,.24,0,.48,0,.72h0C1355.22,403.74,1355.24,404.83,1355.24,405.92Zm-2.07,22.78c-1.9-5.34.7-12.62.19-18.6V410a1.69,1.69,0,0,1,0-.23h0c0-.15,0-.31,0-.46v.12c0-.18,0-.37,0-.55v-.1h0c0-.06,0-.13,0-.2v-.06h0v-.21a.49.49,0,0,0,0-.12V408h0a1.93,1.93,0,0,1,0-.24v-.09c.77-1.95-1.6-17.6,1.61-14.9v0h0s0-.07,0-.11v0a24.74,24.74,0,0,0-1-4.74l0,0a.82.82,0,0,1,.26-1.1c2.25-.34,1.82,4,2.36,5.54h0a1.64,1.64,0,0,1,0,.23v-.05l.06.54h0v0c0,.07,0,.14,0,.21v0a118.26,118.26,0,0,1-.7,25.16v0h0a.29.29,0,0,1,0,.09h0v0c0,.17,0,.33-.07.49V419c0,.13,0,.25-.06.38a.51.51,0,0,0,0-.13l-.06.38v-.05l-.18,1.07v0c-.11.68-.22,1.36-.34,2a.51.51,0,0,0,0-.13c0,.12,0,.23,0,.34h0c0,.21-.07.42-.1.63,0-.05,0-.09,0-.13,0,.15,0,.3-.07.45h0a.59.59,0,0,0,0,.13v0s0,.08,0,.12v0C1354.57,425.39,1355.36,429,1353.17,428.7Z"/>
      </g>
      <g class="cls-25">
        <path class="cls-26" d="M1095.62,439.44c-.26.57-.31.94.13,1.36C1095.65,440.49,1095.76,439.23,1095.62,439.44ZM1140,387.2c-55.28,48.71-41.22,62.58-28,128.46C1121.76,483.51,1136.59,427.43,1140,387.2Zm74.71,220.89c-24-.19-47.91-1.89-71.8-1.1-24.48,4.1-22.15-32.8-23.57-49.38-64.69-184.74-5.87-251.26,184.57-266.48,2.71.37.77-1.39,1.18-3.11,0-2.2,3.63-3.22.17-3.62-.22-.24-1.08,1-.76-.09,1.54-1,3.66.8,5.2,1.45.44-.41-4.07-1.63-3.71-2.17,33.52,13.42,51.45,50.39,58.33,84,11.34,25.87-9,29.31-26,41.91h0l-2.66,1.81h0c-37,33.78-25.29-.24-39.35-29.09,2.33,56.08,6.84,113.91,4.32,170.16v0c-.27,11.7-.07,23.84-.72,35.26v0c3.38,22.09-6.62,19.66-24.92,19.32C1254.33,606.43,1235.38,608.67,1214.74,608.09Z"/>
      </g>
      <g class="cls-27">
        <g class="cls-28">
          <path class="cls-10" d="M558.73,1085.28c-1.74,0-3.82-.58-2.88-2.7,1.31-7.29,2-14.64,3.57-21.87,13.58-.92,27.25-2.24,40.9-3.41,1.89,0,5.67-1.34,5.57,1.71a103.54,103.54,0,0,1-1.82,17.26c-1.5,8.53-.83,5.1-8.86,5.9C582.94,1081.92,570.94,1085.15,558.73,1085.28Z"/>
          <path class="cls-10" d="M599.36,1089.36c-.74,0-1.47-.08-2.2,0h0c-3.72.23-4.36-.68-.33-.4h0c1.12-.08,2.25.11,3.36,0h0l.31-.08h0l.22-.11h0l.12-.09h0a.64.64,0,0,0,.25-.38h0a42.26,42.26,0,0,0,.8-4.47v0c.62-5.74,1.79-7.43.44-.35h0C601.71,1085.49,602.39,1089.69,599.36,1089.36Z"/>
          <path class="cls-10" d="M600,1091.44c-.71-.22-1.37-.55-2.09-.71h0c-6.35-.44-3.83-8.42-2.59-12.39.19-.5,1.18-.28.49.1h0l-.13.07h0l0,0h0l0,0h0v0h0l0,.07h0c-.25.66-.44,1.35-.63,2h0v0h0a28.22,28.22,0,0,0-.74,6v0a8.28,8.28,0,0,0,.09,1h0a5.66,5.66,0,0,0,.15.59v0a3.93,3.93,0,0,0,.14.41h0l.12.24v0a.71.71,0,0,0,.1.14h0a1.54,1.54,0,0,0,.17.19v0a3.86,3.86,0,0,0,1.6.87h0a26.58,26.58,0,0,1,3.73,1.09h.17c.07,0,.08-.13.11-.19h0a3.59,3.59,0,0,0,.12-.39h0v0h0c1.14-5,1.87-10.57,3.08-15.35C603.91,1076.66,601.69,1092.57,600,1091.44Z"/>
          <path class="cls-10" d="M600.69,1082.87a.21.21,0,0,1,.41,0A.21.21,0,0,1,600.69,1082.87Z"/>
          <path class="cls-10" d="M600.63,1085.72c-.48-.24,0-1.07,0-1.53-.32,1.86-.85.89-.46-.36,0,.79-1,1.81-.88.45,0,.8-.85.62-.75,0a.2.2,0,0,1-.32-.09c-.33.14-.33-.28-.26-.49a.21.21,0,0,1-.25-.21c-.12.67-.65.25-.51-.25.12.72-.85.89-.7.14a.21.21,0,0,1-.19,0c-.24.84-.55-.16-.42-.56-1.08,1.6.41-4.42.42-1.29a.24.24,0,0,1,.22,0c.07-.37.53-.28.49.09a.27.27,0,0,1,.14.05c.21-.35.51,0,.44.31,0-.41.46-1.44.65-.58a.21.21,0,0,1,.23,0,.23.23,0,0,1,.37.08.23.23,0,0,1,.14,0c0-.89.95-1.12,1-.13.14-.11.1-.56.42-.39.31-.51.51.17.4.48,0-.14.14-.31.31-.26a.21.21,0,0,1,.37-.08c.51-.56.45.54.41.85a.21.21,0,0,1,.14-.12c-.14-.52.5-1.2.43-.33h0s0,.1,0,.14c1.15-.27-1.07,5.28-1.31,3.71a.21.21,0,0,1-.19,0C600.86,1085.47,600.85,1085.72,600.63,1085.72Z"/>
          <path class="cls-10" d="M751.35,1085.71c-.29,2.82-.65,5.7-.92,8.52a63.51,63.51,0,0,0,1-9C751.4,1085.38,751.37,1085.55,751.35,1085.71Zm-42.7,17.14c-.92-2.74,0-6.28,0-9.1v0c.19-6.87.9-14,1.47-20.88h0v-.06h0v0a.59.59,0,0,0,0-.14s0,.06,0,.09a73.45,73.45,0,0,1,1.69-8.4h0c11.88-7.15,27.66-3.48,40,.8,0-.44.62-.17.43.14.2.08.49.19.71.3h0c.19-1.72.53.1.69.7,1.43-4.13-1,11-1.17,12.32,0,2.1-2.36,26.3-3.12,22.18a2.9,2.9,0,0,1-1.3-.21s0,.08,0,.1c-.19.41-.59,0-.49-.3-6.31-3-22.56,2.34-14.53-9.17-8,.24-16.22,1.64-24,1.72C708.7,1096.15,709.27,1099.92,708.65,1102.85Z"/>
          <path class="cls-10" d="M711.35,1063.12c.12-3.13.8-1,.46.67A1.17,1.17,0,0,0,711.35,1063.12Z"/>
          <path class="cls-10" d="M750.21,1094.07a3.64,3.64,0,0,1,0-2.58v0c0-.09,0-.19,0-.29h0v0h0c.42-1.31-.06-5.12,1-5.44a.76.76,0,0,0,0-.15h0C752.2,1079.78,751.3,1093.8,750.21,1094.07Z"/>
        </g>
        <g class="cls-29">
          <path class="cls-20" d="M555.35,1122.68c-13-1.16-8.83-17.28-5-25.32,2.32-4.6,2.53-11.08,6.77-14.4,7.09-3,14.94-4.12,22.59-4.45,12.69.43,24.77,5,35.83,11.08,12,7.38,25.87,10.32,39.42,13.38,23.53,9,17.8,21.87-6.05,19.18C617.8,1119.85,586.57,1122.62,555.35,1122.68Z"/>
          <path class="cls-20" d="M752.48,1122.76c-11-.64-22-1.46-33-1.17h0c-4.34-.64-17.41,2.3-18.11-3.27-1.27-22.82,5.91-32.11,29.2-28,17.39,0,34.45,6.57,39.33,24.86C774.81,1124.48,757.7,1121.73,752.48,1122.76Z"/>
          <path class="cls-20" d="M739.06,1091.69h0c-2.14-.31-4.26-.78-6.42-1h0c-3-.19-6.11-.25-9.16-.23h0c-.69,0-1.38.07-2.08.08h0c-.85.06-1.69.18-2.54.16h0c-.73,0-1.46.06-2.19,0h0c-.21,0-.43,0-.64,0h0c-.82-.63,1.31-.4,1.72-.44h0c.62,0,1.24-.06,1.86-.06h0c.87,0,1.73-.18,2.61-.15h0a69.57,69.57,0,0,1,16.74,1.13h0C739.29,1091.18,739.46,1091.68,739.06,1091.69Z"/>
          <path class="cls-20" d="M751.18,1095.37c-1.42-.62-2.79-1.34-4.24-1.87h0l-.15-.06h0l-.15,0h0a52.12,52.12,0,0,0-6-1.84h0a38.58,38.58,0,0,0-4-.68h0c-3.59-.26-7.19-.56-10.79-.52h0c-2.18.13-4.37.22-6.53.53h0c-.28-.05-.54.32-.77.14C728.05,1088.51,743.6,1090,751.18,1095.37Z"/>
        </g>
      </g>
      <g class="cls-30">
        <path class="cls-31" d="M816,378.15c-4.25,1.89-4,7.12-5.18,11,1.62-3.7,3.38-7.43,5.24-11Zm-31.4,212.28c-.15-.61-.31-1.21-.47-1.81h0C784.25,589.28,784.42,589.88,784.56,590.43Zm-13,13.34c-.09.34-.18.68-.25,1a12.7,12.7,0,0,0,.43-1.49h0s0-.06,0-.08a.87.87,0,0,1-.07.17h0C771.68,603.51,771.63,603.64,771.59,603.77Zm-8.86,14.72c-3-.7-2.15-5.23-2.44-7.6v0c0-.31,0-.62.05-.93h0a43.2,43.2,0,0,1,2.41-9.67h0c.38-1.15.73-2.31,1.11-3.46h0c.1-.29.19-.59.29-.88v0a91.21,91.21,0,0,1,4.06-10.19h0c8-55.68,15.38-111.38,31.48-165.43,3.51-13.38,9.59-25.92,12.69-39.37,8.14-8.92,13.72-20.58,20.61-30.89-1.24,5.24-12.18,18.28-15.85,26.74,6-2.41,14.23-4.38,20.33-3.17,1,4.62-1.21,9.86-1.58,14.57-7.94,26.4-15.58,52.56-16.46,80.38-4.73,38-8.4,76.25-9.16,114.6,2,6.09-20,1.72-25.77,5.24.35,1.31.67,2.64,1,4v0c.06.31.13.63.2.95h0c1.37,7.06,3,14.73.45,21.7-4.9,9-8.47-3.58-8.83-8.36.75,9.42-7.69,14.86-6.72,1.67,0,0,0,.09,0,.13h0l0,.13h0a.14.14,0,0,0,0,.06h0l-.06.18v0A28.66,28.66,0,0,1,769,612.5v0a15.68,15.68,0,0,1-1.93,3h0l-.47.55h0C765.54,617.08,764.38,618.45,762.73,618.49Z"/>
      </g>
      <g class="cls-32">
        <path class="cls-33" d="M722.39,785.1c-2.41-42.91.58-87-9.43-129.54-2.15-8.59-5.86-16.93-9.48-24.92-.48-1.13,2.62-.82,3.15-1.09,21.14-7.32,42.59-14.15,62.88-23.79,17.68-9.32,34.31-20.74,51.88-30.33,3.84-1.36,13.37-10.52,14.39-2.82,3.44,13.41,5.71,27.12,8.18,40.75,7.09,29.76,10.63,60.44,15.78,90.6.06,1.48,1.47,4-1,3.86C810.94,728.93,766.77,757.71,722.39,785.1Z"/>
      </g>
      <g class="cls-34">
        <path class="cls-35" d="M982.72,1095c-9.25,3.42-7.71-32.3-10.83-39.19h0l-.24-.2h0a.25.25,0,0,0-.11,0h0c-5.51-7.09-4.79-17.6-4.18-26.22h0a69.84,69.84,0,0,0,.08-8.68v0a262.16,262.16,0,0,1-.42-50.11v0a.66.66,0,0,0,0-.14h0l.06-.66h0c0-.16,0-.32,0-.48v0l0-.4h0c0-.06,0-.12,0-.18h0c.53-5.63.9-11.3,2.19-16.83v0c.09-.43.19-.86.29-1.29h0c.84-3.7,1.8-7.38,2.64-11.08h0c.47-4.29,10.17-62.29,15.31-37.21h0a17.8,17.8,0,0,0,.72,1.83v0a15.2,15.2,0,0,0,.8,1.42c2.28,5.19,5,33.17,6.33,45.81v0c0,.89.06,1.78.1,2.67v0c3.73,35.08,10.69,69.8,12,105.12v0c0,.1,0,.2,0,.3v0c.06,1.14.09,2.27.14,3.41v0c.35,5.51,1.2,11,1.39,16.5h0c.07,1.37.18,2.73.2,4.1v0a.57.57,0,0,0,0,.13h0a15.87,15.87,0,0,1,.07,4.13h0a4.27,4.27,0,0,1-.18.61v0a.36.36,0,0,0,0,.11h0c0,.11,0,.22,0,.33v0a1.13,1.13,0,0,0,0,.26v0c-.63,2.34-7.37,1.46-9.64,2.31h0a12.57,12.57,0,0,0-1.92.49h0a42.63,42.63,0,0,1-7.85,2.64h0A50.44,50.44,0,0,1,982.72,1095Z"/>
        <path class="cls-31" d="M935.48,412.81c-1.53-1-.72-3-.68-4.47h0c0-.22.05-.44.08-.66h0a243.47,243.47,0,0,1,10.44-50.18h0l.09-.37h0l0-.12h0l0-.11h0c.76-9.68,12.89,8.82,18,9h0c4.62,3.75,21,6.76,13.34,14.08h0a18.73,18.73,0,0,0-1.1,1.77c-3.24,7.15-4.78,15-8.16,22.15h0c-.25.61-.49,1.23-.74,1.84v0c-.49,1.25-1,2.51-1.47,3.77v0c-.24.61-.47,1.22-.7,1.83v0c-.22.6-.44,1.2-.67,1.8v0l-.66,1.74h0a1.57,1.57,0,0,0-.09.23c-7-4-13.84-8.51-21.54-11.14-3.85.67,2.57,3.73,3.71,4.35a1.77,1.77,0,0,0-1.42,1.14c-3.94-3-8.32-.7-3,2.56-.53,1.2.65,2.06,1.55,2.6a1.7,1.7,0,0,0-.84.51,1.82,1.82,0,0,0-2.93.69C937.75,414.75,936.61,413.78,935.48,412.81Z"/>
        <path class="cls-31" d="M820,1101.89c-17.76-.88-24.28-5.13-22.93-23.61-8.3-131.51-10.43-267.37,5.4-397.29,23,.44,47.62,1.9,71.11,1.07,4.73,131.47-39.34,266.74-39.57,399.22C836.15,1093.06,835.33,1102.85,820,1101.89Z"/>
        <path class="cls-31" d="M795,1041.29a84,84,0,0,1-.23-12.59v0c.11-5,0-9.93.16-14.89v0a1.09,1.09,0,0,1,0-.18v0c.16-.56-.36-5.14.4-3.88v0c0,1.34,0,2.68,0,4v0c0,.18,0,.36,0,.54v0c-.16,6,0,12.09-.31,18.12v0c-.07,2.86.25,5.71.36,8.57h0C795.5,1041.26,795.17,1041.71,795,1041.29Z"/>
        <path class="cls-31" d="M796.26,1034l-.3-1.21h0l-.12-.49h0v-.06c0,.52-.56.25-.42-.16-.32-3.56-.8-8.34-.21-11.92,1.19-1.8.3,9.29.78,10.67v0a8.84,8.84,0,0,0,.22,1.25h0c0,.17.09.35.13.53h0a2,2,0,0,0,0,.24h0C796.46,1033.16,797,1034.55,796.26,1034Z"/>
        <path class="cls-31" d="M967.28,417.37c-2.3-1.44-4.66-2.79-7-4.14a1.71,1.71,0,0,1,1.46-.75,1.77,1.77,0,0,1,.81-1.37c-.68-1.35-1-3.54,1-3.86-2.67-5.76,9-7.64,4.67,10.65Z"/>
      </g>
      <g class="cls-36">
        <path class="cls-4" d="M815.63,1104.54c-7.25-1.28-16.92-2-20.37-9.6-.35,2-.51-.19-.42-.86-1-1.18-.78-5.7,0-1.71-.8-21-2.51-41.92-.77-62.89-.17-1.59,5.47-.17,6.67-.49,3.17,0,6.24-1,9.41-1.09,7.25-.68,14.5-2.09,21.75-2.71,1.28.2,4.88-2,5-.28-1,22.93-5.35,45.67-4,68.64C835.35,1103.88,823.29,1105.15,815.63,1104.54Z"/>
      </g>
      <g class="cls-37">
        <path class="cls-4" d="M999,1097.43c-7.37.22-17,1.42-21.89-5.28.09,1.91-.58-.08-.6-.77-1.27-1.06-1.84-5.32-.3-1.75-5.06-20.48-11-40.7-13.48-61.67,13.34-3.17,27.93-9.14,40.95-13.16,4,22.68,4,46,10.05,68.36C1018.18,1092.7,1006.66,1096.51,999,1097.43Z"/>
      </g>
      <g class="cls-38">
        <path class="cls-14" d="M951.91,1011.46l1.3-.81c0,.23,0,.46,0,.69a4.22,4.22,0,0,0-1.21.45A3.24,3.24,0,0,0,951.91,1011.46Z"/>
        <path class="cls-14" d="M957.06,1009.21c-.06-.31-.13-.62-.2-.93l1.64-1.08,0,0,1-.66c-.06.94-.13,1.88-.16,2.82A3.16,3.16,0,0,0,957.06,1009.21Z"/>
        <path class="cls-39" d="M793.39,1117.61c-3.27-23.2.6-48.27-2.89-71.88,7.35-9.79,34.77-10.7,46.57-9.42,5,.79-2.94,17.72-2.58,21.4,19.86,3.94,78.49,18.41,58.08,47.71-8.31,4.79-18.8,2.7-28,4.31C840.92,1112.83,817,1114.29,793.39,1117.61Z"/>
      </g>
      <g class="cls-40">
        <path class="cls-14" d="M1123.27,1001.38l1.23-.82.09.65a4,4,0,0,0-1.17.48A3,3,0,0,0,1123.27,1001.38Z"/>
        <path class="cls-14" d="M1128.21,999c-.08-.29-.17-.58-.26-.87l1.55-1.09,0,0,1-.66c0,.88,0,1.78,0,2.67A3.32,3.32,0,0,0,1128.21,999Z"/>
        <path class="cls-39" d="M973.7,1108.28c-3-7.28-1.78-16.5-3-24.46.59-14.89-5.94-32.54-3.4-46.09,13.22-6.73,29.23-9.07,44-8.16,5.08,4.55-1.76,14.21-1.1,20.33,19,3,79,13.54,61,42.81-10.32,5.6-23.2,3.44-34.46,6.32C1015.75,1102.44,994.54,1104.53,973.7,1108.28Z"/>
      </g>
      <g class="cls-41">
        <path class="cls-39" d="M916.38,521.64c-30.58-2.51-61.31-4.94-91.72-8.78-3-.57-7.91-1.08-7.82-4.43,2.08-36.06,3.91-83.88,2.49-119.77.61-1.57.77,2.54,1,2.48,1-1.18,1.09-.13.15.5,34.64-29.53,83-30.7,125.66-38.87,10.79-5,2.14,29.41,2.67,34.94h0c-2.93,37.33-4.66,74.5-.45,111.77,0,7.52,7.51,20.73-5.63,19.3C934,519.69,925.24,521.49,916.38,521.64Z"/>
        <path class="cls-39" d="M941.71,473a8,8,0,0,1-.2-1.68v0a1.93,1.93,0,0,0,0-.24.41.41,0,0,0,0,.11c0-3.35,0-6.71-.15-10.06v.13a72.67,72.67,0,0,1,.06-13.11.28.28,0,0,1,0,.09,18.11,18.11,0,0,0,.13-3.45V445c-.91-28.38,5.34-56.2,9.67-84.07l0,.12c0-.19.08-.38.11-.57a1.55,1.55,0,0,0-.29.14h0a5.33,5.33,0,0,1-2.61,1.06h.06c-2.63.77-1.18-.88.39-1.05l-.06,0c.16-.06.33-.12.48-.19l0,0a2.81,2.81,0,0,0,.58-.39h0c3.34-3.26,3.68.44,3,3.24v-.05a.57.57,0,0,1,0,.13h0c-3.81,28.56-7.61,57.06-8.54,85.87l0-.19,0,.31v0a66.67,66.67,0,0,0-.23,8.48v-.14C943.7,459.54,946.08,478.5,941.71,473Z"/>
        <path class="cls-39" d="M940.35,487.67c-4.15-1.62,2.08-10.28,2.21-13.73,1.52-5.4,1.56-11.2,1.6-16.8v0c-.94-17.65.3-35.32,2.56-52.83v0c0-.05,0-.11,0-.16h0v-.08h0c0-.05,0-.11,0-.16v0c.23-2.64.39-5.29.65-7.93,0,.05,0,.1,0,.15l.06-.65v.06c.78-11.18,3.79-22,5.4-33-.77.36-1.46.86-2.24,1.22h0c-1.64.94-.64-.73.35-1h0c6.67-6.22,0,14.8.34,17.47-1.92,11.87-1.8,23.93-3,35.87v.07a.17.17,0,0,0,0-.07l0,.42c0-.07,0-.13,0-.2-1.5,11.51-.57,23.15-.56,34.72a.2.2,0,0,0,0-.07C948.49,462.49,948.58,479.72,940.35,487.67Z"/>
      </g>
      <g class="cls-42">
        <path class="cls-43" d="M443.51,473.35c-.25-.7-.11-7.66.37-5.07v0a30,30,0,0,0-.06,3.55v0C443.76,472.15,444.21,474,443.51,473.35Z"/>
        <path class="cls-43" d="M307.78,474.33c-1.86-.19-3.58-1.07-5.39-1.47h0c-1.83-.53-4.38-.58-5.44-2.39h0v0a.38.38,0,0,1-.1-.26h-.72c-.8,0-1.59,0-2.39,0h0c-15.1,3.37-30.4-12.22-8.53-10.8-2.65-.43-5.49-.84-7.36-3h0c-5.76-6.22,2-6.31,6.65-6.21-4.13-1.09-11.13-.26-12.43-5.43a4.24,4.24,0,0,1,3.61-4.85h0c3.15-.41,6.34.12,9.5.06-1-.18-2.05-.36-3.05-.63h0c-15.91-5-5.08-16.86,7.16-10.29l0,0c6.78,3.19,13.25,7,20.1,10.06,1.91.53,1.21,2.36.73,3.71v0a25.32,25.32,0,0,0-.61,3.67v0c-.17,1.62-.24,3.24-.45,4.86,0,0,0,0,0,0a40.8,40.8,0,0,0-.24,5.53v0C308.62,462.27,310.58,469.77,307.78,474.33Z"/>
      </g>
      <g class="cls-44">
        <path class="cls-45" d="M588.12,402.39c.42-3.51.89-7,1.48-10.49a10.2,10.2,0,0,1-.32,3v0c0,.12,0,.23-.08.35,0-.07,0-.14,0-.21a8,8,0,0,0-.14,1v-.15a34.23,34.23,0,0,1-1.25,9.33.09.09,0,0,1,0-.05,3.67,3.67,0,0,1-.18.76C587.85,404.69,588,403.54,588.12,402.39Z"/>
        <path class="cls-45" d="M591.49,381.39l0,0c-.17.45,0,1-.32,1.4Z"/>
        <path class="cls-46" d="M412.63,386.62c-5.11.37-10.23.61-15.3,1.25,0,.72-1.72.76-2.31,1.16,6.56-1.09,13.79-2,20.17-2.58ZM579,567.62a39.88,39.88,0,0,0,.06,5.24c.45-4.11.33-8.19.47-12.31a21,21,0,0,0-.47,5.06v-.06Q579,566.59,579,567.62Zm-.8,9.35a1.2,1.2,0,0,0,.49.53c.06-.59.11-1.22.17-1.82-.71.17-1.46.39-2.15.6a7.63,7.63,0,0,1,1.16.68A.25.25,0,0,1,578.15,577Zm-65.72,438.12c-30.13-1.37-49.85-29.52-78-36-29.16-3.89-60.57-.28-84.6,17.92v-.12h0c11-134.7,19.33-270.3,36.17-404.57h0c7.3-41.51,9.45-84.85.36-126.32-28.08,22.14-70.45,30.22-97.84,4.36,4.73-12,5.76-25.45,8-38C328,437,359.19,420.58,382,400.08c-.9-8.09.46-6.62,7.09-9.71-.6,0-7,1.29-5.52-.18,5.65.38,9.89-2.33,15.18-3.23,18.92-1,38.59-4.1,57.16.37,43.23,8.21,98.82-21.67,135.23-6.15-4.33,31.47-10.56,63.76-8.58,95.48,4.12,32.89-2.09,66.06-3,98.85a1.53,1.53,0,0,1-.29.07c22.07,27.52,14.21,67.31,15.74,101.25-1.28,67.81-9.32,135.19-13.65,202.8-3.8,36.1-4.22,73.12-12.18,108.5-2,7.69-3.34,15.39-13.56,9.43C542.83,1006.41,528.31,1014.63,512.43,1015.09Z"/>
      </g>
      <g class="cls-47">
        <path class="cls-7" d="M757,1067.92c-19.16-.44-38.21-2.94-57.39-1.38-5.72-81.84-12.72-163.71-22-245.34-3.07-45.53,1.5-92.61-4.63-137.42h0c-3.41-.62-6.91-.78-10.32-1.24-22.43,125.36-40.08,252-53.44,378.62-18.57-.52-37.22-1.45-55.76,0-.53-31.24,2.55-62.45-.26-93.68,2.74-41.88-1.94-83.66.58-125.55,3.53-58.74,6.34-117.29,10.12-176,5.12-42.17,13.13-84.24,18.45-126.1-.8,1.75-.78-7.23.83-3.28,32.73-11.57,68.52-10.33,100.93-22.12,22.28-10,49.58-25.62,74.26-21.3-.69,42.59-6.28,92.14-7,137.19-.88,34.07,5.35,67.88,4.8,102,3.21,111.76,5.26,223.8,2.52,335.53C758.08,1068,757.49,1067.9,757,1067.92Z"/>
      </g>
      <g class="cls-48">
        <path class="cls-49" d="M561.49,1060.87c-1.42-24.23,1.3-49.19,2.53-73.58h0c2.24-32.18,3.09-64.42,3.35-96.67v0c-.19-4.36-.61-8.72-.64-13.1v0A300.43,300.43,0,0,1,565.44,847v0c.7-83.22,3.49-166.87,20.63-248.64v0a.44.44,0,0,1,0-.1h0c1.49-6.91,2.22-14,3.95-20.83h0v0h0c1.77-8.9,3.38-17.82,5.7-26.59h0a.3.3,0,0,0,0-.1h0c1.14-2.6.85-10.26,3.26-11.11,1.23.54.1,2.11.06,3.06h0v0h0s0,.06,0,.08v0c-2.77,12.83-5.66,25.6-8.21,38.47v0h0v0h0c-2.57,13.44-4.89,26.91-7.53,40.33h0c-21.1,109.7-13.32,221.21-15.86,332a.41.41,0,0,0,0-.11c-.9,12.59-.87,25.24-2.21,37.79v-.1c-.33,7.78-1.11,15.54-1.38,23.31h0c.1,15.06-2,30.18-1.2,45.24h0C563.54,1060.81,562.26,1060.86,561.49,1060.87Z"/>
        <path class="cls-49" d="M577.25,1060.3c-1.09-.81-.21-2-.25-3v.1C590.58,888.21,587.46,717,621.26,550.25h0c-20.61,104.89-34.27,352.26-42.7,507.8v-.11C578.44,1058.84,578.78,1060.9,577.25,1060.3Z"/>
        <path class="cls-49" d="M590.39,1058.79c.22-1.54.35-3.09.49-4.64v.1c9.78-155.52,27.86-310.29,45.87-465,1.93-13.67,4.51-27.24,7.19-40.78,1.13-4.33,1.18-12.19,5.23-13.89-12.88,50.2-17.61,104.26-21.49,156.51V691c-4,35-8.6,70-12.75,105h0q-13.73,115.71-20,232.06v0c-.37,8.2-1.53,16.31-2.25,24.48v0c-.24,2.83-.47,5.68-.95,8.49l-1.66,0C590.18,1060.23,590.29,1059.51,590.39,1058.79Z"/>
        <path class="cls-49" d="M602.58,1061.11h0c-.42,0-.85,0-1.27,0,.94-5.52.68-11.14,1.26-16.7v0c.23-27,1.78-53.91,6-80.54l0,.1a82.74,82.74,0,0,0,1.57-10.51v.07c2.05-28.18,7.46-56,9.9-84.18v.1c.33-4.82.45-9.66.87-14.48v.1c4.05-61,14.36-121.3,23-181.69v0c4.66-43.78,12.2-87.81,19.89-130.94.32-1.2,2.48-3,2.22-.53a14.91,14.91,0,0,0-2.1,4.41.3.3,0,0,0,0-.1c-13.77,94.27-29.53,192.81-40,287.49v-.07c-1.62,37.45-6.72,74.54-11.72,111.62v-.11a108.29,108.29,0,0,1-2.59,21.53s0,0,0-.07a60,60,0,0,0-1.17,8.54h0c0,9.58-2.16,18.9-3.16,28.38h0c-1,14-.36,28-1.23,41.92v0c-.5,5.21-.3,10.48-1.16,15.66Z"/>
        <path class="cls-49" d="M663.57,682.94h0c-.47-6.62.8-13.15,1.38-19.72v.11c.28-8.62,1-17.17,1.89-25.73v.1c.33-11.38,1.41-22.66,2.77-34h0c0-.61.09-1.23.14-1.85a.34.34,0,0,0,0,.1c.37-8.08,1.49-16.1,2.2-24.16v0c.24-8.73,1.58-17.34,2.75-26v.1c.56-1.31-.83-13.3,1.86-9.34.48,9.18-1.81,18.11-2.5,27.21h0c-.32,8.68-1.52,17.27-2.28,25.92v0c-.15,2.24-.27,4.47-.44,6.71h0c0,.44-.06.87-.1,1.31v-.1c0,.11,0,.21,0,.32v-.11l0,.32v-.1c-2.19,15.52-2.23,31.19-4.05,46.75v-.1a237.54,237.54,0,0,1-1.89,24.55v-.11a63.58,63.58,0,0,0,0,7.93A8.26,8.26,0,0,0,663.57,682.94Z"/>
        <path class="cls-49" d="M673.27,696c-.62-7.59,2.93-15.15,2.68-22.91,0,.13,0,.25,0,.37l.21-3.21v0s0-.08,0-.12,0,.16,0,.24c.08-1.11.15-2.22.22-3.33,0,.07,0,.14,0,.21v0a.28.28,0,0,1,0,.09,0,0,0,0,0,0,0s0,.07,0,.1l0-.43V667c0-.89.12-1.78.18-2.67h0v0h0c.55-3.76,1.94-7.35,2.84-11a2.58,2.58,0,0,0,.62,0c-.67,5.91-2.26,11.7-2.57,17.65v-.07l-.24,3.44v0l-.06.75v0c-.48,6.56-1.73,13-2.52,19.55v-.11C674.86,695.47,674.49,697,673.27,696Z"/>
        <path class="cls-49" d="M695.45,549.24a1,1,0,0,0-.9.4c.06-4.06,2.8-4,1.63.14A1,1,0,0,0,695.45,549.24Z"/>
        <path class="cls-49" d="M714.83,1066.1c-1.71-13.9-3.16-27.85-3.69-41.85a.41.41,0,0,1,0,.11c-.27-4.36-.24-8.73-.43-13.09h0c-.58-9.07-1.37-18.13-1.43-27.23h0c-1-9.83-.95-19.67-1.17-29.53h0c-.69-7.35-.67-14.72-.87-22.09h0c-1-30.72-1.76-61.36-4.57-92v0s0-.06,0-.09h0c-10.36-95.69-4.6-191.69.56-287.46v.12c.86-3.25-1.06-11.49,1.77-13.05,1.37.3.56,1.92.6,2.86v-.12c-.26,5.36-.39,10.72-.92,16.07,0,0,0-.08,0-.12-2,22.64-.74,45.42-3,68v-.12c-.36,7.83-.9,15.64-1.77,23.44v0c-1.37,25.51-2.68,51-1.22,76.53h0v0h0v.05c1.19,24.1.45,48.3,1.8,72.44v0c3.78,41.42,7.91,82.82,7.69,124.44a.09.09,0,0,1,0-.05.38.38,0,0,1,0,.1h0c.75,7.4.78,14.82.91,22.25,0,0,0-.07,0-.1,1,16.22,1.26,32.45,2.05,48.69a.09.09,0,0,0,0-.05.41.41,0,0,1,0,.11h0c.75,9.64,1.33,19.28,1.52,28.94a.34.34,0,0,0,0-.1c.18,3.3.31,6.61.48,9.92V1033c.77,11,1.9,22,3.27,32.93-.29,0-.59.08-.88.1h.09l-.22,0h0c-.13,0-.25,0-.37,0h0A1.51,1.51,0,0,1,714.83,1066.1Z"/>
        <path class="cls-49" d="M731.33,1066.55a5.13,5.13,0,0,0-1.1-.11c-1.26-10.79-.5-21.63-1.14-32.45v.11c-.33-22-.5-44.09-1.21-66.12v0c-5.63-63.59-6.37-127.38-5.31-191.17a.76.76,0,0,0,0,.15,103.61,103.61,0,0,0,0-11.69v0c-4.2-51.93,4.19-103.47,4.69-155.24v0c-1.41-21.39-.22-42.92,1.74-64.25v0c.56-1.72-1-5.08,1.22-5.64-1,40,.83,83.58-3.53,124.53v0c-2.79,31.69-3,63.44-2,95.21v-.09c.33,65.29-2.47,130.7,4,195.78,0,0,0,0,0,0a.37.37,0,0,1,0,.11v0c1.88,25.55,1.6,51.21,2,76.8a.34.34,0,0,1,0-.1c.61,7.66.26,15.35.45,23v-.11q.3,5.63.8,11.24Z"/>
        <path class="cls-49" d="M747.62,1067.67c0-14,.35-28,0-42v.11c-.81-7.62-.46-15.22-.57-22.86v.11c-.82-7.69-.68-15.36-.73-23.06,0,0,0,.07,0,.1-2.29-61.6-2.51-123.39-1.47-185v0c1.6-84.61,1.91-168.93.3-253.49,6.06-11.18,1,47.3,2,50.49v0c6,66.54-1.14,133.08-.6,199.73v-.12c.22,33.48-1.73,67-.4,100.52h0c1.56,24.72-.12,49.52.74,74.28v0a249.66,249.66,0,0,1,1.06,27.2h0s0,.06,0,.09v0c.88,7.64.71,15.29.65,23v0c1.36,17,.55,34,.62,51a2.63,2.63,0,0,0-.47.1l.08,0A7.49,7.49,0,0,1,747.62,1067.67Z"/>
        <path class="cls-50" d="M676.54,696.21c-1.69-6.18,1.43-14.54,1.17-21.43v0l.27-4v0l.18-2.89v0l.3-4.14s0,.08,0,.12l0-.48v0a1.21,1.21,0,0,0,0-.19v.07c.16-2.91.38-5.81.6-8.71a.22.22,0,0,0,0,.08c.35-7.64.52-15.28,1.12-22.9a.76.76,0,0,0,0,.15l0-.54v.14c1.65-23.69,4.65-47.25,6.72-70.9h0c.53-1.34-.7-12.38,1.88-8.25,0,12-2,24.07-2.92,36.06v-.11c-.23,3.76-.74,7.5-1,11.27v-.08c-1.07,14.45-2.49,28.87-3.32,43.34h0c0,.49-.07,1-.1,1.49v-.14c-.18,2.65-.31,5.3-.49,7.95a.49.49,0,0,0,0-.12c-.15,2.23-.38,4.46-.54,6.69v-.12C679,670.82,680,685.2,676.54,696.21Z"/>
      </g>
      <g class="cls-51">
        <path class="cls-52" d="M695.74,800.64l-.16,0h0l-.32-.1h0a3.69,3.69,0,0,1-.42-.17l0,0c-.92-.59-1.07-2-1.43-2.93,0,0,0,0,0,0-.86-2.77-1.91-5.47-2.66-8.27h0a140.4,140.4,0,0,1-3.49-16v0a.77.77,0,0,1,0-.15h0l0-.23v0l0-.34a.22.22,0,0,1,0,.08c0-.18,0-.35-.07-.52,0,0,0,0,0,.07-3.92-20.65-9.4-41-12.65-61.79,0,0,0,0,0,0-.07-.42-.13-.85-.19-1.28v.08a1.08,1.08,0,0,0,0-.19h0c-1.81-9.62-3.8-19.17-6.2-28.65v0c-.07-.36-.13-.71-.2-1.07v0c-.15-.81-.32-1.59-.48-2.4h0c-.74-3.92-.84-7.94-1.54-11.87h0a33.75,33.75,0,0,1-.34-5.31v0c0-1.67-.51-3.44.19-5h0v0h0l0-.11a3.18,3.18,0,0,0-.08.81c.11-1.83.82-3.89,2.48-4.86h0l0,0h0c.85-.42,1.63-1,2.46-1.42h0c38.48-16.37,77.79-37.85,116.3-51.38l-.26.09h0l-.1,0h0c-14.59,6.8-30.57,13.18-44.37,20.8-.2.14-.51.31-.4.59h0v0h0c0,.32.52.18.39-.11l.07,0a4.21,4.21,0,0,1,.52-.34h0c.26-.12.51-.24.75-.38h0c.63-.3,1.28-.55,1.9-.89h0l.09,0h0c.21-.14.73-.29.56-.62l8.3-3.82a.51.51,0,0,0,.26.37c-.6.39-1.51.66-1.77,1.37-1.4.28-.49,1.89-.38.73h0s0,0,0-.07v0h0a1.12,1.12,0,0,1,.22-.16h0c.87-.34,1.67-.86,2.54-1.22-.38.33-1.26.49-1.2,1.1-.23.1-.56.18-.56.48a.59.59,0,0,0-.43.81c-.71.23-2.9,1.27-1.16,1.67a.5.5,0,0,0,.11.42c-.54.13-.77.85-.2,1.1-2.89,2.21-7.06,3-10.49,4.47h0l-.15.06h0c-.8.33-1.63.64-2.45,1l0,0-.27.11h0l-.11,0h0c-1.71.68-3.44,1.33-5.17,2l.05,0-.21.08h0l-.44.17,0,0c-2.69,1.07-5.28,2.38-8,3.45h.05l-.21.08.05,0-.17.06h0l-.08,0h0l-.58.23,0,0-.51.2.05,0-1.13.44,0,0c-3.78,1.48-7.34,3.45-11.15,4.84l0,0c-6.82,2.62-13.17,6.32-19.8,9.37l0,0c-1.67,1-3.45,1.78-5.17,2.68h0c-1.66.93-3.29,1.9-5,2.79h0c-2.94,1.62-5.76,3.45-8.64,5.18h0c-.38.21-.76.44-1.15.63l.08,0c2.16,9.54,4.38,19.07,5.57,28.79a0,0,0,0,0,0,0c3.55,16,7.88,31.83,11.91,47.71v0c.06.32.11.64.17,1a.5.5,0,0,1,0-.12c.71,3.93,1.19,7.89,2,11.81l0-.12c.22,1.16.45,2.32.66,3.49a.59.59,0,0,0,0-.13c2.29,9.5,3.84,19.17,6.52,28.57,2,7.53,7.54,18.21-2.29,22.35h0Z"/>
        <path class="cls-52" d="M767.84,608.45h0l1.68-.62a.16.16,0,0,0,0,.07c-.83.3-1.65.57-2.48.86Z"/>
        <path class="cls-52" d="M665.87,659.36a4.42,4.42,0,0,1-.16-1.14h0v0h0c-.17-2-.74-4.43.67-6.05h0a10.91,10.91,0,0,1,4.13-2.6h0l0,0h0l.26-.14h0c1.32-.8,1.74,0,.19.36h0l-.28.16h0c-.54.28-1.12.46-1.65.76h0c-.55.34-1.11.66-1.66,1l0,0-.22.18h0a5.11,5.11,0,0,0-.45.48s0,0,0,0l-.17.2h0a2.61,2.61,0,0,0-.42.62v0a2.77,2.77,0,0,0-.1.26,0,0,0,0,0,0,0c-.06.23-.12.46-.16.69v0c0,.23,0,.46-.05.7v0c0,.87,0,1.75.1,2.61h0v0h0a9.54,9.54,0,0,1,.18,1.41h0c0,.16.06.31.09.47v0C666.43,659.42,666,659.68,665.87,659.36Z"/>
        <path class="cls-52" d="M665.92,655.46c-.47-.54-.1-3.32,1-3.06h0c.25.29-.18.3-.28.47h0C666,653.56,666.51,654.94,665.92,655.46Z"/>
        <path class="cls-52" d="M668.14,672.83c-1.25-2.66-1.35-5.63-2-8.45a.07.07,0,0,0,0,0l0-.14s0,0,0,.06c-.28-1.12-.46-2.28-.7-3.42,0,0,0,0,0,0-.54-2-.6-4-1.27-5.9v0a3.54,3.54,0,0,1-.12-1.29v0c0-1.14,1.1-1.86,2.06-2.22h0c.11,0,.21-.1.32-.15h0l.51-.29h0l.05,0h0l.08,0h0c1.06-.52,2.12-1,3.22-1.49h0l.07,0h0c.51-.2,1-.43,1.51-.63h0c.46-.18.93-.33,1.39-.51h0c.32-.13.64-.26,1-.42h0c.5-.26,1-.58,1.47-.85l0,0c.79-.73,2.3-.58.62.11h0l-.63.34h0a12.15,12.15,0,0,1-2.26,1.18h0l-1.41.52h0c-.49.2-1,.43-1.46.62h0l-.05,0h0l-.15.06h0c-1,.43-2.06.94-3.08,1.43h0l-.09,0h0l0,0h0l-.5.28h0c-.24.13-.48.23-.72.35h0a3.74,3.74,0,0,0-.42.27l0,0-.05,0,0,0,0,0h0l-.4.32h0l-.17.18h0a.64.64,0,0,0-.1.13h0a2.12,2.12,0,0,0-.11.21v0a.55.55,0,0,0-.06.18v0a1.47,1.47,0,0,0-.08.35v0a4.72,4.72,0,0,0,0,.65h0a7.24,7.24,0,0,0,.35,1.29l0,0c.63,1.35.63,2.87,1,4.3v0c.31,1.07.53,2.15.79,3.23,0,0,0,0,0-.06.28,1,.59,2.05.81,3.09h0l0,.06h0l.15.6h0c.29,1.28.54,2.57.82,3.85a0,0,0,0,1,0,0C668.74,671.28,669.74,674,668.14,672.83Z"/>
        <path class="cls-52" d="M665.9,658.21a8,8,0,0,1-1.49-4.66s0,.05,0,.07c.38-1.22,1.65-1.71,2.7-2.13l-.07,0c2.32-1.11,1.51,1.2-.21,1.52l.07,0-.09,0h0c0,.54-.69.83-.68,1.4s.39,1.64-.44,1.91C665.62,656.93,666.42,658.05,665.9,658.21Z"/>
        <path class="cls-52" d="M667,666.54a52.71,52.71,0,0,1-2.4-11.32h0c0-.26-.07-.52-.1-.78h0v0h0c-.08-.69,1,0,.45.28,0,.25.06.51.09.76h0v0h0a59.24,59.24,0,0,0,1.07,6.21h0l.06.24h0C666.09,662.8,668.21,666.92,667,666.54Z"/>
        <path class="cls-52" d="M666.82,669.63c-1.25-4.14-1.55-8.52-2.22-12.79h0v0h0c-.07-.4-.72-3.83,0-2.43h0C664.49,656.46,668.76,670.4,666.82,669.63Z"/>
        <path class="cls-52" d="M668.55,674.27c-.08-.23-.17-.46-.26-.69v0c-2-5.71-4.61-14.69-3.91-19.46h0a1.56,1.56,0,0,0,0,.31v0c.44,3.19,1.09,6.35,1.81,9.49v0c.63,2.33,1.19,4.68,1.72,7v0C667.87,671.59,669.65,674.67,668.55,674.27Z"/>
        <path class="cls-33" d="M788,598.39a1.23,1.23,0,0,1,.24,1.43,1.3,1.3,0,0,1,.1-.15v0q.24-.37.45-.78v0a2.22,2.22,0,0,0,.21-.56h0a2,2,0,0,0,0-.25v0a1,1,0,0,0,0-.24v-.06h0c0-.11-.09-.1-.17-.09h0a1.81,1.81,0,0,0-.23,0h0c-.35.08-.68.21-1,.31A2.77,2.77,0,0,1,788,598.39Zm-31.07,14.34c-.18.28-.55.31-.83.45,1.13,1,2.65.7,4,.64h-.06l.35,0h-.06c.54,0,1.07-.11,1.6-.2h0l.06,0h0l.11,0h-.06a21,21,0,0,0,2.46-.71l-.06,0c7.22-3.14,14.72-5.95,21.51-9.92h0l0,0h0a6.4,6.4,0,0,0,.56-.6v0a10.71,10.71,0,0,0,1.39-2.07c-1.48,2-3.35,2.9-5.58,3.89a.68.68,0,0,0-.21-.77c5.87-5-24.16,9-25.19,9.23h0S756.94,612.71,756.93,612.73Zm-14.29,5.65c14.22-7.06,29.43-13.82,44-20.38h0l.1,0h0c2.37-1.15,3.61-.5,1.94,1.94h0c-1.08,1.86-2.18,3.81-4.24,4.73h0a.8.8,0,0,1-.16.08h0c-1.62.91-3.33,1.65-5,2.51l.05,0-.27.13,0,0-.16.08,0,0c-6.09,2.58-12,6.44-18.63,7.36h.06c-2,.25-4.05.19-5.66-1.18h0a.51.51,0,0,1-.32-.4C750.55,614.74,746.51,617.26,742.64,618.38Z"/>
      </g>
      <g class="cls-53">
        <path class="cls-33" d="M711.61,633.08c.45-.2.93-.43,1.37-.65ZM698.49,798.19c-.47-2.05-.91-4.23-1.34-6.24v0c0-.08,0-.17,0-.25h0c0-.16-.06-.33-.08-.5v0h0c0-.24-.1-.47-.14-.7h0s0,0,0-.06v0h0s0,0,0-.06a0,0,0,0,1,0,0c-9.57-44.51-20-89.15-29.27-133.72h0c-.14-1.11-.32-2.2-.51-3.31,34.95-15.19,69.85-36.12,105.63-46.26-5.76,2.55-11.84,3.92-17.67,6.37a7.8,7.8,0,0,1,.46,2.67c.58.31-.23.89-.46.38,2.39,23.06,1.82,45.93,6.25,68.8-.78,23.73-4.77,47.75.18,71.31,17.07-8.64,17.12-6.55.12.78.23.48.32,1,.51,1.52h0a1.54,1.54,0,0,1,.19-.17h0c2.57-1.85,5.7-4,8.51-4.82-22.13,16.21-47.93,29.89-71.7,44.58v0l-.47.26Z"/>
        <path class="cls-33" d="M697.35,792.82c-.34-.61,0-1.52.33-.49h0C697.85,792.61,697.7,793.29,697.35,792.82Z"/>
        <path class="cls-33" d="M742.89,618.25c-.82-.48,1.18-.92,1.56-1.16h0l.37-.15h0c.6-.52,2.07-.36.65.15h0l-.52.23h0l-.34.14h0l-.19.07h0a9.45,9.45,0,0,1-1.09.59h0C743.2,618.18,743.06,618.4,742.89,618.25Z"/>
        <path class="cls-33" d="M742.62,618.27a.21.21,0,0,1,0-.37h0a6.58,6.58,0,0,1,1.27-.57h0l.61-.25h0l.5-.21h0l.17-.06h0l.12-.05h0c.9-.53,1.25.12.17.37h0l-.05,0h0l-.11,0h0l-.29.11h0l-1.13.45h0l-.48.19h0a2.49,2.49,0,0,0-.33.16l0,0-.2.12h0A.21.21,0,0,1,742.62,618.27Z"/>
      </g>
      <g class="cls-54">
        <path class="cls-55" d="M781.3,682.6c-8.39-23.19-3.61-20.06-28.13-24.93,1.13-2.15,3.58-6.93,5.88-7.68h0c6.84,1.89,15.27,2.16,21.35,4.88,2.34,6.89,4.86,13.77,7.11,20.67-.7,2.25-4.33,4.69-6,7A.23.23,0,0,1,781.3,682.6Z"/>
        <path class="cls-55" d="M758.47,650.37c-.44,0-.35-.54.08-.46h0a1,1,0,0,1,.24,0h0c.68.08.35.52-.16.45h0A.19.19,0,0,1,758.47,650.37Z"/>
      </g>
      <g class="cls-56">
        <path class="cls-57" d="M770.1,711.56h0l-.1,0h0l-.09,0h0l-.24,0h0c-6.69-1.43-13.9-2.31-20.33-4.08-1.67-2.22-2.32-6.92-3.48-9.49,22.89,5,19.73,7.67,34.31-11.57,8.63,9-4.72,17.31-9.88,25h0C770.27,711.46,770.23,711.62,770.1,711.56Z"/>
        <path class="cls-57" d="M749.63,707.66h0l-.15,0h0a.48.48,0,0,1-.23-.07h0a.26.26,0,0,1-.14-.2h0c-.07-.35.3-.31.44-.13h.17A.21.21,0,1,1,749.63,707.66Z"/>
        <path class="cls-57" d="M746.72,698.75s0,0-.06,0h0l0,0,0,0,0,0h0c-.35.13-.43-.55-.05-.46h.11c.06,0,.09.05.14.07h0l.1,0h0A.2.2,0,0,1,746.72,698.75Z"/>
        <path class="cls-57" d="M746.24,698.82c-.19-.22-.38-1.17.15-.74C746.78,698.21,746.74,699.05,746.24,698.82Z"/>
        <path class="cls-57" d="M780.53,686.66c-.36.07-.29-.39,0-.5h0a.21.21,0,0,1,.31.2h0v0h0v.06h0v0h0A.21.21,0,0,1,780.53,686.66Z"/>
        <path class="cls-57" d="M780.6,687.81c-.32-.07-.12-.48-.15-.7v0l0-.41v0h0c-.1.42-.65.16-.37-.18h0l0,0h0l0,0v0l0-.06v0h0l0,0h0l.06-.09h0a.46.46,0,0,1,.15-.16h0l0,0v0l0,0h0a.31.31,0,0,1,.11-.09h.08a.26.26,0,0,1,.3.3h0s0,0,0,.08h0a3,3,0,0,1,0,.67v0C780.81,687.32,780.94,687.8,780.6,687.81Z"/>
      </g>
      <g class="cls-58">
        <path class="cls-12" d="M890,689.27c0,.22-.13.52.12.35C890.14,689.48,890.1,688.93,890,689.27Zm.47,1.09c0,.17-.3.62-.11.57S890.61,690.39,890.5,690.36Zm-95.39,31.13c-7.24.22-13.25-2.7-11.81-9.72-2.51-58.69-12.69-125.1,15.27-181.43,11.8-27.84,21.8-49.11,55.74-50.36,22.76-3,48.24-1.23,67.44,12.51,4.22,4.09,13.78,4.35,13.52,11.09,5.66,8.64-2.75,28.49-4.82,38.58-7.2,24.72-16.52,48.6-25.8,72.58C873.41,739.39,931.06,708.51,795.11,721.49Z"/>
      </g>
      <g class="cls-59">
        <path class="cls-24" d="M1210,277.5c-5.87-.74-11.88-.13-17.69-.2.64-17.79-1.23-37.84-.4-54.68h0c12-4.2,25.25-2.74,37.81-4.74a72.45,72.45,0,0,0,10.4-.85c2-.6.52,3,.67,4-1.69,6.28,1,59.35-6.08,55.85h0C1226.42,277,1218.18,277,1210,277.5Z"/>
      </g>
      <g class="cls-60">
        <path class="cls-61" d="M1213.65,251.43a54.54,54.54,0,0,0,5.85.38h0l1,.06h0c10,.18,21.33-1.9,28.22-9.85h0c6.62-8.3,10.56-18.28,13.87-28.27h0a64.69,64.69,0,0,0,1.59-6.42v0c.12-.51.74-4.18,0-2.51,0-1.17.24-2.32.3-3.49h0v-.05h0v0h0s0,0,0,0h0a62.14,62.14,0,0,1,1.23-10v0c.92-3.82,1.48-7.73,2.66-11.49h0a21.86,21.86,0,0,1,1.1-2.77h0a20.45,20.45,0,0,1,1.35-2.42h0l.09-.14h0c.74-1,1.55-2.07,2.39-3h0a21,21,0,0,1,1.74-1.79h0a52.15,52.15,0,0,0,10.87-10h0a12.48,12.48,0,0,1,1.14-1.16l0,0,.15-.13,0,0c3.89-3.64,8.33-7.33-.45-6.63h0l-1.23-.07h0a17.48,17.48,0,0,0-7,.76h0a14.08,14.08,0,0,1-1.84.28h0a16.21,16.21,0,0,1-2,0h0a5.9,5.9,0,0,1-1.81-.33c7.35-8.52,9.34-19.69,9.53-30.62a0,0,0,0,1,0,0,29.18,29.18,0,0,0,0-3.62h0c1.15-3.55-20,4.23-21.48,5.65h0a15,15,0,0,1-3.08.93h0c-3.3.59-6.6,1.16-9.93,1.5h0c-1.71.06-3.44.17-5.16.14h0a39.06,39.06,0,0,0-8.23-.3h0a7.73,7.73,0,0,1-2.48-.42l0,0a3,3,0,0,1-.6-.27h0l-.09-.08h0a1.51,1.51,0,0,1-.32-.43v0a10.6,10.6,0,0,1-.78-2.53v0a7.39,7.39,0,0,1-.14-.82v0c1.57-23.3-15.37-25.45-8.67.21v0c.16.77.33,1.55.42,2.34h0a5.15,5.15,0,0,1,0,.88v0a3.41,3.41,0,0,1-.06.43v0a1.9,1.9,0,0,1-.13.38l0,0a1.58,1.58,0,0,1-.15.24s0,0,0,0a.84.84,0,0,1-.3.32h0a1.22,1.22,0,0,1-.27.09h0a3.16,3.16,0,0,1-.81.06h0a18.55,18.55,0,0,1-4.9-1h0a2.91,2.91,0,0,1-.45-.26h0a2.56,2.56,0,0,1-.68-.91s0,0,0,0c-5.81-12-15.74-14.72-9.28,2v0a3.08,3.08,0,0,1,0,.43s0,0,0,0a1.74,1.74,0,0,1-.12.5v0a1.13,1.13,0,0,1-.12.21s0,0,0,0a.66.66,0,0,1-.24.23l0,0a.53.53,0,0,1-.17.08l0,0c-8.17-.48-17.61-1.39-23.8,5.18h0c-6,4.25-11,9.75-13.12,16.91,0,0,0,0,0,0l-.09.29v0c-5.14,16.19-5,33.55-.82,49.94v0a64.87,64.87,0,0,0,5.1,16.76,0,0,0,0,0,0,0l.16.31,0,0c.32.64.63,1.27,1,1.9h0l.12.24h0c0,.06.06.11.07.15s.09.16.13.24l0,0c.09.17.18.34.26.51v0c.07.14.13.27.2.4h0c0,.1.11.21.16.32v0l.5,1,0,0c.07.12.13.24.19.37h0c3.91,8,8.14,16.87,16.39,21.17h0a19.35,19.35,0,0,1,2.19,1.51h0c1.06.57,2.06,1.25,3.13,1.8h0c.59.32,1.21.55,1.82.82h0c3.58,2.27,7.91,2.76,12,3.68h0C1211.16,251,1212.39,251.26,1213.65,251.43Z"/>
      </g>
      <g class="cls-62">
        <g class="cls-63">
          <path class="cls-64" d="M445.06,346.34c-4.23-4.59-4.05-10.9-5.18-16.66h0c0-.53-.68-1.3-.3-1.7,1.9,3.42,1.24,8.33,2.55,12.2h0v0h0a14.9,14.9,0,0,0,.57,1.71v0a10.12,10.12,0,0,0,.47.93h0C443.32,343.49,446.31,346.54,445.06,346.34Z"/>
          <path class="cls-64" d="M403.71,349.76c0-.27.46-.26.45,0S403.71,350,403.71,349.76Z"/>
          <path class="cls-64" d="M235.92,448.83c-50.85-3.05-49.38-41.07-20.15-72.37-36.86,10.81-42.56-35.72-29.82-60.78,6.19-18.64,26.55-24.15,37.64-38.76a26,26,0,0,0,3.58-6.05l0,.05a16.57,16.57,0,0,0,.85-2.64v.05c1.18-6.08,2.22-12.21,2.93-18.37a.13.13,0,0,1,0,.06c.84-32.48,2.14-69,37.53-82.51,35-11.35,80.72,5.27,87.38,44.28,12-9.89,28.91-11.89,44-10.93h0c6.71-.22,12.06,3.37,17.23,7.13h0c1.69,1.06,3.42,2,5.12,3h0l.17.1h0l.31.19h0c7.17,4.85,14.26,10.14,19.77,16.89l0,0c1.91,1.58,3.26,3.85,4.85,5.56l-.06,0a11.36,11.36,0,0,1,1.45.8l-.05,0c3.79,2.17,5,6.83,5.72,10.86v-.06c5.93,17.48,3.56,37.54-2.66,54.66-7.18,15.32-26.21,11.53-39.93,10.47h0c-1.77-.09-3.56-.17-5.33-.28h-.08l-.6,0h0l-.78,0h0c-.17,0-.33,0-.5,0h0c-24.35-1.51-52.05-6.18-64.54-29.87l0,0c-14.16-19.55-7.72-46,9.12-61.76l0,0c2-3.14,8.81-5.75,3.46-8.8l0,0a15.62,15.62,0,0,0-1.47-1.1h0a15.06,15.06,0,0,0-3.17-1.56h0a12.6,12.6,0,0,0-1.37-.38h-.05a8.13,8.13,0,0,0-.84-.13h.06a18.72,18.72,0,0,0-2.12,0h0c-.46,0-.91.06-1.35.13h0a14.12,14.12,0,0,0-5.11,2l0,0c-.88.54-1.73,1.13-2.56,1.75l0,0a21.56,21.56,0,0,0-3,2.82l0,0a15.11,15.11,0,0,0-1.41,2.07.08.08,0,0,0,0-.05,53.1,53.1,0,0,0-3,6.22h0s0,0,0,0h0a104.73,104.73,0,0,0-4.42,13v-.06a416.48,416.48,0,0,0-7.21,47.77v-.05C316.88,343.46,311.32,436.3,235.92,448.83Z"/>
        </g>
        <g class="cls-65">
          <path class="cls-10" d="M353.27,223.69c-3.43-.7-2.59-5.49-1.19-7.68-7.21,5.73-7.41-.77-1.74-3.7h0a7.22,7.22,0,0,1,4.58-.56h0c.12-.2.14-.56.41-.59.92-10,16.15-6.64,4.32.12,9.12-.85,3.61,15.48-2.44,8.72a11.59,11.59,0,0,1-.52,1.43h0A3.45,3.45,0,0,1,353.27,223.69Z"/>
        </g>
      </g>
      <g class="cls-66">
        <path class="cls-67" d="M744.7,695.19h0l-.23-.54c0,.18.11.35.17.53h0Zm22.62,5.06h-.05l-.11,0h0l-.17,0h0l-.1,0h0l-.22,0h0l-.3-.06h0l-.09,0h-.07l-.1,0h0l-.12,0h0l-.35-.07h0l-.06,0h0a.86.86,0,0,1-.17,0h0l-.09,0h0l-.11,0h0l-.26,0h0l-.1,0h0l-.11,0h0l-.12,0h-.09l-.09,0h0l-.06,0h0l-.13,0h0l-.11,0h0l-.14,0h0l-.17,0h0l-.14,0h0l-.22,0h0l-.09,0h0l-.3-.07h-.08a.58.58,0,0,0-.14,0h0l-.09,0h0l-.11,0h0l-.08,0h0a.45.45,0,0,1-.11,0h0l0,0h0l-.36-.08h0l-.63-.13h0a.7.7,0,0,1-.14,0h0l-.11,0h0l-.17,0h0l-.09,0h0l-.14,0h0l-.1,0h0l-.16,0h0l-.26,0h0l-.09,0h0a.61.61,0,0,0-.13,0h0l-.13,0h0l-.18,0h0l-.3-.06h-.09l-.09,0h0l-.23-.05h0l-.14,0h0l-.18,0h0l-.29-.05h0l-.1,0h0l-.28-.06h0l-.11,0h0l-.19,0h0l-.06,0h0l-.19,0h0l-.74-.16h0s0,0,0,0l-.38-.08h0l-.18,0h0l-.14,0h0l-.08,0h0l-.08,0h0l-.29-.06h0l-.51-.1h0l-.4-.09h0l-.09,0h0l-.1,0h0l-.11,0H755l-.34-.07h0l-.15,0h0l-.23,0h0l-.16,0h0l-.13,0h0l-.11,0h0l-.18,0h0l-.12,0h0l-.15,0h0l-.1,0h0l-.44-.08h0l-.13,0h0l-.27,0h0l-.14,0h0l-.17,0h0l-.17,0h0l-.3-.06H752l-.29-.06h0l-.27-.06h0l-.26-.05h0l-.74-.16h0l-.19,0h0l-.22,0h0l-.28-.05h0l-.14,0h0l-.19,0h-.08l-.09,0h0l-.09,0h0l-.08,0h0l-.17,0h0l-.21,0h0l-.22-.05h0l-.22,0h0l-.13,0h0l-.29-.06h-.05l-.18,0h0a1,1,0,0,0-.17,0h0l-.08,0h-.05l-.16,0h-.06l-.14,0h0l-.05,0h0l-.09,0h0l-.07,0h-.08l-.14,0h0l-.11,0h0l-.07,0h-.06l-.39-.08h0l-.09,0h0l-.14,0h0l-.18,0h-.2l-.15,0h-.15l-.12,0h0l-.16,0h0l-.09,0h0c-.09,0-.22,0-.26-.1v0c-2.16-6.68-4.75-13.53-6.51-20.21h0a7.81,7.81,0,0,1,.53-.75h0l0,0h0a.81.81,0,0,0,.12-.14h0s0,0,0,0l.07-.07h0v0l0,0,0,0,.42-.48,0,0c.16-.18.31-.36.47-.53h0a.13.13,0,0,0,.06-.07v0l6-6.87,0,0c.15-.16.29-.33.44-.5h0c.16-.17.31-.35.47-.53h0l.3-.36h0c.07-.08.14-.17.22-.25l0,0,.06-.07,0,0,2.93-3.34h0l.17-.19,0,0,.24-.27h0l0,0v0l.22-.26h0l1-1.12h0l.06-.06h0l0,0,0,0,.11-.12.11-.12h0l0,0h0l0-.07h0a.39.39,0,0,1,.08-.1v0l0-.05h0a.26.26,0,0,1,.35-.1h0c.15,0,.3,0,.45.1h0l.09,0h.22l.21.05h0l.11,0h0l.32.07h0l.1,0h0l.1,0h0l.1,0h.05l.08,0h0l.07,0h0l.1,0h0l.08,0h0a1.83,1.83,0,0,1,.25.06h0l.13,0h0l.15,0h0l.15,0h0l.1,0h0l.16,0h0l.14,0h0l.1,0h0l.12,0h0l.1,0h0l.15,0h0l.11,0h0l.23,0h0l.13,0h0l.2,0h0l.15,0h0l.08,0h0l.14,0h0l.2,0h0l.21,0h0l.15,0h0l.28.06h0l.35.07h0l.13,0,.09,0h0l.12,0h0l.05,0h0l.17,0h0l.19,0h0l.07,0h0l.13,0h0l.1,0h0l.41.09h0l.3.06h0l.14,0h0l.1,0h0l.1,0h0l.19,0h0l.1,0h0l.11,0h0l.12,0h0l.13,0h0l.13,0h.13l.46.1h0a1.22,1.22,0,0,0,.17,0h0l.11,0h0l.06,0h0l.1,0h.14l.12,0h0l.09,0h0l.12,0h0l.07,0h0l.42.09h0l.23,0h0l.14,0h0l.1,0h0l.1,0h0l.12,0h0l.12,0h0l.28.06h0l.77.16h0l.11,0h.1l.15,0h0l.18,0h0l.09,0h0l.11,0h.06l.22,0h0l.3.06h0l.29.06h0l.1,0h0l.16,0h0l.12,0h0l.16,0h0l.11,0h0l.12,0h0l.08,0h0l.21,0h0l.17,0h0l.09,0h.27l.13,0h0l.19,0h0a.58.58,0,0,0,.14,0h0l.16,0h.09l.06,0h0l.17,0h0l.17,0h.06l.23,0h0l.2,0h0l.1,0h0l.18,0h0l.12,0h0l.12,0h0l.15,0H770l.12,0h0l.06,0h0l.2,0h0l.11,0h0l.08,0h0l.12,0h0l.16,0h0l.17,0h0l.27.06h0l.08,0h0l.15,0h0l.1,0h0l.08,0h.06l.12,0h0l.12,0h0l.12,0h0l.15,0h.07l.1,0h0l.19,0h0l.13,0h0l.15,0h0l.17,0H773c.15.39.29.79.44,1.19h0v0h0q3.21,9.78,6.43,19.57c-3.3,5.43-8.38,10.61-12.28,15.94h0l0,0h0c-.06.07-.13.14-.18.21v0l-.07.11h0Z"/>
        <path class="cls-67" d="M744.66,695.36a1.45,1.45,0,0,1-.31-.69C744.4,693.66,745.46,695.58,744.66,695.36Z"/>
      </g>
      <g class="cls-68">
        <path class="cls-69" d="M757.69,696.18l-.48-.07h0c-3.15-.53-6.42-1.08-9.55-1.65h0c-.24-.14-.29-.46-.34-.69h0c-1.94-5.44-4-10.93-5.89-16.39v0c0-.18-.08-.37-.13-.56,17.12,3.52,18,4.59,29.21-9.6h0l0,0c1.62-1.46,5.58,14.77,7.05,17.06a.13.13,0,0,0,0,.06h0a.17.17,0,0,1,0,.07h0c-2.31,2.3-4.7,5.61-7.17,7.6-1.72-3.92-3.08-8.55-4.65-12.62l-.09.11h0c-1.59,1.39-2.88,5.15-5.07,5.11h0c-2.27-.35-4.57-.78-6.84-1.17,1.33,4,2.68,8.25,3.9,12.32h0c0,.13,0,.26.06.39Z"/>
      </g>
      <g class="cls-70">
        <path class="cls-71" d="M743.58,696.13c-13.68.22-12.62-13.85-16.89-23.71v0s0,0,0,0h0v0h0s0,0,0,0h0v0h0v0c3.24-4.93,8.29-9.52,12.12-14.33.63-.72,1.25-1.45,1.91-2.16l0,0,0,0v0l.08-.09c2.88,1.09,6.79,1.46,9.18,2.93-4,5.37-9.18,10.48-13.58,15.75a.21.21,0,0,1,.06.1h0q3,8.72,6.08,17.44h0s0,0,0,0h0C742.68,693.27,744.15,695.21,743.58,696.13Z"/>
        <path class="cls-71" d="M733.93,693.85h0l-.1,0h0l-.08-.05h0c-.1-.1,0-.24-.08-.37h0c-.23-.43.35-.75.38-.19,0,0,0,0,0,0v0C734.3,693.29,734.29,694,733.93,693.85Z"/>
        <path class="cls-71" d="M733.87,693.86l-.06,0h0c-.47-.25.05-1.12.23-.41C734.33,693.48,734.13,694,733.87,693.86Z"/>
        <path class="cls-71" d="M743.46,696a.48.48,0,0,1-.09-.19v0s0-.06,0-.09h0a0,0,0,0,0,0,0h0a1.17,1.17,0,0,0-.07-.25v0c-.18-.53.48-.34.47.09v0s0,.1,0,.15v0C743.93,696,743.66,696.27,743.46,696Z"/>
      </g>
      <g class="cls-72">
        <path class="cls-31" d="M688.38,304.3c-9.87-2.74-20.69-1.44-30.89-2.73h0c-4.33-.73-9.94-.79-13.65-1.8,3.11-17.14-.61-37.27,2.51-53h0a2.7,2.7,0,0,1,.4-.14h0c13.51-.42,26.94-6.14,40.59-2.45,2.45,1.09,8.56-1.14,6.85,3.22-1.88,13.38-2.1,27.13-2.08,40.66C691.55,293.72,696.51,304.11,688.38,304.3Z"/>
      </g>
      <g class="cls-73">
        <path class="cls-74" d="M655.43,274.2c-6.55-.57-5.08-8.77-11.17-10.3-2.88.89-5.71-.43-8.29-1.61-6.68-2.32-7.77-7.11-6.57-12.91-5,.37-7.39-5-10-8.36-4-4.29-3.87-6.89.76-10.54-.21-.58-.4-1.23-.56-1.84-9.82-1-10.34-13.31-4.18-19.09-.08-.63-.15-1.22-.22-1.82-6.1-1.07-6.09-8.56-6.58-13.45-1.15-5.16,2.15-8,4.92-11-9.62-3.8,0-20.43,9.16-19.39,15.45-16.8,19.27-6.72,31.13-20.46h0c3.16-2.91,7.66-3,8.88,1.69,3.25-1,6.22.11,9.29.75,4.48-2.34,9.75-4.83,14.89-4,2.88,1.09,4,4.51,4.21,7.32,11,7,13.37,1.84,18.34,6.84a14.49,14.49,0,0,1,2.28,11.88,33.58,33.58,0,0,1,4.78,10.23c6.76,5.68,12.31,17.86,3,23.81-.39,10.09,3.52,31.88-11.74,31.65-3.43,7.14,3,14.85-9.2,20.09-3.86,1.85-7.53-2.64-10.29,1.51,1.52,13.83-12.53,13.28-21.7,13.32C665.42,272.55,659.12,273.72,655.43,274.2Z"/>
      </g>
      <g class="cls-75">
        <path class="cls-76" d="M463.08,544.8c-43.69-5.35-62.32-53-58-92.32-30.3,4.26-26.38-34.31-20.7-53.7-9.61,4.1-21.29-7-27.21-13.8-8.92-13.59-2.82-31.92,3.22-45.55,6.53-10.3,17.73-16.44,28-22.52,2.33-.72,13.46-8.58,13.81-6.16,6.64-2.86,13-6.41,20-8.34-.37,0-.74.1-1.11.16h0c-11.89,4.26-8.31,2.26-.1-2.35-1.21-14.48-2.54-29.43-.61-43.87v0c.51-2.44,1.06-4.87,1.56-7.31v0c.06-.28.11-.56.17-.85h0c.16-.83.32-1.66.49-2.49v0c5-23.19,16.47-47.25,37.79-59.4,19.09-8.94,49.37-11.27,59.58,11.34,16.82,33.72-4.56,75.06,18.86,106.64a0,0,0,0,0,0,0c1,2.21,2.9,3.77,4.14,5.82h0c.57.74,1,1.58,1.67,2.26h0a5.55,5.55,0,0,1,1.52,2.24h0c6.72,14.49,13.68,29,18.69,44.16h0c15.77,32.83,3.36,91.39-40.26,91.06,7.45,9.58,6.54,22.65,6.82,34.15C535.16,523.77,498.59,544.33,463.08,544.8Z"/>
      </g>
      <g class="cls-77">
        <path class="cls-31" d="M365.66,323.82c-.61,0-1.19-.21-1.79-.29h-.08c-.93-.1-1.86-.15-2.78-.31h0a22.34,22.34,0,0,1-4-1.09h0c-2.47-.51-4.71-1.65-7.31-1.78h0c-4.32-.45-8.66-1-12.61-3h0c-5-2-12.58-9.71-1.77-8-5.54-2.77-6.36-9.55,1.46-7.23-3.28-2.34-3.57-9.67,1.94-7.7-2.67-2.53-1.49-8,2.56-7.85h-.12c7.94,2.28,14.52,8.42,21.79,12.35l0,0c4.35,3.42,13.73,4.07,10.48,11.36h0v.05C372.32,315.24,372.06,323.22,365.66,323.82Z"/>
      </g>
      <g class="cls-78">
        <path class="cls-79" d="M472.47,229.93a.41.41,0,0,1,.81,0A.41.41,0,0,1,472.47,229.93Z"/>
        <path class="cls-79" d="M739.63,552.64l-2.49.07c6.07.26,12.17.63,18.18,1.45A135.25,135.25,0,0,0,739.63,552.64Zm15.69,2c-60-4.12-120.68,3.12-180.24-8-.52-3.15,0-8.17,0-11.88h0l0-.1h0c.87-55.88-3.36-111.46-1.94-167.46-53.68,1.83-111.42,12.58-162.84-6.79-19.85-12.72-40.89-23.59-59.7-37.95,3.28-8.36,6.51-16.74,9.82-25.09A273.87,273.87,0,0,0,397,301.09h.69l3.55.11H401l.92,0H402l4.18.13h-.15c23,.92,46.14-.81,69,1.56,17.1,2.46,34.06,6.06,51.39,4.36C547,305.41,564,290,585,289.34c51.13-7.07,103.63-6.2,155.32-6.26,37.76,11.09,80.34,31.4,116.87,51.14a46.12,46.12,0,0,1,14.73,16c10-.09,20.44.19,30,3.25h0l.16.09,0,0c1.4.62,2.86,1.11,4.29,1.66h0c6,1.45,19.78,6,11.46,13.57a28.8,28.8,0,0,1-4.82,3.6h0c-15.73,9.87-32.51,18.76-51.1,21.58h0c-5.89,1.29-11.77,2.91-17.84,3h0c-1.81.14-3.63.31-5.45.41h0c-5.59.58-11.19.57-16.8.73h0c-1.76.18-3.52.26-5.32.38h0l-1.08.07h0c-11.07.66-22.21-1.14-33.07-3.16h0c-2.5-.47-5-.83-7.52-1.39h0c-5.12-1-10.29-1.79-15.45-2.59,0,34.74-.8,69.44,1.68,104.14,1.36,15.77-.63,31.66-2.67,47.3C757.52,545.47,758.53,555.21,755.32,554.68Z"/>
        <path class="cls-79" d="M576,369.61c-5.59-1.3-10.72-4.17-16.3-5.59h-.07l-.2-.06h0l-.2-.06h0c-5-1-4.36-1.72.15-.38h0l.25.07h0l.2.06h0c5.3,1.44,10.24,3.87,15.5,5.46h0a2.88,2.88,0,0,0,.4.09h0C576,369.1,576.53,369.45,576,369.61Z"/>
        <path class="cls-79" d="M576.48,369.55c-3.55-1.3-7.16-2.38-10.77-3.47h0c-4.63-1.55,1.9,0,3.23.41-2.44-1.22,1.35-.31,2,.05,0-.29.39-.26.61-.22.58-1,8,3.47,2.89,1.31l0,0c.26.16.92.15.81.57.52.18,1,.39,1.54.61h0a.2.2,0,0,1,0,.39C577,369.44,576.69,369.65,576.48,369.55Z"/>
        <path class="cls-79" d="M741.56,553.15c-.66-.19-6.32-.11-4.7-1,.11-.16.39-.19.57-.24h0c1,0,6.79.12,4.35,1.09A.22.22,0,0,1,741.56,553.15Z"/>
        <path class="cls-79" d="M754.91,554.35c-.22-.15-.64,0-.72-.27-4.09-.48-10-.18-13.16-1.57h0c4.39-.12,8.58,1.05,12.9,1.15h0c.29,0,.59,0,.86,0h0C755.53,553.74,756.21,554.6,754.91,554.35Z"/>
      </g>
      <g class="cls-80">
        <path class="cls-81" d="M737.18,467.71l-.86-.26a4,4,0,0,0,.44.17h0l.23.06h0Zm27.89,8.34a32.47,32.47,0,0,1-7.43-1.73h0l-.48-.13h0c-2.63-.1-4.8-1.7-7.26-2.46h0c-2.21-.74-4.53-1.13-6.68-2h0a23.15,23.15,0,0,1-4-1.27h0c-1.27-.26-2.62-.23-3.75-.94l0,0a13.21,13.21,0,0,1-6.79-6.24h0a5.66,5.66,0,0,1-.31-1.47h0c-.89-13.64,5.28-27.37,20.63-27h0c.24-.08.65-.36.6.13,19.64-11.27,33.36,6.32,4.94,7.23h0c2.33,0,4.3,1.34,6.45,2h0c8.76,1.17,20.3,10.19,4.06,10.42,4.1.64,8.09,3.76,7.7,8.25v0c.21,2.57-.94,3.4-3.36,2.57h0l-.6-.11h0c-3.77-.54-7.48-1.39-11.2-2.2h0c-2.53-.47-5.09-.88-7.65-1.13h0a5.21,5.21,0,0,0-1.25,0v.08h0s0,0,0,0h0s0,0,0,0h0s0,.06.06.08h0l.08.06,0,0a3.84,3.84,0,0,0,.39.22h0a13.67,13.67,0,0,0,1.38.55h0a33.85,33.85,0,0,0,3.81,1h0c4.39.75,9.29.8,12.43,4.44C769.92,469.5,771.1,476.34,765.07,476.05Z"/>
      </g>
      <g class="cls-82">
        <path class="cls-45" d="M791.82,446a.2.2,0,0,1,.4,0A.2.2,0,1,1,791.82,446Z"/>
        <path class="cls-46" d="M572.14,376.93l.12.27a1.75,1.75,0,0,1,0-.32s-.07,0-.11,0Zm168,127.54c-55.21-9-109.24-27-158.24-54.15-3-1.63-6.31-3.09-8.95-5.32-3.2-1.61-5.41-11.38-6.31-16.47h0c-.59-1.87.11-3.27.34-.41h0c1.22,5.28,1.71,11.14,5.23,15.49-2.57-15.28-1.07-30.53.2-45.82-.84.58.05-2,0-2.49a21.89,21.89,0,0,1,0-3.71c-.71-4.93,1-9.93-.68-14.45a.37.37,0,0,1-.5-.33c-.14.13-.36-.08-.44-.17,0,.74,1.27,1.88.73,2.35-1.83-2.19-1.46-5.58-2.44-8.18-5.42-8.9,12.94,2.44,15.67,3.71,54.49,20.92,100.81,68.38,163.36,54.23h0c4-.53,8.36-2.2,12.25-1.86,3.66,13.18,1.59,27.27-3.21,39.9C755,474.1,747.18,503.35,740.14,504.47Z"/>
      </g>
      <g class="cls-83">
        <path class="cls-61" d="M882.91,311.33a214.31,214.31,0,0,1-31.51-4.11h.05c-9.86-1.1-15.42-11.35-17-20.26h0a14.39,14.39,0,0,1-.48-6.71.2.2,0,0,1,0,.07,34.57,34.57,0,0,0-.38-5.92h0c-.27-8.27,1.37-16.49,1.91-24.73h0c.34-16.95,6.19-34.27,17-47.45h0a89.61,89.61,0,0,1,8.15-8.38h0a50.89,50.89,0,0,1,7.7-6.58h0a57.8,57.8,0,0,1,8.53-4.75h0c17.62-11,44.72-4.61,59.36,8.91l0,0c14.68,18.16,15.52,41.78,13.6,64.05h0v.08a37.78,37.78,0,0,0,.07,4.76v-.1c1.69,7.32.24,14.61-.16,22h0c0,.09,0,.18,0,.27h0c0,.24,0,.48,0,.72v-.09c-1,4.84-.22,20.11-6,20.44h0c-15.78,3.23-31.7,6.16-47.79,7.39h.06C891.61,311.13,887.26,311.43,882.91,311.33Z"/>
      </g>
      <g class="cls-84">
        <path class="cls-85" d="M1074.33,1116.07c-5.8-.54-11.16-4.51-12.5-10.36l0,0c0-.15-.09-.3-.14-.45l0,0c-1.73-6.68-1.62-13.72-2-20.58v0c0-.38,0-.77,0-1.16v0a.28.28,0,0,1,0-.09h0a2,2,0,0,0,0-.25v-.14h0a1.93,1.93,0,0,1,0-.24h0a2.62,2.62,0,0,0,0-.28h0v-.11h0c0-.32,0-.64,0-1h0c0-1.5-.13-3-.19-4.5h0c-.1-2.47-.22-4.94-.3-7.4v0l0-.9v0c-.07-1.66-.11-3.32-.2-5-1.45.54-.43-4.17-.62-5.16h0a.45.45,0,0,1,0-.11v0c0-.14,0-.27,0-.4h0v-.06h0c.23-2.4.56-5.55,3-6.69l0,0c1.69-1.23,3.29-2.74,5-3.9l0,0,.22-.15,0,0c3.18-1.79,6.51-3.22,9.81-4.76h0l.44-.17-.07,0c10.29-3.12,18.25-2.79,20.57,9.37h0c0,.08,0,.15,0,.22h0v0h0c1,9.53,3.18,18.89,4.13,28.41v0h0v0c0,.37,0,.74,0,1.11v0c-1.13,10,1.25,24.37-9.4,29.68a20.4,20.4,0,0,1-6.78,2.63h0l-.19,0h0c-1.2.23-2.43.31-3.64.52h0c-1.77.32-3.48.94-5.25,1.22h.05A12.14,12.14,0,0,1,1074.33,1116.07Z"/>
      </g>
      <g class="cls-86">
        <path class="cls-85" d="M905.54,1128.1c-5.8-.54-11.16-4.51-12.49-10.36v0c0-.15-.09-.3-.13-.45,0,0,0,0,0,.05-1.73-6.68-1.62-13.72-1.94-20.59v0l0-1.16v0s0-.06,0-.09h0v-.39h0a1.93,1.93,0,0,0,0-.24h0v-.28h0v-.11h0l0-1h0c-.06-1.49-.14-3-.2-4.49h0c-.1-2.47-.22-4.94-.3-7.4v0l0-.9v0c-.07-1.66-.11-3.31-.19-5-1.45.54-.43-4.17-.62-5.17v0a.37.37,0,0,0,0-.11h0c0-.13,0-.26,0-.39h0v-.06h0c.23-2.4.56-5.55,3-6.69l0,0c1.69-1.24,3.28-2.74,5-3.9l0,0,.23-.14-.05,0c3.19-1.79,6.51-3.22,9.81-4.76h0l.43-.17-.06,0c10.29-3.12,18.25-2.79,20.56,9.37h0a1.7,1.7,0,0,1,0,.22h0v0h0c1,9.53,3.19,18.89,4.13,28.41v0h0v0c0,.37,0,.74,0,1.11v0c-1.13,10,1.25,24.37-9.41,29.67a20.16,20.16,0,0,1-6.77,2.64h0l-.2,0h0c-1.21.23-2.43.31-3.65.52h0c-1.77.32-3.48.93-5.26,1.22l.05,0A10.94,10.94,0,0,1,905.54,1128.1Z"/>
      </g>
      <g class="cls-87">
        <path class="cls-7" d="M1062,1141.52c-5.25-16.42-3.28-35.88-7.06-53.19a74.94,74.94,0,0,0,10.06.17h.11c2.91-.26,5.86-.32,8.77-.55h0c11.73-.51,23.19-3,34.56-4.59,17.76,1.91,97.7,13.09,74.41,42.58-11.79,5.37-25.54,3.31-38.14,5.73C1117.16,1135.4,1089.39,1137.58,1062,1141.52Z"/>
      </g>
      <g class="cls-88">
        <path class="cls-7" d="M891.31,1147.6c-4.8-16.61-3-35.81-6.42-53.19a61.9,61.9,0,0,0,9.14.17h.1c2.64-.25,5.33-.32,8-.55h0c10.68-.51,21.1-3,31.4-4.59,18.53,2.74,82.41,11.42,69.59,40.18-9.91,9.82-27.49,4.9-40.3,8.65C939,1141.74,915,1143.84,891.31,1147.6Z"/>
      </g>
      <g class="cls-89">
        <path class="cls-50" d="M1114.41,1096.91c-1.56-1,.32-3.87.1-5.54v0a.37.37,0,0,1,0-.11.43.43,0,0,0,0,0,43.1,43.1,0,0,0,.14-5.08v0a1.22,1.22,0,0,1-.14-1.21v0c.7-1.71,2.12,0,1.77,1.19v-.11C1116,1089.08,1116.91,1095.33,1114.41,1096.91Z"/>
        <path class="cls-50" d="M1122.47,1097.94c-1.39-.44-.31-2.18-.19-3.15l0,.11a28,28,0,0,0,.62-3.26v0s0-.08,0-.11,0,0,0,.07a25.93,25.93,0,0,0,.1-3.18h0v0c-.94-3.25,1.82-3.31,1.63-.13h0C1124.37,1090.76,1124.79,1096.91,1122.47,1097.94Z"/>
        <path class="cls-50" d="M1130.24,1096.58c-1.68-.67.17-2.82.2-4.06h0a15.52,15.52,0,0,0,.38-1.92v.11c.1-1,.12-2,.13-3v0h0C1133.26,1082,1132.84,1096.81,1130.24,1096.58Z"/>
        <path class="cls-50" d="M1138.64,1094.57c-.82-.29-.51-1.17-.31-1.78l0,.11a12.23,12.23,0,0,0,.28-3.19h0a.37.37,0,0,0,0-.11h0c-.45-2,2-1.79,1.63.12v-.11C1140,1091.06,1140.63,1094.49,1138.64,1094.57Z"/>
        <path class="cls-50" d="M1145.55,1093.9c-1.83-.24-.4-5.24,1.12-3.34C1147,1091.65,1147.32,1094.07,1145.55,1093.9Z"/>
        <path class="cls-50" d="M1084.44,1098.05a8.19,8.19,0,0,0,2-.37l-.1,0a22.91,22.91,0,0,0,3-1.15l-.1,0,.06,0h0a103.22,103.22,0,0,0,13.78-9.1l-.08.06a10,10,0,0,0,2.6-2.66,12.73,12.73,0,0,0-1.51.2h0c-1.39.27-2.75.67-4.11,1.06l.11,0-1.17.35h0l-.12,0h0l-.21.06h0l-.33.1.1,0-.25.08,0,0-.2.06.07,0h0c-5.78,1.8-12.57,4.76-14.86,10.8l0-.06a.27.27,0,0,0,.15.34l0,0A2.12,2.12,0,0,0,1084.44,1098.05Zm16.42,8.74a3.31,3.31,0,0,0,1.58-.53h0l.09,0,0,0a7.64,7.64,0,0,0,1.45-1.21l-.08.08c3-3.2,3.45-7.91,3.52-12.12h0a43.33,43.33,0,0,0-.35-4.69l0,.1c-.12-.68-.24-1.37-.4-2.05-3.16,5.72-10.29,13.13-7.06,19.92v0l.07.07s0,0-.05,0l.16.14-.08-.06A2,2,0,0,0,1100.86,1106.79Zm-.28,1.61c-7.94-2.82-1-13.62,1.73-18.34a108.57,108.57,0,0,1-12.45,8l.09,0-1.19.53h0l0,0h0l0,0h0c-17.7,4.6,1.45-13.51,8.79-13.41l-.1,0,.15,0h0l.19-.06h0l.16,0h0l.33-.1-.1,0,.25-.07h0l.1,0h0l.09,0h0a52,52,0,0,1,5.35-1.42h0c1.55-.58,6.72-.36,4.41,2.12C1109.65,1093.06,1110.15,1106.63,1100.58,1108.4Z"/>
        <path class="cls-50" d="M1107.81,1088.57c-1.22.26-1-5.34.22-5C1109.28,1083.4,1109.07,1088.87,1107.81,1088.57Z"/>
        <path class="cls-50" d="M938.34,1107.24c-1.44-1.43.91-4.2,1-6.06v0l0-.09h0l.12-.47h0a.64.64,0,0,0,0-.07v0l0-.07v0a29.79,29.79,0,0,0,.91-8.14v.11c-.08-.72-.46-1.87.67-1.89,2.33,2.09.34,7.42,0,10.33v0a.36.36,0,0,0,0,.1v0c0,.19-.1.38-.14.58v0C940,1103.2,940.33,1106.91,938.34,1107.24Z"/>
        <path class="cls-50" d="M946,1103.73c-1.12-.27-.45-1.56-.43-2.35v0a.41.41,0,0,1,0-.11v0c0-.24.06-.49.08-.73h0c0-.11,0-.21,0-.31h0c.29-2.6.93-5.17.86-7.8v.11a.88.88,0,0,1,.8-1.22c2.21,1.9-.18,6.35,0,9.06h0v0h0l0,.33v0h0C947,1101.72,947.45,1103.79,946,1103.73Z"/>
        <path class="cls-50" d="M953.19,1101.09c-1.56-1.24.36-4.72-.16-6.7v0c-.78-1.83,1.91-2,1.62-.1v0C954.31,1096.24,955.3,1100.31,953.19,1101.09Z"/>
        <path class="cls-50" d="M959.23,1099.23c-1.45-.64,0-2.79-.36-4v.07a3.66,3.66,0,0,0,0-.66s0,.07,0,.11C960.41,1090.76,961.57,1099.3,959.23,1099.23Z"/>
        <path class="cls-50" d="M964.27,1097.7c-1-.08-.76-1.21-.67-1.91h0C964.73,1093.08,966.27,1097.52,964.27,1097.7Z"/>
        <path class="cls-50" d="M915.57,1107.31a3,3,0,0,0,.93-.28h0c.28-.13.55-.29.82-.44h0l.09,0,0,0a12.92,12.92,0,0,0,1.29-.9l-.08.07,1.31-1h0a51,51,0,0,0,8.87-8.44l-.07.08a17.88,17.88,0,0,0,2.63-4.69l0,.09a.5.5,0,0,0,0-.13,71.67,71.67,0,0,0-7.69,5.5l.06,0a38.77,38.77,0,0,0-4,3.69l.07-.08a29.07,29.07,0,0,0-2.6,3l.06-.08a11.45,11.45,0,0,0-1.77,3.63A.47.47,0,0,0,915.57,1107.31Zm9.86,6.06a1.36,1.36,0,0,0,.35-.07l-.1,0a3.83,3.83,0,0,0,1.05-.65h0a20.62,20.62,0,0,0,4.93-7.89l0,.09c.08-.22.17-.43.26-.65l0,0a25.07,25.07,0,0,0,1.71-6.49.15.15,0,0,1,0,.07s0-.08,0-.11v0a14.56,14.56,0,0,0,0-3.9s0,.07,0,.1a7.34,7.34,0,0,0-.45-1.65h0l-.22-.48c-1.95,5.27-5,10-7.14,15.25v0l0,.06,0,0a14.1,14.1,0,0,0-1.3,4.79v-.11a2.14,2.14,0,0,0,.25,1l0,0a4.06,4.06,0,0,0,.26.36l-.07-.08C925,1113.21,925.19,1113.39,925.43,1113.37Zm-.16,1.62c-5.77-2.5.31-10.47,1.76-14.37a82.56,82.56,0,0,1-7.46,6.38.27.27,0,0,1,.08-.07c-5.47,4.48-7.71.65-3.74-4.3a51.85,51.85,0,0,1,16.3-13.31l-.1,0c.89-.38,1.82.62,2.1,1.41a1,1,0,0,0,0-.1,13.24,13.24,0,0,1,.79,1.91l0,0a10.65,10.65,0,0,1,.3,1.36.36.36,0,0,1,0-.1,23.82,23.82,0,0,1-2.1,11.69l0-.08C931.52,1109,929.56,1114.22,925.27,1115Z"/>
      </g>
      <g class="cls-90">
        <path class="cls-91" d="M973.54,1081.68c-28.12-1.64-55.94-6.26-84.11-7.19-26.27-.43-46.88,5.85-39.84-28.34,2.46-140.75,17.83-287.68,41.22-421.34C914,536.09,962.49,455,973.6,363.36c-100.84,19.74-157.18-21.51-240.43-70.93-8.87-5.55-31.51-7-10.32-15.78,20.92-7.6,43-14.65,65.6-11.72,98.28,26.86,73.88,31,179.93,17.66,113.17-24.34,569.44-41.84,197.05,70.85-52.07,10.18-39.41,14.64-44.24,61.2-21.59,92.63,19,182.24,19.66,274.51-2.19,112.12-5.55,223.66,5.88,335.32,3.26,26.11,12.79,49.82-23.29,43.11-34.41-.42-70.72-1.33-99.64,2.94-25.41,8.13,4.74-451.35-16.33-349C990.88,840.57,990.88,963.77,973.54,1081.68Z"/>
        <path class="cls-91" d="M879.1,708c-1.41-.82-1.41-4.57-1.36-6.27v.09c.14-.73.2-1.46.36-2.19h0v-.06h0a.09.09,0,0,1,0,0h0a14.86,14.86,0,0,1,.61-2.47h0A5.71,5.71,0,0,1,879,696h0c.31-1.06,1.33-.21,1.06.6v0c1.15,1.64-.09,4.13,1,5.62h0C881,704,881.29,707.46,879.1,708Z"/>
        <path class="cls-91" d="M881.62,707.8c.18-9.5,1.26-18.94,2.2-28.38v0a.62.62,0,0,1,0-.13v0c.2-3.93.09-7.86.33-11.78v.16l.06-.91a.86.86,0,0,0,0,.16,235.2,235.2,0,0,1,3.4-28.62.29.29,0,0,1,0,.09l0-.14v0c.2-1.11.4-2.22.62-3.32l0,.15c.07-.35.13-.71.2-1.07,0,0,0,0,0,.07,1.15-3.49,1-8.2,3.38-11,5.23-4.11.15,14.3.42,16.54-1.24,2.87.39,14.37-4.07,13-1.11,6-1.36,12.17-1.81,18.26v0l0,.6v-.16c-.06,1.25-.11,2.5-.18,3.75a.66.66,0,0,1,0-.14l0,.52v-.15c-.73,9.48-2.4,18.85-2.93,28.35,0,0,0-.06,0-.09,0,.66-.07,1.32-.11,2,0,0,0-.06,0-.09,0,.47-.05.94-.08,1.4a.19.19,0,0,0,0-.08C883.31,707.92,882.08,709.32,881.62,707.8Z"/>
      </g>
      <g class="cls-92">
        <path class="cls-93" d="M1057.91,518.12c-41.18-1.56-81.38-16-115.74-38.26-.17-5,4.07-10.08,4.37-15.32,0-1.47,1.75-.84,2.59-.58,46.39,26.4,102.75,36,155.18,24.42l-.08,0a69,69,0,0,1,7.51-1.67l-.08.05c1.37,0,2.9-1,4.18-.71,1.82,0,.73,12.63.54,14.5h0C1102.13,513.66,1077.22,517.86,1057.91,518.12Z"/>
        <path class="cls-93" d="M1056.55,487.79c-12.79.36-25.42-1.89-37.95-4.15h0c-21.94-5.15-43.1-13.57-63.09-23.9l0,0c-1.19-.59-2.4-1.15-3.61-1.7h0l-.25-.09a.21.21,0,0,1-.37-.06h0l0,0h0l-.07,0h0c-.6-.68.73-.29,1-.11h0c2.6.88,5,2.19,7.58,3.19l-.06,0c5.19,1.79,10.09,4.33,15.25,6.22h0c22.83,8.47,46.07,16.32,70.5,18.37h-.14a157.34,157.34,0,0,0,16,.19h0l.33,0h.1c16.94-1.1,33.8-3.51,50.7-5h-.11a12.84,12.84,0,0,0,1.39-.15h0c1.13-.63,3.1.22,1.35,1.16l.08,0-.26.08.09,0-.5.16.09,0a25,25,0,0,1-3.87.63h.05C1092.73,484.88,1074.66,487.48,1056.55,487.79Z"/>
        <path class="cls-93" d="M971.64,467.48c-2.21-.88-25.36-9.67-21-11.61,1.76-.94,4.59,2.64,6.56,3.19h0l.07,0,0,0,.5.27h0C958.6,460.56,977.37,467.41,971.64,467.48Z"/>
        <path class="cls-93" d="M1056.52,524.07c-19.48.32-38.42-3.73-56.57-10.6l.06,0-.36-.13h0l-2.23-.84.13.05c-5.32-1.88-10.83-3.35-15.73-6.22l.11.06c-13.43-6.3-27-12.39-39.45-20.58h0c-.44-.3.09-.67.39-.33h0c4.25,1.91,8.28,4.37,12.37,6.62l0,0c11.35,5.55,22.95,10.57,34.44,15.78l-.12-.05c3.53,1.28,7.16,2.29,10.65,3.68h0l.12,0,0,0c8.54,2.87,17.12,5.75,25.86,7.94h0c13.71,2.81,27.83,3.27,41.79,3h-.1c6.19-.47,12.37-1.23,18.53-2l-.09,0c8.25-1.56,16.43-3.57,24.49-5.94l-.11,0c.66-.21,1.33-.4,2-.6h-.06c17.7-3-20.6,8.11-23.71,7.66l.11,0C1078.17,523,1067.37,524.44,1056.52,524.07Z"/>
        <path class="cls-93" d="M947.11,487.73,945.7,487l.3.18h0l.48.29h0A3.76,3.76,0,0,0,947.11,487.73Zm3.94,2.78c-2.59-.86-5-2.31-7.52-3.31h0c-1.36-.35-1.26-1.26.11-.47-.32-.24-2-.81-1.18-1.13a2.71,2.71,0,0,1-.59-.69h0c-.19,0-.29-.31-.09-.41-.37-.28,0-.72.29-.34h0c1,.73,2,1.33,3,2h0c.86.85,4.36,1.74,4.17,2.73.23.12,1,.32.54.63C950.06,489.71,951.8,490.07,951.05,490.51Z"/>
        <path class="cls-93" d="M945.8,487.88h0c-1.35-.83-4.33-.57-4.64-2.39h0v0c.07-.39.09-.79.19-1.17h0c.56-1,1.67,1,2.33,1.33h0l0,0h0l0,0h0c.24.2.75.5.38.82.22.16.66.24.62.59.39.13.77.28,1.15.4h0A.21.21,0,1,1,945.8,487.88Z"/>
        <path class="cls-93" d="M953.94,492.42a44.25,44.25,0,0,1-4.9-3.25h0c-.6-.36-1.22-.7-1.81-1.07h0c-.61-.36-1.21-.73-1.81-1.11h0c-1.14-.67-2.31-1.27-3.48-1.88h0c-1.93-1.58,3.84,1.47,4.29,1.92l0,0C948.45,488.48,953.51,490.71,953.94,492.42Z"/>
        <path class="cls-93" d="M956.33,493.46c-1.38-.79-2.66-1.75-4-2.54h0c-.63-.38-1.27-.74-1.89-1.13h0l-.34-.21h0l-.34-.21h0l-.13-.08h0l-.84-.52h0c-1.75-1-3.51-2-5.33-2.94h0c-4.51-2.68,6.54,2.74,7.43,3.71h0l1.5.9,0,0c1.25.76,2.46,1.56,3.66,2.38l0,0C956.3,492.91,957,493.46,956.33,493.46Z"/>
        <path class="cls-93" d="M957.13,494.14a24.25,24.25,0,0,1-2.67-1.61h0c-1.67-1-3.07-2.31-4.74-3.27h0c-.71-.43-1.47-.81-2.22-1.18h0c-.19-1.51,6,3.49,7,4h0c.53.31,1,.68,1.53,1h0C956.33,493.33,958.07,493.94,957.13,494.14Z"/>
        <path class="cls-93" d="M957.86,494.08a34.53,34.53,0,0,1-4-2.32h0L952,490.59h0l-.09-.05h0c-.52-.31-1-.62-1.55-.95h0c-.7-.39-1.39-.79-2.1-1.16h0c-4-1.9,2.08.19,3,1.26h0c.28.17.56.33.83.51l0,0,1.91,1.19,0,0c.64.39,1.26.81,1.9,1.2h0c.64.37,1.27.74,1.94,1.06h0C958.17,493.66,958.23,494.15,957.86,494.08Z"/>
        <path class="cls-93" d="M962.69,496.18a43.91,43.91,0,0,1-10.47-5.58h0c-1.34-.77-2.63-1.62-4-2.29h0a4.79,4.79,0,0,0-.57-.21h0c-.17-1.53,7.5,4,8.69,4.72h0c1.4.73,2.81,1.45,4.25,2.08h0C961,495.28,963.58,495.68,962.69,496.18Z"/>
        <path class="cls-93" d="M952.52,458.42a.75.75,0,0,1-.15-.09h0l0,0h0l-.67-.45h0a8.24,8.24,0,0,1-1.21-.81h0l-.26-.22h0l0,0h0a1,1,0,0,1,.06-1.41v0s0,0,0,0h0c.45-.92,1.41.06,1.92.43v0l.51.43,0,0,.07.06v0c.4.2.68.81.1,1-.79,0-1.39-1.4-2.11-1.13l0,0c-.09,0-.11.13-.13.22v0h0a.45.45,0,0,0,.12.44h0a.2.2,0,0,0,.06.07h0c.25.19.5.37.76.54h0a9.65,9.65,0,0,1,1.12.72h0C952.89,458.13,952.78,458.51,952.52,458.42Z"/>
        <path class="cls-93" d="M955.77,469.6c-1.43-1.12-2.67-2.48-4-3.67h0l0,0h0l-.06-.05h0l0,0h0a6,6,0,0,0-2.15-1l.06,0-.24-.11.05,0a5.29,5.29,0,0,0-2-.59h0c-.11,0-.22,0-.23.18v0a.25.25,0,0,0,0,.12h0a.06.06,0,0,1,0,0h0c.64.54.54,2.18,0,.71h0a2.28,2.28,0,0,0-.24-.39l0,0a.64.64,0,0,1,.19-1.17h0C948.87,462.05,958.74,469.76,955.77,469.6Z"/>
      </g>
      <g class="cls-94">
        <path class="cls-95" d="M1126.2,213.7A22,22,0,0,0,1121,212,27.13,27.13,0,0,0,1126.2,213.7Zm-85.09,131c-13.23-1-22.88-15.92-19.14-28.49,7-16.42,3.46-6.82-7.63-.87-39.07,24.88-51.54-20.19-30.91-47.57,3.79-3.05-6.07-.7-8.41-2-11.4-2.68-34.95-6.6-28.71-23.13,6.9-14.27,5.78-16.75,21.25-17.17-43.23-40.75,3.76-81.39,29.11-51.89-14.38-26.77,15.43-32.71,36.26-31.21,14.07-.42,21.77,13.35,23.36.91,6.93-26.19,45.16-37.41,52.76-6.84.28,11-5.17,21.12-9.76,30.8,44.22-30.09,92.71,29.51,30.6,47.86a15.63,15.63,0,0,1,3.85,5.56c10.53,41.88-26.66,39.29-13.77,43.93,25.75,19.72-3.49,77.27-35.08,57.76-8.2-4.69-7.48-12-11.16.34C1068.62,336.46,1056.18,346.35,1041.11,344.74Z"/>
        <path class="cls-95" d="M1121.57,212.5a9,9,0,0,0,1.07-1.4A4.26,4.26,0,0,0,1121.57,212.5Zm3-.83c-.12.29-.26.58-.4.87.29-.43.71-.77,1-1.2h0a1.89,1.89,0,0,0,.09-.21v0c.13-.26-.08-.31-.29-.22h0C1124.7,211.09,1124.67,211.4,1124.57,211.67Zm-4.65,1.72a3,3,0,0,0,.48-1.3c-.16.38-.3.76-.43,1.16h0Zm1.88,1.63.41-.34,0,0a5.29,5.29,0,0,0,1-1.21l0,0,.11-.18A10.05,10.05,0,0,1,1121.8,215Zm-2.61,2.27h0l.1,0h0l.29-.1h0a5.84,5.84,0,0,0,.68-.41v0a2.88,2.88,0,0,0,.46-.39c-.54-.14-.34-.82,0-1.13-.55.48-1.54,1.5-1.5,2Zm-.36.51,0,.07.3-.17a.65.65,0,0,1-.21-.06Zm-.69,1.81c-.39-.19,0-.83,0-1.16-.92-.17.32-1.88.43-2.43-.7-.65.71-1.39.72-2.14h0c.2-1.27,2.12-5.09,1.43-1.53a4.53,4.53,0,0,0,.86-1.37h0c.06-.22.39-.5.52-.18.51-.72,4.81-4.11,3.51-1.6.48.39-.15.92-.38,1.27a.51.51,0,0,1,.39.36c.34-.49,2-2.26,1.72-.7C1124.9,213.93,1120.54,216.36,1118.14,219.61Z"/>
        <path class="cls-95" d="M1124.9,208.43h.11l.07-.18Zm-4.41,4.4c-.13.19-.25.38-.36.58,0-.06.09-.13.14-.2a.05.05,0,0,0,0,0c.15-.24.31-.48.47-.71v0l0-.07h0c.59-.91,1.41-1.66,2-2.58-.16.15-.3.31-.45.47h0a18.58,18.58,0,0,0-1.24,1.57l0,0Zm3.3.44c-.24.58-.45,1.19-.73,1.76l.26-.36h0a10.39,10.39,0,0,0,1.31-3.52C1124.31,211.84,1124.09,212.57,1123.79,213.27Zm-.71,2.89.15-.39c-.06.12-.26.22-.16.35h0Zm.41.46a10.69,10.69,0,0,0,.37-1.43,8.42,8.42,0,0,0-.44,1.38l0,0Zm-1.82.06c.29-.51.52-1.06.77-1.6v0s0,0,0,0c-.15.32-.31.63-.46,1h0C1121.87,216.24,1121.77,216.46,1121.67,216.68Zm-2.22.67h0a1.36,1.36,0,0,0,.34-.23l0,0a9.86,9.86,0,0,0,.86-.85l0,0a17.64,17.64,0,0,0,1.3-1.69l0,0a20.7,20.7,0,0,0,1.24-2.13l0,0a24,24,0,0,0,1-2.33v0l.18-.55-.38.23h0a1.33,1.33,0,0,0-.43.42.08.08,0,0,0,0,0C1122,212.57,1120.76,215,1119.45,217.35Zm-1,.59h0a1.82,1.82,0,0,1,.06-.77c-.09.17-.19.34-.28.52h0A.24.24,0,0,0,1118.44,217.94Zm1,.17h.08l.25-.07h0l0,0h0a3.43,3.43,0,0,0,.71-.37l0,0c.36-.19.4-.64.59-1a8.33,8.33,0,0,1-1.63,1.39Zm-3.54,9.17c-.68-6.94,3.09-15.54,8.78-19.41l0,0c.58-.88,1.44-.29.91.6v0c-.4.63.33.91.4,1.45a.38.38,0,0,1,.44-.09c1.82-5.23-1.18,8.63-2,7.87-.27.45-1.49,3.92-1.62,2h0a14.06,14.06,0,0,0,.57-2.21c-1.38,1.52-.38-.54-.64-1.12a12.23,12.23,0,0,0-1.59,2.3l0,0c-.35.83-1.36.78-.83-.23a2.52,2.52,0,0,1-2.38-.19l0,.09v0a17.46,17.46,0,0,0-.92,2.14h0a12.43,12.43,0,0,0-.44,1.47v0C1116.06,222.66,1117.08,228.48,1115.9,227.28Z"/>
      </g>
    </g>
  </g>
</svg>
