<svg xmlns="http://www.w3.org/2000/svg" xmlns:xlink="http://www.w3.org/1999/xlink" viewBox="0 0 2048.02 1630.33">
  <defs>
    <style>
      .cls-1 {
        fill: none;
      }

      .cls-2 {
        fill: #21541e;
      }

      .cls-3 {
        clip-path: url(#clip-path);
      }

      .cls-4 {
        fill: #d6cfcf;
      }

      .cls-5 {
        clip-path: url(#clip-path-2);
      }

      .cls-6 {
        clip-path: url(#clip-path-3);
      }

      .cls-7 {
        fill: #2d2c2c;
      }

      .cls-8 {
        clip-path: url(#clip-path-4);
      }

      .cls-9 {
        clip-path: url(#clip-path-5);
      }

      .cls-10 {
        fill: #f8b832;
      }

      .cls-11 {
        clip-path: url(#clip-path-6);
      }

      .cls-12 {
        fill: #5435a9;
      }

      .cls-13 {
        clip-path: url(#clip-path-7);
      }

      .cls-14 {
        fill: #ff8eb4;
      }

      .cls-15 {
        clip-path: url(#clip-path-8);
      }

      .cls-16 {
        clip-path: url(#clip-path-9);
      }

      .cls-17 {
        fill: #ff8fb4;
      }

      .cls-18 {
        clip-path: url(#clip-path-10);
      }

      .cls-19 {
        clip-path: url(#clip-path-11);
      }

      .cls-20 {
        fill: #21185f;
      }

      .cls-21 {
        clip-path: url(#clip-path-12);
      }

      .cls-22 {
        clip-path: url(#clip-path-13);
      }

      .cls-23 {
        clip-path: url(#clip-path-14);
      }

      .cls-24 {
        fill: #c49280;
      }

      .cls-25 {
        clip-path: url(#clip-path-15);
      }

      .cls-26 {
        fill: #ffc3d6;
      }

      .cls-27 {
        clip-path: url(#clip-path-16);
      }

      .cls-28 {
        clip-path: url(#clip-path-17);
      }

      .cls-29 {
        clip-path: url(#clip-path-18);
      }

      .cls-30 {
        clip-path: url(#clip-path-19);
      }

      .cls-31 {
        fill: #c08467;
      }

      .cls-32 {
        clip-path: url(#clip-path-20);
      }

      .cls-33 {
        fill: #bab6d4;
      }

      .cls-34 {
        clip-path: url(#clip-path-21);
      }

      .cls-35 {
        fill: #c08367;
      }

      .cls-36 {
        clip-path: url(#clip-path-22);
      }

      .cls-37 {
        clip-path: url(#clip-path-23);
      }

      .cls-38 {
        clip-path: url(#clip-path-24);
      }

      .cls-39 {
        fill: #7b52ee;
      }

      .cls-40 {
        clip-path: url(#clip-path-25);
      }

      .cls-41 {
        clip-path: url(#clip-path-26);
      }

      .cls-42 {
        clip-path: url(#clip-path-27);
      }

      .cls-43 {
        fill: #ffd6cb;
      }

      .cls-44 {
        clip-path: url(#clip-path-28);
      }

      .cls-45 {
        fill: #005dfb;
      }

      .cls-46 {
        fill: #6ca3ff;
      }

      .cls-47 {
        clip-path: url(#clip-path-29);
      }

      .cls-48 {
        clip-path: url(#clip-path-30);
      }

      .cls-49 {
        fill: #e6e3ff;
      }

      .cls-50 {
        fill: #e3e1fb;
      }

      .cls-51 {
        clip-path: url(#clip-path-31);
      }

      .cls-52 {
        fill: #9c9aad;
      }

      .cls-53 {
        clip-path: url(#clip-path-32);
      }

      .cls-54 {
        clip-path: url(#clip-path-33);
      }

      .cls-55 {
        fill: #dd029f;
      }

      .cls-56 {
        clip-path: url(#clip-path-34);
      }

      .cls-57 {
        fill: #0967cb;
      }

      .cls-58 {
        clip-path: url(#clip-path-35);
      }

      .cls-59 {
        clip-path: url(#clip-path-36);
      }

      .cls-60 {
        clip-path: url(#clip-path-37);
      }

      .cls-61 {
        fill: #1f1e1e;
      }

      .cls-62 {
        clip-path: url(#clip-path-38);
      }

      .cls-63 {
        clip-path: url(#clip-path-39);
      }

      .cls-64 {
        fill: #2c2c2c;
      }

      .cls-65 {
        clip-path: url(#clip-path-40);
      }

      .cls-66 {
        clip-path: url(#clip-path-41);
      }

      .cls-67 {
        fill: #424242;
      }

      .cls-68 {
        clip-path: url(#clip-path-42);
      }

      .cls-69 {
        fill: #fff;
      }

      .cls-70 {
        clip-path: url(#clip-path-43);
      }

      .cls-71 {
        fill: #fe8c00;
      }

      .cls-72 {
        clip-path: url(#clip-path-44);
      }

      .cls-73 {
        clip-path: url(#clip-path-45);
      }

      .cls-74 {
        fill: #331a0e;
      }

      .cls-75 {
        clip-path: url(#clip-path-46);
      }

      .cls-76 {
        fill: #f87232;
      }

      .cls-77 {
        clip-path: url(#clip-path-47);
      }

      .cls-78 {
        clip-path: url(#clip-path-48);
      }

      .cls-79 {
        fill: #61d397;
      }

      .cls-80 {
        clip-path: url(#clip-path-49);
      }

      .cls-81 {
        fill: #ffd7cb;
      }

      .cls-82 {
        clip-path: url(#clip-path-50);
      }

      .cls-83 {
        clip-path: url(#clip-path-51);
      }

      .cls-84 {
        clip-path: url(#clip-path-52);
      }

      .cls-85 {
        fill: #bab7d5;
      }

      .cls-86 {
        clip-path: url(#clip-path-53);
      }

      .cls-87 {
        clip-path: url(#clip-path-54);
      }

      .cls-88 {
        clip-path: url(#clip-path-55);
      }

      .cls-89 {
        clip-path: url(#clip-path-56);
      }

      .cls-90 {
        clip-path: url(#clip-path-57);
      }

      .cls-91 {
        fill: #ed4748;
      }

      .cls-92 {
        clip-path: url(#clip-path-58);
      }

      .cls-93 {
        fill: #8a0102;
      }

      .cls-94 {
        clip-path: url(#clip-path-59);
      }

      .cls-95 {
        fill: #4a210e;
      }
    </style>
    <clipPath id="clip-path">
      <rect class="cls-1" x="136.35" y="1157.6" width="56.99" height="90.87"/>
    </clipPath>
    <clipPath id="clip-path-2">
      <rect class="cls-1" x="369.79" y="1138.07" width="56.99" height="90.88"/>
    </clipPath>
    <clipPath id="clip-path-3">
      <rect class="cls-1" x="133.54" y="1211.18" width="145.3" height="67.9"/>
    </clipPath>
    <clipPath id="clip-path-4">
      <rect class="cls-1" x="373.15" y="1195.82" width="125.57" height="62.86"/>
    </clipPath>
    <clipPath id="clip-path-5">
      <rect class="cls-1" x="91.48" y="530.82" width="376.59" height="680.94"/>
    </clipPath>
    <clipPath id="clip-path-6">
      <rect class="cls-1" x="123.59" y="236.45" width="374.21" height="384.78"/>
    </clipPath>
    <clipPath id="clip-path-7">
      <rect class="cls-1" x="351.68" y="1152.33" width="245.75" height="115.62"/>
    </clipPath>
    <clipPath id="clip-path-8">
      <rect class="cls-1" x="323.29" y="1046.59" width="285.07" height="147.17"/>
    </clipPath>
    <clipPath id="clip-path-9">
      <rect class="cls-1" x="1434.32" y="1173.69" width="55.89" height="50.07"/>
    </clipPath>
    <clipPath id="clip-path-10">
      <rect class="cls-1" x="1206.96" y="1178.01" width="55.13" height="51.63"/>
    </clipPath>
    <clipPath id="clip-path-11">
      <rect class="cls-1" x="1426.47" y="1208.15" width="86.56" height="41.19"/>
    </clipPath>
    <clipPath id="clip-path-12">
      <rect class="cls-1" x="1197.07" y="1203.59" width="86.56" height="41.2"/>
    </clipPath>
    <clipPath id="clip-path-13">
      <rect class="cls-1" x="1131.27" y="570.65" width="391.77" height="635.32"/>
    </clipPath>
    <clipPath id="clip-path-14">
      <rect class="cls-1" x="1457.2" y="348.24" width="103.7" height="259.8"/>
    </clipPath>
    <clipPath id="clip-path-15">
      <rect class="cls-1" x="1236.19" y="221.59" width="338.52" height="399.3"/>
    </clipPath>
    <clipPath id="clip-path-16">
      <rect class="cls-1" x="563.86" y="1171.7" width="276.77" height="81.28"/>
    </clipPath>
    <clipPath id="clip-path-17">
      <rect class="cls-1" x="575.39" y="1171.69" width="244.47" height="56.81"/>
    </clipPath>
    <clipPath id="clip-path-18">
      <rect class="cls-1" x="563.86" y="1198.09" width="276.77" height="54.88"/>
    </clipPath>
    <clipPath id="clip-path-19">
      <rect class="cls-1" x="826.81" y="302.68" width="95.79" height="330.82"/>
    </clipPath>
    <clipPath id="clip-path-20">
      <rect class="cls-1" x="757.01" y="572.76" width="193.14" height="265.46"/>
    </clipPath>
    <clipPath id="clip-path-21">
      <rect class="cls-1" x="863.17" y="307.8" width="270.33" height="919.53"/>
    </clipPath>
    <clipPath id="clip-path-22">
      <rect class="cls-1" x="867.11" y="1131.35" width="54.48" height="99.25"/>
    </clipPath>
    <clipPath id="clip-path-23">
      <rect class="cls-1" x="1075.49" y="1119.44" width="64.64" height="102.82"/>
    </clipPath>
    <clipPath id="clip-path-24">
      <rect class="cls-1" x="863.94" y="1109.71" width="208.08" height="136.92"/>
    </clipPath>
    <clipPath id="clip-path-25">
      <rect class="cls-1" x="1079.18" y="1097.29" width="202.88" height="137.89"/>
    </clipPath>
    <clipPath id="clip-path-26">
      <rect class="cls-1" x="896.08" y="305.57" width="169.15" height="208.96"/>
    </clipPath>
    <clipPath id="clip-path-27">
      <rect class="cls-1" x="227.13" y="398.11" width="211.59" height="58.29"/>
    </clipPath>
    <clipPath id="clip-path-28">
      <rect class="cls-1" x="247.3" y="335.08" width="377.05" height="785.62"/>
    </clipPath>
    <clipPath id="clip-path-29">
      <rect class="cls-1" x="571.78" y="477.56" width="255.59" height="708.05"/>
    </clipPath>
    <clipPath id="clip-path-30">
      <rect class="cls-1" x="581.84" y="529.6" width="233.05" height="655.84"/>
    </clipPath>
    <clipPath id="clip-path-31">
      <rect class="cls-1" x="708.51" y="606.66" width="154.6" height="250.6"/>
    </clipPath>
    <clipPath id="clip-path-32">
      <rect class="cls-1" x="712.34" y="618.56" width="133.18" height="236.48"/>
    </clipPath>
    <clipPath id="clip-path-33">
      <rect class="cls-1" x="817.86" y="671.58" width="43.24" height="40.68"/>
    </clipPath>
    <clipPath id="clip-path-34">
      <rect class="cls-1" x="809.2" y="716.03" width="47.1" height="31.83"/>
    </clipPath>
    <clipPath id="clip-path-35">
      <rect class="cls-1" x="849.57" y="461.23" width="195.32" height="298.81"/>
    </clipPath>
    <clipPath id="clip-path-36">
      <rect class="cls-1" x="1356.09" y="139.72" width="61.83" height="74.91"/>
    </clipPath>
    <clipPath id="clip-path-37">
      <rect class="cls-1" x="1322.24" width="158.11" height="183.21"/>
    </clipPath>
    <clipPath id="clip-path-38">
      <rect class="cls-1" x="113.62" y="74.79" width="341.89" height="350.3"/>
    </clipPath>
    <clipPath id="clip-path-39">
      <rect class="cls-1" x="113.62" y="74.78" width="341.89" height="350.3"/>
    </clipPath>
    <clipPath id="clip-path-40">
      <rect class="cls-1" x="318.32" y="124.76" width="22.73" height="23.79"/>
    </clipPath>
    <clipPath id="clip-path-41">
      <rect class="cls-1" x="799.18" y="682.68" width="52.33" height="51.26"/>
    </clipPath>
    <clipPath id="clip-path-42">
      <rect class="cls-1" x="803.53" y="692.24" width="45.07" height="36.7"/>
    </clipPath>
    <clipPath id="clip-path-43">
      <rect class="cls-1" x="785.39" y="678.8" width="29.31" height="50.08"/>
    </clipPath>
    <clipPath id="clip-path-44">
      <rect class="cls-1" x="683.73" y="171.7" width="62.81" height="75.85"/>
    </clipPath>
    <clipPath id="clip-path-45">
      <rect class="cls-1" x="640.4" y="46.64" width="142.91" height="163.93"/>
    </clipPath>
    <clipPath id="clip-path-46">
      <rect class="cls-1" x="326.08" y="94.27" width="269.21" height="448.76"/>
    </clipPath>
    <clipPath id="clip-path-47">
      <rect class="cls-1" x="297.78" y="225.27" width="55.23" height="46.25"/>
    </clipPath>
    <clipPath id="clip-path-48">
      <rect class="cls-1" x="323.53" y="155.16" width="700.48" height="399.96"/>
    </clipPath>
    <clipPath id="clip-path-49">
      <rect class="cls-1" x="787.66" y="400.18" width="55.53" height="58.34"/>
    </clipPath>
    <clipPath id="clip-path-50">
      <rect class="cls-1" x="588.57" y="324.64" width="277.99" height="168.8"/>
    </clipPath>
    <clipPath id="clip-path-51">
      <rect class="cls-1" x="916.86" y="90.47" width="144.5" height="165.73"/>
    </clipPath>
    <clipPath id="clip-path-52">
      <rect class="cls-1" x="1192.84" y="1152.28" width="53.55" height="92.48"/>
    </clipPath>
    <clipPath id="clip-path-53">
      <rect class="cls-1" x="985.5" y="1167.06" width="53.55" height="92.48"/>
    </clipPath>
    <clipPath id="clip-path-54">
      <rect class="cls-1" x="1188.74" y="1203.76" width="163.55" height="72.26"/>
    </clipPath>
    <clipPath id="clip-path-55">
      <rect class="cls-1" x="979.89" y="1211.22" width="148.65" height="72.26"/>
    </clipPath>
    <clipPath id="clip-path-56">
      <rect class="cls-1" x="1015.32" y="1203.88" width="286.94" height="39.55"/>
    </clipPath>
    <clipPath id="clip-path-57">
      <rect class="cls-1" x="769.28" y="197.62" width="735.15" height="1004.95"/>
    </clipPath>
    <clipPath id="clip-path-58">
      <rect class="cls-1" x="1048.96" y="432.12" width="216.96" height="85.43"/>
    </clipPath>
    <clipPath id="clip-path-59">
      <rect class="cls-1" x="1053.83" y="18.13" width="263.56" height="279.14"/>
    </clipPath>
  </defs>
  <g id="Layer_1" data-name="Layer 1">
    <g>
      <path class="cls-2" d="M512,1002.84l-.41.09,5-.91ZM0,2004.56v-763.4c297.75-254.28,706.17-325,1081.65-233.16,392.3,82.2,673.27,374.63,966.36,624.56,0,0,0,372,0,372S0,2004.55,0,2004.56Z"/>
      <g>
        <g class="cls-3">
          <path class="cls-4" d="M152.46,1248.22c-2.07,0-4.14-.12-6.22-.13h.08c-14.1,0-8.95-6.58-9.23-17.12,1.87-16.78,2.74-33.64,4.39-50.44,1.53-22.26,3.23-17.75,23.05-21.76h0l.32,0h-.11l.35,0,.27,0h0l.19,0h0l.33,0h0c46.87-5.66,17.19,16.71,22.89,67.47v-.12a64.34,64.34,0,0,0,.48,9.71s0,0,0-.05a.52.52,0,0,1,0,.11h0c4.75,19.54-12.58,7.54-29.47,12.08h.08l-.54.07.08,0-.56.07h.09l-.66.08h.08A46.36,46.36,0,0,1,152.46,1248.22Z"/>
        </g>
        <g class="cls-5">
          <path class="cls-4" d="M385.9,1228.7c-2.08,0-4.15-.13-6.22-.14h.08c-14.1,0-9-6.57-9.23-17.12,1.86-16.78,2.74-33.63,4.39-50.43,1.53-22.26,3.22-17.75,23.05-21.77h0l.32,0h-.11l.35,0,.27,0h0l.19,0h0l.33,0h0c46.88-5.66,17.2,16.71,22.89,67.46v-.12a67,67,0,0,0,.48,9.71.43.43,0,0,1,0,0,.5.5,0,0,1,0,.12h0c4.74,19.54-12.59,7.53-29.48,12.07h.09l-.55.07h.09l-.56.07h.08l-.66.08h.09A48.29,48.29,0,0,1,385.9,1228.7Z"/>
        </g>
        <g class="cls-6">
          <path class="cls-7" d="M136.3,1278.81c-4.21-20.82,0-44.15-2.51-65.76a75.49,75.49,0,0,0,11.16,1.12h.13c3.26,0,6.55.13,9.81.12h0c13.13.45,26.14-1.55,38.9-2.46,22.42,5.22,99.75,22.26,81.17,56.18-13.12,11-34.15,3.25-50.21,6.55C195.29,1276.43,165.67,1276.58,136.3,1278.81Z"/>
        </g>
        <g class="cls-8">
          <path class="cls-7" d="M380.06,1258.42c-5-17.78-3.08-38.26-6.66-56.78a61.14,61.14,0,0,0,9.48.18H383c2.73-.28,5.52-.35,8.26-.59h0c11.13-.49,22-3.32,32.7-4.87,20.39,3.19,88.2,12.66,70.88,44.55-10.41,7.19-24.84,4.11-36.84,7C432.08,1251.89,405.87,1254.22,380.06,1258.42Z"/>
        </g>
        <g class="cls-9">
          <path class="cls-10" d="M448.33,592.37c-.13,1.28-.24,2.55-.28,3.83a.36.36,0,0,1,.49-.13c-.06-1.55,0-3.1-.1-4.65C448.4,591.73,448.36,592.05,448.33,592.37ZM305.76,782.62c.12.56.24,1.13.37,1.69a27.66,27.66,0,0,0-.76-3.77C305.5,781.23,305.62,781.93,305.76,782.62Zm-63.67,428.75-1.33-.26h.07c-1-.2-1.94-.42-2.92-.61H238c-48.89-9.81-97.22-22.15-146.25-31.54.12-1.67.29-3.33.5-5h0c18.23-123.8,52.12-244.46,75.12-367.23,15-71.47,26.45-144.16,51.26-213,4.9-21.25,10.5-42.84,19.72-62.67.34,2.13-2,5.46-2.63,7.84a.36.36,0,0,1,.14,0h0c70.66-12,140.19,16.83,210.34,22.62,1.81,0,2.09,2,1.57,3.4-3.23,11.55-3.14,23.77-1.09,35.39.46-3.69-.72-9,1.78-11.72,1.68.76,1.07,3.38,1.32,4.91,2.69-.27-.56,5.28-.1,6.81-.33,1.1.83,5.76-1.15,5a.33.33,0,0,1,0,.14h0c-9.27,191.58-34.64,388.92,18.29,576.38h0v0h0c.62,1.63,1.38,3.52.76,5.25h0c-10.12,1.52-22.6-3.51-33.38-4l.09,0c-.38,0-.85-.24-1.17-.13-37.1-6.22-74.47-11.45-111.5-17.77h0a1.72,1.72,0,0,1-.55-.49v0c-.31-.3-.58-.64-.88-1h0a4.81,4.81,0,0,1-1.11-1.53h0c-7.15-61.8-6.91-124.92-7.88-187.26.72-63.06,4.42-126.47-8.06-188.63h0c-.47-3.36-1.11-6.7-1.41-10.08h0c-.59-3.92-1-7.9-1.91-11.76h0c-.76-3.33-1.46-6.7-1.93-10.09-27.94,151-35.37,305.21-55.15,457.22Z"/>
        </g>
        <g class="cls-11">
          <path class="cls-12" d="M465.54,620.73c0-.31.52-.31.52,0S465.54,621,465.54,620.73Z"/>
          <path class="cls-12" d="M473.85,584c0-.31.52-.31.51,0S473.84,584.35,473.85,584Z"/>
          <path class="cls-12" d="M332.69,247.36A2.77,2.77,0,0,1,334,246h0l.05,0h0l.25-.16-1.66,1.55Z"/>
          <path class="cls-12" d="M333,244.45c-.2-.22-.53-.28-.73-.55a16.55,16.55,0,0,1,8.28-4.25c-1.55,1.26-3.22,2.27-4.58,3.54h0c-.84.81-2,.52-3,1.36A.28.28,0,0,0,333,244.45Z"/>
          <path class="cls-12" d="M331.55,243.55a5.59,5.59,0,0,0-.12-.56,14,14,0,0,1,2.69-1.32,5.85,5.85,0,0,1-.47.4l0,0A16.18,16.18,0,0,1,331.55,243.55Z"/>
          <path class="cls-12" d="M193.17,412.67c-.77-.4-1.54-.8-2.33-1.18Zm13.4-.12c14.69,6.8,29,14.27,43.56,21.4,7.52-32.5,15.82-65.33,24.75-97.67-33.52,16.63-64,39.68-92.47,63.88,1.58.85,3.16,1.63,4.74,2.43l-.37-.19c4.09,2.12,8.11,4.33,12.23,6.39l-.36-.19.69.35-.36-.18C201.5,410.05,204,411.34,206.57,412.55Zm129,35.27c-.86,1.34,1.09,1.67,1.6.48l-.06.08c3-3.31,5.76-6.76,8.73-10.06l-.06.07c.86-.94,1.71-1.91,2.55-2.87l-.06.07c5.77-6.44,11.69-12.78,18-18.68v0c.69-.57,1.33-1.19,2.06-1.7l-.09,0c.37-.23.74-.45,1.12-.64l0,0c1.14-.25,3.86-2,1.28-2.23-9.51,5-15.95,14.63-23.46,22.16l.06-.07c-3.26,3.63-6.48,7.31-9.61,11.05h0l0,0v0l-1.51,1.68h0l-.06.06h0l-.06.07,0,0ZM446.5,561.09c-55.64-8.94-112-10.74-168.3-12.08-14.92-.15-30.08-.91-45-1.56-1,0-2.54.1-2.4-1.3,2.15-8.26.54-16.45,2.86-24.56,10.36-58.06,17.12-33.76-34.39-66.11h0l-.36-.17,0,0c-2.74-1.49-5.4-3.08-8-4.71h0l-.29-.16.18.1c-22-13-45.57-24.53-66.52-38.76l0,.05a2.22,2.22,0,0,1-.14-.32h0a6.23,6.23,0,0,1-.12-3.58h0c28-34.35,66.3-60.13,99.51-89.36,3.05-11,4.47-21.63,16.26-26.06v0h0c-2.45,6.28-4.93,12.7-7.26,19,15.32-6.41,9.44-21.23,21.54-26.81h0c-1.35,4.61-2.65,9.37-3.78,13.79,23.93-16.79,48.61-36.47,79.41-33,9.34-.36,20.33,3.39,28.81-1.72h0a13.59,13.59,0,0,0,1-1h0c7.86-17.52-19.26-12.25-29-12.14v0h0c0-2.42,13.63-10.66,8.74-8.39-1.06,0-1.86,1.16-2.93,1.41h0v0h0l0,0,0,0,0,0,0,0,.09-.07h0c1-1.43,4-2.12,4.49-3.41h0c30.08-9.89,64.46,7.21,90.4,21.76,12.86,20.87,36.44,32.53,46.92,54.85C489,352.17,492.86,390.27,497.49,427c-3.67,28.32-20.73,51.29-39.48,71.78-17,19.41-29.94,42.35-52.81,55.67.26.22.1.52-.16.61,14.09,1.2,28.22,3.27,42.17,5.28C448.39,560.53,447.15,561.31,446.5,561.09Z"/>
        </g>
        <g class="cls-13">
          <path class="cls-14" d="M359.6,1169.7c0-.67,0-1.34,0-2,0,.12,0,.24,0,.35h0c0,.3,0,.61,0,.92h0c0,.08,0,.15,0,.22v0C359.57,1169.33,359.58,1169.51,359.6,1169.7Zm46.9,19.9c-16.24-.72-32.36-1.54-48.54-.16.39-5.32,1.08-10.61,1.48-15.93v0c-.24-4-.73-7.84,1.14-12.06h0c.2-1,1.18-1.24,2-1.52h0c2.75-.76,5.57-1.31,8.34-2h0l.45-.09h0c13.66-2.5,27.58-3.14,41.28-5.33,3.73,3.86-5,29.77-5.73,37Z"/>
          <path class="cls-14" d="M517.77,1207.68c.35-1.51.7-3,1-4.55a0,0,0,0,0,0,0c.06-.31.13-.63.19-.94v0a117,117,0,0,0,1.91-13.32v0a.37.37,0,0,1,0-.11h0c0-.25,0-.51,0-.76v0c.15-2,.11-4,.3-6l-.18.19h0c0,.29-.37.55-.58.23,0-1.21,1.91-2.14,3-2.53h0a3.52,3.52,0,0,0,.39-.17l0,0a4.36,4.36,0,0,0,.59-.35l0,0c2.24-1.41,3.89-3.6,6.23-4.91h0a57.59,57.59,0,0,1,6.83-3.9l0,0c6.93-3.17,14.18-5.62,20.93-9.2l0,0c1.8-.31,8.41-5.37,8.86-2.8-1.74,14.39-3.24,28.9-6.44,43-14.42,1.63-28.71,4.22-43.06,6.39C517.68,1208.06,517.72,1207.87,517.77,1207.68Z"/>
          <path d="M582.12,1214.45a2.74,2.74,0,0,1-.7-.23l.06,0-.35-.15,0,0h0c-1.39-.7-3.29-.29-3.75-2C578.27,1212,584.06,1213.39,582.12,1214.45Z"/>
          <path d="M579,1245.76c2.88-1.38,5.81-2.68,8.81-3.78h0l.06,0h0c8.36-2.32-8.45,5-9.87,5.73C578.31,1247.05,578.64,1246.41,579,1245.76Z"/>
          <path d="M355.11,1260.6l0,0a4.32,4.32,0,0,1-.34-.39h0l0,0c-1.9-20.74.52-42.42-2.45-63.23a2.44,2.44,0,0,1,.7-.2c-2.33-10.13,4.52-6.85,11.34-7.38,14.06-2.28,28.4.27,42.58.21,1.15.15,3.52-.43,3.17,1.39-.26,5.27-3.17,10.36-4.24,15.56-.87,1.81,2.18,1.27,3.14,1.33a207.27,207.27,0,0,1,39.71,8.25c13.49,3.48,48.46,18.17,27.59,34.37C436.53,1256.17,394.93,1257,355.11,1260.6Z"/>
          <path d="M404.67,1197.85c-.65-2,2.59-4.07,3.29-6a.56.56,0,0,1,0,.08,10.41,10.41,0,0,0,.55-1.11l0,.1a6.52,6.52,0,0,0,.43-1.36v.1s0-.07,0-.11c-.83-.2-1.68-.33-2.53-.46h0c-6.28-2.55-61.56,1.58-48.81.12h.24c16.35-1.11,32.74-3.73,49.14-1.78h0l.34,0h0C414.3,1187.05,407.3,1196.92,404.67,1197.85Z"/>
          <path d="M361.08,1190.38c-.76-.54.68-.69,1.07-.82h0l.31-.08h0l.38-.11h0c15.18-1.89,30.15-2.36,45-.27,1.29-.77,2.21,1.8.46,1-8.83-1.33-21.26.45-29-1-.62.1-5.12.69-3.19-.44-3,.34-6.31.57-9.21,1h0l-.11,0h0a3.93,3.93,0,0,0-.48.06h0A22.47,22.47,0,0,1,361.08,1190.38Z"/>
          <path d="M405.83,1204.52c-.77-2,1.16-4.87,1.85-6.94v0l.11-.26v0a26.4,26.4,0,0,0,1-2.86v0c.35-1.31.6-2.66.82-4v0c0-.44.19-.94-.07-1.33h0a.34.34,0,0,0-.12-.09h0l0,0h0l-.11-.05,0,0-.16-.06h0l-.23,0h0a.87.87,0,0,0-.23,0h-.05c-1.09.29-.12-.91.68-.42h0c2.76,3.91-2,10-2.76,14.39v0C406.35,1203.43,406.55,1204.53,405.83,1204.52Z"/>
          <path d="M404,1209.36c-.21-3.44,2.52-7.28,3.82-10.62v0a46.59,46.59,0,0,0,1.84-5.29h0a21.09,21.09,0,0,0,.65-2.83h0a2,2,0,0,0,0-.91h0l0-.08h0v0h0v0h0l0,0h0l-.05-.05,0,0-.09-.08h0l0,0h0l-.12-.08h0a2,2,0,0,0-.29-.15h0l-.17-.06h0c-.42.06-.77-.53-.21-.56,3.57,1.16-.67,8.38-1.24,11l0,0c-.64,1.48-1.39,2.92-2.05,4.4h0l0,0h0C405.2,1205.68,405.18,1208.19,404,1209.36Z"/>
          <path d="M403.35,1210.2c-.33-3,3-6.38,3.85-9.48v0c1.1-2.72,2.1-5.48,3-8.29v0q.23-.91.39-1.83s0,0,0,0c.05-.59.25-1.35-.23-1.8l0,0a.24.24,0,0,0-.11-.06h0l-.15-.06h0a2,2,0,0,0-.8,0h0s.07,0,.08,0c-.42.28-.59-.47-.1-.46,4.79.12-.78,10.18-1.34,12.82h0c-1,2.34-2.18,4.6-3.3,6.89v0C404.12,1208.59,404.31,1210.23,403.35,1210.2Z"/>
          <path d="M409.68,1192.46c0-.73.07-1.48,0-2.21h0a.5.5,0,0,0,0-.12,0,0,0,0,0,0,0,5,5,0,0,1-.09-.78h0c.51-2.52,2.55,1.8.8,2.32C410.41,1192.14,410.11,1193.18,409.68,1192.46Z"/>
          <path d="M409.68,1192.35c-.46-.25.08-.8.18-1.15h0q.15-.36.27-.72v0a5.47,5.47,0,0,0,.16-.7,0,0,0,0,0,0,0,.92.92,0,0,0,0-.33h0v0h0a1.54,1.54,0,0,0-.62-1h0a1.48,1.48,0,0,0-.29-.12h0l-.37-.07h0a1.7,1.7,0,0,0-.45,0h-.11l-.05,0h0l-.05,0,0,0,0,0h0l0,0h0v0h0v0h0v0h0c-1.68.81,1-2.39,2.41.7v0C411,1190,410.56,1192,409.68,1192.35Z"/>
          <path d="M408,1195.82c-.37-.08-.39-.49-.22-.76h0c.11-.23.18-.48.27-.72h0C408.83,1193.45,408.84,1196,408,1195.82Z"/>
          <path d="M406.3,1189.89c-.25-.31-.27-1,.27-1h-.05l.14,0h0c.8-.43,1.56.26.66.81h0a2.49,2.49,0,0,1-.28.15l0,0C406.83,1189.92,406.54,1190.12,406.3,1189.89Z"/>
          <path d="M410.13,1189.56c-.33,0-.21-.4-.25-.63h0v0a.53.53,0,0,0-.08-.22h0l0,0h0l0-.05h0l-.06,0h0l-.22-.11h0c-.22,0-.61,0-.48-.38h0C409.69,1187.31,411,1189.19,410.13,1189.56Z"/>
          <path d="M410.08,1189.14a.77.77,0,0,0-.07-.34h0l0,0h0l0,0h0l-.11-.12h0l0,0h0l-.09-.06h0l-.07,0h0c-.89-.26.11-.83.51-.28C410.73,1188.46,410.64,1189.94,410.08,1189.14Z"/>
          <path d="M408.71,1190.26c-.14-.28.34-.56.52-.29S408.87,1190.59,408.71,1190.26Z"/>
          <path d="M408.54,1193.11c0-1,1.28-2.14,1.81-3.1l0,0a2.83,2.83,0,0,0,.2-.28h0l.05-.09h0v0c-.15-.11-.07-.3-.1-.45h0v0h0a.64.64,0,0,0,0-.07c-.3.24-.65-.19-.66-.48a3.79,3.79,0,0,1-.48-.14h0c-1.59-.75,1.63-.59,1.68.37v0a1.38,1.38,0,0,1-.36,1.67h0C409.87,1191.18,409.5,1192.87,408.54,1193.11Z"/>
          <path d="M361.31,1190.29c-1.26-.66,1.84-1.71,2.41-1.13.25.32-.34,1-.64.65-.36.23-.88.15-1.29.26h0C361.57,1190.05,361.53,1190.32,361.31,1190.29Z"/>
          <path d="M353.49,1200.38a57.06,57.06,0,0,1-.79-7.15v0c0-1.35-.55-3.7,1.34-3.94h0a2.15,2.15,0,0,1,.84,0h0c1.1-.14.83.72-.11.49h-.34l-.33.08h0a2,2,0,0,0-.35.11h0l-.12.08h0l0,0h0a1.68,1.68,0,0,0-.18.21v0l-.06.12h0l0,0h0a1.32,1.32,0,0,0-.12.52v0c-.07,1.14,0,2.27.05,3.4v0c.25,1.88.35,3.78.63,5.66,0,0,0,0,0,0C354.1,1200.19,353.86,1200.91,353.49,1200.38Z"/>
          <path d="M353.2,1199.21c-.62-1.71-.44-3.62-.58-5.42v0a11.2,11.2,0,0,1-.05-1.92v0c-.13-1.75,1.06-3.26,2.84-2.24h0c.8.18-.07.79-.48.32h0l-.11,0h0l-.12,0h0a2.58,2.58,0,0,0-.38,0h0a2.57,2.57,0,0,0-.48,0h0l-.16,0h0l-.15.08h0s0,0-.08.06h0a.62.62,0,0,0-.14.19v0l-.06.15v0a1.92,1.92,0,0,0-.09.32v0c-.07.41-.14.84-.18,1.26v0a.81.81,0,0,1,0,.16v0a8.51,8.51,0,0,0,0,1v0c.11,1,.09,1.94.14,2.91v0a24.79,24.79,0,0,0,.27,2.58h0C353.64,1198.79,353.8,1199.73,353.2,1199.21Z"/>
          <path d="M355,1213.81c-.55-2.49-.88-5-1.4-7.51a0,0,0,0,0,0,0c-.89-4.35-1.91-8.84-1.55-13.29v0s0-.06,0-.08v0c-.4-6.07,5.5-3.07,3.18-3.26h0l-.23,0h0a8.61,8.61,0,0,0-.88,0h0a2.13,2.13,0,0,0-.5.11h0l-.22.1,0,0-.21.14,0,0a.49.49,0,0,0-.12.13v0a1,1,0,0,0-.08.11l0,0a1.76,1.76,0,0,0-.14.23l0,0a2,2,0,0,0-.14.34,0,0,0,0,1,0,0c-.05.14-.08.29-.12.44a0,0,0,0,0,0,0c-.09.54-.11,1.1-.18,1.65v0c0,.12,0,.23,0,.35v0c0,.34-.06.68-.09,1v0c0,.83,0,1.68,0,2.52v0c.36,2.42.65,4.84,1,7.25h0c.7,2.89,1.18,5.82,1.7,8.74h0C355.32,1212.93,355.76,1214.48,355,1213.81Z"/>
          <path d="M352.38,1199.11c-1.08-3.38,1.13-11.08,1.09-3,0,0,0,0,0,0-.11.51.74,2.35-.19,2,.07.28.08.88-.36.67C353,1199.1,352.6,1199.57,352.38,1199.11Z"/>
          <path d="M405.09,1210.66c-.55-.54.13-1.72.16-2.45,0,0,0,0,0,0a1,1,0,0,0,0-.12s0,0,0,0c.23-1.14.28-2.31.53-3.45l0,0c1.05-.83-.06,3,0,3.56v0l-.18.81h0C405.34,1209.53,405.65,1210.52,405.09,1210.66Z"/>
          <path d="M416.19,1209.85c-3.44-.13-6.71-1.37-10.08-2h0l-.65-.14h0l-.21,0h0c-1.37,0-1.25-.9.13-.48h0l.76.15h0c2.45.48,4.85,1.18,7.3,1.67h0a18,18,0,0,0,1.93.29h0C415.7,1209.26,417,1209.39,416.19,1209.85Z"/>
          <path d="M417.3,1209.48a68.22,68.22,0,0,1-8.3-1.3h0c-.59-.13-1.19-.22-1.79-.34h0l-1.54-.33h0c-3-.54.36-.74,1.4-.2h0l.27.06h0c1.14.2,2.28.43,3.41.69h0C411.73,1208.58,418.31,1208.51,417.3,1209.48Z"/>
          <path d="M464.46,1223.55l-.42-.23h0a120.69,120.69,0,0,0-14.58-6.56h0a68.29,68.29,0,0,0-7.93-2.27h0l-1-.21h0l-1.25-.28h0l-.18,0h0l-2.76-.62h0a62.33,62.33,0,0,0-6.66-1h0c-6.6-1,5.14-.21,6.62.53h0c1,.21,1.92.44,2.89.64h0l.19,0h0l1,.23h0l.3.07h0l1,.21h0C449,1216,459.81,1219.3,464.46,1223.55Z"/>
          <path d="M465.3,1224.18c-1.22-.83-2.56-1.49-3.86-2.21h0l-.15-.08,0,0-.29-.16h0a90.83,90.83,0,0,0-11.65-5h0a108.23,108.23,0,0,0-13.72-3.86h0c-2.72-.5-5.43-1.07-8.18-1.38h0c-1-.07-2-.18-3-.16h-.05l-.19,0h0l-.08,0h0c-.65,0-.19-.67.27-.54h0c8.73.4,17.34,2.76,25.58,5.62l0,0a86.74,86.74,0,0,1,11.57,5h0C462.26,1222.07,466.55,1223.59,465.3,1224.18Z"/>
          <path d="M514.12,1267.69c-11.9,4.52-.22-50.76-.49-58.5h0c16-3.25,32.82-5.47,49.15-7.58.85,0,6.06-1.35,4.5.28a155.73,155.73,0,0,1-5.33,21c7.72-4.24,17.71-9.56,26.39-7.78.73,2.88-10.37,1.62-12.75,3.48,6.31,6.26,2.09,24.62,0,32.86,3.89-1.59,18.93-8.84,21.6-5.92-3.12,2.63-10.43,3-14.56,5.1C561.1,1259.71,537.27,1264.53,514.12,1267.69Z"/>
          <path d="M561.29,1221.26c-.3-2.16,1.5-4.64,2.11-6.81v0c.55-1.69,1.1-3.38,1.7-5.06h0l.06-.18h0c.73-2.19,1.32-4.44,1.94-6.67v0l0-.14v0a6,6,0,0,0,.1-.61v0a1.85,1.85,0,0,0,0-.23v0a0,0,0,0,1,0,0h0c.1-1.22.79.4.38,1h0c-.66,2.35-1.27,4.73-2.07,7h0c-1,3-2,6-3.23,8.92v0C561.84,1219.33,562,1220.86,561.29,1221.26Z"/>
          <path d="M566.44,1203.88c-.82,0,.26-2.54.81-2C568.07,1201.92,566.88,1204.06,566.44,1203.88Z"/>
        </g>
        <g class="cls-15">
          <path d="M436.42,1185.22a2,2,0,0,1-.43,0h0c-1.18-.4-2.24-1.14-3.41-1.59h0l-.62-.27,0,0c-1-.4-2-.74-3-1l0,0a61.82,61.82,0,0,0-8.11-1.59h0a313.78,313.78,0,0,0-32.44-1.81h-1.94c-2.73,0-5.45.13-8.19.17h0a393.25,393.25,0,0,1-51.56-3.64h0c-.12,0-.24-.08-.37-.12h0c-.32-.11-.64-.24-1-.34h0c-1.52-.31-2.19-1.17-1.69-2.71h0a5.16,5.16,0,0,0,.05-.67v0c1.6-25.5,11-50,14-75.39,0,0,0,0,0,0,0-.41.11-.82.16-1.23h0s0,0,0,0h0c0-.25.06-.5.1-.75h0c0-.33.08-.67.13-1h0l0-.27h0v0h0c1.42-10.21,1.41-20.55,2.26-30.82v0c.06-.94,1.5-4.43,2.51-3.77,13.51-9.45,31.81-10.64,47.87-11.3h-.07c4.29.1,8.56-.26,12.84-.31h.27a59.78,59.78,0,0,1,19.05,3.71l-.09,0c7.21,3.3,15.91,0,22.75,3.62l-.07-.05a2.09,2.09,0,0,0,.44.29h0c5,38.23-4.71,85.71-5.43,126.87h0a8.63,8.63,0,0,1-.88,2.4l0,0a4.15,4.15,0,0,1-.84.66h0a7.84,7.84,0,0,1-1,.51h0a7,7,0,0,1-.76.29h0A2.61,2.61,0,0,1,436.42,1185.22Z"/>
          <path d="M502,1062.86a25.68,25.68,0,0,0,3.14-.31h0l.33,0,0,0,0,0-.36-.23h0a5.7,5.7,0,0,0-1.34-.51h0a7.74,7.74,0,0,0-.84-.14h0a5.54,5.54,0,0,0-2.43.17h0c-.78.23-1.55.49-2.31.75.58.12,1.18.2,1.78.27h0C500.68,1062.84,501.33,1062.86,502,1062.86ZM500.3,1185.4a3.28,3.28,0,0,1-.1-.51l0,.5Zm80.08,8c4.08-3.58,10.06-6.23,14.7-9.6-3.19-.31-6.4-.33-9.6-.32h0c-20.62.64-40.39,8-60.88,9.72h0c-6.72-.31-20.1.41-24.48-5-1.84-34.59-3.65-69.54-4.76-104.29-.24-6.62-.43-13.27-1.28-19.85-.88-3.58,2.49-1.24,4.32-2.53h0c7.37-2.46,14.89-2.42,22.46-.94h0a90.14,90.14,0,0,0,9.3.11h.29l.61,0h.12a52.82,52.82,0,0,1,5.34,0h-.05c4.8.65,9.64,1.59,14.35,2.56l.54.13h-.07l.16,0h0c6.16,2,13.45,2.85,17.54,8.27h0l.05,0h0l.07.07h0l0,0h0c.7.6,1.43,1.16,2.15,1.73l-.05,0,.13.1v0c5.52.5,5.54,4.93,3.71,2.49h0a4.91,4.91,0,0,0-.31-.44l0,0c-.1-.12-.2-.22-.31-.33l0,0-.21-.18,0,0-.08,0c8.07,15.93,15.75,32.34,20.46,49.61h0c4.55,15,6.38,30.76,12.07,45.36a.08.08,0,0,0,0,0l.09.2,0,0C613.1,1178.16,585.75,1189.27,580.38,1193.38Z"/>
          <path d="M325,1174.84a6.77,6.77,0,0,1-1.33-.63h0v0h0v0h0a8.37,8.37,0,0,1,.12-3.59h0a.25.25,0,1,1,.48.15h0l0,.08h0a2.37,2.37,0,0,0-.09.36v0c0,.29-.07.59-.09.89v0q0,.84,0,1.68v0a2.7,2.7,0,0,0,0,.28h0l0,.13v0l0,0,.06.08,0,0,0,0h0l0,0h0l0,0h0l0,0h0l.07,0,0,0c.28.18,1,.2.89.65Z"/>
        </g>
        <g class="cls-16">
          <path class="cls-17" d="M1484.15,1223.32c-7.88-3.74-29.84,2.63-19.69-11.54l-.08,0c-10,.4-20,1.72-29.8,2.19.23-8.31,1.1-16.83,1.81-25l0,.12c-1-17.07,18.71-15.85,31-14.4,7.22,2,18.35.94,22.28,8.35h0l0,0,0,.09,0-.08c-.36,13.34-2.45,27.15-4.36,40.46C1484.89,1223.45,1484.52,1223.37,1484.15,1223.32Z"/>
        </g>
        <g class="cls-18">
          <path class="cls-17" d="M1256.81,1229.38c-7.52-1.27-15-1.77-22.63-2.71-1.54-2.49,1.37-6.65,2.35-9.09l-.09.06c-9.72.21-19.86,2.19-29.23,2.08.78-12.19.73-24.83,3.93-36.6,14.12-8.7,32.83-4.39,47.47.94C1265.25,1185.89,1257.24,1222.23,1256.81,1229.38Z"/>
        </g>
        <g class="cls-19">
          <path class="cls-20" d="M1489.88,1249.08c-13.48-.79-27-1.8-40.51-1.45h0c-5.32-.77-21.39,2.83-22.24-4-1.56-28,7.25-39.44,35.87-34.4,21.36,0,42.32,8.08,48.31,30.55C1517.32,1251.19,1496.3,1247.8,1489.88,1249.08Z"/>
          <path class="cls-20" d="M1473.4,1210.9h0c-2.63-.39-5.23-1-7.88-1.2h0c-3.74-.24-7.5-.31-11.25-.27h0c-.85,0-1.7.08-2.56.09h0c-1,.06-2.08.22-3.12.19h0c-.89,0-1.79.08-2.68.07h0l-.81,0h0c-1-.77,1.6-.49,2.1-.53h0c.76,0,1.51-.09,2.28-.08h0c1.06-.07,2.13-.22,3.2-.19h0a85.41,85.41,0,0,1,20.57,1.39h0C1473.68,1210.28,1473.88,1210.91,1473.4,1210.9Z"/>
          <path class="cls-20" d="M1488.28,1215.42c-1.73-.75-3.42-1.64-5.2-2.29h0l-.2-.08h0l-.18-.06h0a67.58,67.58,0,0,0-7.38-2.26h0a48.14,48.14,0,0,0-4.92-.84h0c-4.41-.32-8.82-.69-13.25-.63h0c-2.69.15-5.37.26-8,.64h0c-.34-.06-.66.4-1,.18C1459.88,1207,1479,1208.88,1488.28,1215.42Z"/>
        </g>
        <g class="cls-21">
          <path class="cls-20" d="M1260.48,1244.53c-13.49-.79-27-1.8-40.51-1.45v0c-5.33-.78-21.39,2.82-22.24-4-1.56-28,7.25-39.44,35.87-34.4,21.36,0,42.31,8.08,48.31,30.55C1287.92,1246.64,1266.89,1243.26,1260.48,1244.53Z"/>
          <path class="cls-20" d="M1244,1206.35h0c-2.63-.39-5.23-1-7.88-1.2h0c-3.75-.24-7.5-.31-11.25-.27h0c-.85,0-1.71.08-2.56.09h0c-1,.07-2.07.22-3.11.19h0c-.89,0-1.79.08-2.69.07h0c-.26,0-.54,0-.8,0h0c-1-.77,1.61-.49,2.11-.53h0c.77,0,1.52-.08,2.29-.08h0c1.07-.07,2.13-.22,3.21-.19h0a85.41,85.41,0,0,1,20.57,1.39h0C1244.28,1205.73,1244.48,1206.36,1244,1206.35Z"/>
          <path class="cls-20" d="M1258.88,1210.87c-1.74-.75-3.43-1.64-5.21-2.29h0l-.21-.07h0l-.17-.07h0a67.58,67.58,0,0,0-7.38-2.26h0a48.14,48.14,0,0,0-4.92-.84h0c-4.41-.32-8.82-.69-13.25-.63h0c-2.68.15-5.36.26-8,.64h0c-.35-.06-.66.4-.95.18C1230.47,1202.46,1249.58,1204.33,1258.88,1210.87Z"/>
        </g>
        <g class="cls-22">
          <path class="cls-20" d="M1487.53,947.34c-.2-2.79-.39-5.76-.51-7.49C1487.18,942.32,1487.35,944.81,1487.53,947.34Zm-94.73,4.48c0-.8-.14-2.32-.16-2.59C1392.59,948.8,1392.76,951.14,1392.8,951.82Zm101.39,132c.07-1.27.17-2.53.24-3.8Zm-1.78,29.14c.07-1.32.18-2.64.24-4ZM1132,1203.16c51.76-185.39,71.76-368.83,107.3-557.77,6.58-61.45,85.76-35.85,129.78-54.45,33.56-4.51,77.17-20.74,111.21-17.46,35.23,189.67,33.7,408.64,42.48,605.59-14-.49-123.5,22.78-116.85,3.41-20.64-159.83-31.68-321.45-59-480.57-18.5,112.87-37.34,245.41-55,365C1273.39,1212.76,1270.65,1201.38,1132,1203.16Z"/>
        </g>
        <g class="cls-23">
          <path class="cls-24" d="M1459.42,607.5a1,1,0,0,1-.28-.54c-4.48-.93,1.34-14.54,1.67-18.06,5.71-18.91,9.61-38.36,13.76-57.66h0s0-.06,0-.09h0v0h0c1.4-3.38-.09-9,2.44-11.27a84.85,84.85,0,0,1,6.44-16.22h0v0h0c.59-1.14,1.16-2.29,1.74-3.44l0,.06c3.67-7.21,7.54-14.3,11.23-21.49l0,.09a165.26,165.26,0,0,0,14.8-42.76v0l.6-3h0a261.25,261.25,0,0,0,4.55-31.24v.1l.21-3.07v0a86,86,0,0,0,0-10.53.71.71,0,0,0,0,.14c-.19-3.42-.74-6.79-1.16-10.18-3.23-1.24,1.39-2.92,2.53-3.87,0,0,0,0,0,0,1-.68,2-1.32,3-2l0,0a73.79,73.79,0,0,1,7.37-5.11l0,0,.27-.18,0,0c7.07-3.28,17.41-16,24.85-9.5,2.72-1.76,3.21,5.44,4.52,6.93C1573.39,454.86,1521.9,546.39,1459.42,607.5Z"/>
          <path class="cls-24" d="M1558,359.58h0l-.06-.81C1557.94,359,1558,359.31,1558,359.58Zm0,12.54c0,1,0,2.08,0,3.12.12-2.05.2-4.11.26-6.17h0V369l0-2.21a1.35,1.35,0,0,1-.29.05.45.45,0,0,1,0,.11V367h0v.22l0,.89h0C1557.92,369.45,1557.94,370.78,1557.94,372.12Zm-2.55,28c-2.33-6.56.87-15.51.23-22.84v0s0-.08,0-.12,0,0,0,.06,0-.1,0-.16v0a2.62,2.62,0,0,1,0-.28v0c0-.19,0-.39,0-.58v.16c0-.23,0-.45,0-.68v-.12h0v-.17a.76.76,0,0,0,0-.15V375h0a.76.76,0,0,1,0-.15v-.18h0c0-.09,0-.19,0-.29v-.11c.94-2.4-2-21.63,2-18.31v0h0s0-.09,0-.13v0a29.73,29.73,0,0,0-1.27-5.83l0,0a1,1,0,0,1,.31-1.35c2.77-.41,2.24,4.91,2.91,6.82v0l0,.28v-.06c0,.22,0,.44.07.67h0v0l0,.27v0a145.78,145.78,0,0,1-.86,30.9v0h0s0,.07,0,.11h0v0c0,.21-.07.41-.1.61l0-.15c0,.15,0,.3-.07.46a.78.78,0,0,0,0-.16c0,.16,0,.32-.07.47v-.06c-.07.44-.14.87-.22,1.31v0c-.14.84-.27,1.66-.41,2.5a.78.78,0,0,1,0-.16c0,.14,0,.27-.07.41v0c0,.26-.09.52-.13.78l0-.16-.09.56v0l0,.16v0l0,.14v0C1557.11,396,1558.08,400.42,1555.39,400.1Z"/>
        </g>
        <g class="cls-25">
          <path class="cls-26" d="M1239,413.29c-.32.7-.38,1.16.17,1.68C1239,414.58,1239.19,413,1239,413.29Zm54.56-64.17c-67.91,59.83-50.64,76.88-34.45,157.81C1271.12,467.43,1289.34,398.54,1293.57,349.12Zm91.77,271.35c-29.49-.23-58.85-2.32-88.2-1.35-30.08,5-27.2-40.3-29-60.66-79.47-226.94-7.22-308.65,226.73-327.36,3.33.47.95-1.71,1.45-3.82,0-2.69,4.45-3.95.21-4.45-.27-.29-1.33,1.21-.93-.1,1.89-1.24,4.49,1,6.39,1.77.54-.5-5-2-4.57-2.66,41.18,16.49,63.2,61.9,71.65,103.18,13.94,31.78-11,36-32,51.49h0l-3.26,2.21h0c-45.47,41.49-31.06-.3-48.34-35.75,2.87,68.91,8.41,139.94,5.31,209v0c-.33,14.37-.09,29.28-.89,43.31v0c4.16,27.13-8.13,24.15-30.61,23.73C1434,618.43,1410.69,621.18,1385.34,620.47Z"/>
        </g>
        <g class="cls-27">
          <g class="cls-28">
            <path class="cls-10" d="M579.48,1206.67c-2.14,0-4.69-.71-3.55-3.32,1.62-8.95,2.51-18,4.4-26.87,16.67-1.13,33.47-2.74,50.24-4.18,2.32,0,7-1.66,6.84,2.09a127.16,127.16,0,0,1-2.24,21.21c-1.84,10.47-1,6.26-10.88,7.24C609.21,1202.53,594.47,1206.51,579.48,1206.67Z"/>
            <path class="cls-10" d="M629.39,1211.68c-.91,0-1.8-.1-2.71-.06h0c-4.56.29-5.35-.82-.4-.48h0c1.37-.1,2.75.13,4.12,0h0l.39-.1h0l.28-.13h0l.15-.11h0a.83.83,0,0,0,.31-.47h0a53.23,53.23,0,0,0,1-5.48v0c.77-7,2.21-9.12.55-.42h0C632.28,1206.92,633.12,1212.09,629.39,1211.68Z"/>
            <path class="cls-10" d="M630.22,1214.23c-.87-.26-1.69-.67-2.57-.87h0c-7.79-.54-4.7-10.34-3.18-15.22.24-.61,1.46-.34.61.13h0l-.15.08h0l0,0h0s-.05,0-.06.07h0v0h0l0,.08v0c-.31.82-.55,1.67-.78,2.51h0v0h0a33.86,33.86,0,0,0-.91,7.37v0a9.88,9.88,0,0,0,.11,1.22h0q.08.36.18.72v0a3.68,3.68,0,0,0,.18.5h0a2.69,2.69,0,0,0,.16.29l0,0,.12.18h0l.22.24,0,0a4.93,4.93,0,0,0,2,1.07h0a33.3,33.3,0,0,1,4.58,1.33h.2c.09,0,.1-.16.14-.24h0c.06-.16.1-.32.15-.48h0v0h0c1.4-6.16,2.3-13,3.78-18.85C635,1196.08,632.25,1215.62,630.22,1214.23Z"/>
            <path class="cls-10" d="M631,1203.71a.25.25,0,0,1,.5,0A.25.25,0,0,1,631,1203.71Z"/>
            <path class="cls-10" d="M631,1207.21c-.6-.3,0-1.32-.05-1.88-.39,2.28-1,1.09-.55-.45,0,1-1.25,2.23-1.08.56,0,1-1,.76-.93-.06a.25.25,0,0,1-.39-.12c-.4.17-.41-.33-.32-.6a.24.24,0,0,1-.3-.26c-.15.84-.81.32-.64-.3.16.88-1,1.09-.85.18a.27.27,0,0,1-.23,0c-.3,1-.68-.18-.52-.68-1.32,2,.5-5.43.52-1.58a.24.24,0,0,1,.26,0c.09-.45.65-.34.6.11a.25.25,0,0,1,.17.06c.26-.43.64,0,.55.38,0-.5.56-1.77.8-.71a.24.24,0,0,1,.28,0,.27.27,0,0,1,.45.1.23.23,0,0,1,.18,0c0-1.09,1.16-1.38,1.21-.16.18-.14.12-.68.52-.48.38-.62.63.21.49.59,0-.17.17-.38.38-.32a.26.26,0,0,1,.45-.1c.63-.68.56.67.51,1a.25.25,0,0,1,.17-.16c-.18-.63.61-1.46.53-.39h0s0,.11,0,.17c1.42-.34-1.31,6.49-1.61,4.55a.27.27,0,0,1-.23,0C631.23,1206.9,631.22,1207.21,631,1207.21Z"/>
            <path class="cls-10" d="M816.09,1207.2c-.35,3.46-.79,7-1.12,10.46a76.18,76.18,0,0,0,1.21-11.07C816.16,1206.79,816.13,1207,816.09,1207.2Zm-52.44,21c-1.13-3.37,0-7.71,0-11.18v0c.24-8.44,1.12-17.25,1.81-25.65h0l0-.08h0v0c0-.06,0-.11,0-.18a.5.5,0,0,1,0,.12,91.06,91.06,0,0,1,2.08-10.32h0c14.6-8.79,34-4.27,49.15,1,0-.55.77-.21.54.18.24.1.6.23.86.36h0c.23-2.11.66.13.85.86,1.76-5.07-1.27,13.57-1.43,15.14,0,2.58-2.91,32.3-3.84,27.24a3.55,3.55,0,0,1-1.6-.26s-.06.1-.06.12c-.23.51-.73,0-.6-.36-7.76-3.68-27.72,2.87-17.85-11.27-9.79.3-19.92,2-29.48,2.12C763.71,1220,764.41,1224.65,763.65,1228.25Z"/>
            <path class="cls-10" d="M767,1179.45c.13-3.85,1-1.19.55.82A1.42,1.42,0,0,0,767,1179.45Z"/>
            <path class="cls-10" d="M814.7,1217.47c-.54-.89-.21-2,0-3.18v0c0-.12,0-.24,0-.36h0v0h0c.52-1.61-.08-6.29,1.21-6.68a1.2,1.2,0,0,0,0-.19h0C817.15,1199.91,816,1217.13,814.7,1217.47Z"/>
          </g>
          <g class="cls-29">
            <path class="cls-20" d="M575.33,1252.61c-16-1.43-10.85-21.23-6.14-31.1,2.85-5.65,3.11-13.62,8.32-17.7,8.71-3.61,18.36-5.06,27.76-5.46,15.59.53,30.42,6.2,44,13.61,14.71,9.07,31.78,12.67,48.42,16.43,28.9,11,21.87,26.88-7.43,23.57C652,1249.13,613.67,1252.54,575.33,1252.61Z"/>
            <path class="cls-20" d="M817.48,1252.71c-13.48-.79-27-1.79-40.51-1.44h0c-5.32-.78-21.39,2.83-22.24-4-1.56-28,7.25-39.45,35.87-34.4,21.36,0,42.32,8.08,48.31,30.55C844.92,1254.82,823.9,1251.44,817.48,1252.71Z"/>
            <path class="cls-20" d="M801,1214.54h0c-2.63-.38-5.22-1-7.88-1.2h0c-3.74-.23-7.5-.3-11.25-.27h0q-1.27.07-2.55.09h0c-1,.06-2.07.21-3.12.18h0c-.9.05-1.79.08-2.69.08h0l-.78,0h0c-1-.78,1.62-.49,2.11-.54h0c.76,0,1.52-.08,2.28-.08h0c1.07-.06,2.13-.22,3.2-.18h0a85.36,85.36,0,0,1,20.56,1.38h0C801.28,1213.92,801.49,1214.54,801,1214.54Z"/>
            <path class="cls-20" d="M815.88,1219.06c-1.74-.76-3.42-1.64-5.21-2.29h0l-.18-.07h0l-.18-.06h0a63.46,63.46,0,0,0-7.38-2.26h0a48.8,48.8,0,0,0-4.93-.84h0c-4.41-.31-8.82-.69-13.25-.63h0c-2.69.15-5.37.27-8,.65h0c-.34,0-.66.41-1,.18C787.48,1210.64,806.58,1212.51,815.88,1219.06Z"/>
          </g>
        </g>
        <g class="cls-30">
          <path class="cls-31" d="M895.46,338c-5.22,2.32-4.9,8.75-6.36,13.47,2-4.55,4.15-9.13,6.44-13.54ZM856.89,598.78c-.18-.75-.38-1.49-.57-2.23h0C856.52,597.37,856.72,598.1,856.89,598.78ZM841,615.17c-.11.41-.22.82-.3,1.24.18-.61.4-1.21.52-1.84h0a.41.41,0,0,0,0-.11c0,.08-.05.15-.08.22h0C841.07,614.85,841,615,841,615.17Zm-10.89,18.08c-3.63-.86-2.64-6.43-3-9.34v0l.06-1.14h0a53.05,53.05,0,0,1,3-11.87h0c.47-1.41.9-2.84,1.37-4.25h0c.12-.36.23-.72.35-1.08v0a112.23,112.23,0,0,1,5-12.5h0c9.83-68.39,18.89-136.82,38.66-203.22,4.31-16.44,11.79-31.83,15.6-48.36,10-10.95,16.85-25.29,25.32-37.94-1.53,6.43-15,22.44-19.47,32.84,7.33-3,17.48-5.37,25-3.89,1.19,5.67-1.49,12.11-1.94,17.9-9.76,32.43-19.15,64.57-20.23,98.73C893.9,496,889.39,542.9,888.47,590c2.4,7.47-24.59,2.1-31.66,6.43.43,1.62.83,3.24,1.18,4.88a0,0,0,0,0,0,0c.09.39.17.78.25,1.17h0c1.69,8.67,3.63,18.1.56,26.66-6,11.08-10.41-4.4-10.86-10.27.93,11.58-9.43,18.25-8.24,2.06a.88.88,0,0,0-.05.15h0a1,1,0,0,0,0,.16h0l0,.07h0c0,.08,0,.15-.07.23v0a33,33,0,0,1-1.79,4.4l0,0a19.25,19.25,0,0,1-2.38,3.63h0l-.58.68,0,0C833.53,631.52,832.1,633.19,830.07,633.25Z"/>
        </g>
        <g class="cls-32">
          <path class="cls-33" d="M780.52,837.92c-3-52.72.71-106.86-11.58-159.14-2.64-10.55-7.21-20.79-11.65-30.6-.59-1.4,3.22-1,3.87-1.35,26-9,52.33-17.38,77.25-29.22,21.71-11.46,42.15-25.48,63.73-37.26,4.71-1.68,16.42-12.93,17.67-3.47,4.23,16.47,7,33.33,10.05,50.07,8.72,36.56,13.07,74.24,19.39,111.3.08,1.81,1.8,4.85-1.19,4.73C889.3,768.91,835,804.27,780.52,837.92Z"/>
        </g>
        <g class="cls-34">
          <path class="cls-35" d="M1100.32,1218.61c-11.36,4.2-9.46-39.68-13.3-48.15l0,0-.31-.24h0a.26.26,0,0,0-.13-.06h0c-6.78-8.71-5.89-21.63-5.14-32.22h0a84.25,84.25,0,0,0,.09-10.66v0a322.06,322.06,0,0,1-.5-61.55v0a1.15,1.15,0,0,1,0-.18h0c0-.27,0-.55.07-.82h0c0-.2,0-.4,0-.59v0c0-.16,0-.33,0-.49h0c0-.07,0-.15,0-.22h0c.65-6.92,1.11-13.88,2.68-20.67v0c.11-.52.23-1,.35-1.58h0c1-4.54,2.21-9.07,3.24-13.61h0c.59-5.27,12.5-76.52,18.81-45.71h0a22.69,22.69,0,0,0,.89,2.24v0a19.75,19.75,0,0,0,1,1.74c2.81,6.38,6.16,40.76,7.78,56.28v0c0,1.09.08,2.18.13,3.27v0c4.58,43.09,13.13,85.74,14.74,129.13v0c0,.12,0,.25,0,.37v0c.07,1.4.11,2.8.17,4.19v0c.43,6.76,1.47,13.48,1.71,20.27v0c.09,1.68.22,3.36.25,5v.12h0c.06,1.7.46,3.4.09,5.08h0a5.94,5.94,0,0,1-.23.75v0s0,.1,0,.14h0a2.76,2.76,0,0,0-.06.4v.25c-.77,2.88-9,1.79-11.84,2.84h0a15.88,15.88,0,0,0-2.35.6h0c-3.18,1.2-6.28,2.66-9.66,3.24h0A61,61,0,0,1,1100.32,1218.61Z"/>
          <path class="cls-31" d="M1042.29,380.58c-1.88-1.24-.89-3.64-.83-5.49h0l.09-.82h0a298.81,298.81,0,0,1,12.83-61.64h0c0-.15.07-.3.11-.45h0l0-.15h0a1,1,0,0,0,0-.14h0c.94-11.89,15.84,10.84,22.18,11h0c5.68,4.61,25.83,8.3,16.39,17.3h0a23.15,23.15,0,0,0-1.34,2.18c-4,8.79-5.88,18.44-10,27.21h0l-.9,2.26v0c-.6,1.55-1.22,3.09-1.82,4.63v0l-.85,2.25v0c-.28.73-.55,1.47-.84,2.2l0,0c-.27.72-.53,1.43-.81,2.15h0c0,.09-.07.19-.11.29-8.63-4.93-17-10.46-26.46-13.69-4.72.82,3.16,4.59,4.56,5.35a2.16,2.16,0,0,0-1.74,1.4c-4.85-3.72-10.22-.86-3.64,3.15-.65,1.46.8,2.52,1.9,3.19a2,2,0,0,0-1,.63,2.23,2.23,0,0,0-3.6.85Q1044.38,382.37,1042.29,380.58Z"/>
          <path class="cls-31" d="M900.43,1227.07c-21.82-1.08-29.83-6.3-28.17-29-10.19-161.55-12.82-328.45,6.63-488,28.21.54,58.5,2.34,87.36,1.31,5.81,161.51-48.33,327.69-48.6,490.42C920.26,1216.22,919.27,1228.25,900.43,1227.07Z"/>
          <path class="cls-31" d="M869.69,1152.62a104.86,104.86,0,0,1-.28-15.45v0c.13-6.1,0-12.2.2-18.3v-.15c.19-.7-.44-6.31.49-4.77v0c0,1.65,0,3.3,0,4.94v0c0,.22,0,.44,0,.66v0c-.19,7.41,0,14.84-.38,22.25v0c-.09,3.51.3,7,.44,10.53h0C870.33,1152.59,869.93,1153.14,869.69,1152.62Z"/>
          <path class="cls-31" d="M871.27,1143.69c-.12-.5-.25-1-.37-1.49h0c0-.2-.09-.4-.13-.6h0l0-.07c0,.64-.68.3-.51-.2-.4-4.37-1-10.24-.26-14.64,1.45-2.21.37,11.41.95,13.1v0a13.44,13.44,0,0,0,.28,1.54h0c.06.22.11.44.16.65h0a2.86,2.86,0,0,0,.07.28h0C871.52,1142.64,872.11,1144.35,871.27,1143.69Z"/>
          <path class="cls-31" d="M1081.36,386.18c-2.84-1.77-5.73-3.43-8.63-5.08a3.55,3.55,0,0,0,2.79-2.61c-.83-1.65-1.21-4.34,1.19-4.74-3.28-7.08,11.07-9.38,5.74,13.09Z"/>
        </g>
        <g class="cls-36">
          <path class="cls-4" d="M895.06,1230.33c-8.91-1.57-20.78-2.51-25-11.79-.43,2.4-.63-.24-.52-1.06-1.23-1.46-.95-7,.07-2.11-1-25.8-3.08-51.49-1-77.25-.21-1.95,6.72-.21,8.19-.6,3.9,0,7.67-1.29,11.57-1.34,8.89-.83,17.8-2.57,26.71-3.32,1.57.23,6-2.45,6.16-.36-1.18,28.18-6.57,56.11-5,84.32C919.29,1229.52,904.47,1231.07,895.06,1230.33Z"/>
        </g>
        <g class="cls-37">
          <path class="cls-4" d="M1120.31,1221.6c-9,.26-20.86,1.74-26.9-6.5.11,2.35-.71-.09-.73-.93-1.57-1.31-2.26-6.54-.37-2.16-6.22-25.16-13.48-50-16.55-75.76,16.38-3.89,34.3-11.23,50.3-16.17,4.88,27.86,4.93,56.56,12.34,84C1143.88,1215.78,1129.73,1220.47,1120.31,1221.6Z"/>
        </g>
        <g class="cls-38">
          <path class="cls-14" d="M1062.47,1116c.54-.32,1.07-.66,1.6-1,0,.28,0,.57,0,.85a4.77,4.77,0,0,0-1.47.55C1062.59,1116.25,1062.53,1116.12,1062.47,1116Z"/>
          <path class="cls-14" d="M1068.8,1113.22c-.08-.38-.16-.76-.25-1.14l2-1.33,0,0,1.25-.81c-.08,1.15-.16,2.3-.2,3.46A3.91,3.91,0,0,0,1068.8,1113.22Z"/>
          <path class="cls-39" d="M867.75,1246.39c-4-28.51.73-59.3-3.56-88.31,9-12,42.71-13.15,57.2-11.57,6.12,1-3.6,21.77-3.16,26.29,24.39,4.84,96.42,22.62,71.35,58.61-10.21,5.88-23.09,3.32-34.37,5.3C926.13,1240.51,896.72,1242.3,867.75,1246.39Z"/>
        </g>
        <g class="cls-40">
          <path class="cls-14" d="M1273,1103.6l1.51-1c0,.27.07.54.1.81a5,5,0,0,0-1.42.58Z"/>
          <path class="cls-14" d="M1279.05,1100.72l-.33-1.06,1.91-1.34,0,0,1.18-.82c0,1.09,0,2.19,0,3.28A4.13,4.13,0,0,0,1279.05,1100.72Z"/>
          <path class="cls-39" d="M1089.24,1234.92c-3.7-8.94-2.19-20.27-3.68-30,.72-18.29-7.3-40-4.18-56.63,16.24-8.26,35.91-11.13,54-10,6.24,5.58-2.16,17.45-1.34,25,23.36,3.7,97,16.63,74.9,52.59-12.68,6.87-28.5,4.23-42.33,7.76C1140.89,1227.75,1114.84,1230.32,1089.24,1234.92Z"/>
        </g>
        <g class="cls-41">
          <path class="cls-39" d="M1018.83,514.28c-37.57-3.09-75.31-6.08-112.67-10.79-3.68-.71-9.72-1.33-9.62-5.45,2.56-44.29,4.81-103,3.07-147.12.75-1.93.94,3.11,1.21,3,1.27-1.45,1.34-.16.19.62,42.55-36.28,102-37.72,154.37-47.75,13.25-6.18,2.61,36.12,3.28,42.91h0c-3.61,45.86-5.73,91.53-.56,137.31,0,9.24,9.23,25.47-6.91,23.7C1040.4,511.88,1029.7,514.09,1018.83,514.28Z"/>
          <path class="cls-39" d="M1050,454.46a9.61,9.61,0,0,1-.25-2.07v.06c0-.1,0-.2,0-.31v.15c0-4.12,0-8.24-.18-12.37v.16a91,91,0,0,1,.07-16.09v.1a22.26,22.26,0,0,0,.15-4.24v.27c-1.12-34.86,6.57-69,11.88-103.27a.74.74,0,0,1,0,.14l.15-.69a1.76,1.76,0,0,0-.37.17h0a6.45,6.45,0,0,1-3.21,1.3h.08c-3.24.94-1.46-1.09.47-1.29l-.07,0a4.24,4.24,0,0,0,.59-.23l-.07,0a3.43,3.43,0,0,0,.72-.47h0c4.1-4,4.53.54,3.63,4v-.07a.88.88,0,0,1,0,.17v0c-4.68,35.09-9.35,70.1-10.49,105.49l0-.23c0,.12,0,.25,0,.38v0a82.22,82.22,0,0,0-.28,10.41c0-.05,0-.11,0-.17C1052.38,438,1055.31,461.28,1050,454.46Z"/>
          <path class="cls-39" d="M1048.27,472.54c-5.1-2,2.55-12.62,2.72-16.86,1.87-6.63,1.91-13.77,2-20.64v0c-1.16-21.69.36-43.39,3.14-64.9v.05c0-.06,0-.13,0-.2h0V370h0c0-.07,0-.14,0-.21v0c.28-3.24.47-6.49.79-9.74,0,.07,0,.12,0,.19,0-.27,0-.54.07-.81v.08c1-13.73,4.66-27,6.64-40.58-.94.45-1.8,1.06-2.75,1.51h0c-2,1.15-.79-.9.43-1.2h0c8.19-7.64,0,18.19.42,21.47-2.36,14.58-2.22,29.39-3.65,44.06v0s0,.08,0,.13a.38.38,0,0,1,0-.1c0,.18,0,.35,0,.52a1.94,1.94,0,0,0,0-.24c-1.84,14.14-.7,28.43-.69,42.65v-.08C1058.28,441.61,1058.39,462.77,1048.27,472.54Z"/>
        </g>
        <g class="cls-42">
          <path class="cls-43" d="M437.94,455c-.31-.85-.14-9.41.45-6.23v0a39.47,39.47,0,0,0-.08,4.35v0C438.24,453.47,438.79,455.78,437.94,455Z"/>
          <path class="cls-43" d="M271.2,456.15c-2.28-.23-4.39-1.31-6.62-1.8h.05c-2.25-.65-5.38-.71-6.69-2.93h0l0,0a.5.5,0,0,1-.12-.32c-.3,0-.61,0-.92,0h0c-1,0-2,0-2.93.05h0c-18.55,4.14-37.34-15-10.48-13.27-3.26-.53-6.74-1-9-3.66l0,0c-7.08-7.65,2.41-7.76,8.17-7.63-5.07-1.34-13.68-.32-15.27-6.68-.29-2.8,1.45-5.71,4.43-5.95h0c3.87-.51,7.79.14,11.67.08-1.26-.23-2.52-.46-3.75-.79h0c-19.54-6.13-6.23-20.71,8.8-12.64l0,0c8.32,3.91,16.27,8.62,24.69,12.35,2.34.65,1.48,2.9.89,4.55v0a33.94,33.94,0,0,0-.75,4.51s0,0,0-.05c-.21,2-.3,4-.56,6a.13.13,0,0,0,0-.06,53.27,53.27,0,0,0-.29,6.8v-.05C272.23,441.34,274.65,450.55,271.2,456.15Z"/>
        </g>
        <g class="cls-44">
          <path class="cls-45" d="M615.58,367.79c.51-4.31,1.09-8.62,1.81-12.9a12.78,12.78,0,0,1-.38,3.63v0l-.09.44.06-.26a12,12,0,0,0-.17,1.2v-.18a41.43,41.43,0,0,1-1.54,11.45.43.43,0,0,0,0-.05,4.07,4.07,0,0,1-.22.93Z"/>
          <path class="cls-45" d="M619.72,342l.06,0c-.21.55,0,1.21-.39,1.71Z"/>
          <path class="cls-46" d="M400,348.41c-6.28.46-12.56.75-18.79,1.53,0,.88-2.12.94-2.84,1.42,8.05-1.33,16.94-2.46,24.78-3.16ZM604.32,570.76a47.8,47.8,0,0,0,.07,6.44c.55-5.06.4-10.07.57-15.13a26.46,26.46,0,0,0-.57,6.21v-.06C604.37,569.06,604.35,569.91,604.32,570.76Zm-1,11.49a1.55,1.55,0,0,0,.6.64c.07-.73.14-1.5.21-2.23-.87.2-1.79.48-2.64.74a8.29,8.29,0,0,1,1.43.83A.28.28,0,0,1,603.33,582.25ZM522.6,1120.44c-37-1.68-61.24-36.26-95.8-44.25-35.82-4.79-74.4-.36-103.91,22v-.14h0c13.5-165.47,23.75-332,44.43-497h0c9-51,11.61-104.23.44-155.18-34.49,27.2-86.53,37.13-120.19,5.37,5.82-14.76,7.08-31.27,9.82-46.65,38.63,5.65,77-14.47,105-39.65-1.11-9.94.56-8.14,8.7-11.94-.73,0-8.61,1.59-6.77-.21,6.94.46,12.14-2.87,18.64-4,23.25-1.24,47.41-5,70.22.45,53.11,10.09,121.39-26.62,166.13-7.55-5.32,38.65-13,78.32-10.54,117.29,5.06,40.41-2.57,81.14-3.73,121.43-.07,0-.28.07-.35.09,27.11,33.8,17.46,82.67,19.33,124.38C622.41,788.21,612.53,871,607.22,954c-4.67,44.34-5.19,89.83-15,133.29-2.42,9.45-4.11,18.9-16.66,11.58C559.94,1109.78,542.1,1119.88,522.6,1120.44Z"/>
        </g>
        <g class="cls-47">
          <path class="cls-7" d="M823,1185.34c-23.53-.54-46.94-3.61-70.49-1.7-7-100.53-15.63-201.1-27.05-301.37-3.77-55.94,1.84-113.77-5.7-168.82h0c-4.18-.75-8.47-1-12.67-1.52-27.55,154-49.23,309.57-65.65,465.11-22.81-.64-45.72-1.78-68.49.06-.66-38.38,3.13-76.72-.33-115.07,3.37-51.46-2.38-102.78.72-154.24,4.33-72.16,7.79-144.08,12.43-216.16,6.29-51.8,16.13-103.47,22.67-154.9-1,2.15-1-8.88,1-4,40.2-14.21,84.16-12.69,124-27.17,27.37-12.27,60.9-31.47,91.23-26.17-.86,52.32-7.72,113.2-8.61,168.53-1.09,41.85,6.57,83.38,5.89,125.25,4,137.3,6.47,274.93,3.09,412.17A19.75,19.75,0,0,1,823,1185.34Z"/>
        </g>
        <g class="cls-48">
          <path class="cls-49" d="M582.86,1176.69c-1.74-29.77,1.61-60.43,3.12-90.39h0c2.76-39.53,3.81-79.13,4.12-118.74v.06c-.23-5.37-.75-10.72-.79-16.09v0A365.23,365.23,0,0,1,587.72,914v0c.86-102.23,4.29-205,25.34-305.44v0a.51.51,0,0,0,0-.13h0c1.84-8.49,2.73-17.16,4.85-25.59h0a.11.11,0,0,0,0,0h0c2.17-10.93,4.15-21.88,7-32.66,0,0,0,0,0,0l0-.13h0c1.39-3.19,1-12.59,4-13.64,1.51.66.12,2.59.07,3.76h0v0h0a.36.36,0,0,1,0,.1v0c-3.4,15.75-6.95,31.44-10.09,47.25v0a.08.08,0,0,1,0,0h0c-3.15,16.5-6,33-9.24,49.53h0C583.78,771.86,593.33,908.85,590.22,1045v-.13c-1.1,15.47-1.06,31-2.71,46.43a.53.53,0,0,0,0-.13c-.4,9.56-1.36,19.09-1.7,28.64h0c.14,18.5-2.41,37.08-1.46,55.58h0C585.38,1176.6,583.81,1176.66,582.86,1176.69Z"/>
          <path class="cls-49" d="M602.23,1176c-1.35-1-.26-2.42-.31-3.72,0,0,0,.08,0,.12,16.7-207.8,12.86-418.1,54.4-623h0c-25.32,128.85-42.1,432.72-52.46,623.79l0-.13C603.69,1174.19,604.1,1176.71,602.23,1176Z"/>
          <path class="cls-49" d="M618.37,1174.13c.26-1.9.43-3.8.6-5.71v.13c12-191,34.22-381.17,56.34-571.26,2.38-16.79,5.54-33.47,8.84-50.1,1.38-5.31,1.45-15,6.42-17.06-15.82,61.67-21.63,128.08-26.39,192.26v-.13c-4.95,43-10.57,85.94-15.66,128.94h0q-16.86,142.15-24.6,285.07v0c-.45,10.07-1.87,20-2.76,30.07v0c-.3,3.49-.57,7-1.17,10.43l-2,.07C618.11,1175.89,618.25,1175,618.37,1174.13Z"/>
          <path class="cls-49" d="M633.34,1177h0c-.53-.06-1.05,0-1.57,0,1.15-6.78.84-13.69,1.55-20.51v0c.29-33.13,2.18-66.24,7.41-99a.69.69,0,0,1,0,.13,99,99,0,0,0,1.93-12.91v.08c2.52-34.61,9.17-68.8,12.17-103.41v.13c.4-5.93.54-11.87,1.06-17.8v.13c5-74.88,17.64-149,28.29-223.2v.07c5.72-53.78,15-107.88,24.43-160.85.4-1.48,3-3.69,2.73-.66a18.32,18.32,0,0,0-2.58,5.43l0-.13c-16.92,115.8-36.28,236.85-49.14,353.16v-.08c-2,46-8.26,91.56-14.4,137.11v-.13c-.36,8.9-1.06,17.77-3.18,26.45,0,0,0-.06,0-.09a74.24,74.24,0,0,0-1.43,10.5h0c0,11.77-2.65,23.22-3.89,34.87v0c-1.29,17.16-.45,34.36-1.52,51.5v0c-.61,6.4-.36,12.88-1.43,19.24Z"/>
          <path class="cls-49" d="M708.27,712.42h0c-.58-8.13,1-16.16,1.7-24.23v.13c.34-10.58,1.2-21.08,2.32-31.6v.13c.41-14,1.73-27.85,3.4-41.72h0c.05-.75.11-1.52.17-2.28a.57.57,0,0,0,0,.13c.46-9.93,1.83-19.79,2.7-29.68v.05c.3-10.73,1.94-21.3,3.39-31.91a.57.57,0,0,0,0,.13c.69-1.61-1-16.35,2.29-11.47.58,11.28-2.22,22.24-3.08,33.42h0c-.39,10.67-1.86,21.23-2.79,31.85v0c-.2,2.74-.34,5.49-.54,8.23h0c0,.53-.09,1.07-.12,1.61v-.13l0,.39v-.12l0,.39v-.13c-2.7,19.07-2.74,38.31-5,57.43v-.13A292.6,292.6,0,0,1,710.34,703v-.13a77.22,77.22,0,0,0-.06,9.74A10.6,10.6,0,0,0,708.27,712.42Z"/>
          <path class="cls-49" d="M720.18,728.43c-.76-9.33,3.6-18.61,3.3-28.14l0,.44c.09-1.31.17-2.62.26-3.93v0c0-.05,0-.1,0-.15,0,.1,0,.2,0,.29l.27-4.09a2.11,2.11,0,0,1,0,.26v.08s0,.08,0,.12c0-.18,0-.36,0-.53v.07c.07-1.09.15-2.18.22-3.27h0v0h0c.68-4.63,2.4-9,3.5-13.57a3.22,3.22,0,0,0,.76,0c-.83,7.26-2.77,14.36-3.16,21.68v-.09c-.1,1.41-.19,2.81-.3,4.22v0l-.06.93v0c-.6,8-2.13,16-3.11,24l0-.13C722.13,727.82,721.68,729.69,720.18,728.43Z"/>
          <path class="cls-49" d="M747.43,548.18a1.2,1.2,0,0,0-1.11.49c.07-5,3.45-4.86,2,.17A1.19,1.19,0,0,0,747.43,548.18Z"/>
          <path class="cls-49" d="M771.24,1183.1c-2.11-17.07-3.89-34.2-4.53-51.4v.13c-.32-5.36-.29-10.72-.52-16.08h0c-.7-11.14-1.67-22.27-1.75-33.44h0c-1.19-12.08-1.16-24.16-1.43-36.28h0c-.85-9-.81-18.08-1.06-27.13h0c-1.29-37.74-2.17-75.37-5.62-113v0a.37.37,0,0,0,0-.11h0c-12.72-117.54-5.65-235.47.7-353.13l0,.15c1.06-4-1.3-14.11,2.19-16,1.67.36.68,2.35.73,3.51,0,0,0-.1,0-.15-.33,6.59-.49,13.17-1.14,19.74a.76.76,0,0,0,0-.15c-2.41,27.82-.91,55.8-3.64,83.54v-.15c-.45,9.62-1.11,19.22-2.17,28.79v0c-1.69,31.34-3.3,62.62-1.51,94v0h0a.34.34,0,0,1,0,.1v0c1.45,29.6.54,59.33,2.21,89a.13.13,0,0,0,0-.06c4.65,50.88,9.72,101.74,9.45,152.86a.09.09,0,0,1,0-.05.49.49,0,0,1,0,.12h0c.92,9.09,1,18.2,1.12,27.33,0,0,0-.08,0-.13,1.17,19.93,1.55,39.87,2.52,59.81a.07.07,0,0,1,0-.05s0,.09,0,.13h0c.91,11.84,1.63,23.68,1.86,35.55v-.13c.22,4.07.38,8.13.58,12.19,0,0,0-.09,0-.13,1,13.51,2.34,27,4,40.45-.36,0-.72.1-1.09.13h.12l-.28,0,.12,0-.16,0h0l-.45,0h.06A2.16,2.16,0,0,1,771.24,1183.1Z"/>
          <path class="cls-49" d="M791.5,1183.66a6.09,6.09,0,0,0-1.34-.13c-1.55-13.26-.62-26.58-1.41-39.87,0,0,0,.09,0,.13-.41-27.06-.63-54.15-1.49-81.22v0c-6.93-78.12-7.83-156.48-6.53-234.84,0,.06,0,.12,0,.18a127.38,127.38,0,0,0,.06-14.36v0c-5.16-63.8,5.15-127.11,5.76-190.71v0c-1.73-26.28-.27-52.73,2.14-78.93v0c.69-2.11-1.21-6.24,1.51-6.93-1.17,49.17,1,102.68-4.34,153v0c-3.42,38.93-3.65,77.93-2.5,117V807c.4,80.21-3,160.55,4.87,240.51a.13.13,0,0,1,0-.06.57.57,0,0,1,0,.13v0c2.31,31.39,2,62.91,2.44,94.35a.57.57,0,0,0,0-.13c.76,9.41.32,18.86.56,28.28a.53.53,0,0,0,0-.13c.26,4.6.58,9.21,1,13.8Z"/>
          <path class="cls-49" d="M811.52,1185c0-17.17.43-34.36,0-51.53v.13c-1-9.36-.56-18.7-.7-28.07v.13c-1-9.44-.83-18.86-.89-28.33v.13c-2.81-75.68-3.07-151.58-1.81-227.33v.05c2-103.94,2.35-207.52.38-311.39,7.45-13.74,1.22,58.1,2.51,62v0c7.32,81.73-1.41,163.47-.75,245.35V846c.27,41.14-2.12,82.31-.49,123.49h0c1.92,30.37-.14,60.83.92,91.24h0a310.59,310.59,0,0,1,1.3,33.41h0v.08c1.08,9.38.88,18.79.8,28.2v0c1.68,20.87.68,41.8.77,62.71a2.53,2.53,0,0,0-.58.13l.1,0A8.67,8.67,0,0,1,811.52,1185Z"/>
          <path class="cls-50" d="M724.2,728.71c-2.08-7.58,1.76-17.85,1.44-26.31v0l.33-4.91v0c.08-1.18.15-2.36.22-3.55v0c.12-1.69.25-3.38.37-5.08a.76.76,0,0,0,0,.15l0-.6a.09.09,0,0,0,0,.05c0-.07,0-.15,0-.23v.09c.2-3.57.47-7.14.74-10.7a.31.31,0,0,0,0,.1c.43-9.38.63-18.77,1.37-28.13,0,.06,0,.12,0,.17,0-.22,0-.44,0-.66v.18c2-29.1,5.71-58,8.26-87.09h0c.64-1.65-.87-15.22,2.3-10.13.06,14.69-2.44,29.56-3.58,44.28v-.13c-.28,4.63-.91,9.22-1.22,13.85v-.1c-1.31,17.75-3.06,35.46-4.08,53.24h0l-.12,1.84c0-.06,0-.12,0-.17-.22,3.25-.38,6.51-.6,9.77,0,0,0-.11,0-.15-.19,2.74-.47,5.47-.67,8.21v-.14C727.27,697.54,728.46,715.19,724.2,728.71Z"/>
        </g>
        <g class="cls-51">
          <path class="cls-52" d="M747.78,857a1.38,1.38,0,0,1-.2,0h0l-.4-.12,0,0c-.17-.07-.35-.14-.51-.22l0,0c-1.14-.72-1.32-2.4-1.76-3.59,0,0,0,0,0,0-1.06-3.39-2.34-6.71-3.27-10.15h0a176.88,176.88,0,0,1-4.29-19.6v0l0-.19v0c0-.1,0-.19,0-.28v0l-.06-.41s0,.06,0,.09l-.09-.64s0,.06,0,.09c-4.81-25.37-11.54-50.39-15.54-75.9a0,0,0,0,1,0,0c-.08-.53-.15-1.06-.23-1.58l0,.1c0-.08,0-.16,0-.23h0c-2.23-11.81-4.66-23.55-7.62-35.18v0l-.24-1.32v0c-.18-1-.39-2-.59-2.94v0c-.91-4.83-1-9.76-1.89-14.59v0a42.11,42.11,0,0,1-.43-6.54v0c0-2-.62-4.23.24-6.17h0a0,0,0,0,1,0,0h0l0-.14a3.7,3.7,0,0,0-.1,1c.14-2.25,1-4.77,3-6h0l0,0h0c1-.52,2-1.19,3-1.74h0C764.28,651,812.56,624.57,859.87,608l-.32.11h0l-.12,0h0C841.58,616.42,822,624.27,805,633.63c-.24.17-.63.37-.49.73h0s0,0,0,0h0c0,.39.63.22.48-.14,0,0,.08,0,.09-.06a4.71,4.71,0,0,1,.64-.42h0c.31-.15.62-.3.91-.47h0c.77-.38,1.57-.68,2.33-1.1h0l.11-.06h0c.27-.18.9-.37.7-.76q5.1-2.37,10.19-4.7a.64.64,0,0,0,.32.46c-.73.47-1.86.81-2.17,1.68-1.72.34-.61,2.31-.47.9h0s0-.06,0-.09v0s0,0,0,0h0a1,1,0,0,1,.27-.19h0C819,629,819.94,628.4,821,628c-.47.41-1.55.61-1.48,1.35-.28.13-.68.23-.69.6a.71.71,0,0,0-.52,1c-.87.29-3.56,1.57-1.43,2.06a.63.63,0,0,0,.14.52c-.66.15-.94,1-.25,1.35-3.54,2.72-8.67,3.66-12.89,5.49h0l-.18.07h0c-1,.4-2,.79-3,1.18l0,0-.34.13h0l-.14.06h0c-2.11.84-4.23,1.63-6.36,2.44l.06,0-.26.1.06,0-.54.21,0,0c-3.31,1.31-6.48,2.93-9.78,4.24l.06,0-.26.1.06,0-.21.08h0l-.1,0h0c-.25.08-.48.18-.72.27l0,0-.62.25.05,0-1.38.53.06,0c-4.64,1.83-9,4.24-13.7,6l.06,0c-8.39,3.22-16.19,7.75-24.33,11.51l.06,0c-2.05,1.23-4.24,2.19-6.35,3.3h0c-2,1.14-4,2.33-6.11,3.42h0c-3.62,2-7.08,4.24-10.62,6.36h0c-.47.26-.94.54-1.43.77l.11,0c2.65,11.72,5.38,23.42,6.84,35.37a.08.08,0,0,0,0,0c4.36,19.67,9.68,39.1,14.63,58.6,0,0,0,0,0,0,.08.39.14.78.22,1.17l0-.15c.88,4.82,1.46,9.7,2.41,14.51l0-.15c.27,1.43.55,2.85.81,4.28l0-.15c2.82,11.66,4.71,23.55,8,35.09,2.5,9.25,9.27,22.37-2.8,27.45h0A3.88,3.88,0,0,1,747.78,857Z"/>
          <path class="cls-52" d="M836.36,620.91l-.05,0,2.06-.76,0,.09-3,1Z"/>
          <path class="cls-52" d="M711.09,683.45a5.48,5.48,0,0,1-.19-1.39h0v0h0c-.21-2.41-.91-5.44.82-7.44l0,0c1.27-1.58,3.29-2.36,5.08-3.19h0l0,0h0l.32-.18h0c1.62-1,2.14-.05.24.44h0l-.35.19h0c-.66.34-1.37.56-2,.92h0c-.67.42-1.37.82-2,1.24h0a1.44,1.44,0,0,0-.27.22h0a6.2,6.2,0,0,0-.55.6l0,0L712,675h0a3.26,3.26,0,0,0-.51.76v0a2.08,2.08,0,0,0-.12.32,0,0,0,0,1,0,0,7.9,7.9,0,0,0-.2.84v0c0,.28-.05.57-.07.85v0c0,1.06,0,2.14.13,3.21h0v0h0a14.37,14.37,0,0,1,.23,1.73h0a5.21,5.21,0,0,0,.1.57v0C711.78,683.52,711.25,683.85,711.09,683.45Z"/>
          <path class="cls-52" d="M711.15,678.67c-.58-.67-.12-4.09,1.24-3.77h0c.31.36-.21.37-.34.58h0C711.29,676.33,711.88,678,711.15,678.67Z"/>
          <path class="cls-52" d="M713.88,700c-1.54-3.26-1.66-6.92-2.5-10.38a.64.64,0,0,1,0,.07,1.16,1.16,0,0,1,0-.18.24.24,0,0,0,0,.08c-.35-1.39-.58-2.81-.86-4.21a.09.09,0,0,0,0,0c-.67-2.4-.74-4.9-1.56-7.25v.05a4.27,4.27,0,0,1-.15-1.59v.05c0-1.41,1.35-2.29,2.53-2.74h0a2.76,2.76,0,0,0,.39-.18h0c.22-.11.43-.23.64-.35h0l.07,0h0l0,0h0l.09,0,0,0c1.3-.65,2.61-1.3,4-1.84h0l.08,0,0,0c.62-.25,1.22-.54,1.84-.78h0c.57-.22,1.15-.41,1.72-.63h0a8.69,8.69,0,0,0,1.17-.52l0,0c.62-.32,1.2-.71,1.81-1l0,0c1-.9,2.83-.71.77.14h0c-.26.13-.51.28-.77.42h0a15.26,15.26,0,0,1-2.78,1.44h0c-.57.22-1.15.41-1.72.63h0c-.61.24-1.2.52-1.8.76h0l-.07,0h0l-.19.07h0c-1.28.53-2.54,1.16-3.79,1.76h0l-.11.06h0l0,0h0l-.62.34h0c-.29.16-.59.28-.88.44h0a5.8,5.8,0,0,0-.52.34l0,0-.05,0,0,0,0,0h0c-.18.13-.34.25-.5.39h0l-.21.22h0l-.12.16h0a1.49,1.49,0,0,0-.13.25v0a1.8,1.8,0,0,0-.08.21v0a2,2,0,0,0-.08.43v0a7.06,7.06,0,0,0,0,.8h0a8.94,8.94,0,0,0,.44,1.59s0,0,0,0c.77,1.66.77,3.54,1.25,5.28v-.06c.38,1.32.66,2.65,1,4a.25.25,0,0,1,0-.07c.35,1.26.72,2.51,1,3.79h0a.31.31,0,0,1,0,.08h0l.18.73h0c.36,1.57.67,3.16,1,4.74,0,0,0,0,0,0C714.62,698.09,715.85,701.41,713.88,700Z"/>
          <path class="cls-52" d="M711.13,682a9.87,9.87,0,0,1-1.83-5.73l0,.09c.47-1.5,2-2.1,3.32-2.62l-.09.05c2.85-1.36,1.86,1.48-.26,1.87l.09-.05-.1.06h0c0,.67-.84,1-.82,1.71s.47,2-.55,2.36C710.78,680.46,711.77,681.84,711.13,682Z"/>
          <path class="cls-52" d="M712.46,692.27a65.25,65.25,0,0,1-2.94-13.91h0c0-.32-.09-.64-.12-1h0v0h0c-.1-.84,1.17,0,.55.34,0,.31.07.63.11.94h0v0h0a70.47,70.47,0,0,0,1.31,7.64h0c0,.1,0,.2.07.3h0C711.36,687.68,714,692.74,712.46,692.27Z"/>
          <path class="cls-52" d="M712.26,696.07c-1.54-5.08-1.91-10.47-2.72-15.71h0v0h0c-.09-.5-.88-4.72,0-3h0C709.39,679.89,714.64,697,712.26,696.07Z"/>
          <path class="cls-52" d="M714.39,701.77l-.33-.85v0c-2.43-7-5.65-18-4.8-23.9h0a2.56,2.56,0,0,0,0,.39v0c.53,3.91,1.34,7.8,2.22,11.65v0c.77,2.87,1.46,5.75,2.11,8.65v0C713.55,698.48,715.73,702.26,714.39,701.77Z"/>
          <path class="cls-33" d="M861.12,608.56a1.5,1.5,0,0,1,.29,1.76l.12-.19v0a10,10,0,0,0,.56-1v0a2.71,2.71,0,0,0,.25-.69h0c0-.1,0-.21,0-.31v-.34h0c0-.13-.11-.12-.21-.11h0l-.29,0h0c-.44.1-.85.25-1.27.39A2.41,2.41,0,0,1,861.12,608.56ZM823,626.18c-.22.33-.68.38-1,.54,1.39,1.2,3.25.87,5,.79h-.08l.44,0h-.07c.65,0,1.31-.13,2-.24h0l.07,0h0l.14,0-.08,0a26.87,26.87,0,0,0,3-.88l-.07,0c8.86-3.85,18.07-7.31,26.42-12.18h0l0,0h0a8.06,8.06,0,0,0,.69-.74s0,0,0,0a13.27,13.27,0,0,0,1.72-2.53c-1.83,2.45-4.13,3.56-6.86,4.78a.84.84,0,0,0-.26-1c7.21-6.16-29.68,11.1-30.95,11.34h0A.31.31,0,0,1,823,626.18Zm-17.56,6.93c17.47-8.67,36.16-17,54.11-25h0l.12,0h0c2.9-1.41,4.43-.61,2.38,2.39h0c-1.33,2.28-2.68,4.68-5.21,5.81h0l-.2.1h0c-2,1.1-4.1,2-6.12,3.07l0,0-.32.16.05,0-.19.1.05,0c-7.48,3.18-14.73,7.92-22.89,9h.07c-2.47.3-5,.23-6.95-1.44h0a.63.63,0,0,1-.39-.49C815.12,628.64,810.15,631.74,805.39,633.11Z"/>
        </g>
        <g class="cls-53">
          <path class="cls-33" d="M767.27,651.17c.56-.24,1.15-.52,1.69-.8ZM751.16,854c-.58-2.52-1.12-5.2-1.64-7.66v0l-.06-.31h0c0-.21-.06-.42-.1-.63a0,0,0,0,0,0,0v0h0c0-.28-.11-.57-.16-.85h0a.24.24,0,0,1,0-.08v0a.29.29,0,0,0,0-.09.09.09,0,0,1,0,.05C737.42,789.79,724.61,735,713.22,680.21h0c-.18-1.36-.4-2.71-.63-4.06,42.93-18.67,85.8-44.37,129.76-56.83-7.08,3.13-14.55,4.82-21.71,7.82.55,1,.39,2.18.56,3.29.72.37-.27,1.09-.56.46,2.94,28.33,2.24,56.42,7.69,84.51-1,29.15-5.87,58.66.21,87.6,21-10.61,21-8,.15,1,.28.59.39,1.26.62,1.87h0c.08-.05.16-.15.23-.2h0c3.15-2.28,7-4.89,10.45-5.93-27.18,19.92-58.88,36.73-88.08,54.76l0,0-.59.32C751.29,854.53,751.22,854.26,751.16,854Z"/>
          <path class="cls-33" d="M749.77,847.41c-.43-.76.05-1.88.39-.61h0C750.37,847.14,750.19,848,749.77,847.41Z"/>
          <path class="cls-33" d="M805.7,633c-1-.59,1.46-1.13,1.92-1.42h0c.15-.06.3-.13.45-.18h0c.74-.64,2.54-.45.8.18h0c-.21.08-.42.2-.64.28h0l-.42.17h0l-.23.09h0c-.45.21-.84.54-1.34.73h0C806.08,632.87,805.91,633.13,805.7,633Z"/>
          <path class="cls-33" d="M805.37,633a.26.26,0,0,1,0-.46h0l0,0h0a7.86,7.86,0,0,1,1.56-.71l0,0c.25-.11.49-.21.74-.3h0l.62-.25h0l.21-.08h0l.14-.05h0c1.11-.65,1.54.15.22.45h0l-.06,0h0l-.13.05h0l-.35.13h0l-1.39.56h0a6,6,0,0,1-.59.23h0l-.4.2,0,0-.24.15h0A.25.25,0,0,1,805.37,633Z"/>
        </g>
        <g class="cls-54">
          <path class="cls-55" d="M852.89,712c-10.31-28.48-4.44-24.65-34.55-30.63,1.38-2.64,4.39-8.51,7.22-9.43h0l.05,0h0c8.41,2.31,18.76,2.65,26.23,6,2.87,8.47,6,16.92,8.74,25.4-.86,2.77-5.32,5.76-7.36,8.58A.27.27,0,0,1,852.89,712Z"/>
          <path class="cls-55" d="M824.84,672.4c-.54,0-.42-.66.1-.56h0a.92.92,0,0,1,.29,0h0c.84.1.43.64-.2.56h0A.26.26,0,0,1,824.84,672.4Z"/>
        </g>
        <g class="cls-56">
          <path class="cls-57" d="M839.13,747.58h0l-.11,0h0l-.11,0h0l-.3,0h0c-8.21-1.75-17.06-2.84-25-5-2.05-2.73-2.85-8.49-4.27-11.65,28.13,6.15,24.24,9.42,42.15-14.22,10.59,11-5.8,21.26-12.14,30.72h0v0h0C839.34,747.45,839.28,747.65,839.13,747.58Z"/>
          <path class="cls-57" d="M814,742.79h0a1.25,1.25,0,0,1-.19,0h0a.52.52,0,0,1-.29-.09h0a.32.32,0,0,1-.17-.26h0c-.08-.43.36-.38.54-.16h.2A.26.26,0,1,1,814,742.79Z"/>
          <path class="cls-57" d="M810.4,731.84l-.06,0h0s0,0-.05,0l0,0,0,0h0c-.42.16-.53-.66-.06-.56h.14c.06,0,.1.08.17.09h0l0,0h0l.13.07h0A.25.25,0,0,1,810.4,731.84Z"/>
          <path class="cls-57" d="M809.83,731.92c-.25-.27-.48-1.44.17-.9C810.48,731.18,810.44,732.2,809.83,731.92Z"/>
          <path class="cls-57" d="M852,717c-.45.08-.36-.47-.06-.62h0a.25.25,0,0,1,.38.24h0v0h0a.15.15,0,0,1,0,.07v0h0v0h0C852.31,716.9,852.12,717.08,852,717Z"/>
          <path class="cls-57" d="M852,718.4c-.39-.09-.15-.58-.18-.86v0c0-.17,0-.33,0-.5v0l0,0v0h0c-.13.51-.8.19-.45-.22h0v0h0l0-.05h0l0,0,0,0,0,0,0-.06,0,0h0l0,0h0l.09-.1h0a.58.58,0,0,1,.19-.19h0l0,0,0,0,0,0h0a.36.36,0,0,1,.14-.1h0l.05,0h0l.05,0h0a.31.31,0,0,1,.37.36h0a.33.33,0,0,0,0,.1h0a3.75,3.75,0,0,1,0,.82v0C852.29,717.8,852.45,718.39,852,718.4Z"/>
        </g>
        <g class="cls-58">
          <path class="cls-12" d="M986.45,720.19c0,.27-.15.64.15.43C986.6,720.45,986.55,719.78,986.45,720.19Zm.58,1.34c0,.21-.36.76-.13.7C987,722.1,987.17,721.57,987,721.53ZM869.86,759.78c-8.9.26-16.28-3.33-14.51-11.95-3.09-72.09-15.6-153.67,18.75-222.87,14.5-34.2,26.78-60.33,68.48-61.86,28-3.66,59.26-1.52,82.84,15.36,5.18,5,16.93,5.35,16.61,13.63,7,10.61-3.38,35-5.92,47.39-8.85,30.37-20.29,59.7-31.7,89.16C966,781.76,1036.85,743.83,869.86,759.78Z"/>
        </g>
        <g class="cls-59">
          <path class="cls-24" d="M1379.46,214.37c-7.22-.92-14.6-.16-21.74-.26.8-21.85-1.51-46.47-.49-67.16h0c14.71-5.16,31-3.35,46.46-5.82a87.85,87.85,0,0,0,12.76-1.05c2.41-.73.65,3.7.83,5-2.07,7.72,1.3,72.91-7.46,68.62h0C1399.69,213.75,1389.57,213.73,1379.46,214.37Z"/>
        </g>
        <g class="cls-60">
          <path class="cls-61" d="M1384,182.34a66.57,66.57,0,0,0,7.19.46h0l1.2.07h0c12.35.22,26.2-2.33,34.67-12.09h0c8.12-10.2,13-22.45,17-34.73h0c.8-2.59,1.42-5.24,2-7.89v0c.16-.63.91-5.14,0-3.09,0-1.43.3-2.85.37-4.28h0v-.06h0v-.07h0s0,0,0,0h0a77.81,77.81,0,0,1,1.51-12.25v.06c1.13-4.7,1.82-9.51,3.27-14.12h0A27.17,27.17,0,0,1,1452.5,91h0a26.22,26.22,0,0,1,1.65-3h0s0,0,0,0a1.63,1.63,0,0,1,.11-.17h0c.91-1.29,1.9-2.54,2.93-3.74h0a27.78,27.78,0,0,1,2.14-2.2h0a64.81,64.81,0,0,0,13.36-12.36v0a14.44,14.44,0,0,1,1.4-1.42l0,0,.18-.17,0,0c4.78-4.47,10.24-9-.55-8.15h0l-1.51-.08h0a21.67,21.67,0,0,0-8.65.93h0a14.21,14.21,0,0,1-2.25.34h0a17.63,17.63,0,0,1-2.41,0h0a7.25,7.25,0,0,1-2.22-.4c9-10.47,11.47-24.19,11.7-37.62,0,0,0,0,0,0a38.87,38.87,0,0,0,0-4.45v0c1.41-4.37-24.63,5.2-26.39,6.94l0,0a17.72,17.72,0,0,1-3.78,1.14h0c-4,.73-8.1,1.43-12.2,1.84h0c-2.11.08-4.23.22-6.34.18h0c-3.38-.69-6.71-.4-10.12-.36h0a9.92,9.92,0,0,1-3.06-.51l0,0a3.2,3.2,0,0,1-.73-.33h0s-.08-.06-.11-.1h0a2,2,0,0,1-.4-.54s0,0,0,0a13.53,13.53,0,0,1-1-3.11v0a8.33,8.33,0,0,1-.16-1v0c1.94-28.62-18.87-31.26-10.65.27v0c.2.95.4,1.9.51,2.87h0a7.75,7.75,0,0,1,0,1.08v0a3.4,3.4,0,0,1-.08.53v0a4.34,4.34,0,0,1-.16.47v0c0,.1-.11.2-.17.3a.05.05,0,0,1,0,0,1,1,0,0,1-.37.39h0a1.35,1.35,0,0,1-.34.11h0a4.18,4.18,0,0,1-1,.07h0a23.09,23.09,0,0,1-6-1.22l0,0a5.3,5.3,0,0,1-.57-.33h0a3,3,0,0,1-.83-1.13l0,0c-7.14-14.8-19.34-18.08-11.4,2.42a.11.11,0,0,0,0-.05,3,3,0,0,1,0,.52v0a1.89,1.89,0,0,1-.16.62l0,0a1.35,1.35,0,0,1-.15.26l0,0a1,1,0,0,1-.29.29l0,0a1,1,0,0,1-.21.09l0,0c-10-.59-21.62-1.7-29.23,6.37h0c-7.32,5.23-13.47,12-16.12,20.78l0,0-.12.36,0-.05c-6.32,19.89-6.09,41.22-1,61.35a0,0,0,0,0,0,0c1.34,7,3.09,14.14,6.28,20.59l0,0c.07.13.13.26.2.38s0,0,0,0c.39.78.77,1.56,1.17,2.33h0l.15.29h0c0,.06.07.12.09.18l.15.3,0,0c.11.21.21.42.32.64a.05.05,0,0,0,0,0l.26.49h0c.06.13.13.26.2.39l0,0,.62,1.2s0,0,0,0l.23.45h0c4.8,9.83,10,20.72,20.13,26h0a21.46,21.46,0,0,1,2.69,1.86h0c1.31.71,2.53,1.54,3.84,2.22h0c.72.39,1.49.67,2.23,1h0c4.39,2.79,9.71,3.39,14.7,4.52h0C1380.94,181.8,1382.46,182.13,1384,182.34Z"/>
        </g>
        <g class="cls-62">
          <g class="cls-63">
            <path class="cls-64" d="M439.84,298.92c-5.2-5.63-5-13.38-6.37-20.46h0c0-.66-.83-1.6-.36-2.09,2.34,4.2,1.52,10.23,3.13,15h0v0h0a17.28,17.28,0,0,0,.71,2.1l0,0a11.26,11.26,0,0,0,.58,1.15h0C437.7,295.42,441.38,299.17,439.84,298.92Z"/>
            <path class="cls-64" d="M389.05,303.12c0-.32.55-.31.54,0S389,303.45,389.05,303.12Z"/>
            <path class="cls-64" d="M182.93,424.83c-62.47-3.74-60.67-50.45-24.76-88.9-45.28,13.27-52.28-43.88-36.63-74.66,7.6-22.91,32.61-29.68,46.24-47.62a32.42,32.42,0,0,0,4.4-7.43l0,.06a20.87,20.87,0,0,0,1-3.25v.07c1.44-7.47,2.72-15,3.59-22.57a.15.15,0,0,1,0,.07c1-39.89,2.62-84.72,46.1-101.35,43-14,99.16,6.47,107.34,54.39,14.74-12.14,35.51-14.61,54-13.43h0c8.24-.27,14.81,4.15,21.17,8.77h0c2.08,1.29,4.2,2.47,6.29,3.74h0l.21.13,0,0,.38.23h0c8.82,6,17.53,12.46,24.3,20.75l0,0c2.34,1.95,4,4.74,5.95,6.83l-.06,0a14.12,14.12,0,0,1,1.78,1l-.06,0c4.65,2.67,6.19,8.39,7,13.34l0-.07c7.3,21.47,4.38,46.11-3.26,67.15-8.82,18.81-32.2,14.15-49.06,12.86h0c-2.18-.12-4.37-.21-6.55-.35h-.1l-.74-.05h0l-1,0h0l-.6,0h0c-29.91-1.85-63.94-7.59-79.27-36.69l0,.05c-17.4-24-9.49-56.55,11.2-75.87l0,0c2.43-3.86,10.82-7.05,4.25-10.8l.05,0a19.78,19.78,0,0,0-1.81-1.35l0,0a18,18,0,0,0-3.89-1.92h0a15.41,15.41,0,0,0-1.68-.47l-.07,0h0a8.81,8.81,0,0,0-1-.15h.07a22.53,22.53,0,0,0-2.6,0h0c-.56,0-1.11.08-1.66.17h.07a17.13,17.13,0,0,0-6.29,2.41l.06,0c-1.09.66-2.13,1.38-3.15,2.14l.05,0a26.11,26.11,0,0,0-3.67,3.46l0,0a19.05,19.05,0,0,0-1.73,2.55l0-.06a63.93,63.93,0,0,0-3.69,7.64h0a.17.17,0,0,1,0,.05,0,0,0,0,1,0,0,127.94,127.94,0,0,0-5.43,16l0-.07A509.89,509.89,0,0,0,280.84,220a.15.15,0,0,1,0-.07C282.38,295.4,275.55,409.44,182.93,424.83Z"/>
          </g>
          <g class="cls-65">
            <path class="cls-10" d="M327.08,148.26c-4.21-.85-3.18-6.74-1.46-9.44-8.85,7.05-9.1-.94-2.14-4.54h0a8.75,8.75,0,0,1,5.61-.69h0c.16-.25.18-.69.51-.72,1.13-12.33,19.84-8.16,5.31.14,11.2-1,4.43,19-3,10.71a14.06,14.06,0,0,1-.62,1.76h0C330.57,147.06,329,148.55,327.08,148.26Z"/>
          </g>
        </g>
        <g class="cls-66">
          <path class="cls-67" d="M807.93,727.47h0l-.28-.67.21.66h0Zm27.78,6.21h-.06l-.13,0h0l-.21,0h0l-.13,0h0l-.27-.05h0l-.37-.07h0l-.11,0h-.09l-.13,0h0a.7.7,0,0,0-.14,0H834c-.14,0-.28-.06-.43-.09h0l-.09,0h0l-.07,0h0l-.2,0h0l-.11,0h0l-.14,0h0l-.33-.06h0l-.13,0h0l-.13,0h0l-.14,0h0l-.09,0h0l-.11,0h-.08l-.17,0h0l-.13,0h0l-.17,0h0l-.21,0h0l-.18,0h-.06l-.27-.06h0l-.12,0h0l-.38-.08h0l-.1,0h0l-.18,0h0l-.11,0h0l-.13,0h0l-.1,0h0l-.13,0h-.06l-.44-.09h0l-.77-.15h0l-.18,0h0l-.13,0h0l-.2,0h0l-.11,0h0l-.17,0h0a.61.61,0,0,0-.13,0h0l-.19,0h0l-.32-.07h0l-.11,0h0l-.17,0h0l-.14,0h0l-.23,0h0l-.38-.08h0l-.11,0h0l-.09,0h0l-.11,0h0l-.28,0h0l-.11,0h0l-.18,0h0a.85.85,0,0,1-.22,0h0l-.36-.07h0l-.13,0h0l-.34-.08h0l-.14,0h0a2.1,2.1,0,0,0-.24-.06h-.07l-.24,0h0l-.91-.19h0l-.47-.1h0l-.22,0h0l-.17,0h0l-.11,0h0l-.11,0h0l-.36-.07h0l-.63-.13h0l-.5-.1h0l-.12,0h0l-.12,0h0l-.14,0h0l-.09,0h0l-.42-.09h0l-.18,0h0l-.28-.06h0l-.2,0h0l-.16,0h0l-.12,0h0l-.22,0h0l-.16,0h0l-.18,0h0l-.13,0h0l-.54-.11h0l-.16,0h0l-.33-.06h0l-.17,0h0l-.22,0h0l-.22-.05h0l-.37-.07h0l-.1,0h0l-.36-.07h0l-.33-.07h0l-.32-.06h0l-.9-.18h0l-.23,0h0l-.28,0h0l-.34-.07h0l-.17,0h0l-.23,0h0l-.1,0h0l-.1,0h0l-.12,0h0l-.1,0h0l-.2,0h0L813,729h0l-.27,0h0l-.27-.06h0l-.16,0h0l-.36-.08h-.06l-.22,0h0l-.2,0h0l-.1,0h-.06l-.19,0H811l-.17,0h-.06l-.11,0h0l-.09,0-.1,0h0l-.16,0h0l-.14,0h0l-.09,0H810l-.48-.1h0l-.11,0h0l-.17,0h0l-.22,0h0l-.07,0h0l-.05,0h-.13l-.2,0h0l-.09,0h-.11a.7.7,0,0,0-.14,0h0l-.19,0h0l-.11,0h0c-.11,0-.28,0-.32-.12v0c-2.65-8.2-5.83-16.61-8-24.82h0s0,0,0,0h0a10.12,10.12,0,0,1,.65-.92h0l0,0h0c0-.06.11-.12.15-.18h0l0,0s0-.06.07-.09h0v0l0,0,0,0,.52-.59,0,0c.19-.23.38-.44.58-.66l0,0,.08-.09,0,0,7.38-8.43,0,0,.54-.62h0l.57-.65h0c.12-.15.25-.29.38-.44h0l.27-.31,0,0,.08-.08,0,0q1.79-2.05,3.6-4.11h0l.2-.23,0,0c.1-.11.2-.21.29-.33h0l0,0,0,0,.28-.32h0l1.21-1.38h0l.07-.08h0l.05,0,0,0a.87.87,0,0,0,.13-.15l.13-.15h0s0,0,0,0h0l.06-.08h0l.09-.12v0l0,0h0a.32.32,0,0,1,.43-.11h0c.18.07.37.07.55.13h0l.11,0h.27l.25,0h0s0,0,0,0h.05l.13,0h0l.39.09h0l.08,0h0l.12,0h0l.13,0h0l.13,0h0l.13,0h0l.1,0h0l.09,0h0l.12,0h0l.1,0h0l.31.06h0l.16,0h0l.07,0h0l.17,0h0l.19,0h0l.12,0h0l.21,0h0l.18,0h0l.12,0h0l.15,0h0l.12,0h0l.19,0h0l.13,0h0l.29.06h0l.16,0h0l.24,0h0l.19,0h0l.11,0h0l.18,0h0l.25,0h0l.27.06h0l.18,0h0l.35.07h0l.43.09h0l.15,0,.12,0h0l.15,0h.11l.2,0h0l.23.05h0l.08,0h0l.16,0h0l.12,0h0l.51.11h0l.37.08h0l.16,0h0l.12,0h0l.12,0h0l.23.05h0l.13,0h0l.14,0h0l.14,0h0l.11,0h0l.16,0h0l.16,0h0l.06,0h.1l.58.12h0s0,0,0,0l.2,0h0l.13,0h0l.08,0h0l.12,0h0l.06,0h.07l.15,0h0l.11,0h0l.15,0h0l.1,0h0l.52.11h0l.29.06h0l.17,0h0l.12,0h0l.12,0h.06l.15,0h0l.15,0h0l.34.07h0l1,.19h0l.13,0h0l.1,0h0l.2,0h0l.22,0h0l.12,0h0l.13,0h0l.08,0h0l.27,0h0l.35.08h0l.37.08h0l.13,0h0l.19,0h0l.15,0h0l.19,0h0l.12,0h0l.15,0h0l.11,0h0l.26.06h0l.2,0h0l.12,0h.22l.06,0h0l.16,0h0l.23,0h0l.17,0h0l.19,0h0l.11,0H837l.21,0h0l.13,0h0l.21,0h0l.06,0h0l.28.05h0l.24,0h0l.12,0h0l.06,0h0l.22,0h0l.14,0h0l.15,0h0l.18,0h.15l.09,0h0l.15,0h0l.08,0h0l.24.06h0l.13,0h0l.1,0h0l.15,0h0l.2,0h0l.21,0h0l.33.07h0l.1,0h0l.18,0h0l.12,0h0l.11,0H841l.15,0h0l.15,0h0l.15,0h0l.09,0h0l.18,0h.09a.5.5,0,0,0,.13,0h0l.23,0h0l.16,0h0l.07,0h0l.18,0h0l.21,0h0l.1,0h0c.19.47.36,1,.54,1.45h0c2.64,8,5.25,16,7.9,24-4,6.67-10.3,13-15.08,19.58h0l0,0h0a3,3,0,0,0-.23.27l0,0-.09.13h0Z"/>
          <path class="cls-67" d="M807.87,727.67a1.79,1.79,0,0,1-.38-.85C807.56,725.58,808.86,728,807.87,727.67Z"/>
        </g>
        <g class="cls-68">
          <path class="cls-69" d="M823.88,728.68a5.77,5.77,0,0,1-.58-.08h0c-3.87-.64-7.88-1.32-11.73-2h0c-.29-.17-.35-.56-.41-.84h0c-2.38-6.69-4.94-13.43-7.22-20.14v0q-.06-.35-.15-.69c21,4.32,22.15,5.63,35.88-11.79h0l0,0c2-1.8,6.86,18.13,8.66,21,0,0,0,0,0,.08h0a.14.14,0,0,1,0,.09h0c-2.84,2.82-5.78,6.89-8.82,9.33-2.1-4.82-3.78-10.5-5.71-15.5l-.1.14h0c-2,1.71-3.55,6.33-6.23,6.28h0c-2.79-.44-5.61-1-8.4-1.44,1.63,5,3.28,10.13,4.78,15.14h0c0,.17,0,.32.06.49Z"/>
        </g>
        <g class="cls-70">
          <path class="cls-71" d="M806.55,728.62c-16.81.27-15.51-17-20.75-29.12a0,0,0,0,0,0,0l0,0h0v0h0a0,0,0,0,0,0,0h0s0,0,0,0v0a0,0,0,0,0,0,0c4-6.06,10.18-11.7,14.88-17.61.78-.88,1.55-1.78,2.34-2.65l0,0,0,0,0,0,.1-.11c3.55,1.34,8.35,1.79,11.28,3.61-4.9,6.59-11.28,12.86-16.67,19.34a.75.75,0,0,1,.07.12h0q3.72,10.7,7.46,21.41h0a.11.11,0,0,1,0,.06h0C805.45,725.11,807.25,727.49,806.55,728.62Z"/>
          <path class="cls-71" d="M794.7,725.83h0l-.12,0h0l-.1-.06h0l0,0h0c-.13-.12-.07-.3-.1-.45h0c-.29-.53.43-.92.46-.23a0,0,0,0,0,0,0v0C795.16,725.13,795.14,726,794.7,725.83Z"/>
          <path class="cls-71" d="M794.62,725.83l-.07,0h0c-.58-.31.06-1.39.28-.51C795.19,725.37,794.94,725.94,794.62,725.83Z"/>
          <path class="cls-71" d="M806.4,728.5a.7.7,0,0,1-.11-.23v0l0-.11h0a.08.08,0,0,0,0,0v0a1.77,1.77,0,0,0-.08-.31,0,0,0,0,0,0,0c-.23-.66.58-.42.57.11v0a1.21,1.21,0,0,1,0,.18v0C807,728.41,806.65,728.79,806.4,728.5Z"/>
        </g>
        <g class="cls-72">
          <path class="cls-31" d="M738.75,247.29c-12.13-3.38-25.43-1.77-38-3.36v0c-5.32-.9-12.21-1-16.77-2.21,3.82-21.06-.75-45.79,3.09-65.07h0a4,4,0,0,1,.49-.17h0c16.6-.51,33.09-7.54,49.87-3,3,1.33,10.51-1.41,8.41,3.95-2.31,16.43-2.59,33.33-2.55,49.94C742.63,234.29,748.72,247.05,738.75,247.29Z"/>
        </g>
        <g class="cls-73">
          <path class="cls-74" d="M698.27,210.3c-8-.69-6.24-10.76-13.72-12.64-3.55,1.08-7-.54-10.19-2-8.21-2.85-9.54-8.72-8.07-15.85-6.18.45-9.07-6.18-12.34-10.27-4.89-5.27-4.74-8.46.95-13-.27-.72-.5-1.51-.7-2.26-12.06-1.29-12.7-16.35-5.13-23.45-.1-.77-.19-1.5-.27-2.23-7.5-1.32-7.48-10.52-8.09-16.52-1.41-6.35,2.65-9.81,6-13.53-11.83-4.67,0-25.11,11.24-23.83,19-20.63,23.68-8.25,38.25-25.12h0c3.88-3.58,9.41-3.71,10.92,2.07,4-1.17,7.62.14,11.41.92,5.5-2.87,12-5.93,18.29-4.94,3.53,1.33,4.92,5.52,5.16,9,13.54,8.6,16.43,2.26,22.53,8.41a17.76,17.76,0,0,1,2.8,14.59,41.36,41.36,0,0,1,5.88,12.56c8.3,7,15.12,21.94,3.66,29.26-.48,12.39,4.32,39.16-14.42,38.87-4.22,8.77,3.69,18.24-11.31,24.69-4.73,2.27-9.25-3.26-12.64,1.84,1.87,17-15.39,16.33-26.66,16.37C710.54,208.28,702.8,209.72,698.27,210.3Z"/>
        </g>
        <g class="cls-75">
          <path class="cls-76" d="M462,542.72c-53.68-6.57-76.56-65.17-71.25-113.41-37.22,5.24-32.41-42.14-25.43-66-11.81,5-26.15-8.63-33.43-17-10.95-16.69-3.46-39.21,3.95-55.95,8-12.66,21.79-20.2,34.36-27.67,2.86-.88,16.54-10.54,17-7.57,8.15-3.51,16-7.87,24.61-10.24a12.38,12.38,0,0,0-1.36.2h0c-14.62,5.24-10.21,2.78-.12-2.89-1.49-17.79-3.13-36.15-.75-53.89v0c.62-3,1.3-6,1.91-9v0l.21-1h0c.2-1,.39-2,.61-3.06a0,0,0,0,0,0,0c6.19-28.48,20.23-58,46.43-73,23.45-11,60.64-13.85,73.19,13.94,20.66,41.41-5.6,92.2,23.17,131l0,0c1.24,2.71,3.56,4.62,5.09,7.14h0c.71.91,1.27,2,2.06,2.78h0a6.87,6.87,0,0,1,1.88,2.75h0c8.25,17.79,16.81,35.6,23,54.25h0c19.38,40.32,4.13,112.27-49.45,111.86,9.15,11.77,8,27.82,8.37,41.95C550.52,516.89,505.6,542.15,462,542.72Z"/>
        </g>
        <g class="cls-77">
          <path class="cls-31" d="M342.3,271.26c-.74,0-1.47-.25-2.2-.35h0l-.11,0h0c-1.14-.12-2.28-.18-3.41-.37h0a27.84,27.84,0,0,1-4.91-1.33h0l-.11,0h.06c-3-.62-5.79-2-9-2.17h0c-5.31-.55-10.64-1.25-15.49-3.63h0C301,261,291.75,251.45,305,253.52c-6.8-3.41-7.82-11.74,1.8-8.89-4-2.88-4.4-11.87,2.37-9.46-3.27-3.1-1.82-9.77,3.15-9.64h-.14c9.75,2.79,17.84,10.35,26.76,15.16,0,0,0,0,0,0,5.35,4.2,16.86,5,12.88,14h0a.28.28,0,0,0,0,.09v0C350.48,260.73,350.16,270.52,342.3,271.26Z"/>
        </g>
        <g class="cls-78">
          <path class="cls-79" d="M473.51,155.93a.5.5,0,0,1,1,0A.5.5,0,0,1,473.51,155.93Z"/>
          <path class="cls-79" d="M801.7,552.35c-1,0-2.06.07-3.06.09,7.46.32,15,.77,22.34,1.78A170.91,170.91,0,0,0,801.7,552.35Zm19.28,2.5c-73.67-5.06-148.25,3.85-221.42-9.81-.64-3.87.06-10,0-14.59h0l0-.12h0c1.08-68.64-4.12-136.92-2.38-205.71-65.94,2.24-136.87,15.44-200-8.35-24.39-15.62-50.23-29-73.33-46.62,4-10.27,8-20.56,12.06-30.81a338.67,338.67,0,0,0,44.94,4.5l-.34,0,.72,0h-.34l.72,0h.1l4.36.14-.33,0,1.13,0H387l5.14.16h-.19c28.25,1.13,56.68-1,84.81,1.91,21,3,41.84,7.44,63.13,5.35,25.15-2.31,46.12-21.28,71.87-22,62.81-8.69,127.32-7.62,190.81-7.69,46.39,13.61,98.69,38.57,143.56,62.81a56.68,56.68,0,0,1,18.1,19.63c12.3-.11,25.11.24,36.86,4h0a2,2,0,0,0,.19.12l0,0c1.73.75,3.52,1.36,5.28,2h0c7.42,1.78,24.3,7.41,14.08,16.67a34.82,34.82,0,0,1-5.93,4.43h0c-19.33,12.13-39.95,23-62.78,26.52h0c-7.24,1.58-14.46,3.56-21.92,3.73h0c-2.23.17-4.46.38-6.69.5h0c-6.87.72-13.76.7-20.64.9h0c-2.17.22-4.33.31-6.54.47h0l-1.33.09h0c-13.6.81-27.28-1.4-40.62-3.88h0c-3.08-.59-6.18-1-9.24-1.72h0c-6.28-1.28-12.64-2.2-19-3.18-.06,42.68-1,85.31,2.06,127.92,1.66,19.38-.78,38.9-3.28,58.12C823.68,543.54,824.91,555.51,821,554.85Z"/>
          <path class="cls-79" d="M600.68,327.52c-6.87-1.61-13.17-5.13-20-6.88h0l-.07,0h0l-.25-.07h0l-.25-.08h0c-6.12-1.24-5.36-2.11.18-.46h0l.29.09h0l.25.07h0c6.51,1.76,12.58,4.75,19,6.71h0a3.89,3.89,0,0,0,.49.12h0C600.66,326.89,601.34,327.32,600.68,327.52Z"/>
          <path class="cls-79" d="M601.28,327.44c-4.36-1.6-8.8-2.92-13.23-4.26h0c-5.69-1.91,2.33-.06,4,.5-3-1.49,1.66-.38,2.52.06.06-.35.48-.32.75-.26.71-1.21,9.83,4.25,3.55,1.6,0,0,0,0,0,0,.32.19,1.12.18,1,.7.64.22,1.28.48,1.9.75h0a.25.25,0,0,1,0,.48C601.88,327.31,601.53,327.56,601.28,327.44Z"/>
          <path class="cls-79" d="M804.07,553c-.81-.24-7.77-.13-5.77-1.23.14-.2.48-.24.7-.29h0c1.16,0,8.34.14,5.34,1.33A.26.26,0,0,1,804.07,553Z"/>
          <path class="cls-79" d="M820.47,554.46c-.26-.19-.78,0-.89-.34-5-.59-12.23-.22-16.16-1.93l0,0c5.4-.16,10.54,1.29,15.85,1.41h0c.35,0,.71,0,1.06,0h0C821.24,553.71,822.06,554.76,820.47,554.46Z"/>
        </g>
        <g class="cls-80">
          <path class="cls-81" d="M798.69,448l-1.05-.32a4.08,4.08,0,0,0,.54.22h0l.29.08h0ZM833,458.27c-3.12-.17-6.15-1.25-9.13-2.12h0a5.47,5.47,0,0,0-.58-.15h0c-3.23-.12-5.9-2.09-8.92-3h0c-2.72-.9-5.57-1.38-8.21-2.49h0a28.31,28.31,0,0,1-4.91-1.56h0c-1.56-.33-3.22-.28-4.6-1.16l0,0a16.27,16.27,0,0,1-8.34-7.66h0a7.4,7.4,0,0,1-.38-1.8h0c-1.11-16.76,6.48-33.61,25.33-33.2h0c.29-.09.8-.44.73.15,24.13-13.83,41,7.77,6.08,8.89h0c2.86,0,5.29,1.64,7.93,2.51l0,0c10.76,1.44,24.94,12.53,5,12.81,5,.78,9.93,4.61,9.45,10.13v0c.26,3.15-1.14,4.17-4.12,3.15h0l-.73-.15h0c-4.63-.66-9.19-1.71-13.75-2.71h0c-3.11-.59-6.25-1.09-9.4-1.4h0a6.61,6.61,0,0,0-1.54,0v0a.56.56,0,0,0,0,.13h0s0,0,0,.05h0v0h0s.05.07.07.1h0l.1.08,0,0,.48.27h0a16.67,16.67,0,0,0,1.7.67h0a42.18,42.18,0,0,0,4.67,1.22h0c5.39.91,11.42,1,15.27,5.45C838.91,450.22,840.36,458.62,833,458.27Z"/>
        </g>
        <g class="cls-82">
          <path class="cls-45" d="M865.81,421.3a.25.25,0,0,1,.5,0A.25.25,0,0,1,865.81,421.3Z"/>
          <path class="cls-46" d="M596,336.5l.14.34a2.72,2.72,0,0,1,0-.39s-.09,0-.14,0ZM802.32,493.18c-67.82-11-134.19-33.2-194.38-66.52-3.74-2-7.76-3.8-11-6.53-3.92-2-6.65-14-7.75-20.24h0c-.72-2.3.14-4,.42-.51h0c1.51,6.48,2.1,13.68,6.42,19-3.16-18.78-1.31-37.51.25-56.3-1,.72.06-2.51.05-3.05a26.71,26.71,0,0,1,0-4.56c-.88-6.05,1.27-12.2-.83-17.75a.46.46,0,0,1-.62-.41c-.17.16-.44-.1-.54-.21-.05.92,1.56,2.32.9,2.89-2.25-2.69-1.8-6.85-3-10-6.65-10.93,15.91,3,19.26,4.56,66.93,25.7,123.84,84,200.67,66.62h0c4.89-.66,10.27-2.71,15.05-2.3,4.51,16.2,2,33.51-3.94,49C820.63,455.87,811,491.81,802.32,493.18Z"/>
        </g>
        <g class="cls-83">
          <path class="cls-61" d="M977.71,255.92a264.25,264.25,0,0,1-38.71-5h.06C927,249.53,920.12,236.94,918.24,226v0a17.56,17.56,0,0,1-.58-8.24.22.22,0,0,0,0,.08,43.43,43.43,0,0,0-.47-7.28h0c-.33-10.16,1.69-20.25,2.35-30.38h0c.42-20.82,7.61-42.09,20.83-58.29h0c3.25-3.5,6.33-7.24,10-10.3h0a62.74,62.74,0,0,1,9.44-8.09h0a71.1,71.1,0,0,1,10.48-5.84l0,0c21.65-13.5,54.94-5.67,72.92,10.94,0,0,0,0,0,0,18,22.31,19.07,51.32,16.72,78.68h0a.49.49,0,0,0,0,.12v0a47.4,47.4,0,0,0,.09,5.84s0-.08,0-.12c2.08,9,.31,17.95-.19,27h0c0,.11,0,.22,0,.33v0l-.06.89a.34.34,0,0,1,0-.1c-1.3,5.94-.28,24.69-7.33,25.1h0c-19.38,4-38.95,7.57-58.7,9.08h.07C988.39,255.68,983.06,256.05,977.71,255.92Z"/>
        </g>
        <g class="cls-84">
          <path class="cls-85" d="M1212.86,1244.49c-7.13-.66-13.72-5.53-15.36-12.73l0,.06c0-.18-.11-.36-.16-.54,0,0,0,0,0,.06-2.13-8.22-2-16.86-2.39-25.29v0c0-.47,0-.95,0-1.42v-.06h0c0-.1,0-.2,0-.3v0c0-.07,0-.13,0-.2h0c0-.1,0-.2,0-.3h0c0-.12,0-.24,0-.35h0v-.13h0c0-.39,0-.79,0-1.18h0c-.07-1.84-.17-3.68-.24-5.52h0c-.13-3-.27-6.07-.37-9.1v0c0-.38,0-.75,0-1.12v0c-.08-2-.14-4.07-.24-6.11-1.78.66-.53-5.13-.76-6.35,0,0,0,0,0,0a.57.57,0,0,0,0-.13h0l0-.48h0v-.07h0c.28-2.94.69-6.81,3.66-8.21l-.05,0c2.07-1.52,4-3.37,6.16-4.79l-.06,0,.28-.18,0,0c3.91-2.2,8-4,12-5.85h0l.53-.21-.07,0c12.64-3.84,22.42-3.43,25.26,11.51h0a2.38,2.38,0,0,1,0,.26h0a0,0,0,0,1,0,0h0c1.2,11.7,3.91,23.21,5.07,34.9v0h0s0,.07,0,.11v-.06c0,.46,0,.9,0,1.36v0c-1.39,12.33,1.53,29.94-11.55,36.45a24.72,24.72,0,0,1-8.33,3.24h0l-.07,0h0l-.23,0h0c-1.48.28-3,.38-4.47.64h0c-2.17.39-4.27,1.15-6.46,1.49h.07A12.74,12.74,0,0,1,1212.86,1244.49Z"/>
        </g>
        <g class="cls-86">
          <path class="cls-85" d="M1005.51,1259.26c-7.13-.66-13.71-5.53-15.35-12.72l0,.06c-.06-.18-.11-.37-.17-.55a.14.14,0,0,1,0,.06c-2.12-8.21-2-16.86-2.38-25.29v0c0-.48,0-.95,0-1.43v0s0-.07,0-.11h0c0-.1,0-.2,0-.31v0a1.21,1.21,0,0,1,0-.19h0a2.71,2.71,0,0,1,0-.29h0c0-.12,0-.24,0-.36v-.11h0c0-.4,0-.79-.05-1.18h0c-.06-1.84-.17-3.67-.24-5.52h0c-.12-3-.27-6.06-.37-9.09v0c0-.37,0-.74,0-1.11v0c-.09-2-.14-4.07-.24-6.11-1.79.66-.53-5.12-.77-6.34v0c0-.05,0-.09,0-.14v0c0-.16,0-.32,0-.48h0v-.06h0c.28-2.94.68-6.81,3.65-8.21l0,0c2.08-1.52,4-3.38,6.17-4.79l-.06,0,.28-.19-.06,0c3.92-2.19,8-4,12-5.84h0l.53-.22-.08,0c12.64-3.84,22.42-3.43,25.27,11.51h0c0,.08,0,.17.05.26h0s0,0,0,0h0c1.21,11.71,3.92,23.21,5.08,34.91v0h0v0c0,.46,0,.91,0,1.37v0c-1.39,12.33,1.53,29.94-11.56,36.45a25.17,25.17,0,0,1-8.32,3.24h0l-.24,0h0c-1.48.29-3,.39-4.48.64h0l-.07,0h0c-2.18.39-4.27,1.15-6.46,1.49h.06A12.61,12.61,0,0,1,1005.51,1259.26Z"/>
        </g>
        <g class="cls-87">
          <path class="cls-7" d="M1197.67,1275.75c-6.45-20.16-4-44.07-8.68-65.34a89.21,89.21,0,0,0,12.35.21h.15c3.57-.32,7.19-.4,10.77-.68h0c14.41-.62,28.48-3.67,42.45-5.63,21.82,2.35,120,16.08,91.41,52.31-14.48,6.6-31.38,4.06-46.85,7C1265.47,1268.24,1231.36,1270.91,1197.67,1275.75Z"/>
        </g>
        <g class="cls-88">
          <path class="cls-7" d="M988,1283.23c-5.89-20.42-3.65-44-7.89-65.34a75.09,75.09,0,0,0,11.23.2h.13c3.24-.32,6.54-.4,9.78-.68h0c13.12-.62,25.93-3.68,38.57-5.63,22.77,3.37,101.24,14,85.49,49.35-12.17,12.08-33.77,6-49.5,10.64C1046.63,1276,1017.12,1278.6,988,1283.23Z"/>
        </g>
        <g class="cls-89">
          <path class="cls-50" d="M1262.09,1221c-1.92-1.26.39-4.75.12-6.8v0a.59.59,0,0,1,0-.13.13.13,0,0,0,0,.06,54.12,54.12,0,0,0,.16-6.24.09.09,0,0,0,0,.05.91.91,0,0,1,0-.17v.13a1.53,1.53,0,0,1-.17-1.48v0c.85-2.09,2.6-.06,2.17,1.46v-.13C1264,1211.33,1265.16,1219,1262.09,1221Z"/>
          <path class="cls-50" d="M1272,1222.22c-1.71-.54-.38-2.68-.23-3.87l0,.14a34.53,34.53,0,0,0,.76-4v0a.59.59,0,0,0,0-.13s0,.06,0,.09a34,34,0,0,0,.12-3.91h0v0c-1.16-4,2.23-4.06,2-.15v0C1274.33,1213.4,1274.84,1221,1272,1222.22Z"/>
          <path class="cls-50" d="M1281.54,1220.55c-2.07-.82.21-3.46.25-5h0a19.1,19.1,0,0,0,.47-2.37v.14c.12-1.21.15-2.43.16-3.65v0h0C1285.25,1202.65,1284.73,1220.83,1281.54,1220.55Z"/>
          <path class="cls-50" d="M1291.85,1218.07c-1-.34-.61-1.42-.37-2.18l0,.13a15.11,15.11,0,0,0,.34-3.92v-.1c-.55-2.49,2.43-2.2,2,.14V1212C1293.55,1213.77,1294.3,1218,1291.85,1218.07Z"/>
          <path class="cls-50" d="M1300.35,1217.25c-2.25-.29-.5-6.43,1.38-4.1C1302.06,1214.49,1302.52,1217.46,1300.35,1217.25Z"/>
          <path class="cls-50" d="M1225.27,1222.36a10.39,10.39,0,0,0,2.4-.46l-.13,0a29.62,29.62,0,0,0,3.67-1.42l-.12,0,.08,0h0a126.62,126.62,0,0,0,16.92-11.18l-.1.08a12.32,12.32,0,0,0,3.2-3.28c-.63,0-1.24.16-1.86.25h0c-1.7.33-3.37.82-5,1.31l.12,0-1.43.43h0l-.15.05h0l-.06,0h0l-.26.07h0l-.41.13.13,0-.31.09.06,0-.24.08.08,0,0,0h0c-7.1,2.21-15.45,5.85-18.26,13.27l0-.08a.34.34,0,0,0,.19.43l-.06,0A2.74,2.74,0,0,0,1225.27,1222.36Zm20.18,10.73a4.08,4.08,0,0,0,1.94-.65l0,0a.41.41,0,0,1,.11-.07l0,0a9.71,9.71,0,0,0,1.77-1.49.76.76,0,0,1-.09.09c3.72-3.93,4.24-9.71,4.32-14.88h0a53,53,0,0,0-.43-5.76l0,.12c-.14-.84-.28-1.68-.48-2.51-3.88,7-12.64,16.12-8.67,24.46l0,0,.09.09-.07-.06.2.16-.1-.07A2.51,2.51,0,0,0,1245.45,1233.09Zm-.35,2c-9.75-3.47-1.23-16.73,2.13-22.53a131.46,131.46,0,0,1-15.3,9.85l.12-.06-1.46.65h0l0,0h0l-.07,0h0c-21.75,5.65,1.78-16.6,10.8-16.48l-.13,0,.18,0h0l.23-.07,0,0,.2-.06h0l.41-.13-.13,0,.31-.09-.06,0,.12,0h0l.1,0h0a65.53,65.53,0,0,1,6.57-1.74H1249c1.91-.71,8.26-.43,5.41,2.61C1256.25,1216.22,1256.86,1232.9,1245.1,1235.07Z"/>
          <path class="cls-50" d="M1254,1210.71c-1.5.32-1.24-6.56.28-6.1C1255.79,1204.35,1255.53,1211.08,1254,1210.71Z"/>
          <path class="cls-50" d="M1045.81,1233.64c-1.77-1.76,1.11-5.16,1.17-7.44v0l0-.11v0c0-.19.09-.39.15-.58h0a.24.24,0,0,0,0-.08v0s0,0,0-.08v0a37.07,37.07,0,0,0,1.12-10v.14c-.1-.88-.58-2.29.82-2.31,2.86,2.56.41,9.11,0,12.68v0a.5.5,0,0,1,0,.12v0l-.18.71v0C1047.88,1228.68,1048.25,1233.24,1045.81,1233.64Z"/>
          <path class="cls-50" d="M1055.24,1229.34c-1.38-.34-.56-1.93-.54-2.89v0s0-.09,0-.14v0c0-.3.07-.6.1-.89h0c0-.13,0-.25,0-.38h0c.36-3.2,1.15-6.35,1.07-9.58v.13c-.22-.68.16-1.57,1-1.5,2.72,2.33-.21,7.8-.05,11.12h0v.06h0c0,.13,0,.26,0,.4v0h0C1056.47,1226.87,1057,1229.4,1055.24,1229.34Z"/>
          <path class="cls-50" d="M1064,1226.08c-1.91-1.51.45-5.79-.2-8.22v0c-1-2.25,2.36-2.42,2-.12v0C1065.42,1220.13,1066.64,1225.13,1064,1226.08Z"/>
          <path class="cls-50" d="M1071.47,1223.81c-1.79-.8,0-3.43-.45-5,0,0,0,.05,0,.08a5.42,5.42,0,0,0-.06-.81l0,.13C1072.91,1213.4,1074.34,1223.89,1071.47,1223.81Z"/>
          <path class="cls-50" d="M1077.66,1221.92c-1.25-.09-.94-1.48-.83-2.35h0C1078.22,1216.24,1080.11,1221.7,1077.66,1221.92Z"/>
          <path class="cls-50" d="M1017.83,1233.73a3.64,3.64,0,0,0,1.15-.35l0,0c.35-.17.68-.35,1-.55h0l.11-.06,0,0c.54-.35,1.07-.72,1.58-1.11a.39.39,0,0,0-.1.08l1.61-1.28,0,0a62.3,62.3,0,0,0,10.9-10.38l-.08.11a21.94,21.94,0,0,0,3.22-5.77l0,.12a.76.76,0,0,0,.06-.16,85.93,85.93,0,0,0-9.45,6.76l.07-.06a46.81,46.81,0,0,0-4.91,4.53l.09-.09a35.5,35.5,0,0,0-3.2,3.74.86.86,0,0,0,.07-.1,14.27,14.27,0,0,0-2.17,4.47A.75.75,0,0,0,1017.83,1233.73Zm12.12,7.44a1.56,1.56,0,0,0,.42-.08l-.12,0a4.56,4.56,0,0,0,1.29-.8l0,0a25.68,25.68,0,0,0,6.06-9.7.61.61,0,0,0,0,.12c.1-.27.21-.54.32-.81l0,.06a30.55,30.55,0,0,0,2.1-8,.22.22,0,0,1,0,.08s0-.09,0-.14v0a17.08,17.08,0,0,0,0-4.79s0,.08,0,.13a8.38,8.38,0,0,0-.56-2h0l-.27-.59c-2.4,6.47-6.19,12.34-8.78,18.73v0l0,.07,0,0a17.43,17.43,0,0,0-1.59,5.89v-.14a2.44,2.44,0,0,0,.31,1.25l0-.06a4.5,4.5,0,0,0,.31.45.39.39,0,0,0-.08-.1C1029.46,1241,1029.65,1241.2,1030,1241.17Zm-.21,2c-7.08-3.07.39-12.86,2.17-17.66a99.17,99.17,0,0,1-9.17,7.83.39.39,0,0,0,.1-.08c-6.71,5.51-9.47.8-4.59-5.28a63.73,63.73,0,0,1,20-16.35l-.12,0c1.1-.47,2.23.76,2.58,1.73a.61.61,0,0,1,0-.12,15.5,15.5,0,0,1,1,2.35s0,0,0-.05a13.81,13.81,0,0,1,.36,1.67.59.59,0,0,1,0-.13c.56,4.89-.72,9.86-2.58,14.36l0-.09C1037.43,1235.78,1035,1242.22,1029.74,1243.17Z"/>
        </g>
        <g class="cls-90">
          <path class="cls-91" d="M1089,1202.24c-34.54-2-68.71-7.69-103.32-8.82-32.27-.54-57.59,7.18-48.94-34.83,3-172.89,21.91-353.39,50.64-517.58,28.46-109,88.05-208.6,101.7-321.17C965.25,344.09,896,293.41,793.77,232.7c-10.91-6.82-38.72-8.65-12.68-19.38,25.7-9.34,52.84-18,80.58-14.4,120.73,33,90.75,38.08,221,21.69,139-29.9,699.53-51.4,242.07,87-64,12.5-48.42,18-54.35,75.18-26.52,113.79,23.29,223.87,24.15,337.22-2.68,137.72-6.82,274.74,7.22,411.91,4,32.08,15.72,61.2-28.61,53-42.27-.53-86.87-1.65-122.4,3.61-31.21,10,5.82-554.45-20.06-428.79C1110.35,906.05,1110.34,1057.41,1089,1202.24Z"/>
          <path class="cls-91" d="M973,743.24c-1.74-1-1.74-5.61-1.67-7.71,0,0,0,.08,0,.12.17-.89.24-1.8.44-2.69h0l0-.07h0a.43.43,0,0,0,0,0h0a19.56,19.56,0,0,1,.75-3h0a7,7,0,0,1,.35-1.32h0c.38-1.3,1.64-.25,1.31.73v-.06c1.41,2-.11,5.08,1.18,6.91h0C975.34,738.34,975.72,742.54,973,743.24Z"/>
          <path class="cls-91" d="M976.13,743c.22-11.67,1.54-23.27,2.7-34.87v.06a.81.81,0,0,1,0-.16h0c.24-4.82.11-9.65.41-14.47v.2l.06-1.12c0,.07,0,.14,0,.2a290.46,290.46,0,0,1,4.18-35.16.5.5,0,0,1,0,.12c0-.06,0-.11,0-.17v0c.25-1.36.5-2.72.76-4.08l0,.19c.08-.44.16-.88.25-1.32,0,0,0,.06,0,.08,1.41-4.28,1.25-10.07,4.16-13.45,6.42-5,.17,17.56.51,20.31-1.53,3.52.48,17.65-5,16-1.36,7.4-1.66,14.95-2.23,22.44a.34.34,0,0,0,0-.1v.07c0,.25,0,.49,0,.73l0-.19c-.09,1.54-.14,3.07-.23,4.6a1,1,0,0,1,0-.17c0,.21,0,.43,0,.64v-.18c-.89,11.64-2.94,23.16-3.59,34.82v-.11l-.12,2.43v-.11c0,.58-.06,1.16-.09,1.73a.37.37,0,0,0,0-.11C978.2,743.11,976.69,744.82,976.13,743Z"/>
        </g>
        <g class="cls-92">
          <path class="cls-93" d="M1192.69,510c-50.59-1.92-100-19.61-142.18-47-.22-6.18,5-12.38,5.36-18.82,0-1.8,2.16-1,3.19-.71,57,32.43,126.22,44.26,190.62,30l-.09,0a81.22,81.22,0,0,1,9.22-2.06l-.09.06c1.67,0,3.56-1.21,5.13-.87,2.23,0,.9,15.51.66,17.81h0C1247,504.47,1216.4,509.63,1192.69,510Z"/>
          <path class="cls-93" d="M1191,472.69c-15.71.44-31.22-2.33-46.62-5.1h0c-27-6.33-52.94-16.67-77.5-29.36l0,0c-1.46-.73-3-1.42-4.44-2.09h0l-.3-.1a.26.26,0,0,1-.45-.07h0l0,0h0a0,0,0,0,0,0,0h0l-.09-.05h0c-.74-.83.9-.35,1.27-.13h0c3.2,1.07,6.17,2.69,9.31,3.91l-.08,0c6.39,2.2,12.4,5.31,18.74,7.64l0,0c28,10.42,56.6,20.06,86.61,22.57h-.17c6.52.44,13.07.45,19.6.24h0l.4,0h.12c20.81-1.35,41.52-4.31,62.28-6.17h-.13a13.76,13.76,0,0,0,1.71-.18h-.07c1.39-.77,3.81.27,1.66,1.42l.11,0-.33.11.11,0-.61.19.11,0a29.23,29.23,0,0,1-4.75.78h0C1235.46,469.12,1213.27,472.31,1191,472.69Z"/>
          <path class="cls-93" d="M1086.71,447.74c-2.72-1.08-31.15-11.88-25.82-14.26,2.16-1.15,5.64,3.25,8,3.92h0l.07.05,0,0,.61.33h0C1070.69,439.25,1093.75,447.66,1086.71,447.74Z"/>
          <path class="cls-93" d="M1191,517.26c-23.93.4-47.19-4.58-69.49-13l.07,0-.45-.16h0l-2.73-1,.15.05c-6.53-2.31-13.29-4.11-19.32-7.64l.14.08c-16.51-7.75-33.2-15.23-48.46-25.29h0l0,0h0c-.55-.37.1-.82.48-.4h0l0,0h0c5.21,2.35,10.16,5.36,15.19,8.13l-.07,0c13.94,6.82,28.2,13,42.32,19.39l-.15-.06c4.33,1.57,8.79,2.81,13.07,4.52h0l.15.06-.07,0c10.49,3.53,21,7.06,31.76,9.76h0c16.85,3.45,34.18,4,51.33,3.67h-.12c7.61-.57,15.2-1.51,22.77-2.46l-.12,0c10.14-1.91,20.19-4.37,30.09-7.28l-.13,0c.81-.26,1.63-.49,2.45-.74l-.07,0c21.74-3.65-25.3,10-29.12,9.4l.12,0C1217.58,516,1204.31,517.71,1191,517.26Z"/>
          <path class="cls-93" d="M1056.58,472.61c-.58-.31-1.16-.62-1.73-.95.12.08.24.16.37.23l0,0c.2.12.39.25.59.36h0A4.51,4.51,0,0,0,1056.58,472.61Zm4.84,3.42c-3.19-1.06-6.11-2.84-9.24-4.07h0c-1.68-.43-1.54-1.54.13-.57-.39-.29-2.51-1-1.45-1.39a3.36,3.36,0,0,1-.72-.85h0l0,0h0c-.24-.07-.37-.38-.11-.51-.45-.33,0-.88.35-.42h0c1.16.9,2.44,1.64,3.67,2.42l0,0c1.06,1,5.35,2.13,5.12,3.36.28.14,1.2.38.66.77C1060.2,475,1062.33,475.5,1061.42,476Z"/>
          <path class="cls-93" d="M1055,472.8h0c-1.66-1-5.32-.69-5.7-2.94h0a.09.09,0,0,1,0-.05h0c.1-.47.12-1,.24-1.43h0c.69-1.27,2.06,1.28,2.86,1.63h0l.05,0h0l0,0h0c.3.24.93.61.47,1,.28.2.81.3.77.72.47.17.94.35,1.41.5h0C1055.42,472.35,1055.32,472.9,1055,472.8Z"/>
          <path class="cls-93" d="M1065,478.38c-2.19-1.05-4-2.68-6-4h0c-.74-.45-1.5-.87-2.23-1.32l0,0c-.75-.45-1.49-.9-2.23-1.37h0c-1.4-.82-2.84-1.56-4.28-2.31h0c-2.37-1.94,4.72,1.81,5.27,2.36l0,0C1058.22,473.54,1064.43,476.28,1065,478.38Z"/>
          <path class="cls-93" d="M1067.9,479.66c-1.69-1-3.26-2.16-5-3.13h0c-.76-.46-1.55-.91-2.32-1.38h0l-.42-.26,0,0-.41-.26h0l0,0h0l-.16-.1h0l-1-.63h0c-2.15-1.24-4.31-2.51-6.55-3.61h0c-5.54-3.29,8,3.36,9.12,4.55h0l1.84,1.1,0,0c1.53.93,3,1.91,4.5,2.92l0,0C1067.87,479,1068.76,479.66,1067.9,479.66Z"/>
          <path class="cls-93" d="M1068.89,480.49a28,28,0,0,1-3.28-2h0c-2-1.19-3.77-2.83-5.81-4l0,0c-.88-.53-1.8-1-2.73-1.46h0c-.23-1.86,7.36,4.29,8.62,4.93l0,0c.65.38,1.24.84,1.88,1.22h0C1067.9,479.49,1070,480.25,1068.89,480.49Z"/>
          <path class="cls-93" d="M1069.78,480.41a39.31,39.31,0,0,1-4.9-2.85l0,0-2.35-1.45h0l-.11-.06,0,0c-.64-.38-1.27-.77-1.9-1.18l0,0c-.86-.48-1.7-1-2.57-1.42h0c-5-2.34,2.56.23,3.7,1.55h0l1,.61,0,0c.79.48,1.56,1,2.35,1.46l0,0c.78.48,1.55,1,2.33,1.47h0c.78.46,1.56.92,2.38,1.3h0C1070.17,479.9,1070.24,480.5,1069.78,480.41Z"/>
          <path class="cls-93" d="M1075.72,483a53.79,53.79,0,0,1-12.87-6.86h0c-1.65-.94-3.24-2-5-2.81h0a5.3,5.3,0,0,0-.7-.26h0c-.2-1.89,9.22,4.94,10.68,5.8h0c1.72.89,3.45,1.77,5.23,2.54h0C1073.65,481.89,1076.81,482.38,1075.72,483Z"/>
          <path class="cls-93" d="M1063.22,436.61a.67.67,0,0,1-.18-.11h0l0,0v0l-.82-.56h0a13.36,13.36,0,0,1-1.49-1h0l-.33-.28h0l0,0h0a1.26,1.26,0,0,1,.07-1.74v0l0-.05h0c.55-1.13,1.73.07,2.36.53l0,0,.63.52,0-.05.09.08,0,0c.49.24.85,1,.13,1.19-1,0-1.7-1.73-2.59-1.39l0,0c-.11,0-.14.17-.16.28v0a.07.07,0,0,1,0,.05h0a.53.53,0,0,0,.15.54h0l.08.07h0c.3.23.61.45.93.65h0a13.46,13.46,0,0,1,1.37.9h0l0,0A.25.25,0,0,1,1063.22,436.61Z"/>
          <path class="cls-93" d="M1067.21,450.35c-1.76-1.38-3.27-3.05-5-4.51h0l0,0h0l-.07-.06h0s0,0-.05-.05h0a7.74,7.74,0,0,0-2.64-1.26l.06,0-.29-.13.07,0a6.58,6.58,0,0,0-2.42-.73h0c-.14,0-.27.05-.28.22v-.05a.39.39,0,0,0,0,.15v0a.43.43,0,0,0,0,.05h0c.79.66.66,2.69-.05.87h0a2.88,2.88,0,0,0-.3-.47l0,0a.8.8,0,0,1,.24-1.44l0,0C1058.73,441.07,1070.86,450.54,1067.21,450.35Z"/>
        </g>
        <g class="cls-94">
          <path class="cls-95" d="M1276.58,136a27.72,27.72,0,0,0-6.35-2.08A32.94,32.94,0,0,0,1276.58,136ZM1172.05,297c-16.25-1.25-28.11-19.55-23.52-35,8.65-20.17,4.26-8.38-9.37-1.08-48,30.57-63.31-24.8-38-58.43,4.65-3.74-7.46-.86-10.34-2.44-14-3.29-42.93-8.12-35.27-28.42,8.47-17.53,7.11-20.58,26.1-21.09-53.1-50,4.62-100,35.76-63.74-17.66-32.89,19-40.18,44.55-38.34,17.28-.53,26.74,16.4,28.7,1.11,8.51-32.17,55.47-45.95,64.81-8.39.34,13.54-6.35,25.93-12,37.82,54.32-37,113.88,36.26,37.59,58.8a19.3,19.3,0,0,1,4.73,6.82c12.94,51.45-32.76,48.27-16.92,54,31.64,24.22-4.29,94.92-43.1,70.95-10.06-5.76-9.17-14.71-13.7.42C1205.84,286.79,1190.56,298.94,1172.05,297Z"/>
          <path class="cls-95" d="M1270.89,134.52a12.17,12.17,0,0,0,1.32-1.73A5.15,5.15,0,0,0,1270.89,134.52Zm3.69-1c-.16.36-.32.72-.5,1.07.36-.52.87-.94,1.2-1.48h0a.85.85,0,0,0,.11-.26v0c.16-.32-.1-.39-.36-.27h0C1274.74,132.78,1274.7,133.17,1274.58,133.49Zm-5.72,2.12a3.68,3.68,0,0,0,.59-1.61c-.19.48-.36.95-.53,1.43h0Zm2.31,2c.17-.13.34-.28.5-.42l-.05,0a6.42,6.42,0,0,0,1.22-1.48l0,0a2.39,2.39,0,0,1,.13-.21A12,12,0,0,1,1271.17,137.61Zm-3.2,2.79h0l.12,0h0a1.55,1.55,0,0,0,.36-.13h0a8.85,8.85,0,0,0,.84-.5l0,0a3.72,3.72,0,0,0,.57-.48c-.67-.18-.41-1-.06-1.38-.66.58-1.89,1.84-1.83,2.49Zm-.44.62,0,.09.37-.21a.91.91,0,0,1-.25-.07A1.54,1.54,0,0,0,1267.53,141Zm-.85,2.23c-.49-.23,0-1,0-1.43-1.13-.2.4-2.3.53-3-.85-.8.87-1.71.88-2.63h0c.24-1.56,2.61-6.26,1.76-1.88a5.49,5.49,0,0,0,1.06-1.69h0c.08-.28.48-.61.64-.22.63-.89,5.92-5,4.31-2,.6.48-.17,1.14-.46,1.57a.59.59,0,0,1,.48.43c.42-.59,2.49-2.78,2.11-.86C1275,136.27,1269.62,139.26,1266.68,143.25Z"/>
          <path class="cls-95" d="M1275,129.52l.14,0a2,2,0,0,1,.08-.22Zm-5.42,5.4c-.15.24-.31.47-.44.72l.17-.25,0,0,.59-.87,0,0,.06-.09v0c.73-1.12,1.73-2,2.43-3.18-.19.19-.37.39-.55.58h0a21.86,21.86,0,0,0-1.52,1.93l0,0Zm4.06.54c-.3.72-.56,1.46-.9,2.17l.32-.45h0c1-1.26,1.17-2.84,1.62-4.32C1274.25,133.71,1274,134.6,1273.62,135.46Zm-.87,3.55.17-.48c-.07.15-.32.27-.19.43h0Zm.5.57a14.63,14.63,0,0,0,.45-1.76,10.09,10.09,0,0,0-.54,1.7l0,0Zm-2.24.07c.36-.63.64-1.3.94-2v0l0,0-.57,1.17h0C1271.26,139.11,1271.13,139.38,1271,139.65Zm-2.73.83.06,0h0a1.71,1.71,0,0,0,.42-.28l0,0a9.46,9.46,0,0,0,1-1.05l0,0a20.06,20.06,0,0,0,1.59-2.08,0,0,0,0,1,0,0,24.22,24.22,0,0,0,1.51-2.61v0c.44-.94.86-1.88,1.21-2.85v0c.07-.23.15-.45.21-.67l-.46.27h0a1.47,1.47,0,0,0-.52.5l0,0C1271.44,134.61,1269.9,137.57,1268.28,140.48Zm-1.24.71h0a2.14,2.14,0,0,1,.08-.94c-.12.21-.24.42-.35.64h0A.28.28,0,0,0,1267,141.19Zm1.24.22.13,0h0l.3-.08h0l0,0h0a4.83,4.83,0,0,0,.87-.46l0,0c.45-.23.5-.78.73-1.2a9.94,9.94,0,0,1-2,1.72Zm-4.35,11.26c-.84-8.53,3.79-19.09,10.77-23.84,0,0,0,0,0,0,.71-1.08,1.76-.35,1.11.74l0,0c-.5.77.39,1.13.49,1.78a.47.47,0,0,1,.54-.11c2.23-6.43-1.46,10.6-2.44,9.67-.33.55-1.83,4.82-2,2.46h0a18.09,18.09,0,0,0,.7-2.72c-1.69,1.87-.46-.65-.79-1.37a14.86,14.86,0,0,0-1.94,2.82v0c-.43,1-1.66,1-1-.28a3,3,0,0,1-2.91-.23l-.06.12v0a22.69,22.69,0,0,0-1.14,2.63v0c-.2.6-.4,1.2-.54,1.82v0C1264.11,147,1265.37,154.15,1263.93,152.67Z"/>
        </g>
      </g>
    </g>
  </g>
</svg>
