<svg id="Layer_1" data-name="Layer 1" xmlns="http://www.w3.org/2000/svg" viewBox="0 0 131 46">
  <defs>
    <style>
      .cls-1 {
        fill: #0173bc;
      }

      .cls-2 {
        fill: #949699;
      }
    </style>
  </defs>
  <g>
    <path class="cls-1" d="M14,4.07c.5,1.42,1,2.83,1.5,4.24q2.87,8.21,5.7,16.4a.44.44,0,0,0,.51.36c1,0,2.07,0,3.13,0v-11H22.93a3.35,3.35,0,0,1-.05-.89H28v1.58a4.91,4.91,0,0,1,2.17-1.64,5.12,5.12,0,0,1,3.41-.09A3.91,3.91,0,0,1,36.25,17c0,2.53,0,5.06,0,7.6v.48h2a2.17,2.17,0,0,1,0,.91H31.31a3.23,3.23,0,0,1,0-.88H33c.14-.16.09-.31.09-.45V16.51a4.65,4.65,0,0,0-.07-.91,1.81,1.81,0,0,0-2.57-1.46A3.38,3.38,0,0,0,28.57,16,6.22,6.22,0,0,0,28,18.72c0,2,0,4.07,0,6.11,0,.07,0,.13,0,.23H29.9A2.74,2.74,0,0,1,30,26H14.81a3.78,3.78,0,0,1,0-.89h2.72l-.86-2.57c-.35-1-.69-2-1-3.06-.06-.17-.09-.32-.33-.32H9.2l-2,5.93H9.92A4.83,4.83,0,0,1,10,26H4V25c.54.08,1.09,0,1.63,0,.3,0,.42-.1.51-.37q3-8.85,6-17.7c.34-1,.62-2,1-2.93ZM12.29,9.76,9.52,18.2h5.72Z"/>
    <path class="cls-1" d="M121,19.82v6h-9.62v-6h-6V10.18h6v-6H121v6h6v9.67Zm.56-7.35A5.83,5.83,0,0,0,115.87,9a5.74,5.74,0,0,0-5,3.43h4a1.8,1.8,0,0,0,.46-.1.66.66,0,0,0,.35-1.06c-.08-.13-.19-.26-.26-.4a.75.75,0,0,1,.19-.94.89.89,0,0,1,1,0,.73.73,0,0,1,.19.93c-.08.16-.2.29-.29.44a.63.63,0,0,0,.32,1,1.26,1.26,0,0,0,.54.13Zm-1.69,7.16a6,6,0,0,0,2.05-6.38.37.37,0,0,0-.46-.3c-1.19.05-2.36.21-3.54.33a.84.84,0,0,0-.73,1.29c.19.45.45.88.68,1.31C118.51,17.13,119.17,18.37,119.85,19.63Zm-7.39,0c.22-.41.41-.77.61-1.13.66-1.23,1.32-2.46,2-3.69.43-.81.18-1.4-.65-1.5-1.12-.13-2.25-.2-3.38-.32-.35,0-.46.1-.53.4A6,6,0,0,0,112.46,19.6Zm7,.3-2.82-4.13c-.34-.49-.65-.49-1,0l-1.34,2-1.44,2.1A5.87,5.87,0,0,0,119.46,19.9Z"/>
    <path class="cls-1" d="M81.21,25.07H83V26H76a2.77,2.77,0,0,1,0-.87h2v-11H76V13.2h5.13l.06,1.15c.15,0,.2-.09.27-.15a5.81,5.81,0,0,1,6-.93,3.41,3.41,0,0,1,1.45,1.39c.14,0,.19-.14.27-.22a5.48,5.48,0,0,1,5.75-1.33,3.15,3.15,0,0,1,2.18,3c.06,1.64,0,3.28,0,4.92v4h2V26h-7a2.87,2.87,0,0,1,0-.88H93.9a.63.63,0,0,0,.08-.47q0-4,0-8a7.15,7.15,0,0,0-.08-1,1.67,1.67,0,0,0-2.22-1.43A3.1,3.1,0,0,0,89.36,17a48.45,48.45,0,0,0-.15,5.39v2.64H91v.86c-.31.07-6.19.09-6.84,0a2.49,2.49,0,0,1,0-.87h1.79a.85.85,0,0,0,.06-.45c0-2.7,0-5.39,0-8.08a6.74,6.74,0,0,0-.08-1,1.67,1.67,0,0,0-2.25-1.44,3.12,3.12,0,0,0-2.29,2.95c-.23,2.1-.12,4.2-.15,6.31Z"/>
    <path class="cls-1" d="M61.2,25.08h2V26H56.06a2.32,2.32,0,0,1,0-.88h1.89a.71.71,0,0,0,.06-.44c0-2.65,0-5.31,0-8a4.68,4.68,0,0,0-.09-.91,2.09,2.09,0,0,0-3.1-1.51,3.85,3.85,0,0,0-2.14,2.68,6.05,6.05,0,0,0-.25,1.74c0,2,0,4.1,0,6.16,0,.06,0,.13,0,.22H54.3a2.69,2.69,0,0,1,.06.88c-.38.06-6.77.07-7.15,0v-.85h2V5.14H47.37a3.18,3.18,0,0,1,0-.92h5.07V14.51c.14.06.17,0,.22-.09a5.79,5.79,0,0,1,5.9-1.34,3.79,3.79,0,0,1,2.69,3.83v8.17Z"/>
    <path class="cls-1" d="M74.42,21.59h.93a1.61,1.61,0,0,1-.12.82A5.43,5.43,0,0,1,68,26a6.17,6.17,0,0,1-4.33-5.43,7.09,7.09,0,0,1,1.77-5.88,6,6,0,0,1,8.6-.23,6.27,6.27,0,0,1,1.54,4.29H67.19a28.39,28.39,0,0,0,.12,4.14c.42,2.19,2.16,2.82,4,2.3a4.13,4.13,0,0,0,3-3.27c0-.1,0-.19.05-.28ZM72,17.8c0-.53,0-1,0-1.52,0-.19,0-.39-.06-.59a2.23,2.23,0,0,0-2.18-2,2.31,2.31,0,0,0-2.37,1.58,7.67,7.67,0,0,0-.17,2.53Z"/>
    <path class="cls-1" d="M46.51,23.4h.89a3.18,3.18,0,0,1-3,2.91,5.54,5.54,0,0,1-1.35,0A3.33,3.33,0,0,1,40.24,23c-.1-1-.06-2-.07-3,0-1.83,0-3.66,0-5.48v-.47h-2v-.9h2V9.47l3.21-.21v3.91h3.08v.89h-3a.73.73,0,0,0-.06.45v8.64a3.89,3.89,0,0,0,0,.68c.16.75.51,1.13,1.13,1.22a1.53,1.53,0,0,0,1.68-.88A6.21,6.21,0,0,0,46.51,23.4Z"/>
    <path class="cls-2" d="M30.24,41.73h-1V35.54h.9l.06.42c.85-.61,1.69-.89,2.48.12a1.7,1.7,0,0,1,1.38-.65,1.1,1.1,0,0,1,1.2,1.12c0,1.72,0,3.43,0,5.18h-1a.72.72,0,0,1,0-.43c0-1.27,0-2.53,0-3.8,0-.1,0-.21,0-.32,0-.52-.23-.79-.6-.78a1,1,0,0,0-.85.85V41.7a3.25,3.25,0,0,1-1,0,.8.8,0,0,1,0-.45v-4c0-.58-.23-.86-.67-.85a.87.87,0,0,0-.85.9Z"/>
    <path class="cls-2" d="M38.89,41.74v-8a10.88,10.88,0,0,1,3,.19,1.46,1.46,0,0,1,1,1.13,2.78,2.78,0,0,1-.11,1.64,1.42,1.42,0,0,1-.79.77A1.67,1.67,0,0,1,43,38.72a3.42,3.42,0,0,1,0,1.74,1.76,1.76,0,0,1-1.68,1.26C40.52,41.78,39.72,41.74,38.89,41.74Zm1-.86c.71-.06,1.5.21,1.91-.56a1.68,1.68,0,0,0-.08-1.85c-.46-.61-1.16-.49-1.83-.47Zm0-3.77c.66,0,1.32.08,1.71-.56a1.38,1.38,0,0,0,0-1.52c-.42-.58-1.1-.36-1.71-.39Z"/>
    <path class="cls-2" d="M105,35.89v-2.5a4.1,4.1,0,0,1,1,0v8.38c-.72.18-.93.11-1-.36-.21.12-.4.25-.62.35a1.42,1.42,0,0,1-2.15-1.28c0-1.21,0-2.43,0-3.64a1.44,1.44,0,0,1,2.26-1.27Zm0,2.73V37.3a1,1,0,0,0-1-1c-.43,0-.71.19-.72.63,0,1.14,0,2.28,0,3.43,0,.43.33.64.77.62a1,1,0,0,0,1-.79Z"/>
    <path class="cls-2" d="M8.46,33.75l1.64,8H9l-.44-2.12H6.83l-.35,2.11a5.23,5.23,0,0,1-1.12,0c.2-1,.38-2,.57-3.06.29-1.52.58-3,.85-4.55,0-.28.14-.39.43-.38S8,33.75,8.46,33.75Zm-.1,4.94-.72-4-.67,4Z"/>
    <path class="cls-2" d="M62.47,36.38h-1a3.12,3.12,0,0,1-.06-.86c-.08-.74-.39-1-1.09-1a.84.84,0,0,0-.83.76,7.77,7.77,0,0,0-.06,1.6c0,1-.06,2.07,0,3.11a.92.92,0,0,0,1,1c.57,0,.87-.34.91-1,0-.24,0-.48,0-.72s.08-.28.28-.28h.79a3.9,3.9,0,0,1-.19,2,1.54,1.54,0,0,1-.89.81,3,3,0,0,1-1.54.12A1.7,1.7,0,0,1,58.4,40.1c0-1.55,0-3.09,0-4.64a1.71,1.71,0,0,1,1.18-1.73,2.33,2.33,0,0,1,2.43.42,1.41,1.41,0,0,1,.44,1C62.5,35.52,62.47,35.93,62.47,36.38Z"/>
    <path class="cls-2" d="M19.39,33.44h.68l.32,0V36a3.41,3.41,0,0,1,1.36-.54,1.15,1.15,0,0,1,1.36,1.22c0,1.68,0,3.36,0,5.06a3.16,3.16,0,0,1-1,0,.8.8,0,0,1-.05-.45c0-1.36,0-2.72,0-4.08,0-.77-.37-1-1.08-.68a.88.88,0,0,0-.62.93c.05,1.41,0,2.82,0,4.26a3.41,3.41,0,0,1-1,0Z"/>
    <path class="cls-2" d="M108.14,37.3l-.21,0c-.84,0-1-.15-.68-1a1.37,1.37,0,0,1,.93-.91,2.85,2.85,0,0,1,1.66,0,1.26,1.26,0,0,1,.94,1.22c0,1.67,0,3.35,0,5a4.16,4.16,0,0,1-.85,0c-.15-.13-.07-.28-.13-.44a2.1,2.1,0,0,1-1.37.52A1.48,1.48,0,0,1,107,40.37c-.11-1.62.8-2.2,2.29-2.44.41-.07.59-.2.52-.62,0-.1,0-.21,0-.32,0-.53-.26-.78-.74-.81a.76.76,0,0,0-.85.75C108.15,37.05,108.15,37.17,108.14,37.3Zm1.63,1.34a2.32,2.32,0,0,0-1,.2,1.29,1.29,0,0,0-.73,1.68c.13.37.38.5.86.45s.83-.37.84-.62C109.78,39.79,109.77,39.24,109.77,38.64Z"/>
    <path class="cls-2" d="M117.84,38.57c0-.49,0-1,0-1.48a1.65,1.65,0,0,1,1.5-1.72,2.75,2.75,0,0,1,1.14.06,1.53,1.53,0,0,1,1.19,1.51c0,1.11,0,2.21,0,3.31a1.59,1.59,0,0,1-1.34,1.61,2.19,2.19,0,0,1-1.9-.35,1.68,1.68,0,0,1-.59-1.34C117.83,39.64,117.84,39.1,117.84,38.57Zm1,.08h0v1.48a.84.84,0,0,0,.89.87.82.82,0,0,0,.88-.88c0-1,0-2,0-3a.89.89,0,1,0-1.77,0C118.86,37.66,118.87,38.16,118.87,38.65Z"/>
    <path class="cls-2" d="M91.28,38.63c0,.52,0,1,0,1.56a1.68,1.68,0,0,1-1.72,1.72,2.36,2.36,0,0,1-1.28-.23,1.66,1.66,0,0,1-.84-1.53q0-1.51,0-3a1.65,1.65,0,0,1,1.47-1.75,2.83,2.83,0,0,1,1.26.08A1.58,1.58,0,0,1,91.28,37v1.68Zm-1,0h0c0-.49,0-1,0-1.47a.86.86,0,0,0-.89-.89.83.83,0,0,0-.87.89c0,1,0,2,0,3a.82.82,0,0,0,.86.9.83.83,0,0,0,.9-.9C90.26,39.61,90.24,39.12,90.24,38.62Z"/>
    <path class="cls-2" d="M70.64,38.61c0,.44,0,.88,0,1.32.06,1.43-.9,2.19-2.42,2a1.63,1.63,0,0,1-1.42-1.71c0-1,0-2,0-3a1.64,1.64,0,0,1,1.45-1.76,2.61,2.61,0,0,1,1.3.08A1.55,1.55,0,0,1,70.64,37C70.65,37.52,70.64,38.07,70.64,38.61Zm-1,0c0-.46,0-.93,0-1.4a.87.87,0,0,0-.88-1,.86.86,0,0,0-.89,1c0,1,0,1.89,0,2.84a.85.85,0,0,0,.9.94.84.84,0,0,0,.87-.93C69.61,39.59,69.61,39.11,69.61,38.63Z"/>
    <path class="cls-2" d="M54.79,38.88h-2.7a14.9,14.9,0,0,0,0,1.5A.78.78,0,0,0,53,41a.71.71,0,0,0,.74-.77c0-.11,0-.23,0-.36a3.48,3.48,0,0,1,1,0,1.52,1.52,0,0,1-1.16,2c-1.5.34-2.59-.38-2.54-1.91,0-.89,0-1.78,0-2.68a1.7,1.7,0,0,1,.85-1.65,2.15,2.15,0,0,1,2.14,0,1.48,1.48,0,0,1,.75,1.29C54.82,37.54,54.79,38.18,54.79,38.88Zm-1-.83a4.71,4.71,0,0,0,0-1.2.77.77,0,0,0-.85-.63.73.73,0,0,0-.82.64,4.31,4.31,0,0,0,0,1.19Z"/>
    <path class="cls-2" d="M28.08,38.88H25.35a7,7,0,0,0,.06,1.59.8.8,0,0,0,.95.55.7.7,0,0,0,.68-.74c0-.13,0-.26,0-.42H28a1.59,1.59,0,0,1-1.57,2,2.7,2.7,0,0,1-.8,0,1.62,1.62,0,0,1-1.33-1.62q0-1.56,0-3.12c0-1.15.78-1.79,2.06-1.77a1.66,1.66,0,0,1,1.7,1.81ZM25.36,38h1.73a4.12,4.12,0,0,0,0-1.17.78.78,0,0,0-.91-.65.73.73,0,0,0-.77.7A10.44,10.44,0,0,0,25.36,38Z"/>
    <path class="cls-2" d="M123.84,41.74h-1V35.49a2.64,2.64,0,0,1,.89,0l.13.46a2.13,2.13,0,0,1,1.34-.57,1.19,1.19,0,0,1,1.33,1.23c0,1.7,0,3.4,0,5.12a3.4,3.4,0,0,1-1,0c-.12-.13-.07-.29-.07-.43V37.24c0-.38,0-.78-.47-.91a1.31,1.31,0,0,0-1.17.54.81.81,0,0,0,0,.35v4.52Z"/>
    <path class="cls-2" d="M98.32,41.74h-1V35.49a2.42,2.42,0,0,1,.89,0l.12.45a2.36,2.36,0,0,1,1.31-.56c.82,0,1.35.39,1.37,1.19,0,1.72,0,3.43,0,5.18h-1c-.1-.12,0-.27,0-.41V37.23c0-.57-.14-.83-.47-.91a1.33,1.33,0,0,0-1.17.56.81.81,0,0,0,0,.35v4.51Z"/>
    <path class="cls-2" d="M14.62,41.74h-1c-.11-.14-.06-.3-.06-.44V37.23c0-.65-.19-.91-.64-.92a1,1,0,0,0-1,1v4.46h-1V35.48a3.64,3.64,0,0,1,.88,0l.14.48a2.18,2.18,0,0,1,1.35-.57c.76,0,1.29.39,1.31,1.16C14.65,38.24,14.62,40,14.62,41.74Z"/>
    <path class="cls-2" d="M95.05,35.53h1v6.25a2.41,2.41,0,0,1-.89,0l-.06-.41c-.14,0-.2.08-.28.13a1.77,1.77,0,0,1-1.11.39,1.13,1.13,0,0,1-1.29-1.16c0-1.73,0-3.46,0-5.21a4.34,4.34,0,0,1,1,0,.63.63,0,0,1,.07.44v4.23c0,.69.37.92,1,.66s.61-.37.61-.9V35.53Z"/>
    <path class="cls-2" d="M46.25,35.52h1a.64.64,0,0,1,.07.44v4.12c0,.67.14.87.59.86a1,1,0,0,0,1-.92V36a1.06,1.06,0,0,1,0-.46h1v6.25a2.65,2.65,0,0,1-.84,0c-.14-.12,0-.29-.12-.42s-.19.08-.27.14a1.84,1.84,0,0,1-1.11.38,1.13,1.13,0,0,1-1.29-1.16C46.22,39,46.25,37.29,46.25,35.52Z"/>
    <path class="cls-2" d="M79.72,37.22a4,4,0,0,1-.84,0c-.12-.11-.07-.22-.08-.32a.83.83,0,0,0-1.27-.65c-.38.21-.42.69-.1,1.11a3.4,3.4,0,0,0,.87.69,5,5,0,0,1,1.23,1,1.94,1.94,0,0,1,.33,1.78,1.39,1.39,0,0,1-1.33,1,3.2,3.2,0,0,1-1.34-.08c-.83-.23-1.2-.88-1.08-1.93a3.55,3.55,0,0,1,.92,0c.12.13.07.27.08.4a.77.77,0,0,0,.63.8.93.93,0,0,0,1-.3.92.92,0,0,0-.17-1.07,5.13,5.13,0,0,0-1.06-.79,3.89,3.89,0,0,1-.88-.74,1.84,1.84,0,0,1-.33-1.95c.26-.67.89-.82,1.55-.85a2.44,2.44,0,0,1,.71.06A1.4,1.4,0,0,1,79.72,37.22Z"/>
    <path class="cls-2" d="M75.17,37.23a4,4,0,0,1-.91,0c0-.1,0-.19,0-.28a.79.79,0,0,0-1.14-.72.61.61,0,0,0-.41.79,1.43,1.43,0,0,0,.61.76c.46.34,1,.62,1.39,1a2,2,0,0,1,.62,2.07,1.38,1.38,0,0,1-1.32,1,3.27,3.27,0,0,1-1.39-.07,1.55,1.55,0,0,1-1-2h.92c.09.12.05.23.06.33a.91.91,0,0,0,1.39.8.71.71,0,0,0,.34-.92,1.67,1.67,0,0,0-.64-.75c-.43-.31-.9-.57-1.3-.92a2,2,0,0,1-.65-1.92,1.18,1.18,0,0,1,.77-.95,2.54,2.54,0,0,1,1.8-.06C75,35.7,75.29,36.3,75.17,37.23Z"/>
    <path class="cls-2" d="M83.31,33.77h3.32v.84H84.36v2.51H86.3a2.49,2.49,0,0,1,0,.86h-2v3.75h-1Z"/>
    <path class="cls-2" d="M17.34,35.51h1.19v.77c-.37.1-.74,0-1.11.06-.11.13-.06.28-.06.42V40c0,.84.16,1,1,.92h.23a2.14,2.14,0,0,1,.05.76,2.53,2.53,0,0,1-1.44,0c-.58-.16-.85-.6-.85-1.33,0-1.21,0-2.43,0-3.64a.8.8,0,0,0-.05-.45l-.71,0a1.74,1.74,0,0,1,0-.75c.25-.11.51,0,.79-.1V33.8a4.51,4.51,0,0,1,1-.21Z"/>
    <path class="cls-2" d="M114.82,41a2,2,0,0,1,0,.73,2.39,2.39,0,0,1-1.4.05c-.6-.15-.88-.6-.88-1.34,0-1.2,0-2.4,0-3.6v-.44c-.26-.14-.52,0-.78-.11a1.93,1.93,0,0,1,0-.72c.25-.11.51,0,.79-.1V33.81a5.93,5.93,0,0,1,1-.24v1.89c.39.12.79,0,1.18.09v.73a10.46,10.46,0,0,1-1.11.06s0,.07,0,.11c0,1.29,0,2.58,0,3.87,0,.52.27.72.81.66A.61.61,0,0,1,114.82,41Z"/>
    <path class="cls-2" d="M45,41.74H44V33.5a2.27,2.27,0,0,1,.78,0c.24,0,.22.18.22.34v7.94Z"/>
    <path class="cls-2" d="M63.64,35.46h.94c.12.25,0,.54.08.81,1-.85,1.11-.92,1.65-.87v.66a1,1,0,0,1,0,.45,2,2,0,0,0-1,.42,1.49,1.49,0,0,0-.59,1.21c0,1.18,0,2.37,0,3.57a4.76,4.76,0,0,1-1,0Z"/>
    <path class="cls-2" d="M115.71,35.54h1v6.18a4.46,4.46,0,0,1-1,0Z"/>
    <path class="cls-1" d="M123.71,25.93a1.65,1.65,0,1,1,1.63-1.68A1.66,1.66,0,0,1,123.71,25.93Zm0-3a1.32,1.32,0,0,0-1.38,1.33,1.37,1.37,0,0,0,1.37,1.41,1.35,1.35,0,0,0,1.36-1.37A1.32,1.32,0,0,0,123.7,22.92Z"/>
    <path class="cls-1" d="M103.21,24.3A1.64,1.64,0,0,1,101.57,26a1.66,1.66,0,0,1,0-3.31A1.63,1.63,0,0,1,103.21,24.3Zm-1.62-1.36a1.29,1.29,0,0,0-1.36,1.35,1.31,1.31,0,0,0,1.34,1.38,1.35,1.35,0,0,0,1.37-1.36A1.31,1.31,0,0,0,101.59,22.94Z"/>
    <path class="cls-2" d="M116.71,34.62h-1a3.55,3.55,0,0,1,0-1.08,3.79,3.79,0,0,1,1,0A4.47,4.47,0,0,1,116.71,34.62Z"/>
    <path class="cls-1" d="M112.21,11.69a4.37,4.37,0,0,1,2.47-1.63c-.3.63.09,1.09.33,1.63Z"/>
    <path class="cls-1" d="M117.6,10.06a5.25,5.25,0,0,1,2.48,1.63h-2.77C117.49,11.16,117.94,10.73,117.6,10.06Z"/>
    <path class="cls-1" d="M121.19,13.81A5.31,5.31,0,0,1,120,18.34l-2-3.87c-.15-.28-.08-.42.24-.44Z"/>
    <path class="cls-1" d="M112.26,18.34a5.27,5.27,0,0,1-1.15-4.49,6.72,6.72,0,0,1,1.35.06q.78,0,1.56.12c.41,0,.45.11.26.47C113.63,15.76,113,17,112.26,18.34Z"/>
    <path class="cls-1" d="M118.33,19.64a5.52,5.52,0,0,1-4.35,0c.69-1.08,1.35-2.14,2.16-3.19A38.16,38.16,0,0,1,118.33,19.64Z"/>
    <path class="cls-1" d="M123.05,23.34a4,4,0,0,1,1,0c.27,0,.47.13.51.41a.49.49,0,0,1-.34.59l-.19.09.48.72c-.32.17-.35-.12-.47-.25s-.21-.62-.66-.47a1.85,1.85,0,0,0,0,.58c0,.09,0,.19-.13.2s-.14-.09-.14-.19Zm.29.79a2.09,2.09,0,0,0,.66,0,.28.28,0,0,0,.25-.31.25.25,0,0,0-.26-.24,1.67,1.67,0,0,0-.63,0A1.21,1.21,0,0,0,123.34,24.13Z"/>
    <path class="cls-1" d="M101,23.34c.3,0,.54,0,.77,0s.61,0,.69.39-.13.6-.54.68l.53.81c-.65,0-.48-1-1.2-.8v.63c0,.1,0,.19-.15.18s-.1-.11-.1-.18Zm.27.81c.22,0,.43,0,.64,0a.28.28,0,1,0,0-.55,1.26,1.26,0,0,0-.64,0Z"/>
  </g>
</svg>
