<svg id="Layer_2" data-name="Layer 2" xmlns="http://www.w3.org/2000/svg" viewBox="0 0 848.49 848.23">
  <defs>
    <style>
      .cls-1 {
        fill: #ec1947;
      }

      .cls-2 {
        fill: #ec1846;
      }

      .cls-3 {
        fill: #ec1946;
      }

      .cls-4 {
        fill: #ec1a47;
      }

      .cls-5 {
        fill: #ec1b48;
      }

      .cls-6 {
        fill: #ec1b49;
      }

      .cls-7 {
        fill: #03aeee;
      }

      .cls-8 {
        fill: #eb028c;
      }

      .cls-9 {
        fill: #eb038d;
      }

      .cls-10 {
        fill: #f48423;
      }
    </style>
  </defs>
  <g>
    <path class="cls-1" d="M628,164.71V4.16h43.64V285.63h-2.2c-12.55,0-25.11-.05-37.66,0-1.77,0-2.44-.6-3-2.18q-26.05-74.53-52.19-149-4-11.52-8.09-23a2.27,2.27,0,0,0-1-1.31v175.3H523.68V4h2.58c13.27,0,26.54.06,39.81,0,2,0,2.72.67,3.36,2.43q28.47,78.12,57.06,156.19c.28.77.6,1.54.9,2.31Z"/>
    <path class="cls-2" d="M845.72,145.07c0,24.86.17,49.73-.05,74.59-.17,19.14-6,36.25-19.53,50.3-8.68,9-19.38,14.46-31.52,17.1-17,3.69-34,3.71-50.71-1.26-23.8-7.08-37.88-23.72-43.86-47.32a87.55,87.55,0,0,1-2.46-20.85c-.2-48.53-.13-97-.09-145.58,0-12.95,2.36-25.41,8.49-36.95,9.51-17.93,24.35-28.85,44.16-32.84,16-3.21,32-3.17,47.71,1.2,24.53,6.8,39.11,23.46,45.31,47.61a89.37,89.37,0,0,1,2.44,21.1C845.9,96.46,845.72,120.77,845.72,145.07Zm-48.45-.16c0-24.38.07-48.76-.07-73.14A63.55,63.55,0,0,0,795.71,59C794,51,789.56,45.38,781.27,43.46a42.49,42.49,0,0,0-17.36-.38c-8.49,1.55-14,6.5-16,14.86A71.55,71.55,0,0,0,746,73.56q-.21,71.1,0,142.21a83.87,83.87,0,0,0,1,12.15c1.63,10.7,7.19,17.09,16.83,18.57a59.25,59.25,0,0,0,14.76.16c8.76-.86,14.64-5.77,16.71-14.42a65,65,0,0,0,1.92-14.41C797.37,193.52,797.27,169.22,797.27,144.91Z"/>
    <path class="cls-3" d="M300.29,285.51h-46.9c-1-7.34-2-14.6-3-21.85-1.78-13-3.58-26-5.29-38.93-.23-1.73-1.31-1.47-2.41-1.47H191.94c-2.88,20.86-5.73,41.54-8.58,62.28H136.45Q162.39,144.76,188.28,4.15h60.18Q274.35,144.74,300.29,285.51ZM218.74,60.57l-.73,0q-9.51,60.13-19,120.39h38.79Q228.23,120.6,218.74,60.57Z"/>
    <path class="cls-3" d="M331.36,285.5V46.3H284.65V4.21H426.34v42H379.85V285.5Z"/>
    <path class="cls-4" d="M51.5,4.11V243.36h75.89V285.5H3.19V4.11Z"/>
    <path class="cls-2" d="M446.23,4.08h48.14V285.47H446.23Z"/>
    <path class="cls-4" d="M301.81,478.35H278.35v-122l-.53-.06q-12.12,61-24.24,122H240.36q-12.09-60.9-24.19-121.77h-.31V478.21H192.09v-157h35.6q9.47,45.39,19,91l.57,0q9.5-45.48,19-91.1h35.55Z"/>
    <path class="cls-3" d="M424.86,478.33H401.54V356.06l-.6-.08q-12.15,61.17-24.31,122.36h-13.2Q351.28,417.19,339.12,356l-.46.08V478.26H315.24V321.16h35.5q9.52,45.63,19.08,91.43h.42q9.54-45.75,19.1-91.53h35.52Z"/>
    <path class="cls-3" d="M618.68,478.4c-7.49,0-14.76,0-22,.05-1.58,0-1.83-.91-2.19-2l-21.72-62.1Q567,398,561.26,381.67a2,2,0,0,0-.93-1.12v97.74H536.06V321.13c.65-.05,1.33-.15,2-.15,7,0,13.91,0,20.87-.05a2.53,2.53,0,0,1,2.89,2q15.45,42.48,31,84.93a6.58,6.58,0,0,0,1.33,2.41V321.1h24.49Z"/>
    <path class="cls-4" d="M299.71,571.35v94.92H276V513.51c.65,0,1.33-.16,2-.16,6.8,0,13.59.06,20.38-.05,1.68,0,2.31.56,2.86,2.06q15,41.37,30.19,82.68a5.27,5.27,0,0,0,1.35,2.22V513.49H356.5v152.9H338.71c-5.12,0-5.12,0-6.81-4.85l-31.23-89.16c-.13-.37-.31-.71-.47-1.06Z"/>
    <path class="cls-3" d="M818.33,513.47h23.83V666.39h-3.73c-5.68,0-11.35-.07-17,0a2.53,2.53,0,0,1-2.91-2Q802.67,619,786.74,573.67a5.73,5.73,0,0,0-1.3-2.31v94.86H761.88V513.46c.73,0,1.5-.11,2.27-.11,6.23,0,12.47.12,18.7-.06,2.42-.07,3.53.57,4.4,3,9.88,27.38,19.92,54.69,29.91,82a5.26,5.26,0,0,0,1.17,2Z"/>
    <path class="cls-1" d="M95.88,399.46c0-14.31-.15-28.62,0-42.93.28-20.79,14.45-35.72,35.15-37.49,7.32-.63,14.56-.4,21.59,1.74,14.35,4.36,22.28,14.55,25.19,28.89a56.53,56.53,0,0,1,.92,11q.1,39.45,0,78.91c0,7.19-1.09,14.19-4.36,20.67-5.14,10.18-13.3,16.62-24.45,19a57.68,57.68,0,0,1-26.36-.26,35.84,35.84,0,0,1-27.24-31.1,85.37,85.37,0,0,1-.55-9.32c-.06-13,0-26.07,0-39.1Zm27.14.27c0,12.07,0,24.14,0,36.21a79.75,79.75,0,0,0,.26,8.62c.55,4.77,1.95,9.33,7,11.11,5.7,2,11.53,2.13,16.7-1.58a8.77,8.77,0,0,0,3-4.47,34.83,34.83,0,0,0,1.47-9.15q.17-40.65,0-81.31A35.58,35.58,0,0,0,151,353c-.81-4.58-2.75-8.56-7.68-9.72-5.87-1.39-11.81-1.81-16.65,2.88a8.94,8.94,0,0,0-2.33,4.11,39.64,39.64,0,0,0-1.26,8.71C123,372.54,123,386.13,123,399.73Z"/>
    <path class="cls-4" d="M438.63,321.1h27.14v2.71q0,57,0,113.92a43.82,43.82,0,0,0,.63,8.1c1.46,7.58,6.46,11.3,14.42,11,7.52-.25,12.15-4.39,13.21-11.91a42.23,42.23,0,0,0,.41-5.73q0-57.56,0-115.12v-3h27.22v2.58c0,37.81.1,75.63-.11,113.44a67.67,67.67,0,0,1-2.39,17.93c-3.35,11.82-11.46,19.59-23.18,23.22a52.31,52.31,0,0,1-31.61,0c-14.68-4.61-22.65-15.13-25-30.08a75.65,75.65,0,0,1-.76-11.46q-.09-56.36,0-112.72Z"/>
    <path class="cls-3" d="M370.86,666.39V513.61a2.72,2.72,0,0,1,.69-.24c14.39,0,28.79-.31,43.16.17,11.63.4,21.87,4.54,28.87,14.51,4.52,6.43,6.52,13.81,7.27,21.53.39,4,.49,8,.5,12q.07,30.69,0,61.38A59,59,0,0,1,448,643.13c-4.69,12.8-14.06,20-27.3,22.31a72.84,72.84,0,0,1-11.44.91c-11.82.11-23.66,0-35.49,0Zm26.4-21.78c3.59,0,6.95,0,10.3,0,1.2,0,2.4-.11,3.59-.23,7.51-.81,11.37-4.19,13-11.59a36.63,36.63,0,0,0,.85-7.59q.09-35.37,0-70.74a42.4,42.4,0,0,0-1-8.53,12.11,12.11,0,0,0-9.06-9.84c-5.78-1.62-11.67-1-17.59-1Z"/>
    <path class="cls-5" d="M87,589.61c0-13.5-.09-27,0-40.52.1-10.8,3.52-20.36,11.4-28.06a31.77,31.77,0,0,1,14-7.94,55.43,55.43,0,0,1,28-.47c14.12,3.36,24.23,14.57,26.47,29.2a63.33,63.33,0,0,1,.75,9.53q.09,38.85,0,77.69c0,7.35-1.28,14.44-4.88,21-6.54,11.87-17.05,17.26-30.13,18.27a56.27,56.27,0,0,1-18.33-1.2c-15.11-3.86-23.51-14-26.51-28.87a48.89,48.89,0,0,1-.76-9.29C86.93,615.83,87,602.72,87,589.61Zm54.07.14h.14c0-8.31,0-16.62,0-24.94,0-6,.07-12-.25-18-.45-8.37-4.16-12.26-12.33-12.63-9.24-.41-14,2.78-15,12.68-.11,1.11-.16,2.23-.16,3.35q0,39.56,0,79.12a29.29,29.29,0,0,0,.24,4.3c.54,3.69,1.46,7.27,4.74,9.58a14.22,14.22,0,0,0,22.47-9.39,14,14,0,0,0,.15-2.15Q141.06,610.73,141.05,589.75Z"/>
    <path class="cls-3" d="M747.78,589.86c0,14,.19,28,0,41.95-.28,15.86-9.25,29-22.9,34-8.05,2.94-16.4,3.2-24.82,2.26-7.2-.8-13.89-3-19.52-7.74a36,36,0,0,1-13.15-28.18c-.27-27.49-.16-55-.12-82.47a48.13,48.13,0,0,1,.94-9c3.24-16.54,15.59-27.53,32.37-29.12a60,60,0,0,1,20.23,1.15,35,35,0,0,1,26.57,31c.49,5.31.47,10.68.5,16,.08,10.07,0,20.14,0,30.21Zm-26.39,0h.08c0-12.55,0-25.1,0-37.65a55.22,55.22,0,0,0-.51-7.16c-.79-5.94-3.66-9.48-8.7-10.36a27.71,27.71,0,0,0-7.61-.24c-6.12.67-9.15,3.54-10.39,9.51a24.61,24.61,0,0,0-.57,5c0,27.18-.12,54.36,0,81.54,0,11.39,5.11,15.78,16.41,14.89,5.8-.45,9.09-3.18,10.43-8.83a26.4,26.4,0,0,0,.83-5.92C721.43,617,721.39,603.44,721.39,589.85Z"/>
    <path class="cls-2" d="M181.28,513.46h26.39v2.91q0,56.49,0,113a27.77,27.77,0,0,0,.67,6.17c1.68,7.1,6.3,10.2,14.46,9.93,6.56-.22,11-4.23,12.14-11a39.55,39.55,0,0,0,.51-6.43q0-55.77,0-111.52v-3h26.39v2.4c0,37.49.09,75-.11,112.47a56.45,56.45,0,0,1-2.33,15.54c-3.59,12.17-12.11,19.65-24.22,22.94a53.46,53.46,0,0,1-25.64.44c-15.59-3.4-26.13-15.27-27.8-31.19a88.78,88.78,0,0,1-.48-9.08q0-55.28,0-110.56Z"/>
    <path class="cls-1" d="M81.76,373.46H54.55c0-4.52.23-8.93-.08-13.29a36.41,36.41,0,0,0-1.87-9.8c-2.18-6-7-8.44-14-7.76-6,.58-9.56,3.93-10.72,10.14a33.12,33.12,0,0,0-.55,6q-.06,41,0,82a34.7,34.7,0,0,0,.85,6.87c1.08,5.18,4.33,8.28,9.58,9a26,26,0,0,0,7.15.05c5.44-.83,8.52-4.18,9.19-10.1.43-3.79.38-7.65.44-11.48.07-4.22,0-8.45,0-12.85H81.39c.12.17.28.3.28.43-.11,10.2,1,20.46-1.58,30.52-4,15.59-16.79,26.12-32.89,27.21-7,.47-13.91.3-20.65-1.69C12,474.33,3.9,464.11,1,449.57a54.83,54.83,0,0,1-.93-10.71q-.11-39.57,0-79.13c0-7.51,1.22-14.8,4.81-21.51,6.3-11.75,16.45-17.63,29.44-19.09,7.29-.81,14.54-.63,21.57,1.64,13.23,4.28,20.5,14.06,24.13,27C82.33,356.07,81.69,364.66,81.76,373.46Z"/>
    <path class="cls-1" d="M546.06,666.25H520.51q-1.47-10.54-2.92-21.07c-.51-3.71-.94-7.44-1.55-11.14a2.25,2.25,0,0,0-1.54-1.49c-9-.09-18.05-.07-27.32-.07-1.57,11.32-3.12,22.52-4.68,33.8H457l28.14-152.77h32.83Q532,589.71,546.06,666.25Zm-44.35-122h-.41c-3.42,21.63-6.84,43.26-10.28,65.06h21C508.55,587.52,505.13,565.89,501.71,544.26Z"/>
    <path class="cls-1" d="M848.49,321.06c-2.33,6.59-4.51,12.82-6.72,19q-12.66,35.61-25.3,71.22a11.28,11.28,0,0,0-.54,3.75q-.06,30.21,0,60.43v2.75H788.71V475.7c0-19.11-.05-38.22,0-57.32a29.81,29.81,0,0,0-1.85-10.49q-15.1-42.22-30-84.52c-.25-.73-.49-1.47-.8-2.4,9,0,17.66,0,26.37.09.61,0,1.52,1.16,1.77,1.95,5,15.64,9.95,31.31,14.91,47l3.6,11.33c6.2-20.51,12.19-40.36,18.2-60.25Z"/>
    <path class="cls-1" d="M76.11,513.49v22.87H29.26v39.17H64.18v22.93h-35v67.79H2.92V513.49Z"/>
    <path class="cls-3" d="M698.62,344.57h-26V321.15h79.12v23.3H725.85V478.27H698.62Z"/>
    <path class="cls-6" d="M614.63,513.53v22.82H589.38v129.9H563V536.43H537.59v-22.9Z"/>
    <path class="cls-4" d="M661.86,478.32H635V321.13h26.88Z"/>
    <path class="cls-6" d="M651.55,666.33H625.46V513.53h26.09Z"/>
    <path class="cls-5" d="M70.23,848.21H51V702.53H70.23Z"/>
    <path class="cls-7" d="M118.56,848.2H99.32V702.52h19.24Z"/>
    <path class="cls-8" d="M166.76,848.23H147.48V702.57h19.28Z"/>
    <path class="cls-5" d="M215,848.21H195.74V702.52H215Z"/>
    <path class="cls-9" d="M244,702.46h19.15V848.11H244Z"/>
    <path class="cls-10" d="M311.61,702.51v145.6h-19.4V702.51Z"/>
    <path class="cls-7" d="M340.45,702.45h19.2V848.12h-19.2Z"/>
    <path class="cls-1" d="M408,848.22H388.7V702.48H408Z"/>
    <path class="cls-9" d="M436.88,702.45h19.2V848.13h-19.2Z"/>
    <path class="cls-10" d="M485.21,702.47h19.17V848.1H485.21Z"/>
    <path class="cls-7" d="M552.73,848.2H533.48V702.52h19.25Z"/>
    <path class="cls-8" d="M600.92,848.22H581.65V702.49h19.27Z"/>
    <path class="cls-5" d="M629.93,702.45h19.19V848.12H629.93Z"/>
    <path class="cls-10" d="M697.34,848.21H678.16V702.55h19.18Z"/>
    <path class="cls-5" d="M726.41,702.45h19.15V848.12H726.41Z"/>
    <path class="cls-9" d="M793.84,848.22H774.6V702.53h19.24Z"/>
    <path class="cls-1" d="M842.14,848.22H822.87V702.48h19.27Z"/>
    <path class="cls-2" d="M2.9,702.48H22V848.16H2.9Z"/>
  </g>
</svg>
