<svg xmlns="http://www.w3.org/2000/svg" viewBox="0 0 779.27 162.74">
  <g style="fill:#142932;">
    <path d="M100.83,0H127a34.93,34.93,0,0,1,.38,3.87c-.2,25-.07,50-.84,74.94-.3,9.92-2.14,19.86-4.1,29.62a55,55,0,0,1-22.4,34.92c-9.56,6.83-19.67,12.87-29.74,19.39L51.21,139.2c4.79-2.86,9.32-5.63,13.9-8.3,20-11.66,31.76-29,33.54-52,1.65-21.21,1.55-42.55,2.16-63.84C101,10.15,100.83,5.19,100.83,0Z"/>
    <path d="M43.94,130.19l-18.71-23a30.88,30.88,0,0,1,3.4-2.27C52.51,93.43,62.25,73.41,62.81,48c.3-14,.14-27.95.19-41.93,0-1.66,0-3.32,0-5.39H88.71a10.53,10.53,0,0,1,.54,2.5c-.18,21.3-.14,42.6-.76,63.89-.2,7.07-1.79,14.16-3.3,21.12-2.59,11.91-9.34,21.26-19.31,28.11C58.8,121.17,51.37,125.52,43.94,130.19Z"/>
    <path d="M1.84,78.36c10.47-6.34,23.3-10,21.84-26.29H0V1.1H50.86c.29.44.62.71.61,1-.26,17.64-.17,35.3-.94,52.92-.74,17.15-8.92,30-24.37,38-2.79,1.44-5.52,3-8.59,4.68C12.31,91.23,7.2,84.94,1.84,78.36Z"/>
    <path d="M779.27,131.29c-6.87,0-12.8.21-18.69-.16-1.41-.08-3-1.86-4-3.22-6-8.14-11.91-16.4-17.7-24.42-12.52,6-8.5,17.44-9.35,27.8a131.29,131.29,0,0,1-13.5-.19c-1-.11-2.58-2.64-2.61-4.09-.23-10.15-.12-20.31-.13-30.47q0-31,0-61.94V28.22h16.18V89.33c1.83-1.54,2.82-2.22,3.64-3.08C740,79,746.75,71.68,753.86,64.68a11.81,11.81,0,0,1,6.87-2.91c5.42-.42,10.9-.13,17.89-.13L750.09,91.12Z"/>
    <path d="M303.56,131.07H286.88v-9.52c0-10.66.08-21.33,0-32-.1-9-4.44-14.15-12.23-14.86-8.73-.79-14.42,3.26-16,12.11a89.76,89.76,0,0,0-.85,14.4c-.12,9.82,0,19.63,0,29.79H241.81V28.14h15.91V68c8.18-7.73,17.09-9.53,26.65-7.71,11.09,2.11,18.47,10.81,19,23.82C304.06,99.59,303.56,115.1,303.56,131.07Z"/>
    <path d="M540.42,101H490.36c-.66,7.43,4.47,14.47,12.13,17.13,9.77,3.39,16.82.37,24.45-10.82l13.27,4.15c-2.5,8.26-7.11,14.19-14.24,17.73-13.34,6.62-26.69,6.16-38.68-2.78-13-9.7-16.34-23.67-13.27-38.87,2.82-14,11.38-24,25.68-26.94C527.71,54.87,544.22,75.48,540.42,101ZM524,88.52c-.21-9.37-6.86-15.33-16.73-15.21-9.22.1-16.47,6.71-16.41,15.21Z"/>
    <path d="M660.57,131H646.15c-.32-2.28-.64-4.48-1.09-7.69-5.53,6.28-11.8,9.71-19.68,10.08-12,.56-22-5.83-24.6-16.1-2.56-10.07,2-20,12-23.3,7.82-2.57,16.2-3.45,24.34-5,3.11-.59,6.7-.59,7.09-4.81A9.25,9.25,0,0,0,639,74.71a15.16,15.16,0,0,0-21.5,7.6c-.37.91-.77,1.81-1.31,3.07-2.41-.52-4.79-1-7.17-1.55s-4.51-1-7.21-1.66c.09-6,3-10.5,6.9-14.38,10.24-10.13,31.7-11.15,43-2.23a22.32,22.32,0,0,1,8.7,17.77C660.76,99.11,660.57,114.9,660.57,131Zm-17-31.82c-6.75,1.18-13.62,2-20.31,3.67-4.44,1.07-6.94,4.43-6.58,9.27.34,4.39,3.6,7.43,8.6,8.23C637.28,122.28,646.28,112.31,643.58,99.19Z"/>
    <path d="M399,61.67c5.7,0,10.84-.31,15.89.2,1.43.14,3.17,2.47,3.82,4.16,5.13,13.34,10,26.77,15,40.17.45,1.2,1,2.35,2.07,4.74l9-24.54c2.63-7.18,5.14-14.4,8-21.5.54-1.34,2.28-3,3.59-3.09,4.61-.38,9.27-.15,14.44-.15-.51,1.76-.77,3-1.24,4.19-8,20.43-16.11,40.82-24,61.29-1.19,3.09-2.66,4.32-6.12,4.29-12.18-.1-12.13,0-16.79-11.43-7.07-17.4-14.22-34.78-21.32-52.17C400.62,66,400,64.16,399,61.67Z"/>
    <path d="M560.52,40.51h15.07v21h13.75V76.19H575.63v25.87c0,1.67,0,3.33,0,5,0,8.46,2.7,10.91,11.27,10.27.81-.06,1.62-.1,3.08-.18,0,4,.16,7.75-.11,11.51a3.68,3.68,0,0,1-2.36,2.55c-7.33,1.31-14.61,1.62-21.09-3-6.07-4.34-7.4-10.82-7.48-17.65-.14-11.12,0-22.25,0-34.13a82.7,82.7,0,0,1-9.65-.12c-1.15-.14-3-1.62-3.06-2.62-.36-3.76-.14-7.58-.14-11.92C562.75,63,560.5,51.08,560.52,40.51Z"/>
    <path d="M228.71,61.58V76.45h-14c0,12-.22,23.47.12,34.9.13,4.07,3.55,5.76,7.41,6,2,.13,4,0,6.7,0,0,3.63.12,7.39-.09,11.14a3.69,3.69,0,0,1-1.8,2.54c-10.67,5.4-26.27-2.35-28.35-14.11a54.43,54.43,0,0,1-.68-8.94c-.12-10-.11-20-.17-30a6.44,6.44,0,0,0-.55-1.48H185.43V61.77c16.63,1.44,14-10.88,14.4-21.23h14.72v21Z"/>
    <path d="M694.16,130.94H678.45V28.14h15.71Z"/>
    <path d="M361.31,77.65c-1.8,0-3.42,0-5,0-11.78.1-18.24,6.19-18.6,18.14-.29,9.82-.08,19.65-.09,29.48V131H321.4V62h15.46c.25,2.64.49,5.32.82,8.84,6.23-8.17,14-10.8,23.63-9.66Z"/>
    <path d="M373.06,61.92h16.2v69h-16.2Z"/>
    <path d="M391.77,37c.06,6.38-4.15,10.75-10.44,10.83a10.42,10.42,0,0,1-10.82-10.58,10.52,10.52,0,0,1,10.56-10.87C387.35,26.35,391.71,30.68,391.77,37Z"/>
  </g>
</svg>
